G04 #@! TF.GenerationSoftware,KiCad,Pcbnew,(5.1.2)-1*
G04 #@! TF.CreationDate,2019-11-04T01:50:09+09:00*
G04 #@! TF.ProjectId,IR,49522e6b-6963-4616-945f-706362585858,v1.1*
G04 #@! TF.SameCoordinates,Original*
G04 #@! TF.FileFunction,Copper,L2,Bot*
G04 #@! TF.FilePolarity,Positive*
%FSLAX46Y46*%
G04 Gerber Fmt 4.6, Leading zero omitted, Abs format (unit mm)*
G04 Created by KiCad (PCBNEW (5.1.2)-1) date 2019-11-04 01:50:09*
%MOMM*%
%LPD*%
G04 APERTURE LIST*
%ADD10O,1.800000X1.524000*%
%ADD11C,0.050000*%
%ADD12C,0.975000*%
%ADD13C,0.875000*%
%ADD14R,1.060000X0.650000*%
%ADD15C,1.000000*%
%ADD16R,0.450000X1.500000*%
%ADD17R,1.600000X1.600000*%
%ADD18C,1.600000*%
%ADD19C,4.000000*%
%ADD20C,0.800000*%
%ADD21C,0.350000*%
%ADD22C,0.254000*%
G04 APERTURE END LIST*
D10*
X185200000Y-114000000D03*
X185200000Y-112000000D03*
X185200000Y-110000000D03*
X185200000Y-108000000D03*
D11*
G36*
X183180142Y-100276174D02*
G01*
X183203803Y-100279684D01*
X183227007Y-100285496D01*
X183249529Y-100293554D01*
X183271153Y-100303782D01*
X183291670Y-100316079D01*
X183310883Y-100330329D01*
X183328607Y-100346393D01*
X183344671Y-100364117D01*
X183358921Y-100383330D01*
X183371218Y-100403847D01*
X183381446Y-100425471D01*
X183389504Y-100447993D01*
X183395316Y-100471197D01*
X183398826Y-100494858D01*
X183400000Y-100518750D01*
X183400000Y-101006250D01*
X183398826Y-101030142D01*
X183395316Y-101053803D01*
X183389504Y-101077007D01*
X183381446Y-101099529D01*
X183371218Y-101121153D01*
X183358921Y-101141670D01*
X183344671Y-101160883D01*
X183328607Y-101178607D01*
X183310883Y-101194671D01*
X183291670Y-101208921D01*
X183271153Y-101221218D01*
X183249529Y-101231446D01*
X183227007Y-101239504D01*
X183203803Y-101245316D01*
X183180142Y-101248826D01*
X183156250Y-101250000D01*
X182243750Y-101250000D01*
X182219858Y-101248826D01*
X182196197Y-101245316D01*
X182172993Y-101239504D01*
X182150471Y-101231446D01*
X182128847Y-101221218D01*
X182108330Y-101208921D01*
X182089117Y-101194671D01*
X182071393Y-101178607D01*
X182055329Y-101160883D01*
X182041079Y-101141670D01*
X182028782Y-101121153D01*
X182018554Y-101099529D01*
X182010496Y-101077007D01*
X182004684Y-101053803D01*
X182001174Y-101030142D01*
X182000000Y-101006250D01*
X182000000Y-100518750D01*
X182001174Y-100494858D01*
X182004684Y-100471197D01*
X182010496Y-100447993D01*
X182018554Y-100425471D01*
X182028782Y-100403847D01*
X182041079Y-100383330D01*
X182055329Y-100364117D01*
X182071393Y-100346393D01*
X182089117Y-100330329D01*
X182108330Y-100316079D01*
X182128847Y-100303782D01*
X182150471Y-100293554D01*
X182172993Y-100285496D01*
X182196197Y-100279684D01*
X182219858Y-100276174D01*
X182243750Y-100275000D01*
X183156250Y-100275000D01*
X183180142Y-100276174D01*
X183180142Y-100276174D01*
G37*
D12*
X182700000Y-100762500D03*
D11*
G36*
X183180142Y-102151174D02*
G01*
X183203803Y-102154684D01*
X183227007Y-102160496D01*
X183249529Y-102168554D01*
X183271153Y-102178782D01*
X183291670Y-102191079D01*
X183310883Y-102205329D01*
X183328607Y-102221393D01*
X183344671Y-102239117D01*
X183358921Y-102258330D01*
X183371218Y-102278847D01*
X183381446Y-102300471D01*
X183389504Y-102322993D01*
X183395316Y-102346197D01*
X183398826Y-102369858D01*
X183400000Y-102393750D01*
X183400000Y-102881250D01*
X183398826Y-102905142D01*
X183395316Y-102928803D01*
X183389504Y-102952007D01*
X183381446Y-102974529D01*
X183371218Y-102996153D01*
X183358921Y-103016670D01*
X183344671Y-103035883D01*
X183328607Y-103053607D01*
X183310883Y-103069671D01*
X183291670Y-103083921D01*
X183271153Y-103096218D01*
X183249529Y-103106446D01*
X183227007Y-103114504D01*
X183203803Y-103120316D01*
X183180142Y-103123826D01*
X183156250Y-103125000D01*
X182243750Y-103125000D01*
X182219858Y-103123826D01*
X182196197Y-103120316D01*
X182172993Y-103114504D01*
X182150471Y-103106446D01*
X182128847Y-103096218D01*
X182108330Y-103083921D01*
X182089117Y-103069671D01*
X182071393Y-103053607D01*
X182055329Y-103035883D01*
X182041079Y-103016670D01*
X182028782Y-102996153D01*
X182018554Y-102974529D01*
X182010496Y-102952007D01*
X182004684Y-102928803D01*
X182001174Y-102905142D01*
X182000000Y-102881250D01*
X182000000Y-102393750D01*
X182001174Y-102369858D01*
X182004684Y-102346197D01*
X182010496Y-102322993D01*
X182018554Y-102300471D01*
X182028782Y-102278847D01*
X182041079Y-102258330D01*
X182055329Y-102239117D01*
X182071393Y-102221393D01*
X182089117Y-102205329D01*
X182108330Y-102191079D01*
X182128847Y-102178782D01*
X182150471Y-102168554D01*
X182172993Y-102160496D01*
X182196197Y-102154684D01*
X182219858Y-102151174D01*
X182243750Y-102150000D01*
X183156250Y-102150000D01*
X183180142Y-102151174D01*
X183180142Y-102151174D01*
G37*
D12*
X182700000Y-102637500D03*
D11*
G36*
X190727691Y-100226053D02*
G01*
X190748926Y-100229203D01*
X190769750Y-100234419D01*
X190789962Y-100241651D01*
X190809368Y-100250830D01*
X190827781Y-100261866D01*
X190845024Y-100274654D01*
X190860930Y-100289070D01*
X190875346Y-100304976D01*
X190888134Y-100322219D01*
X190899170Y-100340632D01*
X190908349Y-100360038D01*
X190915581Y-100380250D01*
X190920797Y-100401074D01*
X190923947Y-100422309D01*
X190925000Y-100443750D01*
X190925000Y-100956250D01*
X190923947Y-100977691D01*
X190920797Y-100998926D01*
X190915581Y-101019750D01*
X190908349Y-101039962D01*
X190899170Y-101059368D01*
X190888134Y-101077781D01*
X190875346Y-101095024D01*
X190860930Y-101110930D01*
X190845024Y-101125346D01*
X190827781Y-101138134D01*
X190809368Y-101149170D01*
X190789962Y-101158349D01*
X190769750Y-101165581D01*
X190748926Y-101170797D01*
X190727691Y-101173947D01*
X190706250Y-101175000D01*
X190268750Y-101175000D01*
X190247309Y-101173947D01*
X190226074Y-101170797D01*
X190205250Y-101165581D01*
X190185038Y-101158349D01*
X190165632Y-101149170D01*
X190147219Y-101138134D01*
X190129976Y-101125346D01*
X190114070Y-101110930D01*
X190099654Y-101095024D01*
X190086866Y-101077781D01*
X190075830Y-101059368D01*
X190066651Y-101039962D01*
X190059419Y-101019750D01*
X190054203Y-100998926D01*
X190051053Y-100977691D01*
X190050000Y-100956250D01*
X190050000Y-100443750D01*
X190051053Y-100422309D01*
X190054203Y-100401074D01*
X190059419Y-100380250D01*
X190066651Y-100360038D01*
X190075830Y-100340632D01*
X190086866Y-100322219D01*
X190099654Y-100304976D01*
X190114070Y-100289070D01*
X190129976Y-100274654D01*
X190147219Y-100261866D01*
X190165632Y-100250830D01*
X190185038Y-100241651D01*
X190205250Y-100234419D01*
X190226074Y-100229203D01*
X190247309Y-100226053D01*
X190268750Y-100225000D01*
X190706250Y-100225000D01*
X190727691Y-100226053D01*
X190727691Y-100226053D01*
G37*
D13*
X190487500Y-100700000D03*
D11*
G36*
X189152691Y-100226053D02*
G01*
X189173926Y-100229203D01*
X189194750Y-100234419D01*
X189214962Y-100241651D01*
X189234368Y-100250830D01*
X189252781Y-100261866D01*
X189270024Y-100274654D01*
X189285930Y-100289070D01*
X189300346Y-100304976D01*
X189313134Y-100322219D01*
X189324170Y-100340632D01*
X189333349Y-100360038D01*
X189340581Y-100380250D01*
X189345797Y-100401074D01*
X189348947Y-100422309D01*
X189350000Y-100443750D01*
X189350000Y-100956250D01*
X189348947Y-100977691D01*
X189345797Y-100998926D01*
X189340581Y-101019750D01*
X189333349Y-101039962D01*
X189324170Y-101059368D01*
X189313134Y-101077781D01*
X189300346Y-101095024D01*
X189285930Y-101110930D01*
X189270024Y-101125346D01*
X189252781Y-101138134D01*
X189234368Y-101149170D01*
X189214962Y-101158349D01*
X189194750Y-101165581D01*
X189173926Y-101170797D01*
X189152691Y-101173947D01*
X189131250Y-101175000D01*
X188693750Y-101175000D01*
X188672309Y-101173947D01*
X188651074Y-101170797D01*
X188630250Y-101165581D01*
X188610038Y-101158349D01*
X188590632Y-101149170D01*
X188572219Y-101138134D01*
X188554976Y-101125346D01*
X188539070Y-101110930D01*
X188524654Y-101095024D01*
X188511866Y-101077781D01*
X188500830Y-101059368D01*
X188491651Y-101039962D01*
X188484419Y-101019750D01*
X188479203Y-100998926D01*
X188476053Y-100977691D01*
X188475000Y-100956250D01*
X188475000Y-100443750D01*
X188476053Y-100422309D01*
X188479203Y-100401074D01*
X188484419Y-100380250D01*
X188491651Y-100360038D01*
X188500830Y-100340632D01*
X188511866Y-100322219D01*
X188524654Y-100304976D01*
X188539070Y-100289070D01*
X188554976Y-100274654D01*
X188572219Y-100261866D01*
X188590632Y-100250830D01*
X188610038Y-100241651D01*
X188630250Y-100234419D01*
X188651074Y-100229203D01*
X188672309Y-100226053D01*
X188693750Y-100225000D01*
X189131250Y-100225000D01*
X189152691Y-100226053D01*
X189152691Y-100226053D01*
G37*
D13*
X188912500Y-100700000D03*
D11*
G36*
X189230142Y-101901174D02*
G01*
X189253803Y-101904684D01*
X189277007Y-101910496D01*
X189299529Y-101918554D01*
X189321153Y-101928782D01*
X189341670Y-101941079D01*
X189360883Y-101955329D01*
X189378607Y-101971393D01*
X189394671Y-101989117D01*
X189408921Y-102008330D01*
X189421218Y-102028847D01*
X189431446Y-102050471D01*
X189439504Y-102072993D01*
X189445316Y-102096197D01*
X189448826Y-102119858D01*
X189450000Y-102143750D01*
X189450000Y-103056250D01*
X189448826Y-103080142D01*
X189445316Y-103103803D01*
X189439504Y-103127007D01*
X189431446Y-103149529D01*
X189421218Y-103171153D01*
X189408921Y-103191670D01*
X189394671Y-103210883D01*
X189378607Y-103228607D01*
X189360883Y-103244671D01*
X189341670Y-103258921D01*
X189321153Y-103271218D01*
X189299529Y-103281446D01*
X189277007Y-103289504D01*
X189253803Y-103295316D01*
X189230142Y-103298826D01*
X189206250Y-103300000D01*
X188718750Y-103300000D01*
X188694858Y-103298826D01*
X188671197Y-103295316D01*
X188647993Y-103289504D01*
X188625471Y-103281446D01*
X188603847Y-103271218D01*
X188583330Y-103258921D01*
X188564117Y-103244671D01*
X188546393Y-103228607D01*
X188530329Y-103210883D01*
X188516079Y-103191670D01*
X188503782Y-103171153D01*
X188493554Y-103149529D01*
X188485496Y-103127007D01*
X188479684Y-103103803D01*
X188476174Y-103080142D01*
X188475000Y-103056250D01*
X188475000Y-102143750D01*
X188476174Y-102119858D01*
X188479684Y-102096197D01*
X188485496Y-102072993D01*
X188493554Y-102050471D01*
X188503782Y-102028847D01*
X188516079Y-102008330D01*
X188530329Y-101989117D01*
X188546393Y-101971393D01*
X188564117Y-101955329D01*
X188583330Y-101941079D01*
X188603847Y-101928782D01*
X188625471Y-101918554D01*
X188647993Y-101910496D01*
X188671197Y-101904684D01*
X188694858Y-101901174D01*
X188718750Y-101900000D01*
X189206250Y-101900000D01*
X189230142Y-101901174D01*
X189230142Y-101901174D01*
G37*
D12*
X188962500Y-102600000D03*
D11*
G36*
X191105142Y-101901174D02*
G01*
X191128803Y-101904684D01*
X191152007Y-101910496D01*
X191174529Y-101918554D01*
X191196153Y-101928782D01*
X191216670Y-101941079D01*
X191235883Y-101955329D01*
X191253607Y-101971393D01*
X191269671Y-101989117D01*
X191283921Y-102008330D01*
X191296218Y-102028847D01*
X191306446Y-102050471D01*
X191314504Y-102072993D01*
X191320316Y-102096197D01*
X191323826Y-102119858D01*
X191325000Y-102143750D01*
X191325000Y-103056250D01*
X191323826Y-103080142D01*
X191320316Y-103103803D01*
X191314504Y-103127007D01*
X191306446Y-103149529D01*
X191296218Y-103171153D01*
X191283921Y-103191670D01*
X191269671Y-103210883D01*
X191253607Y-103228607D01*
X191235883Y-103244671D01*
X191216670Y-103258921D01*
X191196153Y-103271218D01*
X191174529Y-103281446D01*
X191152007Y-103289504D01*
X191128803Y-103295316D01*
X191105142Y-103298826D01*
X191081250Y-103300000D01*
X190593750Y-103300000D01*
X190569858Y-103298826D01*
X190546197Y-103295316D01*
X190522993Y-103289504D01*
X190500471Y-103281446D01*
X190478847Y-103271218D01*
X190458330Y-103258921D01*
X190439117Y-103244671D01*
X190421393Y-103228607D01*
X190405329Y-103210883D01*
X190391079Y-103191670D01*
X190378782Y-103171153D01*
X190368554Y-103149529D01*
X190360496Y-103127007D01*
X190354684Y-103103803D01*
X190351174Y-103080142D01*
X190350000Y-103056250D01*
X190350000Y-102143750D01*
X190351174Y-102119858D01*
X190354684Y-102096197D01*
X190360496Y-102072993D01*
X190368554Y-102050471D01*
X190378782Y-102028847D01*
X190391079Y-102008330D01*
X190405329Y-101989117D01*
X190421393Y-101971393D01*
X190439117Y-101955329D01*
X190458330Y-101941079D01*
X190478847Y-101928782D01*
X190500471Y-101918554D01*
X190522993Y-101910496D01*
X190546197Y-101904684D01*
X190569858Y-101901174D01*
X190593750Y-101900000D01*
X191081250Y-101900000D01*
X191105142Y-101901174D01*
X191105142Y-101901174D01*
G37*
D12*
X190837500Y-102600000D03*
D14*
X184700000Y-102650000D03*
X184700000Y-101700000D03*
X184700000Y-100750000D03*
X186900000Y-100750000D03*
X186900000Y-102650000D03*
D15*
X196700000Y-125200000D03*
D11*
G36*
X196377691Y-116814053D02*
G01*
X196398926Y-116817203D01*
X196419750Y-116822419D01*
X196439962Y-116829651D01*
X196459368Y-116838830D01*
X196477781Y-116849866D01*
X196495024Y-116862654D01*
X196510930Y-116877070D01*
X196525346Y-116892976D01*
X196538134Y-116910219D01*
X196549170Y-116928632D01*
X196558349Y-116948038D01*
X196565581Y-116968250D01*
X196570797Y-116989074D01*
X196573947Y-117010309D01*
X196575000Y-117031750D01*
X196575000Y-117469250D01*
X196573947Y-117490691D01*
X196570797Y-117511926D01*
X196565581Y-117532750D01*
X196558349Y-117552962D01*
X196549170Y-117572368D01*
X196538134Y-117590781D01*
X196525346Y-117608024D01*
X196510930Y-117623930D01*
X196495024Y-117638346D01*
X196477781Y-117651134D01*
X196459368Y-117662170D01*
X196439962Y-117671349D01*
X196419750Y-117678581D01*
X196398926Y-117683797D01*
X196377691Y-117686947D01*
X196356250Y-117688000D01*
X195843750Y-117688000D01*
X195822309Y-117686947D01*
X195801074Y-117683797D01*
X195780250Y-117678581D01*
X195760038Y-117671349D01*
X195740632Y-117662170D01*
X195722219Y-117651134D01*
X195704976Y-117638346D01*
X195689070Y-117623930D01*
X195674654Y-117608024D01*
X195661866Y-117590781D01*
X195650830Y-117572368D01*
X195641651Y-117552962D01*
X195634419Y-117532750D01*
X195629203Y-117511926D01*
X195626053Y-117490691D01*
X195625000Y-117469250D01*
X195625000Y-117031750D01*
X195626053Y-117010309D01*
X195629203Y-116989074D01*
X195634419Y-116968250D01*
X195641651Y-116948038D01*
X195650830Y-116928632D01*
X195661866Y-116910219D01*
X195674654Y-116892976D01*
X195689070Y-116877070D01*
X195704976Y-116862654D01*
X195722219Y-116849866D01*
X195740632Y-116838830D01*
X195760038Y-116829651D01*
X195780250Y-116822419D01*
X195801074Y-116817203D01*
X195822309Y-116814053D01*
X195843750Y-116813000D01*
X196356250Y-116813000D01*
X196377691Y-116814053D01*
X196377691Y-116814053D01*
G37*
D13*
X196100000Y-117250500D03*
D11*
G36*
X196377691Y-118389053D02*
G01*
X196398926Y-118392203D01*
X196419750Y-118397419D01*
X196439962Y-118404651D01*
X196459368Y-118413830D01*
X196477781Y-118424866D01*
X196495024Y-118437654D01*
X196510930Y-118452070D01*
X196525346Y-118467976D01*
X196538134Y-118485219D01*
X196549170Y-118503632D01*
X196558349Y-118523038D01*
X196565581Y-118543250D01*
X196570797Y-118564074D01*
X196573947Y-118585309D01*
X196575000Y-118606750D01*
X196575000Y-119044250D01*
X196573947Y-119065691D01*
X196570797Y-119086926D01*
X196565581Y-119107750D01*
X196558349Y-119127962D01*
X196549170Y-119147368D01*
X196538134Y-119165781D01*
X196525346Y-119183024D01*
X196510930Y-119198930D01*
X196495024Y-119213346D01*
X196477781Y-119226134D01*
X196459368Y-119237170D01*
X196439962Y-119246349D01*
X196419750Y-119253581D01*
X196398926Y-119258797D01*
X196377691Y-119261947D01*
X196356250Y-119263000D01*
X195843750Y-119263000D01*
X195822309Y-119261947D01*
X195801074Y-119258797D01*
X195780250Y-119253581D01*
X195760038Y-119246349D01*
X195740632Y-119237170D01*
X195722219Y-119226134D01*
X195704976Y-119213346D01*
X195689070Y-119198930D01*
X195674654Y-119183024D01*
X195661866Y-119165781D01*
X195650830Y-119147368D01*
X195641651Y-119127962D01*
X195634419Y-119107750D01*
X195629203Y-119086926D01*
X195626053Y-119065691D01*
X195625000Y-119044250D01*
X195625000Y-118606750D01*
X195626053Y-118585309D01*
X195629203Y-118564074D01*
X195634419Y-118543250D01*
X195641651Y-118523038D01*
X195650830Y-118503632D01*
X195661866Y-118485219D01*
X195674654Y-118467976D01*
X195689070Y-118452070D01*
X195704976Y-118437654D01*
X195722219Y-118424866D01*
X195740632Y-118413830D01*
X195760038Y-118404651D01*
X195780250Y-118397419D01*
X195801074Y-118392203D01*
X195822309Y-118389053D01*
X195843750Y-118388000D01*
X196356250Y-118388000D01*
X196377691Y-118389053D01*
X196377691Y-118389053D01*
G37*
D13*
X196100000Y-118825500D03*
D11*
G36*
X195477691Y-104651053D02*
G01*
X195498926Y-104654203D01*
X195519750Y-104659419D01*
X195539962Y-104666651D01*
X195559368Y-104675830D01*
X195577781Y-104686866D01*
X195595024Y-104699654D01*
X195610930Y-104714070D01*
X195625346Y-104729976D01*
X195638134Y-104747219D01*
X195649170Y-104765632D01*
X195658349Y-104785038D01*
X195665581Y-104805250D01*
X195670797Y-104826074D01*
X195673947Y-104847309D01*
X195675000Y-104868750D01*
X195675000Y-105306250D01*
X195673947Y-105327691D01*
X195670797Y-105348926D01*
X195665581Y-105369750D01*
X195658349Y-105389962D01*
X195649170Y-105409368D01*
X195638134Y-105427781D01*
X195625346Y-105445024D01*
X195610930Y-105460930D01*
X195595024Y-105475346D01*
X195577781Y-105488134D01*
X195559368Y-105499170D01*
X195539962Y-105508349D01*
X195519750Y-105515581D01*
X195498926Y-105520797D01*
X195477691Y-105523947D01*
X195456250Y-105525000D01*
X194943750Y-105525000D01*
X194922309Y-105523947D01*
X194901074Y-105520797D01*
X194880250Y-105515581D01*
X194860038Y-105508349D01*
X194840632Y-105499170D01*
X194822219Y-105488134D01*
X194804976Y-105475346D01*
X194789070Y-105460930D01*
X194774654Y-105445024D01*
X194761866Y-105427781D01*
X194750830Y-105409368D01*
X194741651Y-105389962D01*
X194734419Y-105369750D01*
X194729203Y-105348926D01*
X194726053Y-105327691D01*
X194725000Y-105306250D01*
X194725000Y-104868750D01*
X194726053Y-104847309D01*
X194729203Y-104826074D01*
X194734419Y-104805250D01*
X194741651Y-104785038D01*
X194750830Y-104765632D01*
X194761866Y-104747219D01*
X194774654Y-104729976D01*
X194789070Y-104714070D01*
X194804976Y-104699654D01*
X194822219Y-104686866D01*
X194840632Y-104675830D01*
X194860038Y-104666651D01*
X194880250Y-104659419D01*
X194901074Y-104654203D01*
X194922309Y-104651053D01*
X194943750Y-104650000D01*
X195456250Y-104650000D01*
X195477691Y-104651053D01*
X195477691Y-104651053D01*
G37*
D13*
X195200000Y-105087500D03*
D11*
G36*
X195477691Y-103076053D02*
G01*
X195498926Y-103079203D01*
X195519750Y-103084419D01*
X195539962Y-103091651D01*
X195559368Y-103100830D01*
X195577781Y-103111866D01*
X195595024Y-103124654D01*
X195610930Y-103139070D01*
X195625346Y-103154976D01*
X195638134Y-103172219D01*
X195649170Y-103190632D01*
X195658349Y-103210038D01*
X195665581Y-103230250D01*
X195670797Y-103251074D01*
X195673947Y-103272309D01*
X195675000Y-103293750D01*
X195675000Y-103731250D01*
X195673947Y-103752691D01*
X195670797Y-103773926D01*
X195665581Y-103794750D01*
X195658349Y-103814962D01*
X195649170Y-103834368D01*
X195638134Y-103852781D01*
X195625346Y-103870024D01*
X195610930Y-103885930D01*
X195595024Y-103900346D01*
X195577781Y-103913134D01*
X195559368Y-103924170D01*
X195539962Y-103933349D01*
X195519750Y-103940581D01*
X195498926Y-103945797D01*
X195477691Y-103948947D01*
X195456250Y-103950000D01*
X194943750Y-103950000D01*
X194922309Y-103948947D01*
X194901074Y-103945797D01*
X194880250Y-103940581D01*
X194860038Y-103933349D01*
X194840632Y-103924170D01*
X194822219Y-103913134D01*
X194804976Y-103900346D01*
X194789070Y-103885930D01*
X194774654Y-103870024D01*
X194761866Y-103852781D01*
X194750830Y-103834368D01*
X194741651Y-103814962D01*
X194734419Y-103794750D01*
X194729203Y-103773926D01*
X194726053Y-103752691D01*
X194725000Y-103731250D01*
X194725000Y-103293750D01*
X194726053Y-103272309D01*
X194729203Y-103251074D01*
X194734419Y-103230250D01*
X194741651Y-103210038D01*
X194750830Y-103190632D01*
X194761866Y-103172219D01*
X194774654Y-103154976D01*
X194789070Y-103139070D01*
X194804976Y-103124654D01*
X194822219Y-103111866D01*
X194840632Y-103100830D01*
X194860038Y-103091651D01*
X194880250Y-103084419D01*
X194901074Y-103079203D01*
X194922309Y-103076053D01*
X194943750Y-103075000D01*
X195456250Y-103075000D01*
X195477691Y-103076053D01*
X195477691Y-103076053D01*
G37*
D13*
X195200000Y-103512500D03*
D11*
G36*
X192877691Y-118363053D02*
G01*
X192898926Y-118366203D01*
X192919750Y-118371419D01*
X192939962Y-118378651D01*
X192959368Y-118387830D01*
X192977781Y-118398866D01*
X192995024Y-118411654D01*
X193010930Y-118426070D01*
X193025346Y-118441976D01*
X193038134Y-118459219D01*
X193049170Y-118477632D01*
X193058349Y-118497038D01*
X193065581Y-118517250D01*
X193070797Y-118538074D01*
X193073947Y-118559309D01*
X193075000Y-118580750D01*
X193075000Y-119018250D01*
X193073947Y-119039691D01*
X193070797Y-119060926D01*
X193065581Y-119081750D01*
X193058349Y-119101962D01*
X193049170Y-119121368D01*
X193038134Y-119139781D01*
X193025346Y-119157024D01*
X193010930Y-119172930D01*
X192995024Y-119187346D01*
X192977781Y-119200134D01*
X192959368Y-119211170D01*
X192939962Y-119220349D01*
X192919750Y-119227581D01*
X192898926Y-119232797D01*
X192877691Y-119235947D01*
X192856250Y-119237000D01*
X192343750Y-119237000D01*
X192322309Y-119235947D01*
X192301074Y-119232797D01*
X192280250Y-119227581D01*
X192260038Y-119220349D01*
X192240632Y-119211170D01*
X192222219Y-119200134D01*
X192204976Y-119187346D01*
X192189070Y-119172930D01*
X192174654Y-119157024D01*
X192161866Y-119139781D01*
X192150830Y-119121368D01*
X192141651Y-119101962D01*
X192134419Y-119081750D01*
X192129203Y-119060926D01*
X192126053Y-119039691D01*
X192125000Y-119018250D01*
X192125000Y-118580750D01*
X192126053Y-118559309D01*
X192129203Y-118538074D01*
X192134419Y-118517250D01*
X192141651Y-118497038D01*
X192150830Y-118477632D01*
X192161866Y-118459219D01*
X192174654Y-118441976D01*
X192189070Y-118426070D01*
X192204976Y-118411654D01*
X192222219Y-118398866D01*
X192240632Y-118387830D01*
X192260038Y-118378651D01*
X192280250Y-118371419D01*
X192301074Y-118366203D01*
X192322309Y-118363053D01*
X192343750Y-118362000D01*
X192856250Y-118362000D01*
X192877691Y-118363053D01*
X192877691Y-118363053D01*
G37*
D13*
X192600000Y-118799500D03*
D11*
G36*
X192877691Y-116788053D02*
G01*
X192898926Y-116791203D01*
X192919750Y-116796419D01*
X192939962Y-116803651D01*
X192959368Y-116812830D01*
X192977781Y-116823866D01*
X192995024Y-116836654D01*
X193010930Y-116851070D01*
X193025346Y-116866976D01*
X193038134Y-116884219D01*
X193049170Y-116902632D01*
X193058349Y-116922038D01*
X193065581Y-116942250D01*
X193070797Y-116963074D01*
X193073947Y-116984309D01*
X193075000Y-117005750D01*
X193075000Y-117443250D01*
X193073947Y-117464691D01*
X193070797Y-117485926D01*
X193065581Y-117506750D01*
X193058349Y-117526962D01*
X193049170Y-117546368D01*
X193038134Y-117564781D01*
X193025346Y-117582024D01*
X193010930Y-117597930D01*
X192995024Y-117612346D01*
X192977781Y-117625134D01*
X192959368Y-117636170D01*
X192939962Y-117645349D01*
X192919750Y-117652581D01*
X192898926Y-117657797D01*
X192877691Y-117660947D01*
X192856250Y-117662000D01*
X192343750Y-117662000D01*
X192322309Y-117660947D01*
X192301074Y-117657797D01*
X192280250Y-117652581D01*
X192260038Y-117645349D01*
X192240632Y-117636170D01*
X192222219Y-117625134D01*
X192204976Y-117612346D01*
X192189070Y-117597930D01*
X192174654Y-117582024D01*
X192161866Y-117564781D01*
X192150830Y-117546368D01*
X192141651Y-117526962D01*
X192134419Y-117506750D01*
X192129203Y-117485926D01*
X192126053Y-117464691D01*
X192125000Y-117443250D01*
X192125000Y-117005750D01*
X192126053Y-116984309D01*
X192129203Y-116963074D01*
X192134419Y-116942250D01*
X192141651Y-116922038D01*
X192150830Y-116902632D01*
X192161866Y-116884219D01*
X192174654Y-116866976D01*
X192189070Y-116851070D01*
X192204976Y-116836654D01*
X192222219Y-116823866D01*
X192240632Y-116812830D01*
X192260038Y-116803651D01*
X192280250Y-116796419D01*
X192301074Y-116791203D01*
X192322309Y-116788053D01*
X192343750Y-116787000D01*
X192856250Y-116787000D01*
X192877691Y-116788053D01*
X192877691Y-116788053D01*
G37*
D13*
X192600000Y-117224500D03*
D11*
G36*
X194627691Y-118389053D02*
G01*
X194648926Y-118392203D01*
X194669750Y-118397419D01*
X194689962Y-118404651D01*
X194709368Y-118413830D01*
X194727781Y-118424866D01*
X194745024Y-118437654D01*
X194760930Y-118452070D01*
X194775346Y-118467976D01*
X194788134Y-118485219D01*
X194799170Y-118503632D01*
X194808349Y-118523038D01*
X194815581Y-118543250D01*
X194820797Y-118564074D01*
X194823947Y-118585309D01*
X194825000Y-118606750D01*
X194825000Y-119044250D01*
X194823947Y-119065691D01*
X194820797Y-119086926D01*
X194815581Y-119107750D01*
X194808349Y-119127962D01*
X194799170Y-119147368D01*
X194788134Y-119165781D01*
X194775346Y-119183024D01*
X194760930Y-119198930D01*
X194745024Y-119213346D01*
X194727781Y-119226134D01*
X194709368Y-119237170D01*
X194689962Y-119246349D01*
X194669750Y-119253581D01*
X194648926Y-119258797D01*
X194627691Y-119261947D01*
X194606250Y-119263000D01*
X194093750Y-119263000D01*
X194072309Y-119261947D01*
X194051074Y-119258797D01*
X194030250Y-119253581D01*
X194010038Y-119246349D01*
X193990632Y-119237170D01*
X193972219Y-119226134D01*
X193954976Y-119213346D01*
X193939070Y-119198930D01*
X193924654Y-119183024D01*
X193911866Y-119165781D01*
X193900830Y-119147368D01*
X193891651Y-119127962D01*
X193884419Y-119107750D01*
X193879203Y-119086926D01*
X193876053Y-119065691D01*
X193875000Y-119044250D01*
X193875000Y-118606750D01*
X193876053Y-118585309D01*
X193879203Y-118564074D01*
X193884419Y-118543250D01*
X193891651Y-118523038D01*
X193900830Y-118503632D01*
X193911866Y-118485219D01*
X193924654Y-118467976D01*
X193939070Y-118452070D01*
X193954976Y-118437654D01*
X193972219Y-118424866D01*
X193990632Y-118413830D01*
X194010038Y-118404651D01*
X194030250Y-118397419D01*
X194051074Y-118392203D01*
X194072309Y-118389053D01*
X194093750Y-118388000D01*
X194606250Y-118388000D01*
X194627691Y-118389053D01*
X194627691Y-118389053D01*
G37*
D13*
X194350000Y-118825500D03*
D11*
G36*
X194627691Y-116814053D02*
G01*
X194648926Y-116817203D01*
X194669750Y-116822419D01*
X194689962Y-116829651D01*
X194709368Y-116838830D01*
X194727781Y-116849866D01*
X194745024Y-116862654D01*
X194760930Y-116877070D01*
X194775346Y-116892976D01*
X194788134Y-116910219D01*
X194799170Y-116928632D01*
X194808349Y-116948038D01*
X194815581Y-116968250D01*
X194820797Y-116989074D01*
X194823947Y-117010309D01*
X194825000Y-117031750D01*
X194825000Y-117469250D01*
X194823947Y-117490691D01*
X194820797Y-117511926D01*
X194815581Y-117532750D01*
X194808349Y-117552962D01*
X194799170Y-117572368D01*
X194788134Y-117590781D01*
X194775346Y-117608024D01*
X194760930Y-117623930D01*
X194745024Y-117638346D01*
X194727781Y-117651134D01*
X194709368Y-117662170D01*
X194689962Y-117671349D01*
X194669750Y-117678581D01*
X194648926Y-117683797D01*
X194627691Y-117686947D01*
X194606250Y-117688000D01*
X194093750Y-117688000D01*
X194072309Y-117686947D01*
X194051074Y-117683797D01*
X194030250Y-117678581D01*
X194010038Y-117671349D01*
X193990632Y-117662170D01*
X193972219Y-117651134D01*
X193954976Y-117638346D01*
X193939070Y-117623930D01*
X193924654Y-117608024D01*
X193911866Y-117590781D01*
X193900830Y-117572368D01*
X193891651Y-117552962D01*
X193884419Y-117532750D01*
X193879203Y-117511926D01*
X193876053Y-117490691D01*
X193875000Y-117469250D01*
X193875000Y-117031750D01*
X193876053Y-117010309D01*
X193879203Y-116989074D01*
X193884419Y-116968250D01*
X193891651Y-116948038D01*
X193900830Y-116928632D01*
X193911866Y-116910219D01*
X193924654Y-116892976D01*
X193939070Y-116877070D01*
X193954976Y-116862654D01*
X193972219Y-116849866D01*
X193990632Y-116838830D01*
X194010038Y-116829651D01*
X194030250Y-116822419D01*
X194051074Y-116817203D01*
X194072309Y-116814053D01*
X194093750Y-116813000D01*
X194606250Y-116813000D01*
X194627691Y-116814053D01*
X194627691Y-116814053D01*
G37*
D13*
X194350000Y-117250500D03*
D11*
G36*
X191077691Y-116776053D02*
G01*
X191098926Y-116779203D01*
X191119750Y-116784419D01*
X191139962Y-116791651D01*
X191159368Y-116800830D01*
X191177781Y-116811866D01*
X191195024Y-116824654D01*
X191210930Y-116839070D01*
X191225346Y-116854976D01*
X191238134Y-116872219D01*
X191249170Y-116890632D01*
X191258349Y-116910038D01*
X191265581Y-116930250D01*
X191270797Y-116951074D01*
X191273947Y-116972309D01*
X191275000Y-116993750D01*
X191275000Y-117431250D01*
X191273947Y-117452691D01*
X191270797Y-117473926D01*
X191265581Y-117494750D01*
X191258349Y-117514962D01*
X191249170Y-117534368D01*
X191238134Y-117552781D01*
X191225346Y-117570024D01*
X191210930Y-117585930D01*
X191195024Y-117600346D01*
X191177781Y-117613134D01*
X191159368Y-117624170D01*
X191139962Y-117633349D01*
X191119750Y-117640581D01*
X191098926Y-117645797D01*
X191077691Y-117648947D01*
X191056250Y-117650000D01*
X190543750Y-117650000D01*
X190522309Y-117648947D01*
X190501074Y-117645797D01*
X190480250Y-117640581D01*
X190460038Y-117633349D01*
X190440632Y-117624170D01*
X190422219Y-117613134D01*
X190404976Y-117600346D01*
X190389070Y-117585930D01*
X190374654Y-117570024D01*
X190361866Y-117552781D01*
X190350830Y-117534368D01*
X190341651Y-117514962D01*
X190334419Y-117494750D01*
X190329203Y-117473926D01*
X190326053Y-117452691D01*
X190325000Y-117431250D01*
X190325000Y-116993750D01*
X190326053Y-116972309D01*
X190329203Y-116951074D01*
X190334419Y-116930250D01*
X190341651Y-116910038D01*
X190350830Y-116890632D01*
X190361866Y-116872219D01*
X190374654Y-116854976D01*
X190389070Y-116839070D01*
X190404976Y-116824654D01*
X190422219Y-116811866D01*
X190440632Y-116800830D01*
X190460038Y-116791651D01*
X190480250Y-116784419D01*
X190501074Y-116779203D01*
X190522309Y-116776053D01*
X190543750Y-116775000D01*
X191056250Y-116775000D01*
X191077691Y-116776053D01*
X191077691Y-116776053D01*
G37*
D13*
X190800000Y-117212500D03*
D11*
G36*
X191077691Y-118351053D02*
G01*
X191098926Y-118354203D01*
X191119750Y-118359419D01*
X191139962Y-118366651D01*
X191159368Y-118375830D01*
X191177781Y-118386866D01*
X191195024Y-118399654D01*
X191210930Y-118414070D01*
X191225346Y-118429976D01*
X191238134Y-118447219D01*
X191249170Y-118465632D01*
X191258349Y-118485038D01*
X191265581Y-118505250D01*
X191270797Y-118526074D01*
X191273947Y-118547309D01*
X191275000Y-118568750D01*
X191275000Y-119006250D01*
X191273947Y-119027691D01*
X191270797Y-119048926D01*
X191265581Y-119069750D01*
X191258349Y-119089962D01*
X191249170Y-119109368D01*
X191238134Y-119127781D01*
X191225346Y-119145024D01*
X191210930Y-119160930D01*
X191195024Y-119175346D01*
X191177781Y-119188134D01*
X191159368Y-119199170D01*
X191139962Y-119208349D01*
X191119750Y-119215581D01*
X191098926Y-119220797D01*
X191077691Y-119223947D01*
X191056250Y-119225000D01*
X190543750Y-119225000D01*
X190522309Y-119223947D01*
X190501074Y-119220797D01*
X190480250Y-119215581D01*
X190460038Y-119208349D01*
X190440632Y-119199170D01*
X190422219Y-119188134D01*
X190404976Y-119175346D01*
X190389070Y-119160930D01*
X190374654Y-119145024D01*
X190361866Y-119127781D01*
X190350830Y-119109368D01*
X190341651Y-119089962D01*
X190334419Y-119069750D01*
X190329203Y-119048926D01*
X190326053Y-119027691D01*
X190325000Y-119006250D01*
X190325000Y-118568750D01*
X190326053Y-118547309D01*
X190329203Y-118526074D01*
X190334419Y-118505250D01*
X190341651Y-118485038D01*
X190350830Y-118465632D01*
X190361866Y-118447219D01*
X190374654Y-118429976D01*
X190389070Y-118414070D01*
X190404976Y-118399654D01*
X190422219Y-118386866D01*
X190440632Y-118375830D01*
X190460038Y-118366651D01*
X190480250Y-118359419D01*
X190501074Y-118354203D01*
X190522309Y-118351053D01*
X190543750Y-118350000D01*
X191056250Y-118350000D01*
X191077691Y-118351053D01*
X191077691Y-118351053D01*
G37*
D13*
X190800000Y-118787500D03*
D16*
X195175000Y-114500000D03*
X194525000Y-114500000D03*
X193875000Y-114500000D03*
X193225000Y-114500000D03*
X192575000Y-114500000D03*
X191925000Y-114500000D03*
X191275000Y-114500000D03*
X190625000Y-114500000D03*
X190625000Y-108600000D03*
X191275000Y-108600000D03*
X191925000Y-108600000D03*
X192575000Y-108600000D03*
X193225000Y-108600000D03*
X193875000Y-108600000D03*
X194525000Y-108600000D03*
X195175000Y-108600000D03*
D17*
X201400000Y-116000000D03*
D18*
X201400000Y-113230000D03*
X201400000Y-110460000D03*
X201400000Y-107690000D03*
X201400000Y-104920000D03*
X204240000Y-114615000D03*
X204240000Y-111845000D03*
X204240000Y-109075000D03*
X204240000Y-106305000D03*
D19*
X202820000Y-122960000D03*
X202820000Y-97960000D03*
D20*
X187196900Y-105753400D03*
X187600000Y-123400000D03*
X179130100Y-107853700D03*
X191100000Y-104600000D03*
X188900000Y-99300000D03*
X185500000Y-124800000D03*
X187800000Y-109300000D03*
X191600000Y-112500000D03*
X189474400Y-121612000D03*
X187944100Y-113531000D03*
X192575000Y-110346800D03*
X193462700Y-111290900D03*
X189938300Y-113194500D03*
D21*
X187805300Y-102650000D02*
X188912500Y-102650000D01*
X188912500Y-102650000D02*
X188962500Y-102600000D01*
X186900000Y-102650000D02*
X187805300Y-102650000D01*
X187805300Y-102650000D02*
X187805300Y-105145000D01*
X187805300Y-105145000D02*
X187196900Y-105753400D01*
X179130100Y-112045531D02*
X179130100Y-107853700D01*
X179130100Y-114930100D02*
X179130100Y-112045531D01*
X187600000Y-123400000D02*
X179130100Y-114930100D01*
X185605300Y-101700000D02*
X185605300Y-106457400D01*
X185605300Y-106457400D02*
X185200000Y-106862700D01*
X201400000Y-104024500D02*
X201400000Y-104920000D01*
X202820000Y-97960000D02*
X201400000Y-99380000D01*
X201400000Y-99380000D02*
X201400000Y-104024500D01*
X201400000Y-104024500D02*
X196051200Y-104024500D01*
X196051200Y-104024500D02*
X195712000Y-104024500D01*
X195712000Y-104024500D02*
X195200000Y-103512500D01*
X194525000Y-108600000D02*
X194525000Y-109491100D01*
X194525000Y-109491100D02*
X194759300Y-109725400D01*
X194759300Y-109725400D02*
X195566800Y-109725400D01*
X195566800Y-109725400D02*
X196051200Y-109241000D01*
X196051200Y-109241000D02*
X196051200Y-104024500D01*
X201400000Y-104920000D02*
X202820000Y-106340000D01*
X202820000Y-106340000D02*
X202820000Y-122960000D01*
X190837500Y-102600000D02*
X190837500Y-101050000D01*
X190837500Y-101050000D02*
X190487500Y-100700000D01*
X195200000Y-103512500D02*
X194287500Y-102600000D01*
X194287500Y-102600000D02*
X190837500Y-102600000D01*
X202820000Y-122960000D02*
X198484500Y-122960000D01*
X198484500Y-122960000D02*
X194350000Y-118825500D01*
X194350000Y-118825500D02*
X193562300Y-119613200D01*
X193562300Y-119613200D02*
X191625700Y-119613200D01*
X191625700Y-119613200D02*
X190800000Y-118787500D01*
X185605300Y-100269000D02*
X185385900Y-100049600D01*
X185385900Y-100049600D02*
X183412900Y-100049600D01*
X183412900Y-100049600D02*
X182700000Y-100762500D01*
X185605300Y-100269000D02*
X185605300Y-101700000D01*
X190487500Y-100700000D02*
X189579200Y-99791700D01*
X189579200Y-99791700D02*
X186082600Y-99791700D01*
X186082600Y-99791700D02*
X185605300Y-100269000D01*
X185200000Y-108000000D02*
X185200000Y-106862700D01*
X184700000Y-101700000D02*
X185605300Y-101700000D01*
X190487500Y-100700000D02*
X190300000Y-100700000D01*
X190300000Y-100700000D02*
X188900000Y-99300000D01*
X188900000Y-99300000D02*
X179800000Y-99300000D01*
X183900000Y-124800000D02*
X185500000Y-124800000D01*
X178200000Y-119100000D02*
X183900000Y-124800000D01*
X178200000Y-106000000D02*
X178200000Y-119100000D01*
X178600000Y-105600000D02*
X178200000Y-106000000D01*
X178600000Y-100500000D02*
X178600000Y-105600000D01*
X179800000Y-99300000D02*
X178600000Y-100500000D01*
X191000000Y-112500000D02*
X187800000Y-109300000D01*
X191600000Y-112500000D02*
X191000000Y-112500000D01*
X183794700Y-102650000D02*
X183794700Y-102637500D01*
X184700000Y-102650000D02*
X183794700Y-102650000D01*
X185326800Y-109873200D02*
X183794700Y-108341100D01*
X183794700Y-108341100D02*
X183794700Y-102650000D01*
X183794700Y-102637500D02*
X182700000Y-102637500D01*
X183794700Y-100750000D02*
X183794700Y-102637500D01*
X185326800Y-109873200D02*
X185200000Y-110000000D01*
X195200000Y-106418900D02*
X188781100Y-106418900D01*
X188781100Y-106418900D02*
X185326800Y-109873200D01*
X195200000Y-106418900D02*
X195200000Y-108575000D01*
X195200000Y-108575000D02*
X195175000Y-108600000D01*
X195200000Y-105088000D02*
X195200000Y-106418900D01*
X184700000Y-100750000D02*
X183794700Y-100750000D01*
X195200000Y-105088000D02*
X195200000Y-105087500D01*
X186900000Y-100750000D02*
X188862500Y-100750000D01*
X188862500Y-100750000D02*
X188912500Y-100700000D01*
X187905700Y-113569400D02*
X187905700Y-120043300D01*
X187905700Y-120043300D02*
X189474400Y-121612000D01*
X187905700Y-113569400D02*
X186769400Y-113569400D01*
X186769400Y-113569400D02*
X185200000Y-112000000D01*
X187944100Y-113531000D02*
X187905700Y-113569400D01*
X192575000Y-108600000D02*
X192575000Y-110346800D01*
X191925000Y-108600000D02*
X191925000Y-109725300D01*
X191925000Y-109725300D02*
X191799600Y-109850700D01*
X191799600Y-109850700D02*
X191799600Y-110736500D01*
X191799600Y-110736500D02*
X192354000Y-111290900D01*
X192354000Y-111290900D02*
X193462700Y-111290900D01*
X196700000Y-125200000D02*
X195816400Y-125200000D01*
X195816400Y-125200000D02*
X189938300Y-119321900D01*
X189938300Y-119321900D02*
X189938300Y-113194500D01*
X195175000Y-114500000D02*
X195175000Y-115625300D01*
X195175000Y-115625300D02*
X196100000Y-116550300D01*
X196100000Y-116550300D02*
X196100000Y-117250500D01*
X193875000Y-114500000D02*
X193875000Y-113374700D01*
X193875000Y-113374700D02*
X195561500Y-113374700D01*
X195561500Y-113374700D02*
X196981200Y-114794400D01*
X196981200Y-114794400D02*
X196981200Y-117944300D01*
X196981200Y-117944300D02*
X196100000Y-118825500D01*
X192575000Y-114500000D02*
X192575000Y-115924200D01*
X192575000Y-115924200D02*
X191709800Y-116789400D01*
X191709800Y-116789400D02*
X191709800Y-117909300D01*
X191709800Y-117909300D02*
X192600000Y-118799500D01*
X193225000Y-114500000D02*
X193225000Y-116599500D01*
X193225000Y-116599500D02*
X192600000Y-117224500D01*
X194350000Y-117250500D02*
X194525000Y-117075500D01*
X194525000Y-117075500D02*
X194525000Y-114500000D01*
X191925000Y-114500000D02*
X191925000Y-115625300D01*
X191925000Y-115625300D02*
X190800000Y-116750300D01*
X190800000Y-116750300D02*
X190800000Y-117212500D01*
X201400000Y-113230000D02*
X196568900Y-113230000D01*
X196568900Y-113230000D02*
X193225000Y-109886100D01*
X193225000Y-109886100D02*
X193225000Y-108600000D01*
X193875000Y-108600000D02*
X193875000Y-109725300D01*
X201400000Y-110460000D02*
X194609700Y-110460000D01*
X194609700Y-110460000D02*
X193875000Y-109725300D01*
D22*
G36*
X212055665Y-94718863D02*
G01*
X212109214Y-94735030D01*
X212158597Y-94761288D01*
X212201945Y-94796641D01*
X212237600Y-94839740D01*
X212264201Y-94888937D01*
X212280742Y-94942375D01*
X212290001Y-95030464D01*
X212290000Y-125965279D01*
X212281138Y-126055664D01*
X212264970Y-126109214D01*
X212238712Y-126158597D01*
X212203357Y-126201947D01*
X212160261Y-126237599D01*
X212111063Y-126264201D01*
X212057625Y-126280742D01*
X211969545Y-126290000D01*
X197034406Y-126290000D01*
X197237624Y-126205824D01*
X197423520Y-126081612D01*
X197581612Y-125923520D01*
X197705824Y-125737624D01*
X197791383Y-125531067D01*
X197835000Y-125311788D01*
X197835000Y-125088212D01*
X197791383Y-124868933D01*
X197765937Y-124807499D01*
X201152106Y-124807499D01*
X201368228Y-125174258D01*
X201828105Y-125414938D01*
X202326098Y-125561275D01*
X202843071Y-125607648D01*
X203359159Y-125552273D01*
X203854526Y-125397279D01*
X204271772Y-125174258D01*
X204487894Y-124807499D01*
X202820000Y-123139605D01*
X201152106Y-124807499D01*
X197765937Y-124807499D01*
X197705824Y-124662376D01*
X197581612Y-124476480D01*
X197423520Y-124318388D01*
X197237624Y-124194176D01*
X197031067Y-124108617D01*
X196811788Y-124065000D01*
X196588212Y-124065000D01*
X196368933Y-124108617D01*
X196162376Y-124194176D01*
X196038716Y-124276803D01*
X194744984Y-122983071D01*
X200172352Y-122983071D01*
X200227727Y-123499159D01*
X200382721Y-123994526D01*
X200605742Y-124411772D01*
X200972501Y-124627894D01*
X202640395Y-122960000D01*
X202999605Y-122960000D01*
X204667499Y-124627894D01*
X205034258Y-124411772D01*
X205274938Y-123951895D01*
X205421275Y-123453902D01*
X205467648Y-122936929D01*
X205412273Y-122420841D01*
X205257279Y-121925474D01*
X205034258Y-121508228D01*
X204667499Y-121292106D01*
X202999605Y-122960000D01*
X202640395Y-122960000D01*
X200972501Y-121292106D01*
X200605742Y-121508228D01*
X200365062Y-121968105D01*
X200218725Y-122466098D01*
X200172352Y-122983071D01*
X194744984Y-122983071D01*
X192874414Y-121112501D01*
X201152106Y-121112501D01*
X202820000Y-122780395D01*
X204487894Y-121112501D01*
X204271772Y-120745742D01*
X203811895Y-120505062D01*
X203313902Y-120358725D01*
X202796929Y-120312352D01*
X202280841Y-120367727D01*
X201785474Y-120522721D01*
X201368228Y-120745742D01*
X201152106Y-121112501D01*
X192874414Y-121112501D01*
X191556478Y-119794566D01*
X191629494Y-119755537D01*
X191726185Y-119676185D01*
X191756428Y-119639333D01*
X191867725Y-119730671D01*
X192015858Y-119809850D01*
X192176592Y-119858608D01*
X192343750Y-119875072D01*
X192856250Y-119875072D01*
X193023408Y-119858608D01*
X193184142Y-119809850D01*
X193332275Y-119730671D01*
X193395059Y-119679146D01*
X193423815Y-119714185D01*
X193520506Y-119793537D01*
X193630820Y-119852502D01*
X193750518Y-119888812D01*
X193875000Y-119901072D01*
X194064250Y-119898000D01*
X194223000Y-119739250D01*
X194223000Y-118952500D01*
X194203000Y-118952500D01*
X194203000Y-118698500D01*
X194223000Y-118698500D01*
X194223000Y-118678500D01*
X194477000Y-118678500D01*
X194477000Y-118698500D01*
X194497000Y-118698500D01*
X194497000Y-118952500D01*
X194477000Y-118952500D01*
X194477000Y-119739250D01*
X194635750Y-119898000D01*
X194825000Y-119901072D01*
X194949482Y-119888812D01*
X195069180Y-119852502D01*
X195179494Y-119793537D01*
X195276185Y-119714185D01*
X195292191Y-119694682D01*
X195367725Y-119756671D01*
X195515858Y-119835850D01*
X195676592Y-119884608D01*
X195843750Y-119901072D01*
X196356250Y-119901072D01*
X196523408Y-119884608D01*
X196684142Y-119835850D01*
X196832275Y-119756671D01*
X196962115Y-119650115D01*
X197068671Y-119520275D01*
X197147850Y-119372142D01*
X197196608Y-119211408D01*
X197213072Y-119044250D01*
X197213072Y-118857941D01*
X197525818Y-118545195D01*
X197556728Y-118519828D01*
X197622576Y-118439592D01*
X197657949Y-118396490D01*
X197733162Y-118255774D01*
X197733163Y-118255773D01*
X197779480Y-118103088D01*
X197791200Y-117984091D01*
X197791200Y-117984088D01*
X197795119Y-117944300D01*
X197791200Y-117904512D01*
X197791200Y-114834188D01*
X197795119Y-114794400D01*
X197790629Y-114748815D01*
X197779480Y-114635612D01*
X197733163Y-114482927D01*
X197677827Y-114379400D01*
X197657949Y-114342210D01*
X197601855Y-114273860D01*
X197556728Y-114218872D01*
X197525819Y-114193506D01*
X197372313Y-114040000D01*
X200215365Y-114040000D01*
X200285363Y-114144759D01*
X200485241Y-114344637D01*
X200720273Y-114501680D01*
X200865725Y-114561928D01*
X200600000Y-114561928D01*
X200475518Y-114574188D01*
X200355820Y-114610498D01*
X200245506Y-114669463D01*
X200148815Y-114748815D01*
X200069463Y-114845506D01*
X200010498Y-114955820D01*
X199974188Y-115075518D01*
X199961928Y-115200000D01*
X199961928Y-116800000D01*
X199974188Y-116924482D01*
X200010498Y-117044180D01*
X200069463Y-117154494D01*
X200148815Y-117251185D01*
X200245506Y-117330537D01*
X200355820Y-117389502D01*
X200475518Y-117425812D01*
X200600000Y-117438072D01*
X202200000Y-117438072D01*
X202324482Y-117425812D01*
X202444180Y-117389502D01*
X202554494Y-117330537D01*
X202651185Y-117251185D01*
X202730537Y-117154494D01*
X202789502Y-117044180D01*
X202825812Y-116924482D01*
X202838072Y-116800000D01*
X202838072Y-115200000D01*
X202825812Y-115075518D01*
X202789502Y-114955820D01*
X202730537Y-114845506D01*
X202651185Y-114748815D01*
X202554494Y-114669463D01*
X202444180Y-114610498D01*
X202324482Y-114574188D01*
X202200000Y-114561928D01*
X201934275Y-114561928D01*
X202079727Y-114501680D01*
X202314759Y-114344637D01*
X202514637Y-114144759D01*
X202671680Y-113909727D01*
X202779853Y-113648574D01*
X202835000Y-113371335D01*
X202835000Y-113088665D01*
X202779853Y-112811426D01*
X202671680Y-112550273D01*
X202514637Y-112315241D01*
X202314759Y-112115363D01*
X202079727Y-111958320D01*
X201818574Y-111850147D01*
X201792699Y-111845000D01*
X201818574Y-111839853D01*
X202079727Y-111731680D01*
X202314759Y-111574637D01*
X202514637Y-111374759D01*
X202671680Y-111139727D01*
X202779853Y-110878574D01*
X202835000Y-110601335D01*
X202835000Y-110318665D01*
X202779853Y-110041426D01*
X202671680Y-109780273D01*
X202514637Y-109545241D01*
X202314759Y-109345363D01*
X202079727Y-109188320D01*
X201818574Y-109080147D01*
X201792699Y-109075000D01*
X201818574Y-109069853D01*
X202079727Y-108961680D01*
X202314759Y-108804637D01*
X202514637Y-108604759D01*
X202671680Y-108369727D01*
X202779853Y-108108574D01*
X202835000Y-107831335D01*
X202835000Y-107548665D01*
X202779853Y-107271426D01*
X202671680Y-107010273D01*
X202514637Y-106775241D01*
X202314759Y-106575363D01*
X202079727Y-106418320D01*
X201818574Y-106310147D01*
X201790118Y-106304487D01*
X202016292Y-106223603D01*
X202128429Y-106163665D01*
X202805000Y-106163665D01*
X202805000Y-106446335D01*
X202860147Y-106723574D01*
X202968320Y-106984727D01*
X203125363Y-107219759D01*
X203325241Y-107419637D01*
X203560273Y-107576680D01*
X203821426Y-107684853D01*
X203847301Y-107690000D01*
X203821426Y-107695147D01*
X203560273Y-107803320D01*
X203325241Y-107960363D01*
X203125363Y-108160241D01*
X202968320Y-108395273D01*
X202860147Y-108656426D01*
X202805000Y-108933665D01*
X202805000Y-109216335D01*
X202860147Y-109493574D01*
X202968320Y-109754727D01*
X203125363Y-109989759D01*
X203325241Y-110189637D01*
X203560273Y-110346680D01*
X203821426Y-110454853D01*
X203847301Y-110460000D01*
X203821426Y-110465147D01*
X203560273Y-110573320D01*
X203325241Y-110730363D01*
X203125363Y-110930241D01*
X202968320Y-111165273D01*
X202860147Y-111426426D01*
X202805000Y-111703665D01*
X202805000Y-111986335D01*
X202860147Y-112263574D01*
X202968320Y-112524727D01*
X203125363Y-112759759D01*
X203325241Y-112959637D01*
X203560273Y-113116680D01*
X203821426Y-113224853D01*
X203847301Y-113230000D01*
X203821426Y-113235147D01*
X203560273Y-113343320D01*
X203325241Y-113500363D01*
X203125363Y-113700241D01*
X202968320Y-113935273D01*
X202860147Y-114196426D01*
X202805000Y-114473665D01*
X202805000Y-114756335D01*
X202860147Y-115033574D01*
X202968320Y-115294727D01*
X203125363Y-115529759D01*
X203325241Y-115729637D01*
X203560273Y-115886680D01*
X203821426Y-115994853D01*
X204098665Y-116050000D01*
X204381335Y-116050000D01*
X204658574Y-115994853D01*
X204919727Y-115886680D01*
X205154759Y-115729637D01*
X205354637Y-115529759D01*
X205511680Y-115294727D01*
X205619853Y-115033574D01*
X205675000Y-114756335D01*
X205675000Y-114473665D01*
X205619853Y-114196426D01*
X205511680Y-113935273D01*
X205354637Y-113700241D01*
X205154759Y-113500363D01*
X204919727Y-113343320D01*
X204658574Y-113235147D01*
X204632699Y-113230000D01*
X204658574Y-113224853D01*
X204919727Y-113116680D01*
X205154759Y-112959637D01*
X205354637Y-112759759D01*
X205511680Y-112524727D01*
X205619853Y-112263574D01*
X205675000Y-111986335D01*
X205675000Y-111703665D01*
X205619853Y-111426426D01*
X205511680Y-111165273D01*
X205354637Y-110930241D01*
X205154759Y-110730363D01*
X204919727Y-110573320D01*
X204658574Y-110465147D01*
X204632699Y-110460000D01*
X204658574Y-110454853D01*
X204919727Y-110346680D01*
X205154759Y-110189637D01*
X205354637Y-109989759D01*
X205511680Y-109754727D01*
X205619853Y-109493574D01*
X205675000Y-109216335D01*
X205675000Y-108933665D01*
X205619853Y-108656426D01*
X205511680Y-108395273D01*
X205354637Y-108160241D01*
X205154759Y-107960363D01*
X204919727Y-107803320D01*
X204658574Y-107695147D01*
X204632699Y-107690000D01*
X204658574Y-107684853D01*
X204919727Y-107576680D01*
X205154759Y-107419637D01*
X205354637Y-107219759D01*
X205511680Y-106984727D01*
X205619853Y-106723574D01*
X205675000Y-106446335D01*
X205675000Y-106163665D01*
X205619853Y-105886426D01*
X205511680Y-105625273D01*
X205354637Y-105390241D01*
X205154759Y-105190363D01*
X204919727Y-105033320D01*
X204658574Y-104925147D01*
X204381335Y-104870000D01*
X204098665Y-104870000D01*
X203821426Y-104925147D01*
X203560273Y-105033320D01*
X203325241Y-105190363D01*
X203125363Y-105390241D01*
X202968320Y-105625273D01*
X202860147Y-105886426D01*
X202805000Y-106163665D01*
X202128429Y-106163665D01*
X202141514Y-106156671D01*
X202213097Y-105912702D01*
X201400000Y-105099605D01*
X200586903Y-105912702D01*
X200658486Y-106156671D01*
X200913996Y-106277571D01*
X201016289Y-106303212D01*
X200981426Y-106310147D01*
X200720273Y-106418320D01*
X200485241Y-106575363D01*
X200285363Y-106775241D01*
X200128320Y-107010273D01*
X200020147Y-107271426D01*
X199965000Y-107548665D01*
X199965000Y-107831335D01*
X200020147Y-108108574D01*
X200128320Y-108369727D01*
X200285363Y-108604759D01*
X200485241Y-108804637D01*
X200720273Y-108961680D01*
X200981426Y-109069853D01*
X201007301Y-109075000D01*
X200981426Y-109080147D01*
X200720273Y-109188320D01*
X200485241Y-109345363D01*
X200285363Y-109545241D01*
X200215365Y-109650000D01*
X195959665Y-109650000D01*
X195989502Y-109594180D01*
X196025812Y-109474482D01*
X196038072Y-109350000D01*
X196038072Y-107850000D01*
X196025812Y-107725518D01*
X196010000Y-107673393D01*
X196010000Y-106458691D01*
X196013919Y-106418900D01*
X196010000Y-106379109D01*
X196010000Y-105954884D01*
X196062115Y-105912115D01*
X196168671Y-105782275D01*
X196247850Y-105634142D01*
X196296608Y-105473408D01*
X196313072Y-105306250D01*
X196313072Y-104990512D01*
X199959783Y-104990512D01*
X200001213Y-105270130D01*
X200096397Y-105536292D01*
X200163329Y-105661514D01*
X200407298Y-105733097D01*
X201220395Y-104920000D01*
X201579605Y-104920000D01*
X202392702Y-105733097D01*
X202636671Y-105661514D01*
X202757571Y-105406004D01*
X202826300Y-105131816D01*
X202840217Y-104849488D01*
X202798787Y-104569870D01*
X202703603Y-104303708D01*
X202636671Y-104178486D01*
X202392702Y-104106903D01*
X201579605Y-104920000D01*
X201220395Y-104920000D01*
X200407298Y-104106903D01*
X200163329Y-104178486D01*
X200042429Y-104433996D01*
X199973700Y-104708184D01*
X199959783Y-104990512D01*
X196313072Y-104990512D01*
X196313072Y-104868750D01*
X196296608Y-104701592D01*
X196247850Y-104540858D01*
X196168671Y-104392725D01*
X196150900Y-104371070D01*
X196205537Y-104304494D01*
X196264502Y-104194180D01*
X196300812Y-104074482D01*
X196313072Y-103950000D01*
X196312613Y-103927298D01*
X200586903Y-103927298D01*
X201400000Y-104740395D01*
X202213097Y-103927298D01*
X202141514Y-103683329D01*
X201886004Y-103562429D01*
X201611816Y-103493700D01*
X201329488Y-103479783D01*
X201049870Y-103521213D01*
X200783708Y-103616397D01*
X200658486Y-103683329D01*
X200586903Y-103927298D01*
X196312613Y-103927298D01*
X196310000Y-103798250D01*
X196151250Y-103639500D01*
X195327000Y-103639500D01*
X195327000Y-103659500D01*
X195073000Y-103659500D01*
X195073000Y-103639500D01*
X194248750Y-103639500D01*
X194090000Y-103798250D01*
X194086928Y-103950000D01*
X194099188Y-104074482D01*
X194135498Y-104194180D01*
X194194463Y-104304494D01*
X194249100Y-104371070D01*
X194231329Y-104392725D01*
X194152150Y-104540858D01*
X194103392Y-104701592D01*
X194086928Y-104868750D01*
X194086928Y-105306250D01*
X194103392Y-105473408D01*
X194144493Y-105608900D01*
X188820888Y-105608900D01*
X188781100Y-105604981D01*
X188741312Y-105608900D01*
X188741309Y-105608900D01*
X188622312Y-105620620D01*
X188469627Y-105666937D01*
X188427190Y-105689620D01*
X188389786Y-105709613D01*
X188482049Y-105597189D01*
X188514599Y-105536292D01*
X188557263Y-105456474D01*
X188603580Y-105303788D01*
X188619219Y-105145000D01*
X188615300Y-105105209D01*
X188615300Y-103927883D01*
X188718750Y-103938072D01*
X189206250Y-103938072D01*
X189378285Y-103921128D01*
X189543709Y-103870947D01*
X189696164Y-103789458D01*
X189829792Y-103679792D01*
X189835008Y-103673436D01*
X189898815Y-103751185D01*
X189995506Y-103830537D01*
X190105820Y-103889502D01*
X190225518Y-103925812D01*
X190350000Y-103938072D01*
X190551750Y-103935000D01*
X190710500Y-103776250D01*
X190710500Y-102727000D01*
X190964500Y-102727000D01*
X190964500Y-103776250D01*
X191123250Y-103935000D01*
X191325000Y-103938072D01*
X191449482Y-103925812D01*
X191569180Y-103889502D01*
X191679494Y-103830537D01*
X191776185Y-103751185D01*
X191855537Y-103654494D01*
X191914502Y-103544180D01*
X191950812Y-103424482D01*
X191963072Y-103300000D01*
X191961404Y-103075000D01*
X194086928Y-103075000D01*
X194090000Y-103226750D01*
X194248750Y-103385500D01*
X195073000Y-103385500D01*
X195073000Y-102598750D01*
X195327000Y-102598750D01*
X195327000Y-103385500D01*
X196151250Y-103385500D01*
X196310000Y-103226750D01*
X196313072Y-103075000D01*
X196300812Y-102950518D01*
X196264502Y-102830820D01*
X196205537Y-102720506D01*
X196126185Y-102623815D01*
X196029494Y-102544463D01*
X195919180Y-102485498D01*
X195799482Y-102449188D01*
X195675000Y-102436928D01*
X195485750Y-102440000D01*
X195327000Y-102598750D01*
X195073000Y-102598750D01*
X194914250Y-102440000D01*
X194725000Y-102436928D01*
X194600518Y-102449188D01*
X194480820Y-102485498D01*
X194370506Y-102544463D01*
X194273815Y-102623815D01*
X194194463Y-102720506D01*
X194135498Y-102830820D01*
X194099188Y-102950518D01*
X194086928Y-103075000D01*
X191961404Y-103075000D01*
X191960000Y-102885750D01*
X191801250Y-102727000D01*
X190964500Y-102727000D01*
X190710500Y-102727000D01*
X190690500Y-102727000D01*
X190690500Y-102473000D01*
X190710500Y-102473000D01*
X190710500Y-102453000D01*
X190964500Y-102453000D01*
X190964500Y-102473000D01*
X191801250Y-102473000D01*
X191960000Y-102314250D01*
X191963072Y-101900000D01*
X191950812Y-101775518D01*
X191914502Y-101655820D01*
X191855537Y-101545506D01*
X191776185Y-101448815D01*
X191679494Y-101369463D01*
X191569180Y-101310498D01*
X191549300Y-101304467D01*
X191550812Y-101299482D01*
X191563072Y-101175000D01*
X191560000Y-100985750D01*
X191401250Y-100827000D01*
X190614500Y-100827000D01*
X190614500Y-100847000D01*
X190360500Y-100847000D01*
X190360500Y-100827000D01*
X190340500Y-100827000D01*
X190340500Y-100573000D01*
X190360500Y-100573000D01*
X190360500Y-99748750D01*
X190614500Y-99748750D01*
X190614500Y-100573000D01*
X191401250Y-100573000D01*
X191560000Y-100414250D01*
X191563072Y-100225000D01*
X191550812Y-100100518D01*
X191514502Y-99980820D01*
X191455537Y-99870506D01*
X191403829Y-99807499D01*
X201152106Y-99807499D01*
X201368228Y-100174258D01*
X201828105Y-100414938D01*
X202326098Y-100561275D01*
X202843071Y-100607648D01*
X203359159Y-100552273D01*
X203854526Y-100397279D01*
X204271772Y-100174258D01*
X204487894Y-99807499D01*
X202820000Y-98139605D01*
X201152106Y-99807499D01*
X191403829Y-99807499D01*
X191376185Y-99773815D01*
X191279494Y-99694463D01*
X191169180Y-99635498D01*
X191049482Y-99599188D01*
X190925000Y-99586928D01*
X190773250Y-99590000D01*
X190614500Y-99748750D01*
X190360500Y-99748750D01*
X190201750Y-99590000D01*
X190050000Y-99586928D01*
X189925518Y-99599188D01*
X189805820Y-99635498D01*
X189695506Y-99694463D01*
X189628930Y-99749100D01*
X189607275Y-99731329D01*
X189459142Y-99652150D01*
X189298408Y-99603392D01*
X189131250Y-99586928D01*
X188693750Y-99586928D01*
X188526592Y-99603392D01*
X188365858Y-99652150D01*
X188217725Y-99731329D01*
X188087885Y-99837885D01*
X188004082Y-99940000D01*
X187839981Y-99940000D01*
X187784494Y-99894463D01*
X187674180Y-99835498D01*
X187554482Y-99799188D01*
X187430000Y-99786928D01*
X186370000Y-99786928D01*
X186245518Y-99799188D01*
X186125820Y-99835498D01*
X186015506Y-99894463D01*
X185918815Y-99973815D01*
X185839463Y-100070506D01*
X185800000Y-100144335D01*
X185760537Y-100070506D01*
X185681185Y-99973815D01*
X185584494Y-99894463D01*
X185474180Y-99835498D01*
X185354482Y-99799188D01*
X185230000Y-99786928D01*
X184170000Y-99786928D01*
X184045518Y-99799188D01*
X183925820Y-99835498D01*
X183880607Y-99859665D01*
X183851185Y-99823815D01*
X183754494Y-99744463D01*
X183644180Y-99685498D01*
X183524482Y-99649188D01*
X183400000Y-99636928D01*
X182985750Y-99640000D01*
X182827000Y-99798750D01*
X182827000Y-100635500D01*
X182847000Y-100635500D01*
X182847000Y-100889500D01*
X182827000Y-100889500D01*
X182827000Y-100909500D01*
X182573000Y-100909500D01*
X182573000Y-100889500D01*
X181523750Y-100889500D01*
X181365000Y-101048250D01*
X181361928Y-101250000D01*
X181374188Y-101374482D01*
X181410498Y-101494180D01*
X181469463Y-101604494D01*
X181548815Y-101701185D01*
X181626564Y-101764992D01*
X181620208Y-101770208D01*
X181510542Y-101903836D01*
X181429053Y-102056291D01*
X181378872Y-102221715D01*
X181361928Y-102393750D01*
X181361928Y-102881250D01*
X181378872Y-103053285D01*
X181429053Y-103218709D01*
X181510542Y-103371164D01*
X181620208Y-103504792D01*
X181753836Y-103614458D01*
X181906291Y-103695947D01*
X182071715Y-103746128D01*
X182243750Y-103763072D01*
X182984701Y-103763072D01*
X182984700Y-108301312D01*
X182980781Y-108341100D01*
X182984700Y-108380888D01*
X182984700Y-108380890D01*
X182996420Y-108499887D01*
X183042737Y-108652572D01*
X183069743Y-108703096D01*
X183117951Y-108793289D01*
X183148350Y-108830330D01*
X183219172Y-108916628D01*
X183250087Y-108941999D01*
X183767115Y-109459027D01*
X183765096Y-109462805D01*
X183685214Y-109726140D01*
X183658241Y-110000000D01*
X183685214Y-110273860D01*
X183765096Y-110537195D01*
X183894817Y-110779887D01*
X184069392Y-110992608D01*
X184078399Y-111000000D01*
X184069392Y-111007392D01*
X183894817Y-111220113D01*
X183765096Y-111462805D01*
X183685214Y-111726140D01*
X183658241Y-112000000D01*
X183685214Y-112273860D01*
X183765096Y-112537195D01*
X183894817Y-112779887D01*
X184069392Y-112992608D01*
X184078399Y-113000000D01*
X184069392Y-113007392D01*
X183894817Y-113220113D01*
X183765096Y-113462805D01*
X183685214Y-113726140D01*
X183658241Y-114000000D01*
X183685214Y-114273860D01*
X183765096Y-114537195D01*
X183894817Y-114779887D01*
X184069392Y-114992608D01*
X184282113Y-115167183D01*
X184524805Y-115296904D01*
X184788140Y-115376786D01*
X184993375Y-115397000D01*
X185406625Y-115397000D01*
X185611860Y-115376786D01*
X185875195Y-115296904D01*
X186117887Y-115167183D01*
X186330608Y-114992608D01*
X186505183Y-114779887D01*
X186634904Y-114537195D01*
X186684129Y-114374921D01*
X186729609Y-114379400D01*
X186729612Y-114379400D01*
X186769400Y-114383319D01*
X186809188Y-114379400D01*
X187095700Y-114379400D01*
X187095701Y-120003502D01*
X187091781Y-120043300D01*
X187107421Y-120202087D01*
X187153738Y-120354773D01*
X187228951Y-120495489D01*
X187284552Y-120563239D01*
X187330173Y-120618828D01*
X187361083Y-120644195D01*
X188441529Y-121724642D01*
X188479174Y-121913898D01*
X188557195Y-122102256D01*
X188670463Y-122271774D01*
X188814626Y-122415937D01*
X188984144Y-122529205D01*
X189172502Y-122607226D01*
X189372461Y-122647000D01*
X189576339Y-122647000D01*
X189776298Y-122607226D01*
X189964656Y-122529205D01*
X190134174Y-122415937D01*
X190278337Y-122271774D01*
X190391605Y-122102256D01*
X190469626Y-121913898D01*
X190509400Y-121713939D01*
X190509400Y-121510061D01*
X190469626Y-121310102D01*
X190391605Y-121121744D01*
X190278337Y-120952226D01*
X190134174Y-120808063D01*
X189964656Y-120694795D01*
X189776298Y-120616774D01*
X189587042Y-120579129D01*
X188715700Y-119707788D01*
X188715700Y-114223111D01*
X188748037Y-114190774D01*
X188861305Y-114021256D01*
X188939326Y-113832898D01*
X188979100Y-113632939D01*
X188979100Y-113583372D01*
X189021095Y-113684756D01*
X189128301Y-113845201D01*
X189128300Y-119282112D01*
X189124381Y-119321900D01*
X189128300Y-119361688D01*
X189128300Y-119361690D01*
X189140020Y-119480687D01*
X189186337Y-119633372D01*
X189209221Y-119676185D01*
X189261551Y-119774089D01*
X189277512Y-119793537D01*
X189362772Y-119897428D01*
X189393688Y-119922800D01*
X195215505Y-125744618D01*
X195240872Y-125775528D01*
X195364211Y-125876749D01*
X195504927Y-125951963D01*
X195657612Y-125998280D01*
X195776609Y-126010000D01*
X195776612Y-126010000D01*
X195816400Y-126013919D01*
X195856188Y-126010000D01*
X195904868Y-126010000D01*
X195976480Y-126081612D01*
X196162376Y-126205824D01*
X196365594Y-126290000D01*
X178034721Y-126290000D01*
X177944336Y-126281138D01*
X177890786Y-126264970D01*
X177841403Y-126238712D01*
X177798053Y-126203357D01*
X177762401Y-126160261D01*
X177735799Y-126111063D01*
X177719258Y-126057625D01*
X177710000Y-125969545D01*
X177710000Y-124446358D01*
X177750890Y-124651925D01*
X177919369Y-125058669D01*
X178163962Y-125424729D01*
X178475271Y-125736038D01*
X178841331Y-125980631D01*
X179248075Y-126149110D01*
X179679872Y-126235000D01*
X180120128Y-126235000D01*
X180551925Y-126149110D01*
X180958669Y-125980631D01*
X181324729Y-125736038D01*
X181636038Y-125424729D01*
X181880631Y-125058669D01*
X182049110Y-124651925D01*
X182135000Y-124220128D01*
X182135000Y-123779872D01*
X182049110Y-123348075D01*
X181880631Y-122941331D01*
X181636038Y-122575271D01*
X181324729Y-122263962D01*
X180958669Y-122019369D01*
X180551925Y-121850890D01*
X180120128Y-121765000D01*
X179679872Y-121765000D01*
X179248075Y-121850890D01*
X178841331Y-122019369D01*
X178475271Y-122263962D01*
X178163962Y-122575271D01*
X177919369Y-122941331D01*
X177750890Y-123348075D01*
X177710000Y-123553642D01*
X177710000Y-107751761D01*
X178095100Y-107751761D01*
X178095100Y-107955639D01*
X178134874Y-108155598D01*
X178212895Y-108343956D01*
X178320101Y-108504401D01*
X178320100Y-112085321D01*
X178320101Y-112085331D01*
X178320100Y-114890312D01*
X178316181Y-114930100D01*
X178320100Y-114969888D01*
X178320100Y-114969890D01*
X178331820Y-115088887D01*
X178378137Y-115241572D01*
X178408448Y-115298280D01*
X178453351Y-115382289D01*
X178484803Y-115420613D01*
X178554572Y-115505628D01*
X178585488Y-115531000D01*
X186567129Y-123512642D01*
X186604774Y-123701898D01*
X186682795Y-123890256D01*
X186796063Y-124059774D01*
X186940226Y-124203937D01*
X187109744Y-124317205D01*
X187298102Y-124395226D01*
X187498061Y-124435000D01*
X187701939Y-124435000D01*
X187901898Y-124395226D01*
X188090256Y-124317205D01*
X188259774Y-124203937D01*
X188403937Y-124059774D01*
X188517205Y-123890256D01*
X188595226Y-123701898D01*
X188635000Y-123501939D01*
X188635000Y-123298061D01*
X188595226Y-123098102D01*
X188517205Y-122909744D01*
X188403937Y-122740226D01*
X188259774Y-122596063D01*
X188090256Y-122482795D01*
X187901898Y-122404774D01*
X187712642Y-122367129D01*
X179940100Y-114594588D01*
X179940100Y-108504400D01*
X180047305Y-108343956D01*
X180125326Y-108155598D01*
X180165100Y-107955639D01*
X180165100Y-107751761D01*
X180125326Y-107551802D01*
X180047305Y-107363444D01*
X179934037Y-107193926D01*
X179789874Y-107049763D01*
X179620356Y-106936495D01*
X179431998Y-106858474D01*
X179232039Y-106818700D01*
X179028161Y-106818700D01*
X178828202Y-106858474D01*
X178639844Y-106936495D01*
X178470326Y-107049763D01*
X178326163Y-107193926D01*
X178212895Y-107363444D01*
X178134874Y-107551802D01*
X178095100Y-107751761D01*
X177710000Y-107751761D01*
X177710000Y-100275000D01*
X181361928Y-100275000D01*
X181365000Y-100476750D01*
X181523750Y-100635500D01*
X182573000Y-100635500D01*
X182573000Y-99798750D01*
X182414250Y-99640000D01*
X182000000Y-99636928D01*
X181875518Y-99649188D01*
X181755820Y-99685498D01*
X181645506Y-99744463D01*
X181548815Y-99823815D01*
X181469463Y-99920506D01*
X181410498Y-100030820D01*
X181374188Y-100150518D01*
X181361928Y-100275000D01*
X177710000Y-100275000D01*
X177710000Y-97146358D01*
X177750890Y-97351925D01*
X177919369Y-97758669D01*
X178163962Y-98124729D01*
X178475271Y-98436038D01*
X178841331Y-98680631D01*
X179248075Y-98849110D01*
X179679872Y-98935000D01*
X180120128Y-98935000D01*
X180551925Y-98849110D01*
X180958669Y-98680631D01*
X181324729Y-98436038D01*
X181636038Y-98124729D01*
X181730690Y-97983071D01*
X200172352Y-97983071D01*
X200227727Y-98499159D01*
X200382721Y-98994526D01*
X200605742Y-99411772D01*
X200972501Y-99627894D01*
X202640395Y-97960000D01*
X202999605Y-97960000D01*
X204667499Y-99627894D01*
X205034258Y-99411772D01*
X205274938Y-98951895D01*
X205421275Y-98453902D01*
X205467648Y-97936929D01*
X205412273Y-97420841D01*
X205257279Y-96925474D01*
X205034258Y-96508228D01*
X204667499Y-96292106D01*
X202999605Y-97960000D01*
X202640395Y-97960000D01*
X200972501Y-96292106D01*
X200605742Y-96508228D01*
X200365062Y-96968105D01*
X200218725Y-97466098D01*
X200172352Y-97983071D01*
X181730690Y-97983071D01*
X181880631Y-97758669D01*
X182049110Y-97351925D01*
X182135000Y-96920128D01*
X182135000Y-96479872D01*
X182061926Y-96112501D01*
X201152106Y-96112501D01*
X202820000Y-97780395D01*
X204487894Y-96112501D01*
X204271772Y-95745742D01*
X203811895Y-95505062D01*
X203313902Y-95358725D01*
X202796929Y-95312352D01*
X202280841Y-95367727D01*
X201785474Y-95522721D01*
X201368228Y-95745742D01*
X201152106Y-96112501D01*
X182061926Y-96112501D01*
X182049110Y-96048075D01*
X181880631Y-95641331D01*
X181636038Y-95275271D01*
X181324729Y-94963962D01*
X180958669Y-94719369D01*
X180936050Y-94710000D01*
X211965278Y-94710000D01*
X212055665Y-94718863D01*
X212055665Y-94718863D01*
G37*
X212055665Y-94718863D02*
X212109214Y-94735030D01*
X212158597Y-94761288D01*
X212201945Y-94796641D01*
X212237600Y-94839740D01*
X212264201Y-94888937D01*
X212280742Y-94942375D01*
X212290001Y-95030464D01*
X212290000Y-125965279D01*
X212281138Y-126055664D01*
X212264970Y-126109214D01*
X212238712Y-126158597D01*
X212203357Y-126201947D01*
X212160261Y-126237599D01*
X212111063Y-126264201D01*
X212057625Y-126280742D01*
X211969545Y-126290000D01*
X197034406Y-126290000D01*
X197237624Y-126205824D01*
X197423520Y-126081612D01*
X197581612Y-125923520D01*
X197705824Y-125737624D01*
X197791383Y-125531067D01*
X197835000Y-125311788D01*
X197835000Y-125088212D01*
X197791383Y-124868933D01*
X197765937Y-124807499D01*
X201152106Y-124807499D01*
X201368228Y-125174258D01*
X201828105Y-125414938D01*
X202326098Y-125561275D01*
X202843071Y-125607648D01*
X203359159Y-125552273D01*
X203854526Y-125397279D01*
X204271772Y-125174258D01*
X204487894Y-124807499D01*
X202820000Y-123139605D01*
X201152106Y-124807499D01*
X197765937Y-124807499D01*
X197705824Y-124662376D01*
X197581612Y-124476480D01*
X197423520Y-124318388D01*
X197237624Y-124194176D01*
X197031067Y-124108617D01*
X196811788Y-124065000D01*
X196588212Y-124065000D01*
X196368933Y-124108617D01*
X196162376Y-124194176D01*
X196038716Y-124276803D01*
X194744984Y-122983071D01*
X200172352Y-122983071D01*
X200227727Y-123499159D01*
X200382721Y-123994526D01*
X200605742Y-124411772D01*
X200972501Y-124627894D01*
X202640395Y-122960000D01*
X202999605Y-122960000D01*
X204667499Y-124627894D01*
X205034258Y-124411772D01*
X205274938Y-123951895D01*
X205421275Y-123453902D01*
X205467648Y-122936929D01*
X205412273Y-122420841D01*
X205257279Y-121925474D01*
X205034258Y-121508228D01*
X204667499Y-121292106D01*
X202999605Y-122960000D01*
X202640395Y-122960000D01*
X200972501Y-121292106D01*
X200605742Y-121508228D01*
X200365062Y-121968105D01*
X200218725Y-122466098D01*
X200172352Y-122983071D01*
X194744984Y-122983071D01*
X192874414Y-121112501D01*
X201152106Y-121112501D01*
X202820000Y-122780395D01*
X204487894Y-121112501D01*
X204271772Y-120745742D01*
X203811895Y-120505062D01*
X203313902Y-120358725D01*
X202796929Y-120312352D01*
X202280841Y-120367727D01*
X201785474Y-120522721D01*
X201368228Y-120745742D01*
X201152106Y-121112501D01*
X192874414Y-121112501D01*
X191556478Y-119794566D01*
X191629494Y-119755537D01*
X191726185Y-119676185D01*
X191756428Y-119639333D01*
X191867725Y-119730671D01*
X192015858Y-119809850D01*
X192176592Y-119858608D01*
X192343750Y-119875072D01*
X192856250Y-119875072D01*
X193023408Y-119858608D01*
X193184142Y-119809850D01*
X193332275Y-119730671D01*
X193395059Y-119679146D01*
X193423815Y-119714185D01*
X193520506Y-119793537D01*
X193630820Y-119852502D01*
X193750518Y-119888812D01*
X193875000Y-119901072D01*
X194064250Y-119898000D01*
X194223000Y-119739250D01*
X194223000Y-118952500D01*
X194203000Y-118952500D01*
X194203000Y-118698500D01*
X194223000Y-118698500D01*
X194223000Y-118678500D01*
X194477000Y-118678500D01*
X194477000Y-118698500D01*
X194497000Y-118698500D01*
X194497000Y-118952500D01*
X194477000Y-118952500D01*
X194477000Y-119739250D01*
X194635750Y-119898000D01*
X194825000Y-119901072D01*
X194949482Y-119888812D01*
X195069180Y-119852502D01*
X195179494Y-119793537D01*
X195276185Y-119714185D01*
X195292191Y-119694682D01*
X195367725Y-119756671D01*
X195515858Y-119835850D01*
X195676592Y-119884608D01*
X195843750Y-119901072D01*
X196356250Y-119901072D01*
X196523408Y-119884608D01*
X196684142Y-119835850D01*
X196832275Y-119756671D01*
X196962115Y-119650115D01*
X197068671Y-119520275D01*
X197147850Y-119372142D01*
X197196608Y-119211408D01*
X197213072Y-119044250D01*
X197213072Y-118857941D01*
X197525818Y-118545195D01*
X197556728Y-118519828D01*
X197622576Y-118439592D01*
X197657949Y-118396490D01*
X197733162Y-118255774D01*
X197733163Y-118255773D01*
X197779480Y-118103088D01*
X197791200Y-117984091D01*
X197791200Y-117984088D01*
X197795119Y-117944300D01*
X197791200Y-117904512D01*
X197791200Y-114834188D01*
X197795119Y-114794400D01*
X197790629Y-114748815D01*
X197779480Y-114635612D01*
X197733163Y-114482927D01*
X197677827Y-114379400D01*
X197657949Y-114342210D01*
X197601855Y-114273860D01*
X197556728Y-114218872D01*
X197525819Y-114193506D01*
X197372313Y-114040000D01*
X200215365Y-114040000D01*
X200285363Y-114144759D01*
X200485241Y-114344637D01*
X200720273Y-114501680D01*
X200865725Y-114561928D01*
X200600000Y-114561928D01*
X200475518Y-114574188D01*
X200355820Y-114610498D01*
X200245506Y-114669463D01*
X200148815Y-114748815D01*
X200069463Y-114845506D01*
X200010498Y-114955820D01*
X199974188Y-115075518D01*
X199961928Y-115200000D01*
X199961928Y-116800000D01*
X199974188Y-116924482D01*
X200010498Y-117044180D01*
X200069463Y-117154494D01*
X200148815Y-117251185D01*
X200245506Y-117330537D01*
X200355820Y-117389502D01*
X200475518Y-117425812D01*
X200600000Y-117438072D01*
X202200000Y-117438072D01*
X202324482Y-117425812D01*
X202444180Y-117389502D01*
X202554494Y-117330537D01*
X202651185Y-117251185D01*
X202730537Y-117154494D01*
X202789502Y-117044180D01*
X202825812Y-116924482D01*
X202838072Y-116800000D01*
X202838072Y-115200000D01*
X202825812Y-115075518D01*
X202789502Y-114955820D01*
X202730537Y-114845506D01*
X202651185Y-114748815D01*
X202554494Y-114669463D01*
X202444180Y-114610498D01*
X202324482Y-114574188D01*
X202200000Y-114561928D01*
X201934275Y-114561928D01*
X202079727Y-114501680D01*
X202314759Y-114344637D01*
X202514637Y-114144759D01*
X202671680Y-113909727D01*
X202779853Y-113648574D01*
X202835000Y-113371335D01*
X202835000Y-113088665D01*
X202779853Y-112811426D01*
X202671680Y-112550273D01*
X202514637Y-112315241D01*
X202314759Y-112115363D01*
X202079727Y-111958320D01*
X201818574Y-111850147D01*
X201792699Y-111845000D01*
X201818574Y-111839853D01*
X202079727Y-111731680D01*
X202314759Y-111574637D01*
X202514637Y-111374759D01*
X202671680Y-111139727D01*
X202779853Y-110878574D01*
X202835000Y-110601335D01*
X202835000Y-110318665D01*
X202779853Y-110041426D01*
X202671680Y-109780273D01*
X202514637Y-109545241D01*
X202314759Y-109345363D01*
X202079727Y-109188320D01*
X201818574Y-109080147D01*
X201792699Y-109075000D01*
X201818574Y-109069853D01*
X202079727Y-108961680D01*
X202314759Y-108804637D01*
X202514637Y-108604759D01*
X202671680Y-108369727D01*
X202779853Y-108108574D01*
X202835000Y-107831335D01*
X202835000Y-107548665D01*
X202779853Y-107271426D01*
X202671680Y-107010273D01*
X202514637Y-106775241D01*
X202314759Y-106575363D01*
X202079727Y-106418320D01*
X201818574Y-106310147D01*
X201790118Y-106304487D01*
X202016292Y-106223603D01*
X202128429Y-106163665D01*
X202805000Y-106163665D01*
X202805000Y-106446335D01*
X202860147Y-106723574D01*
X202968320Y-106984727D01*
X203125363Y-107219759D01*
X203325241Y-107419637D01*
X203560273Y-107576680D01*
X203821426Y-107684853D01*
X203847301Y-107690000D01*
X203821426Y-107695147D01*
X203560273Y-107803320D01*
X203325241Y-107960363D01*
X203125363Y-108160241D01*
X202968320Y-108395273D01*
X202860147Y-108656426D01*
X202805000Y-108933665D01*
X202805000Y-109216335D01*
X202860147Y-109493574D01*
X202968320Y-109754727D01*
X203125363Y-109989759D01*
X203325241Y-110189637D01*
X203560273Y-110346680D01*
X203821426Y-110454853D01*
X203847301Y-110460000D01*
X203821426Y-110465147D01*
X203560273Y-110573320D01*
X203325241Y-110730363D01*
X203125363Y-110930241D01*
X202968320Y-111165273D01*
X202860147Y-111426426D01*
X202805000Y-111703665D01*
X202805000Y-111986335D01*
X202860147Y-112263574D01*
X202968320Y-112524727D01*
X203125363Y-112759759D01*
X203325241Y-112959637D01*
X203560273Y-113116680D01*
X203821426Y-113224853D01*
X203847301Y-113230000D01*
X203821426Y-113235147D01*
X203560273Y-113343320D01*
X203325241Y-113500363D01*
X203125363Y-113700241D01*
X202968320Y-113935273D01*
X202860147Y-114196426D01*
X202805000Y-114473665D01*
X202805000Y-114756335D01*
X202860147Y-115033574D01*
X202968320Y-115294727D01*
X203125363Y-115529759D01*
X203325241Y-115729637D01*
X203560273Y-115886680D01*
X203821426Y-115994853D01*
X204098665Y-116050000D01*
X204381335Y-116050000D01*
X204658574Y-115994853D01*
X204919727Y-115886680D01*
X205154759Y-115729637D01*
X205354637Y-115529759D01*
X205511680Y-115294727D01*
X205619853Y-115033574D01*
X205675000Y-114756335D01*
X205675000Y-114473665D01*
X205619853Y-114196426D01*
X205511680Y-113935273D01*
X205354637Y-113700241D01*
X205154759Y-113500363D01*
X204919727Y-113343320D01*
X204658574Y-113235147D01*
X204632699Y-113230000D01*
X204658574Y-113224853D01*
X204919727Y-113116680D01*
X205154759Y-112959637D01*
X205354637Y-112759759D01*
X205511680Y-112524727D01*
X205619853Y-112263574D01*
X205675000Y-111986335D01*
X205675000Y-111703665D01*
X205619853Y-111426426D01*
X205511680Y-111165273D01*
X205354637Y-110930241D01*
X205154759Y-110730363D01*
X204919727Y-110573320D01*
X204658574Y-110465147D01*
X204632699Y-110460000D01*
X204658574Y-110454853D01*
X204919727Y-110346680D01*
X205154759Y-110189637D01*
X205354637Y-109989759D01*
X205511680Y-109754727D01*
X205619853Y-109493574D01*
X205675000Y-109216335D01*
X205675000Y-108933665D01*
X205619853Y-108656426D01*
X205511680Y-108395273D01*
X205354637Y-108160241D01*
X205154759Y-107960363D01*
X204919727Y-107803320D01*
X204658574Y-107695147D01*
X204632699Y-107690000D01*
X204658574Y-107684853D01*
X204919727Y-107576680D01*
X205154759Y-107419637D01*
X205354637Y-107219759D01*
X205511680Y-106984727D01*
X205619853Y-106723574D01*
X205675000Y-106446335D01*
X205675000Y-106163665D01*
X205619853Y-105886426D01*
X205511680Y-105625273D01*
X205354637Y-105390241D01*
X205154759Y-105190363D01*
X204919727Y-105033320D01*
X204658574Y-104925147D01*
X204381335Y-104870000D01*
X204098665Y-104870000D01*
X203821426Y-104925147D01*
X203560273Y-105033320D01*
X203325241Y-105190363D01*
X203125363Y-105390241D01*
X202968320Y-105625273D01*
X202860147Y-105886426D01*
X202805000Y-106163665D01*
X202128429Y-106163665D01*
X202141514Y-106156671D01*
X202213097Y-105912702D01*
X201400000Y-105099605D01*
X200586903Y-105912702D01*
X200658486Y-106156671D01*
X200913996Y-106277571D01*
X201016289Y-106303212D01*
X200981426Y-106310147D01*
X200720273Y-106418320D01*
X200485241Y-106575363D01*
X200285363Y-106775241D01*
X200128320Y-107010273D01*
X200020147Y-107271426D01*
X199965000Y-107548665D01*
X199965000Y-107831335D01*
X200020147Y-108108574D01*
X200128320Y-108369727D01*
X200285363Y-108604759D01*
X200485241Y-108804637D01*
X200720273Y-108961680D01*
X200981426Y-109069853D01*
X201007301Y-109075000D01*
X200981426Y-109080147D01*
X200720273Y-109188320D01*
X200485241Y-109345363D01*
X200285363Y-109545241D01*
X200215365Y-109650000D01*
X195959665Y-109650000D01*
X195989502Y-109594180D01*
X196025812Y-109474482D01*
X196038072Y-109350000D01*
X196038072Y-107850000D01*
X196025812Y-107725518D01*
X196010000Y-107673393D01*
X196010000Y-106458691D01*
X196013919Y-106418900D01*
X196010000Y-106379109D01*
X196010000Y-105954884D01*
X196062115Y-105912115D01*
X196168671Y-105782275D01*
X196247850Y-105634142D01*
X196296608Y-105473408D01*
X196313072Y-105306250D01*
X196313072Y-104990512D01*
X199959783Y-104990512D01*
X200001213Y-105270130D01*
X200096397Y-105536292D01*
X200163329Y-105661514D01*
X200407298Y-105733097D01*
X201220395Y-104920000D01*
X201579605Y-104920000D01*
X202392702Y-105733097D01*
X202636671Y-105661514D01*
X202757571Y-105406004D01*
X202826300Y-105131816D01*
X202840217Y-104849488D01*
X202798787Y-104569870D01*
X202703603Y-104303708D01*
X202636671Y-104178486D01*
X202392702Y-104106903D01*
X201579605Y-104920000D01*
X201220395Y-104920000D01*
X200407298Y-104106903D01*
X200163329Y-104178486D01*
X200042429Y-104433996D01*
X199973700Y-104708184D01*
X199959783Y-104990512D01*
X196313072Y-104990512D01*
X196313072Y-104868750D01*
X196296608Y-104701592D01*
X196247850Y-104540858D01*
X196168671Y-104392725D01*
X196150900Y-104371070D01*
X196205537Y-104304494D01*
X196264502Y-104194180D01*
X196300812Y-104074482D01*
X196313072Y-103950000D01*
X196312613Y-103927298D01*
X200586903Y-103927298D01*
X201400000Y-104740395D01*
X202213097Y-103927298D01*
X202141514Y-103683329D01*
X201886004Y-103562429D01*
X201611816Y-103493700D01*
X201329488Y-103479783D01*
X201049870Y-103521213D01*
X200783708Y-103616397D01*
X200658486Y-103683329D01*
X200586903Y-103927298D01*
X196312613Y-103927298D01*
X196310000Y-103798250D01*
X196151250Y-103639500D01*
X195327000Y-103639500D01*
X195327000Y-103659500D01*
X195073000Y-103659500D01*
X195073000Y-103639500D01*
X194248750Y-103639500D01*
X194090000Y-103798250D01*
X194086928Y-103950000D01*
X194099188Y-104074482D01*
X194135498Y-104194180D01*
X194194463Y-104304494D01*
X194249100Y-104371070D01*
X194231329Y-104392725D01*
X194152150Y-104540858D01*
X194103392Y-104701592D01*
X194086928Y-104868750D01*
X194086928Y-105306250D01*
X194103392Y-105473408D01*
X194144493Y-105608900D01*
X188820888Y-105608900D01*
X188781100Y-105604981D01*
X188741312Y-105608900D01*
X188741309Y-105608900D01*
X188622312Y-105620620D01*
X188469627Y-105666937D01*
X188427190Y-105689620D01*
X188389786Y-105709613D01*
X188482049Y-105597189D01*
X188514599Y-105536292D01*
X188557263Y-105456474D01*
X188603580Y-105303788D01*
X188619219Y-105145000D01*
X188615300Y-105105209D01*
X188615300Y-103927883D01*
X188718750Y-103938072D01*
X189206250Y-103938072D01*
X189378285Y-103921128D01*
X189543709Y-103870947D01*
X189696164Y-103789458D01*
X189829792Y-103679792D01*
X189835008Y-103673436D01*
X189898815Y-103751185D01*
X189995506Y-103830537D01*
X190105820Y-103889502D01*
X190225518Y-103925812D01*
X190350000Y-103938072D01*
X190551750Y-103935000D01*
X190710500Y-103776250D01*
X190710500Y-102727000D01*
X190964500Y-102727000D01*
X190964500Y-103776250D01*
X191123250Y-103935000D01*
X191325000Y-103938072D01*
X191449482Y-103925812D01*
X191569180Y-103889502D01*
X191679494Y-103830537D01*
X191776185Y-103751185D01*
X191855537Y-103654494D01*
X191914502Y-103544180D01*
X191950812Y-103424482D01*
X191963072Y-103300000D01*
X191961404Y-103075000D01*
X194086928Y-103075000D01*
X194090000Y-103226750D01*
X194248750Y-103385500D01*
X195073000Y-103385500D01*
X195073000Y-102598750D01*
X195327000Y-102598750D01*
X195327000Y-103385500D01*
X196151250Y-103385500D01*
X196310000Y-103226750D01*
X196313072Y-103075000D01*
X196300812Y-102950518D01*
X196264502Y-102830820D01*
X196205537Y-102720506D01*
X196126185Y-102623815D01*
X196029494Y-102544463D01*
X195919180Y-102485498D01*
X195799482Y-102449188D01*
X195675000Y-102436928D01*
X195485750Y-102440000D01*
X195327000Y-102598750D01*
X195073000Y-102598750D01*
X194914250Y-102440000D01*
X194725000Y-102436928D01*
X194600518Y-102449188D01*
X194480820Y-102485498D01*
X194370506Y-102544463D01*
X194273815Y-102623815D01*
X194194463Y-102720506D01*
X194135498Y-102830820D01*
X194099188Y-102950518D01*
X194086928Y-103075000D01*
X191961404Y-103075000D01*
X191960000Y-102885750D01*
X191801250Y-102727000D01*
X190964500Y-102727000D01*
X190710500Y-102727000D01*
X190690500Y-102727000D01*
X190690500Y-102473000D01*
X190710500Y-102473000D01*
X190710500Y-102453000D01*
X190964500Y-102453000D01*
X190964500Y-102473000D01*
X191801250Y-102473000D01*
X191960000Y-102314250D01*
X191963072Y-101900000D01*
X191950812Y-101775518D01*
X191914502Y-101655820D01*
X191855537Y-101545506D01*
X191776185Y-101448815D01*
X191679494Y-101369463D01*
X191569180Y-101310498D01*
X191549300Y-101304467D01*
X191550812Y-101299482D01*
X191563072Y-101175000D01*
X191560000Y-100985750D01*
X191401250Y-100827000D01*
X190614500Y-100827000D01*
X190614500Y-100847000D01*
X190360500Y-100847000D01*
X190360500Y-100827000D01*
X190340500Y-100827000D01*
X190340500Y-100573000D01*
X190360500Y-100573000D01*
X190360500Y-99748750D01*
X190614500Y-99748750D01*
X190614500Y-100573000D01*
X191401250Y-100573000D01*
X191560000Y-100414250D01*
X191563072Y-100225000D01*
X191550812Y-100100518D01*
X191514502Y-99980820D01*
X191455537Y-99870506D01*
X191403829Y-99807499D01*
X201152106Y-99807499D01*
X201368228Y-100174258D01*
X201828105Y-100414938D01*
X202326098Y-100561275D01*
X202843071Y-100607648D01*
X203359159Y-100552273D01*
X203854526Y-100397279D01*
X204271772Y-100174258D01*
X204487894Y-99807499D01*
X202820000Y-98139605D01*
X201152106Y-99807499D01*
X191403829Y-99807499D01*
X191376185Y-99773815D01*
X191279494Y-99694463D01*
X191169180Y-99635498D01*
X191049482Y-99599188D01*
X190925000Y-99586928D01*
X190773250Y-99590000D01*
X190614500Y-99748750D01*
X190360500Y-99748750D01*
X190201750Y-99590000D01*
X190050000Y-99586928D01*
X189925518Y-99599188D01*
X189805820Y-99635498D01*
X189695506Y-99694463D01*
X189628930Y-99749100D01*
X189607275Y-99731329D01*
X189459142Y-99652150D01*
X189298408Y-99603392D01*
X189131250Y-99586928D01*
X188693750Y-99586928D01*
X188526592Y-99603392D01*
X188365858Y-99652150D01*
X188217725Y-99731329D01*
X188087885Y-99837885D01*
X188004082Y-99940000D01*
X187839981Y-99940000D01*
X187784494Y-99894463D01*
X187674180Y-99835498D01*
X187554482Y-99799188D01*
X187430000Y-99786928D01*
X186370000Y-99786928D01*
X186245518Y-99799188D01*
X186125820Y-99835498D01*
X186015506Y-99894463D01*
X185918815Y-99973815D01*
X185839463Y-100070506D01*
X185800000Y-100144335D01*
X185760537Y-100070506D01*
X185681185Y-99973815D01*
X185584494Y-99894463D01*
X185474180Y-99835498D01*
X185354482Y-99799188D01*
X185230000Y-99786928D01*
X184170000Y-99786928D01*
X184045518Y-99799188D01*
X183925820Y-99835498D01*
X183880607Y-99859665D01*
X183851185Y-99823815D01*
X183754494Y-99744463D01*
X183644180Y-99685498D01*
X183524482Y-99649188D01*
X183400000Y-99636928D01*
X182985750Y-99640000D01*
X182827000Y-99798750D01*
X182827000Y-100635500D01*
X182847000Y-100635500D01*
X182847000Y-100889500D01*
X182827000Y-100889500D01*
X182827000Y-100909500D01*
X182573000Y-100909500D01*
X182573000Y-100889500D01*
X181523750Y-100889500D01*
X181365000Y-101048250D01*
X181361928Y-101250000D01*
X181374188Y-101374482D01*
X181410498Y-101494180D01*
X181469463Y-101604494D01*
X181548815Y-101701185D01*
X181626564Y-101764992D01*
X181620208Y-101770208D01*
X181510542Y-101903836D01*
X181429053Y-102056291D01*
X181378872Y-102221715D01*
X181361928Y-102393750D01*
X181361928Y-102881250D01*
X181378872Y-103053285D01*
X181429053Y-103218709D01*
X181510542Y-103371164D01*
X181620208Y-103504792D01*
X181753836Y-103614458D01*
X181906291Y-103695947D01*
X182071715Y-103746128D01*
X182243750Y-103763072D01*
X182984701Y-103763072D01*
X182984700Y-108301312D01*
X182980781Y-108341100D01*
X182984700Y-108380888D01*
X182984700Y-108380890D01*
X182996420Y-108499887D01*
X183042737Y-108652572D01*
X183069743Y-108703096D01*
X183117951Y-108793289D01*
X183148350Y-108830330D01*
X183219172Y-108916628D01*
X183250087Y-108941999D01*
X183767115Y-109459027D01*
X183765096Y-109462805D01*
X183685214Y-109726140D01*
X183658241Y-110000000D01*
X183685214Y-110273860D01*
X183765096Y-110537195D01*
X183894817Y-110779887D01*
X184069392Y-110992608D01*
X184078399Y-111000000D01*
X184069392Y-111007392D01*
X183894817Y-111220113D01*
X183765096Y-111462805D01*
X183685214Y-111726140D01*
X183658241Y-112000000D01*
X183685214Y-112273860D01*
X183765096Y-112537195D01*
X183894817Y-112779887D01*
X184069392Y-112992608D01*
X184078399Y-113000000D01*
X184069392Y-113007392D01*
X183894817Y-113220113D01*
X183765096Y-113462805D01*
X183685214Y-113726140D01*
X183658241Y-114000000D01*
X183685214Y-114273860D01*
X183765096Y-114537195D01*
X183894817Y-114779887D01*
X184069392Y-114992608D01*
X184282113Y-115167183D01*
X184524805Y-115296904D01*
X184788140Y-115376786D01*
X184993375Y-115397000D01*
X185406625Y-115397000D01*
X185611860Y-115376786D01*
X185875195Y-115296904D01*
X186117887Y-115167183D01*
X186330608Y-114992608D01*
X186505183Y-114779887D01*
X186634904Y-114537195D01*
X186684129Y-114374921D01*
X186729609Y-114379400D01*
X186729612Y-114379400D01*
X186769400Y-114383319D01*
X186809188Y-114379400D01*
X187095700Y-114379400D01*
X187095701Y-120003502D01*
X187091781Y-120043300D01*
X187107421Y-120202087D01*
X187153738Y-120354773D01*
X187228951Y-120495489D01*
X187284552Y-120563239D01*
X187330173Y-120618828D01*
X187361083Y-120644195D01*
X188441529Y-121724642D01*
X188479174Y-121913898D01*
X188557195Y-122102256D01*
X188670463Y-122271774D01*
X188814626Y-122415937D01*
X188984144Y-122529205D01*
X189172502Y-122607226D01*
X189372461Y-122647000D01*
X189576339Y-122647000D01*
X189776298Y-122607226D01*
X189964656Y-122529205D01*
X190134174Y-122415937D01*
X190278337Y-122271774D01*
X190391605Y-122102256D01*
X190469626Y-121913898D01*
X190509400Y-121713939D01*
X190509400Y-121510061D01*
X190469626Y-121310102D01*
X190391605Y-121121744D01*
X190278337Y-120952226D01*
X190134174Y-120808063D01*
X189964656Y-120694795D01*
X189776298Y-120616774D01*
X189587042Y-120579129D01*
X188715700Y-119707788D01*
X188715700Y-114223111D01*
X188748037Y-114190774D01*
X188861305Y-114021256D01*
X188939326Y-113832898D01*
X188979100Y-113632939D01*
X188979100Y-113583372D01*
X189021095Y-113684756D01*
X189128301Y-113845201D01*
X189128300Y-119282112D01*
X189124381Y-119321900D01*
X189128300Y-119361688D01*
X189128300Y-119361690D01*
X189140020Y-119480687D01*
X189186337Y-119633372D01*
X189209221Y-119676185D01*
X189261551Y-119774089D01*
X189277512Y-119793537D01*
X189362772Y-119897428D01*
X189393688Y-119922800D01*
X195215505Y-125744618D01*
X195240872Y-125775528D01*
X195364211Y-125876749D01*
X195504927Y-125951963D01*
X195657612Y-125998280D01*
X195776609Y-126010000D01*
X195776612Y-126010000D01*
X195816400Y-126013919D01*
X195856188Y-126010000D01*
X195904868Y-126010000D01*
X195976480Y-126081612D01*
X196162376Y-126205824D01*
X196365594Y-126290000D01*
X178034721Y-126290000D01*
X177944336Y-126281138D01*
X177890786Y-126264970D01*
X177841403Y-126238712D01*
X177798053Y-126203357D01*
X177762401Y-126160261D01*
X177735799Y-126111063D01*
X177719258Y-126057625D01*
X177710000Y-125969545D01*
X177710000Y-124446358D01*
X177750890Y-124651925D01*
X177919369Y-125058669D01*
X178163962Y-125424729D01*
X178475271Y-125736038D01*
X178841331Y-125980631D01*
X179248075Y-126149110D01*
X179679872Y-126235000D01*
X180120128Y-126235000D01*
X180551925Y-126149110D01*
X180958669Y-125980631D01*
X181324729Y-125736038D01*
X181636038Y-125424729D01*
X181880631Y-125058669D01*
X182049110Y-124651925D01*
X182135000Y-124220128D01*
X182135000Y-123779872D01*
X182049110Y-123348075D01*
X181880631Y-122941331D01*
X181636038Y-122575271D01*
X181324729Y-122263962D01*
X180958669Y-122019369D01*
X180551925Y-121850890D01*
X180120128Y-121765000D01*
X179679872Y-121765000D01*
X179248075Y-121850890D01*
X178841331Y-122019369D01*
X178475271Y-122263962D01*
X178163962Y-122575271D01*
X177919369Y-122941331D01*
X177750890Y-123348075D01*
X177710000Y-123553642D01*
X177710000Y-107751761D01*
X178095100Y-107751761D01*
X178095100Y-107955639D01*
X178134874Y-108155598D01*
X178212895Y-108343956D01*
X178320101Y-108504401D01*
X178320100Y-112085321D01*
X178320101Y-112085331D01*
X178320100Y-114890312D01*
X178316181Y-114930100D01*
X178320100Y-114969888D01*
X178320100Y-114969890D01*
X178331820Y-115088887D01*
X178378137Y-115241572D01*
X178408448Y-115298280D01*
X178453351Y-115382289D01*
X178484803Y-115420613D01*
X178554572Y-115505628D01*
X178585488Y-115531000D01*
X186567129Y-123512642D01*
X186604774Y-123701898D01*
X186682795Y-123890256D01*
X186796063Y-124059774D01*
X186940226Y-124203937D01*
X187109744Y-124317205D01*
X187298102Y-124395226D01*
X187498061Y-124435000D01*
X187701939Y-124435000D01*
X187901898Y-124395226D01*
X188090256Y-124317205D01*
X188259774Y-124203937D01*
X188403937Y-124059774D01*
X188517205Y-123890256D01*
X188595226Y-123701898D01*
X188635000Y-123501939D01*
X188635000Y-123298061D01*
X188595226Y-123098102D01*
X188517205Y-122909744D01*
X188403937Y-122740226D01*
X188259774Y-122596063D01*
X188090256Y-122482795D01*
X187901898Y-122404774D01*
X187712642Y-122367129D01*
X179940100Y-114594588D01*
X179940100Y-108504400D01*
X180047305Y-108343956D01*
X180125326Y-108155598D01*
X180165100Y-107955639D01*
X180165100Y-107751761D01*
X180125326Y-107551802D01*
X180047305Y-107363444D01*
X179934037Y-107193926D01*
X179789874Y-107049763D01*
X179620356Y-106936495D01*
X179431998Y-106858474D01*
X179232039Y-106818700D01*
X179028161Y-106818700D01*
X178828202Y-106858474D01*
X178639844Y-106936495D01*
X178470326Y-107049763D01*
X178326163Y-107193926D01*
X178212895Y-107363444D01*
X178134874Y-107551802D01*
X178095100Y-107751761D01*
X177710000Y-107751761D01*
X177710000Y-100275000D01*
X181361928Y-100275000D01*
X181365000Y-100476750D01*
X181523750Y-100635500D01*
X182573000Y-100635500D01*
X182573000Y-99798750D01*
X182414250Y-99640000D01*
X182000000Y-99636928D01*
X181875518Y-99649188D01*
X181755820Y-99685498D01*
X181645506Y-99744463D01*
X181548815Y-99823815D01*
X181469463Y-99920506D01*
X181410498Y-100030820D01*
X181374188Y-100150518D01*
X181361928Y-100275000D01*
X177710000Y-100275000D01*
X177710000Y-97146358D01*
X177750890Y-97351925D01*
X177919369Y-97758669D01*
X178163962Y-98124729D01*
X178475271Y-98436038D01*
X178841331Y-98680631D01*
X179248075Y-98849110D01*
X179679872Y-98935000D01*
X180120128Y-98935000D01*
X180551925Y-98849110D01*
X180958669Y-98680631D01*
X181324729Y-98436038D01*
X181636038Y-98124729D01*
X181730690Y-97983071D01*
X200172352Y-97983071D01*
X200227727Y-98499159D01*
X200382721Y-98994526D01*
X200605742Y-99411772D01*
X200972501Y-99627894D01*
X202640395Y-97960000D01*
X202999605Y-97960000D01*
X204667499Y-99627894D01*
X205034258Y-99411772D01*
X205274938Y-98951895D01*
X205421275Y-98453902D01*
X205467648Y-97936929D01*
X205412273Y-97420841D01*
X205257279Y-96925474D01*
X205034258Y-96508228D01*
X204667499Y-96292106D01*
X202999605Y-97960000D01*
X202640395Y-97960000D01*
X200972501Y-96292106D01*
X200605742Y-96508228D01*
X200365062Y-96968105D01*
X200218725Y-97466098D01*
X200172352Y-97983071D01*
X181730690Y-97983071D01*
X181880631Y-97758669D01*
X182049110Y-97351925D01*
X182135000Y-96920128D01*
X182135000Y-96479872D01*
X182061926Y-96112501D01*
X201152106Y-96112501D01*
X202820000Y-97780395D01*
X204487894Y-96112501D01*
X204271772Y-95745742D01*
X203811895Y-95505062D01*
X203313902Y-95358725D01*
X202796929Y-95312352D01*
X202280841Y-95367727D01*
X201785474Y-95522721D01*
X201368228Y-95745742D01*
X201152106Y-96112501D01*
X182061926Y-96112501D01*
X182049110Y-96048075D01*
X181880631Y-95641331D01*
X181636038Y-95275271D01*
X181324729Y-94963962D01*
X180958669Y-94719369D01*
X180936050Y-94710000D01*
X211965278Y-94710000D01*
X212055665Y-94718863D01*
G36*
X190927000Y-118660500D02*
G01*
X190947000Y-118660500D01*
X190947000Y-118914500D01*
X190927000Y-118914500D01*
X190927000Y-118934500D01*
X190748300Y-118934500D01*
X190748300Y-118640500D01*
X190927000Y-118640500D01*
X190927000Y-118660500D01*
X190927000Y-118660500D01*
G37*
X190927000Y-118660500D02*
X190947000Y-118660500D01*
X190947000Y-118914500D01*
X190927000Y-118914500D01*
X190927000Y-118934500D01*
X190748300Y-118934500D01*
X190748300Y-118640500D01*
X190927000Y-118640500D01*
X190927000Y-118660500D01*
G36*
X190155820Y-107260498D02*
G01*
X190045506Y-107319463D01*
X189948815Y-107398815D01*
X189869463Y-107495506D01*
X189810498Y-107605820D01*
X189774188Y-107725518D01*
X189761928Y-107850000D01*
X189761928Y-109350000D01*
X189774188Y-109474482D01*
X189810498Y-109594180D01*
X189869463Y-109704494D01*
X189948815Y-109801185D01*
X190045506Y-109880537D01*
X190155820Y-109939502D01*
X190275518Y-109975812D01*
X190400000Y-109988072D01*
X190850000Y-109988072D01*
X190950000Y-109978223D01*
X190989600Y-109982123D01*
X190989600Y-110696712D01*
X190985681Y-110736500D01*
X190989600Y-110776288D01*
X190989600Y-110776291D01*
X190995168Y-110832817D01*
X191001321Y-110895287D01*
X191047638Y-111047973D01*
X191122851Y-111188689D01*
X191170912Y-111247251D01*
X191224073Y-111312028D01*
X191254983Y-111337395D01*
X191753105Y-111835517D01*
X191778472Y-111866428D01*
X191846210Y-111922019D01*
X191901810Y-111967649D01*
X191977024Y-112007851D01*
X192042527Y-112042863D01*
X192195212Y-112089180D01*
X192314209Y-112100900D01*
X192314212Y-112100900D01*
X192354000Y-112104819D01*
X192393788Y-112100900D01*
X192812000Y-112100900D01*
X192972444Y-112208105D01*
X193160802Y-112286126D01*
X193360761Y-112325900D01*
X193564639Y-112325900D01*
X193764598Y-112286126D01*
X193952956Y-112208105D01*
X194122474Y-112094837D01*
X194205349Y-112011962D01*
X194758087Y-112564700D01*
X193914791Y-112564700D01*
X193875000Y-112560781D01*
X193835209Y-112564700D01*
X193716212Y-112576420D01*
X193563527Y-112622737D01*
X193422811Y-112697951D01*
X193299472Y-112799172D01*
X193198251Y-112922511D01*
X193123037Y-113063227D01*
X193108264Y-113111928D01*
X193000000Y-113111928D01*
X192900000Y-113121777D01*
X192800000Y-113111928D01*
X192350000Y-113111928D01*
X192250000Y-113121777D01*
X192150000Y-113111928D01*
X191700000Y-113111928D01*
X191600000Y-113121777D01*
X191500000Y-113111928D01*
X191050000Y-113111928D01*
X190973300Y-113119482D01*
X190973300Y-113092561D01*
X190933526Y-112892602D01*
X190855505Y-112704244D01*
X190742237Y-112534726D01*
X190598074Y-112390563D01*
X190428556Y-112277295D01*
X190240198Y-112199274D01*
X190040239Y-112159500D01*
X189836361Y-112159500D01*
X189636402Y-112199274D01*
X189448044Y-112277295D01*
X189278526Y-112390563D01*
X189134363Y-112534726D01*
X189021095Y-112704244D01*
X188943074Y-112892602D01*
X188903300Y-113092561D01*
X188903300Y-113142128D01*
X188861305Y-113040744D01*
X188748037Y-112871226D01*
X188603874Y-112727063D01*
X188434356Y-112613795D01*
X188245998Y-112535774D01*
X188046039Y-112496000D01*
X187842161Y-112496000D01*
X187642202Y-112535774D01*
X187453844Y-112613795D01*
X187284326Y-112727063D01*
X187251989Y-112759400D01*
X187104913Y-112759400D01*
X186692579Y-112347066D01*
X186714786Y-112273860D01*
X186741759Y-112000000D01*
X186714786Y-111726140D01*
X186634904Y-111462805D01*
X186505183Y-111220113D01*
X186330608Y-111007392D01*
X186321601Y-111000000D01*
X186330608Y-110992608D01*
X186505183Y-110779887D01*
X186634904Y-110537195D01*
X186714786Y-110273860D01*
X186741759Y-110000000D01*
X186714786Y-109726140D01*
X186692579Y-109652933D01*
X189116613Y-107228900D01*
X190259985Y-107228900D01*
X190155820Y-107260498D01*
X190155820Y-107260498D01*
G37*
X190155820Y-107260498D02*
X190045506Y-107319463D01*
X189948815Y-107398815D01*
X189869463Y-107495506D01*
X189810498Y-107605820D01*
X189774188Y-107725518D01*
X189761928Y-107850000D01*
X189761928Y-109350000D01*
X189774188Y-109474482D01*
X189810498Y-109594180D01*
X189869463Y-109704494D01*
X189948815Y-109801185D01*
X190045506Y-109880537D01*
X190155820Y-109939502D01*
X190275518Y-109975812D01*
X190400000Y-109988072D01*
X190850000Y-109988072D01*
X190950000Y-109978223D01*
X190989600Y-109982123D01*
X190989600Y-110696712D01*
X190985681Y-110736500D01*
X190989600Y-110776288D01*
X190989600Y-110776291D01*
X190995168Y-110832817D01*
X191001321Y-110895287D01*
X191047638Y-111047973D01*
X191122851Y-111188689D01*
X191170912Y-111247251D01*
X191224073Y-111312028D01*
X191254983Y-111337395D01*
X191753105Y-111835517D01*
X191778472Y-111866428D01*
X191846210Y-111922019D01*
X191901810Y-111967649D01*
X191977024Y-112007851D01*
X192042527Y-112042863D01*
X192195212Y-112089180D01*
X192314209Y-112100900D01*
X192314212Y-112100900D01*
X192354000Y-112104819D01*
X192393788Y-112100900D01*
X192812000Y-112100900D01*
X192972444Y-112208105D01*
X193160802Y-112286126D01*
X193360761Y-112325900D01*
X193564639Y-112325900D01*
X193764598Y-112286126D01*
X193952956Y-112208105D01*
X194122474Y-112094837D01*
X194205349Y-112011962D01*
X194758087Y-112564700D01*
X193914791Y-112564700D01*
X193875000Y-112560781D01*
X193835209Y-112564700D01*
X193716212Y-112576420D01*
X193563527Y-112622737D01*
X193422811Y-112697951D01*
X193299472Y-112799172D01*
X193198251Y-112922511D01*
X193123037Y-113063227D01*
X193108264Y-113111928D01*
X193000000Y-113111928D01*
X192900000Y-113121777D01*
X192800000Y-113111928D01*
X192350000Y-113111928D01*
X192250000Y-113121777D01*
X192150000Y-113111928D01*
X191700000Y-113111928D01*
X191600000Y-113121777D01*
X191500000Y-113111928D01*
X191050000Y-113111928D01*
X190973300Y-113119482D01*
X190973300Y-113092561D01*
X190933526Y-112892602D01*
X190855505Y-112704244D01*
X190742237Y-112534726D01*
X190598074Y-112390563D01*
X190428556Y-112277295D01*
X190240198Y-112199274D01*
X190040239Y-112159500D01*
X189836361Y-112159500D01*
X189636402Y-112199274D01*
X189448044Y-112277295D01*
X189278526Y-112390563D01*
X189134363Y-112534726D01*
X189021095Y-112704244D01*
X188943074Y-112892602D01*
X188903300Y-113092561D01*
X188903300Y-113142128D01*
X188861305Y-113040744D01*
X188748037Y-112871226D01*
X188603874Y-112727063D01*
X188434356Y-112613795D01*
X188245998Y-112535774D01*
X188046039Y-112496000D01*
X187842161Y-112496000D01*
X187642202Y-112535774D01*
X187453844Y-112613795D01*
X187284326Y-112727063D01*
X187251989Y-112759400D01*
X187104913Y-112759400D01*
X186692579Y-112347066D01*
X186714786Y-112273860D01*
X186741759Y-112000000D01*
X186714786Y-111726140D01*
X186634904Y-111462805D01*
X186505183Y-111220113D01*
X186330608Y-111007392D01*
X186321601Y-111000000D01*
X186330608Y-110992608D01*
X186505183Y-110779887D01*
X186634904Y-110537195D01*
X186714786Y-110273860D01*
X186741759Y-110000000D01*
X186714786Y-109726140D01*
X186692579Y-109652933D01*
X189116613Y-107228900D01*
X190259985Y-107228900D01*
X190155820Y-107260498D01*
G36*
X185839463Y-103329494D02*
G01*
X185918815Y-103426185D01*
X186015506Y-103505537D01*
X186125820Y-103564502D01*
X186245518Y-103600812D01*
X186370000Y-103613072D01*
X186995300Y-103613072D01*
X186995301Y-104738223D01*
X186895002Y-104758174D01*
X186706644Y-104836195D01*
X186537126Y-104949463D01*
X186392963Y-105093626D01*
X186279695Y-105263144D01*
X186201674Y-105451502D01*
X186161900Y-105651461D01*
X186161900Y-105855339D01*
X186201674Y-106055298D01*
X186279695Y-106243656D01*
X186392963Y-106413174D01*
X186537126Y-106557337D01*
X186706644Y-106670605D01*
X186895002Y-106748626D01*
X187094961Y-106788400D01*
X187266087Y-106788400D01*
X186614870Y-107439618D01*
X186602524Y-107404932D01*
X186462135Y-107169670D01*
X186278546Y-106966317D01*
X186058812Y-106802688D01*
X185811378Y-106685071D01*
X185545752Y-106617986D01*
X185327000Y-106761251D01*
X185327000Y-107873000D01*
X185347000Y-107873000D01*
X185347000Y-108127000D01*
X185327000Y-108127000D01*
X185327000Y-108147000D01*
X185073000Y-108147000D01*
X185073000Y-108127000D01*
X185053000Y-108127000D01*
X185053000Y-107873000D01*
X185073000Y-107873000D01*
X185073000Y-106761251D01*
X184854248Y-106617986D01*
X184604700Y-106681010D01*
X184604700Y-103613072D01*
X185230000Y-103613072D01*
X185354482Y-103600812D01*
X185474180Y-103564502D01*
X185584494Y-103505537D01*
X185681185Y-103426185D01*
X185760537Y-103329494D01*
X185800000Y-103255665D01*
X185839463Y-103329494D01*
X185839463Y-103329494D01*
G37*
X185839463Y-103329494D02*
X185918815Y-103426185D01*
X186015506Y-103505537D01*
X186125820Y-103564502D01*
X186245518Y-103600812D01*
X186370000Y-103613072D01*
X186995300Y-103613072D01*
X186995301Y-104738223D01*
X186895002Y-104758174D01*
X186706644Y-104836195D01*
X186537126Y-104949463D01*
X186392963Y-105093626D01*
X186279695Y-105263144D01*
X186201674Y-105451502D01*
X186161900Y-105651461D01*
X186161900Y-105855339D01*
X186201674Y-106055298D01*
X186279695Y-106243656D01*
X186392963Y-106413174D01*
X186537126Y-106557337D01*
X186706644Y-106670605D01*
X186895002Y-106748626D01*
X187094961Y-106788400D01*
X187266087Y-106788400D01*
X186614870Y-107439618D01*
X186602524Y-107404932D01*
X186462135Y-107169670D01*
X186278546Y-106966317D01*
X186058812Y-106802688D01*
X185811378Y-106685071D01*
X185545752Y-106617986D01*
X185327000Y-106761251D01*
X185327000Y-107873000D01*
X185347000Y-107873000D01*
X185347000Y-108127000D01*
X185327000Y-108127000D01*
X185327000Y-108147000D01*
X185073000Y-108147000D01*
X185073000Y-108127000D01*
X185053000Y-108127000D01*
X185053000Y-107873000D01*
X185073000Y-107873000D01*
X185073000Y-106761251D01*
X184854248Y-106617986D01*
X184604700Y-106681010D01*
X184604700Y-103613072D01*
X185230000Y-103613072D01*
X185354482Y-103600812D01*
X185474180Y-103564502D01*
X185584494Y-103505537D01*
X185681185Y-103426185D01*
X185760537Y-103329494D01*
X185800000Y-103255665D01*
X185839463Y-103329494D01*
G36*
X185918815Y-101526185D02*
G01*
X186015506Y-101605537D01*
X186125820Y-101664502D01*
X186242841Y-101700000D01*
X186125820Y-101735498D01*
X186015506Y-101794463D01*
X185918815Y-101873815D01*
X185844103Y-101964853D01*
X185706250Y-101827000D01*
X185624141Y-101827000D01*
X185584494Y-101794463D01*
X185474180Y-101735498D01*
X185357159Y-101700000D01*
X185474180Y-101664502D01*
X185584494Y-101605537D01*
X185624141Y-101573000D01*
X185706250Y-101573000D01*
X185844103Y-101435147D01*
X185918815Y-101526185D01*
X185918815Y-101526185D01*
G37*
X185918815Y-101526185D02*
X186015506Y-101605537D01*
X186125820Y-101664502D01*
X186242841Y-101700000D01*
X186125820Y-101735498D01*
X186015506Y-101794463D01*
X185918815Y-101873815D01*
X185844103Y-101964853D01*
X185706250Y-101827000D01*
X185624141Y-101827000D01*
X185584494Y-101794463D01*
X185474180Y-101735498D01*
X185357159Y-101700000D01*
X185474180Y-101664502D01*
X185584494Y-101605537D01*
X185624141Y-101573000D01*
X185706250Y-101573000D01*
X185844103Y-101435147D01*
X185918815Y-101526185D01*
M02*
