M48
; DRILL file {KiCad (5.1.2)-1} date 2019/11/04 1:50:10
; FORMAT={-:-/ absolute / metric / decimal}
; #@! TF.CreationDate,2019-11-04T01:50:10+09:00
; #@! TF.GenerationSoftware,Kicad,Pcbnew,(5.1.2)-1
FMAT,2
METRIC
T1C0.400
T2C0.500
T3C0.762
T4C1.000
T5C3.200
T6C3.200
%
G90
G05
T1
X179.13Y-107.854
X185.5Y-124.8
X187.197Y-105.753
X187.6Y-123.4
X187.8Y-109.3
X187.944Y-113.531
X188.9Y-99.3
X189.474Y-121.612
X189.938Y-113.194
X191.1Y-104.6
X191.6Y-112.5
X192.575Y-110.347
X193.463Y-111.291
T2
X196.7Y-125.2
T3
X185.2Y-108.0
X185.2Y-110.0
X185.2Y-112.0
X185.2Y-114.0
T4
X201.4Y-104.92
X201.4Y-107.69
X201.4Y-110.46
X201.4Y-113.23
X201.4Y-116.0
X204.24Y-106.305
X204.24Y-109.075
X204.24Y-111.845
X204.24Y-114.615
T5
X202.82Y-97.96
X202.82Y-122.96
T6
X179.9Y-124.0
X179.9Y-96.7
T0
M30
