G04 #@! TF.GenerationSoftware,KiCad,Pcbnew,(5.1.2)-1*
G04 #@! TF.CreationDate,2023-02-04T08:31:17+09:00*
G04 #@! TF.ProjectId,IR,49522e6b-6963-4616-945f-706362585858,v1.2*
G04 #@! TF.SameCoordinates,Original*
G04 #@! TF.FileFunction,Copper,L1,Top*
G04 #@! TF.FilePolarity,Positive*
%FSLAX46Y46*%
G04 Gerber Fmt 4.6, Leading zero omitted, Abs format (unit mm)*
G04 Created by KiCad (PCBNEW (5.1.2)-1) date 2023-02-04 08:31:17*
%MOMM*%
%LPD*%
G04 APERTURE LIST*
%ADD10O,1.800000X1.524000*%
%ADD11C,0.050000*%
%ADD12C,0.875000*%
%ADD13R,4.500000X2.000000*%
%ADD14C,1.000000*%
%ADD15R,0.400000X1.100000*%
%ADD16R,1.600000X1.600000*%
%ADD17C,1.600000*%
%ADD18C,4.000000*%
%ADD19C,0.800000*%
%ADD20C,0.350000*%
%ADD21C,0.254000*%
G04 APERTURE END LIST*
D10*
X185200000Y-114000000D03*
X185200000Y-112000000D03*
X185200000Y-110000000D03*
X185200000Y-108000000D03*
D11*
G36*
X192865691Y-105276053D02*
G01*
X192886926Y-105279203D01*
X192907750Y-105284419D01*
X192927962Y-105291651D01*
X192947368Y-105300830D01*
X192965781Y-105311866D01*
X192983024Y-105324654D01*
X192998930Y-105339070D01*
X193013346Y-105354976D01*
X193026134Y-105372219D01*
X193037170Y-105390632D01*
X193046349Y-105410038D01*
X193053581Y-105430250D01*
X193058797Y-105451074D01*
X193061947Y-105472309D01*
X193063000Y-105493750D01*
X193063000Y-106006250D01*
X193061947Y-106027691D01*
X193058797Y-106048926D01*
X193053581Y-106069750D01*
X193046349Y-106089962D01*
X193037170Y-106109368D01*
X193026134Y-106127781D01*
X193013346Y-106145024D01*
X192998930Y-106160930D01*
X192983024Y-106175346D01*
X192965781Y-106188134D01*
X192947368Y-106199170D01*
X192927962Y-106208349D01*
X192907750Y-106215581D01*
X192886926Y-106220797D01*
X192865691Y-106223947D01*
X192844250Y-106225000D01*
X192406750Y-106225000D01*
X192385309Y-106223947D01*
X192364074Y-106220797D01*
X192343250Y-106215581D01*
X192323038Y-106208349D01*
X192303632Y-106199170D01*
X192285219Y-106188134D01*
X192267976Y-106175346D01*
X192252070Y-106160930D01*
X192237654Y-106145024D01*
X192224866Y-106127781D01*
X192213830Y-106109368D01*
X192204651Y-106089962D01*
X192197419Y-106069750D01*
X192192203Y-106048926D01*
X192189053Y-106027691D01*
X192188000Y-106006250D01*
X192188000Y-105493750D01*
X192189053Y-105472309D01*
X192192203Y-105451074D01*
X192197419Y-105430250D01*
X192204651Y-105410038D01*
X192213830Y-105390632D01*
X192224866Y-105372219D01*
X192237654Y-105354976D01*
X192252070Y-105339070D01*
X192267976Y-105324654D01*
X192285219Y-105311866D01*
X192303632Y-105300830D01*
X192323038Y-105291651D01*
X192343250Y-105284419D01*
X192364074Y-105279203D01*
X192385309Y-105276053D01*
X192406750Y-105275000D01*
X192844250Y-105275000D01*
X192865691Y-105276053D01*
X192865691Y-105276053D01*
G37*
D12*
X192625500Y-105750000D03*
D11*
G36*
X191290691Y-105276053D02*
G01*
X191311926Y-105279203D01*
X191332750Y-105284419D01*
X191352962Y-105291651D01*
X191372368Y-105300830D01*
X191390781Y-105311866D01*
X191408024Y-105324654D01*
X191423930Y-105339070D01*
X191438346Y-105354976D01*
X191451134Y-105372219D01*
X191462170Y-105390632D01*
X191471349Y-105410038D01*
X191478581Y-105430250D01*
X191483797Y-105451074D01*
X191486947Y-105472309D01*
X191488000Y-105493750D01*
X191488000Y-106006250D01*
X191486947Y-106027691D01*
X191483797Y-106048926D01*
X191478581Y-106069750D01*
X191471349Y-106089962D01*
X191462170Y-106109368D01*
X191451134Y-106127781D01*
X191438346Y-106145024D01*
X191423930Y-106160930D01*
X191408024Y-106175346D01*
X191390781Y-106188134D01*
X191372368Y-106199170D01*
X191352962Y-106208349D01*
X191332750Y-106215581D01*
X191311926Y-106220797D01*
X191290691Y-106223947D01*
X191269250Y-106225000D01*
X190831750Y-106225000D01*
X190810309Y-106223947D01*
X190789074Y-106220797D01*
X190768250Y-106215581D01*
X190748038Y-106208349D01*
X190728632Y-106199170D01*
X190710219Y-106188134D01*
X190692976Y-106175346D01*
X190677070Y-106160930D01*
X190662654Y-106145024D01*
X190649866Y-106127781D01*
X190638830Y-106109368D01*
X190629651Y-106089962D01*
X190622419Y-106069750D01*
X190617203Y-106048926D01*
X190614053Y-106027691D01*
X190613000Y-106006250D01*
X190613000Y-105493750D01*
X190614053Y-105472309D01*
X190617203Y-105451074D01*
X190622419Y-105430250D01*
X190629651Y-105410038D01*
X190638830Y-105390632D01*
X190649866Y-105372219D01*
X190662654Y-105354976D01*
X190677070Y-105339070D01*
X190692976Y-105324654D01*
X190710219Y-105311866D01*
X190728632Y-105300830D01*
X190748038Y-105291651D01*
X190768250Y-105284419D01*
X190789074Y-105279203D01*
X190810309Y-105276053D01*
X190831750Y-105275000D01*
X191269250Y-105275000D01*
X191290691Y-105276053D01*
X191290691Y-105276053D01*
G37*
D12*
X191050500Y-105750000D03*
D11*
G36*
X197477691Y-101988053D02*
G01*
X197498926Y-101991203D01*
X197519750Y-101996419D01*
X197539962Y-102003651D01*
X197559368Y-102012830D01*
X197577781Y-102023866D01*
X197595024Y-102036654D01*
X197610930Y-102051070D01*
X197625346Y-102066976D01*
X197638134Y-102084219D01*
X197649170Y-102102632D01*
X197658349Y-102122038D01*
X197665581Y-102142250D01*
X197670797Y-102163074D01*
X197673947Y-102184309D01*
X197675000Y-102205750D01*
X197675000Y-102643250D01*
X197673947Y-102664691D01*
X197670797Y-102685926D01*
X197665581Y-102706750D01*
X197658349Y-102726962D01*
X197649170Y-102746368D01*
X197638134Y-102764781D01*
X197625346Y-102782024D01*
X197610930Y-102797930D01*
X197595024Y-102812346D01*
X197577781Y-102825134D01*
X197559368Y-102836170D01*
X197539962Y-102845349D01*
X197519750Y-102852581D01*
X197498926Y-102857797D01*
X197477691Y-102860947D01*
X197456250Y-102862000D01*
X196943750Y-102862000D01*
X196922309Y-102860947D01*
X196901074Y-102857797D01*
X196880250Y-102852581D01*
X196860038Y-102845349D01*
X196840632Y-102836170D01*
X196822219Y-102825134D01*
X196804976Y-102812346D01*
X196789070Y-102797930D01*
X196774654Y-102782024D01*
X196761866Y-102764781D01*
X196750830Y-102746368D01*
X196741651Y-102726962D01*
X196734419Y-102706750D01*
X196729203Y-102685926D01*
X196726053Y-102664691D01*
X196725000Y-102643250D01*
X196725000Y-102205750D01*
X196726053Y-102184309D01*
X196729203Y-102163074D01*
X196734419Y-102142250D01*
X196741651Y-102122038D01*
X196750830Y-102102632D01*
X196761866Y-102084219D01*
X196774654Y-102066976D01*
X196789070Y-102051070D01*
X196804976Y-102036654D01*
X196822219Y-102023866D01*
X196840632Y-102012830D01*
X196860038Y-102003651D01*
X196880250Y-101996419D01*
X196901074Y-101991203D01*
X196922309Y-101988053D01*
X196943750Y-101987000D01*
X197456250Y-101987000D01*
X197477691Y-101988053D01*
X197477691Y-101988053D01*
G37*
D12*
X197200000Y-102424500D03*
D11*
G36*
X197477691Y-103563053D02*
G01*
X197498926Y-103566203D01*
X197519750Y-103571419D01*
X197539962Y-103578651D01*
X197559368Y-103587830D01*
X197577781Y-103598866D01*
X197595024Y-103611654D01*
X197610930Y-103626070D01*
X197625346Y-103641976D01*
X197638134Y-103659219D01*
X197649170Y-103677632D01*
X197658349Y-103697038D01*
X197665581Y-103717250D01*
X197670797Y-103738074D01*
X197673947Y-103759309D01*
X197675000Y-103780750D01*
X197675000Y-104218250D01*
X197673947Y-104239691D01*
X197670797Y-104260926D01*
X197665581Y-104281750D01*
X197658349Y-104301962D01*
X197649170Y-104321368D01*
X197638134Y-104339781D01*
X197625346Y-104357024D01*
X197610930Y-104372930D01*
X197595024Y-104387346D01*
X197577781Y-104400134D01*
X197559368Y-104411170D01*
X197539962Y-104420349D01*
X197519750Y-104427581D01*
X197498926Y-104432797D01*
X197477691Y-104435947D01*
X197456250Y-104437000D01*
X196943750Y-104437000D01*
X196922309Y-104435947D01*
X196901074Y-104432797D01*
X196880250Y-104427581D01*
X196860038Y-104420349D01*
X196840632Y-104411170D01*
X196822219Y-104400134D01*
X196804976Y-104387346D01*
X196789070Y-104372930D01*
X196774654Y-104357024D01*
X196761866Y-104339781D01*
X196750830Y-104321368D01*
X196741651Y-104301962D01*
X196734419Y-104281750D01*
X196729203Y-104260926D01*
X196726053Y-104239691D01*
X196725000Y-104218250D01*
X196725000Y-103780750D01*
X196726053Y-103759309D01*
X196729203Y-103738074D01*
X196734419Y-103717250D01*
X196741651Y-103697038D01*
X196750830Y-103677632D01*
X196761866Y-103659219D01*
X196774654Y-103641976D01*
X196789070Y-103626070D01*
X196804976Y-103611654D01*
X196822219Y-103598866D01*
X196840632Y-103587830D01*
X196860038Y-103578651D01*
X196880250Y-103571419D01*
X196901074Y-103566203D01*
X196922309Y-103563053D01*
X196943750Y-103562000D01*
X197456250Y-103562000D01*
X197477691Y-103563053D01*
X197477691Y-103563053D01*
G37*
D12*
X197200000Y-103999500D03*
D11*
G36*
X181877691Y-103563053D02*
G01*
X181898926Y-103566203D01*
X181919750Y-103571419D01*
X181939962Y-103578651D01*
X181959368Y-103587830D01*
X181977781Y-103598866D01*
X181995024Y-103611654D01*
X182010930Y-103626070D01*
X182025346Y-103641976D01*
X182038134Y-103659219D01*
X182049170Y-103677632D01*
X182058349Y-103697038D01*
X182065581Y-103717250D01*
X182070797Y-103738074D01*
X182073947Y-103759309D01*
X182075000Y-103780750D01*
X182075000Y-104218250D01*
X182073947Y-104239691D01*
X182070797Y-104260926D01*
X182065581Y-104281750D01*
X182058349Y-104301962D01*
X182049170Y-104321368D01*
X182038134Y-104339781D01*
X182025346Y-104357024D01*
X182010930Y-104372930D01*
X181995024Y-104387346D01*
X181977781Y-104400134D01*
X181959368Y-104411170D01*
X181939962Y-104420349D01*
X181919750Y-104427581D01*
X181898926Y-104432797D01*
X181877691Y-104435947D01*
X181856250Y-104437000D01*
X181343750Y-104437000D01*
X181322309Y-104435947D01*
X181301074Y-104432797D01*
X181280250Y-104427581D01*
X181260038Y-104420349D01*
X181240632Y-104411170D01*
X181222219Y-104400134D01*
X181204976Y-104387346D01*
X181189070Y-104372930D01*
X181174654Y-104357024D01*
X181161866Y-104339781D01*
X181150830Y-104321368D01*
X181141651Y-104301962D01*
X181134419Y-104281750D01*
X181129203Y-104260926D01*
X181126053Y-104239691D01*
X181125000Y-104218250D01*
X181125000Y-103780750D01*
X181126053Y-103759309D01*
X181129203Y-103738074D01*
X181134419Y-103717250D01*
X181141651Y-103697038D01*
X181150830Y-103677632D01*
X181161866Y-103659219D01*
X181174654Y-103641976D01*
X181189070Y-103626070D01*
X181204976Y-103611654D01*
X181222219Y-103598866D01*
X181240632Y-103587830D01*
X181260038Y-103578651D01*
X181280250Y-103571419D01*
X181301074Y-103566203D01*
X181322309Y-103563053D01*
X181343750Y-103562000D01*
X181856250Y-103562000D01*
X181877691Y-103563053D01*
X181877691Y-103563053D01*
G37*
D12*
X181600000Y-103999500D03*
D11*
G36*
X181877691Y-101988053D02*
G01*
X181898926Y-101991203D01*
X181919750Y-101996419D01*
X181939962Y-102003651D01*
X181959368Y-102012830D01*
X181977781Y-102023866D01*
X181995024Y-102036654D01*
X182010930Y-102051070D01*
X182025346Y-102066976D01*
X182038134Y-102084219D01*
X182049170Y-102102632D01*
X182058349Y-102122038D01*
X182065581Y-102142250D01*
X182070797Y-102163074D01*
X182073947Y-102184309D01*
X182075000Y-102205750D01*
X182075000Y-102643250D01*
X182073947Y-102664691D01*
X182070797Y-102685926D01*
X182065581Y-102706750D01*
X182058349Y-102726962D01*
X182049170Y-102746368D01*
X182038134Y-102764781D01*
X182025346Y-102782024D01*
X182010930Y-102797930D01*
X181995024Y-102812346D01*
X181977781Y-102825134D01*
X181959368Y-102836170D01*
X181939962Y-102845349D01*
X181919750Y-102852581D01*
X181898926Y-102857797D01*
X181877691Y-102860947D01*
X181856250Y-102862000D01*
X181343750Y-102862000D01*
X181322309Y-102860947D01*
X181301074Y-102857797D01*
X181280250Y-102852581D01*
X181260038Y-102845349D01*
X181240632Y-102836170D01*
X181222219Y-102825134D01*
X181204976Y-102812346D01*
X181189070Y-102797930D01*
X181174654Y-102782024D01*
X181161866Y-102764781D01*
X181150830Y-102746368D01*
X181141651Y-102726962D01*
X181134419Y-102706750D01*
X181129203Y-102685926D01*
X181126053Y-102664691D01*
X181125000Y-102643250D01*
X181125000Y-102205750D01*
X181126053Y-102184309D01*
X181129203Y-102163074D01*
X181134419Y-102142250D01*
X181141651Y-102122038D01*
X181150830Y-102102632D01*
X181161866Y-102084219D01*
X181174654Y-102066976D01*
X181189070Y-102051070D01*
X181204976Y-102036654D01*
X181222219Y-102023866D01*
X181240632Y-102012830D01*
X181260038Y-102003651D01*
X181280250Y-101996419D01*
X181301074Y-101991203D01*
X181322309Y-101988053D01*
X181343750Y-101987000D01*
X181856250Y-101987000D01*
X181877691Y-101988053D01*
X181877691Y-101988053D01*
G37*
D12*
X181600000Y-102424500D03*
D11*
G36*
X187227691Y-97626053D02*
G01*
X187248926Y-97629203D01*
X187269750Y-97634419D01*
X187289962Y-97641651D01*
X187309368Y-97650830D01*
X187327781Y-97661866D01*
X187345024Y-97674654D01*
X187360930Y-97689070D01*
X187375346Y-97704976D01*
X187388134Y-97722219D01*
X187399170Y-97740632D01*
X187408349Y-97760038D01*
X187415581Y-97780250D01*
X187420797Y-97801074D01*
X187423947Y-97822309D01*
X187425000Y-97843750D01*
X187425000Y-98356250D01*
X187423947Y-98377691D01*
X187420797Y-98398926D01*
X187415581Y-98419750D01*
X187408349Y-98439962D01*
X187399170Y-98459368D01*
X187388134Y-98477781D01*
X187375346Y-98495024D01*
X187360930Y-98510930D01*
X187345024Y-98525346D01*
X187327781Y-98538134D01*
X187309368Y-98549170D01*
X187289962Y-98558349D01*
X187269750Y-98565581D01*
X187248926Y-98570797D01*
X187227691Y-98573947D01*
X187206250Y-98575000D01*
X186768750Y-98575000D01*
X186747309Y-98573947D01*
X186726074Y-98570797D01*
X186705250Y-98565581D01*
X186685038Y-98558349D01*
X186665632Y-98549170D01*
X186647219Y-98538134D01*
X186629976Y-98525346D01*
X186614070Y-98510930D01*
X186599654Y-98495024D01*
X186586866Y-98477781D01*
X186575830Y-98459368D01*
X186566651Y-98439962D01*
X186559419Y-98419750D01*
X186554203Y-98398926D01*
X186551053Y-98377691D01*
X186550000Y-98356250D01*
X186550000Y-97843750D01*
X186551053Y-97822309D01*
X186554203Y-97801074D01*
X186559419Y-97780250D01*
X186566651Y-97760038D01*
X186575830Y-97740632D01*
X186586866Y-97722219D01*
X186599654Y-97704976D01*
X186614070Y-97689070D01*
X186629976Y-97674654D01*
X186647219Y-97661866D01*
X186665632Y-97650830D01*
X186685038Y-97641651D01*
X186705250Y-97634419D01*
X186726074Y-97629203D01*
X186747309Y-97626053D01*
X186768750Y-97625000D01*
X187206250Y-97625000D01*
X187227691Y-97626053D01*
X187227691Y-97626053D01*
G37*
D12*
X186987500Y-98100000D03*
D11*
G36*
X185652691Y-97626053D02*
G01*
X185673926Y-97629203D01*
X185694750Y-97634419D01*
X185714962Y-97641651D01*
X185734368Y-97650830D01*
X185752781Y-97661866D01*
X185770024Y-97674654D01*
X185785930Y-97689070D01*
X185800346Y-97704976D01*
X185813134Y-97722219D01*
X185824170Y-97740632D01*
X185833349Y-97760038D01*
X185840581Y-97780250D01*
X185845797Y-97801074D01*
X185848947Y-97822309D01*
X185850000Y-97843750D01*
X185850000Y-98356250D01*
X185848947Y-98377691D01*
X185845797Y-98398926D01*
X185840581Y-98419750D01*
X185833349Y-98439962D01*
X185824170Y-98459368D01*
X185813134Y-98477781D01*
X185800346Y-98495024D01*
X185785930Y-98510930D01*
X185770024Y-98525346D01*
X185752781Y-98538134D01*
X185734368Y-98549170D01*
X185714962Y-98558349D01*
X185694750Y-98565581D01*
X185673926Y-98570797D01*
X185652691Y-98573947D01*
X185631250Y-98575000D01*
X185193750Y-98575000D01*
X185172309Y-98573947D01*
X185151074Y-98570797D01*
X185130250Y-98565581D01*
X185110038Y-98558349D01*
X185090632Y-98549170D01*
X185072219Y-98538134D01*
X185054976Y-98525346D01*
X185039070Y-98510930D01*
X185024654Y-98495024D01*
X185011866Y-98477781D01*
X185000830Y-98459368D01*
X184991651Y-98439962D01*
X184984419Y-98419750D01*
X184979203Y-98398926D01*
X184976053Y-98377691D01*
X184975000Y-98356250D01*
X184975000Y-97843750D01*
X184976053Y-97822309D01*
X184979203Y-97801074D01*
X184984419Y-97780250D01*
X184991651Y-97760038D01*
X185000830Y-97740632D01*
X185011866Y-97722219D01*
X185024654Y-97704976D01*
X185039070Y-97689070D01*
X185054976Y-97674654D01*
X185072219Y-97661866D01*
X185090632Y-97650830D01*
X185110038Y-97641651D01*
X185130250Y-97634419D01*
X185151074Y-97629203D01*
X185172309Y-97626053D01*
X185193750Y-97625000D01*
X185631250Y-97625000D01*
X185652691Y-97626053D01*
X185652691Y-97626053D01*
G37*
D12*
X185412500Y-98100000D03*
D11*
G36*
X188582691Y-120536053D02*
G01*
X188603926Y-120539203D01*
X188624750Y-120544419D01*
X188644962Y-120551651D01*
X188664368Y-120560830D01*
X188682781Y-120571866D01*
X188700024Y-120584654D01*
X188715930Y-120599070D01*
X188730346Y-120614976D01*
X188743134Y-120632219D01*
X188754170Y-120650632D01*
X188763349Y-120670038D01*
X188770581Y-120690250D01*
X188775797Y-120711074D01*
X188778947Y-120732309D01*
X188780000Y-120753750D01*
X188780000Y-121266250D01*
X188778947Y-121287691D01*
X188775797Y-121308926D01*
X188770581Y-121329750D01*
X188763349Y-121349962D01*
X188754170Y-121369368D01*
X188743134Y-121387781D01*
X188730346Y-121405024D01*
X188715930Y-121420930D01*
X188700024Y-121435346D01*
X188682781Y-121448134D01*
X188664368Y-121459170D01*
X188644962Y-121468349D01*
X188624750Y-121475581D01*
X188603926Y-121480797D01*
X188582691Y-121483947D01*
X188561250Y-121485000D01*
X188123750Y-121485000D01*
X188102309Y-121483947D01*
X188081074Y-121480797D01*
X188060250Y-121475581D01*
X188040038Y-121468349D01*
X188020632Y-121459170D01*
X188002219Y-121448134D01*
X187984976Y-121435346D01*
X187969070Y-121420930D01*
X187954654Y-121405024D01*
X187941866Y-121387781D01*
X187930830Y-121369368D01*
X187921651Y-121349962D01*
X187914419Y-121329750D01*
X187909203Y-121308926D01*
X187906053Y-121287691D01*
X187905000Y-121266250D01*
X187905000Y-120753750D01*
X187906053Y-120732309D01*
X187909203Y-120711074D01*
X187914419Y-120690250D01*
X187921651Y-120670038D01*
X187930830Y-120650632D01*
X187941866Y-120632219D01*
X187954654Y-120614976D01*
X187969070Y-120599070D01*
X187984976Y-120584654D01*
X188002219Y-120571866D01*
X188020632Y-120560830D01*
X188040038Y-120551651D01*
X188060250Y-120544419D01*
X188081074Y-120539203D01*
X188102309Y-120536053D01*
X188123750Y-120535000D01*
X188561250Y-120535000D01*
X188582691Y-120536053D01*
X188582691Y-120536053D01*
G37*
D12*
X188342500Y-121010000D03*
D11*
G36*
X190157691Y-120536053D02*
G01*
X190178926Y-120539203D01*
X190199750Y-120544419D01*
X190219962Y-120551651D01*
X190239368Y-120560830D01*
X190257781Y-120571866D01*
X190275024Y-120584654D01*
X190290930Y-120599070D01*
X190305346Y-120614976D01*
X190318134Y-120632219D01*
X190329170Y-120650632D01*
X190338349Y-120670038D01*
X190345581Y-120690250D01*
X190350797Y-120711074D01*
X190353947Y-120732309D01*
X190355000Y-120753750D01*
X190355000Y-121266250D01*
X190353947Y-121287691D01*
X190350797Y-121308926D01*
X190345581Y-121329750D01*
X190338349Y-121349962D01*
X190329170Y-121369368D01*
X190318134Y-121387781D01*
X190305346Y-121405024D01*
X190290930Y-121420930D01*
X190275024Y-121435346D01*
X190257781Y-121448134D01*
X190239368Y-121459170D01*
X190219962Y-121468349D01*
X190199750Y-121475581D01*
X190178926Y-121480797D01*
X190157691Y-121483947D01*
X190136250Y-121485000D01*
X189698750Y-121485000D01*
X189677309Y-121483947D01*
X189656074Y-121480797D01*
X189635250Y-121475581D01*
X189615038Y-121468349D01*
X189595632Y-121459170D01*
X189577219Y-121448134D01*
X189559976Y-121435346D01*
X189544070Y-121420930D01*
X189529654Y-121405024D01*
X189516866Y-121387781D01*
X189505830Y-121369368D01*
X189496651Y-121349962D01*
X189489419Y-121329750D01*
X189484203Y-121308926D01*
X189481053Y-121287691D01*
X189480000Y-121266250D01*
X189480000Y-120753750D01*
X189481053Y-120732309D01*
X189484203Y-120711074D01*
X189489419Y-120690250D01*
X189496651Y-120670038D01*
X189505830Y-120650632D01*
X189516866Y-120632219D01*
X189529654Y-120614976D01*
X189544070Y-120599070D01*
X189559976Y-120584654D01*
X189577219Y-120571866D01*
X189595632Y-120560830D01*
X189615038Y-120551651D01*
X189635250Y-120544419D01*
X189656074Y-120539203D01*
X189677309Y-120536053D01*
X189698750Y-120535000D01*
X190136250Y-120535000D01*
X190157691Y-120536053D01*
X190157691Y-120536053D01*
G37*
D12*
X189917500Y-121010000D03*
D11*
G36*
X186857691Y-120536053D02*
G01*
X186878926Y-120539203D01*
X186899750Y-120544419D01*
X186919962Y-120551651D01*
X186939368Y-120560830D01*
X186957781Y-120571866D01*
X186975024Y-120584654D01*
X186990930Y-120599070D01*
X187005346Y-120614976D01*
X187018134Y-120632219D01*
X187029170Y-120650632D01*
X187038349Y-120670038D01*
X187045581Y-120690250D01*
X187050797Y-120711074D01*
X187053947Y-120732309D01*
X187055000Y-120753750D01*
X187055000Y-121266250D01*
X187053947Y-121287691D01*
X187050797Y-121308926D01*
X187045581Y-121329750D01*
X187038349Y-121349962D01*
X187029170Y-121369368D01*
X187018134Y-121387781D01*
X187005346Y-121405024D01*
X186990930Y-121420930D01*
X186975024Y-121435346D01*
X186957781Y-121448134D01*
X186939368Y-121459170D01*
X186919962Y-121468349D01*
X186899750Y-121475581D01*
X186878926Y-121480797D01*
X186857691Y-121483947D01*
X186836250Y-121485000D01*
X186398750Y-121485000D01*
X186377309Y-121483947D01*
X186356074Y-121480797D01*
X186335250Y-121475581D01*
X186315038Y-121468349D01*
X186295632Y-121459170D01*
X186277219Y-121448134D01*
X186259976Y-121435346D01*
X186244070Y-121420930D01*
X186229654Y-121405024D01*
X186216866Y-121387781D01*
X186205830Y-121369368D01*
X186196651Y-121349962D01*
X186189419Y-121329750D01*
X186184203Y-121308926D01*
X186181053Y-121287691D01*
X186180000Y-121266250D01*
X186180000Y-120753750D01*
X186181053Y-120732309D01*
X186184203Y-120711074D01*
X186189419Y-120690250D01*
X186196651Y-120670038D01*
X186205830Y-120650632D01*
X186216866Y-120632219D01*
X186229654Y-120614976D01*
X186244070Y-120599070D01*
X186259976Y-120584654D01*
X186277219Y-120571866D01*
X186295632Y-120560830D01*
X186315038Y-120551651D01*
X186335250Y-120544419D01*
X186356074Y-120539203D01*
X186377309Y-120536053D01*
X186398750Y-120535000D01*
X186836250Y-120535000D01*
X186857691Y-120536053D01*
X186857691Y-120536053D01*
G37*
D12*
X186617500Y-121010000D03*
D11*
G36*
X185282691Y-120536053D02*
G01*
X185303926Y-120539203D01*
X185324750Y-120544419D01*
X185344962Y-120551651D01*
X185364368Y-120560830D01*
X185382781Y-120571866D01*
X185400024Y-120584654D01*
X185415930Y-120599070D01*
X185430346Y-120614976D01*
X185443134Y-120632219D01*
X185454170Y-120650632D01*
X185463349Y-120670038D01*
X185470581Y-120690250D01*
X185475797Y-120711074D01*
X185478947Y-120732309D01*
X185480000Y-120753750D01*
X185480000Y-121266250D01*
X185478947Y-121287691D01*
X185475797Y-121308926D01*
X185470581Y-121329750D01*
X185463349Y-121349962D01*
X185454170Y-121369368D01*
X185443134Y-121387781D01*
X185430346Y-121405024D01*
X185415930Y-121420930D01*
X185400024Y-121435346D01*
X185382781Y-121448134D01*
X185364368Y-121459170D01*
X185344962Y-121468349D01*
X185324750Y-121475581D01*
X185303926Y-121480797D01*
X185282691Y-121483947D01*
X185261250Y-121485000D01*
X184823750Y-121485000D01*
X184802309Y-121483947D01*
X184781074Y-121480797D01*
X184760250Y-121475581D01*
X184740038Y-121468349D01*
X184720632Y-121459170D01*
X184702219Y-121448134D01*
X184684976Y-121435346D01*
X184669070Y-121420930D01*
X184654654Y-121405024D01*
X184641866Y-121387781D01*
X184630830Y-121369368D01*
X184621651Y-121349962D01*
X184614419Y-121329750D01*
X184609203Y-121308926D01*
X184606053Y-121287691D01*
X184605000Y-121266250D01*
X184605000Y-120753750D01*
X184606053Y-120732309D01*
X184609203Y-120711074D01*
X184614419Y-120690250D01*
X184621651Y-120670038D01*
X184630830Y-120650632D01*
X184641866Y-120632219D01*
X184654654Y-120614976D01*
X184669070Y-120599070D01*
X184684976Y-120584654D01*
X184702219Y-120571866D01*
X184720632Y-120560830D01*
X184740038Y-120551651D01*
X184760250Y-120544419D01*
X184781074Y-120539203D01*
X184802309Y-120536053D01*
X184823750Y-120535000D01*
X185261250Y-120535000D01*
X185282691Y-120536053D01*
X185282691Y-120536053D01*
G37*
D12*
X185042500Y-121010000D03*
D11*
G36*
X197707691Y-118836053D02*
G01*
X197728926Y-118839203D01*
X197749750Y-118844419D01*
X197769962Y-118851651D01*
X197789368Y-118860830D01*
X197807781Y-118871866D01*
X197825024Y-118884654D01*
X197840930Y-118899070D01*
X197855346Y-118914976D01*
X197868134Y-118932219D01*
X197879170Y-118950632D01*
X197888349Y-118970038D01*
X197895581Y-118990250D01*
X197900797Y-119011074D01*
X197903947Y-119032309D01*
X197905000Y-119053750D01*
X197905000Y-119566250D01*
X197903947Y-119587691D01*
X197900797Y-119608926D01*
X197895581Y-119629750D01*
X197888349Y-119649962D01*
X197879170Y-119669368D01*
X197868134Y-119687781D01*
X197855346Y-119705024D01*
X197840930Y-119720930D01*
X197825024Y-119735346D01*
X197807781Y-119748134D01*
X197789368Y-119759170D01*
X197769962Y-119768349D01*
X197749750Y-119775581D01*
X197728926Y-119780797D01*
X197707691Y-119783947D01*
X197686250Y-119785000D01*
X197248750Y-119785000D01*
X197227309Y-119783947D01*
X197206074Y-119780797D01*
X197185250Y-119775581D01*
X197165038Y-119768349D01*
X197145632Y-119759170D01*
X197127219Y-119748134D01*
X197109976Y-119735346D01*
X197094070Y-119720930D01*
X197079654Y-119705024D01*
X197066866Y-119687781D01*
X197055830Y-119669368D01*
X197046651Y-119649962D01*
X197039419Y-119629750D01*
X197034203Y-119608926D01*
X197031053Y-119587691D01*
X197030000Y-119566250D01*
X197030000Y-119053750D01*
X197031053Y-119032309D01*
X197034203Y-119011074D01*
X197039419Y-118990250D01*
X197046651Y-118970038D01*
X197055830Y-118950632D01*
X197066866Y-118932219D01*
X197079654Y-118914976D01*
X197094070Y-118899070D01*
X197109976Y-118884654D01*
X197127219Y-118871866D01*
X197145632Y-118860830D01*
X197165038Y-118851651D01*
X197185250Y-118844419D01*
X197206074Y-118839203D01*
X197227309Y-118836053D01*
X197248750Y-118835000D01*
X197686250Y-118835000D01*
X197707691Y-118836053D01*
X197707691Y-118836053D01*
G37*
D12*
X197467500Y-119310000D03*
D11*
G36*
X196132691Y-118836053D02*
G01*
X196153926Y-118839203D01*
X196174750Y-118844419D01*
X196194962Y-118851651D01*
X196214368Y-118860830D01*
X196232781Y-118871866D01*
X196250024Y-118884654D01*
X196265930Y-118899070D01*
X196280346Y-118914976D01*
X196293134Y-118932219D01*
X196304170Y-118950632D01*
X196313349Y-118970038D01*
X196320581Y-118990250D01*
X196325797Y-119011074D01*
X196328947Y-119032309D01*
X196330000Y-119053750D01*
X196330000Y-119566250D01*
X196328947Y-119587691D01*
X196325797Y-119608926D01*
X196320581Y-119629750D01*
X196313349Y-119649962D01*
X196304170Y-119669368D01*
X196293134Y-119687781D01*
X196280346Y-119705024D01*
X196265930Y-119720930D01*
X196250024Y-119735346D01*
X196232781Y-119748134D01*
X196214368Y-119759170D01*
X196194962Y-119768349D01*
X196174750Y-119775581D01*
X196153926Y-119780797D01*
X196132691Y-119783947D01*
X196111250Y-119785000D01*
X195673750Y-119785000D01*
X195652309Y-119783947D01*
X195631074Y-119780797D01*
X195610250Y-119775581D01*
X195590038Y-119768349D01*
X195570632Y-119759170D01*
X195552219Y-119748134D01*
X195534976Y-119735346D01*
X195519070Y-119720930D01*
X195504654Y-119705024D01*
X195491866Y-119687781D01*
X195480830Y-119669368D01*
X195471651Y-119649962D01*
X195464419Y-119629750D01*
X195459203Y-119608926D01*
X195456053Y-119587691D01*
X195455000Y-119566250D01*
X195455000Y-119053750D01*
X195456053Y-119032309D01*
X195459203Y-119011074D01*
X195464419Y-118990250D01*
X195471651Y-118970038D01*
X195480830Y-118950632D01*
X195491866Y-118932219D01*
X195504654Y-118914976D01*
X195519070Y-118899070D01*
X195534976Y-118884654D01*
X195552219Y-118871866D01*
X195570632Y-118860830D01*
X195590038Y-118851651D01*
X195610250Y-118844419D01*
X195631074Y-118839203D01*
X195652309Y-118836053D01*
X195673750Y-118835000D01*
X196111250Y-118835000D01*
X196132691Y-118836053D01*
X196132691Y-118836053D01*
G37*
D12*
X195892500Y-119310000D03*
D11*
G36*
X192832691Y-118836053D02*
G01*
X192853926Y-118839203D01*
X192874750Y-118844419D01*
X192894962Y-118851651D01*
X192914368Y-118860830D01*
X192932781Y-118871866D01*
X192950024Y-118884654D01*
X192965930Y-118899070D01*
X192980346Y-118914976D01*
X192993134Y-118932219D01*
X193004170Y-118950632D01*
X193013349Y-118970038D01*
X193020581Y-118990250D01*
X193025797Y-119011074D01*
X193028947Y-119032309D01*
X193030000Y-119053750D01*
X193030000Y-119566250D01*
X193028947Y-119587691D01*
X193025797Y-119608926D01*
X193020581Y-119629750D01*
X193013349Y-119649962D01*
X193004170Y-119669368D01*
X192993134Y-119687781D01*
X192980346Y-119705024D01*
X192965930Y-119720930D01*
X192950024Y-119735346D01*
X192932781Y-119748134D01*
X192914368Y-119759170D01*
X192894962Y-119768349D01*
X192874750Y-119775581D01*
X192853926Y-119780797D01*
X192832691Y-119783947D01*
X192811250Y-119785000D01*
X192373750Y-119785000D01*
X192352309Y-119783947D01*
X192331074Y-119780797D01*
X192310250Y-119775581D01*
X192290038Y-119768349D01*
X192270632Y-119759170D01*
X192252219Y-119748134D01*
X192234976Y-119735346D01*
X192219070Y-119720930D01*
X192204654Y-119705024D01*
X192191866Y-119687781D01*
X192180830Y-119669368D01*
X192171651Y-119649962D01*
X192164419Y-119629750D01*
X192159203Y-119608926D01*
X192156053Y-119587691D01*
X192155000Y-119566250D01*
X192155000Y-119053750D01*
X192156053Y-119032309D01*
X192159203Y-119011074D01*
X192164419Y-118990250D01*
X192171651Y-118970038D01*
X192180830Y-118950632D01*
X192191866Y-118932219D01*
X192204654Y-118914976D01*
X192219070Y-118899070D01*
X192234976Y-118884654D01*
X192252219Y-118871866D01*
X192270632Y-118860830D01*
X192290038Y-118851651D01*
X192310250Y-118844419D01*
X192331074Y-118839203D01*
X192352309Y-118836053D01*
X192373750Y-118835000D01*
X192811250Y-118835000D01*
X192832691Y-118836053D01*
X192832691Y-118836053D01*
G37*
D12*
X192592500Y-119310000D03*
D11*
G36*
X194407691Y-118836053D02*
G01*
X194428926Y-118839203D01*
X194449750Y-118844419D01*
X194469962Y-118851651D01*
X194489368Y-118860830D01*
X194507781Y-118871866D01*
X194525024Y-118884654D01*
X194540930Y-118899070D01*
X194555346Y-118914976D01*
X194568134Y-118932219D01*
X194579170Y-118950632D01*
X194588349Y-118970038D01*
X194595581Y-118990250D01*
X194600797Y-119011074D01*
X194603947Y-119032309D01*
X194605000Y-119053750D01*
X194605000Y-119566250D01*
X194603947Y-119587691D01*
X194600797Y-119608926D01*
X194595581Y-119629750D01*
X194588349Y-119649962D01*
X194579170Y-119669368D01*
X194568134Y-119687781D01*
X194555346Y-119705024D01*
X194540930Y-119720930D01*
X194525024Y-119735346D01*
X194507781Y-119748134D01*
X194489368Y-119759170D01*
X194469962Y-119768349D01*
X194449750Y-119775581D01*
X194428926Y-119780797D01*
X194407691Y-119783947D01*
X194386250Y-119785000D01*
X193948750Y-119785000D01*
X193927309Y-119783947D01*
X193906074Y-119780797D01*
X193885250Y-119775581D01*
X193865038Y-119768349D01*
X193845632Y-119759170D01*
X193827219Y-119748134D01*
X193809976Y-119735346D01*
X193794070Y-119720930D01*
X193779654Y-119705024D01*
X193766866Y-119687781D01*
X193755830Y-119669368D01*
X193746651Y-119649962D01*
X193739419Y-119629750D01*
X193734203Y-119608926D01*
X193731053Y-119587691D01*
X193730000Y-119566250D01*
X193730000Y-119053750D01*
X193731053Y-119032309D01*
X193734203Y-119011074D01*
X193739419Y-118990250D01*
X193746651Y-118970038D01*
X193755830Y-118950632D01*
X193766866Y-118932219D01*
X193779654Y-118914976D01*
X193794070Y-118899070D01*
X193809976Y-118884654D01*
X193827219Y-118871866D01*
X193845632Y-118860830D01*
X193865038Y-118851651D01*
X193885250Y-118844419D01*
X193906074Y-118839203D01*
X193927309Y-118836053D01*
X193948750Y-118835000D01*
X194386250Y-118835000D01*
X194407691Y-118836053D01*
X194407691Y-118836053D01*
G37*
D12*
X194167500Y-119310000D03*
D11*
G36*
X182877691Y-117176053D02*
G01*
X182898926Y-117179203D01*
X182919750Y-117184419D01*
X182939962Y-117191651D01*
X182959368Y-117200830D01*
X182977781Y-117211866D01*
X182995024Y-117224654D01*
X183010930Y-117239070D01*
X183025346Y-117254976D01*
X183038134Y-117272219D01*
X183049170Y-117290632D01*
X183058349Y-117310038D01*
X183065581Y-117330250D01*
X183070797Y-117351074D01*
X183073947Y-117372309D01*
X183075000Y-117393750D01*
X183075000Y-117906250D01*
X183073947Y-117927691D01*
X183070797Y-117948926D01*
X183065581Y-117969750D01*
X183058349Y-117989962D01*
X183049170Y-118009368D01*
X183038134Y-118027781D01*
X183025346Y-118045024D01*
X183010930Y-118060930D01*
X182995024Y-118075346D01*
X182977781Y-118088134D01*
X182959368Y-118099170D01*
X182939962Y-118108349D01*
X182919750Y-118115581D01*
X182898926Y-118120797D01*
X182877691Y-118123947D01*
X182856250Y-118125000D01*
X182418750Y-118125000D01*
X182397309Y-118123947D01*
X182376074Y-118120797D01*
X182355250Y-118115581D01*
X182335038Y-118108349D01*
X182315632Y-118099170D01*
X182297219Y-118088134D01*
X182279976Y-118075346D01*
X182264070Y-118060930D01*
X182249654Y-118045024D01*
X182236866Y-118027781D01*
X182225830Y-118009368D01*
X182216651Y-117989962D01*
X182209419Y-117969750D01*
X182204203Y-117948926D01*
X182201053Y-117927691D01*
X182200000Y-117906250D01*
X182200000Y-117393750D01*
X182201053Y-117372309D01*
X182204203Y-117351074D01*
X182209419Y-117330250D01*
X182216651Y-117310038D01*
X182225830Y-117290632D01*
X182236866Y-117272219D01*
X182249654Y-117254976D01*
X182264070Y-117239070D01*
X182279976Y-117224654D01*
X182297219Y-117211866D01*
X182315632Y-117200830D01*
X182335038Y-117191651D01*
X182355250Y-117184419D01*
X182376074Y-117179203D01*
X182397309Y-117176053D01*
X182418750Y-117175000D01*
X182856250Y-117175000D01*
X182877691Y-117176053D01*
X182877691Y-117176053D01*
G37*
D12*
X182637500Y-117650000D03*
D11*
G36*
X181302691Y-117176053D02*
G01*
X181323926Y-117179203D01*
X181344750Y-117184419D01*
X181364962Y-117191651D01*
X181384368Y-117200830D01*
X181402781Y-117211866D01*
X181420024Y-117224654D01*
X181435930Y-117239070D01*
X181450346Y-117254976D01*
X181463134Y-117272219D01*
X181474170Y-117290632D01*
X181483349Y-117310038D01*
X181490581Y-117330250D01*
X181495797Y-117351074D01*
X181498947Y-117372309D01*
X181500000Y-117393750D01*
X181500000Y-117906250D01*
X181498947Y-117927691D01*
X181495797Y-117948926D01*
X181490581Y-117969750D01*
X181483349Y-117989962D01*
X181474170Y-118009368D01*
X181463134Y-118027781D01*
X181450346Y-118045024D01*
X181435930Y-118060930D01*
X181420024Y-118075346D01*
X181402781Y-118088134D01*
X181384368Y-118099170D01*
X181364962Y-118108349D01*
X181344750Y-118115581D01*
X181323926Y-118120797D01*
X181302691Y-118123947D01*
X181281250Y-118125000D01*
X180843750Y-118125000D01*
X180822309Y-118123947D01*
X180801074Y-118120797D01*
X180780250Y-118115581D01*
X180760038Y-118108349D01*
X180740632Y-118099170D01*
X180722219Y-118088134D01*
X180704976Y-118075346D01*
X180689070Y-118060930D01*
X180674654Y-118045024D01*
X180661866Y-118027781D01*
X180650830Y-118009368D01*
X180641651Y-117989962D01*
X180634419Y-117969750D01*
X180629203Y-117948926D01*
X180626053Y-117927691D01*
X180625000Y-117906250D01*
X180625000Y-117393750D01*
X180626053Y-117372309D01*
X180629203Y-117351074D01*
X180634419Y-117330250D01*
X180641651Y-117310038D01*
X180650830Y-117290632D01*
X180661866Y-117272219D01*
X180674654Y-117254976D01*
X180689070Y-117239070D01*
X180704976Y-117224654D01*
X180722219Y-117211866D01*
X180740632Y-117200830D01*
X180760038Y-117191651D01*
X180780250Y-117184419D01*
X180801074Y-117179203D01*
X180822309Y-117176053D01*
X180843750Y-117175000D01*
X181281250Y-117175000D01*
X181302691Y-117176053D01*
X181302691Y-117176053D01*
G37*
D12*
X181062500Y-117650000D03*
D11*
G36*
X188582691Y-118836053D02*
G01*
X188603926Y-118839203D01*
X188624750Y-118844419D01*
X188644962Y-118851651D01*
X188664368Y-118860830D01*
X188682781Y-118871866D01*
X188700024Y-118884654D01*
X188715930Y-118899070D01*
X188730346Y-118914976D01*
X188743134Y-118932219D01*
X188754170Y-118950632D01*
X188763349Y-118970038D01*
X188770581Y-118990250D01*
X188775797Y-119011074D01*
X188778947Y-119032309D01*
X188780000Y-119053750D01*
X188780000Y-119566250D01*
X188778947Y-119587691D01*
X188775797Y-119608926D01*
X188770581Y-119629750D01*
X188763349Y-119649962D01*
X188754170Y-119669368D01*
X188743134Y-119687781D01*
X188730346Y-119705024D01*
X188715930Y-119720930D01*
X188700024Y-119735346D01*
X188682781Y-119748134D01*
X188664368Y-119759170D01*
X188644962Y-119768349D01*
X188624750Y-119775581D01*
X188603926Y-119780797D01*
X188582691Y-119783947D01*
X188561250Y-119785000D01*
X188123750Y-119785000D01*
X188102309Y-119783947D01*
X188081074Y-119780797D01*
X188060250Y-119775581D01*
X188040038Y-119768349D01*
X188020632Y-119759170D01*
X188002219Y-119748134D01*
X187984976Y-119735346D01*
X187969070Y-119720930D01*
X187954654Y-119705024D01*
X187941866Y-119687781D01*
X187930830Y-119669368D01*
X187921651Y-119649962D01*
X187914419Y-119629750D01*
X187909203Y-119608926D01*
X187906053Y-119587691D01*
X187905000Y-119566250D01*
X187905000Y-119053750D01*
X187906053Y-119032309D01*
X187909203Y-119011074D01*
X187914419Y-118990250D01*
X187921651Y-118970038D01*
X187930830Y-118950632D01*
X187941866Y-118932219D01*
X187954654Y-118914976D01*
X187969070Y-118899070D01*
X187984976Y-118884654D01*
X188002219Y-118871866D01*
X188020632Y-118860830D01*
X188040038Y-118851651D01*
X188060250Y-118844419D01*
X188081074Y-118839203D01*
X188102309Y-118836053D01*
X188123750Y-118835000D01*
X188561250Y-118835000D01*
X188582691Y-118836053D01*
X188582691Y-118836053D01*
G37*
D12*
X188342500Y-119310000D03*
D11*
G36*
X190157691Y-118836053D02*
G01*
X190178926Y-118839203D01*
X190199750Y-118844419D01*
X190219962Y-118851651D01*
X190239368Y-118860830D01*
X190257781Y-118871866D01*
X190275024Y-118884654D01*
X190290930Y-118899070D01*
X190305346Y-118914976D01*
X190318134Y-118932219D01*
X190329170Y-118950632D01*
X190338349Y-118970038D01*
X190345581Y-118990250D01*
X190350797Y-119011074D01*
X190353947Y-119032309D01*
X190355000Y-119053750D01*
X190355000Y-119566250D01*
X190353947Y-119587691D01*
X190350797Y-119608926D01*
X190345581Y-119629750D01*
X190338349Y-119649962D01*
X190329170Y-119669368D01*
X190318134Y-119687781D01*
X190305346Y-119705024D01*
X190290930Y-119720930D01*
X190275024Y-119735346D01*
X190257781Y-119748134D01*
X190239368Y-119759170D01*
X190219962Y-119768349D01*
X190199750Y-119775581D01*
X190178926Y-119780797D01*
X190157691Y-119783947D01*
X190136250Y-119785000D01*
X189698750Y-119785000D01*
X189677309Y-119783947D01*
X189656074Y-119780797D01*
X189635250Y-119775581D01*
X189615038Y-119768349D01*
X189595632Y-119759170D01*
X189577219Y-119748134D01*
X189559976Y-119735346D01*
X189544070Y-119720930D01*
X189529654Y-119705024D01*
X189516866Y-119687781D01*
X189505830Y-119669368D01*
X189496651Y-119649962D01*
X189489419Y-119629750D01*
X189484203Y-119608926D01*
X189481053Y-119587691D01*
X189480000Y-119566250D01*
X189480000Y-119053750D01*
X189481053Y-119032309D01*
X189484203Y-119011074D01*
X189489419Y-118990250D01*
X189496651Y-118970038D01*
X189505830Y-118950632D01*
X189516866Y-118932219D01*
X189529654Y-118914976D01*
X189544070Y-118899070D01*
X189559976Y-118884654D01*
X189577219Y-118871866D01*
X189595632Y-118860830D01*
X189615038Y-118851651D01*
X189635250Y-118844419D01*
X189656074Y-118839203D01*
X189677309Y-118836053D01*
X189698750Y-118835000D01*
X190136250Y-118835000D01*
X190157691Y-118836053D01*
X190157691Y-118836053D01*
G37*
D12*
X189917500Y-119310000D03*
D11*
G36*
X186857691Y-118836053D02*
G01*
X186878926Y-118839203D01*
X186899750Y-118844419D01*
X186919962Y-118851651D01*
X186939368Y-118860830D01*
X186957781Y-118871866D01*
X186975024Y-118884654D01*
X186990930Y-118899070D01*
X187005346Y-118914976D01*
X187018134Y-118932219D01*
X187029170Y-118950632D01*
X187038349Y-118970038D01*
X187045581Y-118990250D01*
X187050797Y-119011074D01*
X187053947Y-119032309D01*
X187055000Y-119053750D01*
X187055000Y-119566250D01*
X187053947Y-119587691D01*
X187050797Y-119608926D01*
X187045581Y-119629750D01*
X187038349Y-119649962D01*
X187029170Y-119669368D01*
X187018134Y-119687781D01*
X187005346Y-119705024D01*
X186990930Y-119720930D01*
X186975024Y-119735346D01*
X186957781Y-119748134D01*
X186939368Y-119759170D01*
X186919962Y-119768349D01*
X186899750Y-119775581D01*
X186878926Y-119780797D01*
X186857691Y-119783947D01*
X186836250Y-119785000D01*
X186398750Y-119785000D01*
X186377309Y-119783947D01*
X186356074Y-119780797D01*
X186335250Y-119775581D01*
X186315038Y-119768349D01*
X186295632Y-119759170D01*
X186277219Y-119748134D01*
X186259976Y-119735346D01*
X186244070Y-119720930D01*
X186229654Y-119705024D01*
X186216866Y-119687781D01*
X186205830Y-119669368D01*
X186196651Y-119649962D01*
X186189419Y-119629750D01*
X186184203Y-119608926D01*
X186181053Y-119587691D01*
X186180000Y-119566250D01*
X186180000Y-119053750D01*
X186181053Y-119032309D01*
X186184203Y-119011074D01*
X186189419Y-118990250D01*
X186196651Y-118970038D01*
X186205830Y-118950632D01*
X186216866Y-118932219D01*
X186229654Y-118914976D01*
X186244070Y-118899070D01*
X186259976Y-118884654D01*
X186277219Y-118871866D01*
X186295632Y-118860830D01*
X186315038Y-118851651D01*
X186335250Y-118844419D01*
X186356074Y-118839203D01*
X186377309Y-118836053D01*
X186398750Y-118835000D01*
X186836250Y-118835000D01*
X186857691Y-118836053D01*
X186857691Y-118836053D01*
G37*
D12*
X186617500Y-119310000D03*
D11*
G36*
X185282691Y-118836053D02*
G01*
X185303926Y-118839203D01*
X185324750Y-118844419D01*
X185344962Y-118851651D01*
X185364368Y-118860830D01*
X185382781Y-118871866D01*
X185400024Y-118884654D01*
X185415930Y-118899070D01*
X185430346Y-118914976D01*
X185443134Y-118932219D01*
X185454170Y-118950632D01*
X185463349Y-118970038D01*
X185470581Y-118990250D01*
X185475797Y-119011074D01*
X185478947Y-119032309D01*
X185480000Y-119053750D01*
X185480000Y-119566250D01*
X185478947Y-119587691D01*
X185475797Y-119608926D01*
X185470581Y-119629750D01*
X185463349Y-119649962D01*
X185454170Y-119669368D01*
X185443134Y-119687781D01*
X185430346Y-119705024D01*
X185415930Y-119720930D01*
X185400024Y-119735346D01*
X185382781Y-119748134D01*
X185364368Y-119759170D01*
X185344962Y-119768349D01*
X185324750Y-119775581D01*
X185303926Y-119780797D01*
X185282691Y-119783947D01*
X185261250Y-119785000D01*
X184823750Y-119785000D01*
X184802309Y-119783947D01*
X184781074Y-119780797D01*
X184760250Y-119775581D01*
X184740038Y-119768349D01*
X184720632Y-119759170D01*
X184702219Y-119748134D01*
X184684976Y-119735346D01*
X184669070Y-119720930D01*
X184654654Y-119705024D01*
X184641866Y-119687781D01*
X184630830Y-119669368D01*
X184621651Y-119649962D01*
X184614419Y-119629750D01*
X184609203Y-119608926D01*
X184606053Y-119587691D01*
X184605000Y-119566250D01*
X184605000Y-119053750D01*
X184606053Y-119032309D01*
X184609203Y-119011074D01*
X184614419Y-118990250D01*
X184621651Y-118970038D01*
X184630830Y-118950632D01*
X184641866Y-118932219D01*
X184654654Y-118914976D01*
X184669070Y-118899070D01*
X184684976Y-118884654D01*
X184702219Y-118871866D01*
X184720632Y-118860830D01*
X184740038Y-118851651D01*
X184760250Y-118844419D01*
X184781074Y-118839203D01*
X184802309Y-118836053D01*
X184823750Y-118835000D01*
X185261250Y-118835000D01*
X185282691Y-118836053D01*
X185282691Y-118836053D01*
G37*
D12*
X185042500Y-119310000D03*
D11*
G36*
X181302691Y-118926053D02*
G01*
X181323926Y-118929203D01*
X181344750Y-118934419D01*
X181364962Y-118941651D01*
X181384368Y-118950830D01*
X181402781Y-118961866D01*
X181420024Y-118974654D01*
X181435930Y-118989070D01*
X181450346Y-119004976D01*
X181463134Y-119022219D01*
X181474170Y-119040632D01*
X181483349Y-119060038D01*
X181490581Y-119080250D01*
X181495797Y-119101074D01*
X181498947Y-119122309D01*
X181500000Y-119143750D01*
X181500000Y-119656250D01*
X181498947Y-119677691D01*
X181495797Y-119698926D01*
X181490581Y-119719750D01*
X181483349Y-119739962D01*
X181474170Y-119759368D01*
X181463134Y-119777781D01*
X181450346Y-119795024D01*
X181435930Y-119810930D01*
X181420024Y-119825346D01*
X181402781Y-119838134D01*
X181384368Y-119849170D01*
X181364962Y-119858349D01*
X181344750Y-119865581D01*
X181323926Y-119870797D01*
X181302691Y-119873947D01*
X181281250Y-119875000D01*
X180843750Y-119875000D01*
X180822309Y-119873947D01*
X180801074Y-119870797D01*
X180780250Y-119865581D01*
X180760038Y-119858349D01*
X180740632Y-119849170D01*
X180722219Y-119838134D01*
X180704976Y-119825346D01*
X180689070Y-119810930D01*
X180674654Y-119795024D01*
X180661866Y-119777781D01*
X180650830Y-119759368D01*
X180641651Y-119739962D01*
X180634419Y-119719750D01*
X180629203Y-119698926D01*
X180626053Y-119677691D01*
X180625000Y-119656250D01*
X180625000Y-119143750D01*
X180626053Y-119122309D01*
X180629203Y-119101074D01*
X180634419Y-119080250D01*
X180641651Y-119060038D01*
X180650830Y-119040632D01*
X180661866Y-119022219D01*
X180674654Y-119004976D01*
X180689070Y-118989070D01*
X180704976Y-118974654D01*
X180722219Y-118961866D01*
X180740632Y-118950830D01*
X180760038Y-118941651D01*
X180780250Y-118934419D01*
X180801074Y-118929203D01*
X180822309Y-118926053D01*
X180843750Y-118925000D01*
X181281250Y-118925000D01*
X181302691Y-118926053D01*
X181302691Y-118926053D01*
G37*
D12*
X181062500Y-119400000D03*
D11*
G36*
X182877691Y-118926053D02*
G01*
X182898926Y-118929203D01*
X182919750Y-118934419D01*
X182939962Y-118941651D01*
X182959368Y-118950830D01*
X182977781Y-118961866D01*
X182995024Y-118974654D01*
X183010930Y-118989070D01*
X183025346Y-119004976D01*
X183038134Y-119022219D01*
X183049170Y-119040632D01*
X183058349Y-119060038D01*
X183065581Y-119080250D01*
X183070797Y-119101074D01*
X183073947Y-119122309D01*
X183075000Y-119143750D01*
X183075000Y-119656250D01*
X183073947Y-119677691D01*
X183070797Y-119698926D01*
X183065581Y-119719750D01*
X183058349Y-119739962D01*
X183049170Y-119759368D01*
X183038134Y-119777781D01*
X183025346Y-119795024D01*
X183010930Y-119810930D01*
X182995024Y-119825346D01*
X182977781Y-119838134D01*
X182959368Y-119849170D01*
X182939962Y-119858349D01*
X182919750Y-119865581D01*
X182898926Y-119870797D01*
X182877691Y-119873947D01*
X182856250Y-119875000D01*
X182418750Y-119875000D01*
X182397309Y-119873947D01*
X182376074Y-119870797D01*
X182355250Y-119865581D01*
X182335038Y-119858349D01*
X182315632Y-119849170D01*
X182297219Y-119838134D01*
X182279976Y-119825346D01*
X182264070Y-119810930D01*
X182249654Y-119795024D01*
X182236866Y-119777781D01*
X182225830Y-119759368D01*
X182216651Y-119739962D01*
X182209419Y-119719750D01*
X182204203Y-119698926D01*
X182201053Y-119677691D01*
X182200000Y-119656250D01*
X182200000Y-119143750D01*
X182201053Y-119122309D01*
X182204203Y-119101074D01*
X182209419Y-119080250D01*
X182216651Y-119060038D01*
X182225830Y-119040632D01*
X182236866Y-119022219D01*
X182249654Y-119004976D01*
X182264070Y-118989070D01*
X182279976Y-118974654D01*
X182297219Y-118961866D01*
X182315632Y-118950830D01*
X182335038Y-118941651D01*
X182355250Y-118934419D01*
X182376074Y-118929203D01*
X182397309Y-118926053D01*
X182418750Y-118925000D01*
X182856250Y-118925000D01*
X182877691Y-118926053D01*
X182877691Y-118926053D01*
G37*
D12*
X182637500Y-119400000D03*
D11*
G36*
X197707691Y-120536053D02*
G01*
X197728926Y-120539203D01*
X197749750Y-120544419D01*
X197769962Y-120551651D01*
X197789368Y-120560830D01*
X197807781Y-120571866D01*
X197825024Y-120584654D01*
X197840930Y-120599070D01*
X197855346Y-120614976D01*
X197868134Y-120632219D01*
X197879170Y-120650632D01*
X197888349Y-120670038D01*
X197895581Y-120690250D01*
X197900797Y-120711074D01*
X197903947Y-120732309D01*
X197905000Y-120753750D01*
X197905000Y-121266250D01*
X197903947Y-121287691D01*
X197900797Y-121308926D01*
X197895581Y-121329750D01*
X197888349Y-121349962D01*
X197879170Y-121369368D01*
X197868134Y-121387781D01*
X197855346Y-121405024D01*
X197840930Y-121420930D01*
X197825024Y-121435346D01*
X197807781Y-121448134D01*
X197789368Y-121459170D01*
X197769962Y-121468349D01*
X197749750Y-121475581D01*
X197728926Y-121480797D01*
X197707691Y-121483947D01*
X197686250Y-121485000D01*
X197248750Y-121485000D01*
X197227309Y-121483947D01*
X197206074Y-121480797D01*
X197185250Y-121475581D01*
X197165038Y-121468349D01*
X197145632Y-121459170D01*
X197127219Y-121448134D01*
X197109976Y-121435346D01*
X197094070Y-121420930D01*
X197079654Y-121405024D01*
X197066866Y-121387781D01*
X197055830Y-121369368D01*
X197046651Y-121349962D01*
X197039419Y-121329750D01*
X197034203Y-121308926D01*
X197031053Y-121287691D01*
X197030000Y-121266250D01*
X197030000Y-120753750D01*
X197031053Y-120732309D01*
X197034203Y-120711074D01*
X197039419Y-120690250D01*
X197046651Y-120670038D01*
X197055830Y-120650632D01*
X197066866Y-120632219D01*
X197079654Y-120614976D01*
X197094070Y-120599070D01*
X197109976Y-120584654D01*
X197127219Y-120571866D01*
X197145632Y-120560830D01*
X197165038Y-120551651D01*
X197185250Y-120544419D01*
X197206074Y-120539203D01*
X197227309Y-120536053D01*
X197248750Y-120535000D01*
X197686250Y-120535000D01*
X197707691Y-120536053D01*
X197707691Y-120536053D01*
G37*
D12*
X197467500Y-121010000D03*
D11*
G36*
X196132691Y-120536053D02*
G01*
X196153926Y-120539203D01*
X196174750Y-120544419D01*
X196194962Y-120551651D01*
X196214368Y-120560830D01*
X196232781Y-120571866D01*
X196250024Y-120584654D01*
X196265930Y-120599070D01*
X196280346Y-120614976D01*
X196293134Y-120632219D01*
X196304170Y-120650632D01*
X196313349Y-120670038D01*
X196320581Y-120690250D01*
X196325797Y-120711074D01*
X196328947Y-120732309D01*
X196330000Y-120753750D01*
X196330000Y-121266250D01*
X196328947Y-121287691D01*
X196325797Y-121308926D01*
X196320581Y-121329750D01*
X196313349Y-121349962D01*
X196304170Y-121369368D01*
X196293134Y-121387781D01*
X196280346Y-121405024D01*
X196265930Y-121420930D01*
X196250024Y-121435346D01*
X196232781Y-121448134D01*
X196214368Y-121459170D01*
X196194962Y-121468349D01*
X196174750Y-121475581D01*
X196153926Y-121480797D01*
X196132691Y-121483947D01*
X196111250Y-121485000D01*
X195673750Y-121485000D01*
X195652309Y-121483947D01*
X195631074Y-121480797D01*
X195610250Y-121475581D01*
X195590038Y-121468349D01*
X195570632Y-121459170D01*
X195552219Y-121448134D01*
X195534976Y-121435346D01*
X195519070Y-121420930D01*
X195504654Y-121405024D01*
X195491866Y-121387781D01*
X195480830Y-121369368D01*
X195471651Y-121349962D01*
X195464419Y-121329750D01*
X195459203Y-121308926D01*
X195456053Y-121287691D01*
X195455000Y-121266250D01*
X195455000Y-120753750D01*
X195456053Y-120732309D01*
X195459203Y-120711074D01*
X195464419Y-120690250D01*
X195471651Y-120670038D01*
X195480830Y-120650632D01*
X195491866Y-120632219D01*
X195504654Y-120614976D01*
X195519070Y-120599070D01*
X195534976Y-120584654D01*
X195552219Y-120571866D01*
X195570632Y-120560830D01*
X195590038Y-120551651D01*
X195610250Y-120544419D01*
X195631074Y-120539203D01*
X195652309Y-120536053D01*
X195673750Y-120535000D01*
X196111250Y-120535000D01*
X196132691Y-120536053D01*
X196132691Y-120536053D01*
G37*
D12*
X195892500Y-121010000D03*
D11*
G36*
X192832691Y-120536053D02*
G01*
X192853926Y-120539203D01*
X192874750Y-120544419D01*
X192894962Y-120551651D01*
X192914368Y-120560830D01*
X192932781Y-120571866D01*
X192950024Y-120584654D01*
X192965930Y-120599070D01*
X192980346Y-120614976D01*
X192993134Y-120632219D01*
X193004170Y-120650632D01*
X193013349Y-120670038D01*
X193020581Y-120690250D01*
X193025797Y-120711074D01*
X193028947Y-120732309D01*
X193030000Y-120753750D01*
X193030000Y-121266250D01*
X193028947Y-121287691D01*
X193025797Y-121308926D01*
X193020581Y-121329750D01*
X193013349Y-121349962D01*
X193004170Y-121369368D01*
X192993134Y-121387781D01*
X192980346Y-121405024D01*
X192965930Y-121420930D01*
X192950024Y-121435346D01*
X192932781Y-121448134D01*
X192914368Y-121459170D01*
X192894962Y-121468349D01*
X192874750Y-121475581D01*
X192853926Y-121480797D01*
X192832691Y-121483947D01*
X192811250Y-121485000D01*
X192373750Y-121485000D01*
X192352309Y-121483947D01*
X192331074Y-121480797D01*
X192310250Y-121475581D01*
X192290038Y-121468349D01*
X192270632Y-121459170D01*
X192252219Y-121448134D01*
X192234976Y-121435346D01*
X192219070Y-121420930D01*
X192204654Y-121405024D01*
X192191866Y-121387781D01*
X192180830Y-121369368D01*
X192171651Y-121349962D01*
X192164419Y-121329750D01*
X192159203Y-121308926D01*
X192156053Y-121287691D01*
X192155000Y-121266250D01*
X192155000Y-120753750D01*
X192156053Y-120732309D01*
X192159203Y-120711074D01*
X192164419Y-120690250D01*
X192171651Y-120670038D01*
X192180830Y-120650632D01*
X192191866Y-120632219D01*
X192204654Y-120614976D01*
X192219070Y-120599070D01*
X192234976Y-120584654D01*
X192252219Y-120571866D01*
X192270632Y-120560830D01*
X192290038Y-120551651D01*
X192310250Y-120544419D01*
X192331074Y-120539203D01*
X192352309Y-120536053D01*
X192373750Y-120535000D01*
X192811250Y-120535000D01*
X192832691Y-120536053D01*
X192832691Y-120536053D01*
G37*
D12*
X192592500Y-121010000D03*
D11*
G36*
X194407691Y-120536053D02*
G01*
X194428926Y-120539203D01*
X194449750Y-120544419D01*
X194469962Y-120551651D01*
X194489368Y-120560830D01*
X194507781Y-120571866D01*
X194525024Y-120584654D01*
X194540930Y-120599070D01*
X194555346Y-120614976D01*
X194568134Y-120632219D01*
X194579170Y-120650632D01*
X194588349Y-120670038D01*
X194595581Y-120690250D01*
X194600797Y-120711074D01*
X194603947Y-120732309D01*
X194605000Y-120753750D01*
X194605000Y-121266250D01*
X194603947Y-121287691D01*
X194600797Y-121308926D01*
X194595581Y-121329750D01*
X194588349Y-121349962D01*
X194579170Y-121369368D01*
X194568134Y-121387781D01*
X194555346Y-121405024D01*
X194540930Y-121420930D01*
X194525024Y-121435346D01*
X194507781Y-121448134D01*
X194489368Y-121459170D01*
X194469962Y-121468349D01*
X194449750Y-121475581D01*
X194428926Y-121480797D01*
X194407691Y-121483947D01*
X194386250Y-121485000D01*
X193948750Y-121485000D01*
X193927309Y-121483947D01*
X193906074Y-121480797D01*
X193885250Y-121475581D01*
X193865038Y-121468349D01*
X193845632Y-121459170D01*
X193827219Y-121448134D01*
X193809976Y-121435346D01*
X193794070Y-121420930D01*
X193779654Y-121405024D01*
X193766866Y-121387781D01*
X193755830Y-121369368D01*
X193746651Y-121349962D01*
X193739419Y-121329750D01*
X193734203Y-121308926D01*
X193731053Y-121287691D01*
X193730000Y-121266250D01*
X193730000Y-120753750D01*
X193731053Y-120732309D01*
X193734203Y-120711074D01*
X193739419Y-120690250D01*
X193746651Y-120670038D01*
X193755830Y-120650632D01*
X193766866Y-120632219D01*
X193779654Y-120614976D01*
X193794070Y-120599070D01*
X193809976Y-120584654D01*
X193827219Y-120571866D01*
X193845632Y-120560830D01*
X193865038Y-120551651D01*
X193885250Y-120544419D01*
X193906074Y-120539203D01*
X193927309Y-120536053D01*
X193948750Y-120535000D01*
X194386250Y-120535000D01*
X194407691Y-120536053D01*
X194407691Y-120536053D01*
G37*
D12*
X194167500Y-121010000D03*
D11*
G36*
X192952691Y-124726053D02*
G01*
X192973926Y-124729203D01*
X192994750Y-124734419D01*
X193014962Y-124741651D01*
X193034368Y-124750830D01*
X193052781Y-124761866D01*
X193070024Y-124774654D01*
X193085930Y-124789070D01*
X193100346Y-124804976D01*
X193113134Y-124822219D01*
X193124170Y-124840632D01*
X193133349Y-124860038D01*
X193140581Y-124880250D01*
X193145797Y-124901074D01*
X193148947Y-124922309D01*
X193150000Y-124943750D01*
X193150000Y-125456250D01*
X193148947Y-125477691D01*
X193145797Y-125498926D01*
X193140581Y-125519750D01*
X193133349Y-125539962D01*
X193124170Y-125559368D01*
X193113134Y-125577781D01*
X193100346Y-125595024D01*
X193085930Y-125610930D01*
X193070024Y-125625346D01*
X193052781Y-125638134D01*
X193034368Y-125649170D01*
X193014962Y-125658349D01*
X192994750Y-125665581D01*
X192973926Y-125670797D01*
X192952691Y-125673947D01*
X192931250Y-125675000D01*
X192493750Y-125675000D01*
X192472309Y-125673947D01*
X192451074Y-125670797D01*
X192430250Y-125665581D01*
X192410038Y-125658349D01*
X192390632Y-125649170D01*
X192372219Y-125638134D01*
X192354976Y-125625346D01*
X192339070Y-125610930D01*
X192324654Y-125595024D01*
X192311866Y-125577781D01*
X192300830Y-125559368D01*
X192291651Y-125539962D01*
X192284419Y-125519750D01*
X192279203Y-125498926D01*
X192276053Y-125477691D01*
X192275000Y-125456250D01*
X192275000Y-124943750D01*
X192276053Y-124922309D01*
X192279203Y-124901074D01*
X192284419Y-124880250D01*
X192291651Y-124860038D01*
X192300830Y-124840632D01*
X192311866Y-124822219D01*
X192324654Y-124804976D01*
X192339070Y-124789070D01*
X192354976Y-124774654D01*
X192372219Y-124761866D01*
X192390632Y-124750830D01*
X192410038Y-124741651D01*
X192430250Y-124734419D01*
X192451074Y-124729203D01*
X192472309Y-124726053D01*
X192493750Y-124725000D01*
X192931250Y-124725000D01*
X192952691Y-124726053D01*
X192952691Y-124726053D01*
G37*
D12*
X192712500Y-125200000D03*
D11*
G36*
X194527691Y-124726053D02*
G01*
X194548926Y-124729203D01*
X194569750Y-124734419D01*
X194589962Y-124741651D01*
X194609368Y-124750830D01*
X194627781Y-124761866D01*
X194645024Y-124774654D01*
X194660930Y-124789070D01*
X194675346Y-124804976D01*
X194688134Y-124822219D01*
X194699170Y-124840632D01*
X194708349Y-124860038D01*
X194715581Y-124880250D01*
X194720797Y-124901074D01*
X194723947Y-124922309D01*
X194725000Y-124943750D01*
X194725000Y-125456250D01*
X194723947Y-125477691D01*
X194720797Y-125498926D01*
X194715581Y-125519750D01*
X194708349Y-125539962D01*
X194699170Y-125559368D01*
X194688134Y-125577781D01*
X194675346Y-125595024D01*
X194660930Y-125610930D01*
X194645024Y-125625346D01*
X194627781Y-125638134D01*
X194609368Y-125649170D01*
X194589962Y-125658349D01*
X194569750Y-125665581D01*
X194548926Y-125670797D01*
X194527691Y-125673947D01*
X194506250Y-125675000D01*
X194068750Y-125675000D01*
X194047309Y-125673947D01*
X194026074Y-125670797D01*
X194005250Y-125665581D01*
X193985038Y-125658349D01*
X193965632Y-125649170D01*
X193947219Y-125638134D01*
X193929976Y-125625346D01*
X193914070Y-125610930D01*
X193899654Y-125595024D01*
X193886866Y-125577781D01*
X193875830Y-125559368D01*
X193866651Y-125539962D01*
X193859419Y-125519750D01*
X193854203Y-125498926D01*
X193851053Y-125477691D01*
X193850000Y-125456250D01*
X193850000Y-124943750D01*
X193851053Y-124922309D01*
X193854203Y-124901074D01*
X193859419Y-124880250D01*
X193866651Y-124860038D01*
X193875830Y-124840632D01*
X193886866Y-124822219D01*
X193899654Y-124804976D01*
X193914070Y-124789070D01*
X193929976Y-124774654D01*
X193947219Y-124761866D01*
X193965632Y-124750830D01*
X193985038Y-124741651D01*
X194005250Y-124734419D01*
X194026074Y-124729203D01*
X194047309Y-124726053D01*
X194068750Y-124725000D01*
X194506250Y-124725000D01*
X194527691Y-124726053D01*
X194527691Y-124726053D01*
G37*
D12*
X194287500Y-125200000D03*
D11*
G36*
X195090691Y-105276053D02*
G01*
X195111926Y-105279203D01*
X195132750Y-105284419D01*
X195152962Y-105291651D01*
X195172368Y-105300830D01*
X195190781Y-105311866D01*
X195208024Y-105324654D01*
X195223930Y-105339070D01*
X195238346Y-105354976D01*
X195251134Y-105372219D01*
X195262170Y-105390632D01*
X195271349Y-105410038D01*
X195278581Y-105430250D01*
X195283797Y-105451074D01*
X195286947Y-105472309D01*
X195288000Y-105493750D01*
X195288000Y-106006250D01*
X195286947Y-106027691D01*
X195283797Y-106048926D01*
X195278581Y-106069750D01*
X195271349Y-106089962D01*
X195262170Y-106109368D01*
X195251134Y-106127781D01*
X195238346Y-106145024D01*
X195223930Y-106160930D01*
X195208024Y-106175346D01*
X195190781Y-106188134D01*
X195172368Y-106199170D01*
X195152962Y-106208349D01*
X195132750Y-106215581D01*
X195111926Y-106220797D01*
X195090691Y-106223947D01*
X195069250Y-106225000D01*
X194631750Y-106225000D01*
X194610309Y-106223947D01*
X194589074Y-106220797D01*
X194568250Y-106215581D01*
X194548038Y-106208349D01*
X194528632Y-106199170D01*
X194510219Y-106188134D01*
X194492976Y-106175346D01*
X194477070Y-106160930D01*
X194462654Y-106145024D01*
X194449866Y-106127781D01*
X194438830Y-106109368D01*
X194429651Y-106089962D01*
X194422419Y-106069750D01*
X194417203Y-106048926D01*
X194414053Y-106027691D01*
X194413000Y-106006250D01*
X194413000Y-105493750D01*
X194414053Y-105472309D01*
X194417203Y-105451074D01*
X194422419Y-105430250D01*
X194429651Y-105410038D01*
X194438830Y-105390632D01*
X194449866Y-105372219D01*
X194462654Y-105354976D01*
X194477070Y-105339070D01*
X194492976Y-105324654D01*
X194510219Y-105311866D01*
X194528632Y-105300830D01*
X194548038Y-105291651D01*
X194568250Y-105284419D01*
X194589074Y-105279203D01*
X194610309Y-105276053D01*
X194631750Y-105275000D01*
X195069250Y-105275000D01*
X195090691Y-105276053D01*
X195090691Y-105276053D01*
G37*
D12*
X194850500Y-105750000D03*
D11*
G36*
X196665691Y-105276053D02*
G01*
X196686926Y-105279203D01*
X196707750Y-105284419D01*
X196727962Y-105291651D01*
X196747368Y-105300830D01*
X196765781Y-105311866D01*
X196783024Y-105324654D01*
X196798930Y-105339070D01*
X196813346Y-105354976D01*
X196826134Y-105372219D01*
X196837170Y-105390632D01*
X196846349Y-105410038D01*
X196853581Y-105430250D01*
X196858797Y-105451074D01*
X196861947Y-105472309D01*
X196863000Y-105493750D01*
X196863000Y-106006250D01*
X196861947Y-106027691D01*
X196858797Y-106048926D01*
X196853581Y-106069750D01*
X196846349Y-106089962D01*
X196837170Y-106109368D01*
X196826134Y-106127781D01*
X196813346Y-106145024D01*
X196798930Y-106160930D01*
X196783024Y-106175346D01*
X196765781Y-106188134D01*
X196747368Y-106199170D01*
X196727962Y-106208349D01*
X196707750Y-106215581D01*
X196686926Y-106220797D01*
X196665691Y-106223947D01*
X196644250Y-106225000D01*
X196206750Y-106225000D01*
X196185309Y-106223947D01*
X196164074Y-106220797D01*
X196143250Y-106215581D01*
X196123038Y-106208349D01*
X196103632Y-106199170D01*
X196085219Y-106188134D01*
X196067976Y-106175346D01*
X196052070Y-106160930D01*
X196037654Y-106145024D01*
X196024866Y-106127781D01*
X196013830Y-106109368D01*
X196004651Y-106089962D01*
X195997419Y-106069750D01*
X195992203Y-106048926D01*
X195989053Y-106027691D01*
X195988000Y-106006250D01*
X195988000Y-105493750D01*
X195989053Y-105472309D01*
X195992203Y-105451074D01*
X195997419Y-105430250D01*
X196004651Y-105410038D01*
X196013830Y-105390632D01*
X196024866Y-105372219D01*
X196037654Y-105354976D01*
X196052070Y-105339070D01*
X196067976Y-105324654D01*
X196085219Y-105311866D01*
X196103632Y-105300830D01*
X196123038Y-105291651D01*
X196143250Y-105284419D01*
X196164074Y-105279203D01*
X196185309Y-105276053D01*
X196206750Y-105275000D01*
X196644250Y-105275000D01*
X196665691Y-105276053D01*
X196665691Y-105276053D01*
G37*
D12*
X196425500Y-105750000D03*
D11*
G36*
X190864691Y-97626053D02*
G01*
X190885926Y-97629203D01*
X190906750Y-97634419D01*
X190926962Y-97641651D01*
X190946368Y-97650830D01*
X190964781Y-97661866D01*
X190982024Y-97674654D01*
X190997930Y-97689070D01*
X191012346Y-97704976D01*
X191025134Y-97722219D01*
X191036170Y-97740632D01*
X191045349Y-97760038D01*
X191052581Y-97780250D01*
X191057797Y-97801074D01*
X191060947Y-97822309D01*
X191062000Y-97843750D01*
X191062000Y-98356250D01*
X191060947Y-98377691D01*
X191057797Y-98398926D01*
X191052581Y-98419750D01*
X191045349Y-98439962D01*
X191036170Y-98459368D01*
X191025134Y-98477781D01*
X191012346Y-98495024D01*
X190997930Y-98510930D01*
X190982024Y-98525346D01*
X190964781Y-98538134D01*
X190946368Y-98549170D01*
X190926962Y-98558349D01*
X190906750Y-98565581D01*
X190885926Y-98570797D01*
X190864691Y-98573947D01*
X190843250Y-98575000D01*
X190405750Y-98575000D01*
X190384309Y-98573947D01*
X190363074Y-98570797D01*
X190342250Y-98565581D01*
X190322038Y-98558349D01*
X190302632Y-98549170D01*
X190284219Y-98538134D01*
X190266976Y-98525346D01*
X190251070Y-98510930D01*
X190236654Y-98495024D01*
X190223866Y-98477781D01*
X190212830Y-98459368D01*
X190203651Y-98439962D01*
X190196419Y-98419750D01*
X190191203Y-98398926D01*
X190188053Y-98377691D01*
X190187000Y-98356250D01*
X190187000Y-97843750D01*
X190188053Y-97822309D01*
X190191203Y-97801074D01*
X190196419Y-97780250D01*
X190203651Y-97760038D01*
X190212830Y-97740632D01*
X190223866Y-97722219D01*
X190236654Y-97704976D01*
X190251070Y-97689070D01*
X190266976Y-97674654D01*
X190284219Y-97661866D01*
X190302632Y-97650830D01*
X190322038Y-97641651D01*
X190342250Y-97634419D01*
X190363074Y-97629203D01*
X190384309Y-97626053D01*
X190405750Y-97625000D01*
X190843250Y-97625000D01*
X190864691Y-97626053D01*
X190864691Y-97626053D01*
G37*
D12*
X190624500Y-98100000D03*
D11*
G36*
X192439691Y-97626053D02*
G01*
X192460926Y-97629203D01*
X192481750Y-97634419D01*
X192501962Y-97641651D01*
X192521368Y-97650830D01*
X192539781Y-97661866D01*
X192557024Y-97674654D01*
X192572930Y-97689070D01*
X192587346Y-97704976D01*
X192600134Y-97722219D01*
X192611170Y-97740632D01*
X192620349Y-97760038D01*
X192627581Y-97780250D01*
X192632797Y-97801074D01*
X192635947Y-97822309D01*
X192637000Y-97843750D01*
X192637000Y-98356250D01*
X192635947Y-98377691D01*
X192632797Y-98398926D01*
X192627581Y-98419750D01*
X192620349Y-98439962D01*
X192611170Y-98459368D01*
X192600134Y-98477781D01*
X192587346Y-98495024D01*
X192572930Y-98510930D01*
X192557024Y-98525346D01*
X192539781Y-98538134D01*
X192521368Y-98549170D01*
X192501962Y-98558349D01*
X192481750Y-98565581D01*
X192460926Y-98570797D01*
X192439691Y-98573947D01*
X192418250Y-98575000D01*
X191980750Y-98575000D01*
X191959309Y-98573947D01*
X191938074Y-98570797D01*
X191917250Y-98565581D01*
X191897038Y-98558349D01*
X191877632Y-98549170D01*
X191859219Y-98538134D01*
X191841976Y-98525346D01*
X191826070Y-98510930D01*
X191811654Y-98495024D01*
X191798866Y-98477781D01*
X191787830Y-98459368D01*
X191778651Y-98439962D01*
X191771419Y-98419750D01*
X191766203Y-98398926D01*
X191763053Y-98377691D01*
X191762000Y-98356250D01*
X191762000Y-97843750D01*
X191763053Y-97822309D01*
X191766203Y-97801074D01*
X191771419Y-97780250D01*
X191778651Y-97760038D01*
X191787830Y-97740632D01*
X191798866Y-97722219D01*
X191811654Y-97704976D01*
X191826070Y-97689070D01*
X191841976Y-97674654D01*
X191859219Y-97661866D01*
X191877632Y-97650830D01*
X191897038Y-97641651D01*
X191917250Y-97634419D01*
X191938074Y-97629203D01*
X191959309Y-97626053D01*
X191980750Y-97625000D01*
X192418250Y-97625000D01*
X192439691Y-97626053D01*
X192439691Y-97626053D01*
G37*
D12*
X192199500Y-98100000D03*
D13*
X193600000Y-102100000D03*
X185100000Y-102100000D03*
D14*
X196700000Y-125200000D03*
D15*
X196775000Y-109120000D03*
X196125000Y-109120000D03*
X195475000Y-109120000D03*
X194825000Y-109120000D03*
X194175000Y-109120000D03*
X193525000Y-109120000D03*
X192875000Y-109120000D03*
X192225000Y-109120000D03*
X191575000Y-109120000D03*
X190925000Y-109120000D03*
X190275000Y-109120000D03*
X189625000Y-109120000D03*
X189625000Y-114820000D03*
X190275000Y-114820000D03*
X190925000Y-114820000D03*
X191575000Y-114820000D03*
X192225000Y-114820000D03*
X192875000Y-114820000D03*
X193525000Y-114820000D03*
X194175000Y-114820000D03*
X194825000Y-114820000D03*
X195475000Y-114820000D03*
X196125000Y-114820000D03*
X196775000Y-114820000D03*
D16*
X201400000Y-116000000D03*
D17*
X201400000Y-113230000D03*
X201400000Y-110460000D03*
X201400000Y-107690000D03*
X201400000Y-104920000D03*
X204240000Y-114615000D03*
X204240000Y-111845000D03*
X204240000Y-109075000D03*
X204240000Y-106305000D03*
D18*
X202820000Y-122960000D03*
X202820000Y-97960000D03*
D19*
X186900000Y-104898900D03*
X185560000Y-123610000D03*
X181980000Y-106140000D03*
X189873600Y-118076900D03*
X189276500Y-105824990D03*
X179620000Y-109970000D03*
X188760000Y-125110000D03*
X194630000Y-99500000D03*
X193538800Y-123985400D03*
X189501200Y-122108100D03*
X192568900Y-110489600D03*
X193140300Y-111345800D03*
X184260000Y-123600000D03*
X181780000Y-107990000D03*
X197251300Y-123085400D03*
X190625000Y-112134400D03*
D20*
X190753400Y-122901900D02*
X191961000Y-122901900D01*
X191961000Y-122901900D02*
X192712500Y-123653400D01*
X189917500Y-119310000D02*
X190753400Y-120145900D01*
X190753400Y-120145900D02*
X190753400Y-122901900D01*
X192712500Y-123653400D02*
X192712500Y-125200000D01*
X197467500Y-121010000D02*
X197452000Y-121010000D01*
X197452000Y-121010000D02*
X195558100Y-122903900D01*
X195558100Y-122903900D02*
X193462000Y-122903900D01*
X193462000Y-122903900D02*
X192712500Y-123653400D01*
X192225000Y-109120000D02*
X192225000Y-108194700D01*
X192425300Y-108194700D02*
X192875000Y-108194700D01*
X192225000Y-108194700D02*
X192425300Y-108194700D01*
X192425300Y-108194700D02*
X192425300Y-105750000D01*
X192875000Y-109120000D02*
X192875000Y-108194700D01*
X192425300Y-105750000D02*
X192625500Y-105750000D01*
X184190000Y-98100000D02*
X185412500Y-98100000D01*
X180460000Y-101830000D02*
X184190000Y-98100000D01*
X180460000Y-104600000D02*
X180460000Y-101830000D01*
X181184100Y-104898900D02*
X180758900Y-104898900D01*
X180758900Y-104898900D02*
X180460000Y-104600000D01*
X182379999Y-104957801D02*
X182438900Y-104898900D01*
X182379999Y-105740001D02*
X182379999Y-104957801D01*
X181980000Y-106140000D02*
X182379999Y-105740001D01*
X186900000Y-104898900D02*
X182438900Y-104898900D01*
X182438900Y-104898900D02*
X181184100Y-104898900D01*
X190185300Y-123470000D02*
X190753400Y-122901900D01*
X185708100Y-123470000D02*
X190185300Y-123470000D01*
X185560000Y-123610000D02*
X185708100Y-123461900D01*
X185708100Y-123461900D02*
X185708100Y-123470000D01*
X187168900Y-104630000D02*
X186900000Y-104898900D01*
X192425300Y-105750000D02*
X191305300Y-104630000D01*
X191305300Y-104630000D02*
X187168900Y-104630000D01*
X196955500Y-106280000D02*
X196425500Y-105750000D01*
X186602500Y-96910000D02*
X195360000Y-96910000D01*
X185412500Y-98100000D02*
X186602500Y-96910000D01*
X195360000Y-96910000D02*
X202850000Y-104400000D01*
X202850000Y-104400000D02*
X202850000Y-105450000D01*
X202850000Y-105450000D02*
X202020000Y-106280000D01*
X202020000Y-106280000D02*
X196955500Y-106280000D01*
X189873600Y-118076900D02*
X190044100Y-118076900D01*
X190044100Y-118076900D02*
X192592500Y-120625300D01*
X192592500Y-120625300D02*
X192592500Y-121010000D01*
X185042500Y-119310000D02*
X186275600Y-118076900D01*
X186275600Y-118076900D02*
X189873600Y-118076900D01*
X193525000Y-114820000D02*
X193525000Y-115745300D01*
X193525000Y-115745300D02*
X195605300Y-115745300D01*
X195605300Y-115745300D02*
X202820000Y-122960000D01*
X192199500Y-98675900D02*
X192199500Y-98100000D01*
X189351490Y-105750000D02*
X189276500Y-105824990D01*
X191050500Y-105750000D02*
X189351490Y-105750000D01*
X192199500Y-99129500D02*
X192199500Y-98675900D01*
X192570000Y-99500000D02*
X192199500Y-99129500D01*
X197200000Y-102424500D02*
X197200000Y-101510000D01*
X197200000Y-101510000D02*
X195190000Y-99500000D01*
X181600000Y-101550000D02*
X181600000Y-102424500D01*
X183710000Y-99440000D02*
X181600000Y-101550000D01*
X191900000Y-99440000D02*
X183710000Y-99440000D01*
X192199500Y-98675900D02*
X192199500Y-99140500D01*
X192199500Y-99140500D02*
X191900000Y-99440000D01*
X198854500Y-102424500D02*
X197200000Y-102424500D01*
X201400000Y-104920000D02*
X201350000Y-104920000D01*
X201350000Y-104920000D02*
X198854500Y-102424500D01*
X183950000Y-108000000D02*
X181980000Y-109970000D01*
X185200000Y-108000000D02*
X183950000Y-108000000D01*
X181980000Y-109970000D02*
X179620000Y-109970000D01*
X179620000Y-109970000D02*
X178490000Y-111100000D01*
X178490000Y-111100000D02*
X178490000Y-120170000D01*
X178490000Y-120170000D02*
X179800000Y-121480000D01*
X180303002Y-121480000D02*
X180653002Y-121830000D01*
X179800000Y-121480000D02*
X180303002Y-121480000D01*
X180653002Y-121830000D02*
X183010000Y-121830000D01*
X183010000Y-121830000D02*
X182810000Y-122030000D01*
X182810000Y-123297002D02*
X183120000Y-123607002D01*
X182810000Y-122030000D02*
X182810000Y-123297002D01*
X183120000Y-123607002D02*
X183120000Y-125190000D01*
X183120000Y-125190000D02*
X183200000Y-125110000D01*
X183200000Y-125110000D02*
X188760000Y-125110000D01*
X192737000Y-98100000D02*
X192747000Y-98090000D01*
X192199500Y-98100000D02*
X192737000Y-98100000D01*
X193220000Y-98090000D02*
X194630000Y-99500000D01*
X192747000Y-98090000D02*
X193220000Y-98090000D01*
X195190000Y-99500000D02*
X194630000Y-99500000D01*
X194630000Y-99500000D02*
X192570000Y-99500000D01*
X181762500Y-118525000D02*
X182637500Y-117650000D01*
X182637500Y-119400000D02*
X181762500Y-118525000D01*
X180000000Y-115200000D02*
X185200000Y-110000000D01*
X180000000Y-117911300D02*
X180000000Y-115200000D01*
X181762500Y-118525000D02*
X180613700Y-118525000D01*
X180613700Y-118525000D02*
X180000000Y-117911300D01*
X194021700Y-103999500D02*
X194021700Y-106527800D01*
X194021700Y-106527800D02*
X194175000Y-106681100D01*
X194175000Y-106681100D02*
X194175000Y-109120000D01*
X193600000Y-103475300D02*
X194021700Y-103897000D01*
X194021700Y-103897000D02*
X194021700Y-103999500D01*
X194021700Y-103999500D02*
X197200000Y-103999500D01*
X193600000Y-102100000D02*
X193600000Y-103475300D01*
X185100000Y-102100000D02*
X185100000Y-103475300D01*
X193525000Y-108194700D02*
X193525000Y-109120000D01*
X193456100Y-108125800D02*
X193525000Y-108194700D01*
X193456100Y-105257900D02*
X193456100Y-108125800D01*
X191878200Y-103680000D02*
X193456100Y-105257900D01*
X185100000Y-103475300D02*
X185304700Y-103680000D01*
X185304700Y-103680000D02*
X191878200Y-103680000D01*
X181919500Y-103680000D02*
X181600000Y-103999500D01*
X185100000Y-103475300D02*
X184895300Y-103680000D01*
X184895300Y-103680000D02*
X181919500Y-103680000D01*
X186987500Y-98100000D02*
X190624500Y-98100000D01*
X184215800Y-120255300D02*
X184215800Y-118793600D01*
X184215800Y-118793600D02*
X185857500Y-117151900D01*
X185042500Y-121010000D02*
X184970500Y-121010000D01*
X184970500Y-121010000D02*
X184215800Y-120255300D01*
X181062500Y-119400000D02*
X181917800Y-120255300D01*
X181917800Y-120255300D02*
X184215800Y-120255300D01*
X185857500Y-117151900D02*
X190434400Y-117151900D01*
X190434400Y-117151900D02*
X192592500Y-119310000D01*
X185200000Y-115137300D02*
X185857500Y-115794800D01*
X185857500Y-115794800D02*
X185857500Y-117151900D01*
X185200000Y-114000000D02*
X185200000Y-115137300D01*
X189625000Y-110045300D02*
X189154700Y-110045300D01*
X189625000Y-109120000D02*
X189625000Y-110045300D01*
X189154700Y-110045300D02*
X185200000Y-114000000D01*
X189917500Y-121010000D02*
X189501200Y-121426300D01*
X189501200Y-121426300D02*
X189501200Y-122108100D01*
X181062500Y-117650000D02*
X181062500Y-116137500D01*
X181062500Y-116137500D02*
X185200000Y-112000000D01*
X196098700Y-117941200D02*
X197467500Y-119310000D01*
X193577200Y-117941200D02*
X196098700Y-117941200D01*
X191616000Y-115980000D02*
X193577200Y-117941200D01*
X189625000Y-114820000D02*
X189625000Y-115980000D01*
X189625000Y-115980000D02*
X191616000Y-115980000D01*
X195255000Y-123985400D02*
X193538800Y-123985400D01*
X198540000Y-120382500D02*
X198540000Y-121590000D01*
X197467500Y-119310000D02*
X198540000Y-120382500D01*
X198540000Y-121590000D02*
X197819900Y-122310100D01*
X197819900Y-122310100D02*
X196930200Y-122310100D01*
X196930200Y-122310100D02*
X195255000Y-123985300D01*
X195255000Y-123985300D02*
X195255000Y-123985400D01*
X192568900Y-110489600D02*
X195030700Y-110489600D01*
X195030700Y-110489600D02*
X195475000Y-110045300D01*
X195475000Y-109120000D02*
X195475000Y-110045300D01*
X196125000Y-109120000D02*
X196125000Y-110231700D01*
X196125000Y-110231700D02*
X195010900Y-111345800D01*
X195010900Y-111345800D02*
X193140300Y-111345800D01*
X188342500Y-119310000D02*
X188342500Y-121010000D01*
X186617500Y-119310000D02*
X188342500Y-119310000D01*
X186617500Y-119310000D02*
X186617500Y-121010000D01*
X191575000Y-108194700D02*
X191575000Y-109120000D01*
X184260000Y-106600000D02*
X189980300Y-106600000D01*
X189980300Y-106600000D02*
X191575000Y-108194700D01*
X183269999Y-107590001D02*
X184260000Y-106600000D01*
X182179999Y-107590001D02*
X183269999Y-107590001D01*
X181780000Y-107990000D02*
X182179999Y-107590001D01*
X184260000Y-123050000D02*
X184260000Y-123600000D01*
X185080000Y-122230000D02*
X184260000Y-123050000D01*
X186617500Y-121010000D02*
X185397500Y-122230000D01*
X185397500Y-122230000D02*
X185080000Y-122230000D01*
X195892500Y-119310000D02*
X195892500Y-121010000D01*
X194167500Y-119310000D02*
X195892500Y-119310000D01*
X194167500Y-121010000D02*
X194167500Y-119310000D01*
X189468667Y-116601500D02*
X191459000Y-116601500D01*
X188750000Y-115882833D02*
X189468667Y-116601500D01*
X191459000Y-116601500D02*
X193705888Y-118848388D01*
X188750000Y-112220300D02*
X188750000Y-115882833D01*
X193705888Y-118848388D02*
X194167500Y-119310000D01*
X190925000Y-110045300D02*
X188750000Y-112220300D01*
X190925000Y-109120000D02*
X190925000Y-110045300D01*
X194287500Y-125200000D02*
X196700000Y-125200000D01*
X197610011Y-126110011D02*
X196700000Y-125200000D01*
X206050011Y-124297822D02*
X204237822Y-126110011D01*
X206050011Y-118889989D02*
X206050011Y-124297822D01*
X204237822Y-126110011D02*
X197610011Y-126110011D01*
X200305390Y-118025390D02*
X205185412Y-118025390D01*
X190275000Y-114820000D02*
X190275000Y-113920000D01*
X205185412Y-118025390D02*
X206050011Y-118889989D01*
X190275000Y-113920000D02*
X191115011Y-113079989D01*
X191115011Y-113079989D02*
X197499989Y-113079989D01*
X197499989Y-113079989D02*
X199380000Y-114960000D01*
X199380000Y-114960000D02*
X199380000Y-117100000D01*
X199380000Y-117100000D02*
X200305390Y-118025390D01*
X194825000Y-109120000D02*
X194825000Y-108194700D01*
X194850500Y-105750000D02*
X194850500Y-108169200D01*
X194850500Y-108169200D02*
X194825000Y-108194700D01*
X199605100Y-118575400D02*
X196775000Y-115745300D01*
X202195400Y-118575400D02*
X199605100Y-118575400D01*
X205500000Y-124070000D02*
X205500000Y-121880000D01*
X196775000Y-115745300D02*
X196775000Y-114820000D01*
X197251300Y-123085400D02*
X199725900Y-125560000D01*
X205500000Y-121880000D02*
X202195400Y-118575400D01*
X199725900Y-125560000D02*
X204010000Y-125560000D01*
X204010000Y-125560000D02*
X205500000Y-124070000D01*
X196775000Y-110045300D02*
X196775000Y-110434400D01*
X196775000Y-110434400D02*
X195075000Y-112134400D01*
X195075000Y-112134400D02*
X190625000Y-112134400D01*
X196775000Y-109120000D02*
X196775000Y-110045300D01*
D21*
G36*
X212055665Y-94718863D02*
G01*
X212109214Y-94735030D01*
X212158597Y-94761288D01*
X212201945Y-94796641D01*
X212237600Y-94839740D01*
X212264201Y-94888937D01*
X212280742Y-94942375D01*
X212290001Y-95030464D01*
X212290000Y-125965279D01*
X212281138Y-126055664D01*
X212264970Y-126109214D01*
X212238712Y-126158597D01*
X212203357Y-126201947D01*
X212160261Y-126237599D01*
X212111063Y-126264201D01*
X212057625Y-126280742D01*
X211969545Y-126290000D01*
X205203345Y-126290000D01*
X206594629Y-124898717D01*
X206625539Y-124873350D01*
X206686376Y-124799219D01*
X206726760Y-124750012D01*
X206773723Y-124662149D01*
X206801974Y-124609295D01*
X206848291Y-124456610D01*
X206860011Y-124337613D01*
X206860011Y-124337611D01*
X206863930Y-124297823D01*
X206860011Y-124258035D01*
X206860011Y-118929777D01*
X206863930Y-118889989D01*
X206860011Y-118850198D01*
X206848291Y-118731201D01*
X206808769Y-118600917D01*
X206801974Y-118578515D01*
X206726760Y-118437800D01*
X206709372Y-118416613D01*
X206625539Y-118314461D01*
X206594630Y-118289095D01*
X205786311Y-117480777D01*
X205760940Y-117449862D01*
X205637601Y-117348641D01*
X205496885Y-117273427D01*
X205344200Y-117227110D01*
X205225203Y-117215390D01*
X205225200Y-117215390D01*
X205185412Y-117211471D01*
X205145624Y-117215390D01*
X202680561Y-117215390D01*
X202730537Y-117154494D01*
X202789502Y-117044180D01*
X202825812Y-116924482D01*
X202838072Y-116800000D01*
X202838072Y-115200000D01*
X202825812Y-115075518D01*
X202789502Y-114955820D01*
X202730537Y-114845506D01*
X202651185Y-114748815D01*
X202554494Y-114669463D01*
X202444180Y-114610498D01*
X202324482Y-114574188D01*
X202200000Y-114561928D01*
X201934275Y-114561928D01*
X202079727Y-114501680D01*
X202314759Y-114344637D01*
X202514637Y-114144759D01*
X202671680Y-113909727D01*
X202779853Y-113648574D01*
X202835000Y-113371335D01*
X202835000Y-113088665D01*
X202779853Y-112811426D01*
X202671680Y-112550273D01*
X202514637Y-112315241D01*
X202314759Y-112115363D01*
X202079727Y-111958320D01*
X201818574Y-111850147D01*
X201792699Y-111845000D01*
X201818574Y-111839853D01*
X202079727Y-111731680D01*
X202314759Y-111574637D01*
X202514637Y-111374759D01*
X202671680Y-111139727D01*
X202779853Y-110878574D01*
X202835000Y-110601335D01*
X202835000Y-110318665D01*
X202779853Y-110041426D01*
X202671680Y-109780273D01*
X202514637Y-109545241D01*
X202314759Y-109345363D01*
X202079727Y-109188320D01*
X201818574Y-109080147D01*
X201792699Y-109075000D01*
X201818574Y-109069853D01*
X202079727Y-108961680D01*
X202314759Y-108804637D01*
X202514637Y-108604759D01*
X202671680Y-108369727D01*
X202779853Y-108108574D01*
X202835000Y-107831335D01*
X202835000Y-107548665D01*
X202779853Y-107271426D01*
X202671680Y-107010273D01*
X202577932Y-106869969D01*
X202595528Y-106855528D01*
X202620899Y-106824613D01*
X202837216Y-106608296D01*
X202860147Y-106723574D01*
X202968320Y-106984727D01*
X203125363Y-107219759D01*
X203325241Y-107419637D01*
X203560273Y-107576680D01*
X203821426Y-107684853D01*
X203847301Y-107690000D01*
X203821426Y-107695147D01*
X203560273Y-107803320D01*
X203325241Y-107960363D01*
X203125363Y-108160241D01*
X202968320Y-108395273D01*
X202860147Y-108656426D01*
X202805000Y-108933665D01*
X202805000Y-109216335D01*
X202860147Y-109493574D01*
X202968320Y-109754727D01*
X203125363Y-109989759D01*
X203325241Y-110189637D01*
X203560273Y-110346680D01*
X203821426Y-110454853D01*
X203847301Y-110460000D01*
X203821426Y-110465147D01*
X203560273Y-110573320D01*
X203325241Y-110730363D01*
X203125363Y-110930241D01*
X202968320Y-111165273D01*
X202860147Y-111426426D01*
X202805000Y-111703665D01*
X202805000Y-111986335D01*
X202860147Y-112263574D01*
X202968320Y-112524727D01*
X203125363Y-112759759D01*
X203325241Y-112959637D01*
X203560273Y-113116680D01*
X203821426Y-113224853D01*
X203847301Y-113230000D01*
X203821426Y-113235147D01*
X203560273Y-113343320D01*
X203325241Y-113500363D01*
X203125363Y-113700241D01*
X202968320Y-113935273D01*
X202860147Y-114196426D01*
X202805000Y-114473665D01*
X202805000Y-114756335D01*
X202860147Y-115033574D01*
X202968320Y-115294727D01*
X203125363Y-115529759D01*
X203325241Y-115729637D01*
X203560273Y-115886680D01*
X203821426Y-115994853D01*
X204098665Y-116050000D01*
X204381335Y-116050000D01*
X204658574Y-115994853D01*
X204919727Y-115886680D01*
X205154759Y-115729637D01*
X205354637Y-115529759D01*
X205511680Y-115294727D01*
X205619853Y-115033574D01*
X205675000Y-114756335D01*
X205675000Y-114473665D01*
X205619853Y-114196426D01*
X205511680Y-113935273D01*
X205354637Y-113700241D01*
X205154759Y-113500363D01*
X204919727Y-113343320D01*
X204658574Y-113235147D01*
X204632699Y-113230000D01*
X204658574Y-113224853D01*
X204919727Y-113116680D01*
X205154759Y-112959637D01*
X205354637Y-112759759D01*
X205511680Y-112524727D01*
X205619853Y-112263574D01*
X205675000Y-111986335D01*
X205675000Y-111703665D01*
X205619853Y-111426426D01*
X205511680Y-111165273D01*
X205354637Y-110930241D01*
X205154759Y-110730363D01*
X204919727Y-110573320D01*
X204658574Y-110465147D01*
X204632699Y-110460000D01*
X204658574Y-110454853D01*
X204919727Y-110346680D01*
X205154759Y-110189637D01*
X205354637Y-109989759D01*
X205511680Y-109754727D01*
X205619853Y-109493574D01*
X205675000Y-109216335D01*
X205675000Y-108933665D01*
X205619853Y-108656426D01*
X205511680Y-108395273D01*
X205354637Y-108160241D01*
X205154759Y-107960363D01*
X204919727Y-107803320D01*
X204658574Y-107695147D01*
X204632699Y-107690000D01*
X204658574Y-107684853D01*
X204919727Y-107576680D01*
X205154759Y-107419637D01*
X205354637Y-107219759D01*
X205511680Y-106984727D01*
X205619853Y-106723574D01*
X205675000Y-106446335D01*
X205675000Y-106163665D01*
X205619853Y-105886426D01*
X205511680Y-105625273D01*
X205354637Y-105390241D01*
X205154759Y-105190363D01*
X204919727Y-105033320D01*
X204658574Y-104925147D01*
X204381335Y-104870000D01*
X204098665Y-104870000D01*
X203821426Y-104925147D01*
X203660000Y-104992012D01*
X203660000Y-104439791D01*
X203663919Y-104400000D01*
X203648280Y-104241212D01*
X203601963Y-104088526D01*
X203526749Y-103947811D01*
X203510070Y-103927488D01*
X203425528Y-103824472D01*
X203394619Y-103799106D01*
X199403012Y-99807499D01*
X201152106Y-99807499D01*
X201368228Y-100174258D01*
X201828105Y-100414938D01*
X202326098Y-100561275D01*
X202843071Y-100607648D01*
X203359159Y-100552273D01*
X203854526Y-100397279D01*
X204271772Y-100174258D01*
X204487894Y-99807499D01*
X202820000Y-98139605D01*
X201152106Y-99807499D01*
X199403012Y-99807499D01*
X197578584Y-97983071D01*
X200172352Y-97983071D01*
X200227727Y-98499159D01*
X200382721Y-98994526D01*
X200605742Y-99411772D01*
X200972501Y-99627894D01*
X202640395Y-97960000D01*
X202999605Y-97960000D01*
X204667499Y-99627894D01*
X205034258Y-99411772D01*
X205274938Y-98951895D01*
X205421275Y-98453902D01*
X205467648Y-97936929D01*
X205412273Y-97420841D01*
X205257279Y-96925474D01*
X205034258Y-96508228D01*
X204667499Y-96292106D01*
X202999605Y-97960000D01*
X202640395Y-97960000D01*
X200972501Y-96292106D01*
X200605742Y-96508228D01*
X200365062Y-96968105D01*
X200218725Y-97466098D01*
X200172352Y-97983071D01*
X197578584Y-97983071D01*
X195960900Y-96365388D01*
X195935528Y-96334472D01*
X195812189Y-96233251D01*
X195671473Y-96158037D01*
X195521363Y-96112501D01*
X201152106Y-96112501D01*
X202820000Y-97780395D01*
X204487894Y-96112501D01*
X204271772Y-95745742D01*
X203811895Y-95505062D01*
X203313902Y-95358725D01*
X202796929Y-95312352D01*
X202280841Y-95367727D01*
X201785474Y-95522721D01*
X201368228Y-95745742D01*
X201152106Y-96112501D01*
X195521363Y-96112501D01*
X195518788Y-96111720D01*
X195399791Y-96100000D01*
X195399788Y-96100000D01*
X195360000Y-96096081D01*
X195320212Y-96100000D01*
X186642287Y-96100000D01*
X186602499Y-96096081D01*
X186562711Y-96100000D01*
X186562709Y-96100000D01*
X186443712Y-96111720D01*
X186291027Y-96158037D01*
X186225524Y-96193049D01*
X186150310Y-96233251D01*
X186094710Y-96278881D01*
X186026972Y-96334472D01*
X186001605Y-96365382D01*
X185380060Y-96986928D01*
X185193750Y-96986928D01*
X185026592Y-97003392D01*
X184865858Y-97052150D01*
X184717725Y-97131329D01*
X184587885Y-97237885D01*
X184545116Y-97290000D01*
X184229791Y-97290000D01*
X184190000Y-97286081D01*
X184031212Y-97301720D01*
X183878526Y-97348037D01*
X183817194Y-97380820D01*
X183737811Y-97423251D01*
X183614472Y-97524472D01*
X183589107Y-97555380D01*
X179915383Y-101229105D01*
X179884473Y-101254472D01*
X179845698Y-101301720D01*
X179783251Y-101377811D01*
X179712195Y-101510750D01*
X179708038Y-101518527D01*
X179668820Y-101647812D01*
X179661721Y-101671213D01*
X179646081Y-101830000D01*
X179650001Y-101869798D01*
X179650000Y-104560212D01*
X179646081Y-104600000D01*
X179650000Y-104639788D01*
X179650000Y-104639790D01*
X179661720Y-104758787D01*
X179708037Y-104911472D01*
X179732800Y-104957801D01*
X179783251Y-105052189D01*
X179802031Y-105075072D01*
X179884472Y-105175528D01*
X179915388Y-105200900D01*
X180158000Y-105443512D01*
X180183372Y-105474428D01*
X180306711Y-105575649D01*
X180447427Y-105650863D01*
X180600112Y-105697180D01*
X180719109Y-105708900D01*
X180719111Y-105708900D01*
X180758899Y-105712819D01*
X180798687Y-105708900D01*
X181038292Y-105708900D01*
X180984774Y-105838102D01*
X180945000Y-106038061D01*
X180945000Y-106241939D01*
X180984774Y-106441898D01*
X181062795Y-106630256D01*
X181176063Y-106799774D01*
X181320226Y-106943937D01*
X181427610Y-107015689D01*
X181289744Y-107072795D01*
X181120226Y-107186063D01*
X180976063Y-107330226D01*
X180862795Y-107499744D01*
X180784774Y-107688102D01*
X180745000Y-107888061D01*
X180745000Y-108091939D01*
X180784774Y-108291898D01*
X180862795Y-108480256D01*
X180976063Y-108649774D01*
X181120226Y-108793937D01*
X181289744Y-108907205D01*
X181478102Y-108985226D01*
X181678061Y-109025000D01*
X181881939Y-109025000D01*
X182081898Y-108985226D01*
X182270256Y-108907205D01*
X182439774Y-108793937D01*
X182583937Y-108649774D01*
X182697205Y-108480256D01*
X182730448Y-108400001D01*
X183230211Y-108400001D01*
X183269999Y-108403920D01*
X183309787Y-108400001D01*
X183309790Y-108400001D01*
X183428787Y-108388281D01*
X183581472Y-108341964D01*
X183722188Y-108266750D01*
X183776162Y-108222455D01*
X183707780Y-108343070D01*
X183797476Y-108595068D01*
X183937865Y-108830330D01*
X184085663Y-108994039D01*
X184069392Y-109007392D01*
X183894817Y-109220113D01*
X183765096Y-109462805D01*
X183685214Y-109726140D01*
X183658241Y-110000000D01*
X183685214Y-110273860D01*
X183707421Y-110347066D01*
X179455383Y-114599105D01*
X179424473Y-114624472D01*
X179394321Y-114661213D01*
X179323251Y-114747811D01*
X179248038Y-114888527D01*
X179215279Y-114996520D01*
X179201721Y-115041213D01*
X179186081Y-115200000D01*
X179190001Y-115239798D01*
X179190000Y-117871512D01*
X179186081Y-117911300D01*
X179190000Y-117951088D01*
X179190000Y-117951090D01*
X179201720Y-118070087D01*
X179248037Y-118222772D01*
X179269085Y-118262150D01*
X179323251Y-118363489D01*
X179347790Y-118393389D01*
X179424472Y-118486828D01*
X179455387Y-118512199D01*
X179995895Y-119052708D01*
X179986928Y-119143750D01*
X179986928Y-119656250D01*
X180003392Y-119823408D01*
X180052150Y-119984142D01*
X180131329Y-120132275D01*
X180237885Y-120262115D01*
X180367725Y-120368671D01*
X180515858Y-120447850D01*
X180676592Y-120496608D01*
X180843750Y-120513072D01*
X181030059Y-120513072D01*
X181316905Y-120799918D01*
X181342272Y-120830828D01*
X181373180Y-120856193D01*
X181465610Y-120932049D01*
X181517565Y-120959819D01*
X181606327Y-121007263D01*
X181759012Y-121053580D01*
X181878009Y-121065300D01*
X181878012Y-121065300D01*
X181917800Y-121069219D01*
X181957588Y-121065300D01*
X183880288Y-121065300D01*
X183966928Y-121151940D01*
X183966928Y-121266250D01*
X183983392Y-121433408D01*
X184032150Y-121594142D01*
X184111329Y-121742275D01*
X184217885Y-121872115D01*
X184258797Y-121905690D01*
X183715387Y-122449101D01*
X183684472Y-122474472D01*
X183629487Y-122541473D01*
X183583251Y-122597811D01*
X183564330Y-122633211D01*
X183508037Y-122738528D01*
X183461720Y-122891213D01*
X183456983Y-122939306D01*
X183456063Y-122940226D01*
X183342795Y-123109744D01*
X183264774Y-123298102D01*
X183225000Y-123498061D01*
X183225000Y-123701939D01*
X183264774Y-123901898D01*
X183342795Y-124090256D01*
X183456063Y-124259774D01*
X183600226Y-124403937D01*
X183769744Y-124517205D01*
X183958102Y-124595226D01*
X184158061Y-124635000D01*
X184361939Y-124635000D01*
X184561898Y-124595226D01*
X184750256Y-124517205D01*
X184902517Y-124415468D01*
X185069744Y-124527205D01*
X185258102Y-124605226D01*
X185458061Y-124645000D01*
X185661939Y-124645000D01*
X185861898Y-124605226D01*
X186050256Y-124527205D01*
X186219774Y-124413937D01*
X186353711Y-124280000D01*
X190145512Y-124280000D01*
X190185300Y-124283919D01*
X190225088Y-124280000D01*
X190225091Y-124280000D01*
X190344088Y-124268280D01*
X190496773Y-124221963D01*
X190637489Y-124146749D01*
X190760828Y-124045528D01*
X190786199Y-124014613D01*
X191088913Y-123711900D01*
X191625488Y-123711900D01*
X191902500Y-123988913D01*
X191902500Y-124325891D01*
X191887885Y-124337885D01*
X191781329Y-124467725D01*
X191702150Y-124615858D01*
X191653392Y-124776592D01*
X191636928Y-124943750D01*
X191636928Y-125456250D01*
X191653392Y-125623408D01*
X191702150Y-125784142D01*
X191781329Y-125932275D01*
X191887885Y-126062115D01*
X192017725Y-126168671D01*
X192165858Y-126247850D01*
X192304808Y-126290000D01*
X178034721Y-126290000D01*
X177944336Y-126281138D01*
X177890786Y-126264970D01*
X177841403Y-126238712D01*
X177798053Y-126203357D01*
X177762401Y-126160261D01*
X177735799Y-126111063D01*
X177719258Y-126057625D01*
X177710000Y-125969545D01*
X177710000Y-124446358D01*
X177750890Y-124651925D01*
X177919369Y-125058669D01*
X178163962Y-125424729D01*
X178475271Y-125736038D01*
X178841331Y-125980631D01*
X179248075Y-126149110D01*
X179679872Y-126235000D01*
X180120128Y-126235000D01*
X180551925Y-126149110D01*
X180958669Y-125980631D01*
X181324729Y-125736038D01*
X181636038Y-125424729D01*
X181880631Y-125058669D01*
X182049110Y-124651925D01*
X182135000Y-124220128D01*
X182135000Y-123779872D01*
X182049110Y-123348075D01*
X181880631Y-122941331D01*
X181636038Y-122575271D01*
X181324729Y-122263962D01*
X180958669Y-122019369D01*
X180551925Y-121850890D01*
X180120128Y-121765000D01*
X179679872Y-121765000D01*
X179248075Y-121850890D01*
X178841331Y-122019369D01*
X178475271Y-122263962D01*
X178163962Y-122575271D01*
X177919369Y-122941331D01*
X177750890Y-123348075D01*
X177710000Y-123553642D01*
X177710000Y-97146358D01*
X177750890Y-97351925D01*
X177919369Y-97758669D01*
X178163962Y-98124729D01*
X178475271Y-98436038D01*
X178841331Y-98680631D01*
X179248075Y-98849110D01*
X179679872Y-98935000D01*
X180120128Y-98935000D01*
X180551925Y-98849110D01*
X180958669Y-98680631D01*
X181324729Y-98436038D01*
X181636038Y-98124729D01*
X181880631Y-97758669D01*
X182049110Y-97351925D01*
X182135000Y-96920128D01*
X182135000Y-96479872D01*
X182049110Y-96048075D01*
X181880631Y-95641331D01*
X181636038Y-95275271D01*
X181324729Y-94963962D01*
X180958669Y-94719369D01*
X180936050Y-94710000D01*
X211965278Y-94710000D01*
X212055665Y-94718863D01*
X212055665Y-94718863D01*
G37*
X212055665Y-94718863D02*
X212109214Y-94735030D01*
X212158597Y-94761288D01*
X212201945Y-94796641D01*
X212237600Y-94839740D01*
X212264201Y-94888937D01*
X212280742Y-94942375D01*
X212290001Y-95030464D01*
X212290000Y-125965279D01*
X212281138Y-126055664D01*
X212264970Y-126109214D01*
X212238712Y-126158597D01*
X212203357Y-126201947D01*
X212160261Y-126237599D01*
X212111063Y-126264201D01*
X212057625Y-126280742D01*
X211969545Y-126290000D01*
X205203345Y-126290000D01*
X206594629Y-124898717D01*
X206625539Y-124873350D01*
X206686376Y-124799219D01*
X206726760Y-124750012D01*
X206773723Y-124662149D01*
X206801974Y-124609295D01*
X206848291Y-124456610D01*
X206860011Y-124337613D01*
X206860011Y-124337611D01*
X206863930Y-124297823D01*
X206860011Y-124258035D01*
X206860011Y-118929777D01*
X206863930Y-118889989D01*
X206860011Y-118850198D01*
X206848291Y-118731201D01*
X206808769Y-118600917D01*
X206801974Y-118578515D01*
X206726760Y-118437800D01*
X206709372Y-118416613D01*
X206625539Y-118314461D01*
X206594630Y-118289095D01*
X205786311Y-117480777D01*
X205760940Y-117449862D01*
X205637601Y-117348641D01*
X205496885Y-117273427D01*
X205344200Y-117227110D01*
X205225203Y-117215390D01*
X205225200Y-117215390D01*
X205185412Y-117211471D01*
X205145624Y-117215390D01*
X202680561Y-117215390D01*
X202730537Y-117154494D01*
X202789502Y-117044180D01*
X202825812Y-116924482D01*
X202838072Y-116800000D01*
X202838072Y-115200000D01*
X202825812Y-115075518D01*
X202789502Y-114955820D01*
X202730537Y-114845506D01*
X202651185Y-114748815D01*
X202554494Y-114669463D01*
X202444180Y-114610498D01*
X202324482Y-114574188D01*
X202200000Y-114561928D01*
X201934275Y-114561928D01*
X202079727Y-114501680D01*
X202314759Y-114344637D01*
X202514637Y-114144759D01*
X202671680Y-113909727D01*
X202779853Y-113648574D01*
X202835000Y-113371335D01*
X202835000Y-113088665D01*
X202779853Y-112811426D01*
X202671680Y-112550273D01*
X202514637Y-112315241D01*
X202314759Y-112115363D01*
X202079727Y-111958320D01*
X201818574Y-111850147D01*
X201792699Y-111845000D01*
X201818574Y-111839853D01*
X202079727Y-111731680D01*
X202314759Y-111574637D01*
X202514637Y-111374759D01*
X202671680Y-111139727D01*
X202779853Y-110878574D01*
X202835000Y-110601335D01*
X202835000Y-110318665D01*
X202779853Y-110041426D01*
X202671680Y-109780273D01*
X202514637Y-109545241D01*
X202314759Y-109345363D01*
X202079727Y-109188320D01*
X201818574Y-109080147D01*
X201792699Y-109075000D01*
X201818574Y-109069853D01*
X202079727Y-108961680D01*
X202314759Y-108804637D01*
X202514637Y-108604759D01*
X202671680Y-108369727D01*
X202779853Y-108108574D01*
X202835000Y-107831335D01*
X202835000Y-107548665D01*
X202779853Y-107271426D01*
X202671680Y-107010273D01*
X202577932Y-106869969D01*
X202595528Y-106855528D01*
X202620899Y-106824613D01*
X202837216Y-106608296D01*
X202860147Y-106723574D01*
X202968320Y-106984727D01*
X203125363Y-107219759D01*
X203325241Y-107419637D01*
X203560273Y-107576680D01*
X203821426Y-107684853D01*
X203847301Y-107690000D01*
X203821426Y-107695147D01*
X203560273Y-107803320D01*
X203325241Y-107960363D01*
X203125363Y-108160241D01*
X202968320Y-108395273D01*
X202860147Y-108656426D01*
X202805000Y-108933665D01*
X202805000Y-109216335D01*
X202860147Y-109493574D01*
X202968320Y-109754727D01*
X203125363Y-109989759D01*
X203325241Y-110189637D01*
X203560273Y-110346680D01*
X203821426Y-110454853D01*
X203847301Y-110460000D01*
X203821426Y-110465147D01*
X203560273Y-110573320D01*
X203325241Y-110730363D01*
X203125363Y-110930241D01*
X202968320Y-111165273D01*
X202860147Y-111426426D01*
X202805000Y-111703665D01*
X202805000Y-111986335D01*
X202860147Y-112263574D01*
X202968320Y-112524727D01*
X203125363Y-112759759D01*
X203325241Y-112959637D01*
X203560273Y-113116680D01*
X203821426Y-113224853D01*
X203847301Y-113230000D01*
X203821426Y-113235147D01*
X203560273Y-113343320D01*
X203325241Y-113500363D01*
X203125363Y-113700241D01*
X202968320Y-113935273D01*
X202860147Y-114196426D01*
X202805000Y-114473665D01*
X202805000Y-114756335D01*
X202860147Y-115033574D01*
X202968320Y-115294727D01*
X203125363Y-115529759D01*
X203325241Y-115729637D01*
X203560273Y-115886680D01*
X203821426Y-115994853D01*
X204098665Y-116050000D01*
X204381335Y-116050000D01*
X204658574Y-115994853D01*
X204919727Y-115886680D01*
X205154759Y-115729637D01*
X205354637Y-115529759D01*
X205511680Y-115294727D01*
X205619853Y-115033574D01*
X205675000Y-114756335D01*
X205675000Y-114473665D01*
X205619853Y-114196426D01*
X205511680Y-113935273D01*
X205354637Y-113700241D01*
X205154759Y-113500363D01*
X204919727Y-113343320D01*
X204658574Y-113235147D01*
X204632699Y-113230000D01*
X204658574Y-113224853D01*
X204919727Y-113116680D01*
X205154759Y-112959637D01*
X205354637Y-112759759D01*
X205511680Y-112524727D01*
X205619853Y-112263574D01*
X205675000Y-111986335D01*
X205675000Y-111703665D01*
X205619853Y-111426426D01*
X205511680Y-111165273D01*
X205354637Y-110930241D01*
X205154759Y-110730363D01*
X204919727Y-110573320D01*
X204658574Y-110465147D01*
X204632699Y-110460000D01*
X204658574Y-110454853D01*
X204919727Y-110346680D01*
X205154759Y-110189637D01*
X205354637Y-109989759D01*
X205511680Y-109754727D01*
X205619853Y-109493574D01*
X205675000Y-109216335D01*
X205675000Y-108933665D01*
X205619853Y-108656426D01*
X205511680Y-108395273D01*
X205354637Y-108160241D01*
X205154759Y-107960363D01*
X204919727Y-107803320D01*
X204658574Y-107695147D01*
X204632699Y-107690000D01*
X204658574Y-107684853D01*
X204919727Y-107576680D01*
X205154759Y-107419637D01*
X205354637Y-107219759D01*
X205511680Y-106984727D01*
X205619853Y-106723574D01*
X205675000Y-106446335D01*
X205675000Y-106163665D01*
X205619853Y-105886426D01*
X205511680Y-105625273D01*
X205354637Y-105390241D01*
X205154759Y-105190363D01*
X204919727Y-105033320D01*
X204658574Y-104925147D01*
X204381335Y-104870000D01*
X204098665Y-104870000D01*
X203821426Y-104925147D01*
X203660000Y-104992012D01*
X203660000Y-104439791D01*
X203663919Y-104400000D01*
X203648280Y-104241212D01*
X203601963Y-104088526D01*
X203526749Y-103947811D01*
X203510070Y-103927488D01*
X203425528Y-103824472D01*
X203394619Y-103799106D01*
X199403012Y-99807499D01*
X201152106Y-99807499D01*
X201368228Y-100174258D01*
X201828105Y-100414938D01*
X202326098Y-100561275D01*
X202843071Y-100607648D01*
X203359159Y-100552273D01*
X203854526Y-100397279D01*
X204271772Y-100174258D01*
X204487894Y-99807499D01*
X202820000Y-98139605D01*
X201152106Y-99807499D01*
X199403012Y-99807499D01*
X197578584Y-97983071D01*
X200172352Y-97983071D01*
X200227727Y-98499159D01*
X200382721Y-98994526D01*
X200605742Y-99411772D01*
X200972501Y-99627894D01*
X202640395Y-97960000D01*
X202999605Y-97960000D01*
X204667499Y-99627894D01*
X205034258Y-99411772D01*
X205274938Y-98951895D01*
X205421275Y-98453902D01*
X205467648Y-97936929D01*
X205412273Y-97420841D01*
X205257279Y-96925474D01*
X205034258Y-96508228D01*
X204667499Y-96292106D01*
X202999605Y-97960000D01*
X202640395Y-97960000D01*
X200972501Y-96292106D01*
X200605742Y-96508228D01*
X200365062Y-96968105D01*
X200218725Y-97466098D01*
X200172352Y-97983071D01*
X197578584Y-97983071D01*
X195960900Y-96365388D01*
X195935528Y-96334472D01*
X195812189Y-96233251D01*
X195671473Y-96158037D01*
X195521363Y-96112501D01*
X201152106Y-96112501D01*
X202820000Y-97780395D01*
X204487894Y-96112501D01*
X204271772Y-95745742D01*
X203811895Y-95505062D01*
X203313902Y-95358725D01*
X202796929Y-95312352D01*
X202280841Y-95367727D01*
X201785474Y-95522721D01*
X201368228Y-95745742D01*
X201152106Y-96112501D01*
X195521363Y-96112501D01*
X195518788Y-96111720D01*
X195399791Y-96100000D01*
X195399788Y-96100000D01*
X195360000Y-96096081D01*
X195320212Y-96100000D01*
X186642287Y-96100000D01*
X186602499Y-96096081D01*
X186562711Y-96100000D01*
X186562709Y-96100000D01*
X186443712Y-96111720D01*
X186291027Y-96158037D01*
X186225524Y-96193049D01*
X186150310Y-96233251D01*
X186094710Y-96278881D01*
X186026972Y-96334472D01*
X186001605Y-96365382D01*
X185380060Y-96986928D01*
X185193750Y-96986928D01*
X185026592Y-97003392D01*
X184865858Y-97052150D01*
X184717725Y-97131329D01*
X184587885Y-97237885D01*
X184545116Y-97290000D01*
X184229791Y-97290000D01*
X184190000Y-97286081D01*
X184031212Y-97301720D01*
X183878526Y-97348037D01*
X183817194Y-97380820D01*
X183737811Y-97423251D01*
X183614472Y-97524472D01*
X183589107Y-97555380D01*
X179915383Y-101229105D01*
X179884473Y-101254472D01*
X179845698Y-101301720D01*
X179783251Y-101377811D01*
X179712195Y-101510750D01*
X179708038Y-101518527D01*
X179668820Y-101647812D01*
X179661721Y-101671213D01*
X179646081Y-101830000D01*
X179650001Y-101869798D01*
X179650000Y-104560212D01*
X179646081Y-104600000D01*
X179650000Y-104639788D01*
X179650000Y-104639790D01*
X179661720Y-104758787D01*
X179708037Y-104911472D01*
X179732800Y-104957801D01*
X179783251Y-105052189D01*
X179802031Y-105075072D01*
X179884472Y-105175528D01*
X179915388Y-105200900D01*
X180158000Y-105443512D01*
X180183372Y-105474428D01*
X180306711Y-105575649D01*
X180447427Y-105650863D01*
X180600112Y-105697180D01*
X180719109Y-105708900D01*
X180719111Y-105708900D01*
X180758899Y-105712819D01*
X180798687Y-105708900D01*
X181038292Y-105708900D01*
X180984774Y-105838102D01*
X180945000Y-106038061D01*
X180945000Y-106241939D01*
X180984774Y-106441898D01*
X181062795Y-106630256D01*
X181176063Y-106799774D01*
X181320226Y-106943937D01*
X181427610Y-107015689D01*
X181289744Y-107072795D01*
X181120226Y-107186063D01*
X180976063Y-107330226D01*
X180862795Y-107499744D01*
X180784774Y-107688102D01*
X180745000Y-107888061D01*
X180745000Y-108091939D01*
X180784774Y-108291898D01*
X180862795Y-108480256D01*
X180976063Y-108649774D01*
X181120226Y-108793937D01*
X181289744Y-108907205D01*
X181478102Y-108985226D01*
X181678061Y-109025000D01*
X181881939Y-109025000D01*
X182081898Y-108985226D01*
X182270256Y-108907205D01*
X182439774Y-108793937D01*
X182583937Y-108649774D01*
X182697205Y-108480256D01*
X182730448Y-108400001D01*
X183230211Y-108400001D01*
X183269999Y-108403920D01*
X183309787Y-108400001D01*
X183309790Y-108400001D01*
X183428787Y-108388281D01*
X183581472Y-108341964D01*
X183722188Y-108266750D01*
X183776162Y-108222455D01*
X183707780Y-108343070D01*
X183797476Y-108595068D01*
X183937865Y-108830330D01*
X184085663Y-108994039D01*
X184069392Y-109007392D01*
X183894817Y-109220113D01*
X183765096Y-109462805D01*
X183685214Y-109726140D01*
X183658241Y-110000000D01*
X183685214Y-110273860D01*
X183707421Y-110347066D01*
X179455383Y-114599105D01*
X179424473Y-114624472D01*
X179394321Y-114661213D01*
X179323251Y-114747811D01*
X179248038Y-114888527D01*
X179215279Y-114996520D01*
X179201721Y-115041213D01*
X179186081Y-115200000D01*
X179190001Y-115239798D01*
X179190000Y-117871512D01*
X179186081Y-117911300D01*
X179190000Y-117951088D01*
X179190000Y-117951090D01*
X179201720Y-118070087D01*
X179248037Y-118222772D01*
X179269085Y-118262150D01*
X179323251Y-118363489D01*
X179347790Y-118393389D01*
X179424472Y-118486828D01*
X179455387Y-118512199D01*
X179995895Y-119052708D01*
X179986928Y-119143750D01*
X179986928Y-119656250D01*
X180003392Y-119823408D01*
X180052150Y-119984142D01*
X180131329Y-120132275D01*
X180237885Y-120262115D01*
X180367725Y-120368671D01*
X180515858Y-120447850D01*
X180676592Y-120496608D01*
X180843750Y-120513072D01*
X181030059Y-120513072D01*
X181316905Y-120799918D01*
X181342272Y-120830828D01*
X181373180Y-120856193D01*
X181465610Y-120932049D01*
X181517565Y-120959819D01*
X181606327Y-121007263D01*
X181759012Y-121053580D01*
X181878009Y-121065300D01*
X181878012Y-121065300D01*
X181917800Y-121069219D01*
X181957588Y-121065300D01*
X183880288Y-121065300D01*
X183966928Y-121151940D01*
X183966928Y-121266250D01*
X183983392Y-121433408D01*
X184032150Y-121594142D01*
X184111329Y-121742275D01*
X184217885Y-121872115D01*
X184258797Y-121905690D01*
X183715387Y-122449101D01*
X183684472Y-122474472D01*
X183629487Y-122541473D01*
X183583251Y-122597811D01*
X183564330Y-122633211D01*
X183508037Y-122738528D01*
X183461720Y-122891213D01*
X183456983Y-122939306D01*
X183456063Y-122940226D01*
X183342795Y-123109744D01*
X183264774Y-123298102D01*
X183225000Y-123498061D01*
X183225000Y-123701939D01*
X183264774Y-123901898D01*
X183342795Y-124090256D01*
X183456063Y-124259774D01*
X183600226Y-124403937D01*
X183769744Y-124517205D01*
X183958102Y-124595226D01*
X184158061Y-124635000D01*
X184361939Y-124635000D01*
X184561898Y-124595226D01*
X184750256Y-124517205D01*
X184902517Y-124415468D01*
X185069744Y-124527205D01*
X185258102Y-124605226D01*
X185458061Y-124645000D01*
X185661939Y-124645000D01*
X185861898Y-124605226D01*
X186050256Y-124527205D01*
X186219774Y-124413937D01*
X186353711Y-124280000D01*
X190145512Y-124280000D01*
X190185300Y-124283919D01*
X190225088Y-124280000D01*
X190225091Y-124280000D01*
X190344088Y-124268280D01*
X190496773Y-124221963D01*
X190637489Y-124146749D01*
X190760828Y-124045528D01*
X190786199Y-124014613D01*
X191088913Y-123711900D01*
X191625488Y-123711900D01*
X191902500Y-123988913D01*
X191902500Y-124325891D01*
X191887885Y-124337885D01*
X191781329Y-124467725D01*
X191702150Y-124615858D01*
X191653392Y-124776592D01*
X191636928Y-124943750D01*
X191636928Y-125456250D01*
X191653392Y-125623408D01*
X191702150Y-125784142D01*
X191781329Y-125932275D01*
X191887885Y-126062115D01*
X192017725Y-126168671D01*
X192165858Y-126247850D01*
X192304808Y-126290000D01*
X178034721Y-126290000D01*
X177944336Y-126281138D01*
X177890786Y-126264970D01*
X177841403Y-126238712D01*
X177798053Y-126203357D01*
X177762401Y-126160261D01*
X177735799Y-126111063D01*
X177719258Y-126057625D01*
X177710000Y-125969545D01*
X177710000Y-124446358D01*
X177750890Y-124651925D01*
X177919369Y-125058669D01*
X178163962Y-125424729D01*
X178475271Y-125736038D01*
X178841331Y-125980631D01*
X179248075Y-126149110D01*
X179679872Y-126235000D01*
X180120128Y-126235000D01*
X180551925Y-126149110D01*
X180958669Y-125980631D01*
X181324729Y-125736038D01*
X181636038Y-125424729D01*
X181880631Y-125058669D01*
X182049110Y-124651925D01*
X182135000Y-124220128D01*
X182135000Y-123779872D01*
X182049110Y-123348075D01*
X181880631Y-122941331D01*
X181636038Y-122575271D01*
X181324729Y-122263962D01*
X180958669Y-122019369D01*
X180551925Y-121850890D01*
X180120128Y-121765000D01*
X179679872Y-121765000D01*
X179248075Y-121850890D01*
X178841331Y-122019369D01*
X178475271Y-122263962D01*
X178163962Y-122575271D01*
X177919369Y-122941331D01*
X177750890Y-123348075D01*
X177710000Y-123553642D01*
X177710000Y-97146358D01*
X177750890Y-97351925D01*
X177919369Y-97758669D01*
X178163962Y-98124729D01*
X178475271Y-98436038D01*
X178841331Y-98680631D01*
X179248075Y-98849110D01*
X179679872Y-98935000D01*
X180120128Y-98935000D01*
X180551925Y-98849110D01*
X180958669Y-98680631D01*
X181324729Y-98436038D01*
X181636038Y-98124729D01*
X181880631Y-97758669D01*
X182049110Y-97351925D01*
X182135000Y-96920128D01*
X182135000Y-96479872D01*
X182049110Y-96048075D01*
X181880631Y-95641331D01*
X181636038Y-95275271D01*
X181324729Y-94963962D01*
X180958669Y-94719369D01*
X180936050Y-94710000D01*
X211965278Y-94710000D01*
X212055665Y-94718863D01*
G36*
X193620506Y-115900537D02*
G01*
X193688782Y-115937032D01*
X193756750Y-116005000D01*
X193847554Y-115994913D01*
X193850518Y-115995812D01*
X193975000Y-116008072D01*
X194375000Y-116008072D01*
X194499482Y-115995812D01*
X194500000Y-115995655D01*
X194500518Y-115995812D01*
X194625000Y-116008072D01*
X195025000Y-116008072D01*
X195149482Y-115995812D01*
X195150000Y-115995655D01*
X195150518Y-115995812D01*
X195275000Y-116008072D01*
X195675000Y-116008072D01*
X195799482Y-115995812D01*
X195800000Y-115995655D01*
X195800518Y-115995812D01*
X195925000Y-116008072D01*
X196008264Y-116008072D01*
X196023037Y-116056772D01*
X196023038Y-116056773D01*
X196098251Y-116197489D01*
X196129703Y-116235813D01*
X196199472Y-116320828D01*
X196230387Y-116346200D01*
X199004205Y-119120018D01*
X199029572Y-119150928D01*
X199152911Y-119252149D01*
X199293627Y-119327363D01*
X199446312Y-119373680D01*
X199565309Y-119385400D01*
X199565312Y-119385400D01*
X199605100Y-119389319D01*
X199644888Y-119385400D01*
X201859888Y-119385400D01*
X202787817Y-120313330D01*
X202280841Y-120367727D01*
X201785474Y-120522721D01*
X201368228Y-120745742D01*
X201152106Y-121112501D01*
X202820000Y-122780395D01*
X202834143Y-122766253D01*
X203013748Y-122945858D01*
X202999605Y-122960000D01*
X203013748Y-122974143D01*
X202834143Y-123153748D01*
X202820000Y-123139605D01*
X202805858Y-123153748D01*
X202626253Y-122974143D01*
X202640395Y-122960000D01*
X200972501Y-121292106D01*
X200605742Y-121508228D01*
X200365062Y-121968105D01*
X200218725Y-122466098D01*
X200172352Y-122983071D01*
X200227727Y-123499159D01*
X200382721Y-123994526D01*
X200605742Y-124411772D01*
X200972499Y-124627893D01*
X200858389Y-124742003D01*
X200866386Y-124750000D01*
X200061413Y-124750000D01*
X198286464Y-122975052D01*
X198395428Y-122885628D01*
X198420799Y-122854713D01*
X199084618Y-122190895D01*
X199115528Y-122165528D01*
X199177369Y-122090174D01*
X199216749Y-122042190D01*
X199291962Y-121901474D01*
X199291963Y-121901473D01*
X199338280Y-121748788D01*
X199350000Y-121629791D01*
X199350000Y-121629789D01*
X199353919Y-121590001D01*
X199350000Y-121550213D01*
X199350000Y-120422287D01*
X199353919Y-120382499D01*
X199349068Y-120333251D01*
X199338280Y-120223712D01*
X199291963Y-120071027D01*
X199245522Y-119984142D01*
X199216749Y-119930310D01*
X199152636Y-119852189D01*
X199115528Y-119806972D01*
X199084619Y-119781606D01*
X198543072Y-119240060D01*
X198543072Y-119053750D01*
X198526608Y-118886592D01*
X198477850Y-118725858D01*
X198398671Y-118577725D01*
X198292115Y-118447885D01*
X198162275Y-118341329D01*
X198014142Y-118262150D01*
X197853408Y-118213392D01*
X197686250Y-118196928D01*
X197499941Y-118196928D01*
X196699599Y-117396587D01*
X196674228Y-117365672D01*
X196550889Y-117264451D01*
X196410173Y-117189237D01*
X196257488Y-117142920D01*
X196138491Y-117131200D01*
X196138488Y-117131200D01*
X196098700Y-117127281D01*
X196058912Y-117131200D01*
X193912713Y-117131200D01*
X192789584Y-116008072D01*
X193075000Y-116008072D01*
X193199482Y-115995812D01*
X193202446Y-115994913D01*
X193293250Y-116005000D01*
X193361218Y-115937032D01*
X193429494Y-115900537D01*
X193525000Y-115822158D01*
X193620506Y-115900537D01*
X193620506Y-115900537D01*
G37*
X193620506Y-115900537D02*
X193688782Y-115937032D01*
X193756750Y-116005000D01*
X193847554Y-115994913D01*
X193850518Y-115995812D01*
X193975000Y-116008072D01*
X194375000Y-116008072D01*
X194499482Y-115995812D01*
X194500000Y-115995655D01*
X194500518Y-115995812D01*
X194625000Y-116008072D01*
X195025000Y-116008072D01*
X195149482Y-115995812D01*
X195150000Y-115995655D01*
X195150518Y-115995812D01*
X195275000Y-116008072D01*
X195675000Y-116008072D01*
X195799482Y-115995812D01*
X195800000Y-115995655D01*
X195800518Y-115995812D01*
X195925000Y-116008072D01*
X196008264Y-116008072D01*
X196023037Y-116056772D01*
X196023038Y-116056773D01*
X196098251Y-116197489D01*
X196129703Y-116235813D01*
X196199472Y-116320828D01*
X196230387Y-116346200D01*
X199004205Y-119120018D01*
X199029572Y-119150928D01*
X199152911Y-119252149D01*
X199293627Y-119327363D01*
X199446312Y-119373680D01*
X199565309Y-119385400D01*
X199565312Y-119385400D01*
X199605100Y-119389319D01*
X199644888Y-119385400D01*
X201859888Y-119385400D01*
X202787817Y-120313330D01*
X202280841Y-120367727D01*
X201785474Y-120522721D01*
X201368228Y-120745742D01*
X201152106Y-121112501D01*
X202820000Y-122780395D01*
X202834143Y-122766253D01*
X203013748Y-122945858D01*
X202999605Y-122960000D01*
X203013748Y-122974143D01*
X202834143Y-123153748D01*
X202820000Y-123139605D01*
X202805858Y-123153748D01*
X202626253Y-122974143D01*
X202640395Y-122960000D01*
X200972501Y-121292106D01*
X200605742Y-121508228D01*
X200365062Y-121968105D01*
X200218725Y-122466098D01*
X200172352Y-122983071D01*
X200227727Y-123499159D01*
X200382721Y-123994526D01*
X200605742Y-124411772D01*
X200972499Y-124627893D01*
X200858389Y-124742003D01*
X200866386Y-124750000D01*
X200061413Y-124750000D01*
X198286464Y-122975052D01*
X198395428Y-122885628D01*
X198420799Y-122854713D01*
X199084618Y-122190895D01*
X199115528Y-122165528D01*
X199177369Y-122090174D01*
X199216749Y-122042190D01*
X199291962Y-121901474D01*
X199291963Y-121901473D01*
X199338280Y-121748788D01*
X199350000Y-121629791D01*
X199350000Y-121629789D01*
X199353919Y-121590001D01*
X199350000Y-121550213D01*
X199350000Y-120422287D01*
X199353919Y-120382499D01*
X199349068Y-120333251D01*
X199338280Y-120223712D01*
X199291963Y-120071027D01*
X199245522Y-119984142D01*
X199216749Y-119930310D01*
X199152636Y-119852189D01*
X199115528Y-119806972D01*
X199084619Y-119781606D01*
X198543072Y-119240060D01*
X198543072Y-119053750D01*
X198526608Y-118886592D01*
X198477850Y-118725858D01*
X198398671Y-118577725D01*
X198292115Y-118447885D01*
X198162275Y-118341329D01*
X198014142Y-118262150D01*
X197853408Y-118213392D01*
X197686250Y-118196928D01*
X197499941Y-118196928D01*
X196699599Y-117396587D01*
X196674228Y-117365672D01*
X196550889Y-117264451D01*
X196410173Y-117189237D01*
X196257488Y-117142920D01*
X196138491Y-117131200D01*
X196138488Y-117131200D01*
X196098700Y-117127281D01*
X196058912Y-117131200D01*
X193912713Y-117131200D01*
X192789584Y-116008072D01*
X193075000Y-116008072D01*
X193199482Y-115995812D01*
X193202446Y-115994913D01*
X193293250Y-116005000D01*
X193361218Y-115937032D01*
X193429494Y-115900537D01*
X193525000Y-115822158D01*
X193620506Y-115900537D01*
G36*
X192719500Y-120883000D02*
G01*
X192739500Y-120883000D01*
X192739500Y-121137000D01*
X192719500Y-121137000D01*
X192719500Y-121961250D01*
X192878250Y-122120000D01*
X193030000Y-122123072D01*
X193154482Y-122110812D01*
X193274180Y-122074502D01*
X193384494Y-122015537D01*
X193451070Y-121960900D01*
X193472725Y-121978671D01*
X193620858Y-122057850D01*
X193739699Y-122093900D01*
X193501787Y-122093900D01*
X193461999Y-122089981D01*
X193422211Y-122093900D01*
X193422209Y-122093900D01*
X193303212Y-122105620D01*
X193150527Y-122151937D01*
X193101276Y-122178262D01*
X193009810Y-122227151D01*
X192993887Y-122240219D01*
X192886472Y-122328372D01*
X192861107Y-122359280D01*
X192712500Y-122507887D01*
X192561899Y-122357287D01*
X192536528Y-122326372D01*
X192413189Y-122225151D01*
X192272473Y-122149937D01*
X192182103Y-122122523D01*
X192306750Y-122120000D01*
X192465500Y-121961250D01*
X192465500Y-121137000D01*
X192445500Y-121137000D01*
X192445500Y-120883000D01*
X192465500Y-120883000D01*
X192465500Y-120863000D01*
X192719500Y-120863000D01*
X192719500Y-120883000D01*
X192719500Y-120883000D01*
G37*
X192719500Y-120883000D02*
X192739500Y-120883000D01*
X192739500Y-121137000D01*
X192719500Y-121137000D01*
X192719500Y-121961250D01*
X192878250Y-122120000D01*
X193030000Y-122123072D01*
X193154482Y-122110812D01*
X193274180Y-122074502D01*
X193384494Y-122015537D01*
X193451070Y-121960900D01*
X193472725Y-121978671D01*
X193620858Y-122057850D01*
X193739699Y-122093900D01*
X193501787Y-122093900D01*
X193461999Y-122089981D01*
X193422211Y-122093900D01*
X193422209Y-122093900D01*
X193303212Y-122105620D01*
X193150527Y-122151937D01*
X193101276Y-122178262D01*
X193009810Y-122227151D01*
X192993887Y-122240219D01*
X192886472Y-122328372D01*
X192861107Y-122359280D01*
X192712500Y-122507887D01*
X192561899Y-122357287D01*
X192536528Y-122326372D01*
X192413189Y-122225151D01*
X192272473Y-122149937D01*
X192182103Y-122122523D01*
X192306750Y-122120000D01*
X192465500Y-121961250D01*
X192465500Y-121137000D01*
X192445500Y-121137000D01*
X192445500Y-120883000D01*
X192465500Y-120883000D01*
X192465500Y-120863000D01*
X192719500Y-120863000D01*
X192719500Y-120883000D01*
G36*
X185169500Y-119183000D02*
G01*
X185189500Y-119183000D01*
X185189500Y-119437000D01*
X185169500Y-119437000D01*
X185169500Y-119457000D01*
X185025800Y-119457000D01*
X185025800Y-119163000D01*
X185169500Y-119163000D01*
X185169500Y-119183000D01*
X185169500Y-119183000D01*
G37*
X185169500Y-119183000D02*
X185189500Y-119183000D01*
X185189500Y-119437000D01*
X185169500Y-119437000D01*
X185169500Y-119457000D01*
X185025800Y-119457000D01*
X185025800Y-119163000D01*
X185169500Y-119163000D01*
X185169500Y-119183000D01*
G36*
X190370833Y-118233845D02*
G01*
X190303408Y-118213392D01*
X190136250Y-118196928D01*
X189698750Y-118196928D01*
X189531592Y-118213392D01*
X189370858Y-118262150D01*
X189222725Y-118341329D01*
X189130000Y-118417426D01*
X189037275Y-118341329D01*
X188889142Y-118262150D01*
X188728408Y-118213392D01*
X188561250Y-118196928D01*
X188123750Y-118196928D01*
X187956592Y-118213392D01*
X187795858Y-118262150D01*
X187647725Y-118341329D01*
X187517885Y-118447885D01*
X187480000Y-118494048D01*
X187442115Y-118447885D01*
X187312275Y-118341329D01*
X187164142Y-118262150D01*
X187003408Y-118213392D01*
X186836250Y-118196928D01*
X186398750Y-118196928D01*
X186231592Y-118213392D01*
X186070858Y-118262150D01*
X185922725Y-118341329D01*
X185901070Y-118359100D01*
X185843258Y-118311655D01*
X186193013Y-117961900D01*
X190098888Y-117961900D01*
X190370833Y-118233845D01*
X190370833Y-118233845D01*
G37*
X190370833Y-118233845D02*
X190303408Y-118213392D01*
X190136250Y-118196928D01*
X189698750Y-118196928D01*
X189531592Y-118213392D01*
X189370858Y-118262150D01*
X189222725Y-118341329D01*
X189130000Y-118417426D01*
X189037275Y-118341329D01*
X188889142Y-118262150D01*
X188728408Y-118213392D01*
X188561250Y-118196928D01*
X188123750Y-118196928D01*
X187956592Y-118213392D01*
X187795858Y-118262150D01*
X187647725Y-118341329D01*
X187517885Y-118447885D01*
X187480000Y-118494048D01*
X187442115Y-118447885D01*
X187312275Y-118341329D01*
X187164142Y-118262150D01*
X187003408Y-118213392D01*
X186836250Y-118196928D01*
X186398750Y-118196928D01*
X186231592Y-118213392D01*
X186070858Y-118262150D01*
X185922725Y-118341329D01*
X185901070Y-118359100D01*
X185843258Y-118311655D01*
X186193013Y-117961900D01*
X190098888Y-117961900D01*
X190370833Y-118233845D01*
G36*
X190166716Y-107931928D02*
G01*
X190075000Y-107931928D01*
X189950518Y-107944188D01*
X189950000Y-107944345D01*
X189949482Y-107944188D01*
X189825000Y-107931928D01*
X189425000Y-107931928D01*
X189300518Y-107944188D01*
X189180820Y-107980498D01*
X189070506Y-108039463D01*
X188973815Y-108118815D01*
X188894463Y-108215506D01*
X188835498Y-108325820D01*
X188799188Y-108445518D01*
X188786928Y-108570000D01*
X188786928Y-109323429D01*
X188702510Y-109368551D01*
X188665278Y-109399107D01*
X188579172Y-109469772D01*
X188553805Y-109500682D01*
X186619849Y-111434639D01*
X186505183Y-111220113D01*
X186330608Y-111007392D01*
X186321601Y-111000000D01*
X186330608Y-110992608D01*
X186505183Y-110779887D01*
X186634904Y-110537195D01*
X186714786Y-110273860D01*
X186741759Y-110000000D01*
X186714786Y-109726140D01*
X186634904Y-109462805D01*
X186505183Y-109220113D01*
X186330608Y-109007392D01*
X186314337Y-108994039D01*
X186462135Y-108830330D01*
X186602524Y-108595068D01*
X186692220Y-108343070D01*
X186569720Y-108127000D01*
X185327000Y-108127000D01*
X185327000Y-108147000D01*
X185073000Y-108147000D01*
X185073000Y-108127000D01*
X185053000Y-108127000D01*
X185053000Y-107873000D01*
X185073000Y-107873000D01*
X185073000Y-107853000D01*
X185327000Y-107853000D01*
X185327000Y-107873000D01*
X186569720Y-107873000D01*
X186692220Y-107656930D01*
X186604328Y-107410000D01*
X189644788Y-107410000D01*
X190166716Y-107931928D01*
X190166716Y-107931928D01*
G37*
X190166716Y-107931928D02*
X190075000Y-107931928D01*
X189950518Y-107944188D01*
X189950000Y-107944345D01*
X189949482Y-107944188D01*
X189825000Y-107931928D01*
X189425000Y-107931928D01*
X189300518Y-107944188D01*
X189180820Y-107980498D01*
X189070506Y-108039463D01*
X188973815Y-108118815D01*
X188894463Y-108215506D01*
X188835498Y-108325820D01*
X188799188Y-108445518D01*
X188786928Y-108570000D01*
X188786928Y-109323429D01*
X188702510Y-109368551D01*
X188665278Y-109399107D01*
X188579172Y-109469772D01*
X188553805Y-109500682D01*
X186619849Y-111434639D01*
X186505183Y-111220113D01*
X186330608Y-111007392D01*
X186321601Y-111000000D01*
X186330608Y-110992608D01*
X186505183Y-110779887D01*
X186634904Y-110537195D01*
X186714786Y-110273860D01*
X186741759Y-110000000D01*
X186714786Y-109726140D01*
X186634904Y-109462805D01*
X186505183Y-109220113D01*
X186330608Y-109007392D01*
X186314337Y-108994039D01*
X186462135Y-108830330D01*
X186602524Y-108595068D01*
X186692220Y-108343070D01*
X186569720Y-108127000D01*
X185327000Y-108127000D01*
X185327000Y-108147000D01*
X185073000Y-108147000D01*
X185073000Y-108127000D01*
X185053000Y-108127000D01*
X185053000Y-107873000D01*
X185073000Y-107873000D01*
X185073000Y-107853000D01*
X185327000Y-107853000D01*
X185327000Y-107873000D01*
X186569720Y-107873000D01*
X186692220Y-107656930D01*
X186604328Y-107410000D01*
X189644788Y-107410000D01*
X190166716Y-107931928D01*
G36*
X189978000Y-105464250D02*
G01*
X190136750Y-105623000D01*
X190923500Y-105623000D01*
X190923500Y-105603000D01*
X191132788Y-105603000D01*
X191197500Y-105667713D01*
X191197500Y-105877000D01*
X191177500Y-105877000D01*
X191177500Y-105897000D01*
X190923500Y-105897000D01*
X190923500Y-105877000D01*
X190345959Y-105877000D01*
X190291773Y-105848037D01*
X190139088Y-105801720D01*
X190020091Y-105790000D01*
X190020088Y-105790000D01*
X189980300Y-105786081D01*
X189940512Y-105790000D01*
X187429325Y-105790000D01*
X187559774Y-105702837D01*
X187703937Y-105558674D01*
X187783232Y-105440000D01*
X189977606Y-105440000D01*
X189978000Y-105464250D01*
X189978000Y-105464250D01*
G37*
X189978000Y-105464250D02*
X190136750Y-105623000D01*
X190923500Y-105623000D01*
X190923500Y-105603000D01*
X191132788Y-105603000D01*
X191197500Y-105667713D01*
X191197500Y-105877000D01*
X191177500Y-105877000D01*
X191177500Y-105897000D01*
X190923500Y-105897000D01*
X190923500Y-105877000D01*
X190345959Y-105877000D01*
X190291773Y-105848037D01*
X190139088Y-105801720D01*
X190020091Y-105790000D01*
X190020088Y-105790000D01*
X189980300Y-105786081D01*
X189940512Y-105790000D01*
X187429325Y-105790000D01*
X187559774Y-105702837D01*
X187703937Y-105558674D01*
X187783232Y-105440000D01*
X189977606Y-105440000D01*
X189978000Y-105464250D01*
G36*
X200884750Y-103580263D02*
G01*
X200783708Y-103616397D01*
X200658486Y-103683329D01*
X200586903Y-103927298D01*
X201400000Y-104740395D01*
X201414143Y-104726253D01*
X201593748Y-104905858D01*
X201579605Y-104920000D01*
X201593748Y-104934143D01*
X201414143Y-105113748D01*
X201400000Y-105099605D01*
X201385858Y-105113748D01*
X201206253Y-104934143D01*
X201220395Y-104920000D01*
X200407298Y-104106903D01*
X200163329Y-104178486D01*
X200042429Y-104433996D01*
X199973700Y-104708184D01*
X199959783Y-104990512D01*
X200001213Y-105270130D01*
X200072690Y-105470000D01*
X197498733Y-105470000D01*
X197484608Y-105326592D01*
X197435850Y-105165858D01*
X197387324Y-105075072D01*
X197456250Y-105075072D01*
X197623408Y-105058608D01*
X197784142Y-105009850D01*
X197932275Y-104930671D01*
X198062115Y-104824115D01*
X198168671Y-104694275D01*
X198247850Y-104546142D01*
X198296608Y-104385408D01*
X198313072Y-104218250D01*
X198313072Y-103780750D01*
X198296608Y-103613592D01*
X198247850Y-103452858D01*
X198168671Y-103304725D01*
X198150900Y-103283070D01*
X198205537Y-103216494D01*
X198264502Y-103106180D01*
X198300812Y-102986482D01*
X198313072Y-102862000D01*
X198310000Y-102710250D01*
X198151250Y-102551500D01*
X197327000Y-102551500D01*
X197327000Y-102571500D01*
X197073000Y-102571500D01*
X197073000Y-102551500D01*
X197053000Y-102551500D01*
X197053000Y-102297500D01*
X197073000Y-102297500D01*
X197073000Y-101510750D01*
X197327000Y-101510750D01*
X197327000Y-102297500D01*
X198151250Y-102297500D01*
X198310000Y-102138750D01*
X198313072Y-101987000D01*
X198300812Y-101862518D01*
X198264502Y-101742820D01*
X198205537Y-101632506D01*
X198126185Y-101535815D01*
X198029494Y-101456463D01*
X197919180Y-101397498D01*
X197799482Y-101361188D01*
X197675000Y-101348928D01*
X197485750Y-101352000D01*
X197327000Y-101510750D01*
X197073000Y-101510750D01*
X196914250Y-101352000D01*
X196725000Y-101348928D01*
X196600518Y-101361188D01*
X196488072Y-101395298D01*
X196488072Y-101100000D01*
X196475812Y-100975518D01*
X196439502Y-100855820D01*
X196380537Y-100745506D01*
X196301185Y-100648815D01*
X196204494Y-100569463D01*
X196094180Y-100510498D01*
X195974482Y-100474188D01*
X195850000Y-100461928D01*
X191350000Y-100461928D01*
X191225518Y-100474188D01*
X191105820Y-100510498D01*
X190995506Y-100569463D01*
X190898815Y-100648815D01*
X190819463Y-100745506D01*
X190760498Y-100855820D01*
X190724188Y-100975518D01*
X190711928Y-101100000D01*
X190711928Y-102870000D01*
X187988072Y-102870000D01*
X187988072Y-101100000D01*
X187975812Y-100975518D01*
X187939502Y-100855820D01*
X187880537Y-100745506D01*
X187801185Y-100648815D01*
X187704494Y-100569463D01*
X187594180Y-100510498D01*
X187474482Y-100474188D01*
X187350000Y-100461928D01*
X182973585Y-100461928D01*
X184525513Y-98910000D01*
X184545116Y-98910000D01*
X184587885Y-98962115D01*
X184717725Y-99068671D01*
X184865858Y-99147850D01*
X185026592Y-99196608D01*
X185193750Y-99213072D01*
X185631250Y-99213072D01*
X185798408Y-99196608D01*
X185959142Y-99147850D01*
X186107275Y-99068671D01*
X186200000Y-98992574D01*
X186292725Y-99068671D01*
X186440858Y-99147850D01*
X186601592Y-99196608D01*
X186768750Y-99213072D01*
X187206250Y-99213072D01*
X187373408Y-99196608D01*
X187534142Y-99147850D01*
X187682275Y-99068671D01*
X187812115Y-98962115D01*
X187854884Y-98910000D01*
X189757116Y-98910000D01*
X189799885Y-98962115D01*
X189929725Y-99068671D01*
X190077858Y-99147850D01*
X190238592Y-99196608D01*
X190405750Y-99213072D01*
X190843250Y-99213072D01*
X191010408Y-99196608D01*
X191171142Y-99147850D01*
X191319275Y-99068671D01*
X191340930Y-99050900D01*
X191407506Y-99105537D01*
X191517820Y-99164502D01*
X191637518Y-99200812D01*
X191762000Y-99213072D01*
X191913750Y-99210000D01*
X192072500Y-99051250D01*
X192072500Y-98227000D01*
X192326500Y-98227000D01*
X192326500Y-99051250D01*
X192485250Y-99210000D01*
X192637000Y-99213072D01*
X192761482Y-99200812D01*
X192881180Y-99164502D01*
X192991494Y-99105537D01*
X193088185Y-99026185D01*
X193167537Y-98929494D01*
X193226502Y-98819180D01*
X193262812Y-98699482D01*
X193275072Y-98575000D01*
X193272000Y-98385750D01*
X193113250Y-98227000D01*
X192326500Y-98227000D01*
X192072500Y-98227000D01*
X192052500Y-98227000D01*
X192052500Y-97973000D01*
X192072500Y-97973000D01*
X192072500Y-97953000D01*
X192326500Y-97953000D01*
X192326500Y-97973000D01*
X193113250Y-97973000D01*
X193272000Y-97814250D01*
X193273530Y-97720000D01*
X195024488Y-97720000D01*
X200884750Y-103580263D01*
X200884750Y-103580263D01*
G37*
X200884750Y-103580263D02*
X200783708Y-103616397D01*
X200658486Y-103683329D01*
X200586903Y-103927298D01*
X201400000Y-104740395D01*
X201414143Y-104726253D01*
X201593748Y-104905858D01*
X201579605Y-104920000D01*
X201593748Y-104934143D01*
X201414143Y-105113748D01*
X201400000Y-105099605D01*
X201385858Y-105113748D01*
X201206253Y-104934143D01*
X201220395Y-104920000D01*
X200407298Y-104106903D01*
X200163329Y-104178486D01*
X200042429Y-104433996D01*
X199973700Y-104708184D01*
X199959783Y-104990512D01*
X200001213Y-105270130D01*
X200072690Y-105470000D01*
X197498733Y-105470000D01*
X197484608Y-105326592D01*
X197435850Y-105165858D01*
X197387324Y-105075072D01*
X197456250Y-105075072D01*
X197623408Y-105058608D01*
X197784142Y-105009850D01*
X197932275Y-104930671D01*
X198062115Y-104824115D01*
X198168671Y-104694275D01*
X198247850Y-104546142D01*
X198296608Y-104385408D01*
X198313072Y-104218250D01*
X198313072Y-103780750D01*
X198296608Y-103613592D01*
X198247850Y-103452858D01*
X198168671Y-103304725D01*
X198150900Y-103283070D01*
X198205537Y-103216494D01*
X198264502Y-103106180D01*
X198300812Y-102986482D01*
X198313072Y-102862000D01*
X198310000Y-102710250D01*
X198151250Y-102551500D01*
X197327000Y-102551500D01*
X197327000Y-102571500D01*
X197073000Y-102571500D01*
X197073000Y-102551500D01*
X197053000Y-102551500D01*
X197053000Y-102297500D01*
X197073000Y-102297500D01*
X197073000Y-101510750D01*
X197327000Y-101510750D01*
X197327000Y-102297500D01*
X198151250Y-102297500D01*
X198310000Y-102138750D01*
X198313072Y-101987000D01*
X198300812Y-101862518D01*
X198264502Y-101742820D01*
X198205537Y-101632506D01*
X198126185Y-101535815D01*
X198029494Y-101456463D01*
X197919180Y-101397498D01*
X197799482Y-101361188D01*
X197675000Y-101348928D01*
X197485750Y-101352000D01*
X197327000Y-101510750D01*
X197073000Y-101510750D01*
X196914250Y-101352000D01*
X196725000Y-101348928D01*
X196600518Y-101361188D01*
X196488072Y-101395298D01*
X196488072Y-101100000D01*
X196475812Y-100975518D01*
X196439502Y-100855820D01*
X196380537Y-100745506D01*
X196301185Y-100648815D01*
X196204494Y-100569463D01*
X196094180Y-100510498D01*
X195974482Y-100474188D01*
X195850000Y-100461928D01*
X191350000Y-100461928D01*
X191225518Y-100474188D01*
X191105820Y-100510498D01*
X190995506Y-100569463D01*
X190898815Y-100648815D01*
X190819463Y-100745506D01*
X190760498Y-100855820D01*
X190724188Y-100975518D01*
X190711928Y-101100000D01*
X190711928Y-102870000D01*
X187988072Y-102870000D01*
X187988072Y-101100000D01*
X187975812Y-100975518D01*
X187939502Y-100855820D01*
X187880537Y-100745506D01*
X187801185Y-100648815D01*
X187704494Y-100569463D01*
X187594180Y-100510498D01*
X187474482Y-100474188D01*
X187350000Y-100461928D01*
X182973585Y-100461928D01*
X184525513Y-98910000D01*
X184545116Y-98910000D01*
X184587885Y-98962115D01*
X184717725Y-99068671D01*
X184865858Y-99147850D01*
X185026592Y-99196608D01*
X185193750Y-99213072D01*
X185631250Y-99213072D01*
X185798408Y-99196608D01*
X185959142Y-99147850D01*
X186107275Y-99068671D01*
X186200000Y-98992574D01*
X186292725Y-99068671D01*
X186440858Y-99147850D01*
X186601592Y-99196608D01*
X186768750Y-99213072D01*
X187206250Y-99213072D01*
X187373408Y-99196608D01*
X187534142Y-99147850D01*
X187682275Y-99068671D01*
X187812115Y-98962115D01*
X187854884Y-98910000D01*
X189757116Y-98910000D01*
X189799885Y-98962115D01*
X189929725Y-99068671D01*
X190077858Y-99147850D01*
X190238592Y-99196608D01*
X190405750Y-99213072D01*
X190843250Y-99213072D01*
X191010408Y-99196608D01*
X191171142Y-99147850D01*
X191319275Y-99068671D01*
X191340930Y-99050900D01*
X191407506Y-99105537D01*
X191517820Y-99164502D01*
X191637518Y-99200812D01*
X191762000Y-99213072D01*
X191913750Y-99210000D01*
X192072500Y-99051250D01*
X192072500Y-98227000D01*
X192326500Y-98227000D01*
X192326500Y-99051250D01*
X192485250Y-99210000D01*
X192637000Y-99213072D01*
X192761482Y-99200812D01*
X192881180Y-99164502D01*
X192991494Y-99105537D01*
X193088185Y-99026185D01*
X193167537Y-98929494D01*
X193226502Y-98819180D01*
X193262812Y-98699482D01*
X193275072Y-98575000D01*
X193272000Y-98385750D01*
X193113250Y-98227000D01*
X192326500Y-98227000D01*
X192072500Y-98227000D01*
X192052500Y-98227000D01*
X192052500Y-97973000D01*
X192072500Y-97973000D01*
X192072500Y-97953000D01*
X192326500Y-97953000D01*
X192326500Y-97973000D01*
X193113250Y-97973000D01*
X193272000Y-97814250D01*
X193273530Y-97720000D01*
X195024488Y-97720000D01*
X200884750Y-103580263D01*
G36*
X181727000Y-102297500D02*
G01*
X181747000Y-102297500D01*
X181747000Y-102551500D01*
X181727000Y-102551500D01*
X181727000Y-102571500D01*
X181473000Y-102571500D01*
X181473000Y-102551500D01*
X181453000Y-102551500D01*
X181453000Y-102297500D01*
X181473000Y-102297500D01*
X181473000Y-102277500D01*
X181727000Y-102277500D01*
X181727000Y-102297500D01*
X181727000Y-102297500D01*
G37*
X181727000Y-102297500D02*
X181747000Y-102297500D01*
X181747000Y-102551500D01*
X181727000Y-102551500D01*
X181727000Y-102571500D01*
X181473000Y-102571500D01*
X181473000Y-102551500D01*
X181453000Y-102551500D01*
X181453000Y-102297500D01*
X181473000Y-102297500D01*
X181473000Y-102277500D01*
X181727000Y-102277500D01*
X181727000Y-102297500D01*
M02*
