G04 #@! TF.GenerationSoftware,KiCad,Pcbnew,(5.1.2)-1*
G04 #@! TF.CreationDate,2023-02-04T08:31:17+09:00*
G04 #@! TF.ProjectId,IR,49522e6b-6963-4616-945f-706362585858,v1.2*
G04 #@! TF.SameCoordinates,Original*
G04 #@! TF.FileFunction,Paste,Top*
G04 #@! TF.FilePolarity,Positive*
%FSLAX46Y46*%
G04 Gerber Fmt 4.6, Leading zero omitted, Abs format (unit mm)*
G04 Created by KiCad (PCBNEW (5.1.2)-1) date 2023-02-04 08:31:17*
%MOMM*%
%LPD*%
G04 APERTURE LIST*
%ADD10O,1.800000X1.524000*%
%ADD11C,0.050000*%
%ADD12C,0.875000*%
%ADD13R,4.500000X2.000000*%
%ADD14R,0.400000X1.100000*%
G04 APERTURE END LIST*
D10*
X185200000Y-114000000D03*
X185200000Y-112000000D03*
X185200000Y-110000000D03*
X185200000Y-108000000D03*
D11*
G36*
X192865691Y-105276053D02*
G01*
X192886926Y-105279203D01*
X192907750Y-105284419D01*
X192927962Y-105291651D01*
X192947368Y-105300830D01*
X192965781Y-105311866D01*
X192983024Y-105324654D01*
X192998930Y-105339070D01*
X193013346Y-105354976D01*
X193026134Y-105372219D01*
X193037170Y-105390632D01*
X193046349Y-105410038D01*
X193053581Y-105430250D01*
X193058797Y-105451074D01*
X193061947Y-105472309D01*
X193063000Y-105493750D01*
X193063000Y-106006250D01*
X193061947Y-106027691D01*
X193058797Y-106048926D01*
X193053581Y-106069750D01*
X193046349Y-106089962D01*
X193037170Y-106109368D01*
X193026134Y-106127781D01*
X193013346Y-106145024D01*
X192998930Y-106160930D01*
X192983024Y-106175346D01*
X192965781Y-106188134D01*
X192947368Y-106199170D01*
X192927962Y-106208349D01*
X192907750Y-106215581D01*
X192886926Y-106220797D01*
X192865691Y-106223947D01*
X192844250Y-106225000D01*
X192406750Y-106225000D01*
X192385309Y-106223947D01*
X192364074Y-106220797D01*
X192343250Y-106215581D01*
X192323038Y-106208349D01*
X192303632Y-106199170D01*
X192285219Y-106188134D01*
X192267976Y-106175346D01*
X192252070Y-106160930D01*
X192237654Y-106145024D01*
X192224866Y-106127781D01*
X192213830Y-106109368D01*
X192204651Y-106089962D01*
X192197419Y-106069750D01*
X192192203Y-106048926D01*
X192189053Y-106027691D01*
X192188000Y-106006250D01*
X192188000Y-105493750D01*
X192189053Y-105472309D01*
X192192203Y-105451074D01*
X192197419Y-105430250D01*
X192204651Y-105410038D01*
X192213830Y-105390632D01*
X192224866Y-105372219D01*
X192237654Y-105354976D01*
X192252070Y-105339070D01*
X192267976Y-105324654D01*
X192285219Y-105311866D01*
X192303632Y-105300830D01*
X192323038Y-105291651D01*
X192343250Y-105284419D01*
X192364074Y-105279203D01*
X192385309Y-105276053D01*
X192406750Y-105275000D01*
X192844250Y-105275000D01*
X192865691Y-105276053D01*
X192865691Y-105276053D01*
G37*
D12*
X192625500Y-105750000D03*
D11*
G36*
X191290691Y-105276053D02*
G01*
X191311926Y-105279203D01*
X191332750Y-105284419D01*
X191352962Y-105291651D01*
X191372368Y-105300830D01*
X191390781Y-105311866D01*
X191408024Y-105324654D01*
X191423930Y-105339070D01*
X191438346Y-105354976D01*
X191451134Y-105372219D01*
X191462170Y-105390632D01*
X191471349Y-105410038D01*
X191478581Y-105430250D01*
X191483797Y-105451074D01*
X191486947Y-105472309D01*
X191488000Y-105493750D01*
X191488000Y-106006250D01*
X191486947Y-106027691D01*
X191483797Y-106048926D01*
X191478581Y-106069750D01*
X191471349Y-106089962D01*
X191462170Y-106109368D01*
X191451134Y-106127781D01*
X191438346Y-106145024D01*
X191423930Y-106160930D01*
X191408024Y-106175346D01*
X191390781Y-106188134D01*
X191372368Y-106199170D01*
X191352962Y-106208349D01*
X191332750Y-106215581D01*
X191311926Y-106220797D01*
X191290691Y-106223947D01*
X191269250Y-106225000D01*
X190831750Y-106225000D01*
X190810309Y-106223947D01*
X190789074Y-106220797D01*
X190768250Y-106215581D01*
X190748038Y-106208349D01*
X190728632Y-106199170D01*
X190710219Y-106188134D01*
X190692976Y-106175346D01*
X190677070Y-106160930D01*
X190662654Y-106145024D01*
X190649866Y-106127781D01*
X190638830Y-106109368D01*
X190629651Y-106089962D01*
X190622419Y-106069750D01*
X190617203Y-106048926D01*
X190614053Y-106027691D01*
X190613000Y-106006250D01*
X190613000Y-105493750D01*
X190614053Y-105472309D01*
X190617203Y-105451074D01*
X190622419Y-105430250D01*
X190629651Y-105410038D01*
X190638830Y-105390632D01*
X190649866Y-105372219D01*
X190662654Y-105354976D01*
X190677070Y-105339070D01*
X190692976Y-105324654D01*
X190710219Y-105311866D01*
X190728632Y-105300830D01*
X190748038Y-105291651D01*
X190768250Y-105284419D01*
X190789074Y-105279203D01*
X190810309Y-105276053D01*
X190831750Y-105275000D01*
X191269250Y-105275000D01*
X191290691Y-105276053D01*
X191290691Y-105276053D01*
G37*
D12*
X191050500Y-105750000D03*
D11*
G36*
X197477691Y-101988053D02*
G01*
X197498926Y-101991203D01*
X197519750Y-101996419D01*
X197539962Y-102003651D01*
X197559368Y-102012830D01*
X197577781Y-102023866D01*
X197595024Y-102036654D01*
X197610930Y-102051070D01*
X197625346Y-102066976D01*
X197638134Y-102084219D01*
X197649170Y-102102632D01*
X197658349Y-102122038D01*
X197665581Y-102142250D01*
X197670797Y-102163074D01*
X197673947Y-102184309D01*
X197675000Y-102205750D01*
X197675000Y-102643250D01*
X197673947Y-102664691D01*
X197670797Y-102685926D01*
X197665581Y-102706750D01*
X197658349Y-102726962D01*
X197649170Y-102746368D01*
X197638134Y-102764781D01*
X197625346Y-102782024D01*
X197610930Y-102797930D01*
X197595024Y-102812346D01*
X197577781Y-102825134D01*
X197559368Y-102836170D01*
X197539962Y-102845349D01*
X197519750Y-102852581D01*
X197498926Y-102857797D01*
X197477691Y-102860947D01*
X197456250Y-102862000D01*
X196943750Y-102862000D01*
X196922309Y-102860947D01*
X196901074Y-102857797D01*
X196880250Y-102852581D01*
X196860038Y-102845349D01*
X196840632Y-102836170D01*
X196822219Y-102825134D01*
X196804976Y-102812346D01*
X196789070Y-102797930D01*
X196774654Y-102782024D01*
X196761866Y-102764781D01*
X196750830Y-102746368D01*
X196741651Y-102726962D01*
X196734419Y-102706750D01*
X196729203Y-102685926D01*
X196726053Y-102664691D01*
X196725000Y-102643250D01*
X196725000Y-102205750D01*
X196726053Y-102184309D01*
X196729203Y-102163074D01*
X196734419Y-102142250D01*
X196741651Y-102122038D01*
X196750830Y-102102632D01*
X196761866Y-102084219D01*
X196774654Y-102066976D01*
X196789070Y-102051070D01*
X196804976Y-102036654D01*
X196822219Y-102023866D01*
X196840632Y-102012830D01*
X196860038Y-102003651D01*
X196880250Y-101996419D01*
X196901074Y-101991203D01*
X196922309Y-101988053D01*
X196943750Y-101987000D01*
X197456250Y-101987000D01*
X197477691Y-101988053D01*
X197477691Y-101988053D01*
G37*
D12*
X197200000Y-102424500D03*
D11*
G36*
X197477691Y-103563053D02*
G01*
X197498926Y-103566203D01*
X197519750Y-103571419D01*
X197539962Y-103578651D01*
X197559368Y-103587830D01*
X197577781Y-103598866D01*
X197595024Y-103611654D01*
X197610930Y-103626070D01*
X197625346Y-103641976D01*
X197638134Y-103659219D01*
X197649170Y-103677632D01*
X197658349Y-103697038D01*
X197665581Y-103717250D01*
X197670797Y-103738074D01*
X197673947Y-103759309D01*
X197675000Y-103780750D01*
X197675000Y-104218250D01*
X197673947Y-104239691D01*
X197670797Y-104260926D01*
X197665581Y-104281750D01*
X197658349Y-104301962D01*
X197649170Y-104321368D01*
X197638134Y-104339781D01*
X197625346Y-104357024D01*
X197610930Y-104372930D01*
X197595024Y-104387346D01*
X197577781Y-104400134D01*
X197559368Y-104411170D01*
X197539962Y-104420349D01*
X197519750Y-104427581D01*
X197498926Y-104432797D01*
X197477691Y-104435947D01*
X197456250Y-104437000D01*
X196943750Y-104437000D01*
X196922309Y-104435947D01*
X196901074Y-104432797D01*
X196880250Y-104427581D01*
X196860038Y-104420349D01*
X196840632Y-104411170D01*
X196822219Y-104400134D01*
X196804976Y-104387346D01*
X196789070Y-104372930D01*
X196774654Y-104357024D01*
X196761866Y-104339781D01*
X196750830Y-104321368D01*
X196741651Y-104301962D01*
X196734419Y-104281750D01*
X196729203Y-104260926D01*
X196726053Y-104239691D01*
X196725000Y-104218250D01*
X196725000Y-103780750D01*
X196726053Y-103759309D01*
X196729203Y-103738074D01*
X196734419Y-103717250D01*
X196741651Y-103697038D01*
X196750830Y-103677632D01*
X196761866Y-103659219D01*
X196774654Y-103641976D01*
X196789070Y-103626070D01*
X196804976Y-103611654D01*
X196822219Y-103598866D01*
X196840632Y-103587830D01*
X196860038Y-103578651D01*
X196880250Y-103571419D01*
X196901074Y-103566203D01*
X196922309Y-103563053D01*
X196943750Y-103562000D01*
X197456250Y-103562000D01*
X197477691Y-103563053D01*
X197477691Y-103563053D01*
G37*
D12*
X197200000Y-103999500D03*
D11*
G36*
X181877691Y-103563053D02*
G01*
X181898926Y-103566203D01*
X181919750Y-103571419D01*
X181939962Y-103578651D01*
X181959368Y-103587830D01*
X181977781Y-103598866D01*
X181995024Y-103611654D01*
X182010930Y-103626070D01*
X182025346Y-103641976D01*
X182038134Y-103659219D01*
X182049170Y-103677632D01*
X182058349Y-103697038D01*
X182065581Y-103717250D01*
X182070797Y-103738074D01*
X182073947Y-103759309D01*
X182075000Y-103780750D01*
X182075000Y-104218250D01*
X182073947Y-104239691D01*
X182070797Y-104260926D01*
X182065581Y-104281750D01*
X182058349Y-104301962D01*
X182049170Y-104321368D01*
X182038134Y-104339781D01*
X182025346Y-104357024D01*
X182010930Y-104372930D01*
X181995024Y-104387346D01*
X181977781Y-104400134D01*
X181959368Y-104411170D01*
X181939962Y-104420349D01*
X181919750Y-104427581D01*
X181898926Y-104432797D01*
X181877691Y-104435947D01*
X181856250Y-104437000D01*
X181343750Y-104437000D01*
X181322309Y-104435947D01*
X181301074Y-104432797D01*
X181280250Y-104427581D01*
X181260038Y-104420349D01*
X181240632Y-104411170D01*
X181222219Y-104400134D01*
X181204976Y-104387346D01*
X181189070Y-104372930D01*
X181174654Y-104357024D01*
X181161866Y-104339781D01*
X181150830Y-104321368D01*
X181141651Y-104301962D01*
X181134419Y-104281750D01*
X181129203Y-104260926D01*
X181126053Y-104239691D01*
X181125000Y-104218250D01*
X181125000Y-103780750D01*
X181126053Y-103759309D01*
X181129203Y-103738074D01*
X181134419Y-103717250D01*
X181141651Y-103697038D01*
X181150830Y-103677632D01*
X181161866Y-103659219D01*
X181174654Y-103641976D01*
X181189070Y-103626070D01*
X181204976Y-103611654D01*
X181222219Y-103598866D01*
X181240632Y-103587830D01*
X181260038Y-103578651D01*
X181280250Y-103571419D01*
X181301074Y-103566203D01*
X181322309Y-103563053D01*
X181343750Y-103562000D01*
X181856250Y-103562000D01*
X181877691Y-103563053D01*
X181877691Y-103563053D01*
G37*
D12*
X181600000Y-103999500D03*
D11*
G36*
X181877691Y-101988053D02*
G01*
X181898926Y-101991203D01*
X181919750Y-101996419D01*
X181939962Y-102003651D01*
X181959368Y-102012830D01*
X181977781Y-102023866D01*
X181995024Y-102036654D01*
X182010930Y-102051070D01*
X182025346Y-102066976D01*
X182038134Y-102084219D01*
X182049170Y-102102632D01*
X182058349Y-102122038D01*
X182065581Y-102142250D01*
X182070797Y-102163074D01*
X182073947Y-102184309D01*
X182075000Y-102205750D01*
X182075000Y-102643250D01*
X182073947Y-102664691D01*
X182070797Y-102685926D01*
X182065581Y-102706750D01*
X182058349Y-102726962D01*
X182049170Y-102746368D01*
X182038134Y-102764781D01*
X182025346Y-102782024D01*
X182010930Y-102797930D01*
X181995024Y-102812346D01*
X181977781Y-102825134D01*
X181959368Y-102836170D01*
X181939962Y-102845349D01*
X181919750Y-102852581D01*
X181898926Y-102857797D01*
X181877691Y-102860947D01*
X181856250Y-102862000D01*
X181343750Y-102862000D01*
X181322309Y-102860947D01*
X181301074Y-102857797D01*
X181280250Y-102852581D01*
X181260038Y-102845349D01*
X181240632Y-102836170D01*
X181222219Y-102825134D01*
X181204976Y-102812346D01*
X181189070Y-102797930D01*
X181174654Y-102782024D01*
X181161866Y-102764781D01*
X181150830Y-102746368D01*
X181141651Y-102726962D01*
X181134419Y-102706750D01*
X181129203Y-102685926D01*
X181126053Y-102664691D01*
X181125000Y-102643250D01*
X181125000Y-102205750D01*
X181126053Y-102184309D01*
X181129203Y-102163074D01*
X181134419Y-102142250D01*
X181141651Y-102122038D01*
X181150830Y-102102632D01*
X181161866Y-102084219D01*
X181174654Y-102066976D01*
X181189070Y-102051070D01*
X181204976Y-102036654D01*
X181222219Y-102023866D01*
X181240632Y-102012830D01*
X181260038Y-102003651D01*
X181280250Y-101996419D01*
X181301074Y-101991203D01*
X181322309Y-101988053D01*
X181343750Y-101987000D01*
X181856250Y-101987000D01*
X181877691Y-101988053D01*
X181877691Y-101988053D01*
G37*
D12*
X181600000Y-102424500D03*
D11*
G36*
X187227691Y-97626053D02*
G01*
X187248926Y-97629203D01*
X187269750Y-97634419D01*
X187289962Y-97641651D01*
X187309368Y-97650830D01*
X187327781Y-97661866D01*
X187345024Y-97674654D01*
X187360930Y-97689070D01*
X187375346Y-97704976D01*
X187388134Y-97722219D01*
X187399170Y-97740632D01*
X187408349Y-97760038D01*
X187415581Y-97780250D01*
X187420797Y-97801074D01*
X187423947Y-97822309D01*
X187425000Y-97843750D01*
X187425000Y-98356250D01*
X187423947Y-98377691D01*
X187420797Y-98398926D01*
X187415581Y-98419750D01*
X187408349Y-98439962D01*
X187399170Y-98459368D01*
X187388134Y-98477781D01*
X187375346Y-98495024D01*
X187360930Y-98510930D01*
X187345024Y-98525346D01*
X187327781Y-98538134D01*
X187309368Y-98549170D01*
X187289962Y-98558349D01*
X187269750Y-98565581D01*
X187248926Y-98570797D01*
X187227691Y-98573947D01*
X187206250Y-98575000D01*
X186768750Y-98575000D01*
X186747309Y-98573947D01*
X186726074Y-98570797D01*
X186705250Y-98565581D01*
X186685038Y-98558349D01*
X186665632Y-98549170D01*
X186647219Y-98538134D01*
X186629976Y-98525346D01*
X186614070Y-98510930D01*
X186599654Y-98495024D01*
X186586866Y-98477781D01*
X186575830Y-98459368D01*
X186566651Y-98439962D01*
X186559419Y-98419750D01*
X186554203Y-98398926D01*
X186551053Y-98377691D01*
X186550000Y-98356250D01*
X186550000Y-97843750D01*
X186551053Y-97822309D01*
X186554203Y-97801074D01*
X186559419Y-97780250D01*
X186566651Y-97760038D01*
X186575830Y-97740632D01*
X186586866Y-97722219D01*
X186599654Y-97704976D01*
X186614070Y-97689070D01*
X186629976Y-97674654D01*
X186647219Y-97661866D01*
X186665632Y-97650830D01*
X186685038Y-97641651D01*
X186705250Y-97634419D01*
X186726074Y-97629203D01*
X186747309Y-97626053D01*
X186768750Y-97625000D01*
X187206250Y-97625000D01*
X187227691Y-97626053D01*
X187227691Y-97626053D01*
G37*
D12*
X186987500Y-98100000D03*
D11*
G36*
X185652691Y-97626053D02*
G01*
X185673926Y-97629203D01*
X185694750Y-97634419D01*
X185714962Y-97641651D01*
X185734368Y-97650830D01*
X185752781Y-97661866D01*
X185770024Y-97674654D01*
X185785930Y-97689070D01*
X185800346Y-97704976D01*
X185813134Y-97722219D01*
X185824170Y-97740632D01*
X185833349Y-97760038D01*
X185840581Y-97780250D01*
X185845797Y-97801074D01*
X185848947Y-97822309D01*
X185850000Y-97843750D01*
X185850000Y-98356250D01*
X185848947Y-98377691D01*
X185845797Y-98398926D01*
X185840581Y-98419750D01*
X185833349Y-98439962D01*
X185824170Y-98459368D01*
X185813134Y-98477781D01*
X185800346Y-98495024D01*
X185785930Y-98510930D01*
X185770024Y-98525346D01*
X185752781Y-98538134D01*
X185734368Y-98549170D01*
X185714962Y-98558349D01*
X185694750Y-98565581D01*
X185673926Y-98570797D01*
X185652691Y-98573947D01*
X185631250Y-98575000D01*
X185193750Y-98575000D01*
X185172309Y-98573947D01*
X185151074Y-98570797D01*
X185130250Y-98565581D01*
X185110038Y-98558349D01*
X185090632Y-98549170D01*
X185072219Y-98538134D01*
X185054976Y-98525346D01*
X185039070Y-98510930D01*
X185024654Y-98495024D01*
X185011866Y-98477781D01*
X185000830Y-98459368D01*
X184991651Y-98439962D01*
X184984419Y-98419750D01*
X184979203Y-98398926D01*
X184976053Y-98377691D01*
X184975000Y-98356250D01*
X184975000Y-97843750D01*
X184976053Y-97822309D01*
X184979203Y-97801074D01*
X184984419Y-97780250D01*
X184991651Y-97760038D01*
X185000830Y-97740632D01*
X185011866Y-97722219D01*
X185024654Y-97704976D01*
X185039070Y-97689070D01*
X185054976Y-97674654D01*
X185072219Y-97661866D01*
X185090632Y-97650830D01*
X185110038Y-97641651D01*
X185130250Y-97634419D01*
X185151074Y-97629203D01*
X185172309Y-97626053D01*
X185193750Y-97625000D01*
X185631250Y-97625000D01*
X185652691Y-97626053D01*
X185652691Y-97626053D01*
G37*
D12*
X185412500Y-98100000D03*
D11*
G36*
X188582691Y-120536053D02*
G01*
X188603926Y-120539203D01*
X188624750Y-120544419D01*
X188644962Y-120551651D01*
X188664368Y-120560830D01*
X188682781Y-120571866D01*
X188700024Y-120584654D01*
X188715930Y-120599070D01*
X188730346Y-120614976D01*
X188743134Y-120632219D01*
X188754170Y-120650632D01*
X188763349Y-120670038D01*
X188770581Y-120690250D01*
X188775797Y-120711074D01*
X188778947Y-120732309D01*
X188780000Y-120753750D01*
X188780000Y-121266250D01*
X188778947Y-121287691D01*
X188775797Y-121308926D01*
X188770581Y-121329750D01*
X188763349Y-121349962D01*
X188754170Y-121369368D01*
X188743134Y-121387781D01*
X188730346Y-121405024D01*
X188715930Y-121420930D01*
X188700024Y-121435346D01*
X188682781Y-121448134D01*
X188664368Y-121459170D01*
X188644962Y-121468349D01*
X188624750Y-121475581D01*
X188603926Y-121480797D01*
X188582691Y-121483947D01*
X188561250Y-121485000D01*
X188123750Y-121485000D01*
X188102309Y-121483947D01*
X188081074Y-121480797D01*
X188060250Y-121475581D01*
X188040038Y-121468349D01*
X188020632Y-121459170D01*
X188002219Y-121448134D01*
X187984976Y-121435346D01*
X187969070Y-121420930D01*
X187954654Y-121405024D01*
X187941866Y-121387781D01*
X187930830Y-121369368D01*
X187921651Y-121349962D01*
X187914419Y-121329750D01*
X187909203Y-121308926D01*
X187906053Y-121287691D01*
X187905000Y-121266250D01*
X187905000Y-120753750D01*
X187906053Y-120732309D01*
X187909203Y-120711074D01*
X187914419Y-120690250D01*
X187921651Y-120670038D01*
X187930830Y-120650632D01*
X187941866Y-120632219D01*
X187954654Y-120614976D01*
X187969070Y-120599070D01*
X187984976Y-120584654D01*
X188002219Y-120571866D01*
X188020632Y-120560830D01*
X188040038Y-120551651D01*
X188060250Y-120544419D01*
X188081074Y-120539203D01*
X188102309Y-120536053D01*
X188123750Y-120535000D01*
X188561250Y-120535000D01*
X188582691Y-120536053D01*
X188582691Y-120536053D01*
G37*
D12*
X188342500Y-121010000D03*
D11*
G36*
X190157691Y-120536053D02*
G01*
X190178926Y-120539203D01*
X190199750Y-120544419D01*
X190219962Y-120551651D01*
X190239368Y-120560830D01*
X190257781Y-120571866D01*
X190275024Y-120584654D01*
X190290930Y-120599070D01*
X190305346Y-120614976D01*
X190318134Y-120632219D01*
X190329170Y-120650632D01*
X190338349Y-120670038D01*
X190345581Y-120690250D01*
X190350797Y-120711074D01*
X190353947Y-120732309D01*
X190355000Y-120753750D01*
X190355000Y-121266250D01*
X190353947Y-121287691D01*
X190350797Y-121308926D01*
X190345581Y-121329750D01*
X190338349Y-121349962D01*
X190329170Y-121369368D01*
X190318134Y-121387781D01*
X190305346Y-121405024D01*
X190290930Y-121420930D01*
X190275024Y-121435346D01*
X190257781Y-121448134D01*
X190239368Y-121459170D01*
X190219962Y-121468349D01*
X190199750Y-121475581D01*
X190178926Y-121480797D01*
X190157691Y-121483947D01*
X190136250Y-121485000D01*
X189698750Y-121485000D01*
X189677309Y-121483947D01*
X189656074Y-121480797D01*
X189635250Y-121475581D01*
X189615038Y-121468349D01*
X189595632Y-121459170D01*
X189577219Y-121448134D01*
X189559976Y-121435346D01*
X189544070Y-121420930D01*
X189529654Y-121405024D01*
X189516866Y-121387781D01*
X189505830Y-121369368D01*
X189496651Y-121349962D01*
X189489419Y-121329750D01*
X189484203Y-121308926D01*
X189481053Y-121287691D01*
X189480000Y-121266250D01*
X189480000Y-120753750D01*
X189481053Y-120732309D01*
X189484203Y-120711074D01*
X189489419Y-120690250D01*
X189496651Y-120670038D01*
X189505830Y-120650632D01*
X189516866Y-120632219D01*
X189529654Y-120614976D01*
X189544070Y-120599070D01*
X189559976Y-120584654D01*
X189577219Y-120571866D01*
X189595632Y-120560830D01*
X189615038Y-120551651D01*
X189635250Y-120544419D01*
X189656074Y-120539203D01*
X189677309Y-120536053D01*
X189698750Y-120535000D01*
X190136250Y-120535000D01*
X190157691Y-120536053D01*
X190157691Y-120536053D01*
G37*
D12*
X189917500Y-121010000D03*
D11*
G36*
X186857691Y-120536053D02*
G01*
X186878926Y-120539203D01*
X186899750Y-120544419D01*
X186919962Y-120551651D01*
X186939368Y-120560830D01*
X186957781Y-120571866D01*
X186975024Y-120584654D01*
X186990930Y-120599070D01*
X187005346Y-120614976D01*
X187018134Y-120632219D01*
X187029170Y-120650632D01*
X187038349Y-120670038D01*
X187045581Y-120690250D01*
X187050797Y-120711074D01*
X187053947Y-120732309D01*
X187055000Y-120753750D01*
X187055000Y-121266250D01*
X187053947Y-121287691D01*
X187050797Y-121308926D01*
X187045581Y-121329750D01*
X187038349Y-121349962D01*
X187029170Y-121369368D01*
X187018134Y-121387781D01*
X187005346Y-121405024D01*
X186990930Y-121420930D01*
X186975024Y-121435346D01*
X186957781Y-121448134D01*
X186939368Y-121459170D01*
X186919962Y-121468349D01*
X186899750Y-121475581D01*
X186878926Y-121480797D01*
X186857691Y-121483947D01*
X186836250Y-121485000D01*
X186398750Y-121485000D01*
X186377309Y-121483947D01*
X186356074Y-121480797D01*
X186335250Y-121475581D01*
X186315038Y-121468349D01*
X186295632Y-121459170D01*
X186277219Y-121448134D01*
X186259976Y-121435346D01*
X186244070Y-121420930D01*
X186229654Y-121405024D01*
X186216866Y-121387781D01*
X186205830Y-121369368D01*
X186196651Y-121349962D01*
X186189419Y-121329750D01*
X186184203Y-121308926D01*
X186181053Y-121287691D01*
X186180000Y-121266250D01*
X186180000Y-120753750D01*
X186181053Y-120732309D01*
X186184203Y-120711074D01*
X186189419Y-120690250D01*
X186196651Y-120670038D01*
X186205830Y-120650632D01*
X186216866Y-120632219D01*
X186229654Y-120614976D01*
X186244070Y-120599070D01*
X186259976Y-120584654D01*
X186277219Y-120571866D01*
X186295632Y-120560830D01*
X186315038Y-120551651D01*
X186335250Y-120544419D01*
X186356074Y-120539203D01*
X186377309Y-120536053D01*
X186398750Y-120535000D01*
X186836250Y-120535000D01*
X186857691Y-120536053D01*
X186857691Y-120536053D01*
G37*
D12*
X186617500Y-121010000D03*
D11*
G36*
X185282691Y-120536053D02*
G01*
X185303926Y-120539203D01*
X185324750Y-120544419D01*
X185344962Y-120551651D01*
X185364368Y-120560830D01*
X185382781Y-120571866D01*
X185400024Y-120584654D01*
X185415930Y-120599070D01*
X185430346Y-120614976D01*
X185443134Y-120632219D01*
X185454170Y-120650632D01*
X185463349Y-120670038D01*
X185470581Y-120690250D01*
X185475797Y-120711074D01*
X185478947Y-120732309D01*
X185480000Y-120753750D01*
X185480000Y-121266250D01*
X185478947Y-121287691D01*
X185475797Y-121308926D01*
X185470581Y-121329750D01*
X185463349Y-121349962D01*
X185454170Y-121369368D01*
X185443134Y-121387781D01*
X185430346Y-121405024D01*
X185415930Y-121420930D01*
X185400024Y-121435346D01*
X185382781Y-121448134D01*
X185364368Y-121459170D01*
X185344962Y-121468349D01*
X185324750Y-121475581D01*
X185303926Y-121480797D01*
X185282691Y-121483947D01*
X185261250Y-121485000D01*
X184823750Y-121485000D01*
X184802309Y-121483947D01*
X184781074Y-121480797D01*
X184760250Y-121475581D01*
X184740038Y-121468349D01*
X184720632Y-121459170D01*
X184702219Y-121448134D01*
X184684976Y-121435346D01*
X184669070Y-121420930D01*
X184654654Y-121405024D01*
X184641866Y-121387781D01*
X184630830Y-121369368D01*
X184621651Y-121349962D01*
X184614419Y-121329750D01*
X184609203Y-121308926D01*
X184606053Y-121287691D01*
X184605000Y-121266250D01*
X184605000Y-120753750D01*
X184606053Y-120732309D01*
X184609203Y-120711074D01*
X184614419Y-120690250D01*
X184621651Y-120670038D01*
X184630830Y-120650632D01*
X184641866Y-120632219D01*
X184654654Y-120614976D01*
X184669070Y-120599070D01*
X184684976Y-120584654D01*
X184702219Y-120571866D01*
X184720632Y-120560830D01*
X184740038Y-120551651D01*
X184760250Y-120544419D01*
X184781074Y-120539203D01*
X184802309Y-120536053D01*
X184823750Y-120535000D01*
X185261250Y-120535000D01*
X185282691Y-120536053D01*
X185282691Y-120536053D01*
G37*
D12*
X185042500Y-121010000D03*
D11*
G36*
X197707691Y-118836053D02*
G01*
X197728926Y-118839203D01*
X197749750Y-118844419D01*
X197769962Y-118851651D01*
X197789368Y-118860830D01*
X197807781Y-118871866D01*
X197825024Y-118884654D01*
X197840930Y-118899070D01*
X197855346Y-118914976D01*
X197868134Y-118932219D01*
X197879170Y-118950632D01*
X197888349Y-118970038D01*
X197895581Y-118990250D01*
X197900797Y-119011074D01*
X197903947Y-119032309D01*
X197905000Y-119053750D01*
X197905000Y-119566250D01*
X197903947Y-119587691D01*
X197900797Y-119608926D01*
X197895581Y-119629750D01*
X197888349Y-119649962D01*
X197879170Y-119669368D01*
X197868134Y-119687781D01*
X197855346Y-119705024D01*
X197840930Y-119720930D01*
X197825024Y-119735346D01*
X197807781Y-119748134D01*
X197789368Y-119759170D01*
X197769962Y-119768349D01*
X197749750Y-119775581D01*
X197728926Y-119780797D01*
X197707691Y-119783947D01*
X197686250Y-119785000D01*
X197248750Y-119785000D01*
X197227309Y-119783947D01*
X197206074Y-119780797D01*
X197185250Y-119775581D01*
X197165038Y-119768349D01*
X197145632Y-119759170D01*
X197127219Y-119748134D01*
X197109976Y-119735346D01*
X197094070Y-119720930D01*
X197079654Y-119705024D01*
X197066866Y-119687781D01*
X197055830Y-119669368D01*
X197046651Y-119649962D01*
X197039419Y-119629750D01*
X197034203Y-119608926D01*
X197031053Y-119587691D01*
X197030000Y-119566250D01*
X197030000Y-119053750D01*
X197031053Y-119032309D01*
X197034203Y-119011074D01*
X197039419Y-118990250D01*
X197046651Y-118970038D01*
X197055830Y-118950632D01*
X197066866Y-118932219D01*
X197079654Y-118914976D01*
X197094070Y-118899070D01*
X197109976Y-118884654D01*
X197127219Y-118871866D01*
X197145632Y-118860830D01*
X197165038Y-118851651D01*
X197185250Y-118844419D01*
X197206074Y-118839203D01*
X197227309Y-118836053D01*
X197248750Y-118835000D01*
X197686250Y-118835000D01*
X197707691Y-118836053D01*
X197707691Y-118836053D01*
G37*
D12*
X197467500Y-119310000D03*
D11*
G36*
X196132691Y-118836053D02*
G01*
X196153926Y-118839203D01*
X196174750Y-118844419D01*
X196194962Y-118851651D01*
X196214368Y-118860830D01*
X196232781Y-118871866D01*
X196250024Y-118884654D01*
X196265930Y-118899070D01*
X196280346Y-118914976D01*
X196293134Y-118932219D01*
X196304170Y-118950632D01*
X196313349Y-118970038D01*
X196320581Y-118990250D01*
X196325797Y-119011074D01*
X196328947Y-119032309D01*
X196330000Y-119053750D01*
X196330000Y-119566250D01*
X196328947Y-119587691D01*
X196325797Y-119608926D01*
X196320581Y-119629750D01*
X196313349Y-119649962D01*
X196304170Y-119669368D01*
X196293134Y-119687781D01*
X196280346Y-119705024D01*
X196265930Y-119720930D01*
X196250024Y-119735346D01*
X196232781Y-119748134D01*
X196214368Y-119759170D01*
X196194962Y-119768349D01*
X196174750Y-119775581D01*
X196153926Y-119780797D01*
X196132691Y-119783947D01*
X196111250Y-119785000D01*
X195673750Y-119785000D01*
X195652309Y-119783947D01*
X195631074Y-119780797D01*
X195610250Y-119775581D01*
X195590038Y-119768349D01*
X195570632Y-119759170D01*
X195552219Y-119748134D01*
X195534976Y-119735346D01*
X195519070Y-119720930D01*
X195504654Y-119705024D01*
X195491866Y-119687781D01*
X195480830Y-119669368D01*
X195471651Y-119649962D01*
X195464419Y-119629750D01*
X195459203Y-119608926D01*
X195456053Y-119587691D01*
X195455000Y-119566250D01*
X195455000Y-119053750D01*
X195456053Y-119032309D01*
X195459203Y-119011074D01*
X195464419Y-118990250D01*
X195471651Y-118970038D01*
X195480830Y-118950632D01*
X195491866Y-118932219D01*
X195504654Y-118914976D01*
X195519070Y-118899070D01*
X195534976Y-118884654D01*
X195552219Y-118871866D01*
X195570632Y-118860830D01*
X195590038Y-118851651D01*
X195610250Y-118844419D01*
X195631074Y-118839203D01*
X195652309Y-118836053D01*
X195673750Y-118835000D01*
X196111250Y-118835000D01*
X196132691Y-118836053D01*
X196132691Y-118836053D01*
G37*
D12*
X195892500Y-119310000D03*
D11*
G36*
X192832691Y-118836053D02*
G01*
X192853926Y-118839203D01*
X192874750Y-118844419D01*
X192894962Y-118851651D01*
X192914368Y-118860830D01*
X192932781Y-118871866D01*
X192950024Y-118884654D01*
X192965930Y-118899070D01*
X192980346Y-118914976D01*
X192993134Y-118932219D01*
X193004170Y-118950632D01*
X193013349Y-118970038D01*
X193020581Y-118990250D01*
X193025797Y-119011074D01*
X193028947Y-119032309D01*
X193030000Y-119053750D01*
X193030000Y-119566250D01*
X193028947Y-119587691D01*
X193025797Y-119608926D01*
X193020581Y-119629750D01*
X193013349Y-119649962D01*
X193004170Y-119669368D01*
X192993134Y-119687781D01*
X192980346Y-119705024D01*
X192965930Y-119720930D01*
X192950024Y-119735346D01*
X192932781Y-119748134D01*
X192914368Y-119759170D01*
X192894962Y-119768349D01*
X192874750Y-119775581D01*
X192853926Y-119780797D01*
X192832691Y-119783947D01*
X192811250Y-119785000D01*
X192373750Y-119785000D01*
X192352309Y-119783947D01*
X192331074Y-119780797D01*
X192310250Y-119775581D01*
X192290038Y-119768349D01*
X192270632Y-119759170D01*
X192252219Y-119748134D01*
X192234976Y-119735346D01*
X192219070Y-119720930D01*
X192204654Y-119705024D01*
X192191866Y-119687781D01*
X192180830Y-119669368D01*
X192171651Y-119649962D01*
X192164419Y-119629750D01*
X192159203Y-119608926D01*
X192156053Y-119587691D01*
X192155000Y-119566250D01*
X192155000Y-119053750D01*
X192156053Y-119032309D01*
X192159203Y-119011074D01*
X192164419Y-118990250D01*
X192171651Y-118970038D01*
X192180830Y-118950632D01*
X192191866Y-118932219D01*
X192204654Y-118914976D01*
X192219070Y-118899070D01*
X192234976Y-118884654D01*
X192252219Y-118871866D01*
X192270632Y-118860830D01*
X192290038Y-118851651D01*
X192310250Y-118844419D01*
X192331074Y-118839203D01*
X192352309Y-118836053D01*
X192373750Y-118835000D01*
X192811250Y-118835000D01*
X192832691Y-118836053D01*
X192832691Y-118836053D01*
G37*
D12*
X192592500Y-119310000D03*
D11*
G36*
X194407691Y-118836053D02*
G01*
X194428926Y-118839203D01*
X194449750Y-118844419D01*
X194469962Y-118851651D01*
X194489368Y-118860830D01*
X194507781Y-118871866D01*
X194525024Y-118884654D01*
X194540930Y-118899070D01*
X194555346Y-118914976D01*
X194568134Y-118932219D01*
X194579170Y-118950632D01*
X194588349Y-118970038D01*
X194595581Y-118990250D01*
X194600797Y-119011074D01*
X194603947Y-119032309D01*
X194605000Y-119053750D01*
X194605000Y-119566250D01*
X194603947Y-119587691D01*
X194600797Y-119608926D01*
X194595581Y-119629750D01*
X194588349Y-119649962D01*
X194579170Y-119669368D01*
X194568134Y-119687781D01*
X194555346Y-119705024D01*
X194540930Y-119720930D01*
X194525024Y-119735346D01*
X194507781Y-119748134D01*
X194489368Y-119759170D01*
X194469962Y-119768349D01*
X194449750Y-119775581D01*
X194428926Y-119780797D01*
X194407691Y-119783947D01*
X194386250Y-119785000D01*
X193948750Y-119785000D01*
X193927309Y-119783947D01*
X193906074Y-119780797D01*
X193885250Y-119775581D01*
X193865038Y-119768349D01*
X193845632Y-119759170D01*
X193827219Y-119748134D01*
X193809976Y-119735346D01*
X193794070Y-119720930D01*
X193779654Y-119705024D01*
X193766866Y-119687781D01*
X193755830Y-119669368D01*
X193746651Y-119649962D01*
X193739419Y-119629750D01*
X193734203Y-119608926D01*
X193731053Y-119587691D01*
X193730000Y-119566250D01*
X193730000Y-119053750D01*
X193731053Y-119032309D01*
X193734203Y-119011074D01*
X193739419Y-118990250D01*
X193746651Y-118970038D01*
X193755830Y-118950632D01*
X193766866Y-118932219D01*
X193779654Y-118914976D01*
X193794070Y-118899070D01*
X193809976Y-118884654D01*
X193827219Y-118871866D01*
X193845632Y-118860830D01*
X193865038Y-118851651D01*
X193885250Y-118844419D01*
X193906074Y-118839203D01*
X193927309Y-118836053D01*
X193948750Y-118835000D01*
X194386250Y-118835000D01*
X194407691Y-118836053D01*
X194407691Y-118836053D01*
G37*
D12*
X194167500Y-119310000D03*
D11*
G36*
X182877691Y-117176053D02*
G01*
X182898926Y-117179203D01*
X182919750Y-117184419D01*
X182939962Y-117191651D01*
X182959368Y-117200830D01*
X182977781Y-117211866D01*
X182995024Y-117224654D01*
X183010930Y-117239070D01*
X183025346Y-117254976D01*
X183038134Y-117272219D01*
X183049170Y-117290632D01*
X183058349Y-117310038D01*
X183065581Y-117330250D01*
X183070797Y-117351074D01*
X183073947Y-117372309D01*
X183075000Y-117393750D01*
X183075000Y-117906250D01*
X183073947Y-117927691D01*
X183070797Y-117948926D01*
X183065581Y-117969750D01*
X183058349Y-117989962D01*
X183049170Y-118009368D01*
X183038134Y-118027781D01*
X183025346Y-118045024D01*
X183010930Y-118060930D01*
X182995024Y-118075346D01*
X182977781Y-118088134D01*
X182959368Y-118099170D01*
X182939962Y-118108349D01*
X182919750Y-118115581D01*
X182898926Y-118120797D01*
X182877691Y-118123947D01*
X182856250Y-118125000D01*
X182418750Y-118125000D01*
X182397309Y-118123947D01*
X182376074Y-118120797D01*
X182355250Y-118115581D01*
X182335038Y-118108349D01*
X182315632Y-118099170D01*
X182297219Y-118088134D01*
X182279976Y-118075346D01*
X182264070Y-118060930D01*
X182249654Y-118045024D01*
X182236866Y-118027781D01*
X182225830Y-118009368D01*
X182216651Y-117989962D01*
X182209419Y-117969750D01*
X182204203Y-117948926D01*
X182201053Y-117927691D01*
X182200000Y-117906250D01*
X182200000Y-117393750D01*
X182201053Y-117372309D01*
X182204203Y-117351074D01*
X182209419Y-117330250D01*
X182216651Y-117310038D01*
X182225830Y-117290632D01*
X182236866Y-117272219D01*
X182249654Y-117254976D01*
X182264070Y-117239070D01*
X182279976Y-117224654D01*
X182297219Y-117211866D01*
X182315632Y-117200830D01*
X182335038Y-117191651D01*
X182355250Y-117184419D01*
X182376074Y-117179203D01*
X182397309Y-117176053D01*
X182418750Y-117175000D01*
X182856250Y-117175000D01*
X182877691Y-117176053D01*
X182877691Y-117176053D01*
G37*
D12*
X182637500Y-117650000D03*
D11*
G36*
X181302691Y-117176053D02*
G01*
X181323926Y-117179203D01*
X181344750Y-117184419D01*
X181364962Y-117191651D01*
X181384368Y-117200830D01*
X181402781Y-117211866D01*
X181420024Y-117224654D01*
X181435930Y-117239070D01*
X181450346Y-117254976D01*
X181463134Y-117272219D01*
X181474170Y-117290632D01*
X181483349Y-117310038D01*
X181490581Y-117330250D01*
X181495797Y-117351074D01*
X181498947Y-117372309D01*
X181500000Y-117393750D01*
X181500000Y-117906250D01*
X181498947Y-117927691D01*
X181495797Y-117948926D01*
X181490581Y-117969750D01*
X181483349Y-117989962D01*
X181474170Y-118009368D01*
X181463134Y-118027781D01*
X181450346Y-118045024D01*
X181435930Y-118060930D01*
X181420024Y-118075346D01*
X181402781Y-118088134D01*
X181384368Y-118099170D01*
X181364962Y-118108349D01*
X181344750Y-118115581D01*
X181323926Y-118120797D01*
X181302691Y-118123947D01*
X181281250Y-118125000D01*
X180843750Y-118125000D01*
X180822309Y-118123947D01*
X180801074Y-118120797D01*
X180780250Y-118115581D01*
X180760038Y-118108349D01*
X180740632Y-118099170D01*
X180722219Y-118088134D01*
X180704976Y-118075346D01*
X180689070Y-118060930D01*
X180674654Y-118045024D01*
X180661866Y-118027781D01*
X180650830Y-118009368D01*
X180641651Y-117989962D01*
X180634419Y-117969750D01*
X180629203Y-117948926D01*
X180626053Y-117927691D01*
X180625000Y-117906250D01*
X180625000Y-117393750D01*
X180626053Y-117372309D01*
X180629203Y-117351074D01*
X180634419Y-117330250D01*
X180641651Y-117310038D01*
X180650830Y-117290632D01*
X180661866Y-117272219D01*
X180674654Y-117254976D01*
X180689070Y-117239070D01*
X180704976Y-117224654D01*
X180722219Y-117211866D01*
X180740632Y-117200830D01*
X180760038Y-117191651D01*
X180780250Y-117184419D01*
X180801074Y-117179203D01*
X180822309Y-117176053D01*
X180843750Y-117175000D01*
X181281250Y-117175000D01*
X181302691Y-117176053D01*
X181302691Y-117176053D01*
G37*
D12*
X181062500Y-117650000D03*
D11*
G36*
X188582691Y-118836053D02*
G01*
X188603926Y-118839203D01*
X188624750Y-118844419D01*
X188644962Y-118851651D01*
X188664368Y-118860830D01*
X188682781Y-118871866D01*
X188700024Y-118884654D01*
X188715930Y-118899070D01*
X188730346Y-118914976D01*
X188743134Y-118932219D01*
X188754170Y-118950632D01*
X188763349Y-118970038D01*
X188770581Y-118990250D01*
X188775797Y-119011074D01*
X188778947Y-119032309D01*
X188780000Y-119053750D01*
X188780000Y-119566250D01*
X188778947Y-119587691D01*
X188775797Y-119608926D01*
X188770581Y-119629750D01*
X188763349Y-119649962D01*
X188754170Y-119669368D01*
X188743134Y-119687781D01*
X188730346Y-119705024D01*
X188715930Y-119720930D01*
X188700024Y-119735346D01*
X188682781Y-119748134D01*
X188664368Y-119759170D01*
X188644962Y-119768349D01*
X188624750Y-119775581D01*
X188603926Y-119780797D01*
X188582691Y-119783947D01*
X188561250Y-119785000D01*
X188123750Y-119785000D01*
X188102309Y-119783947D01*
X188081074Y-119780797D01*
X188060250Y-119775581D01*
X188040038Y-119768349D01*
X188020632Y-119759170D01*
X188002219Y-119748134D01*
X187984976Y-119735346D01*
X187969070Y-119720930D01*
X187954654Y-119705024D01*
X187941866Y-119687781D01*
X187930830Y-119669368D01*
X187921651Y-119649962D01*
X187914419Y-119629750D01*
X187909203Y-119608926D01*
X187906053Y-119587691D01*
X187905000Y-119566250D01*
X187905000Y-119053750D01*
X187906053Y-119032309D01*
X187909203Y-119011074D01*
X187914419Y-118990250D01*
X187921651Y-118970038D01*
X187930830Y-118950632D01*
X187941866Y-118932219D01*
X187954654Y-118914976D01*
X187969070Y-118899070D01*
X187984976Y-118884654D01*
X188002219Y-118871866D01*
X188020632Y-118860830D01*
X188040038Y-118851651D01*
X188060250Y-118844419D01*
X188081074Y-118839203D01*
X188102309Y-118836053D01*
X188123750Y-118835000D01*
X188561250Y-118835000D01*
X188582691Y-118836053D01*
X188582691Y-118836053D01*
G37*
D12*
X188342500Y-119310000D03*
D11*
G36*
X190157691Y-118836053D02*
G01*
X190178926Y-118839203D01*
X190199750Y-118844419D01*
X190219962Y-118851651D01*
X190239368Y-118860830D01*
X190257781Y-118871866D01*
X190275024Y-118884654D01*
X190290930Y-118899070D01*
X190305346Y-118914976D01*
X190318134Y-118932219D01*
X190329170Y-118950632D01*
X190338349Y-118970038D01*
X190345581Y-118990250D01*
X190350797Y-119011074D01*
X190353947Y-119032309D01*
X190355000Y-119053750D01*
X190355000Y-119566250D01*
X190353947Y-119587691D01*
X190350797Y-119608926D01*
X190345581Y-119629750D01*
X190338349Y-119649962D01*
X190329170Y-119669368D01*
X190318134Y-119687781D01*
X190305346Y-119705024D01*
X190290930Y-119720930D01*
X190275024Y-119735346D01*
X190257781Y-119748134D01*
X190239368Y-119759170D01*
X190219962Y-119768349D01*
X190199750Y-119775581D01*
X190178926Y-119780797D01*
X190157691Y-119783947D01*
X190136250Y-119785000D01*
X189698750Y-119785000D01*
X189677309Y-119783947D01*
X189656074Y-119780797D01*
X189635250Y-119775581D01*
X189615038Y-119768349D01*
X189595632Y-119759170D01*
X189577219Y-119748134D01*
X189559976Y-119735346D01*
X189544070Y-119720930D01*
X189529654Y-119705024D01*
X189516866Y-119687781D01*
X189505830Y-119669368D01*
X189496651Y-119649962D01*
X189489419Y-119629750D01*
X189484203Y-119608926D01*
X189481053Y-119587691D01*
X189480000Y-119566250D01*
X189480000Y-119053750D01*
X189481053Y-119032309D01*
X189484203Y-119011074D01*
X189489419Y-118990250D01*
X189496651Y-118970038D01*
X189505830Y-118950632D01*
X189516866Y-118932219D01*
X189529654Y-118914976D01*
X189544070Y-118899070D01*
X189559976Y-118884654D01*
X189577219Y-118871866D01*
X189595632Y-118860830D01*
X189615038Y-118851651D01*
X189635250Y-118844419D01*
X189656074Y-118839203D01*
X189677309Y-118836053D01*
X189698750Y-118835000D01*
X190136250Y-118835000D01*
X190157691Y-118836053D01*
X190157691Y-118836053D01*
G37*
D12*
X189917500Y-119310000D03*
D11*
G36*
X186857691Y-118836053D02*
G01*
X186878926Y-118839203D01*
X186899750Y-118844419D01*
X186919962Y-118851651D01*
X186939368Y-118860830D01*
X186957781Y-118871866D01*
X186975024Y-118884654D01*
X186990930Y-118899070D01*
X187005346Y-118914976D01*
X187018134Y-118932219D01*
X187029170Y-118950632D01*
X187038349Y-118970038D01*
X187045581Y-118990250D01*
X187050797Y-119011074D01*
X187053947Y-119032309D01*
X187055000Y-119053750D01*
X187055000Y-119566250D01*
X187053947Y-119587691D01*
X187050797Y-119608926D01*
X187045581Y-119629750D01*
X187038349Y-119649962D01*
X187029170Y-119669368D01*
X187018134Y-119687781D01*
X187005346Y-119705024D01*
X186990930Y-119720930D01*
X186975024Y-119735346D01*
X186957781Y-119748134D01*
X186939368Y-119759170D01*
X186919962Y-119768349D01*
X186899750Y-119775581D01*
X186878926Y-119780797D01*
X186857691Y-119783947D01*
X186836250Y-119785000D01*
X186398750Y-119785000D01*
X186377309Y-119783947D01*
X186356074Y-119780797D01*
X186335250Y-119775581D01*
X186315038Y-119768349D01*
X186295632Y-119759170D01*
X186277219Y-119748134D01*
X186259976Y-119735346D01*
X186244070Y-119720930D01*
X186229654Y-119705024D01*
X186216866Y-119687781D01*
X186205830Y-119669368D01*
X186196651Y-119649962D01*
X186189419Y-119629750D01*
X186184203Y-119608926D01*
X186181053Y-119587691D01*
X186180000Y-119566250D01*
X186180000Y-119053750D01*
X186181053Y-119032309D01*
X186184203Y-119011074D01*
X186189419Y-118990250D01*
X186196651Y-118970038D01*
X186205830Y-118950632D01*
X186216866Y-118932219D01*
X186229654Y-118914976D01*
X186244070Y-118899070D01*
X186259976Y-118884654D01*
X186277219Y-118871866D01*
X186295632Y-118860830D01*
X186315038Y-118851651D01*
X186335250Y-118844419D01*
X186356074Y-118839203D01*
X186377309Y-118836053D01*
X186398750Y-118835000D01*
X186836250Y-118835000D01*
X186857691Y-118836053D01*
X186857691Y-118836053D01*
G37*
D12*
X186617500Y-119310000D03*
D11*
G36*
X185282691Y-118836053D02*
G01*
X185303926Y-118839203D01*
X185324750Y-118844419D01*
X185344962Y-118851651D01*
X185364368Y-118860830D01*
X185382781Y-118871866D01*
X185400024Y-118884654D01*
X185415930Y-118899070D01*
X185430346Y-118914976D01*
X185443134Y-118932219D01*
X185454170Y-118950632D01*
X185463349Y-118970038D01*
X185470581Y-118990250D01*
X185475797Y-119011074D01*
X185478947Y-119032309D01*
X185480000Y-119053750D01*
X185480000Y-119566250D01*
X185478947Y-119587691D01*
X185475797Y-119608926D01*
X185470581Y-119629750D01*
X185463349Y-119649962D01*
X185454170Y-119669368D01*
X185443134Y-119687781D01*
X185430346Y-119705024D01*
X185415930Y-119720930D01*
X185400024Y-119735346D01*
X185382781Y-119748134D01*
X185364368Y-119759170D01*
X185344962Y-119768349D01*
X185324750Y-119775581D01*
X185303926Y-119780797D01*
X185282691Y-119783947D01*
X185261250Y-119785000D01*
X184823750Y-119785000D01*
X184802309Y-119783947D01*
X184781074Y-119780797D01*
X184760250Y-119775581D01*
X184740038Y-119768349D01*
X184720632Y-119759170D01*
X184702219Y-119748134D01*
X184684976Y-119735346D01*
X184669070Y-119720930D01*
X184654654Y-119705024D01*
X184641866Y-119687781D01*
X184630830Y-119669368D01*
X184621651Y-119649962D01*
X184614419Y-119629750D01*
X184609203Y-119608926D01*
X184606053Y-119587691D01*
X184605000Y-119566250D01*
X184605000Y-119053750D01*
X184606053Y-119032309D01*
X184609203Y-119011074D01*
X184614419Y-118990250D01*
X184621651Y-118970038D01*
X184630830Y-118950632D01*
X184641866Y-118932219D01*
X184654654Y-118914976D01*
X184669070Y-118899070D01*
X184684976Y-118884654D01*
X184702219Y-118871866D01*
X184720632Y-118860830D01*
X184740038Y-118851651D01*
X184760250Y-118844419D01*
X184781074Y-118839203D01*
X184802309Y-118836053D01*
X184823750Y-118835000D01*
X185261250Y-118835000D01*
X185282691Y-118836053D01*
X185282691Y-118836053D01*
G37*
D12*
X185042500Y-119310000D03*
D11*
G36*
X181302691Y-118926053D02*
G01*
X181323926Y-118929203D01*
X181344750Y-118934419D01*
X181364962Y-118941651D01*
X181384368Y-118950830D01*
X181402781Y-118961866D01*
X181420024Y-118974654D01*
X181435930Y-118989070D01*
X181450346Y-119004976D01*
X181463134Y-119022219D01*
X181474170Y-119040632D01*
X181483349Y-119060038D01*
X181490581Y-119080250D01*
X181495797Y-119101074D01*
X181498947Y-119122309D01*
X181500000Y-119143750D01*
X181500000Y-119656250D01*
X181498947Y-119677691D01*
X181495797Y-119698926D01*
X181490581Y-119719750D01*
X181483349Y-119739962D01*
X181474170Y-119759368D01*
X181463134Y-119777781D01*
X181450346Y-119795024D01*
X181435930Y-119810930D01*
X181420024Y-119825346D01*
X181402781Y-119838134D01*
X181384368Y-119849170D01*
X181364962Y-119858349D01*
X181344750Y-119865581D01*
X181323926Y-119870797D01*
X181302691Y-119873947D01*
X181281250Y-119875000D01*
X180843750Y-119875000D01*
X180822309Y-119873947D01*
X180801074Y-119870797D01*
X180780250Y-119865581D01*
X180760038Y-119858349D01*
X180740632Y-119849170D01*
X180722219Y-119838134D01*
X180704976Y-119825346D01*
X180689070Y-119810930D01*
X180674654Y-119795024D01*
X180661866Y-119777781D01*
X180650830Y-119759368D01*
X180641651Y-119739962D01*
X180634419Y-119719750D01*
X180629203Y-119698926D01*
X180626053Y-119677691D01*
X180625000Y-119656250D01*
X180625000Y-119143750D01*
X180626053Y-119122309D01*
X180629203Y-119101074D01*
X180634419Y-119080250D01*
X180641651Y-119060038D01*
X180650830Y-119040632D01*
X180661866Y-119022219D01*
X180674654Y-119004976D01*
X180689070Y-118989070D01*
X180704976Y-118974654D01*
X180722219Y-118961866D01*
X180740632Y-118950830D01*
X180760038Y-118941651D01*
X180780250Y-118934419D01*
X180801074Y-118929203D01*
X180822309Y-118926053D01*
X180843750Y-118925000D01*
X181281250Y-118925000D01*
X181302691Y-118926053D01*
X181302691Y-118926053D01*
G37*
D12*
X181062500Y-119400000D03*
D11*
G36*
X182877691Y-118926053D02*
G01*
X182898926Y-118929203D01*
X182919750Y-118934419D01*
X182939962Y-118941651D01*
X182959368Y-118950830D01*
X182977781Y-118961866D01*
X182995024Y-118974654D01*
X183010930Y-118989070D01*
X183025346Y-119004976D01*
X183038134Y-119022219D01*
X183049170Y-119040632D01*
X183058349Y-119060038D01*
X183065581Y-119080250D01*
X183070797Y-119101074D01*
X183073947Y-119122309D01*
X183075000Y-119143750D01*
X183075000Y-119656250D01*
X183073947Y-119677691D01*
X183070797Y-119698926D01*
X183065581Y-119719750D01*
X183058349Y-119739962D01*
X183049170Y-119759368D01*
X183038134Y-119777781D01*
X183025346Y-119795024D01*
X183010930Y-119810930D01*
X182995024Y-119825346D01*
X182977781Y-119838134D01*
X182959368Y-119849170D01*
X182939962Y-119858349D01*
X182919750Y-119865581D01*
X182898926Y-119870797D01*
X182877691Y-119873947D01*
X182856250Y-119875000D01*
X182418750Y-119875000D01*
X182397309Y-119873947D01*
X182376074Y-119870797D01*
X182355250Y-119865581D01*
X182335038Y-119858349D01*
X182315632Y-119849170D01*
X182297219Y-119838134D01*
X182279976Y-119825346D01*
X182264070Y-119810930D01*
X182249654Y-119795024D01*
X182236866Y-119777781D01*
X182225830Y-119759368D01*
X182216651Y-119739962D01*
X182209419Y-119719750D01*
X182204203Y-119698926D01*
X182201053Y-119677691D01*
X182200000Y-119656250D01*
X182200000Y-119143750D01*
X182201053Y-119122309D01*
X182204203Y-119101074D01*
X182209419Y-119080250D01*
X182216651Y-119060038D01*
X182225830Y-119040632D01*
X182236866Y-119022219D01*
X182249654Y-119004976D01*
X182264070Y-118989070D01*
X182279976Y-118974654D01*
X182297219Y-118961866D01*
X182315632Y-118950830D01*
X182335038Y-118941651D01*
X182355250Y-118934419D01*
X182376074Y-118929203D01*
X182397309Y-118926053D01*
X182418750Y-118925000D01*
X182856250Y-118925000D01*
X182877691Y-118926053D01*
X182877691Y-118926053D01*
G37*
D12*
X182637500Y-119400000D03*
D11*
G36*
X197707691Y-120536053D02*
G01*
X197728926Y-120539203D01*
X197749750Y-120544419D01*
X197769962Y-120551651D01*
X197789368Y-120560830D01*
X197807781Y-120571866D01*
X197825024Y-120584654D01*
X197840930Y-120599070D01*
X197855346Y-120614976D01*
X197868134Y-120632219D01*
X197879170Y-120650632D01*
X197888349Y-120670038D01*
X197895581Y-120690250D01*
X197900797Y-120711074D01*
X197903947Y-120732309D01*
X197905000Y-120753750D01*
X197905000Y-121266250D01*
X197903947Y-121287691D01*
X197900797Y-121308926D01*
X197895581Y-121329750D01*
X197888349Y-121349962D01*
X197879170Y-121369368D01*
X197868134Y-121387781D01*
X197855346Y-121405024D01*
X197840930Y-121420930D01*
X197825024Y-121435346D01*
X197807781Y-121448134D01*
X197789368Y-121459170D01*
X197769962Y-121468349D01*
X197749750Y-121475581D01*
X197728926Y-121480797D01*
X197707691Y-121483947D01*
X197686250Y-121485000D01*
X197248750Y-121485000D01*
X197227309Y-121483947D01*
X197206074Y-121480797D01*
X197185250Y-121475581D01*
X197165038Y-121468349D01*
X197145632Y-121459170D01*
X197127219Y-121448134D01*
X197109976Y-121435346D01*
X197094070Y-121420930D01*
X197079654Y-121405024D01*
X197066866Y-121387781D01*
X197055830Y-121369368D01*
X197046651Y-121349962D01*
X197039419Y-121329750D01*
X197034203Y-121308926D01*
X197031053Y-121287691D01*
X197030000Y-121266250D01*
X197030000Y-120753750D01*
X197031053Y-120732309D01*
X197034203Y-120711074D01*
X197039419Y-120690250D01*
X197046651Y-120670038D01*
X197055830Y-120650632D01*
X197066866Y-120632219D01*
X197079654Y-120614976D01*
X197094070Y-120599070D01*
X197109976Y-120584654D01*
X197127219Y-120571866D01*
X197145632Y-120560830D01*
X197165038Y-120551651D01*
X197185250Y-120544419D01*
X197206074Y-120539203D01*
X197227309Y-120536053D01*
X197248750Y-120535000D01*
X197686250Y-120535000D01*
X197707691Y-120536053D01*
X197707691Y-120536053D01*
G37*
D12*
X197467500Y-121010000D03*
D11*
G36*
X196132691Y-120536053D02*
G01*
X196153926Y-120539203D01*
X196174750Y-120544419D01*
X196194962Y-120551651D01*
X196214368Y-120560830D01*
X196232781Y-120571866D01*
X196250024Y-120584654D01*
X196265930Y-120599070D01*
X196280346Y-120614976D01*
X196293134Y-120632219D01*
X196304170Y-120650632D01*
X196313349Y-120670038D01*
X196320581Y-120690250D01*
X196325797Y-120711074D01*
X196328947Y-120732309D01*
X196330000Y-120753750D01*
X196330000Y-121266250D01*
X196328947Y-121287691D01*
X196325797Y-121308926D01*
X196320581Y-121329750D01*
X196313349Y-121349962D01*
X196304170Y-121369368D01*
X196293134Y-121387781D01*
X196280346Y-121405024D01*
X196265930Y-121420930D01*
X196250024Y-121435346D01*
X196232781Y-121448134D01*
X196214368Y-121459170D01*
X196194962Y-121468349D01*
X196174750Y-121475581D01*
X196153926Y-121480797D01*
X196132691Y-121483947D01*
X196111250Y-121485000D01*
X195673750Y-121485000D01*
X195652309Y-121483947D01*
X195631074Y-121480797D01*
X195610250Y-121475581D01*
X195590038Y-121468349D01*
X195570632Y-121459170D01*
X195552219Y-121448134D01*
X195534976Y-121435346D01*
X195519070Y-121420930D01*
X195504654Y-121405024D01*
X195491866Y-121387781D01*
X195480830Y-121369368D01*
X195471651Y-121349962D01*
X195464419Y-121329750D01*
X195459203Y-121308926D01*
X195456053Y-121287691D01*
X195455000Y-121266250D01*
X195455000Y-120753750D01*
X195456053Y-120732309D01*
X195459203Y-120711074D01*
X195464419Y-120690250D01*
X195471651Y-120670038D01*
X195480830Y-120650632D01*
X195491866Y-120632219D01*
X195504654Y-120614976D01*
X195519070Y-120599070D01*
X195534976Y-120584654D01*
X195552219Y-120571866D01*
X195570632Y-120560830D01*
X195590038Y-120551651D01*
X195610250Y-120544419D01*
X195631074Y-120539203D01*
X195652309Y-120536053D01*
X195673750Y-120535000D01*
X196111250Y-120535000D01*
X196132691Y-120536053D01*
X196132691Y-120536053D01*
G37*
D12*
X195892500Y-121010000D03*
D11*
G36*
X192832691Y-120536053D02*
G01*
X192853926Y-120539203D01*
X192874750Y-120544419D01*
X192894962Y-120551651D01*
X192914368Y-120560830D01*
X192932781Y-120571866D01*
X192950024Y-120584654D01*
X192965930Y-120599070D01*
X192980346Y-120614976D01*
X192993134Y-120632219D01*
X193004170Y-120650632D01*
X193013349Y-120670038D01*
X193020581Y-120690250D01*
X193025797Y-120711074D01*
X193028947Y-120732309D01*
X193030000Y-120753750D01*
X193030000Y-121266250D01*
X193028947Y-121287691D01*
X193025797Y-121308926D01*
X193020581Y-121329750D01*
X193013349Y-121349962D01*
X193004170Y-121369368D01*
X192993134Y-121387781D01*
X192980346Y-121405024D01*
X192965930Y-121420930D01*
X192950024Y-121435346D01*
X192932781Y-121448134D01*
X192914368Y-121459170D01*
X192894962Y-121468349D01*
X192874750Y-121475581D01*
X192853926Y-121480797D01*
X192832691Y-121483947D01*
X192811250Y-121485000D01*
X192373750Y-121485000D01*
X192352309Y-121483947D01*
X192331074Y-121480797D01*
X192310250Y-121475581D01*
X192290038Y-121468349D01*
X192270632Y-121459170D01*
X192252219Y-121448134D01*
X192234976Y-121435346D01*
X192219070Y-121420930D01*
X192204654Y-121405024D01*
X192191866Y-121387781D01*
X192180830Y-121369368D01*
X192171651Y-121349962D01*
X192164419Y-121329750D01*
X192159203Y-121308926D01*
X192156053Y-121287691D01*
X192155000Y-121266250D01*
X192155000Y-120753750D01*
X192156053Y-120732309D01*
X192159203Y-120711074D01*
X192164419Y-120690250D01*
X192171651Y-120670038D01*
X192180830Y-120650632D01*
X192191866Y-120632219D01*
X192204654Y-120614976D01*
X192219070Y-120599070D01*
X192234976Y-120584654D01*
X192252219Y-120571866D01*
X192270632Y-120560830D01*
X192290038Y-120551651D01*
X192310250Y-120544419D01*
X192331074Y-120539203D01*
X192352309Y-120536053D01*
X192373750Y-120535000D01*
X192811250Y-120535000D01*
X192832691Y-120536053D01*
X192832691Y-120536053D01*
G37*
D12*
X192592500Y-121010000D03*
D11*
G36*
X194407691Y-120536053D02*
G01*
X194428926Y-120539203D01*
X194449750Y-120544419D01*
X194469962Y-120551651D01*
X194489368Y-120560830D01*
X194507781Y-120571866D01*
X194525024Y-120584654D01*
X194540930Y-120599070D01*
X194555346Y-120614976D01*
X194568134Y-120632219D01*
X194579170Y-120650632D01*
X194588349Y-120670038D01*
X194595581Y-120690250D01*
X194600797Y-120711074D01*
X194603947Y-120732309D01*
X194605000Y-120753750D01*
X194605000Y-121266250D01*
X194603947Y-121287691D01*
X194600797Y-121308926D01*
X194595581Y-121329750D01*
X194588349Y-121349962D01*
X194579170Y-121369368D01*
X194568134Y-121387781D01*
X194555346Y-121405024D01*
X194540930Y-121420930D01*
X194525024Y-121435346D01*
X194507781Y-121448134D01*
X194489368Y-121459170D01*
X194469962Y-121468349D01*
X194449750Y-121475581D01*
X194428926Y-121480797D01*
X194407691Y-121483947D01*
X194386250Y-121485000D01*
X193948750Y-121485000D01*
X193927309Y-121483947D01*
X193906074Y-121480797D01*
X193885250Y-121475581D01*
X193865038Y-121468349D01*
X193845632Y-121459170D01*
X193827219Y-121448134D01*
X193809976Y-121435346D01*
X193794070Y-121420930D01*
X193779654Y-121405024D01*
X193766866Y-121387781D01*
X193755830Y-121369368D01*
X193746651Y-121349962D01*
X193739419Y-121329750D01*
X193734203Y-121308926D01*
X193731053Y-121287691D01*
X193730000Y-121266250D01*
X193730000Y-120753750D01*
X193731053Y-120732309D01*
X193734203Y-120711074D01*
X193739419Y-120690250D01*
X193746651Y-120670038D01*
X193755830Y-120650632D01*
X193766866Y-120632219D01*
X193779654Y-120614976D01*
X193794070Y-120599070D01*
X193809976Y-120584654D01*
X193827219Y-120571866D01*
X193845632Y-120560830D01*
X193865038Y-120551651D01*
X193885250Y-120544419D01*
X193906074Y-120539203D01*
X193927309Y-120536053D01*
X193948750Y-120535000D01*
X194386250Y-120535000D01*
X194407691Y-120536053D01*
X194407691Y-120536053D01*
G37*
D12*
X194167500Y-121010000D03*
D11*
G36*
X192952691Y-124726053D02*
G01*
X192973926Y-124729203D01*
X192994750Y-124734419D01*
X193014962Y-124741651D01*
X193034368Y-124750830D01*
X193052781Y-124761866D01*
X193070024Y-124774654D01*
X193085930Y-124789070D01*
X193100346Y-124804976D01*
X193113134Y-124822219D01*
X193124170Y-124840632D01*
X193133349Y-124860038D01*
X193140581Y-124880250D01*
X193145797Y-124901074D01*
X193148947Y-124922309D01*
X193150000Y-124943750D01*
X193150000Y-125456250D01*
X193148947Y-125477691D01*
X193145797Y-125498926D01*
X193140581Y-125519750D01*
X193133349Y-125539962D01*
X193124170Y-125559368D01*
X193113134Y-125577781D01*
X193100346Y-125595024D01*
X193085930Y-125610930D01*
X193070024Y-125625346D01*
X193052781Y-125638134D01*
X193034368Y-125649170D01*
X193014962Y-125658349D01*
X192994750Y-125665581D01*
X192973926Y-125670797D01*
X192952691Y-125673947D01*
X192931250Y-125675000D01*
X192493750Y-125675000D01*
X192472309Y-125673947D01*
X192451074Y-125670797D01*
X192430250Y-125665581D01*
X192410038Y-125658349D01*
X192390632Y-125649170D01*
X192372219Y-125638134D01*
X192354976Y-125625346D01*
X192339070Y-125610930D01*
X192324654Y-125595024D01*
X192311866Y-125577781D01*
X192300830Y-125559368D01*
X192291651Y-125539962D01*
X192284419Y-125519750D01*
X192279203Y-125498926D01*
X192276053Y-125477691D01*
X192275000Y-125456250D01*
X192275000Y-124943750D01*
X192276053Y-124922309D01*
X192279203Y-124901074D01*
X192284419Y-124880250D01*
X192291651Y-124860038D01*
X192300830Y-124840632D01*
X192311866Y-124822219D01*
X192324654Y-124804976D01*
X192339070Y-124789070D01*
X192354976Y-124774654D01*
X192372219Y-124761866D01*
X192390632Y-124750830D01*
X192410038Y-124741651D01*
X192430250Y-124734419D01*
X192451074Y-124729203D01*
X192472309Y-124726053D01*
X192493750Y-124725000D01*
X192931250Y-124725000D01*
X192952691Y-124726053D01*
X192952691Y-124726053D01*
G37*
D12*
X192712500Y-125200000D03*
D11*
G36*
X194527691Y-124726053D02*
G01*
X194548926Y-124729203D01*
X194569750Y-124734419D01*
X194589962Y-124741651D01*
X194609368Y-124750830D01*
X194627781Y-124761866D01*
X194645024Y-124774654D01*
X194660930Y-124789070D01*
X194675346Y-124804976D01*
X194688134Y-124822219D01*
X194699170Y-124840632D01*
X194708349Y-124860038D01*
X194715581Y-124880250D01*
X194720797Y-124901074D01*
X194723947Y-124922309D01*
X194725000Y-124943750D01*
X194725000Y-125456250D01*
X194723947Y-125477691D01*
X194720797Y-125498926D01*
X194715581Y-125519750D01*
X194708349Y-125539962D01*
X194699170Y-125559368D01*
X194688134Y-125577781D01*
X194675346Y-125595024D01*
X194660930Y-125610930D01*
X194645024Y-125625346D01*
X194627781Y-125638134D01*
X194609368Y-125649170D01*
X194589962Y-125658349D01*
X194569750Y-125665581D01*
X194548926Y-125670797D01*
X194527691Y-125673947D01*
X194506250Y-125675000D01*
X194068750Y-125675000D01*
X194047309Y-125673947D01*
X194026074Y-125670797D01*
X194005250Y-125665581D01*
X193985038Y-125658349D01*
X193965632Y-125649170D01*
X193947219Y-125638134D01*
X193929976Y-125625346D01*
X193914070Y-125610930D01*
X193899654Y-125595024D01*
X193886866Y-125577781D01*
X193875830Y-125559368D01*
X193866651Y-125539962D01*
X193859419Y-125519750D01*
X193854203Y-125498926D01*
X193851053Y-125477691D01*
X193850000Y-125456250D01*
X193850000Y-124943750D01*
X193851053Y-124922309D01*
X193854203Y-124901074D01*
X193859419Y-124880250D01*
X193866651Y-124860038D01*
X193875830Y-124840632D01*
X193886866Y-124822219D01*
X193899654Y-124804976D01*
X193914070Y-124789070D01*
X193929976Y-124774654D01*
X193947219Y-124761866D01*
X193965632Y-124750830D01*
X193985038Y-124741651D01*
X194005250Y-124734419D01*
X194026074Y-124729203D01*
X194047309Y-124726053D01*
X194068750Y-124725000D01*
X194506250Y-124725000D01*
X194527691Y-124726053D01*
X194527691Y-124726053D01*
G37*
D12*
X194287500Y-125200000D03*
D11*
G36*
X195090691Y-105276053D02*
G01*
X195111926Y-105279203D01*
X195132750Y-105284419D01*
X195152962Y-105291651D01*
X195172368Y-105300830D01*
X195190781Y-105311866D01*
X195208024Y-105324654D01*
X195223930Y-105339070D01*
X195238346Y-105354976D01*
X195251134Y-105372219D01*
X195262170Y-105390632D01*
X195271349Y-105410038D01*
X195278581Y-105430250D01*
X195283797Y-105451074D01*
X195286947Y-105472309D01*
X195288000Y-105493750D01*
X195288000Y-106006250D01*
X195286947Y-106027691D01*
X195283797Y-106048926D01*
X195278581Y-106069750D01*
X195271349Y-106089962D01*
X195262170Y-106109368D01*
X195251134Y-106127781D01*
X195238346Y-106145024D01*
X195223930Y-106160930D01*
X195208024Y-106175346D01*
X195190781Y-106188134D01*
X195172368Y-106199170D01*
X195152962Y-106208349D01*
X195132750Y-106215581D01*
X195111926Y-106220797D01*
X195090691Y-106223947D01*
X195069250Y-106225000D01*
X194631750Y-106225000D01*
X194610309Y-106223947D01*
X194589074Y-106220797D01*
X194568250Y-106215581D01*
X194548038Y-106208349D01*
X194528632Y-106199170D01*
X194510219Y-106188134D01*
X194492976Y-106175346D01*
X194477070Y-106160930D01*
X194462654Y-106145024D01*
X194449866Y-106127781D01*
X194438830Y-106109368D01*
X194429651Y-106089962D01*
X194422419Y-106069750D01*
X194417203Y-106048926D01*
X194414053Y-106027691D01*
X194413000Y-106006250D01*
X194413000Y-105493750D01*
X194414053Y-105472309D01*
X194417203Y-105451074D01*
X194422419Y-105430250D01*
X194429651Y-105410038D01*
X194438830Y-105390632D01*
X194449866Y-105372219D01*
X194462654Y-105354976D01*
X194477070Y-105339070D01*
X194492976Y-105324654D01*
X194510219Y-105311866D01*
X194528632Y-105300830D01*
X194548038Y-105291651D01*
X194568250Y-105284419D01*
X194589074Y-105279203D01*
X194610309Y-105276053D01*
X194631750Y-105275000D01*
X195069250Y-105275000D01*
X195090691Y-105276053D01*
X195090691Y-105276053D01*
G37*
D12*
X194850500Y-105750000D03*
D11*
G36*
X196665691Y-105276053D02*
G01*
X196686926Y-105279203D01*
X196707750Y-105284419D01*
X196727962Y-105291651D01*
X196747368Y-105300830D01*
X196765781Y-105311866D01*
X196783024Y-105324654D01*
X196798930Y-105339070D01*
X196813346Y-105354976D01*
X196826134Y-105372219D01*
X196837170Y-105390632D01*
X196846349Y-105410038D01*
X196853581Y-105430250D01*
X196858797Y-105451074D01*
X196861947Y-105472309D01*
X196863000Y-105493750D01*
X196863000Y-106006250D01*
X196861947Y-106027691D01*
X196858797Y-106048926D01*
X196853581Y-106069750D01*
X196846349Y-106089962D01*
X196837170Y-106109368D01*
X196826134Y-106127781D01*
X196813346Y-106145024D01*
X196798930Y-106160930D01*
X196783024Y-106175346D01*
X196765781Y-106188134D01*
X196747368Y-106199170D01*
X196727962Y-106208349D01*
X196707750Y-106215581D01*
X196686926Y-106220797D01*
X196665691Y-106223947D01*
X196644250Y-106225000D01*
X196206750Y-106225000D01*
X196185309Y-106223947D01*
X196164074Y-106220797D01*
X196143250Y-106215581D01*
X196123038Y-106208349D01*
X196103632Y-106199170D01*
X196085219Y-106188134D01*
X196067976Y-106175346D01*
X196052070Y-106160930D01*
X196037654Y-106145024D01*
X196024866Y-106127781D01*
X196013830Y-106109368D01*
X196004651Y-106089962D01*
X195997419Y-106069750D01*
X195992203Y-106048926D01*
X195989053Y-106027691D01*
X195988000Y-106006250D01*
X195988000Y-105493750D01*
X195989053Y-105472309D01*
X195992203Y-105451074D01*
X195997419Y-105430250D01*
X196004651Y-105410038D01*
X196013830Y-105390632D01*
X196024866Y-105372219D01*
X196037654Y-105354976D01*
X196052070Y-105339070D01*
X196067976Y-105324654D01*
X196085219Y-105311866D01*
X196103632Y-105300830D01*
X196123038Y-105291651D01*
X196143250Y-105284419D01*
X196164074Y-105279203D01*
X196185309Y-105276053D01*
X196206750Y-105275000D01*
X196644250Y-105275000D01*
X196665691Y-105276053D01*
X196665691Y-105276053D01*
G37*
D12*
X196425500Y-105750000D03*
D11*
G36*
X190864691Y-97626053D02*
G01*
X190885926Y-97629203D01*
X190906750Y-97634419D01*
X190926962Y-97641651D01*
X190946368Y-97650830D01*
X190964781Y-97661866D01*
X190982024Y-97674654D01*
X190997930Y-97689070D01*
X191012346Y-97704976D01*
X191025134Y-97722219D01*
X191036170Y-97740632D01*
X191045349Y-97760038D01*
X191052581Y-97780250D01*
X191057797Y-97801074D01*
X191060947Y-97822309D01*
X191062000Y-97843750D01*
X191062000Y-98356250D01*
X191060947Y-98377691D01*
X191057797Y-98398926D01*
X191052581Y-98419750D01*
X191045349Y-98439962D01*
X191036170Y-98459368D01*
X191025134Y-98477781D01*
X191012346Y-98495024D01*
X190997930Y-98510930D01*
X190982024Y-98525346D01*
X190964781Y-98538134D01*
X190946368Y-98549170D01*
X190926962Y-98558349D01*
X190906750Y-98565581D01*
X190885926Y-98570797D01*
X190864691Y-98573947D01*
X190843250Y-98575000D01*
X190405750Y-98575000D01*
X190384309Y-98573947D01*
X190363074Y-98570797D01*
X190342250Y-98565581D01*
X190322038Y-98558349D01*
X190302632Y-98549170D01*
X190284219Y-98538134D01*
X190266976Y-98525346D01*
X190251070Y-98510930D01*
X190236654Y-98495024D01*
X190223866Y-98477781D01*
X190212830Y-98459368D01*
X190203651Y-98439962D01*
X190196419Y-98419750D01*
X190191203Y-98398926D01*
X190188053Y-98377691D01*
X190187000Y-98356250D01*
X190187000Y-97843750D01*
X190188053Y-97822309D01*
X190191203Y-97801074D01*
X190196419Y-97780250D01*
X190203651Y-97760038D01*
X190212830Y-97740632D01*
X190223866Y-97722219D01*
X190236654Y-97704976D01*
X190251070Y-97689070D01*
X190266976Y-97674654D01*
X190284219Y-97661866D01*
X190302632Y-97650830D01*
X190322038Y-97641651D01*
X190342250Y-97634419D01*
X190363074Y-97629203D01*
X190384309Y-97626053D01*
X190405750Y-97625000D01*
X190843250Y-97625000D01*
X190864691Y-97626053D01*
X190864691Y-97626053D01*
G37*
D12*
X190624500Y-98100000D03*
D11*
G36*
X192439691Y-97626053D02*
G01*
X192460926Y-97629203D01*
X192481750Y-97634419D01*
X192501962Y-97641651D01*
X192521368Y-97650830D01*
X192539781Y-97661866D01*
X192557024Y-97674654D01*
X192572930Y-97689070D01*
X192587346Y-97704976D01*
X192600134Y-97722219D01*
X192611170Y-97740632D01*
X192620349Y-97760038D01*
X192627581Y-97780250D01*
X192632797Y-97801074D01*
X192635947Y-97822309D01*
X192637000Y-97843750D01*
X192637000Y-98356250D01*
X192635947Y-98377691D01*
X192632797Y-98398926D01*
X192627581Y-98419750D01*
X192620349Y-98439962D01*
X192611170Y-98459368D01*
X192600134Y-98477781D01*
X192587346Y-98495024D01*
X192572930Y-98510930D01*
X192557024Y-98525346D01*
X192539781Y-98538134D01*
X192521368Y-98549170D01*
X192501962Y-98558349D01*
X192481750Y-98565581D01*
X192460926Y-98570797D01*
X192439691Y-98573947D01*
X192418250Y-98575000D01*
X191980750Y-98575000D01*
X191959309Y-98573947D01*
X191938074Y-98570797D01*
X191917250Y-98565581D01*
X191897038Y-98558349D01*
X191877632Y-98549170D01*
X191859219Y-98538134D01*
X191841976Y-98525346D01*
X191826070Y-98510930D01*
X191811654Y-98495024D01*
X191798866Y-98477781D01*
X191787830Y-98459368D01*
X191778651Y-98439962D01*
X191771419Y-98419750D01*
X191766203Y-98398926D01*
X191763053Y-98377691D01*
X191762000Y-98356250D01*
X191762000Y-97843750D01*
X191763053Y-97822309D01*
X191766203Y-97801074D01*
X191771419Y-97780250D01*
X191778651Y-97760038D01*
X191787830Y-97740632D01*
X191798866Y-97722219D01*
X191811654Y-97704976D01*
X191826070Y-97689070D01*
X191841976Y-97674654D01*
X191859219Y-97661866D01*
X191877632Y-97650830D01*
X191897038Y-97641651D01*
X191917250Y-97634419D01*
X191938074Y-97629203D01*
X191959309Y-97626053D01*
X191980750Y-97625000D01*
X192418250Y-97625000D01*
X192439691Y-97626053D01*
X192439691Y-97626053D01*
G37*
D12*
X192199500Y-98100000D03*
D13*
X193600000Y-102100000D03*
X185100000Y-102100000D03*
D14*
X196775000Y-109120000D03*
X196125000Y-109120000D03*
X195475000Y-109120000D03*
X194825000Y-109120000D03*
X194175000Y-109120000D03*
X193525000Y-109120000D03*
X192875000Y-109120000D03*
X192225000Y-109120000D03*
X191575000Y-109120000D03*
X190925000Y-109120000D03*
X190275000Y-109120000D03*
X189625000Y-109120000D03*
X189625000Y-114820000D03*
X190275000Y-114820000D03*
X190925000Y-114820000D03*
X191575000Y-114820000D03*
X192225000Y-114820000D03*
X192875000Y-114820000D03*
X193525000Y-114820000D03*
X194175000Y-114820000D03*
X194825000Y-114820000D03*
X195475000Y-114820000D03*
X196125000Y-114820000D03*
X196775000Y-114820000D03*
M02*
