G04 #@! TF.GenerationSoftware,KiCad,Pcbnew,(5.1.2)-1*
G04 #@! TF.CreationDate,2023-02-04T08:31:17+09:00*
G04 #@! TF.ProjectId,IR,49522e6b-6963-4616-945f-706362585858,v1.2*
G04 #@! TF.SameCoordinates,Original*
G04 #@! TF.FileFunction,Legend,Top*
G04 #@! TF.FilePolarity,Positive*
%FSLAX46Y46*%
G04 Gerber Fmt 4.6, Leading zero omitted, Abs format (unit mm)*
G04 Created by KiCad (PCBNEW (5.1.2)-1) date 2023-02-04 08:31:17*
%MOMM*%
%LPD*%
G04 APERTURE LIST*
%ADD10C,0.150000*%
%ADD11C,0.200000*%
%ADD12C,0.120000*%
%ADD13C,3.600000*%
%ADD14O,2.200000X1.924000*%
%ADD15C,0.050000*%
%ADD16C,1.275000*%
%ADD17R,4.900000X2.400000*%
%ADD18C,1.400000*%
%ADD19R,0.800000X1.500000*%
%ADD20R,2.000000X2.000000*%
%ADD21C,2.000000*%
%ADD22C,4.400000*%
G04 APERTURE END LIST*
D10*
X183819047Y-98171428D02*
X184580952Y-98171428D01*
X184200000Y-98552380D02*
X184200000Y-97790476D01*
D11*
X195676190Y-124252380D02*
X195676190Y-123252380D01*
X196723809Y-124252380D02*
X196390476Y-123776190D01*
X196152380Y-124252380D02*
X196152380Y-123252380D01*
X196533333Y-123252380D01*
X196628571Y-123300000D01*
X196676190Y-123347619D01*
X196723809Y-123442857D01*
X196723809Y-123585714D01*
X196676190Y-123680952D01*
X196628571Y-123728571D01*
X196533333Y-123776190D01*
X196152380Y-123776190D01*
X197819047Y-124347619D02*
X197723809Y-124300000D01*
X197628571Y-124204761D01*
X197485714Y-124061904D01*
X197390476Y-124014285D01*
X197295238Y-124014285D01*
X197342857Y-124252380D02*
X197247619Y-124204761D01*
X197152380Y-124109523D01*
X197104761Y-123919047D01*
X197104761Y-123585714D01*
X197152380Y-123395238D01*
X197247619Y-123300000D01*
X197342857Y-123252380D01*
X197533333Y-123252380D01*
X197628571Y-123300000D01*
X197723809Y-123395238D01*
X197771428Y-123585714D01*
X197771428Y-123919047D01*
X197723809Y-124109523D01*
X197628571Y-124204761D01*
X197533333Y-124252380D01*
X197342857Y-124252380D01*
X184042857Y-95361904D02*
X184042857Y-94561904D01*
X184385714Y-94638095D02*
X184423809Y-94600000D01*
X184500000Y-94561904D01*
X184690476Y-94561904D01*
X184766666Y-94600000D01*
X184804761Y-94638095D01*
X184842857Y-94714285D01*
X184842857Y-94790476D01*
X184804761Y-94904761D01*
X184347619Y-95361904D01*
X184842857Y-95361904D01*
X185642857Y-95285714D02*
X185604761Y-95323809D01*
X185490476Y-95361904D01*
X185414285Y-95361904D01*
X185300000Y-95323809D01*
X185223809Y-95247619D01*
X185185714Y-95171428D01*
X185147619Y-95019047D01*
X185147619Y-94904761D01*
X185185714Y-94752380D01*
X185223809Y-94676190D01*
X185300000Y-94600000D01*
X185414285Y-94561904D01*
X185490476Y-94561904D01*
X185604761Y-94600000D01*
X185642857Y-94638095D01*
X187052380Y-95361904D02*
X186785714Y-94980952D01*
X186595238Y-95361904D02*
X186595238Y-94561904D01*
X186900000Y-94561904D01*
X186976190Y-94600000D01*
X187014285Y-94638095D01*
X187052380Y-94714285D01*
X187052380Y-94828571D01*
X187014285Y-94904761D01*
X186976190Y-94942857D01*
X186900000Y-94980952D01*
X186595238Y-94980952D01*
X187357142Y-95323809D02*
X187471428Y-95361904D01*
X187661904Y-95361904D01*
X187738095Y-95323809D01*
X187776190Y-95285714D01*
X187814285Y-95209523D01*
X187814285Y-95133333D01*
X187776190Y-95057142D01*
X187738095Y-95019047D01*
X187661904Y-94980952D01*
X187509523Y-94942857D01*
X187433333Y-94904761D01*
X187395238Y-94866666D01*
X187357142Y-94790476D01*
X187357142Y-94714285D01*
X187395238Y-94638095D01*
X187433333Y-94600000D01*
X187509523Y-94561904D01*
X187700000Y-94561904D01*
X187814285Y-94600000D01*
X188119047Y-94638095D02*
X188157142Y-94600000D01*
X188233333Y-94561904D01*
X188423809Y-94561904D01*
X188500000Y-94600000D01*
X188538095Y-94638095D01*
X188576190Y-94714285D01*
X188576190Y-94790476D01*
X188538095Y-94904761D01*
X188080952Y-95361904D01*
X188576190Y-95361904D01*
X188842857Y-94561904D02*
X189338095Y-94561904D01*
X189071428Y-94866666D01*
X189185714Y-94866666D01*
X189261904Y-94904761D01*
X189300000Y-94942857D01*
X189338095Y-95019047D01*
X189338095Y-95209523D01*
X189300000Y-95285714D01*
X189261904Y-95323809D01*
X189185714Y-95361904D01*
X188957142Y-95361904D01*
X188880952Y-95323809D01*
X188842857Y-95285714D01*
X189642857Y-94638095D02*
X189680952Y-94600000D01*
X189757142Y-94561904D01*
X189947619Y-94561904D01*
X190023809Y-94600000D01*
X190061904Y-94638095D01*
X190100000Y-94714285D01*
X190100000Y-94790476D01*
X190061904Y-94904761D01*
X189604761Y-95361904D01*
X190100000Y-95361904D01*
X190900000Y-95285714D02*
X190861904Y-95323809D01*
X190747619Y-95361904D01*
X190671428Y-95361904D01*
X190557142Y-95323809D01*
X190480952Y-95247619D01*
X190442857Y-95171428D01*
X190404761Y-95019047D01*
X190404761Y-94904761D01*
X190442857Y-94752380D01*
X190480952Y-94676190D01*
X190557142Y-94600000D01*
X190671428Y-94561904D01*
X190747619Y-94561904D01*
X190861904Y-94600000D01*
X190900000Y-94638095D01*
X192309523Y-95285714D02*
X192271428Y-95323809D01*
X192157142Y-95361904D01*
X192080952Y-95361904D01*
X191966666Y-95323809D01*
X191890476Y-95247619D01*
X191852380Y-95171428D01*
X191814285Y-95019047D01*
X191814285Y-94904761D01*
X191852380Y-94752380D01*
X191890476Y-94676190D01*
X191966666Y-94600000D01*
X192080952Y-94561904D01*
X192157142Y-94561904D01*
X192271428Y-94600000D01*
X192309523Y-94638095D01*
X192766666Y-95361904D02*
X192690476Y-95323809D01*
X192652380Y-95285714D01*
X192614285Y-95209523D01*
X192614285Y-94980952D01*
X192652380Y-94904761D01*
X192690476Y-94866666D01*
X192766666Y-94828571D01*
X192880952Y-94828571D01*
X192957142Y-94866666D01*
X192995238Y-94904761D01*
X193033333Y-94980952D01*
X193033333Y-95209523D01*
X192995238Y-95285714D01*
X192957142Y-95323809D01*
X192880952Y-95361904D01*
X192766666Y-95361904D01*
X193376190Y-94828571D02*
X193376190Y-95361904D01*
X193376190Y-94904761D02*
X193414285Y-94866666D01*
X193490476Y-94828571D01*
X193604761Y-94828571D01*
X193680952Y-94866666D01*
X193719047Y-94942857D01*
X193719047Y-95361904D01*
X194023809Y-94828571D02*
X194214285Y-95361904D01*
X194404761Y-94828571D01*
X195014285Y-95323809D02*
X194938095Y-95361904D01*
X194785714Y-95361904D01*
X194709523Y-95323809D01*
X194671428Y-95247619D01*
X194671428Y-94942857D01*
X194709523Y-94866666D01*
X194785714Y-94828571D01*
X194938095Y-94828571D01*
X195014285Y-94866666D01*
X195052380Y-94942857D01*
X195052380Y-95019047D01*
X194671428Y-95095238D01*
X195395238Y-95361904D02*
X195395238Y-94828571D01*
X195395238Y-94980952D02*
X195433333Y-94904761D01*
X195471428Y-94866666D01*
X195547619Y-94828571D01*
X195623809Y-94828571D01*
X195776190Y-94828571D02*
X196080952Y-94828571D01*
X195890476Y-94561904D02*
X195890476Y-95247619D01*
X195928571Y-95323809D01*
X196004761Y-95361904D01*
X196080952Y-95361904D01*
X196652380Y-95323809D02*
X196576190Y-95361904D01*
X196423809Y-95361904D01*
X196347619Y-95323809D01*
X196309523Y-95247619D01*
X196309523Y-94942857D01*
X196347619Y-94866666D01*
X196423809Y-94828571D01*
X196576190Y-94828571D01*
X196652380Y-94866666D01*
X196690476Y-94942857D01*
X196690476Y-95019047D01*
X196309523Y-95095238D01*
X197033333Y-95361904D02*
X197033333Y-94828571D01*
X197033333Y-94980952D02*
X197071428Y-94904761D01*
X197109523Y-94866666D01*
X197185714Y-94828571D01*
X197261904Y-94828571D01*
X184766666Y-96038095D02*
X184804761Y-96000000D01*
X184880952Y-95961904D01*
X185071428Y-95961904D01*
X185147619Y-96000000D01*
X185185714Y-96038095D01*
X185223809Y-96114285D01*
X185223809Y-96190476D01*
X185185714Y-96304761D01*
X184728571Y-96761904D01*
X185223809Y-96761904D01*
X185490476Y-95961904D02*
X185985714Y-95961904D01*
X185719047Y-96266666D01*
X185833333Y-96266666D01*
X185909523Y-96304761D01*
X185947619Y-96342857D01*
X185985714Y-96419047D01*
X185985714Y-96609523D01*
X185947619Y-96685714D01*
X185909523Y-96723809D01*
X185833333Y-96761904D01*
X185604761Y-96761904D01*
X185528571Y-96723809D01*
X185490476Y-96685714D01*
X186480952Y-95961904D02*
X186557142Y-95961904D01*
X186633333Y-96000000D01*
X186671428Y-96038095D01*
X186709523Y-96114285D01*
X186747619Y-96266666D01*
X186747619Y-96457142D01*
X186709523Y-96609523D01*
X186671428Y-96685714D01*
X186633333Y-96723809D01*
X186557142Y-96761904D01*
X186480952Y-96761904D01*
X186404761Y-96723809D01*
X186366666Y-96685714D01*
X186328571Y-96609523D01*
X186290476Y-96457142D01*
X186290476Y-96266666D01*
X186328571Y-96114285D01*
X186366666Y-96038095D01*
X186404761Y-96000000D01*
X186480952Y-95961904D01*
X187052380Y-96038095D02*
X187090476Y-96000000D01*
X187166666Y-95961904D01*
X187357142Y-95961904D01*
X187433333Y-96000000D01*
X187471428Y-96038095D01*
X187509523Y-96114285D01*
X187509523Y-96190476D01*
X187471428Y-96304761D01*
X187014285Y-96761904D01*
X187509523Y-96761904D01*
X189528571Y-96685714D02*
X189490476Y-96723809D01*
X189376190Y-96761904D01*
X189300000Y-96761904D01*
X189185714Y-96723809D01*
X189109523Y-96647619D01*
X189071428Y-96571428D01*
X189033333Y-96419047D01*
X189033333Y-96304761D01*
X189071428Y-96152380D01*
X189109523Y-96076190D01*
X189185714Y-96000000D01*
X189300000Y-95961904D01*
X189376190Y-95961904D01*
X189490476Y-96000000D01*
X189528571Y-96038095D01*
X189871428Y-96761904D02*
X189871428Y-96228571D01*
X189871428Y-96380952D02*
X189909523Y-96304761D01*
X189947619Y-96266666D01*
X190023809Y-96228571D01*
X190100000Y-96228571D01*
X190671428Y-96723809D02*
X190595238Y-96761904D01*
X190442857Y-96761904D01*
X190366666Y-96723809D01*
X190328571Y-96647619D01*
X190328571Y-96342857D01*
X190366666Y-96266666D01*
X190442857Y-96228571D01*
X190595238Y-96228571D01*
X190671428Y-96266666D01*
X190709523Y-96342857D01*
X190709523Y-96419047D01*
X190328571Y-96495238D01*
X191014285Y-96723809D02*
X191090476Y-96761904D01*
X191242857Y-96761904D01*
X191319047Y-96723809D01*
X191357142Y-96647619D01*
X191357142Y-96609523D01*
X191319047Y-96533333D01*
X191242857Y-96495238D01*
X191128571Y-96495238D01*
X191052380Y-96457142D01*
X191014285Y-96380952D01*
X191014285Y-96342857D01*
X191052380Y-96266666D01*
X191128571Y-96228571D01*
X191242857Y-96228571D01*
X191319047Y-96266666D01*
X192042857Y-96723809D02*
X191966666Y-96761904D01*
X191814285Y-96761904D01*
X191738095Y-96723809D01*
X191700000Y-96685714D01*
X191661904Y-96609523D01*
X191661904Y-96380952D01*
X191700000Y-96304761D01*
X191738095Y-96266666D01*
X191814285Y-96228571D01*
X191966666Y-96228571D01*
X192042857Y-96266666D01*
X192690476Y-96723809D02*
X192614285Y-96761904D01*
X192461904Y-96761904D01*
X192385714Y-96723809D01*
X192347619Y-96647619D01*
X192347619Y-96342857D01*
X192385714Y-96266666D01*
X192461904Y-96228571D01*
X192614285Y-96228571D01*
X192690476Y-96266666D01*
X192728571Y-96342857D01*
X192728571Y-96419047D01*
X192347619Y-96495238D01*
X193071428Y-96228571D02*
X193071428Y-96761904D01*
X193071428Y-96304761D02*
X193109523Y-96266666D01*
X193185714Y-96228571D01*
X193300000Y-96228571D01*
X193376190Y-96266666D01*
X193414285Y-96342857D01*
X193414285Y-96761904D01*
X193680952Y-96228571D02*
X193985714Y-96228571D01*
X193795238Y-95961904D02*
X193795238Y-96647619D01*
X193833333Y-96723809D01*
X193909523Y-96761904D01*
X193985714Y-96761904D01*
X194785714Y-96228571D02*
X194976190Y-96761904D01*
X195166666Y-96228571D01*
X195890476Y-96761904D02*
X195433333Y-96761904D01*
X195661904Y-96761904D02*
X195661904Y-95961904D01*
X195585714Y-96076190D01*
X195509523Y-96152380D01*
X195433333Y-96190476D01*
X196233333Y-96685714D02*
X196271428Y-96723809D01*
X196233333Y-96761904D01*
X196195238Y-96723809D01*
X196233333Y-96685714D01*
X196233333Y-96761904D01*
X196576190Y-96038095D02*
X196614285Y-96000000D01*
X196690476Y-95961904D01*
X196880952Y-95961904D01*
X196957142Y-96000000D01*
X196995238Y-96038095D01*
X197033333Y-96114285D01*
X197033333Y-96190476D01*
X196995238Y-96304761D01*
X196538095Y-96761904D01*
X197033333Y-96761904D01*
D10*
X186700000Y-109000000D02*
X186200000Y-109000000D01*
X186200000Y-109000000D02*
X186200000Y-113000000D01*
X186200000Y-113000000D02*
X186700000Y-113000000D01*
X186700000Y-111000000D02*
X186700000Y-115500000D01*
X186700000Y-115500000D02*
X183700000Y-115500000D01*
X183700000Y-115500000D02*
X183700000Y-106500000D01*
X183700000Y-106500000D02*
X186700000Y-106500000D01*
X186700000Y-106500000D02*
X186700000Y-111000000D01*
D12*
X192000779Y-106260000D02*
X191675221Y-106260000D01*
X192000779Y-105240000D02*
X191675221Y-105240000D01*
X197710000Y-103374779D02*
X197710000Y-103049221D01*
X196690000Y-103374779D02*
X196690000Y-103049221D01*
X181090000Y-103374779D02*
X181090000Y-103049221D01*
X182110000Y-103374779D02*
X182110000Y-103049221D01*
X185400000Y-98835000D02*
X187685000Y-98835000D01*
X187685000Y-98835000D02*
X187685000Y-97365000D01*
X187685000Y-97365000D02*
X185400000Y-97365000D01*
X189292779Y-120500000D02*
X188967221Y-120500000D01*
X189292779Y-121520000D02*
X188967221Y-121520000D01*
X185667221Y-121520000D02*
X185992779Y-121520000D01*
X185667221Y-120500000D02*
X185992779Y-120500000D01*
X196842779Y-119820000D02*
X196517221Y-119820000D01*
X196842779Y-118800000D02*
X196517221Y-118800000D01*
X193217221Y-118800000D02*
X193542779Y-118800000D01*
X193217221Y-119820000D02*
X193542779Y-119820000D01*
X182012779Y-118160000D02*
X181687221Y-118160000D01*
X182012779Y-117140000D02*
X181687221Y-117140000D01*
X189292779Y-118800000D02*
X188967221Y-118800000D01*
X189292779Y-119820000D02*
X188967221Y-119820000D01*
X185667221Y-119820000D02*
X185992779Y-119820000D01*
X185667221Y-118800000D02*
X185992779Y-118800000D01*
X182012779Y-118890000D02*
X181687221Y-118890000D01*
X182012779Y-119910000D02*
X181687221Y-119910000D01*
X196842779Y-121520000D02*
X196517221Y-121520000D01*
X196842779Y-120500000D02*
X196517221Y-120500000D01*
X193217221Y-120500000D02*
X193542779Y-120500000D01*
X193217221Y-121520000D02*
X193542779Y-121520000D01*
X193337221Y-124690000D02*
X193662779Y-124690000D01*
X193337221Y-125710000D02*
X193662779Y-125710000D01*
X195800779Y-105240000D02*
X195475221Y-105240000D01*
X195800779Y-106260000D02*
X195475221Y-106260000D01*
X191249221Y-97590000D02*
X191574779Y-97590000D01*
X191249221Y-98610000D02*
X191574779Y-98610000D01*
X183450000Y-104650000D02*
X196050000Y-104650000D01*
X196050000Y-104650000D02*
X196050000Y-99550000D01*
X196050000Y-99550000D02*
X183450000Y-99550000D01*
X197400000Y-125200000D02*
G75*
G03X197400000Y-125200000I-700000J0D01*
G01*
D10*
X197225000Y-114295000D02*
X197200000Y-114295000D01*
X189175000Y-114295000D02*
X189200000Y-114295000D01*
X189175000Y-109645000D02*
X189200000Y-109645000D01*
X197275000Y-108570000D02*
X197275000Y-114295000D01*
X189175000Y-109645000D02*
X189175000Y-114295000D01*
D12*
X211880000Y-125945000D02*
X199540000Y-125945000D01*
X199540000Y-125945000D02*
X199540000Y-94975000D01*
X199540000Y-94975000D02*
X211880000Y-94975000D01*
X198645662Y-116250000D02*
X198645662Y-115750000D01*
X198645662Y-115750000D02*
X199078675Y-116000000D01*
X199078675Y-116000000D02*
X198645662Y-116250000D01*
D10*
X172952380Y-124452380D02*
X172619047Y-123976190D01*
X172380952Y-124452380D02*
X172380952Y-123452380D01*
X172761904Y-123452380D01*
X172857142Y-123500000D01*
X172904761Y-123547619D01*
X172952380Y-123642857D01*
X172952380Y-123785714D01*
X172904761Y-123880952D01*
X172857142Y-123928571D01*
X172761904Y-123976190D01*
X172380952Y-123976190D01*
X173380952Y-123928571D02*
X173714285Y-123928571D01*
X173857142Y-124452380D02*
X173380952Y-124452380D01*
X173380952Y-123452380D01*
X173857142Y-123452380D01*
X174619047Y-123928571D02*
X174285714Y-123928571D01*
X174285714Y-124452380D02*
X174285714Y-123452380D01*
X174761904Y-123452380D01*
X175095238Y-123547619D02*
X175142857Y-123500000D01*
X175238095Y-123452380D01*
X175476190Y-123452380D01*
X175571428Y-123500000D01*
X175619047Y-123547619D01*
X175666666Y-123642857D01*
X175666666Y-123738095D01*
X175619047Y-123880952D01*
X175047619Y-124452380D01*
X175666666Y-124452380D01*
X178852380Y-92952380D02*
X178519047Y-92476190D01*
X178280952Y-92952380D02*
X178280952Y-91952380D01*
X178661904Y-91952380D01*
X178757142Y-92000000D01*
X178804761Y-92047619D01*
X178852380Y-92142857D01*
X178852380Y-92285714D01*
X178804761Y-92380952D01*
X178757142Y-92428571D01*
X178661904Y-92476190D01*
X178280952Y-92476190D01*
X179280952Y-92428571D02*
X179614285Y-92428571D01*
X179757142Y-92952380D02*
X179280952Y-92952380D01*
X179280952Y-91952380D01*
X179757142Y-91952380D01*
X180519047Y-92428571D02*
X180185714Y-92428571D01*
X180185714Y-92952380D02*
X180185714Y-91952380D01*
X180661904Y-91952380D01*
X181566666Y-92952380D02*
X180995238Y-92952380D01*
X181280952Y-92952380D02*
X181280952Y-91952380D01*
X181185714Y-92095238D01*
X181090476Y-92190476D01*
X180995238Y-92238095D01*
X184366666Y-105152380D02*
X184366666Y-105866666D01*
X184319047Y-106009523D01*
X184223809Y-106104761D01*
X184080952Y-106152380D01*
X183985714Y-106152380D01*
X184842857Y-106152380D02*
X184842857Y-105152380D01*
X185223809Y-105152380D01*
X185319047Y-105200000D01*
X185366666Y-105247619D01*
X185414285Y-105342857D01*
X185414285Y-105485714D01*
X185366666Y-105580952D01*
X185319047Y-105628571D01*
X185223809Y-105676190D01*
X184842857Y-105676190D01*
X186366666Y-106152380D02*
X185795238Y-106152380D01*
X186080952Y-106152380D02*
X186080952Y-105152380D01*
X185985714Y-105295238D01*
X185890476Y-105390476D01*
X185795238Y-105438095D01*
X187757142Y-113690476D02*
X187804761Y-113738095D01*
X187852380Y-113880952D01*
X187852380Y-113976190D01*
X187804761Y-114119047D01*
X187709523Y-114214285D01*
X187614285Y-114261904D01*
X187423809Y-114309523D01*
X187280952Y-114309523D01*
X187090476Y-114261904D01*
X186995238Y-114214285D01*
X186900000Y-114119047D01*
X186852380Y-113976190D01*
X186852380Y-113880952D01*
X186900000Y-113738095D01*
X186947619Y-113690476D01*
X187852380Y-112261904D02*
X186852380Y-112261904D01*
X186852380Y-112023809D01*
X186900000Y-111880952D01*
X186995238Y-111785714D01*
X187090476Y-111738095D01*
X187280952Y-111690476D01*
X187423809Y-111690476D01*
X187614285Y-111738095D01*
X187709523Y-111785714D01*
X187804761Y-111880952D01*
X187852380Y-112023809D01*
X187852380Y-112261904D01*
X186852380Y-110333333D02*
X187852380Y-110000000D01*
X186852380Y-109666666D01*
X186900000Y-107738095D02*
X186852380Y-107833333D01*
X186852380Y-107976190D01*
X186900000Y-108119047D01*
X186995238Y-108214285D01*
X187090476Y-108261904D01*
X187280952Y-108309523D01*
X187423809Y-108309523D01*
X187614285Y-108261904D01*
X187709523Y-108214285D01*
X187804761Y-108119047D01*
X187852380Y-107976190D01*
X187852380Y-107880952D01*
X187804761Y-107738095D01*
X187757142Y-107690476D01*
X187423809Y-107690476D01*
X187423809Y-107880952D01*
X189171333Y-106107142D02*
X189123714Y-106154761D01*
X188980857Y-106202380D01*
X188885619Y-106202380D01*
X188742761Y-106154761D01*
X188647523Y-106059523D01*
X188599904Y-105964285D01*
X188552285Y-105773809D01*
X188552285Y-105630952D01*
X188599904Y-105440476D01*
X188647523Y-105345238D01*
X188742761Y-105250000D01*
X188885619Y-105202380D01*
X188980857Y-105202380D01*
X189123714Y-105250000D01*
X189171333Y-105297619D01*
X190123714Y-106202380D02*
X189552285Y-106202380D01*
X189838000Y-106202380D02*
X189838000Y-105202380D01*
X189742761Y-105345238D01*
X189647523Y-105440476D01*
X189552285Y-105488095D01*
X197557142Y-100978666D02*
X197604761Y-101026285D01*
X197652380Y-101169142D01*
X197652380Y-101264380D01*
X197604761Y-101407238D01*
X197509523Y-101502476D01*
X197414285Y-101550095D01*
X197223809Y-101597714D01*
X197080952Y-101597714D01*
X196890476Y-101550095D01*
X196795238Y-101502476D01*
X196700000Y-101407238D01*
X196652380Y-101264380D01*
X196652380Y-101169142D01*
X196700000Y-101026285D01*
X196747619Y-100978666D01*
X196652380Y-100073904D02*
X196652380Y-100550095D01*
X197128571Y-100597714D01*
X197080952Y-100550095D01*
X197033333Y-100454857D01*
X197033333Y-100216761D01*
X197080952Y-100121523D01*
X197128571Y-100073904D01*
X197223809Y-100026285D01*
X197461904Y-100026285D01*
X197557142Y-100073904D01*
X197604761Y-100121523D01*
X197652380Y-100216761D01*
X197652380Y-100454857D01*
X197604761Y-100550095D01*
X197557142Y-100597714D01*
X181957142Y-100878666D02*
X182004761Y-100926285D01*
X182052380Y-101069142D01*
X182052380Y-101164380D01*
X182004761Y-101307238D01*
X181909523Y-101402476D01*
X181814285Y-101450095D01*
X181623809Y-101497714D01*
X181480952Y-101497714D01*
X181290476Y-101450095D01*
X181195238Y-101402476D01*
X181100000Y-101307238D01*
X181052380Y-101164380D01*
X181052380Y-101069142D01*
X181100000Y-100926285D01*
X181147619Y-100878666D01*
X181052380Y-100021523D02*
X181052380Y-100212000D01*
X181100000Y-100307238D01*
X181147619Y-100354857D01*
X181290476Y-100450095D01*
X181480952Y-100497714D01*
X181861904Y-100497714D01*
X181957142Y-100450095D01*
X182004761Y-100402476D01*
X182052380Y-100307238D01*
X182052380Y-100116761D01*
X182004761Y-100021523D01*
X181957142Y-99973904D01*
X181861904Y-99926285D01*
X181623809Y-99926285D01*
X181528571Y-99973904D01*
X181480952Y-100021523D01*
X181433333Y-100116761D01*
X181433333Y-100307238D01*
X181480952Y-100402476D01*
X181528571Y-100450095D01*
X181623809Y-100497714D01*
X187961904Y-98552380D02*
X187961904Y-97552380D01*
X188200000Y-97552380D01*
X188342857Y-97600000D01*
X188438095Y-97695238D01*
X188485714Y-97790476D01*
X188533333Y-97980952D01*
X188533333Y-98123809D01*
X188485714Y-98314285D01*
X188438095Y-98409523D01*
X188342857Y-98504761D01*
X188200000Y-98552380D01*
X187961904Y-98552380D01*
X189485714Y-98552380D02*
X188914285Y-98552380D01*
X189200000Y-98552380D02*
X189200000Y-97552380D01*
X189104761Y-97695238D01*
X189009523Y-97790476D01*
X188914285Y-97838095D01*
X188913333Y-122912380D02*
X188580000Y-122436190D01*
X188341904Y-122912380D02*
X188341904Y-121912380D01*
X188722857Y-121912380D01*
X188818095Y-121960000D01*
X188865714Y-122007619D01*
X188913333Y-122102857D01*
X188913333Y-122245714D01*
X188865714Y-122340952D01*
X188818095Y-122388571D01*
X188722857Y-122436190D01*
X188341904Y-122436190D01*
X189865714Y-122912380D02*
X189294285Y-122912380D01*
X189580000Y-122912380D02*
X189580000Y-121912380D01*
X189484761Y-122055238D01*
X189389523Y-122150476D01*
X189294285Y-122198095D01*
X185613333Y-122862380D02*
X185280000Y-122386190D01*
X185041904Y-122862380D02*
X185041904Y-121862380D01*
X185422857Y-121862380D01*
X185518095Y-121910000D01*
X185565714Y-121957619D01*
X185613333Y-122052857D01*
X185613333Y-122195714D01*
X185565714Y-122290952D01*
X185518095Y-122338571D01*
X185422857Y-122386190D01*
X185041904Y-122386190D01*
X185994285Y-121957619D02*
X186041904Y-121910000D01*
X186137142Y-121862380D01*
X186375238Y-121862380D01*
X186470476Y-121910000D01*
X186518095Y-121957619D01*
X186565714Y-122052857D01*
X186565714Y-122148095D01*
X186518095Y-122290952D01*
X185946666Y-122862380D01*
X186565714Y-122862380D01*
X196463333Y-118412380D02*
X196130000Y-117936190D01*
X195891904Y-118412380D02*
X195891904Y-117412380D01*
X196272857Y-117412380D01*
X196368095Y-117460000D01*
X196415714Y-117507619D01*
X196463333Y-117602857D01*
X196463333Y-117745714D01*
X196415714Y-117840952D01*
X196368095Y-117888571D01*
X196272857Y-117936190D01*
X195891904Y-117936190D01*
X196796666Y-117412380D02*
X197415714Y-117412380D01*
X197082380Y-117793333D01*
X197225238Y-117793333D01*
X197320476Y-117840952D01*
X197368095Y-117888571D01*
X197415714Y-117983809D01*
X197415714Y-118221904D01*
X197368095Y-118317142D01*
X197320476Y-118364761D01*
X197225238Y-118412380D01*
X196939523Y-118412380D01*
X196844285Y-118364761D01*
X196796666Y-118317142D01*
X193313333Y-118412380D02*
X192980000Y-117936190D01*
X192741904Y-118412380D02*
X192741904Y-117412380D01*
X193122857Y-117412380D01*
X193218095Y-117460000D01*
X193265714Y-117507619D01*
X193313333Y-117602857D01*
X193313333Y-117745714D01*
X193265714Y-117840952D01*
X193218095Y-117888571D01*
X193122857Y-117936190D01*
X192741904Y-117936190D01*
X194170476Y-117745714D02*
X194170476Y-118412380D01*
X193932380Y-117364761D02*
X193694285Y-118079047D01*
X194313333Y-118079047D01*
X178833333Y-118452380D02*
X178500000Y-117976190D01*
X178261904Y-118452380D02*
X178261904Y-117452380D01*
X178642857Y-117452380D01*
X178738095Y-117500000D01*
X178785714Y-117547619D01*
X178833333Y-117642857D01*
X178833333Y-117785714D01*
X178785714Y-117880952D01*
X178738095Y-117928571D01*
X178642857Y-117976190D01*
X178261904Y-117976190D01*
X179738095Y-117452380D02*
X179261904Y-117452380D01*
X179214285Y-117928571D01*
X179261904Y-117880952D01*
X179357142Y-117833333D01*
X179595238Y-117833333D01*
X179690476Y-117880952D01*
X179738095Y-117928571D01*
X179785714Y-118023809D01*
X179785714Y-118261904D01*
X179738095Y-118357142D01*
X179690476Y-118404761D01*
X179595238Y-118452380D01*
X179357142Y-118452380D01*
X179261904Y-118404761D01*
X179214285Y-118357142D01*
X188913333Y-118362380D02*
X188580000Y-117886190D01*
X188341904Y-118362380D02*
X188341904Y-117362380D01*
X188722857Y-117362380D01*
X188818095Y-117410000D01*
X188865714Y-117457619D01*
X188913333Y-117552857D01*
X188913333Y-117695714D01*
X188865714Y-117790952D01*
X188818095Y-117838571D01*
X188722857Y-117886190D01*
X188341904Y-117886190D01*
X189770476Y-117362380D02*
X189580000Y-117362380D01*
X189484761Y-117410000D01*
X189437142Y-117457619D01*
X189341904Y-117600476D01*
X189294285Y-117790952D01*
X189294285Y-118171904D01*
X189341904Y-118267142D01*
X189389523Y-118314761D01*
X189484761Y-118362380D01*
X189675238Y-118362380D01*
X189770476Y-118314761D01*
X189818095Y-118267142D01*
X189865714Y-118171904D01*
X189865714Y-117933809D01*
X189818095Y-117838571D01*
X189770476Y-117790952D01*
X189675238Y-117743333D01*
X189484761Y-117743333D01*
X189389523Y-117790952D01*
X189341904Y-117838571D01*
X189294285Y-117933809D01*
X185763333Y-118412380D02*
X185430000Y-117936190D01*
X185191904Y-118412380D02*
X185191904Y-117412380D01*
X185572857Y-117412380D01*
X185668095Y-117460000D01*
X185715714Y-117507619D01*
X185763333Y-117602857D01*
X185763333Y-117745714D01*
X185715714Y-117840952D01*
X185668095Y-117888571D01*
X185572857Y-117936190D01*
X185191904Y-117936190D01*
X186096666Y-117412380D02*
X186763333Y-117412380D01*
X186334761Y-118412380D01*
X178833333Y-119952380D02*
X178500000Y-119476190D01*
X178261904Y-119952380D02*
X178261904Y-118952380D01*
X178642857Y-118952380D01*
X178738095Y-119000000D01*
X178785714Y-119047619D01*
X178833333Y-119142857D01*
X178833333Y-119285714D01*
X178785714Y-119380952D01*
X178738095Y-119428571D01*
X178642857Y-119476190D01*
X178261904Y-119476190D01*
X179404761Y-119380952D02*
X179309523Y-119333333D01*
X179261904Y-119285714D01*
X179214285Y-119190476D01*
X179214285Y-119142857D01*
X179261904Y-119047619D01*
X179309523Y-119000000D01*
X179404761Y-118952380D01*
X179595238Y-118952380D01*
X179690476Y-119000000D01*
X179738095Y-119047619D01*
X179785714Y-119142857D01*
X179785714Y-119190476D01*
X179738095Y-119285714D01*
X179690476Y-119333333D01*
X179595238Y-119380952D01*
X179404761Y-119380952D01*
X179309523Y-119428571D01*
X179261904Y-119476190D01*
X179214285Y-119571428D01*
X179214285Y-119761904D01*
X179261904Y-119857142D01*
X179309523Y-119904761D01*
X179404761Y-119952380D01*
X179595238Y-119952380D01*
X179690476Y-119904761D01*
X179738095Y-119857142D01*
X179785714Y-119761904D01*
X179785714Y-119571428D01*
X179738095Y-119476190D01*
X179690476Y-119428571D01*
X179595238Y-119380952D01*
X196563333Y-122912380D02*
X196230000Y-122436190D01*
X195991904Y-122912380D02*
X195991904Y-121912380D01*
X196372857Y-121912380D01*
X196468095Y-121960000D01*
X196515714Y-122007619D01*
X196563333Y-122102857D01*
X196563333Y-122245714D01*
X196515714Y-122340952D01*
X196468095Y-122388571D01*
X196372857Y-122436190D01*
X195991904Y-122436190D01*
X197039523Y-122912380D02*
X197230000Y-122912380D01*
X197325238Y-122864761D01*
X197372857Y-122817142D01*
X197468095Y-122674285D01*
X197515714Y-122483809D01*
X197515714Y-122102857D01*
X197468095Y-122007619D01*
X197420476Y-121960000D01*
X197325238Y-121912380D01*
X197134761Y-121912380D01*
X197039523Y-121960000D01*
X196991904Y-122007619D01*
X196944285Y-122102857D01*
X196944285Y-122340952D01*
X196991904Y-122436190D01*
X197039523Y-122483809D01*
X197134761Y-122531428D01*
X197325238Y-122531428D01*
X197420476Y-122483809D01*
X197468095Y-122436190D01*
X197515714Y-122340952D01*
X192687142Y-122912380D02*
X192353809Y-122436190D01*
X192115714Y-122912380D02*
X192115714Y-121912380D01*
X192496666Y-121912380D01*
X192591904Y-121960000D01*
X192639523Y-122007619D01*
X192687142Y-122102857D01*
X192687142Y-122245714D01*
X192639523Y-122340952D01*
X192591904Y-122388571D01*
X192496666Y-122436190D01*
X192115714Y-122436190D01*
X193639523Y-122912380D02*
X193068095Y-122912380D01*
X193353809Y-122912380D02*
X193353809Y-121912380D01*
X193258571Y-122055238D01*
X193163333Y-122150476D01*
X193068095Y-122198095D01*
X194258571Y-121912380D02*
X194353809Y-121912380D01*
X194449047Y-121960000D01*
X194496666Y-122007619D01*
X194544285Y-122102857D01*
X194591904Y-122293333D01*
X194591904Y-122531428D01*
X194544285Y-122721904D01*
X194496666Y-122817142D01*
X194449047Y-122864761D01*
X194353809Y-122912380D01*
X194258571Y-122912380D01*
X194163333Y-122864761D01*
X194115714Y-122817142D01*
X194068095Y-122721904D01*
X194020476Y-122531428D01*
X194020476Y-122293333D01*
X194068095Y-122102857D01*
X194115714Y-122007619D01*
X194163333Y-121960000D01*
X194258571Y-121912380D01*
X189957142Y-125552380D02*
X189623809Y-125076190D01*
X189385714Y-125552380D02*
X189385714Y-124552380D01*
X189766666Y-124552380D01*
X189861904Y-124600000D01*
X189909523Y-124647619D01*
X189957142Y-124742857D01*
X189957142Y-124885714D01*
X189909523Y-124980952D01*
X189861904Y-125028571D01*
X189766666Y-125076190D01*
X189385714Y-125076190D01*
X190909523Y-125552380D02*
X190338095Y-125552380D01*
X190623809Y-125552380D02*
X190623809Y-124552380D01*
X190528571Y-124695238D01*
X190433333Y-124790476D01*
X190338095Y-124838095D01*
X191861904Y-125552380D02*
X191290476Y-125552380D01*
X191576190Y-125552380D02*
X191576190Y-124552380D01*
X191480952Y-124695238D01*
X191385714Y-124790476D01*
X191290476Y-124838095D01*
X195057142Y-107552380D02*
X194723809Y-107076190D01*
X194485714Y-107552380D02*
X194485714Y-106552380D01*
X194866666Y-106552380D01*
X194961904Y-106600000D01*
X195009523Y-106647619D01*
X195057142Y-106742857D01*
X195057142Y-106885714D01*
X195009523Y-106980952D01*
X194961904Y-107028571D01*
X194866666Y-107076190D01*
X194485714Y-107076190D01*
X196009523Y-107552380D02*
X195438095Y-107552380D01*
X195723809Y-107552380D02*
X195723809Y-106552380D01*
X195628571Y-106695238D01*
X195533333Y-106790476D01*
X195438095Y-106838095D01*
X196390476Y-106647619D02*
X196438095Y-106600000D01*
X196533333Y-106552380D01*
X196771428Y-106552380D01*
X196866666Y-106600000D01*
X196914285Y-106647619D01*
X196961904Y-106742857D01*
X196961904Y-106838095D01*
X196914285Y-106980952D01*
X196342857Y-107552380D01*
X196961904Y-107552380D01*
X193731642Y-98602380D02*
X193398309Y-98126190D01*
X193160214Y-98602380D02*
X193160214Y-97602380D01*
X193541166Y-97602380D01*
X193636404Y-97650000D01*
X193684023Y-97697619D01*
X193731642Y-97792857D01*
X193731642Y-97935714D01*
X193684023Y-98030952D01*
X193636404Y-98078571D01*
X193541166Y-98126190D01*
X193160214Y-98126190D01*
X194684023Y-98602380D02*
X194112595Y-98602380D01*
X194398309Y-98602380D02*
X194398309Y-97602380D01*
X194303071Y-97745238D01*
X194207833Y-97840476D01*
X194112595Y-97888095D01*
X195017357Y-97602380D02*
X195636404Y-97602380D01*
X195303071Y-97983333D01*
X195445928Y-97983333D01*
X195541166Y-98030952D01*
X195588785Y-98078571D01*
X195636404Y-98173809D01*
X195636404Y-98411904D01*
X195588785Y-98507142D01*
X195541166Y-98554761D01*
X195445928Y-98602380D01*
X195160214Y-98602380D01*
X195064976Y-98554761D01*
X195017357Y-98507142D01*
X196573809Y-98976190D02*
X196573809Y-99452380D01*
X196240476Y-98452380D02*
X196573809Y-98976190D01*
X196907142Y-98452380D01*
X197764285Y-99452380D02*
X197192857Y-99452380D01*
X197478571Y-99452380D02*
X197478571Y-98452380D01*
X197383333Y-98595238D01*
X197288095Y-98690476D01*
X197192857Y-98738095D01*
X197602380Y-112731904D02*
X198411904Y-112731904D01*
X198507142Y-112684285D01*
X198554761Y-112636666D01*
X198602380Y-112541428D01*
X198602380Y-112350952D01*
X198554761Y-112255714D01*
X198507142Y-112208095D01*
X198411904Y-112160476D01*
X197602380Y-112160476D01*
X197697619Y-111731904D02*
X197650000Y-111684285D01*
X197602380Y-111589047D01*
X197602380Y-111350952D01*
X197650000Y-111255714D01*
X197697619Y-111208095D01*
X197792857Y-111160476D01*
X197888095Y-111160476D01*
X198030952Y-111208095D01*
X198602380Y-111779523D01*
X198602380Y-111160476D01*
X197852380Y-96033333D02*
X198566666Y-96033333D01*
X198709523Y-96080952D01*
X198804761Y-96176190D01*
X198852380Y-96319047D01*
X198852380Y-96414285D01*
X198852380Y-95033333D02*
X198852380Y-95604761D01*
X198852380Y-95319047D02*
X197852380Y-95319047D01*
X197995238Y-95414285D01*
X198090476Y-95509523D01*
X198138095Y-95604761D01*
%LPC*%
D13*
X179900000Y-124000000D03*
X179900000Y-96700000D03*
D14*
X185200000Y-114000000D03*
X185200000Y-112000000D03*
X185200000Y-110000000D03*
X185200000Y-108000000D03*
D15*
G36*
X192975493Y-105076535D02*
G01*
X193006435Y-105081125D01*
X193036778Y-105088725D01*
X193066230Y-105099263D01*
X193094508Y-105112638D01*
X193121338Y-105128719D01*
X193146463Y-105147353D01*
X193169640Y-105168360D01*
X193190647Y-105191537D01*
X193209281Y-105216662D01*
X193225362Y-105243492D01*
X193238737Y-105271770D01*
X193249275Y-105301222D01*
X193256875Y-105331565D01*
X193261465Y-105362507D01*
X193263000Y-105393750D01*
X193263000Y-106106250D01*
X193261465Y-106137493D01*
X193256875Y-106168435D01*
X193249275Y-106198778D01*
X193238737Y-106228230D01*
X193225362Y-106256508D01*
X193209281Y-106283338D01*
X193190647Y-106308463D01*
X193169640Y-106331640D01*
X193146463Y-106352647D01*
X193121338Y-106371281D01*
X193094508Y-106387362D01*
X193066230Y-106400737D01*
X193036778Y-106411275D01*
X193006435Y-106418875D01*
X192975493Y-106423465D01*
X192944250Y-106425000D01*
X192306750Y-106425000D01*
X192275507Y-106423465D01*
X192244565Y-106418875D01*
X192214222Y-106411275D01*
X192184770Y-106400737D01*
X192156492Y-106387362D01*
X192129662Y-106371281D01*
X192104537Y-106352647D01*
X192081360Y-106331640D01*
X192060353Y-106308463D01*
X192041719Y-106283338D01*
X192025638Y-106256508D01*
X192012263Y-106228230D01*
X192001725Y-106198778D01*
X191994125Y-106168435D01*
X191989535Y-106137493D01*
X191988000Y-106106250D01*
X191988000Y-105393750D01*
X191989535Y-105362507D01*
X191994125Y-105331565D01*
X192001725Y-105301222D01*
X192012263Y-105271770D01*
X192025638Y-105243492D01*
X192041719Y-105216662D01*
X192060353Y-105191537D01*
X192081360Y-105168360D01*
X192104537Y-105147353D01*
X192129662Y-105128719D01*
X192156492Y-105112638D01*
X192184770Y-105099263D01*
X192214222Y-105088725D01*
X192244565Y-105081125D01*
X192275507Y-105076535D01*
X192306750Y-105075000D01*
X192944250Y-105075000D01*
X192975493Y-105076535D01*
X192975493Y-105076535D01*
G37*
D16*
X192625500Y-105750000D03*
D15*
G36*
X191400493Y-105076535D02*
G01*
X191431435Y-105081125D01*
X191461778Y-105088725D01*
X191491230Y-105099263D01*
X191519508Y-105112638D01*
X191546338Y-105128719D01*
X191571463Y-105147353D01*
X191594640Y-105168360D01*
X191615647Y-105191537D01*
X191634281Y-105216662D01*
X191650362Y-105243492D01*
X191663737Y-105271770D01*
X191674275Y-105301222D01*
X191681875Y-105331565D01*
X191686465Y-105362507D01*
X191688000Y-105393750D01*
X191688000Y-106106250D01*
X191686465Y-106137493D01*
X191681875Y-106168435D01*
X191674275Y-106198778D01*
X191663737Y-106228230D01*
X191650362Y-106256508D01*
X191634281Y-106283338D01*
X191615647Y-106308463D01*
X191594640Y-106331640D01*
X191571463Y-106352647D01*
X191546338Y-106371281D01*
X191519508Y-106387362D01*
X191491230Y-106400737D01*
X191461778Y-106411275D01*
X191431435Y-106418875D01*
X191400493Y-106423465D01*
X191369250Y-106425000D01*
X190731750Y-106425000D01*
X190700507Y-106423465D01*
X190669565Y-106418875D01*
X190639222Y-106411275D01*
X190609770Y-106400737D01*
X190581492Y-106387362D01*
X190554662Y-106371281D01*
X190529537Y-106352647D01*
X190506360Y-106331640D01*
X190485353Y-106308463D01*
X190466719Y-106283338D01*
X190450638Y-106256508D01*
X190437263Y-106228230D01*
X190426725Y-106198778D01*
X190419125Y-106168435D01*
X190414535Y-106137493D01*
X190413000Y-106106250D01*
X190413000Y-105393750D01*
X190414535Y-105362507D01*
X190419125Y-105331565D01*
X190426725Y-105301222D01*
X190437263Y-105271770D01*
X190450638Y-105243492D01*
X190466719Y-105216662D01*
X190485353Y-105191537D01*
X190506360Y-105168360D01*
X190529537Y-105147353D01*
X190554662Y-105128719D01*
X190581492Y-105112638D01*
X190609770Y-105099263D01*
X190639222Y-105088725D01*
X190669565Y-105081125D01*
X190700507Y-105076535D01*
X190731750Y-105075000D01*
X191369250Y-105075000D01*
X191400493Y-105076535D01*
X191400493Y-105076535D01*
G37*
D16*
X191050500Y-105750000D03*
D15*
G36*
X197587493Y-101788535D02*
G01*
X197618435Y-101793125D01*
X197648778Y-101800725D01*
X197678230Y-101811263D01*
X197706508Y-101824638D01*
X197733338Y-101840719D01*
X197758463Y-101859353D01*
X197781640Y-101880360D01*
X197802647Y-101903537D01*
X197821281Y-101928662D01*
X197837362Y-101955492D01*
X197850737Y-101983770D01*
X197861275Y-102013222D01*
X197868875Y-102043565D01*
X197873465Y-102074507D01*
X197875000Y-102105750D01*
X197875000Y-102743250D01*
X197873465Y-102774493D01*
X197868875Y-102805435D01*
X197861275Y-102835778D01*
X197850737Y-102865230D01*
X197837362Y-102893508D01*
X197821281Y-102920338D01*
X197802647Y-102945463D01*
X197781640Y-102968640D01*
X197758463Y-102989647D01*
X197733338Y-103008281D01*
X197706508Y-103024362D01*
X197678230Y-103037737D01*
X197648778Y-103048275D01*
X197618435Y-103055875D01*
X197587493Y-103060465D01*
X197556250Y-103062000D01*
X196843750Y-103062000D01*
X196812507Y-103060465D01*
X196781565Y-103055875D01*
X196751222Y-103048275D01*
X196721770Y-103037737D01*
X196693492Y-103024362D01*
X196666662Y-103008281D01*
X196641537Y-102989647D01*
X196618360Y-102968640D01*
X196597353Y-102945463D01*
X196578719Y-102920338D01*
X196562638Y-102893508D01*
X196549263Y-102865230D01*
X196538725Y-102835778D01*
X196531125Y-102805435D01*
X196526535Y-102774493D01*
X196525000Y-102743250D01*
X196525000Y-102105750D01*
X196526535Y-102074507D01*
X196531125Y-102043565D01*
X196538725Y-102013222D01*
X196549263Y-101983770D01*
X196562638Y-101955492D01*
X196578719Y-101928662D01*
X196597353Y-101903537D01*
X196618360Y-101880360D01*
X196641537Y-101859353D01*
X196666662Y-101840719D01*
X196693492Y-101824638D01*
X196721770Y-101811263D01*
X196751222Y-101800725D01*
X196781565Y-101793125D01*
X196812507Y-101788535D01*
X196843750Y-101787000D01*
X197556250Y-101787000D01*
X197587493Y-101788535D01*
X197587493Y-101788535D01*
G37*
D16*
X197200000Y-102424500D03*
D15*
G36*
X197587493Y-103363535D02*
G01*
X197618435Y-103368125D01*
X197648778Y-103375725D01*
X197678230Y-103386263D01*
X197706508Y-103399638D01*
X197733338Y-103415719D01*
X197758463Y-103434353D01*
X197781640Y-103455360D01*
X197802647Y-103478537D01*
X197821281Y-103503662D01*
X197837362Y-103530492D01*
X197850737Y-103558770D01*
X197861275Y-103588222D01*
X197868875Y-103618565D01*
X197873465Y-103649507D01*
X197875000Y-103680750D01*
X197875000Y-104318250D01*
X197873465Y-104349493D01*
X197868875Y-104380435D01*
X197861275Y-104410778D01*
X197850737Y-104440230D01*
X197837362Y-104468508D01*
X197821281Y-104495338D01*
X197802647Y-104520463D01*
X197781640Y-104543640D01*
X197758463Y-104564647D01*
X197733338Y-104583281D01*
X197706508Y-104599362D01*
X197678230Y-104612737D01*
X197648778Y-104623275D01*
X197618435Y-104630875D01*
X197587493Y-104635465D01*
X197556250Y-104637000D01*
X196843750Y-104637000D01*
X196812507Y-104635465D01*
X196781565Y-104630875D01*
X196751222Y-104623275D01*
X196721770Y-104612737D01*
X196693492Y-104599362D01*
X196666662Y-104583281D01*
X196641537Y-104564647D01*
X196618360Y-104543640D01*
X196597353Y-104520463D01*
X196578719Y-104495338D01*
X196562638Y-104468508D01*
X196549263Y-104440230D01*
X196538725Y-104410778D01*
X196531125Y-104380435D01*
X196526535Y-104349493D01*
X196525000Y-104318250D01*
X196525000Y-103680750D01*
X196526535Y-103649507D01*
X196531125Y-103618565D01*
X196538725Y-103588222D01*
X196549263Y-103558770D01*
X196562638Y-103530492D01*
X196578719Y-103503662D01*
X196597353Y-103478537D01*
X196618360Y-103455360D01*
X196641537Y-103434353D01*
X196666662Y-103415719D01*
X196693492Y-103399638D01*
X196721770Y-103386263D01*
X196751222Y-103375725D01*
X196781565Y-103368125D01*
X196812507Y-103363535D01*
X196843750Y-103362000D01*
X197556250Y-103362000D01*
X197587493Y-103363535D01*
X197587493Y-103363535D01*
G37*
D16*
X197200000Y-103999500D03*
D15*
G36*
X181987493Y-103363535D02*
G01*
X182018435Y-103368125D01*
X182048778Y-103375725D01*
X182078230Y-103386263D01*
X182106508Y-103399638D01*
X182133338Y-103415719D01*
X182158463Y-103434353D01*
X182181640Y-103455360D01*
X182202647Y-103478537D01*
X182221281Y-103503662D01*
X182237362Y-103530492D01*
X182250737Y-103558770D01*
X182261275Y-103588222D01*
X182268875Y-103618565D01*
X182273465Y-103649507D01*
X182275000Y-103680750D01*
X182275000Y-104318250D01*
X182273465Y-104349493D01*
X182268875Y-104380435D01*
X182261275Y-104410778D01*
X182250737Y-104440230D01*
X182237362Y-104468508D01*
X182221281Y-104495338D01*
X182202647Y-104520463D01*
X182181640Y-104543640D01*
X182158463Y-104564647D01*
X182133338Y-104583281D01*
X182106508Y-104599362D01*
X182078230Y-104612737D01*
X182048778Y-104623275D01*
X182018435Y-104630875D01*
X181987493Y-104635465D01*
X181956250Y-104637000D01*
X181243750Y-104637000D01*
X181212507Y-104635465D01*
X181181565Y-104630875D01*
X181151222Y-104623275D01*
X181121770Y-104612737D01*
X181093492Y-104599362D01*
X181066662Y-104583281D01*
X181041537Y-104564647D01*
X181018360Y-104543640D01*
X180997353Y-104520463D01*
X180978719Y-104495338D01*
X180962638Y-104468508D01*
X180949263Y-104440230D01*
X180938725Y-104410778D01*
X180931125Y-104380435D01*
X180926535Y-104349493D01*
X180925000Y-104318250D01*
X180925000Y-103680750D01*
X180926535Y-103649507D01*
X180931125Y-103618565D01*
X180938725Y-103588222D01*
X180949263Y-103558770D01*
X180962638Y-103530492D01*
X180978719Y-103503662D01*
X180997353Y-103478537D01*
X181018360Y-103455360D01*
X181041537Y-103434353D01*
X181066662Y-103415719D01*
X181093492Y-103399638D01*
X181121770Y-103386263D01*
X181151222Y-103375725D01*
X181181565Y-103368125D01*
X181212507Y-103363535D01*
X181243750Y-103362000D01*
X181956250Y-103362000D01*
X181987493Y-103363535D01*
X181987493Y-103363535D01*
G37*
D16*
X181600000Y-103999500D03*
D15*
G36*
X181987493Y-101788535D02*
G01*
X182018435Y-101793125D01*
X182048778Y-101800725D01*
X182078230Y-101811263D01*
X182106508Y-101824638D01*
X182133338Y-101840719D01*
X182158463Y-101859353D01*
X182181640Y-101880360D01*
X182202647Y-101903537D01*
X182221281Y-101928662D01*
X182237362Y-101955492D01*
X182250737Y-101983770D01*
X182261275Y-102013222D01*
X182268875Y-102043565D01*
X182273465Y-102074507D01*
X182275000Y-102105750D01*
X182275000Y-102743250D01*
X182273465Y-102774493D01*
X182268875Y-102805435D01*
X182261275Y-102835778D01*
X182250737Y-102865230D01*
X182237362Y-102893508D01*
X182221281Y-102920338D01*
X182202647Y-102945463D01*
X182181640Y-102968640D01*
X182158463Y-102989647D01*
X182133338Y-103008281D01*
X182106508Y-103024362D01*
X182078230Y-103037737D01*
X182048778Y-103048275D01*
X182018435Y-103055875D01*
X181987493Y-103060465D01*
X181956250Y-103062000D01*
X181243750Y-103062000D01*
X181212507Y-103060465D01*
X181181565Y-103055875D01*
X181151222Y-103048275D01*
X181121770Y-103037737D01*
X181093492Y-103024362D01*
X181066662Y-103008281D01*
X181041537Y-102989647D01*
X181018360Y-102968640D01*
X180997353Y-102945463D01*
X180978719Y-102920338D01*
X180962638Y-102893508D01*
X180949263Y-102865230D01*
X180938725Y-102835778D01*
X180931125Y-102805435D01*
X180926535Y-102774493D01*
X180925000Y-102743250D01*
X180925000Y-102105750D01*
X180926535Y-102074507D01*
X180931125Y-102043565D01*
X180938725Y-102013222D01*
X180949263Y-101983770D01*
X180962638Y-101955492D01*
X180978719Y-101928662D01*
X180997353Y-101903537D01*
X181018360Y-101880360D01*
X181041537Y-101859353D01*
X181066662Y-101840719D01*
X181093492Y-101824638D01*
X181121770Y-101811263D01*
X181151222Y-101800725D01*
X181181565Y-101793125D01*
X181212507Y-101788535D01*
X181243750Y-101787000D01*
X181956250Y-101787000D01*
X181987493Y-101788535D01*
X181987493Y-101788535D01*
G37*
D16*
X181600000Y-102424500D03*
D15*
G36*
X187337493Y-97426535D02*
G01*
X187368435Y-97431125D01*
X187398778Y-97438725D01*
X187428230Y-97449263D01*
X187456508Y-97462638D01*
X187483338Y-97478719D01*
X187508463Y-97497353D01*
X187531640Y-97518360D01*
X187552647Y-97541537D01*
X187571281Y-97566662D01*
X187587362Y-97593492D01*
X187600737Y-97621770D01*
X187611275Y-97651222D01*
X187618875Y-97681565D01*
X187623465Y-97712507D01*
X187625000Y-97743750D01*
X187625000Y-98456250D01*
X187623465Y-98487493D01*
X187618875Y-98518435D01*
X187611275Y-98548778D01*
X187600737Y-98578230D01*
X187587362Y-98606508D01*
X187571281Y-98633338D01*
X187552647Y-98658463D01*
X187531640Y-98681640D01*
X187508463Y-98702647D01*
X187483338Y-98721281D01*
X187456508Y-98737362D01*
X187428230Y-98750737D01*
X187398778Y-98761275D01*
X187368435Y-98768875D01*
X187337493Y-98773465D01*
X187306250Y-98775000D01*
X186668750Y-98775000D01*
X186637507Y-98773465D01*
X186606565Y-98768875D01*
X186576222Y-98761275D01*
X186546770Y-98750737D01*
X186518492Y-98737362D01*
X186491662Y-98721281D01*
X186466537Y-98702647D01*
X186443360Y-98681640D01*
X186422353Y-98658463D01*
X186403719Y-98633338D01*
X186387638Y-98606508D01*
X186374263Y-98578230D01*
X186363725Y-98548778D01*
X186356125Y-98518435D01*
X186351535Y-98487493D01*
X186350000Y-98456250D01*
X186350000Y-97743750D01*
X186351535Y-97712507D01*
X186356125Y-97681565D01*
X186363725Y-97651222D01*
X186374263Y-97621770D01*
X186387638Y-97593492D01*
X186403719Y-97566662D01*
X186422353Y-97541537D01*
X186443360Y-97518360D01*
X186466537Y-97497353D01*
X186491662Y-97478719D01*
X186518492Y-97462638D01*
X186546770Y-97449263D01*
X186576222Y-97438725D01*
X186606565Y-97431125D01*
X186637507Y-97426535D01*
X186668750Y-97425000D01*
X187306250Y-97425000D01*
X187337493Y-97426535D01*
X187337493Y-97426535D01*
G37*
D16*
X186987500Y-98100000D03*
D15*
G36*
X185762493Y-97426535D02*
G01*
X185793435Y-97431125D01*
X185823778Y-97438725D01*
X185853230Y-97449263D01*
X185881508Y-97462638D01*
X185908338Y-97478719D01*
X185933463Y-97497353D01*
X185956640Y-97518360D01*
X185977647Y-97541537D01*
X185996281Y-97566662D01*
X186012362Y-97593492D01*
X186025737Y-97621770D01*
X186036275Y-97651222D01*
X186043875Y-97681565D01*
X186048465Y-97712507D01*
X186050000Y-97743750D01*
X186050000Y-98456250D01*
X186048465Y-98487493D01*
X186043875Y-98518435D01*
X186036275Y-98548778D01*
X186025737Y-98578230D01*
X186012362Y-98606508D01*
X185996281Y-98633338D01*
X185977647Y-98658463D01*
X185956640Y-98681640D01*
X185933463Y-98702647D01*
X185908338Y-98721281D01*
X185881508Y-98737362D01*
X185853230Y-98750737D01*
X185823778Y-98761275D01*
X185793435Y-98768875D01*
X185762493Y-98773465D01*
X185731250Y-98775000D01*
X185093750Y-98775000D01*
X185062507Y-98773465D01*
X185031565Y-98768875D01*
X185001222Y-98761275D01*
X184971770Y-98750737D01*
X184943492Y-98737362D01*
X184916662Y-98721281D01*
X184891537Y-98702647D01*
X184868360Y-98681640D01*
X184847353Y-98658463D01*
X184828719Y-98633338D01*
X184812638Y-98606508D01*
X184799263Y-98578230D01*
X184788725Y-98548778D01*
X184781125Y-98518435D01*
X184776535Y-98487493D01*
X184775000Y-98456250D01*
X184775000Y-97743750D01*
X184776535Y-97712507D01*
X184781125Y-97681565D01*
X184788725Y-97651222D01*
X184799263Y-97621770D01*
X184812638Y-97593492D01*
X184828719Y-97566662D01*
X184847353Y-97541537D01*
X184868360Y-97518360D01*
X184891537Y-97497353D01*
X184916662Y-97478719D01*
X184943492Y-97462638D01*
X184971770Y-97449263D01*
X185001222Y-97438725D01*
X185031565Y-97431125D01*
X185062507Y-97426535D01*
X185093750Y-97425000D01*
X185731250Y-97425000D01*
X185762493Y-97426535D01*
X185762493Y-97426535D01*
G37*
D16*
X185412500Y-98100000D03*
D15*
G36*
X188692493Y-120336535D02*
G01*
X188723435Y-120341125D01*
X188753778Y-120348725D01*
X188783230Y-120359263D01*
X188811508Y-120372638D01*
X188838338Y-120388719D01*
X188863463Y-120407353D01*
X188886640Y-120428360D01*
X188907647Y-120451537D01*
X188926281Y-120476662D01*
X188942362Y-120503492D01*
X188955737Y-120531770D01*
X188966275Y-120561222D01*
X188973875Y-120591565D01*
X188978465Y-120622507D01*
X188980000Y-120653750D01*
X188980000Y-121366250D01*
X188978465Y-121397493D01*
X188973875Y-121428435D01*
X188966275Y-121458778D01*
X188955737Y-121488230D01*
X188942362Y-121516508D01*
X188926281Y-121543338D01*
X188907647Y-121568463D01*
X188886640Y-121591640D01*
X188863463Y-121612647D01*
X188838338Y-121631281D01*
X188811508Y-121647362D01*
X188783230Y-121660737D01*
X188753778Y-121671275D01*
X188723435Y-121678875D01*
X188692493Y-121683465D01*
X188661250Y-121685000D01*
X188023750Y-121685000D01*
X187992507Y-121683465D01*
X187961565Y-121678875D01*
X187931222Y-121671275D01*
X187901770Y-121660737D01*
X187873492Y-121647362D01*
X187846662Y-121631281D01*
X187821537Y-121612647D01*
X187798360Y-121591640D01*
X187777353Y-121568463D01*
X187758719Y-121543338D01*
X187742638Y-121516508D01*
X187729263Y-121488230D01*
X187718725Y-121458778D01*
X187711125Y-121428435D01*
X187706535Y-121397493D01*
X187705000Y-121366250D01*
X187705000Y-120653750D01*
X187706535Y-120622507D01*
X187711125Y-120591565D01*
X187718725Y-120561222D01*
X187729263Y-120531770D01*
X187742638Y-120503492D01*
X187758719Y-120476662D01*
X187777353Y-120451537D01*
X187798360Y-120428360D01*
X187821537Y-120407353D01*
X187846662Y-120388719D01*
X187873492Y-120372638D01*
X187901770Y-120359263D01*
X187931222Y-120348725D01*
X187961565Y-120341125D01*
X187992507Y-120336535D01*
X188023750Y-120335000D01*
X188661250Y-120335000D01*
X188692493Y-120336535D01*
X188692493Y-120336535D01*
G37*
D16*
X188342500Y-121010000D03*
D15*
G36*
X190267493Y-120336535D02*
G01*
X190298435Y-120341125D01*
X190328778Y-120348725D01*
X190358230Y-120359263D01*
X190386508Y-120372638D01*
X190413338Y-120388719D01*
X190438463Y-120407353D01*
X190461640Y-120428360D01*
X190482647Y-120451537D01*
X190501281Y-120476662D01*
X190517362Y-120503492D01*
X190530737Y-120531770D01*
X190541275Y-120561222D01*
X190548875Y-120591565D01*
X190553465Y-120622507D01*
X190555000Y-120653750D01*
X190555000Y-121366250D01*
X190553465Y-121397493D01*
X190548875Y-121428435D01*
X190541275Y-121458778D01*
X190530737Y-121488230D01*
X190517362Y-121516508D01*
X190501281Y-121543338D01*
X190482647Y-121568463D01*
X190461640Y-121591640D01*
X190438463Y-121612647D01*
X190413338Y-121631281D01*
X190386508Y-121647362D01*
X190358230Y-121660737D01*
X190328778Y-121671275D01*
X190298435Y-121678875D01*
X190267493Y-121683465D01*
X190236250Y-121685000D01*
X189598750Y-121685000D01*
X189567507Y-121683465D01*
X189536565Y-121678875D01*
X189506222Y-121671275D01*
X189476770Y-121660737D01*
X189448492Y-121647362D01*
X189421662Y-121631281D01*
X189396537Y-121612647D01*
X189373360Y-121591640D01*
X189352353Y-121568463D01*
X189333719Y-121543338D01*
X189317638Y-121516508D01*
X189304263Y-121488230D01*
X189293725Y-121458778D01*
X189286125Y-121428435D01*
X189281535Y-121397493D01*
X189280000Y-121366250D01*
X189280000Y-120653750D01*
X189281535Y-120622507D01*
X189286125Y-120591565D01*
X189293725Y-120561222D01*
X189304263Y-120531770D01*
X189317638Y-120503492D01*
X189333719Y-120476662D01*
X189352353Y-120451537D01*
X189373360Y-120428360D01*
X189396537Y-120407353D01*
X189421662Y-120388719D01*
X189448492Y-120372638D01*
X189476770Y-120359263D01*
X189506222Y-120348725D01*
X189536565Y-120341125D01*
X189567507Y-120336535D01*
X189598750Y-120335000D01*
X190236250Y-120335000D01*
X190267493Y-120336535D01*
X190267493Y-120336535D01*
G37*
D16*
X189917500Y-121010000D03*
D15*
G36*
X186967493Y-120336535D02*
G01*
X186998435Y-120341125D01*
X187028778Y-120348725D01*
X187058230Y-120359263D01*
X187086508Y-120372638D01*
X187113338Y-120388719D01*
X187138463Y-120407353D01*
X187161640Y-120428360D01*
X187182647Y-120451537D01*
X187201281Y-120476662D01*
X187217362Y-120503492D01*
X187230737Y-120531770D01*
X187241275Y-120561222D01*
X187248875Y-120591565D01*
X187253465Y-120622507D01*
X187255000Y-120653750D01*
X187255000Y-121366250D01*
X187253465Y-121397493D01*
X187248875Y-121428435D01*
X187241275Y-121458778D01*
X187230737Y-121488230D01*
X187217362Y-121516508D01*
X187201281Y-121543338D01*
X187182647Y-121568463D01*
X187161640Y-121591640D01*
X187138463Y-121612647D01*
X187113338Y-121631281D01*
X187086508Y-121647362D01*
X187058230Y-121660737D01*
X187028778Y-121671275D01*
X186998435Y-121678875D01*
X186967493Y-121683465D01*
X186936250Y-121685000D01*
X186298750Y-121685000D01*
X186267507Y-121683465D01*
X186236565Y-121678875D01*
X186206222Y-121671275D01*
X186176770Y-121660737D01*
X186148492Y-121647362D01*
X186121662Y-121631281D01*
X186096537Y-121612647D01*
X186073360Y-121591640D01*
X186052353Y-121568463D01*
X186033719Y-121543338D01*
X186017638Y-121516508D01*
X186004263Y-121488230D01*
X185993725Y-121458778D01*
X185986125Y-121428435D01*
X185981535Y-121397493D01*
X185980000Y-121366250D01*
X185980000Y-120653750D01*
X185981535Y-120622507D01*
X185986125Y-120591565D01*
X185993725Y-120561222D01*
X186004263Y-120531770D01*
X186017638Y-120503492D01*
X186033719Y-120476662D01*
X186052353Y-120451537D01*
X186073360Y-120428360D01*
X186096537Y-120407353D01*
X186121662Y-120388719D01*
X186148492Y-120372638D01*
X186176770Y-120359263D01*
X186206222Y-120348725D01*
X186236565Y-120341125D01*
X186267507Y-120336535D01*
X186298750Y-120335000D01*
X186936250Y-120335000D01*
X186967493Y-120336535D01*
X186967493Y-120336535D01*
G37*
D16*
X186617500Y-121010000D03*
D15*
G36*
X185392493Y-120336535D02*
G01*
X185423435Y-120341125D01*
X185453778Y-120348725D01*
X185483230Y-120359263D01*
X185511508Y-120372638D01*
X185538338Y-120388719D01*
X185563463Y-120407353D01*
X185586640Y-120428360D01*
X185607647Y-120451537D01*
X185626281Y-120476662D01*
X185642362Y-120503492D01*
X185655737Y-120531770D01*
X185666275Y-120561222D01*
X185673875Y-120591565D01*
X185678465Y-120622507D01*
X185680000Y-120653750D01*
X185680000Y-121366250D01*
X185678465Y-121397493D01*
X185673875Y-121428435D01*
X185666275Y-121458778D01*
X185655737Y-121488230D01*
X185642362Y-121516508D01*
X185626281Y-121543338D01*
X185607647Y-121568463D01*
X185586640Y-121591640D01*
X185563463Y-121612647D01*
X185538338Y-121631281D01*
X185511508Y-121647362D01*
X185483230Y-121660737D01*
X185453778Y-121671275D01*
X185423435Y-121678875D01*
X185392493Y-121683465D01*
X185361250Y-121685000D01*
X184723750Y-121685000D01*
X184692507Y-121683465D01*
X184661565Y-121678875D01*
X184631222Y-121671275D01*
X184601770Y-121660737D01*
X184573492Y-121647362D01*
X184546662Y-121631281D01*
X184521537Y-121612647D01*
X184498360Y-121591640D01*
X184477353Y-121568463D01*
X184458719Y-121543338D01*
X184442638Y-121516508D01*
X184429263Y-121488230D01*
X184418725Y-121458778D01*
X184411125Y-121428435D01*
X184406535Y-121397493D01*
X184405000Y-121366250D01*
X184405000Y-120653750D01*
X184406535Y-120622507D01*
X184411125Y-120591565D01*
X184418725Y-120561222D01*
X184429263Y-120531770D01*
X184442638Y-120503492D01*
X184458719Y-120476662D01*
X184477353Y-120451537D01*
X184498360Y-120428360D01*
X184521537Y-120407353D01*
X184546662Y-120388719D01*
X184573492Y-120372638D01*
X184601770Y-120359263D01*
X184631222Y-120348725D01*
X184661565Y-120341125D01*
X184692507Y-120336535D01*
X184723750Y-120335000D01*
X185361250Y-120335000D01*
X185392493Y-120336535D01*
X185392493Y-120336535D01*
G37*
D16*
X185042500Y-121010000D03*
D15*
G36*
X197817493Y-118636535D02*
G01*
X197848435Y-118641125D01*
X197878778Y-118648725D01*
X197908230Y-118659263D01*
X197936508Y-118672638D01*
X197963338Y-118688719D01*
X197988463Y-118707353D01*
X198011640Y-118728360D01*
X198032647Y-118751537D01*
X198051281Y-118776662D01*
X198067362Y-118803492D01*
X198080737Y-118831770D01*
X198091275Y-118861222D01*
X198098875Y-118891565D01*
X198103465Y-118922507D01*
X198105000Y-118953750D01*
X198105000Y-119666250D01*
X198103465Y-119697493D01*
X198098875Y-119728435D01*
X198091275Y-119758778D01*
X198080737Y-119788230D01*
X198067362Y-119816508D01*
X198051281Y-119843338D01*
X198032647Y-119868463D01*
X198011640Y-119891640D01*
X197988463Y-119912647D01*
X197963338Y-119931281D01*
X197936508Y-119947362D01*
X197908230Y-119960737D01*
X197878778Y-119971275D01*
X197848435Y-119978875D01*
X197817493Y-119983465D01*
X197786250Y-119985000D01*
X197148750Y-119985000D01*
X197117507Y-119983465D01*
X197086565Y-119978875D01*
X197056222Y-119971275D01*
X197026770Y-119960737D01*
X196998492Y-119947362D01*
X196971662Y-119931281D01*
X196946537Y-119912647D01*
X196923360Y-119891640D01*
X196902353Y-119868463D01*
X196883719Y-119843338D01*
X196867638Y-119816508D01*
X196854263Y-119788230D01*
X196843725Y-119758778D01*
X196836125Y-119728435D01*
X196831535Y-119697493D01*
X196830000Y-119666250D01*
X196830000Y-118953750D01*
X196831535Y-118922507D01*
X196836125Y-118891565D01*
X196843725Y-118861222D01*
X196854263Y-118831770D01*
X196867638Y-118803492D01*
X196883719Y-118776662D01*
X196902353Y-118751537D01*
X196923360Y-118728360D01*
X196946537Y-118707353D01*
X196971662Y-118688719D01*
X196998492Y-118672638D01*
X197026770Y-118659263D01*
X197056222Y-118648725D01*
X197086565Y-118641125D01*
X197117507Y-118636535D01*
X197148750Y-118635000D01*
X197786250Y-118635000D01*
X197817493Y-118636535D01*
X197817493Y-118636535D01*
G37*
D16*
X197467500Y-119310000D03*
D15*
G36*
X196242493Y-118636535D02*
G01*
X196273435Y-118641125D01*
X196303778Y-118648725D01*
X196333230Y-118659263D01*
X196361508Y-118672638D01*
X196388338Y-118688719D01*
X196413463Y-118707353D01*
X196436640Y-118728360D01*
X196457647Y-118751537D01*
X196476281Y-118776662D01*
X196492362Y-118803492D01*
X196505737Y-118831770D01*
X196516275Y-118861222D01*
X196523875Y-118891565D01*
X196528465Y-118922507D01*
X196530000Y-118953750D01*
X196530000Y-119666250D01*
X196528465Y-119697493D01*
X196523875Y-119728435D01*
X196516275Y-119758778D01*
X196505737Y-119788230D01*
X196492362Y-119816508D01*
X196476281Y-119843338D01*
X196457647Y-119868463D01*
X196436640Y-119891640D01*
X196413463Y-119912647D01*
X196388338Y-119931281D01*
X196361508Y-119947362D01*
X196333230Y-119960737D01*
X196303778Y-119971275D01*
X196273435Y-119978875D01*
X196242493Y-119983465D01*
X196211250Y-119985000D01*
X195573750Y-119985000D01*
X195542507Y-119983465D01*
X195511565Y-119978875D01*
X195481222Y-119971275D01*
X195451770Y-119960737D01*
X195423492Y-119947362D01*
X195396662Y-119931281D01*
X195371537Y-119912647D01*
X195348360Y-119891640D01*
X195327353Y-119868463D01*
X195308719Y-119843338D01*
X195292638Y-119816508D01*
X195279263Y-119788230D01*
X195268725Y-119758778D01*
X195261125Y-119728435D01*
X195256535Y-119697493D01*
X195255000Y-119666250D01*
X195255000Y-118953750D01*
X195256535Y-118922507D01*
X195261125Y-118891565D01*
X195268725Y-118861222D01*
X195279263Y-118831770D01*
X195292638Y-118803492D01*
X195308719Y-118776662D01*
X195327353Y-118751537D01*
X195348360Y-118728360D01*
X195371537Y-118707353D01*
X195396662Y-118688719D01*
X195423492Y-118672638D01*
X195451770Y-118659263D01*
X195481222Y-118648725D01*
X195511565Y-118641125D01*
X195542507Y-118636535D01*
X195573750Y-118635000D01*
X196211250Y-118635000D01*
X196242493Y-118636535D01*
X196242493Y-118636535D01*
G37*
D16*
X195892500Y-119310000D03*
D15*
G36*
X192942493Y-118636535D02*
G01*
X192973435Y-118641125D01*
X193003778Y-118648725D01*
X193033230Y-118659263D01*
X193061508Y-118672638D01*
X193088338Y-118688719D01*
X193113463Y-118707353D01*
X193136640Y-118728360D01*
X193157647Y-118751537D01*
X193176281Y-118776662D01*
X193192362Y-118803492D01*
X193205737Y-118831770D01*
X193216275Y-118861222D01*
X193223875Y-118891565D01*
X193228465Y-118922507D01*
X193230000Y-118953750D01*
X193230000Y-119666250D01*
X193228465Y-119697493D01*
X193223875Y-119728435D01*
X193216275Y-119758778D01*
X193205737Y-119788230D01*
X193192362Y-119816508D01*
X193176281Y-119843338D01*
X193157647Y-119868463D01*
X193136640Y-119891640D01*
X193113463Y-119912647D01*
X193088338Y-119931281D01*
X193061508Y-119947362D01*
X193033230Y-119960737D01*
X193003778Y-119971275D01*
X192973435Y-119978875D01*
X192942493Y-119983465D01*
X192911250Y-119985000D01*
X192273750Y-119985000D01*
X192242507Y-119983465D01*
X192211565Y-119978875D01*
X192181222Y-119971275D01*
X192151770Y-119960737D01*
X192123492Y-119947362D01*
X192096662Y-119931281D01*
X192071537Y-119912647D01*
X192048360Y-119891640D01*
X192027353Y-119868463D01*
X192008719Y-119843338D01*
X191992638Y-119816508D01*
X191979263Y-119788230D01*
X191968725Y-119758778D01*
X191961125Y-119728435D01*
X191956535Y-119697493D01*
X191955000Y-119666250D01*
X191955000Y-118953750D01*
X191956535Y-118922507D01*
X191961125Y-118891565D01*
X191968725Y-118861222D01*
X191979263Y-118831770D01*
X191992638Y-118803492D01*
X192008719Y-118776662D01*
X192027353Y-118751537D01*
X192048360Y-118728360D01*
X192071537Y-118707353D01*
X192096662Y-118688719D01*
X192123492Y-118672638D01*
X192151770Y-118659263D01*
X192181222Y-118648725D01*
X192211565Y-118641125D01*
X192242507Y-118636535D01*
X192273750Y-118635000D01*
X192911250Y-118635000D01*
X192942493Y-118636535D01*
X192942493Y-118636535D01*
G37*
D16*
X192592500Y-119310000D03*
D15*
G36*
X194517493Y-118636535D02*
G01*
X194548435Y-118641125D01*
X194578778Y-118648725D01*
X194608230Y-118659263D01*
X194636508Y-118672638D01*
X194663338Y-118688719D01*
X194688463Y-118707353D01*
X194711640Y-118728360D01*
X194732647Y-118751537D01*
X194751281Y-118776662D01*
X194767362Y-118803492D01*
X194780737Y-118831770D01*
X194791275Y-118861222D01*
X194798875Y-118891565D01*
X194803465Y-118922507D01*
X194805000Y-118953750D01*
X194805000Y-119666250D01*
X194803465Y-119697493D01*
X194798875Y-119728435D01*
X194791275Y-119758778D01*
X194780737Y-119788230D01*
X194767362Y-119816508D01*
X194751281Y-119843338D01*
X194732647Y-119868463D01*
X194711640Y-119891640D01*
X194688463Y-119912647D01*
X194663338Y-119931281D01*
X194636508Y-119947362D01*
X194608230Y-119960737D01*
X194578778Y-119971275D01*
X194548435Y-119978875D01*
X194517493Y-119983465D01*
X194486250Y-119985000D01*
X193848750Y-119985000D01*
X193817507Y-119983465D01*
X193786565Y-119978875D01*
X193756222Y-119971275D01*
X193726770Y-119960737D01*
X193698492Y-119947362D01*
X193671662Y-119931281D01*
X193646537Y-119912647D01*
X193623360Y-119891640D01*
X193602353Y-119868463D01*
X193583719Y-119843338D01*
X193567638Y-119816508D01*
X193554263Y-119788230D01*
X193543725Y-119758778D01*
X193536125Y-119728435D01*
X193531535Y-119697493D01*
X193530000Y-119666250D01*
X193530000Y-118953750D01*
X193531535Y-118922507D01*
X193536125Y-118891565D01*
X193543725Y-118861222D01*
X193554263Y-118831770D01*
X193567638Y-118803492D01*
X193583719Y-118776662D01*
X193602353Y-118751537D01*
X193623360Y-118728360D01*
X193646537Y-118707353D01*
X193671662Y-118688719D01*
X193698492Y-118672638D01*
X193726770Y-118659263D01*
X193756222Y-118648725D01*
X193786565Y-118641125D01*
X193817507Y-118636535D01*
X193848750Y-118635000D01*
X194486250Y-118635000D01*
X194517493Y-118636535D01*
X194517493Y-118636535D01*
G37*
D16*
X194167500Y-119310000D03*
D15*
G36*
X182987493Y-116976535D02*
G01*
X183018435Y-116981125D01*
X183048778Y-116988725D01*
X183078230Y-116999263D01*
X183106508Y-117012638D01*
X183133338Y-117028719D01*
X183158463Y-117047353D01*
X183181640Y-117068360D01*
X183202647Y-117091537D01*
X183221281Y-117116662D01*
X183237362Y-117143492D01*
X183250737Y-117171770D01*
X183261275Y-117201222D01*
X183268875Y-117231565D01*
X183273465Y-117262507D01*
X183275000Y-117293750D01*
X183275000Y-118006250D01*
X183273465Y-118037493D01*
X183268875Y-118068435D01*
X183261275Y-118098778D01*
X183250737Y-118128230D01*
X183237362Y-118156508D01*
X183221281Y-118183338D01*
X183202647Y-118208463D01*
X183181640Y-118231640D01*
X183158463Y-118252647D01*
X183133338Y-118271281D01*
X183106508Y-118287362D01*
X183078230Y-118300737D01*
X183048778Y-118311275D01*
X183018435Y-118318875D01*
X182987493Y-118323465D01*
X182956250Y-118325000D01*
X182318750Y-118325000D01*
X182287507Y-118323465D01*
X182256565Y-118318875D01*
X182226222Y-118311275D01*
X182196770Y-118300737D01*
X182168492Y-118287362D01*
X182141662Y-118271281D01*
X182116537Y-118252647D01*
X182093360Y-118231640D01*
X182072353Y-118208463D01*
X182053719Y-118183338D01*
X182037638Y-118156508D01*
X182024263Y-118128230D01*
X182013725Y-118098778D01*
X182006125Y-118068435D01*
X182001535Y-118037493D01*
X182000000Y-118006250D01*
X182000000Y-117293750D01*
X182001535Y-117262507D01*
X182006125Y-117231565D01*
X182013725Y-117201222D01*
X182024263Y-117171770D01*
X182037638Y-117143492D01*
X182053719Y-117116662D01*
X182072353Y-117091537D01*
X182093360Y-117068360D01*
X182116537Y-117047353D01*
X182141662Y-117028719D01*
X182168492Y-117012638D01*
X182196770Y-116999263D01*
X182226222Y-116988725D01*
X182256565Y-116981125D01*
X182287507Y-116976535D01*
X182318750Y-116975000D01*
X182956250Y-116975000D01*
X182987493Y-116976535D01*
X182987493Y-116976535D01*
G37*
D16*
X182637500Y-117650000D03*
D15*
G36*
X181412493Y-116976535D02*
G01*
X181443435Y-116981125D01*
X181473778Y-116988725D01*
X181503230Y-116999263D01*
X181531508Y-117012638D01*
X181558338Y-117028719D01*
X181583463Y-117047353D01*
X181606640Y-117068360D01*
X181627647Y-117091537D01*
X181646281Y-117116662D01*
X181662362Y-117143492D01*
X181675737Y-117171770D01*
X181686275Y-117201222D01*
X181693875Y-117231565D01*
X181698465Y-117262507D01*
X181700000Y-117293750D01*
X181700000Y-118006250D01*
X181698465Y-118037493D01*
X181693875Y-118068435D01*
X181686275Y-118098778D01*
X181675737Y-118128230D01*
X181662362Y-118156508D01*
X181646281Y-118183338D01*
X181627647Y-118208463D01*
X181606640Y-118231640D01*
X181583463Y-118252647D01*
X181558338Y-118271281D01*
X181531508Y-118287362D01*
X181503230Y-118300737D01*
X181473778Y-118311275D01*
X181443435Y-118318875D01*
X181412493Y-118323465D01*
X181381250Y-118325000D01*
X180743750Y-118325000D01*
X180712507Y-118323465D01*
X180681565Y-118318875D01*
X180651222Y-118311275D01*
X180621770Y-118300737D01*
X180593492Y-118287362D01*
X180566662Y-118271281D01*
X180541537Y-118252647D01*
X180518360Y-118231640D01*
X180497353Y-118208463D01*
X180478719Y-118183338D01*
X180462638Y-118156508D01*
X180449263Y-118128230D01*
X180438725Y-118098778D01*
X180431125Y-118068435D01*
X180426535Y-118037493D01*
X180425000Y-118006250D01*
X180425000Y-117293750D01*
X180426535Y-117262507D01*
X180431125Y-117231565D01*
X180438725Y-117201222D01*
X180449263Y-117171770D01*
X180462638Y-117143492D01*
X180478719Y-117116662D01*
X180497353Y-117091537D01*
X180518360Y-117068360D01*
X180541537Y-117047353D01*
X180566662Y-117028719D01*
X180593492Y-117012638D01*
X180621770Y-116999263D01*
X180651222Y-116988725D01*
X180681565Y-116981125D01*
X180712507Y-116976535D01*
X180743750Y-116975000D01*
X181381250Y-116975000D01*
X181412493Y-116976535D01*
X181412493Y-116976535D01*
G37*
D16*
X181062500Y-117650000D03*
D15*
G36*
X188692493Y-118636535D02*
G01*
X188723435Y-118641125D01*
X188753778Y-118648725D01*
X188783230Y-118659263D01*
X188811508Y-118672638D01*
X188838338Y-118688719D01*
X188863463Y-118707353D01*
X188886640Y-118728360D01*
X188907647Y-118751537D01*
X188926281Y-118776662D01*
X188942362Y-118803492D01*
X188955737Y-118831770D01*
X188966275Y-118861222D01*
X188973875Y-118891565D01*
X188978465Y-118922507D01*
X188980000Y-118953750D01*
X188980000Y-119666250D01*
X188978465Y-119697493D01*
X188973875Y-119728435D01*
X188966275Y-119758778D01*
X188955737Y-119788230D01*
X188942362Y-119816508D01*
X188926281Y-119843338D01*
X188907647Y-119868463D01*
X188886640Y-119891640D01*
X188863463Y-119912647D01*
X188838338Y-119931281D01*
X188811508Y-119947362D01*
X188783230Y-119960737D01*
X188753778Y-119971275D01*
X188723435Y-119978875D01*
X188692493Y-119983465D01*
X188661250Y-119985000D01*
X188023750Y-119985000D01*
X187992507Y-119983465D01*
X187961565Y-119978875D01*
X187931222Y-119971275D01*
X187901770Y-119960737D01*
X187873492Y-119947362D01*
X187846662Y-119931281D01*
X187821537Y-119912647D01*
X187798360Y-119891640D01*
X187777353Y-119868463D01*
X187758719Y-119843338D01*
X187742638Y-119816508D01*
X187729263Y-119788230D01*
X187718725Y-119758778D01*
X187711125Y-119728435D01*
X187706535Y-119697493D01*
X187705000Y-119666250D01*
X187705000Y-118953750D01*
X187706535Y-118922507D01*
X187711125Y-118891565D01*
X187718725Y-118861222D01*
X187729263Y-118831770D01*
X187742638Y-118803492D01*
X187758719Y-118776662D01*
X187777353Y-118751537D01*
X187798360Y-118728360D01*
X187821537Y-118707353D01*
X187846662Y-118688719D01*
X187873492Y-118672638D01*
X187901770Y-118659263D01*
X187931222Y-118648725D01*
X187961565Y-118641125D01*
X187992507Y-118636535D01*
X188023750Y-118635000D01*
X188661250Y-118635000D01*
X188692493Y-118636535D01*
X188692493Y-118636535D01*
G37*
D16*
X188342500Y-119310000D03*
D15*
G36*
X190267493Y-118636535D02*
G01*
X190298435Y-118641125D01*
X190328778Y-118648725D01*
X190358230Y-118659263D01*
X190386508Y-118672638D01*
X190413338Y-118688719D01*
X190438463Y-118707353D01*
X190461640Y-118728360D01*
X190482647Y-118751537D01*
X190501281Y-118776662D01*
X190517362Y-118803492D01*
X190530737Y-118831770D01*
X190541275Y-118861222D01*
X190548875Y-118891565D01*
X190553465Y-118922507D01*
X190555000Y-118953750D01*
X190555000Y-119666250D01*
X190553465Y-119697493D01*
X190548875Y-119728435D01*
X190541275Y-119758778D01*
X190530737Y-119788230D01*
X190517362Y-119816508D01*
X190501281Y-119843338D01*
X190482647Y-119868463D01*
X190461640Y-119891640D01*
X190438463Y-119912647D01*
X190413338Y-119931281D01*
X190386508Y-119947362D01*
X190358230Y-119960737D01*
X190328778Y-119971275D01*
X190298435Y-119978875D01*
X190267493Y-119983465D01*
X190236250Y-119985000D01*
X189598750Y-119985000D01*
X189567507Y-119983465D01*
X189536565Y-119978875D01*
X189506222Y-119971275D01*
X189476770Y-119960737D01*
X189448492Y-119947362D01*
X189421662Y-119931281D01*
X189396537Y-119912647D01*
X189373360Y-119891640D01*
X189352353Y-119868463D01*
X189333719Y-119843338D01*
X189317638Y-119816508D01*
X189304263Y-119788230D01*
X189293725Y-119758778D01*
X189286125Y-119728435D01*
X189281535Y-119697493D01*
X189280000Y-119666250D01*
X189280000Y-118953750D01*
X189281535Y-118922507D01*
X189286125Y-118891565D01*
X189293725Y-118861222D01*
X189304263Y-118831770D01*
X189317638Y-118803492D01*
X189333719Y-118776662D01*
X189352353Y-118751537D01*
X189373360Y-118728360D01*
X189396537Y-118707353D01*
X189421662Y-118688719D01*
X189448492Y-118672638D01*
X189476770Y-118659263D01*
X189506222Y-118648725D01*
X189536565Y-118641125D01*
X189567507Y-118636535D01*
X189598750Y-118635000D01*
X190236250Y-118635000D01*
X190267493Y-118636535D01*
X190267493Y-118636535D01*
G37*
D16*
X189917500Y-119310000D03*
D15*
G36*
X186967493Y-118636535D02*
G01*
X186998435Y-118641125D01*
X187028778Y-118648725D01*
X187058230Y-118659263D01*
X187086508Y-118672638D01*
X187113338Y-118688719D01*
X187138463Y-118707353D01*
X187161640Y-118728360D01*
X187182647Y-118751537D01*
X187201281Y-118776662D01*
X187217362Y-118803492D01*
X187230737Y-118831770D01*
X187241275Y-118861222D01*
X187248875Y-118891565D01*
X187253465Y-118922507D01*
X187255000Y-118953750D01*
X187255000Y-119666250D01*
X187253465Y-119697493D01*
X187248875Y-119728435D01*
X187241275Y-119758778D01*
X187230737Y-119788230D01*
X187217362Y-119816508D01*
X187201281Y-119843338D01*
X187182647Y-119868463D01*
X187161640Y-119891640D01*
X187138463Y-119912647D01*
X187113338Y-119931281D01*
X187086508Y-119947362D01*
X187058230Y-119960737D01*
X187028778Y-119971275D01*
X186998435Y-119978875D01*
X186967493Y-119983465D01*
X186936250Y-119985000D01*
X186298750Y-119985000D01*
X186267507Y-119983465D01*
X186236565Y-119978875D01*
X186206222Y-119971275D01*
X186176770Y-119960737D01*
X186148492Y-119947362D01*
X186121662Y-119931281D01*
X186096537Y-119912647D01*
X186073360Y-119891640D01*
X186052353Y-119868463D01*
X186033719Y-119843338D01*
X186017638Y-119816508D01*
X186004263Y-119788230D01*
X185993725Y-119758778D01*
X185986125Y-119728435D01*
X185981535Y-119697493D01*
X185980000Y-119666250D01*
X185980000Y-118953750D01*
X185981535Y-118922507D01*
X185986125Y-118891565D01*
X185993725Y-118861222D01*
X186004263Y-118831770D01*
X186017638Y-118803492D01*
X186033719Y-118776662D01*
X186052353Y-118751537D01*
X186073360Y-118728360D01*
X186096537Y-118707353D01*
X186121662Y-118688719D01*
X186148492Y-118672638D01*
X186176770Y-118659263D01*
X186206222Y-118648725D01*
X186236565Y-118641125D01*
X186267507Y-118636535D01*
X186298750Y-118635000D01*
X186936250Y-118635000D01*
X186967493Y-118636535D01*
X186967493Y-118636535D01*
G37*
D16*
X186617500Y-119310000D03*
D15*
G36*
X185392493Y-118636535D02*
G01*
X185423435Y-118641125D01*
X185453778Y-118648725D01*
X185483230Y-118659263D01*
X185511508Y-118672638D01*
X185538338Y-118688719D01*
X185563463Y-118707353D01*
X185586640Y-118728360D01*
X185607647Y-118751537D01*
X185626281Y-118776662D01*
X185642362Y-118803492D01*
X185655737Y-118831770D01*
X185666275Y-118861222D01*
X185673875Y-118891565D01*
X185678465Y-118922507D01*
X185680000Y-118953750D01*
X185680000Y-119666250D01*
X185678465Y-119697493D01*
X185673875Y-119728435D01*
X185666275Y-119758778D01*
X185655737Y-119788230D01*
X185642362Y-119816508D01*
X185626281Y-119843338D01*
X185607647Y-119868463D01*
X185586640Y-119891640D01*
X185563463Y-119912647D01*
X185538338Y-119931281D01*
X185511508Y-119947362D01*
X185483230Y-119960737D01*
X185453778Y-119971275D01*
X185423435Y-119978875D01*
X185392493Y-119983465D01*
X185361250Y-119985000D01*
X184723750Y-119985000D01*
X184692507Y-119983465D01*
X184661565Y-119978875D01*
X184631222Y-119971275D01*
X184601770Y-119960737D01*
X184573492Y-119947362D01*
X184546662Y-119931281D01*
X184521537Y-119912647D01*
X184498360Y-119891640D01*
X184477353Y-119868463D01*
X184458719Y-119843338D01*
X184442638Y-119816508D01*
X184429263Y-119788230D01*
X184418725Y-119758778D01*
X184411125Y-119728435D01*
X184406535Y-119697493D01*
X184405000Y-119666250D01*
X184405000Y-118953750D01*
X184406535Y-118922507D01*
X184411125Y-118891565D01*
X184418725Y-118861222D01*
X184429263Y-118831770D01*
X184442638Y-118803492D01*
X184458719Y-118776662D01*
X184477353Y-118751537D01*
X184498360Y-118728360D01*
X184521537Y-118707353D01*
X184546662Y-118688719D01*
X184573492Y-118672638D01*
X184601770Y-118659263D01*
X184631222Y-118648725D01*
X184661565Y-118641125D01*
X184692507Y-118636535D01*
X184723750Y-118635000D01*
X185361250Y-118635000D01*
X185392493Y-118636535D01*
X185392493Y-118636535D01*
G37*
D16*
X185042500Y-119310000D03*
D15*
G36*
X181412493Y-118726535D02*
G01*
X181443435Y-118731125D01*
X181473778Y-118738725D01*
X181503230Y-118749263D01*
X181531508Y-118762638D01*
X181558338Y-118778719D01*
X181583463Y-118797353D01*
X181606640Y-118818360D01*
X181627647Y-118841537D01*
X181646281Y-118866662D01*
X181662362Y-118893492D01*
X181675737Y-118921770D01*
X181686275Y-118951222D01*
X181693875Y-118981565D01*
X181698465Y-119012507D01*
X181700000Y-119043750D01*
X181700000Y-119756250D01*
X181698465Y-119787493D01*
X181693875Y-119818435D01*
X181686275Y-119848778D01*
X181675737Y-119878230D01*
X181662362Y-119906508D01*
X181646281Y-119933338D01*
X181627647Y-119958463D01*
X181606640Y-119981640D01*
X181583463Y-120002647D01*
X181558338Y-120021281D01*
X181531508Y-120037362D01*
X181503230Y-120050737D01*
X181473778Y-120061275D01*
X181443435Y-120068875D01*
X181412493Y-120073465D01*
X181381250Y-120075000D01*
X180743750Y-120075000D01*
X180712507Y-120073465D01*
X180681565Y-120068875D01*
X180651222Y-120061275D01*
X180621770Y-120050737D01*
X180593492Y-120037362D01*
X180566662Y-120021281D01*
X180541537Y-120002647D01*
X180518360Y-119981640D01*
X180497353Y-119958463D01*
X180478719Y-119933338D01*
X180462638Y-119906508D01*
X180449263Y-119878230D01*
X180438725Y-119848778D01*
X180431125Y-119818435D01*
X180426535Y-119787493D01*
X180425000Y-119756250D01*
X180425000Y-119043750D01*
X180426535Y-119012507D01*
X180431125Y-118981565D01*
X180438725Y-118951222D01*
X180449263Y-118921770D01*
X180462638Y-118893492D01*
X180478719Y-118866662D01*
X180497353Y-118841537D01*
X180518360Y-118818360D01*
X180541537Y-118797353D01*
X180566662Y-118778719D01*
X180593492Y-118762638D01*
X180621770Y-118749263D01*
X180651222Y-118738725D01*
X180681565Y-118731125D01*
X180712507Y-118726535D01*
X180743750Y-118725000D01*
X181381250Y-118725000D01*
X181412493Y-118726535D01*
X181412493Y-118726535D01*
G37*
D16*
X181062500Y-119400000D03*
D15*
G36*
X182987493Y-118726535D02*
G01*
X183018435Y-118731125D01*
X183048778Y-118738725D01*
X183078230Y-118749263D01*
X183106508Y-118762638D01*
X183133338Y-118778719D01*
X183158463Y-118797353D01*
X183181640Y-118818360D01*
X183202647Y-118841537D01*
X183221281Y-118866662D01*
X183237362Y-118893492D01*
X183250737Y-118921770D01*
X183261275Y-118951222D01*
X183268875Y-118981565D01*
X183273465Y-119012507D01*
X183275000Y-119043750D01*
X183275000Y-119756250D01*
X183273465Y-119787493D01*
X183268875Y-119818435D01*
X183261275Y-119848778D01*
X183250737Y-119878230D01*
X183237362Y-119906508D01*
X183221281Y-119933338D01*
X183202647Y-119958463D01*
X183181640Y-119981640D01*
X183158463Y-120002647D01*
X183133338Y-120021281D01*
X183106508Y-120037362D01*
X183078230Y-120050737D01*
X183048778Y-120061275D01*
X183018435Y-120068875D01*
X182987493Y-120073465D01*
X182956250Y-120075000D01*
X182318750Y-120075000D01*
X182287507Y-120073465D01*
X182256565Y-120068875D01*
X182226222Y-120061275D01*
X182196770Y-120050737D01*
X182168492Y-120037362D01*
X182141662Y-120021281D01*
X182116537Y-120002647D01*
X182093360Y-119981640D01*
X182072353Y-119958463D01*
X182053719Y-119933338D01*
X182037638Y-119906508D01*
X182024263Y-119878230D01*
X182013725Y-119848778D01*
X182006125Y-119818435D01*
X182001535Y-119787493D01*
X182000000Y-119756250D01*
X182000000Y-119043750D01*
X182001535Y-119012507D01*
X182006125Y-118981565D01*
X182013725Y-118951222D01*
X182024263Y-118921770D01*
X182037638Y-118893492D01*
X182053719Y-118866662D01*
X182072353Y-118841537D01*
X182093360Y-118818360D01*
X182116537Y-118797353D01*
X182141662Y-118778719D01*
X182168492Y-118762638D01*
X182196770Y-118749263D01*
X182226222Y-118738725D01*
X182256565Y-118731125D01*
X182287507Y-118726535D01*
X182318750Y-118725000D01*
X182956250Y-118725000D01*
X182987493Y-118726535D01*
X182987493Y-118726535D01*
G37*
D16*
X182637500Y-119400000D03*
D15*
G36*
X197817493Y-120336535D02*
G01*
X197848435Y-120341125D01*
X197878778Y-120348725D01*
X197908230Y-120359263D01*
X197936508Y-120372638D01*
X197963338Y-120388719D01*
X197988463Y-120407353D01*
X198011640Y-120428360D01*
X198032647Y-120451537D01*
X198051281Y-120476662D01*
X198067362Y-120503492D01*
X198080737Y-120531770D01*
X198091275Y-120561222D01*
X198098875Y-120591565D01*
X198103465Y-120622507D01*
X198105000Y-120653750D01*
X198105000Y-121366250D01*
X198103465Y-121397493D01*
X198098875Y-121428435D01*
X198091275Y-121458778D01*
X198080737Y-121488230D01*
X198067362Y-121516508D01*
X198051281Y-121543338D01*
X198032647Y-121568463D01*
X198011640Y-121591640D01*
X197988463Y-121612647D01*
X197963338Y-121631281D01*
X197936508Y-121647362D01*
X197908230Y-121660737D01*
X197878778Y-121671275D01*
X197848435Y-121678875D01*
X197817493Y-121683465D01*
X197786250Y-121685000D01*
X197148750Y-121685000D01*
X197117507Y-121683465D01*
X197086565Y-121678875D01*
X197056222Y-121671275D01*
X197026770Y-121660737D01*
X196998492Y-121647362D01*
X196971662Y-121631281D01*
X196946537Y-121612647D01*
X196923360Y-121591640D01*
X196902353Y-121568463D01*
X196883719Y-121543338D01*
X196867638Y-121516508D01*
X196854263Y-121488230D01*
X196843725Y-121458778D01*
X196836125Y-121428435D01*
X196831535Y-121397493D01*
X196830000Y-121366250D01*
X196830000Y-120653750D01*
X196831535Y-120622507D01*
X196836125Y-120591565D01*
X196843725Y-120561222D01*
X196854263Y-120531770D01*
X196867638Y-120503492D01*
X196883719Y-120476662D01*
X196902353Y-120451537D01*
X196923360Y-120428360D01*
X196946537Y-120407353D01*
X196971662Y-120388719D01*
X196998492Y-120372638D01*
X197026770Y-120359263D01*
X197056222Y-120348725D01*
X197086565Y-120341125D01*
X197117507Y-120336535D01*
X197148750Y-120335000D01*
X197786250Y-120335000D01*
X197817493Y-120336535D01*
X197817493Y-120336535D01*
G37*
D16*
X197467500Y-121010000D03*
D15*
G36*
X196242493Y-120336535D02*
G01*
X196273435Y-120341125D01*
X196303778Y-120348725D01*
X196333230Y-120359263D01*
X196361508Y-120372638D01*
X196388338Y-120388719D01*
X196413463Y-120407353D01*
X196436640Y-120428360D01*
X196457647Y-120451537D01*
X196476281Y-120476662D01*
X196492362Y-120503492D01*
X196505737Y-120531770D01*
X196516275Y-120561222D01*
X196523875Y-120591565D01*
X196528465Y-120622507D01*
X196530000Y-120653750D01*
X196530000Y-121366250D01*
X196528465Y-121397493D01*
X196523875Y-121428435D01*
X196516275Y-121458778D01*
X196505737Y-121488230D01*
X196492362Y-121516508D01*
X196476281Y-121543338D01*
X196457647Y-121568463D01*
X196436640Y-121591640D01*
X196413463Y-121612647D01*
X196388338Y-121631281D01*
X196361508Y-121647362D01*
X196333230Y-121660737D01*
X196303778Y-121671275D01*
X196273435Y-121678875D01*
X196242493Y-121683465D01*
X196211250Y-121685000D01*
X195573750Y-121685000D01*
X195542507Y-121683465D01*
X195511565Y-121678875D01*
X195481222Y-121671275D01*
X195451770Y-121660737D01*
X195423492Y-121647362D01*
X195396662Y-121631281D01*
X195371537Y-121612647D01*
X195348360Y-121591640D01*
X195327353Y-121568463D01*
X195308719Y-121543338D01*
X195292638Y-121516508D01*
X195279263Y-121488230D01*
X195268725Y-121458778D01*
X195261125Y-121428435D01*
X195256535Y-121397493D01*
X195255000Y-121366250D01*
X195255000Y-120653750D01*
X195256535Y-120622507D01*
X195261125Y-120591565D01*
X195268725Y-120561222D01*
X195279263Y-120531770D01*
X195292638Y-120503492D01*
X195308719Y-120476662D01*
X195327353Y-120451537D01*
X195348360Y-120428360D01*
X195371537Y-120407353D01*
X195396662Y-120388719D01*
X195423492Y-120372638D01*
X195451770Y-120359263D01*
X195481222Y-120348725D01*
X195511565Y-120341125D01*
X195542507Y-120336535D01*
X195573750Y-120335000D01*
X196211250Y-120335000D01*
X196242493Y-120336535D01*
X196242493Y-120336535D01*
G37*
D16*
X195892500Y-121010000D03*
D15*
G36*
X192942493Y-120336535D02*
G01*
X192973435Y-120341125D01*
X193003778Y-120348725D01*
X193033230Y-120359263D01*
X193061508Y-120372638D01*
X193088338Y-120388719D01*
X193113463Y-120407353D01*
X193136640Y-120428360D01*
X193157647Y-120451537D01*
X193176281Y-120476662D01*
X193192362Y-120503492D01*
X193205737Y-120531770D01*
X193216275Y-120561222D01*
X193223875Y-120591565D01*
X193228465Y-120622507D01*
X193230000Y-120653750D01*
X193230000Y-121366250D01*
X193228465Y-121397493D01*
X193223875Y-121428435D01*
X193216275Y-121458778D01*
X193205737Y-121488230D01*
X193192362Y-121516508D01*
X193176281Y-121543338D01*
X193157647Y-121568463D01*
X193136640Y-121591640D01*
X193113463Y-121612647D01*
X193088338Y-121631281D01*
X193061508Y-121647362D01*
X193033230Y-121660737D01*
X193003778Y-121671275D01*
X192973435Y-121678875D01*
X192942493Y-121683465D01*
X192911250Y-121685000D01*
X192273750Y-121685000D01*
X192242507Y-121683465D01*
X192211565Y-121678875D01*
X192181222Y-121671275D01*
X192151770Y-121660737D01*
X192123492Y-121647362D01*
X192096662Y-121631281D01*
X192071537Y-121612647D01*
X192048360Y-121591640D01*
X192027353Y-121568463D01*
X192008719Y-121543338D01*
X191992638Y-121516508D01*
X191979263Y-121488230D01*
X191968725Y-121458778D01*
X191961125Y-121428435D01*
X191956535Y-121397493D01*
X191955000Y-121366250D01*
X191955000Y-120653750D01*
X191956535Y-120622507D01*
X191961125Y-120591565D01*
X191968725Y-120561222D01*
X191979263Y-120531770D01*
X191992638Y-120503492D01*
X192008719Y-120476662D01*
X192027353Y-120451537D01*
X192048360Y-120428360D01*
X192071537Y-120407353D01*
X192096662Y-120388719D01*
X192123492Y-120372638D01*
X192151770Y-120359263D01*
X192181222Y-120348725D01*
X192211565Y-120341125D01*
X192242507Y-120336535D01*
X192273750Y-120335000D01*
X192911250Y-120335000D01*
X192942493Y-120336535D01*
X192942493Y-120336535D01*
G37*
D16*
X192592500Y-121010000D03*
D15*
G36*
X194517493Y-120336535D02*
G01*
X194548435Y-120341125D01*
X194578778Y-120348725D01*
X194608230Y-120359263D01*
X194636508Y-120372638D01*
X194663338Y-120388719D01*
X194688463Y-120407353D01*
X194711640Y-120428360D01*
X194732647Y-120451537D01*
X194751281Y-120476662D01*
X194767362Y-120503492D01*
X194780737Y-120531770D01*
X194791275Y-120561222D01*
X194798875Y-120591565D01*
X194803465Y-120622507D01*
X194805000Y-120653750D01*
X194805000Y-121366250D01*
X194803465Y-121397493D01*
X194798875Y-121428435D01*
X194791275Y-121458778D01*
X194780737Y-121488230D01*
X194767362Y-121516508D01*
X194751281Y-121543338D01*
X194732647Y-121568463D01*
X194711640Y-121591640D01*
X194688463Y-121612647D01*
X194663338Y-121631281D01*
X194636508Y-121647362D01*
X194608230Y-121660737D01*
X194578778Y-121671275D01*
X194548435Y-121678875D01*
X194517493Y-121683465D01*
X194486250Y-121685000D01*
X193848750Y-121685000D01*
X193817507Y-121683465D01*
X193786565Y-121678875D01*
X193756222Y-121671275D01*
X193726770Y-121660737D01*
X193698492Y-121647362D01*
X193671662Y-121631281D01*
X193646537Y-121612647D01*
X193623360Y-121591640D01*
X193602353Y-121568463D01*
X193583719Y-121543338D01*
X193567638Y-121516508D01*
X193554263Y-121488230D01*
X193543725Y-121458778D01*
X193536125Y-121428435D01*
X193531535Y-121397493D01*
X193530000Y-121366250D01*
X193530000Y-120653750D01*
X193531535Y-120622507D01*
X193536125Y-120591565D01*
X193543725Y-120561222D01*
X193554263Y-120531770D01*
X193567638Y-120503492D01*
X193583719Y-120476662D01*
X193602353Y-120451537D01*
X193623360Y-120428360D01*
X193646537Y-120407353D01*
X193671662Y-120388719D01*
X193698492Y-120372638D01*
X193726770Y-120359263D01*
X193756222Y-120348725D01*
X193786565Y-120341125D01*
X193817507Y-120336535D01*
X193848750Y-120335000D01*
X194486250Y-120335000D01*
X194517493Y-120336535D01*
X194517493Y-120336535D01*
G37*
D16*
X194167500Y-121010000D03*
D15*
G36*
X193062493Y-124526535D02*
G01*
X193093435Y-124531125D01*
X193123778Y-124538725D01*
X193153230Y-124549263D01*
X193181508Y-124562638D01*
X193208338Y-124578719D01*
X193233463Y-124597353D01*
X193256640Y-124618360D01*
X193277647Y-124641537D01*
X193296281Y-124666662D01*
X193312362Y-124693492D01*
X193325737Y-124721770D01*
X193336275Y-124751222D01*
X193343875Y-124781565D01*
X193348465Y-124812507D01*
X193350000Y-124843750D01*
X193350000Y-125556250D01*
X193348465Y-125587493D01*
X193343875Y-125618435D01*
X193336275Y-125648778D01*
X193325737Y-125678230D01*
X193312362Y-125706508D01*
X193296281Y-125733338D01*
X193277647Y-125758463D01*
X193256640Y-125781640D01*
X193233463Y-125802647D01*
X193208338Y-125821281D01*
X193181508Y-125837362D01*
X193153230Y-125850737D01*
X193123778Y-125861275D01*
X193093435Y-125868875D01*
X193062493Y-125873465D01*
X193031250Y-125875000D01*
X192393750Y-125875000D01*
X192362507Y-125873465D01*
X192331565Y-125868875D01*
X192301222Y-125861275D01*
X192271770Y-125850737D01*
X192243492Y-125837362D01*
X192216662Y-125821281D01*
X192191537Y-125802647D01*
X192168360Y-125781640D01*
X192147353Y-125758463D01*
X192128719Y-125733338D01*
X192112638Y-125706508D01*
X192099263Y-125678230D01*
X192088725Y-125648778D01*
X192081125Y-125618435D01*
X192076535Y-125587493D01*
X192075000Y-125556250D01*
X192075000Y-124843750D01*
X192076535Y-124812507D01*
X192081125Y-124781565D01*
X192088725Y-124751222D01*
X192099263Y-124721770D01*
X192112638Y-124693492D01*
X192128719Y-124666662D01*
X192147353Y-124641537D01*
X192168360Y-124618360D01*
X192191537Y-124597353D01*
X192216662Y-124578719D01*
X192243492Y-124562638D01*
X192271770Y-124549263D01*
X192301222Y-124538725D01*
X192331565Y-124531125D01*
X192362507Y-124526535D01*
X192393750Y-124525000D01*
X193031250Y-124525000D01*
X193062493Y-124526535D01*
X193062493Y-124526535D01*
G37*
D16*
X192712500Y-125200000D03*
D15*
G36*
X194637493Y-124526535D02*
G01*
X194668435Y-124531125D01*
X194698778Y-124538725D01*
X194728230Y-124549263D01*
X194756508Y-124562638D01*
X194783338Y-124578719D01*
X194808463Y-124597353D01*
X194831640Y-124618360D01*
X194852647Y-124641537D01*
X194871281Y-124666662D01*
X194887362Y-124693492D01*
X194900737Y-124721770D01*
X194911275Y-124751222D01*
X194918875Y-124781565D01*
X194923465Y-124812507D01*
X194925000Y-124843750D01*
X194925000Y-125556250D01*
X194923465Y-125587493D01*
X194918875Y-125618435D01*
X194911275Y-125648778D01*
X194900737Y-125678230D01*
X194887362Y-125706508D01*
X194871281Y-125733338D01*
X194852647Y-125758463D01*
X194831640Y-125781640D01*
X194808463Y-125802647D01*
X194783338Y-125821281D01*
X194756508Y-125837362D01*
X194728230Y-125850737D01*
X194698778Y-125861275D01*
X194668435Y-125868875D01*
X194637493Y-125873465D01*
X194606250Y-125875000D01*
X193968750Y-125875000D01*
X193937507Y-125873465D01*
X193906565Y-125868875D01*
X193876222Y-125861275D01*
X193846770Y-125850737D01*
X193818492Y-125837362D01*
X193791662Y-125821281D01*
X193766537Y-125802647D01*
X193743360Y-125781640D01*
X193722353Y-125758463D01*
X193703719Y-125733338D01*
X193687638Y-125706508D01*
X193674263Y-125678230D01*
X193663725Y-125648778D01*
X193656125Y-125618435D01*
X193651535Y-125587493D01*
X193650000Y-125556250D01*
X193650000Y-124843750D01*
X193651535Y-124812507D01*
X193656125Y-124781565D01*
X193663725Y-124751222D01*
X193674263Y-124721770D01*
X193687638Y-124693492D01*
X193703719Y-124666662D01*
X193722353Y-124641537D01*
X193743360Y-124618360D01*
X193766537Y-124597353D01*
X193791662Y-124578719D01*
X193818492Y-124562638D01*
X193846770Y-124549263D01*
X193876222Y-124538725D01*
X193906565Y-124531125D01*
X193937507Y-124526535D01*
X193968750Y-124525000D01*
X194606250Y-124525000D01*
X194637493Y-124526535D01*
X194637493Y-124526535D01*
G37*
D16*
X194287500Y-125200000D03*
D15*
G36*
X195200493Y-105076535D02*
G01*
X195231435Y-105081125D01*
X195261778Y-105088725D01*
X195291230Y-105099263D01*
X195319508Y-105112638D01*
X195346338Y-105128719D01*
X195371463Y-105147353D01*
X195394640Y-105168360D01*
X195415647Y-105191537D01*
X195434281Y-105216662D01*
X195450362Y-105243492D01*
X195463737Y-105271770D01*
X195474275Y-105301222D01*
X195481875Y-105331565D01*
X195486465Y-105362507D01*
X195488000Y-105393750D01*
X195488000Y-106106250D01*
X195486465Y-106137493D01*
X195481875Y-106168435D01*
X195474275Y-106198778D01*
X195463737Y-106228230D01*
X195450362Y-106256508D01*
X195434281Y-106283338D01*
X195415647Y-106308463D01*
X195394640Y-106331640D01*
X195371463Y-106352647D01*
X195346338Y-106371281D01*
X195319508Y-106387362D01*
X195291230Y-106400737D01*
X195261778Y-106411275D01*
X195231435Y-106418875D01*
X195200493Y-106423465D01*
X195169250Y-106425000D01*
X194531750Y-106425000D01*
X194500507Y-106423465D01*
X194469565Y-106418875D01*
X194439222Y-106411275D01*
X194409770Y-106400737D01*
X194381492Y-106387362D01*
X194354662Y-106371281D01*
X194329537Y-106352647D01*
X194306360Y-106331640D01*
X194285353Y-106308463D01*
X194266719Y-106283338D01*
X194250638Y-106256508D01*
X194237263Y-106228230D01*
X194226725Y-106198778D01*
X194219125Y-106168435D01*
X194214535Y-106137493D01*
X194213000Y-106106250D01*
X194213000Y-105393750D01*
X194214535Y-105362507D01*
X194219125Y-105331565D01*
X194226725Y-105301222D01*
X194237263Y-105271770D01*
X194250638Y-105243492D01*
X194266719Y-105216662D01*
X194285353Y-105191537D01*
X194306360Y-105168360D01*
X194329537Y-105147353D01*
X194354662Y-105128719D01*
X194381492Y-105112638D01*
X194409770Y-105099263D01*
X194439222Y-105088725D01*
X194469565Y-105081125D01*
X194500507Y-105076535D01*
X194531750Y-105075000D01*
X195169250Y-105075000D01*
X195200493Y-105076535D01*
X195200493Y-105076535D01*
G37*
D16*
X194850500Y-105750000D03*
D15*
G36*
X196775493Y-105076535D02*
G01*
X196806435Y-105081125D01*
X196836778Y-105088725D01*
X196866230Y-105099263D01*
X196894508Y-105112638D01*
X196921338Y-105128719D01*
X196946463Y-105147353D01*
X196969640Y-105168360D01*
X196990647Y-105191537D01*
X197009281Y-105216662D01*
X197025362Y-105243492D01*
X197038737Y-105271770D01*
X197049275Y-105301222D01*
X197056875Y-105331565D01*
X197061465Y-105362507D01*
X197063000Y-105393750D01*
X197063000Y-106106250D01*
X197061465Y-106137493D01*
X197056875Y-106168435D01*
X197049275Y-106198778D01*
X197038737Y-106228230D01*
X197025362Y-106256508D01*
X197009281Y-106283338D01*
X196990647Y-106308463D01*
X196969640Y-106331640D01*
X196946463Y-106352647D01*
X196921338Y-106371281D01*
X196894508Y-106387362D01*
X196866230Y-106400737D01*
X196836778Y-106411275D01*
X196806435Y-106418875D01*
X196775493Y-106423465D01*
X196744250Y-106425000D01*
X196106750Y-106425000D01*
X196075507Y-106423465D01*
X196044565Y-106418875D01*
X196014222Y-106411275D01*
X195984770Y-106400737D01*
X195956492Y-106387362D01*
X195929662Y-106371281D01*
X195904537Y-106352647D01*
X195881360Y-106331640D01*
X195860353Y-106308463D01*
X195841719Y-106283338D01*
X195825638Y-106256508D01*
X195812263Y-106228230D01*
X195801725Y-106198778D01*
X195794125Y-106168435D01*
X195789535Y-106137493D01*
X195788000Y-106106250D01*
X195788000Y-105393750D01*
X195789535Y-105362507D01*
X195794125Y-105331565D01*
X195801725Y-105301222D01*
X195812263Y-105271770D01*
X195825638Y-105243492D01*
X195841719Y-105216662D01*
X195860353Y-105191537D01*
X195881360Y-105168360D01*
X195904537Y-105147353D01*
X195929662Y-105128719D01*
X195956492Y-105112638D01*
X195984770Y-105099263D01*
X196014222Y-105088725D01*
X196044565Y-105081125D01*
X196075507Y-105076535D01*
X196106750Y-105075000D01*
X196744250Y-105075000D01*
X196775493Y-105076535D01*
X196775493Y-105076535D01*
G37*
D16*
X196425500Y-105750000D03*
D15*
G36*
X190974493Y-97426535D02*
G01*
X191005435Y-97431125D01*
X191035778Y-97438725D01*
X191065230Y-97449263D01*
X191093508Y-97462638D01*
X191120338Y-97478719D01*
X191145463Y-97497353D01*
X191168640Y-97518360D01*
X191189647Y-97541537D01*
X191208281Y-97566662D01*
X191224362Y-97593492D01*
X191237737Y-97621770D01*
X191248275Y-97651222D01*
X191255875Y-97681565D01*
X191260465Y-97712507D01*
X191262000Y-97743750D01*
X191262000Y-98456250D01*
X191260465Y-98487493D01*
X191255875Y-98518435D01*
X191248275Y-98548778D01*
X191237737Y-98578230D01*
X191224362Y-98606508D01*
X191208281Y-98633338D01*
X191189647Y-98658463D01*
X191168640Y-98681640D01*
X191145463Y-98702647D01*
X191120338Y-98721281D01*
X191093508Y-98737362D01*
X191065230Y-98750737D01*
X191035778Y-98761275D01*
X191005435Y-98768875D01*
X190974493Y-98773465D01*
X190943250Y-98775000D01*
X190305750Y-98775000D01*
X190274507Y-98773465D01*
X190243565Y-98768875D01*
X190213222Y-98761275D01*
X190183770Y-98750737D01*
X190155492Y-98737362D01*
X190128662Y-98721281D01*
X190103537Y-98702647D01*
X190080360Y-98681640D01*
X190059353Y-98658463D01*
X190040719Y-98633338D01*
X190024638Y-98606508D01*
X190011263Y-98578230D01*
X190000725Y-98548778D01*
X189993125Y-98518435D01*
X189988535Y-98487493D01*
X189987000Y-98456250D01*
X189987000Y-97743750D01*
X189988535Y-97712507D01*
X189993125Y-97681565D01*
X190000725Y-97651222D01*
X190011263Y-97621770D01*
X190024638Y-97593492D01*
X190040719Y-97566662D01*
X190059353Y-97541537D01*
X190080360Y-97518360D01*
X190103537Y-97497353D01*
X190128662Y-97478719D01*
X190155492Y-97462638D01*
X190183770Y-97449263D01*
X190213222Y-97438725D01*
X190243565Y-97431125D01*
X190274507Y-97426535D01*
X190305750Y-97425000D01*
X190943250Y-97425000D01*
X190974493Y-97426535D01*
X190974493Y-97426535D01*
G37*
D16*
X190624500Y-98100000D03*
D15*
G36*
X192549493Y-97426535D02*
G01*
X192580435Y-97431125D01*
X192610778Y-97438725D01*
X192640230Y-97449263D01*
X192668508Y-97462638D01*
X192695338Y-97478719D01*
X192720463Y-97497353D01*
X192743640Y-97518360D01*
X192764647Y-97541537D01*
X192783281Y-97566662D01*
X192799362Y-97593492D01*
X192812737Y-97621770D01*
X192823275Y-97651222D01*
X192830875Y-97681565D01*
X192835465Y-97712507D01*
X192837000Y-97743750D01*
X192837000Y-98456250D01*
X192835465Y-98487493D01*
X192830875Y-98518435D01*
X192823275Y-98548778D01*
X192812737Y-98578230D01*
X192799362Y-98606508D01*
X192783281Y-98633338D01*
X192764647Y-98658463D01*
X192743640Y-98681640D01*
X192720463Y-98702647D01*
X192695338Y-98721281D01*
X192668508Y-98737362D01*
X192640230Y-98750737D01*
X192610778Y-98761275D01*
X192580435Y-98768875D01*
X192549493Y-98773465D01*
X192518250Y-98775000D01*
X191880750Y-98775000D01*
X191849507Y-98773465D01*
X191818565Y-98768875D01*
X191788222Y-98761275D01*
X191758770Y-98750737D01*
X191730492Y-98737362D01*
X191703662Y-98721281D01*
X191678537Y-98702647D01*
X191655360Y-98681640D01*
X191634353Y-98658463D01*
X191615719Y-98633338D01*
X191599638Y-98606508D01*
X191586263Y-98578230D01*
X191575725Y-98548778D01*
X191568125Y-98518435D01*
X191563535Y-98487493D01*
X191562000Y-98456250D01*
X191562000Y-97743750D01*
X191563535Y-97712507D01*
X191568125Y-97681565D01*
X191575725Y-97651222D01*
X191586263Y-97621770D01*
X191599638Y-97593492D01*
X191615719Y-97566662D01*
X191634353Y-97541537D01*
X191655360Y-97518360D01*
X191678537Y-97497353D01*
X191703662Y-97478719D01*
X191730492Y-97462638D01*
X191758770Y-97449263D01*
X191788222Y-97438725D01*
X191818565Y-97431125D01*
X191849507Y-97426535D01*
X191880750Y-97425000D01*
X192518250Y-97425000D01*
X192549493Y-97426535D01*
X192549493Y-97426535D01*
G37*
D16*
X192199500Y-98100000D03*
D17*
X193600000Y-102100000D03*
X185100000Y-102100000D03*
D18*
X196700000Y-125200000D03*
D19*
X196775000Y-109120000D03*
X196125000Y-109120000D03*
X195475000Y-109120000D03*
X194825000Y-109120000D03*
X194175000Y-109120000D03*
X193525000Y-109120000D03*
X192875000Y-109120000D03*
X192225000Y-109120000D03*
X191575000Y-109120000D03*
X190925000Y-109120000D03*
X190275000Y-109120000D03*
X189625000Y-109120000D03*
X189625000Y-114820000D03*
X190275000Y-114820000D03*
X190925000Y-114820000D03*
X191575000Y-114820000D03*
X192225000Y-114820000D03*
X192875000Y-114820000D03*
X193525000Y-114820000D03*
X194175000Y-114820000D03*
X194825000Y-114820000D03*
X195475000Y-114820000D03*
X196125000Y-114820000D03*
X196775000Y-114820000D03*
D20*
X201400000Y-116000000D03*
D21*
X201400000Y-113230000D03*
X201400000Y-110460000D03*
X201400000Y-107690000D03*
X201400000Y-104920000D03*
X204240000Y-114615000D03*
X204240000Y-111845000D03*
X204240000Y-109075000D03*
X204240000Y-106305000D03*
D22*
X202820000Y-122960000D03*
X202820000Y-97960000D03*
M02*
