M48
; DRILL file {KiCad (5.1.2)-1} date 2023/02/04 8:31:18
; FORMAT={-:-/ absolute / metric / decimal}
; #@! TF.CreationDate,2023-02-04T08:31:18+09:00
; #@! TF.GenerationSoftware,Kicad,Pcbnew,(5.1.2)-1
FMAT,2
METRIC
T1C0.400
T2C0.500
T3C0.762
T4C1.000
T5C3.200
T6C3.200
%
G90
G05
T1
X179.62Y-109.97
X181.78Y-107.99
X181.98Y-106.14
X184.26Y-123.6
X185.56Y-123.61
X186.9Y-104.899
X188.76Y-125.11
X189.276Y-105.825
X189.501Y-122.108
X189.874Y-118.077
X190.625Y-112.134
X192.569Y-110.49
X193.14Y-111.346
X193.539Y-123.985
X194.63Y-99.5
X197.251Y-123.085
T2
X196.7Y-125.2
T3
X185.2Y-108.0
X185.2Y-110.0
X185.2Y-112.0
X185.2Y-114.0
T4
X201.4Y-104.92
X201.4Y-107.69
X201.4Y-110.46
X201.4Y-113.23
X201.4Y-116.0
X204.24Y-106.305
X204.24Y-109.075
X204.24Y-111.845
X204.24Y-114.615
T5
X202.82Y-97.96
X202.82Y-122.96
T6
X179.9Y-96.7
X179.9Y-124.0
T0
M30
