G04 #@! TF.GenerationSoftware,KiCad,Pcbnew,(5.1.2)-1*
G04 #@! TF.CreationDate,2019-11-04T01:50:09+09:00*
G04 #@! TF.ProjectId,IR,49522e6b-6963-4616-945f-706362585858,v1.1*
G04 #@! TF.SameCoordinates,Original*
G04 #@! TF.FileFunction,Soldermask,Top*
G04 #@! TF.FilePolarity,Negative*
%FSLAX46Y46*%
G04 Gerber Fmt 4.6, Leading zero omitted, Abs format (unit mm)*
G04 Created by KiCad (PCBNEW (5.1.2)-1) date 2019-11-04 01:50:09*
%MOMM*%
%LPD*%
G04 APERTURE LIST*
%ADD10C,3.600000*%
%ADD11O,2.200000X1.924000*%
%ADD12C,0.050000*%
%ADD13C,1.275000*%
%ADD14R,4.900000X2.400000*%
%ADD15C,1.400000*%
%ADD16R,0.800000X1.500000*%
%ADD17R,2.000000X2.000000*%
%ADD18C,2.000000*%
%ADD19C,4.400000*%
G04 APERTURE END LIST*
D10*
X179900000Y-124000000D03*
X179900000Y-96700000D03*
D11*
X185200000Y-114000000D03*
X185200000Y-112000000D03*
X185200000Y-110000000D03*
X185200000Y-108000000D03*
D12*
G36*
X192975493Y-105076535D02*
G01*
X193006435Y-105081125D01*
X193036778Y-105088725D01*
X193066230Y-105099263D01*
X193094508Y-105112638D01*
X193121338Y-105128719D01*
X193146463Y-105147353D01*
X193169640Y-105168360D01*
X193190647Y-105191537D01*
X193209281Y-105216662D01*
X193225362Y-105243492D01*
X193238737Y-105271770D01*
X193249275Y-105301222D01*
X193256875Y-105331565D01*
X193261465Y-105362507D01*
X193263000Y-105393750D01*
X193263000Y-106106250D01*
X193261465Y-106137493D01*
X193256875Y-106168435D01*
X193249275Y-106198778D01*
X193238737Y-106228230D01*
X193225362Y-106256508D01*
X193209281Y-106283338D01*
X193190647Y-106308463D01*
X193169640Y-106331640D01*
X193146463Y-106352647D01*
X193121338Y-106371281D01*
X193094508Y-106387362D01*
X193066230Y-106400737D01*
X193036778Y-106411275D01*
X193006435Y-106418875D01*
X192975493Y-106423465D01*
X192944250Y-106425000D01*
X192306750Y-106425000D01*
X192275507Y-106423465D01*
X192244565Y-106418875D01*
X192214222Y-106411275D01*
X192184770Y-106400737D01*
X192156492Y-106387362D01*
X192129662Y-106371281D01*
X192104537Y-106352647D01*
X192081360Y-106331640D01*
X192060353Y-106308463D01*
X192041719Y-106283338D01*
X192025638Y-106256508D01*
X192012263Y-106228230D01*
X192001725Y-106198778D01*
X191994125Y-106168435D01*
X191989535Y-106137493D01*
X191988000Y-106106250D01*
X191988000Y-105393750D01*
X191989535Y-105362507D01*
X191994125Y-105331565D01*
X192001725Y-105301222D01*
X192012263Y-105271770D01*
X192025638Y-105243492D01*
X192041719Y-105216662D01*
X192060353Y-105191537D01*
X192081360Y-105168360D01*
X192104537Y-105147353D01*
X192129662Y-105128719D01*
X192156492Y-105112638D01*
X192184770Y-105099263D01*
X192214222Y-105088725D01*
X192244565Y-105081125D01*
X192275507Y-105076535D01*
X192306750Y-105075000D01*
X192944250Y-105075000D01*
X192975493Y-105076535D01*
X192975493Y-105076535D01*
G37*
D13*
X192625500Y-105750000D03*
D12*
G36*
X191400493Y-105076535D02*
G01*
X191431435Y-105081125D01*
X191461778Y-105088725D01*
X191491230Y-105099263D01*
X191519508Y-105112638D01*
X191546338Y-105128719D01*
X191571463Y-105147353D01*
X191594640Y-105168360D01*
X191615647Y-105191537D01*
X191634281Y-105216662D01*
X191650362Y-105243492D01*
X191663737Y-105271770D01*
X191674275Y-105301222D01*
X191681875Y-105331565D01*
X191686465Y-105362507D01*
X191688000Y-105393750D01*
X191688000Y-106106250D01*
X191686465Y-106137493D01*
X191681875Y-106168435D01*
X191674275Y-106198778D01*
X191663737Y-106228230D01*
X191650362Y-106256508D01*
X191634281Y-106283338D01*
X191615647Y-106308463D01*
X191594640Y-106331640D01*
X191571463Y-106352647D01*
X191546338Y-106371281D01*
X191519508Y-106387362D01*
X191491230Y-106400737D01*
X191461778Y-106411275D01*
X191431435Y-106418875D01*
X191400493Y-106423465D01*
X191369250Y-106425000D01*
X190731750Y-106425000D01*
X190700507Y-106423465D01*
X190669565Y-106418875D01*
X190639222Y-106411275D01*
X190609770Y-106400737D01*
X190581492Y-106387362D01*
X190554662Y-106371281D01*
X190529537Y-106352647D01*
X190506360Y-106331640D01*
X190485353Y-106308463D01*
X190466719Y-106283338D01*
X190450638Y-106256508D01*
X190437263Y-106228230D01*
X190426725Y-106198778D01*
X190419125Y-106168435D01*
X190414535Y-106137493D01*
X190413000Y-106106250D01*
X190413000Y-105393750D01*
X190414535Y-105362507D01*
X190419125Y-105331565D01*
X190426725Y-105301222D01*
X190437263Y-105271770D01*
X190450638Y-105243492D01*
X190466719Y-105216662D01*
X190485353Y-105191537D01*
X190506360Y-105168360D01*
X190529537Y-105147353D01*
X190554662Y-105128719D01*
X190581492Y-105112638D01*
X190609770Y-105099263D01*
X190639222Y-105088725D01*
X190669565Y-105081125D01*
X190700507Y-105076535D01*
X190731750Y-105075000D01*
X191369250Y-105075000D01*
X191400493Y-105076535D01*
X191400493Y-105076535D01*
G37*
D13*
X191050500Y-105750000D03*
D12*
G36*
X197587493Y-101788535D02*
G01*
X197618435Y-101793125D01*
X197648778Y-101800725D01*
X197678230Y-101811263D01*
X197706508Y-101824638D01*
X197733338Y-101840719D01*
X197758463Y-101859353D01*
X197781640Y-101880360D01*
X197802647Y-101903537D01*
X197821281Y-101928662D01*
X197837362Y-101955492D01*
X197850737Y-101983770D01*
X197861275Y-102013222D01*
X197868875Y-102043565D01*
X197873465Y-102074507D01*
X197875000Y-102105750D01*
X197875000Y-102743250D01*
X197873465Y-102774493D01*
X197868875Y-102805435D01*
X197861275Y-102835778D01*
X197850737Y-102865230D01*
X197837362Y-102893508D01*
X197821281Y-102920338D01*
X197802647Y-102945463D01*
X197781640Y-102968640D01*
X197758463Y-102989647D01*
X197733338Y-103008281D01*
X197706508Y-103024362D01*
X197678230Y-103037737D01*
X197648778Y-103048275D01*
X197618435Y-103055875D01*
X197587493Y-103060465D01*
X197556250Y-103062000D01*
X196843750Y-103062000D01*
X196812507Y-103060465D01*
X196781565Y-103055875D01*
X196751222Y-103048275D01*
X196721770Y-103037737D01*
X196693492Y-103024362D01*
X196666662Y-103008281D01*
X196641537Y-102989647D01*
X196618360Y-102968640D01*
X196597353Y-102945463D01*
X196578719Y-102920338D01*
X196562638Y-102893508D01*
X196549263Y-102865230D01*
X196538725Y-102835778D01*
X196531125Y-102805435D01*
X196526535Y-102774493D01*
X196525000Y-102743250D01*
X196525000Y-102105750D01*
X196526535Y-102074507D01*
X196531125Y-102043565D01*
X196538725Y-102013222D01*
X196549263Y-101983770D01*
X196562638Y-101955492D01*
X196578719Y-101928662D01*
X196597353Y-101903537D01*
X196618360Y-101880360D01*
X196641537Y-101859353D01*
X196666662Y-101840719D01*
X196693492Y-101824638D01*
X196721770Y-101811263D01*
X196751222Y-101800725D01*
X196781565Y-101793125D01*
X196812507Y-101788535D01*
X196843750Y-101787000D01*
X197556250Y-101787000D01*
X197587493Y-101788535D01*
X197587493Y-101788535D01*
G37*
D13*
X197200000Y-102424500D03*
D12*
G36*
X197587493Y-103363535D02*
G01*
X197618435Y-103368125D01*
X197648778Y-103375725D01*
X197678230Y-103386263D01*
X197706508Y-103399638D01*
X197733338Y-103415719D01*
X197758463Y-103434353D01*
X197781640Y-103455360D01*
X197802647Y-103478537D01*
X197821281Y-103503662D01*
X197837362Y-103530492D01*
X197850737Y-103558770D01*
X197861275Y-103588222D01*
X197868875Y-103618565D01*
X197873465Y-103649507D01*
X197875000Y-103680750D01*
X197875000Y-104318250D01*
X197873465Y-104349493D01*
X197868875Y-104380435D01*
X197861275Y-104410778D01*
X197850737Y-104440230D01*
X197837362Y-104468508D01*
X197821281Y-104495338D01*
X197802647Y-104520463D01*
X197781640Y-104543640D01*
X197758463Y-104564647D01*
X197733338Y-104583281D01*
X197706508Y-104599362D01*
X197678230Y-104612737D01*
X197648778Y-104623275D01*
X197618435Y-104630875D01*
X197587493Y-104635465D01*
X197556250Y-104637000D01*
X196843750Y-104637000D01*
X196812507Y-104635465D01*
X196781565Y-104630875D01*
X196751222Y-104623275D01*
X196721770Y-104612737D01*
X196693492Y-104599362D01*
X196666662Y-104583281D01*
X196641537Y-104564647D01*
X196618360Y-104543640D01*
X196597353Y-104520463D01*
X196578719Y-104495338D01*
X196562638Y-104468508D01*
X196549263Y-104440230D01*
X196538725Y-104410778D01*
X196531125Y-104380435D01*
X196526535Y-104349493D01*
X196525000Y-104318250D01*
X196525000Y-103680750D01*
X196526535Y-103649507D01*
X196531125Y-103618565D01*
X196538725Y-103588222D01*
X196549263Y-103558770D01*
X196562638Y-103530492D01*
X196578719Y-103503662D01*
X196597353Y-103478537D01*
X196618360Y-103455360D01*
X196641537Y-103434353D01*
X196666662Y-103415719D01*
X196693492Y-103399638D01*
X196721770Y-103386263D01*
X196751222Y-103375725D01*
X196781565Y-103368125D01*
X196812507Y-103363535D01*
X196843750Y-103362000D01*
X197556250Y-103362000D01*
X197587493Y-103363535D01*
X197587493Y-103363535D01*
G37*
D13*
X197200000Y-103999500D03*
D12*
G36*
X181987493Y-103363535D02*
G01*
X182018435Y-103368125D01*
X182048778Y-103375725D01*
X182078230Y-103386263D01*
X182106508Y-103399638D01*
X182133338Y-103415719D01*
X182158463Y-103434353D01*
X182181640Y-103455360D01*
X182202647Y-103478537D01*
X182221281Y-103503662D01*
X182237362Y-103530492D01*
X182250737Y-103558770D01*
X182261275Y-103588222D01*
X182268875Y-103618565D01*
X182273465Y-103649507D01*
X182275000Y-103680750D01*
X182275000Y-104318250D01*
X182273465Y-104349493D01*
X182268875Y-104380435D01*
X182261275Y-104410778D01*
X182250737Y-104440230D01*
X182237362Y-104468508D01*
X182221281Y-104495338D01*
X182202647Y-104520463D01*
X182181640Y-104543640D01*
X182158463Y-104564647D01*
X182133338Y-104583281D01*
X182106508Y-104599362D01*
X182078230Y-104612737D01*
X182048778Y-104623275D01*
X182018435Y-104630875D01*
X181987493Y-104635465D01*
X181956250Y-104637000D01*
X181243750Y-104637000D01*
X181212507Y-104635465D01*
X181181565Y-104630875D01*
X181151222Y-104623275D01*
X181121770Y-104612737D01*
X181093492Y-104599362D01*
X181066662Y-104583281D01*
X181041537Y-104564647D01*
X181018360Y-104543640D01*
X180997353Y-104520463D01*
X180978719Y-104495338D01*
X180962638Y-104468508D01*
X180949263Y-104440230D01*
X180938725Y-104410778D01*
X180931125Y-104380435D01*
X180926535Y-104349493D01*
X180925000Y-104318250D01*
X180925000Y-103680750D01*
X180926535Y-103649507D01*
X180931125Y-103618565D01*
X180938725Y-103588222D01*
X180949263Y-103558770D01*
X180962638Y-103530492D01*
X180978719Y-103503662D01*
X180997353Y-103478537D01*
X181018360Y-103455360D01*
X181041537Y-103434353D01*
X181066662Y-103415719D01*
X181093492Y-103399638D01*
X181121770Y-103386263D01*
X181151222Y-103375725D01*
X181181565Y-103368125D01*
X181212507Y-103363535D01*
X181243750Y-103362000D01*
X181956250Y-103362000D01*
X181987493Y-103363535D01*
X181987493Y-103363535D01*
G37*
D13*
X181600000Y-103999500D03*
D12*
G36*
X181987493Y-101788535D02*
G01*
X182018435Y-101793125D01*
X182048778Y-101800725D01*
X182078230Y-101811263D01*
X182106508Y-101824638D01*
X182133338Y-101840719D01*
X182158463Y-101859353D01*
X182181640Y-101880360D01*
X182202647Y-101903537D01*
X182221281Y-101928662D01*
X182237362Y-101955492D01*
X182250737Y-101983770D01*
X182261275Y-102013222D01*
X182268875Y-102043565D01*
X182273465Y-102074507D01*
X182275000Y-102105750D01*
X182275000Y-102743250D01*
X182273465Y-102774493D01*
X182268875Y-102805435D01*
X182261275Y-102835778D01*
X182250737Y-102865230D01*
X182237362Y-102893508D01*
X182221281Y-102920338D01*
X182202647Y-102945463D01*
X182181640Y-102968640D01*
X182158463Y-102989647D01*
X182133338Y-103008281D01*
X182106508Y-103024362D01*
X182078230Y-103037737D01*
X182048778Y-103048275D01*
X182018435Y-103055875D01*
X181987493Y-103060465D01*
X181956250Y-103062000D01*
X181243750Y-103062000D01*
X181212507Y-103060465D01*
X181181565Y-103055875D01*
X181151222Y-103048275D01*
X181121770Y-103037737D01*
X181093492Y-103024362D01*
X181066662Y-103008281D01*
X181041537Y-102989647D01*
X181018360Y-102968640D01*
X180997353Y-102945463D01*
X180978719Y-102920338D01*
X180962638Y-102893508D01*
X180949263Y-102865230D01*
X180938725Y-102835778D01*
X180931125Y-102805435D01*
X180926535Y-102774493D01*
X180925000Y-102743250D01*
X180925000Y-102105750D01*
X180926535Y-102074507D01*
X180931125Y-102043565D01*
X180938725Y-102013222D01*
X180949263Y-101983770D01*
X180962638Y-101955492D01*
X180978719Y-101928662D01*
X180997353Y-101903537D01*
X181018360Y-101880360D01*
X181041537Y-101859353D01*
X181066662Y-101840719D01*
X181093492Y-101824638D01*
X181121770Y-101811263D01*
X181151222Y-101800725D01*
X181181565Y-101793125D01*
X181212507Y-101788535D01*
X181243750Y-101787000D01*
X181956250Y-101787000D01*
X181987493Y-101788535D01*
X181987493Y-101788535D01*
G37*
D13*
X181600000Y-102424500D03*
D12*
G36*
X187337493Y-97426535D02*
G01*
X187368435Y-97431125D01*
X187398778Y-97438725D01*
X187428230Y-97449263D01*
X187456508Y-97462638D01*
X187483338Y-97478719D01*
X187508463Y-97497353D01*
X187531640Y-97518360D01*
X187552647Y-97541537D01*
X187571281Y-97566662D01*
X187587362Y-97593492D01*
X187600737Y-97621770D01*
X187611275Y-97651222D01*
X187618875Y-97681565D01*
X187623465Y-97712507D01*
X187625000Y-97743750D01*
X187625000Y-98456250D01*
X187623465Y-98487493D01*
X187618875Y-98518435D01*
X187611275Y-98548778D01*
X187600737Y-98578230D01*
X187587362Y-98606508D01*
X187571281Y-98633338D01*
X187552647Y-98658463D01*
X187531640Y-98681640D01*
X187508463Y-98702647D01*
X187483338Y-98721281D01*
X187456508Y-98737362D01*
X187428230Y-98750737D01*
X187398778Y-98761275D01*
X187368435Y-98768875D01*
X187337493Y-98773465D01*
X187306250Y-98775000D01*
X186668750Y-98775000D01*
X186637507Y-98773465D01*
X186606565Y-98768875D01*
X186576222Y-98761275D01*
X186546770Y-98750737D01*
X186518492Y-98737362D01*
X186491662Y-98721281D01*
X186466537Y-98702647D01*
X186443360Y-98681640D01*
X186422353Y-98658463D01*
X186403719Y-98633338D01*
X186387638Y-98606508D01*
X186374263Y-98578230D01*
X186363725Y-98548778D01*
X186356125Y-98518435D01*
X186351535Y-98487493D01*
X186350000Y-98456250D01*
X186350000Y-97743750D01*
X186351535Y-97712507D01*
X186356125Y-97681565D01*
X186363725Y-97651222D01*
X186374263Y-97621770D01*
X186387638Y-97593492D01*
X186403719Y-97566662D01*
X186422353Y-97541537D01*
X186443360Y-97518360D01*
X186466537Y-97497353D01*
X186491662Y-97478719D01*
X186518492Y-97462638D01*
X186546770Y-97449263D01*
X186576222Y-97438725D01*
X186606565Y-97431125D01*
X186637507Y-97426535D01*
X186668750Y-97425000D01*
X187306250Y-97425000D01*
X187337493Y-97426535D01*
X187337493Y-97426535D01*
G37*
D13*
X186987500Y-98100000D03*
D12*
G36*
X185762493Y-97426535D02*
G01*
X185793435Y-97431125D01*
X185823778Y-97438725D01*
X185853230Y-97449263D01*
X185881508Y-97462638D01*
X185908338Y-97478719D01*
X185933463Y-97497353D01*
X185956640Y-97518360D01*
X185977647Y-97541537D01*
X185996281Y-97566662D01*
X186012362Y-97593492D01*
X186025737Y-97621770D01*
X186036275Y-97651222D01*
X186043875Y-97681565D01*
X186048465Y-97712507D01*
X186050000Y-97743750D01*
X186050000Y-98456250D01*
X186048465Y-98487493D01*
X186043875Y-98518435D01*
X186036275Y-98548778D01*
X186025737Y-98578230D01*
X186012362Y-98606508D01*
X185996281Y-98633338D01*
X185977647Y-98658463D01*
X185956640Y-98681640D01*
X185933463Y-98702647D01*
X185908338Y-98721281D01*
X185881508Y-98737362D01*
X185853230Y-98750737D01*
X185823778Y-98761275D01*
X185793435Y-98768875D01*
X185762493Y-98773465D01*
X185731250Y-98775000D01*
X185093750Y-98775000D01*
X185062507Y-98773465D01*
X185031565Y-98768875D01*
X185001222Y-98761275D01*
X184971770Y-98750737D01*
X184943492Y-98737362D01*
X184916662Y-98721281D01*
X184891537Y-98702647D01*
X184868360Y-98681640D01*
X184847353Y-98658463D01*
X184828719Y-98633338D01*
X184812638Y-98606508D01*
X184799263Y-98578230D01*
X184788725Y-98548778D01*
X184781125Y-98518435D01*
X184776535Y-98487493D01*
X184775000Y-98456250D01*
X184775000Y-97743750D01*
X184776535Y-97712507D01*
X184781125Y-97681565D01*
X184788725Y-97651222D01*
X184799263Y-97621770D01*
X184812638Y-97593492D01*
X184828719Y-97566662D01*
X184847353Y-97541537D01*
X184868360Y-97518360D01*
X184891537Y-97497353D01*
X184916662Y-97478719D01*
X184943492Y-97462638D01*
X184971770Y-97449263D01*
X185001222Y-97438725D01*
X185031565Y-97431125D01*
X185062507Y-97426535D01*
X185093750Y-97425000D01*
X185731250Y-97425000D01*
X185762493Y-97426535D01*
X185762493Y-97426535D01*
G37*
D13*
X185412500Y-98100000D03*
D12*
G36*
X188612493Y-119826535D02*
G01*
X188643435Y-119831125D01*
X188673778Y-119838725D01*
X188703230Y-119849263D01*
X188731508Y-119862638D01*
X188758338Y-119878719D01*
X188783463Y-119897353D01*
X188806640Y-119918360D01*
X188827647Y-119941537D01*
X188846281Y-119966662D01*
X188862362Y-119993492D01*
X188875737Y-120021770D01*
X188886275Y-120051222D01*
X188893875Y-120081565D01*
X188898465Y-120112507D01*
X188900000Y-120143750D01*
X188900000Y-120856250D01*
X188898465Y-120887493D01*
X188893875Y-120918435D01*
X188886275Y-120948778D01*
X188875737Y-120978230D01*
X188862362Y-121006508D01*
X188846281Y-121033338D01*
X188827647Y-121058463D01*
X188806640Y-121081640D01*
X188783463Y-121102647D01*
X188758338Y-121121281D01*
X188731508Y-121137362D01*
X188703230Y-121150737D01*
X188673778Y-121161275D01*
X188643435Y-121168875D01*
X188612493Y-121173465D01*
X188581250Y-121175000D01*
X187943750Y-121175000D01*
X187912507Y-121173465D01*
X187881565Y-121168875D01*
X187851222Y-121161275D01*
X187821770Y-121150737D01*
X187793492Y-121137362D01*
X187766662Y-121121281D01*
X187741537Y-121102647D01*
X187718360Y-121081640D01*
X187697353Y-121058463D01*
X187678719Y-121033338D01*
X187662638Y-121006508D01*
X187649263Y-120978230D01*
X187638725Y-120948778D01*
X187631125Y-120918435D01*
X187626535Y-120887493D01*
X187625000Y-120856250D01*
X187625000Y-120143750D01*
X187626535Y-120112507D01*
X187631125Y-120081565D01*
X187638725Y-120051222D01*
X187649263Y-120021770D01*
X187662638Y-119993492D01*
X187678719Y-119966662D01*
X187697353Y-119941537D01*
X187718360Y-119918360D01*
X187741537Y-119897353D01*
X187766662Y-119878719D01*
X187793492Y-119862638D01*
X187821770Y-119849263D01*
X187851222Y-119838725D01*
X187881565Y-119831125D01*
X187912507Y-119826535D01*
X187943750Y-119825000D01*
X188581250Y-119825000D01*
X188612493Y-119826535D01*
X188612493Y-119826535D01*
G37*
D13*
X188262500Y-120500000D03*
D12*
G36*
X190187493Y-119826535D02*
G01*
X190218435Y-119831125D01*
X190248778Y-119838725D01*
X190278230Y-119849263D01*
X190306508Y-119862638D01*
X190333338Y-119878719D01*
X190358463Y-119897353D01*
X190381640Y-119918360D01*
X190402647Y-119941537D01*
X190421281Y-119966662D01*
X190437362Y-119993492D01*
X190450737Y-120021770D01*
X190461275Y-120051222D01*
X190468875Y-120081565D01*
X190473465Y-120112507D01*
X190475000Y-120143750D01*
X190475000Y-120856250D01*
X190473465Y-120887493D01*
X190468875Y-120918435D01*
X190461275Y-120948778D01*
X190450737Y-120978230D01*
X190437362Y-121006508D01*
X190421281Y-121033338D01*
X190402647Y-121058463D01*
X190381640Y-121081640D01*
X190358463Y-121102647D01*
X190333338Y-121121281D01*
X190306508Y-121137362D01*
X190278230Y-121150737D01*
X190248778Y-121161275D01*
X190218435Y-121168875D01*
X190187493Y-121173465D01*
X190156250Y-121175000D01*
X189518750Y-121175000D01*
X189487507Y-121173465D01*
X189456565Y-121168875D01*
X189426222Y-121161275D01*
X189396770Y-121150737D01*
X189368492Y-121137362D01*
X189341662Y-121121281D01*
X189316537Y-121102647D01*
X189293360Y-121081640D01*
X189272353Y-121058463D01*
X189253719Y-121033338D01*
X189237638Y-121006508D01*
X189224263Y-120978230D01*
X189213725Y-120948778D01*
X189206125Y-120918435D01*
X189201535Y-120887493D01*
X189200000Y-120856250D01*
X189200000Y-120143750D01*
X189201535Y-120112507D01*
X189206125Y-120081565D01*
X189213725Y-120051222D01*
X189224263Y-120021770D01*
X189237638Y-119993492D01*
X189253719Y-119966662D01*
X189272353Y-119941537D01*
X189293360Y-119918360D01*
X189316537Y-119897353D01*
X189341662Y-119878719D01*
X189368492Y-119862638D01*
X189396770Y-119849263D01*
X189426222Y-119838725D01*
X189456565Y-119831125D01*
X189487507Y-119826535D01*
X189518750Y-119825000D01*
X190156250Y-119825000D01*
X190187493Y-119826535D01*
X190187493Y-119826535D01*
G37*
D13*
X189837500Y-120500000D03*
D12*
G36*
X186887493Y-119826535D02*
G01*
X186918435Y-119831125D01*
X186948778Y-119838725D01*
X186978230Y-119849263D01*
X187006508Y-119862638D01*
X187033338Y-119878719D01*
X187058463Y-119897353D01*
X187081640Y-119918360D01*
X187102647Y-119941537D01*
X187121281Y-119966662D01*
X187137362Y-119993492D01*
X187150737Y-120021770D01*
X187161275Y-120051222D01*
X187168875Y-120081565D01*
X187173465Y-120112507D01*
X187175000Y-120143750D01*
X187175000Y-120856250D01*
X187173465Y-120887493D01*
X187168875Y-120918435D01*
X187161275Y-120948778D01*
X187150737Y-120978230D01*
X187137362Y-121006508D01*
X187121281Y-121033338D01*
X187102647Y-121058463D01*
X187081640Y-121081640D01*
X187058463Y-121102647D01*
X187033338Y-121121281D01*
X187006508Y-121137362D01*
X186978230Y-121150737D01*
X186948778Y-121161275D01*
X186918435Y-121168875D01*
X186887493Y-121173465D01*
X186856250Y-121175000D01*
X186218750Y-121175000D01*
X186187507Y-121173465D01*
X186156565Y-121168875D01*
X186126222Y-121161275D01*
X186096770Y-121150737D01*
X186068492Y-121137362D01*
X186041662Y-121121281D01*
X186016537Y-121102647D01*
X185993360Y-121081640D01*
X185972353Y-121058463D01*
X185953719Y-121033338D01*
X185937638Y-121006508D01*
X185924263Y-120978230D01*
X185913725Y-120948778D01*
X185906125Y-120918435D01*
X185901535Y-120887493D01*
X185900000Y-120856250D01*
X185900000Y-120143750D01*
X185901535Y-120112507D01*
X185906125Y-120081565D01*
X185913725Y-120051222D01*
X185924263Y-120021770D01*
X185937638Y-119993492D01*
X185953719Y-119966662D01*
X185972353Y-119941537D01*
X185993360Y-119918360D01*
X186016537Y-119897353D01*
X186041662Y-119878719D01*
X186068492Y-119862638D01*
X186096770Y-119849263D01*
X186126222Y-119838725D01*
X186156565Y-119831125D01*
X186187507Y-119826535D01*
X186218750Y-119825000D01*
X186856250Y-119825000D01*
X186887493Y-119826535D01*
X186887493Y-119826535D01*
G37*
D13*
X186537500Y-120500000D03*
D12*
G36*
X185312493Y-119826535D02*
G01*
X185343435Y-119831125D01*
X185373778Y-119838725D01*
X185403230Y-119849263D01*
X185431508Y-119862638D01*
X185458338Y-119878719D01*
X185483463Y-119897353D01*
X185506640Y-119918360D01*
X185527647Y-119941537D01*
X185546281Y-119966662D01*
X185562362Y-119993492D01*
X185575737Y-120021770D01*
X185586275Y-120051222D01*
X185593875Y-120081565D01*
X185598465Y-120112507D01*
X185600000Y-120143750D01*
X185600000Y-120856250D01*
X185598465Y-120887493D01*
X185593875Y-120918435D01*
X185586275Y-120948778D01*
X185575737Y-120978230D01*
X185562362Y-121006508D01*
X185546281Y-121033338D01*
X185527647Y-121058463D01*
X185506640Y-121081640D01*
X185483463Y-121102647D01*
X185458338Y-121121281D01*
X185431508Y-121137362D01*
X185403230Y-121150737D01*
X185373778Y-121161275D01*
X185343435Y-121168875D01*
X185312493Y-121173465D01*
X185281250Y-121175000D01*
X184643750Y-121175000D01*
X184612507Y-121173465D01*
X184581565Y-121168875D01*
X184551222Y-121161275D01*
X184521770Y-121150737D01*
X184493492Y-121137362D01*
X184466662Y-121121281D01*
X184441537Y-121102647D01*
X184418360Y-121081640D01*
X184397353Y-121058463D01*
X184378719Y-121033338D01*
X184362638Y-121006508D01*
X184349263Y-120978230D01*
X184338725Y-120948778D01*
X184331125Y-120918435D01*
X184326535Y-120887493D01*
X184325000Y-120856250D01*
X184325000Y-120143750D01*
X184326535Y-120112507D01*
X184331125Y-120081565D01*
X184338725Y-120051222D01*
X184349263Y-120021770D01*
X184362638Y-119993492D01*
X184378719Y-119966662D01*
X184397353Y-119941537D01*
X184418360Y-119918360D01*
X184441537Y-119897353D01*
X184466662Y-119878719D01*
X184493492Y-119862638D01*
X184521770Y-119849263D01*
X184551222Y-119838725D01*
X184581565Y-119831125D01*
X184612507Y-119826535D01*
X184643750Y-119825000D01*
X185281250Y-119825000D01*
X185312493Y-119826535D01*
X185312493Y-119826535D01*
G37*
D13*
X184962500Y-120500000D03*
D12*
G36*
X197737493Y-118126535D02*
G01*
X197768435Y-118131125D01*
X197798778Y-118138725D01*
X197828230Y-118149263D01*
X197856508Y-118162638D01*
X197883338Y-118178719D01*
X197908463Y-118197353D01*
X197931640Y-118218360D01*
X197952647Y-118241537D01*
X197971281Y-118266662D01*
X197987362Y-118293492D01*
X198000737Y-118321770D01*
X198011275Y-118351222D01*
X198018875Y-118381565D01*
X198023465Y-118412507D01*
X198025000Y-118443750D01*
X198025000Y-119156250D01*
X198023465Y-119187493D01*
X198018875Y-119218435D01*
X198011275Y-119248778D01*
X198000737Y-119278230D01*
X197987362Y-119306508D01*
X197971281Y-119333338D01*
X197952647Y-119358463D01*
X197931640Y-119381640D01*
X197908463Y-119402647D01*
X197883338Y-119421281D01*
X197856508Y-119437362D01*
X197828230Y-119450737D01*
X197798778Y-119461275D01*
X197768435Y-119468875D01*
X197737493Y-119473465D01*
X197706250Y-119475000D01*
X197068750Y-119475000D01*
X197037507Y-119473465D01*
X197006565Y-119468875D01*
X196976222Y-119461275D01*
X196946770Y-119450737D01*
X196918492Y-119437362D01*
X196891662Y-119421281D01*
X196866537Y-119402647D01*
X196843360Y-119381640D01*
X196822353Y-119358463D01*
X196803719Y-119333338D01*
X196787638Y-119306508D01*
X196774263Y-119278230D01*
X196763725Y-119248778D01*
X196756125Y-119218435D01*
X196751535Y-119187493D01*
X196750000Y-119156250D01*
X196750000Y-118443750D01*
X196751535Y-118412507D01*
X196756125Y-118381565D01*
X196763725Y-118351222D01*
X196774263Y-118321770D01*
X196787638Y-118293492D01*
X196803719Y-118266662D01*
X196822353Y-118241537D01*
X196843360Y-118218360D01*
X196866537Y-118197353D01*
X196891662Y-118178719D01*
X196918492Y-118162638D01*
X196946770Y-118149263D01*
X196976222Y-118138725D01*
X197006565Y-118131125D01*
X197037507Y-118126535D01*
X197068750Y-118125000D01*
X197706250Y-118125000D01*
X197737493Y-118126535D01*
X197737493Y-118126535D01*
G37*
D13*
X197387500Y-118800000D03*
D12*
G36*
X196162493Y-118126535D02*
G01*
X196193435Y-118131125D01*
X196223778Y-118138725D01*
X196253230Y-118149263D01*
X196281508Y-118162638D01*
X196308338Y-118178719D01*
X196333463Y-118197353D01*
X196356640Y-118218360D01*
X196377647Y-118241537D01*
X196396281Y-118266662D01*
X196412362Y-118293492D01*
X196425737Y-118321770D01*
X196436275Y-118351222D01*
X196443875Y-118381565D01*
X196448465Y-118412507D01*
X196450000Y-118443750D01*
X196450000Y-119156250D01*
X196448465Y-119187493D01*
X196443875Y-119218435D01*
X196436275Y-119248778D01*
X196425737Y-119278230D01*
X196412362Y-119306508D01*
X196396281Y-119333338D01*
X196377647Y-119358463D01*
X196356640Y-119381640D01*
X196333463Y-119402647D01*
X196308338Y-119421281D01*
X196281508Y-119437362D01*
X196253230Y-119450737D01*
X196223778Y-119461275D01*
X196193435Y-119468875D01*
X196162493Y-119473465D01*
X196131250Y-119475000D01*
X195493750Y-119475000D01*
X195462507Y-119473465D01*
X195431565Y-119468875D01*
X195401222Y-119461275D01*
X195371770Y-119450737D01*
X195343492Y-119437362D01*
X195316662Y-119421281D01*
X195291537Y-119402647D01*
X195268360Y-119381640D01*
X195247353Y-119358463D01*
X195228719Y-119333338D01*
X195212638Y-119306508D01*
X195199263Y-119278230D01*
X195188725Y-119248778D01*
X195181125Y-119218435D01*
X195176535Y-119187493D01*
X195175000Y-119156250D01*
X195175000Y-118443750D01*
X195176535Y-118412507D01*
X195181125Y-118381565D01*
X195188725Y-118351222D01*
X195199263Y-118321770D01*
X195212638Y-118293492D01*
X195228719Y-118266662D01*
X195247353Y-118241537D01*
X195268360Y-118218360D01*
X195291537Y-118197353D01*
X195316662Y-118178719D01*
X195343492Y-118162638D01*
X195371770Y-118149263D01*
X195401222Y-118138725D01*
X195431565Y-118131125D01*
X195462507Y-118126535D01*
X195493750Y-118125000D01*
X196131250Y-118125000D01*
X196162493Y-118126535D01*
X196162493Y-118126535D01*
G37*
D13*
X195812500Y-118800000D03*
D12*
G36*
X192862493Y-118126535D02*
G01*
X192893435Y-118131125D01*
X192923778Y-118138725D01*
X192953230Y-118149263D01*
X192981508Y-118162638D01*
X193008338Y-118178719D01*
X193033463Y-118197353D01*
X193056640Y-118218360D01*
X193077647Y-118241537D01*
X193096281Y-118266662D01*
X193112362Y-118293492D01*
X193125737Y-118321770D01*
X193136275Y-118351222D01*
X193143875Y-118381565D01*
X193148465Y-118412507D01*
X193150000Y-118443750D01*
X193150000Y-119156250D01*
X193148465Y-119187493D01*
X193143875Y-119218435D01*
X193136275Y-119248778D01*
X193125737Y-119278230D01*
X193112362Y-119306508D01*
X193096281Y-119333338D01*
X193077647Y-119358463D01*
X193056640Y-119381640D01*
X193033463Y-119402647D01*
X193008338Y-119421281D01*
X192981508Y-119437362D01*
X192953230Y-119450737D01*
X192923778Y-119461275D01*
X192893435Y-119468875D01*
X192862493Y-119473465D01*
X192831250Y-119475000D01*
X192193750Y-119475000D01*
X192162507Y-119473465D01*
X192131565Y-119468875D01*
X192101222Y-119461275D01*
X192071770Y-119450737D01*
X192043492Y-119437362D01*
X192016662Y-119421281D01*
X191991537Y-119402647D01*
X191968360Y-119381640D01*
X191947353Y-119358463D01*
X191928719Y-119333338D01*
X191912638Y-119306508D01*
X191899263Y-119278230D01*
X191888725Y-119248778D01*
X191881125Y-119218435D01*
X191876535Y-119187493D01*
X191875000Y-119156250D01*
X191875000Y-118443750D01*
X191876535Y-118412507D01*
X191881125Y-118381565D01*
X191888725Y-118351222D01*
X191899263Y-118321770D01*
X191912638Y-118293492D01*
X191928719Y-118266662D01*
X191947353Y-118241537D01*
X191968360Y-118218360D01*
X191991537Y-118197353D01*
X192016662Y-118178719D01*
X192043492Y-118162638D01*
X192071770Y-118149263D01*
X192101222Y-118138725D01*
X192131565Y-118131125D01*
X192162507Y-118126535D01*
X192193750Y-118125000D01*
X192831250Y-118125000D01*
X192862493Y-118126535D01*
X192862493Y-118126535D01*
G37*
D13*
X192512500Y-118800000D03*
D12*
G36*
X194437493Y-118126535D02*
G01*
X194468435Y-118131125D01*
X194498778Y-118138725D01*
X194528230Y-118149263D01*
X194556508Y-118162638D01*
X194583338Y-118178719D01*
X194608463Y-118197353D01*
X194631640Y-118218360D01*
X194652647Y-118241537D01*
X194671281Y-118266662D01*
X194687362Y-118293492D01*
X194700737Y-118321770D01*
X194711275Y-118351222D01*
X194718875Y-118381565D01*
X194723465Y-118412507D01*
X194725000Y-118443750D01*
X194725000Y-119156250D01*
X194723465Y-119187493D01*
X194718875Y-119218435D01*
X194711275Y-119248778D01*
X194700737Y-119278230D01*
X194687362Y-119306508D01*
X194671281Y-119333338D01*
X194652647Y-119358463D01*
X194631640Y-119381640D01*
X194608463Y-119402647D01*
X194583338Y-119421281D01*
X194556508Y-119437362D01*
X194528230Y-119450737D01*
X194498778Y-119461275D01*
X194468435Y-119468875D01*
X194437493Y-119473465D01*
X194406250Y-119475000D01*
X193768750Y-119475000D01*
X193737507Y-119473465D01*
X193706565Y-119468875D01*
X193676222Y-119461275D01*
X193646770Y-119450737D01*
X193618492Y-119437362D01*
X193591662Y-119421281D01*
X193566537Y-119402647D01*
X193543360Y-119381640D01*
X193522353Y-119358463D01*
X193503719Y-119333338D01*
X193487638Y-119306508D01*
X193474263Y-119278230D01*
X193463725Y-119248778D01*
X193456125Y-119218435D01*
X193451535Y-119187493D01*
X193450000Y-119156250D01*
X193450000Y-118443750D01*
X193451535Y-118412507D01*
X193456125Y-118381565D01*
X193463725Y-118351222D01*
X193474263Y-118321770D01*
X193487638Y-118293492D01*
X193503719Y-118266662D01*
X193522353Y-118241537D01*
X193543360Y-118218360D01*
X193566537Y-118197353D01*
X193591662Y-118178719D01*
X193618492Y-118162638D01*
X193646770Y-118149263D01*
X193676222Y-118138725D01*
X193706565Y-118131125D01*
X193737507Y-118126535D01*
X193768750Y-118125000D01*
X194406250Y-118125000D01*
X194437493Y-118126535D01*
X194437493Y-118126535D01*
G37*
D13*
X194087500Y-118800000D03*
D12*
G36*
X182987493Y-116976535D02*
G01*
X183018435Y-116981125D01*
X183048778Y-116988725D01*
X183078230Y-116999263D01*
X183106508Y-117012638D01*
X183133338Y-117028719D01*
X183158463Y-117047353D01*
X183181640Y-117068360D01*
X183202647Y-117091537D01*
X183221281Y-117116662D01*
X183237362Y-117143492D01*
X183250737Y-117171770D01*
X183261275Y-117201222D01*
X183268875Y-117231565D01*
X183273465Y-117262507D01*
X183275000Y-117293750D01*
X183275000Y-118006250D01*
X183273465Y-118037493D01*
X183268875Y-118068435D01*
X183261275Y-118098778D01*
X183250737Y-118128230D01*
X183237362Y-118156508D01*
X183221281Y-118183338D01*
X183202647Y-118208463D01*
X183181640Y-118231640D01*
X183158463Y-118252647D01*
X183133338Y-118271281D01*
X183106508Y-118287362D01*
X183078230Y-118300737D01*
X183048778Y-118311275D01*
X183018435Y-118318875D01*
X182987493Y-118323465D01*
X182956250Y-118325000D01*
X182318750Y-118325000D01*
X182287507Y-118323465D01*
X182256565Y-118318875D01*
X182226222Y-118311275D01*
X182196770Y-118300737D01*
X182168492Y-118287362D01*
X182141662Y-118271281D01*
X182116537Y-118252647D01*
X182093360Y-118231640D01*
X182072353Y-118208463D01*
X182053719Y-118183338D01*
X182037638Y-118156508D01*
X182024263Y-118128230D01*
X182013725Y-118098778D01*
X182006125Y-118068435D01*
X182001535Y-118037493D01*
X182000000Y-118006250D01*
X182000000Y-117293750D01*
X182001535Y-117262507D01*
X182006125Y-117231565D01*
X182013725Y-117201222D01*
X182024263Y-117171770D01*
X182037638Y-117143492D01*
X182053719Y-117116662D01*
X182072353Y-117091537D01*
X182093360Y-117068360D01*
X182116537Y-117047353D01*
X182141662Y-117028719D01*
X182168492Y-117012638D01*
X182196770Y-116999263D01*
X182226222Y-116988725D01*
X182256565Y-116981125D01*
X182287507Y-116976535D01*
X182318750Y-116975000D01*
X182956250Y-116975000D01*
X182987493Y-116976535D01*
X182987493Y-116976535D01*
G37*
D13*
X182637500Y-117650000D03*
D12*
G36*
X181412493Y-116976535D02*
G01*
X181443435Y-116981125D01*
X181473778Y-116988725D01*
X181503230Y-116999263D01*
X181531508Y-117012638D01*
X181558338Y-117028719D01*
X181583463Y-117047353D01*
X181606640Y-117068360D01*
X181627647Y-117091537D01*
X181646281Y-117116662D01*
X181662362Y-117143492D01*
X181675737Y-117171770D01*
X181686275Y-117201222D01*
X181693875Y-117231565D01*
X181698465Y-117262507D01*
X181700000Y-117293750D01*
X181700000Y-118006250D01*
X181698465Y-118037493D01*
X181693875Y-118068435D01*
X181686275Y-118098778D01*
X181675737Y-118128230D01*
X181662362Y-118156508D01*
X181646281Y-118183338D01*
X181627647Y-118208463D01*
X181606640Y-118231640D01*
X181583463Y-118252647D01*
X181558338Y-118271281D01*
X181531508Y-118287362D01*
X181503230Y-118300737D01*
X181473778Y-118311275D01*
X181443435Y-118318875D01*
X181412493Y-118323465D01*
X181381250Y-118325000D01*
X180743750Y-118325000D01*
X180712507Y-118323465D01*
X180681565Y-118318875D01*
X180651222Y-118311275D01*
X180621770Y-118300737D01*
X180593492Y-118287362D01*
X180566662Y-118271281D01*
X180541537Y-118252647D01*
X180518360Y-118231640D01*
X180497353Y-118208463D01*
X180478719Y-118183338D01*
X180462638Y-118156508D01*
X180449263Y-118128230D01*
X180438725Y-118098778D01*
X180431125Y-118068435D01*
X180426535Y-118037493D01*
X180425000Y-118006250D01*
X180425000Y-117293750D01*
X180426535Y-117262507D01*
X180431125Y-117231565D01*
X180438725Y-117201222D01*
X180449263Y-117171770D01*
X180462638Y-117143492D01*
X180478719Y-117116662D01*
X180497353Y-117091537D01*
X180518360Y-117068360D01*
X180541537Y-117047353D01*
X180566662Y-117028719D01*
X180593492Y-117012638D01*
X180621770Y-116999263D01*
X180651222Y-116988725D01*
X180681565Y-116981125D01*
X180712507Y-116976535D01*
X180743750Y-116975000D01*
X181381250Y-116975000D01*
X181412493Y-116976535D01*
X181412493Y-116976535D01*
G37*
D13*
X181062500Y-117650000D03*
D12*
G36*
X188612493Y-118126535D02*
G01*
X188643435Y-118131125D01*
X188673778Y-118138725D01*
X188703230Y-118149263D01*
X188731508Y-118162638D01*
X188758338Y-118178719D01*
X188783463Y-118197353D01*
X188806640Y-118218360D01*
X188827647Y-118241537D01*
X188846281Y-118266662D01*
X188862362Y-118293492D01*
X188875737Y-118321770D01*
X188886275Y-118351222D01*
X188893875Y-118381565D01*
X188898465Y-118412507D01*
X188900000Y-118443750D01*
X188900000Y-119156250D01*
X188898465Y-119187493D01*
X188893875Y-119218435D01*
X188886275Y-119248778D01*
X188875737Y-119278230D01*
X188862362Y-119306508D01*
X188846281Y-119333338D01*
X188827647Y-119358463D01*
X188806640Y-119381640D01*
X188783463Y-119402647D01*
X188758338Y-119421281D01*
X188731508Y-119437362D01*
X188703230Y-119450737D01*
X188673778Y-119461275D01*
X188643435Y-119468875D01*
X188612493Y-119473465D01*
X188581250Y-119475000D01*
X187943750Y-119475000D01*
X187912507Y-119473465D01*
X187881565Y-119468875D01*
X187851222Y-119461275D01*
X187821770Y-119450737D01*
X187793492Y-119437362D01*
X187766662Y-119421281D01*
X187741537Y-119402647D01*
X187718360Y-119381640D01*
X187697353Y-119358463D01*
X187678719Y-119333338D01*
X187662638Y-119306508D01*
X187649263Y-119278230D01*
X187638725Y-119248778D01*
X187631125Y-119218435D01*
X187626535Y-119187493D01*
X187625000Y-119156250D01*
X187625000Y-118443750D01*
X187626535Y-118412507D01*
X187631125Y-118381565D01*
X187638725Y-118351222D01*
X187649263Y-118321770D01*
X187662638Y-118293492D01*
X187678719Y-118266662D01*
X187697353Y-118241537D01*
X187718360Y-118218360D01*
X187741537Y-118197353D01*
X187766662Y-118178719D01*
X187793492Y-118162638D01*
X187821770Y-118149263D01*
X187851222Y-118138725D01*
X187881565Y-118131125D01*
X187912507Y-118126535D01*
X187943750Y-118125000D01*
X188581250Y-118125000D01*
X188612493Y-118126535D01*
X188612493Y-118126535D01*
G37*
D13*
X188262500Y-118800000D03*
D12*
G36*
X190187493Y-118126535D02*
G01*
X190218435Y-118131125D01*
X190248778Y-118138725D01*
X190278230Y-118149263D01*
X190306508Y-118162638D01*
X190333338Y-118178719D01*
X190358463Y-118197353D01*
X190381640Y-118218360D01*
X190402647Y-118241537D01*
X190421281Y-118266662D01*
X190437362Y-118293492D01*
X190450737Y-118321770D01*
X190461275Y-118351222D01*
X190468875Y-118381565D01*
X190473465Y-118412507D01*
X190475000Y-118443750D01*
X190475000Y-119156250D01*
X190473465Y-119187493D01*
X190468875Y-119218435D01*
X190461275Y-119248778D01*
X190450737Y-119278230D01*
X190437362Y-119306508D01*
X190421281Y-119333338D01*
X190402647Y-119358463D01*
X190381640Y-119381640D01*
X190358463Y-119402647D01*
X190333338Y-119421281D01*
X190306508Y-119437362D01*
X190278230Y-119450737D01*
X190248778Y-119461275D01*
X190218435Y-119468875D01*
X190187493Y-119473465D01*
X190156250Y-119475000D01*
X189518750Y-119475000D01*
X189487507Y-119473465D01*
X189456565Y-119468875D01*
X189426222Y-119461275D01*
X189396770Y-119450737D01*
X189368492Y-119437362D01*
X189341662Y-119421281D01*
X189316537Y-119402647D01*
X189293360Y-119381640D01*
X189272353Y-119358463D01*
X189253719Y-119333338D01*
X189237638Y-119306508D01*
X189224263Y-119278230D01*
X189213725Y-119248778D01*
X189206125Y-119218435D01*
X189201535Y-119187493D01*
X189200000Y-119156250D01*
X189200000Y-118443750D01*
X189201535Y-118412507D01*
X189206125Y-118381565D01*
X189213725Y-118351222D01*
X189224263Y-118321770D01*
X189237638Y-118293492D01*
X189253719Y-118266662D01*
X189272353Y-118241537D01*
X189293360Y-118218360D01*
X189316537Y-118197353D01*
X189341662Y-118178719D01*
X189368492Y-118162638D01*
X189396770Y-118149263D01*
X189426222Y-118138725D01*
X189456565Y-118131125D01*
X189487507Y-118126535D01*
X189518750Y-118125000D01*
X190156250Y-118125000D01*
X190187493Y-118126535D01*
X190187493Y-118126535D01*
G37*
D13*
X189837500Y-118800000D03*
D12*
G36*
X186887493Y-118126535D02*
G01*
X186918435Y-118131125D01*
X186948778Y-118138725D01*
X186978230Y-118149263D01*
X187006508Y-118162638D01*
X187033338Y-118178719D01*
X187058463Y-118197353D01*
X187081640Y-118218360D01*
X187102647Y-118241537D01*
X187121281Y-118266662D01*
X187137362Y-118293492D01*
X187150737Y-118321770D01*
X187161275Y-118351222D01*
X187168875Y-118381565D01*
X187173465Y-118412507D01*
X187175000Y-118443750D01*
X187175000Y-119156250D01*
X187173465Y-119187493D01*
X187168875Y-119218435D01*
X187161275Y-119248778D01*
X187150737Y-119278230D01*
X187137362Y-119306508D01*
X187121281Y-119333338D01*
X187102647Y-119358463D01*
X187081640Y-119381640D01*
X187058463Y-119402647D01*
X187033338Y-119421281D01*
X187006508Y-119437362D01*
X186978230Y-119450737D01*
X186948778Y-119461275D01*
X186918435Y-119468875D01*
X186887493Y-119473465D01*
X186856250Y-119475000D01*
X186218750Y-119475000D01*
X186187507Y-119473465D01*
X186156565Y-119468875D01*
X186126222Y-119461275D01*
X186096770Y-119450737D01*
X186068492Y-119437362D01*
X186041662Y-119421281D01*
X186016537Y-119402647D01*
X185993360Y-119381640D01*
X185972353Y-119358463D01*
X185953719Y-119333338D01*
X185937638Y-119306508D01*
X185924263Y-119278230D01*
X185913725Y-119248778D01*
X185906125Y-119218435D01*
X185901535Y-119187493D01*
X185900000Y-119156250D01*
X185900000Y-118443750D01*
X185901535Y-118412507D01*
X185906125Y-118381565D01*
X185913725Y-118351222D01*
X185924263Y-118321770D01*
X185937638Y-118293492D01*
X185953719Y-118266662D01*
X185972353Y-118241537D01*
X185993360Y-118218360D01*
X186016537Y-118197353D01*
X186041662Y-118178719D01*
X186068492Y-118162638D01*
X186096770Y-118149263D01*
X186126222Y-118138725D01*
X186156565Y-118131125D01*
X186187507Y-118126535D01*
X186218750Y-118125000D01*
X186856250Y-118125000D01*
X186887493Y-118126535D01*
X186887493Y-118126535D01*
G37*
D13*
X186537500Y-118800000D03*
D12*
G36*
X185312493Y-118126535D02*
G01*
X185343435Y-118131125D01*
X185373778Y-118138725D01*
X185403230Y-118149263D01*
X185431508Y-118162638D01*
X185458338Y-118178719D01*
X185483463Y-118197353D01*
X185506640Y-118218360D01*
X185527647Y-118241537D01*
X185546281Y-118266662D01*
X185562362Y-118293492D01*
X185575737Y-118321770D01*
X185586275Y-118351222D01*
X185593875Y-118381565D01*
X185598465Y-118412507D01*
X185600000Y-118443750D01*
X185600000Y-119156250D01*
X185598465Y-119187493D01*
X185593875Y-119218435D01*
X185586275Y-119248778D01*
X185575737Y-119278230D01*
X185562362Y-119306508D01*
X185546281Y-119333338D01*
X185527647Y-119358463D01*
X185506640Y-119381640D01*
X185483463Y-119402647D01*
X185458338Y-119421281D01*
X185431508Y-119437362D01*
X185403230Y-119450737D01*
X185373778Y-119461275D01*
X185343435Y-119468875D01*
X185312493Y-119473465D01*
X185281250Y-119475000D01*
X184643750Y-119475000D01*
X184612507Y-119473465D01*
X184581565Y-119468875D01*
X184551222Y-119461275D01*
X184521770Y-119450737D01*
X184493492Y-119437362D01*
X184466662Y-119421281D01*
X184441537Y-119402647D01*
X184418360Y-119381640D01*
X184397353Y-119358463D01*
X184378719Y-119333338D01*
X184362638Y-119306508D01*
X184349263Y-119278230D01*
X184338725Y-119248778D01*
X184331125Y-119218435D01*
X184326535Y-119187493D01*
X184325000Y-119156250D01*
X184325000Y-118443750D01*
X184326535Y-118412507D01*
X184331125Y-118381565D01*
X184338725Y-118351222D01*
X184349263Y-118321770D01*
X184362638Y-118293492D01*
X184378719Y-118266662D01*
X184397353Y-118241537D01*
X184418360Y-118218360D01*
X184441537Y-118197353D01*
X184466662Y-118178719D01*
X184493492Y-118162638D01*
X184521770Y-118149263D01*
X184551222Y-118138725D01*
X184581565Y-118131125D01*
X184612507Y-118126535D01*
X184643750Y-118125000D01*
X185281250Y-118125000D01*
X185312493Y-118126535D01*
X185312493Y-118126535D01*
G37*
D13*
X184962500Y-118800000D03*
D12*
G36*
X181412493Y-118726535D02*
G01*
X181443435Y-118731125D01*
X181473778Y-118738725D01*
X181503230Y-118749263D01*
X181531508Y-118762638D01*
X181558338Y-118778719D01*
X181583463Y-118797353D01*
X181606640Y-118818360D01*
X181627647Y-118841537D01*
X181646281Y-118866662D01*
X181662362Y-118893492D01*
X181675737Y-118921770D01*
X181686275Y-118951222D01*
X181693875Y-118981565D01*
X181698465Y-119012507D01*
X181700000Y-119043750D01*
X181700000Y-119756250D01*
X181698465Y-119787493D01*
X181693875Y-119818435D01*
X181686275Y-119848778D01*
X181675737Y-119878230D01*
X181662362Y-119906508D01*
X181646281Y-119933338D01*
X181627647Y-119958463D01*
X181606640Y-119981640D01*
X181583463Y-120002647D01*
X181558338Y-120021281D01*
X181531508Y-120037362D01*
X181503230Y-120050737D01*
X181473778Y-120061275D01*
X181443435Y-120068875D01*
X181412493Y-120073465D01*
X181381250Y-120075000D01*
X180743750Y-120075000D01*
X180712507Y-120073465D01*
X180681565Y-120068875D01*
X180651222Y-120061275D01*
X180621770Y-120050737D01*
X180593492Y-120037362D01*
X180566662Y-120021281D01*
X180541537Y-120002647D01*
X180518360Y-119981640D01*
X180497353Y-119958463D01*
X180478719Y-119933338D01*
X180462638Y-119906508D01*
X180449263Y-119878230D01*
X180438725Y-119848778D01*
X180431125Y-119818435D01*
X180426535Y-119787493D01*
X180425000Y-119756250D01*
X180425000Y-119043750D01*
X180426535Y-119012507D01*
X180431125Y-118981565D01*
X180438725Y-118951222D01*
X180449263Y-118921770D01*
X180462638Y-118893492D01*
X180478719Y-118866662D01*
X180497353Y-118841537D01*
X180518360Y-118818360D01*
X180541537Y-118797353D01*
X180566662Y-118778719D01*
X180593492Y-118762638D01*
X180621770Y-118749263D01*
X180651222Y-118738725D01*
X180681565Y-118731125D01*
X180712507Y-118726535D01*
X180743750Y-118725000D01*
X181381250Y-118725000D01*
X181412493Y-118726535D01*
X181412493Y-118726535D01*
G37*
D13*
X181062500Y-119400000D03*
D12*
G36*
X182987493Y-118726535D02*
G01*
X183018435Y-118731125D01*
X183048778Y-118738725D01*
X183078230Y-118749263D01*
X183106508Y-118762638D01*
X183133338Y-118778719D01*
X183158463Y-118797353D01*
X183181640Y-118818360D01*
X183202647Y-118841537D01*
X183221281Y-118866662D01*
X183237362Y-118893492D01*
X183250737Y-118921770D01*
X183261275Y-118951222D01*
X183268875Y-118981565D01*
X183273465Y-119012507D01*
X183275000Y-119043750D01*
X183275000Y-119756250D01*
X183273465Y-119787493D01*
X183268875Y-119818435D01*
X183261275Y-119848778D01*
X183250737Y-119878230D01*
X183237362Y-119906508D01*
X183221281Y-119933338D01*
X183202647Y-119958463D01*
X183181640Y-119981640D01*
X183158463Y-120002647D01*
X183133338Y-120021281D01*
X183106508Y-120037362D01*
X183078230Y-120050737D01*
X183048778Y-120061275D01*
X183018435Y-120068875D01*
X182987493Y-120073465D01*
X182956250Y-120075000D01*
X182318750Y-120075000D01*
X182287507Y-120073465D01*
X182256565Y-120068875D01*
X182226222Y-120061275D01*
X182196770Y-120050737D01*
X182168492Y-120037362D01*
X182141662Y-120021281D01*
X182116537Y-120002647D01*
X182093360Y-119981640D01*
X182072353Y-119958463D01*
X182053719Y-119933338D01*
X182037638Y-119906508D01*
X182024263Y-119878230D01*
X182013725Y-119848778D01*
X182006125Y-119818435D01*
X182001535Y-119787493D01*
X182000000Y-119756250D01*
X182000000Y-119043750D01*
X182001535Y-119012507D01*
X182006125Y-118981565D01*
X182013725Y-118951222D01*
X182024263Y-118921770D01*
X182037638Y-118893492D01*
X182053719Y-118866662D01*
X182072353Y-118841537D01*
X182093360Y-118818360D01*
X182116537Y-118797353D01*
X182141662Y-118778719D01*
X182168492Y-118762638D01*
X182196770Y-118749263D01*
X182226222Y-118738725D01*
X182256565Y-118731125D01*
X182287507Y-118726535D01*
X182318750Y-118725000D01*
X182956250Y-118725000D01*
X182987493Y-118726535D01*
X182987493Y-118726535D01*
G37*
D13*
X182637500Y-119400000D03*
D12*
G36*
X197737493Y-119826535D02*
G01*
X197768435Y-119831125D01*
X197798778Y-119838725D01*
X197828230Y-119849263D01*
X197856508Y-119862638D01*
X197883338Y-119878719D01*
X197908463Y-119897353D01*
X197931640Y-119918360D01*
X197952647Y-119941537D01*
X197971281Y-119966662D01*
X197987362Y-119993492D01*
X198000737Y-120021770D01*
X198011275Y-120051222D01*
X198018875Y-120081565D01*
X198023465Y-120112507D01*
X198025000Y-120143750D01*
X198025000Y-120856250D01*
X198023465Y-120887493D01*
X198018875Y-120918435D01*
X198011275Y-120948778D01*
X198000737Y-120978230D01*
X197987362Y-121006508D01*
X197971281Y-121033338D01*
X197952647Y-121058463D01*
X197931640Y-121081640D01*
X197908463Y-121102647D01*
X197883338Y-121121281D01*
X197856508Y-121137362D01*
X197828230Y-121150737D01*
X197798778Y-121161275D01*
X197768435Y-121168875D01*
X197737493Y-121173465D01*
X197706250Y-121175000D01*
X197068750Y-121175000D01*
X197037507Y-121173465D01*
X197006565Y-121168875D01*
X196976222Y-121161275D01*
X196946770Y-121150737D01*
X196918492Y-121137362D01*
X196891662Y-121121281D01*
X196866537Y-121102647D01*
X196843360Y-121081640D01*
X196822353Y-121058463D01*
X196803719Y-121033338D01*
X196787638Y-121006508D01*
X196774263Y-120978230D01*
X196763725Y-120948778D01*
X196756125Y-120918435D01*
X196751535Y-120887493D01*
X196750000Y-120856250D01*
X196750000Y-120143750D01*
X196751535Y-120112507D01*
X196756125Y-120081565D01*
X196763725Y-120051222D01*
X196774263Y-120021770D01*
X196787638Y-119993492D01*
X196803719Y-119966662D01*
X196822353Y-119941537D01*
X196843360Y-119918360D01*
X196866537Y-119897353D01*
X196891662Y-119878719D01*
X196918492Y-119862638D01*
X196946770Y-119849263D01*
X196976222Y-119838725D01*
X197006565Y-119831125D01*
X197037507Y-119826535D01*
X197068750Y-119825000D01*
X197706250Y-119825000D01*
X197737493Y-119826535D01*
X197737493Y-119826535D01*
G37*
D13*
X197387500Y-120500000D03*
D12*
G36*
X196162493Y-119826535D02*
G01*
X196193435Y-119831125D01*
X196223778Y-119838725D01*
X196253230Y-119849263D01*
X196281508Y-119862638D01*
X196308338Y-119878719D01*
X196333463Y-119897353D01*
X196356640Y-119918360D01*
X196377647Y-119941537D01*
X196396281Y-119966662D01*
X196412362Y-119993492D01*
X196425737Y-120021770D01*
X196436275Y-120051222D01*
X196443875Y-120081565D01*
X196448465Y-120112507D01*
X196450000Y-120143750D01*
X196450000Y-120856250D01*
X196448465Y-120887493D01*
X196443875Y-120918435D01*
X196436275Y-120948778D01*
X196425737Y-120978230D01*
X196412362Y-121006508D01*
X196396281Y-121033338D01*
X196377647Y-121058463D01*
X196356640Y-121081640D01*
X196333463Y-121102647D01*
X196308338Y-121121281D01*
X196281508Y-121137362D01*
X196253230Y-121150737D01*
X196223778Y-121161275D01*
X196193435Y-121168875D01*
X196162493Y-121173465D01*
X196131250Y-121175000D01*
X195493750Y-121175000D01*
X195462507Y-121173465D01*
X195431565Y-121168875D01*
X195401222Y-121161275D01*
X195371770Y-121150737D01*
X195343492Y-121137362D01*
X195316662Y-121121281D01*
X195291537Y-121102647D01*
X195268360Y-121081640D01*
X195247353Y-121058463D01*
X195228719Y-121033338D01*
X195212638Y-121006508D01*
X195199263Y-120978230D01*
X195188725Y-120948778D01*
X195181125Y-120918435D01*
X195176535Y-120887493D01*
X195175000Y-120856250D01*
X195175000Y-120143750D01*
X195176535Y-120112507D01*
X195181125Y-120081565D01*
X195188725Y-120051222D01*
X195199263Y-120021770D01*
X195212638Y-119993492D01*
X195228719Y-119966662D01*
X195247353Y-119941537D01*
X195268360Y-119918360D01*
X195291537Y-119897353D01*
X195316662Y-119878719D01*
X195343492Y-119862638D01*
X195371770Y-119849263D01*
X195401222Y-119838725D01*
X195431565Y-119831125D01*
X195462507Y-119826535D01*
X195493750Y-119825000D01*
X196131250Y-119825000D01*
X196162493Y-119826535D01*
X196162493Y-119826535D01*
G37*
D13*
X195812500Y-120500000D03*
D12*
G36*
X192862493Y-119826535D02*
G01*
X192893435Y-119831125D01*
X192923778Y-119838725D01*
X192953230Y-119849263D01*
X192981508Y-119862638D01*
X193008338Y-119878719D01*
X193033463Y-119897353D01*
X193056640Y-119918360D01*
X193077647Y-119941537D01*
X193096281Y-119966662D01*
X193112362Y-119993492D01*
X193125737Y-120021770D01*
X193136275Y-120051222D01*
X193143875Y-120081565D01*
X193148465Y-120112507D01*
X193150000Y-120143750D01*
X193150000Y-120856250D01*
X193148465Y-120887493D01*
X193143875Y-120918435D01*
X193136275Y-120948778D01*
X193125737Y-120978230D01*
X193112362Y-121006508D01*
X193096281Y-121033338D01*
X193077647Y-121058463D01*
X193056640Y-121081640D01*
X193033463Y-121102647D01*
X193008338Y-121121281D01*
X192981508Y-121137362D01*
X192953230Y-121150737D01*
X192923778Y-121161275D01*
X192893435Y-121168875D01*
X192862493Y-121173465D01*
X192831250Y-121175000D01*
X192193750Y-121175000D01*
X192162507Y-121173465D01*
X192131565Y-121168875D01*
X192101222Y-121161275D01*
X192071770Y-121150737D01*
X192043492Y-121137362D01*
X192016662Y-121121281D01*
X191991537Y-121102647D01*
X191968360Y-121081640D01*
X191947353Y-121058463D01*
X191928719Y-121033338D01*
X191912638Y-121006508D01*
X191899263Y-120978230D01*
X191888725Y-120948778D01*
X191881125Y-120918435D01*
X191876535Y-120887493D01*
X191875000Y-120856250D01*
X191875000Y-120143750D01*
X191876535Y-120112507D01*
X191881125Y-120081565D01*
X191888725Y-120051222D01*
X191899263Y-120021770D01*
X191912638Y-119993492D01*
X191928719Y-119966662D01*
X191947353Y-119941537D01*
X191968360Y-119918360D01*
X191991537Y-119897353D01*
X192016662Y-119878719D01*
X192043492Y-119862638D01*
X192071770Y-119849263D01*
X192101222Y-119838725D01*
X192131565Y-119831125D01*
X192162507Y-119826535D01*
X192193750Y-119825000D01*
X192831250Y-119825000D01*
X192862493Y-119826535D01*
X192862493Y-119826535D01*
G37*
D13*
X192512500Y-120500000D03*
D12*
G36*
X194437493Y-119826535D02*
G01*
X194468435Y-119831125D01*
X194498778Y-119838725D01*
X194528230Y-119849263D01*
X194556508Y-119862638D01*
X194583338Y-119878719D01*
X194608463Y-119897353D01*
X194631640Y-119918360D01*
X194652647Y-119941537D01*
X194671281Y-119966662D01*
X194687362Y-119993492D01*
X194700737Y-120021770D01*
X194711275Y-120051222D01*
X194718875Y-120081565D01*
X194723465Y-120112507D01*
X194725000Y-120143750D01*
X194725000Y-120856250D01*
X194723465Y-120887493D01*
X194718875Y-120918435D01*
X194711275Y-120948778D01*
X194700737Y-120978230D01*
X194687362Y-121006508D01*
X194671281Y-121033338D01*
X194652647Y-121058463D01*
X194631640Y-121081640D01*
X194608463Y-121102647D01*
X194583338Y-121121281D01*
X194556508Y-121137362D01*
X194528230Y-121150737D01*
X194498778Y-121161275D01*
X194468435Y-121168875D01*
X194437493Y-121173465D01*
X194406250Y-121175000D01*
X193768750Y-121175000D01*
X193737507Y-121173465D01*
X193706565Y-121168875D01*
X193676222Y-121161275D01*
X193646770Y-121150737D01*
X193618492Y-121137362D01*
X193591662Y-121121281D01*
X193566537Y-121102647D01*
X193543360Y-121081640D01*
X193522353Y-121058463D01*
X193503719Y-121033338D01*
X193487638Y-121006508D01*
X193474263Y-120978230D01*
X193463725Y-120948778D01*
X193456125Y-120918435D01*
X193451535Y-120887493D01*
X193450000Y-120856250D01*
X193450000Y-120143750D01*
X193451535Y-120112507D01*
X193456125Y-120081565D01*
X193463725Y-120051222D01*
X193474263Y-120021770D01*
X193487638Y-119993492D01*
X193503719Y-119966662D01*
X193522353Y-119941537D01*
X193543360Y-119918360D01*
X193566537Y-119897353D01*
X193591662Y-119878719D01*
X193618492Y-119862638D01*
X193646770Y-119849263D01*
X193676222Y-119838725D01*
X193706565Y-119831125D01*
X193737507Y-119826535D01*
X193768750Y-119825000D01*
X194406250Y-119825000D01*
X194437493Y-119826535D01*
X194437493Y-119826535D01*
G37*
D13*
X194087500Y-120500000D03*
D12*
G36*
X193062493Y-124526535D02*
G01*
X193093435Y-124531125D01*
X193123778Y-124538725D01*
X193153230Y-124549263D01*
X193181508Y-124562638D01*
X193208338Y-124578719D01*
X193233463Y-124597353D01*
X193256640Y-124618360D01*
X193277647Y-124641537D01*
X193296281Y-124666662D01*
X193312362Y-124693492D01*
X193325737Y-124721770D01*
X193336275Y-124751222D01*
X193343875Y-124781565D01*
X193348465Y-124812507D01*
X193350000Y-124843750D01*
X193350000Y-125556250D01*
X193348465Y-125587493D01*
X193343875Y-125618435D01*
X193336275Y-125648778D01*
X193325737Y-125678230D01*
X193312362Y-125706508D01*
X193296281Y-125733338D01*
X193277647Y-125758463D01*
X193256640Y-125781640D01*
X193233463Y-125802647D01*
X193208338Y-125821281D01*
X193181508Y-125837362D01*
X193153230Y-125850737D01*
X193123778Y-125861275D01*
X193093435Y-125868875D01*
X193062493Y-125873465D01*
X193031250Y-125875000D01*
X192393750Y-125875000D01*
X192362507Y-125873465D01*
X192331565Y-125868875D01*
X192301222Y-125861275D01*
X192271770Y-125850737D01*
X192243492Y-125837362D01*
X192216662Y-125821281D01*
X192191537Y-125802647D01*
X192168360Y-125781640D01*
X192147353Y-125758463D01*
X192128719Y-125733338D01*
X192112638Y-125706508D01*
X192099263Y-125678230D01*
X192088725Y-125648778D01*
X192081125Y-125618435D01*
X192076535Y-125587493D01*
X192075000Y-125556250D01*
X192075000Y-124843750D01*
X192076535Y-124812507D01*
X192081125Y-124781565D01*
X192088725Y-124751222D01*
X192099263Y-124721770D01*
X192112638Y-124693492D01*
X192128719Y-124666662D01*
X192147353Y-124641537D01*
X192168360Y-124618360D01*
X192191537Y-124597353D01*
X192216662Y-124578719D01*
X192243492Y-124562638D01*
X192271770Y-124549263D01*
X192301222Y-124538725D01*
X192331565Y-124531125D01*
X192362507Y-124526535D01*
X192393750Y-124525000D01*
X193031250Y-124525000D01*
X193062493Y-124526535D01*
X193062493Y-124526535D01*
G37*
D13*
X192712500Y-125200000D03*
D12*
G36*
X194637493Y-124526535D02*
G01*
X194668435Y-124531125D01*
X194698778Y-124538725D01*
X194728230Y-124549263D01*
X194756508Y-124562638D01*
X194783338Y-124578719D01*
X194808463Y-124597353D01*
X194831640Y-124618360D01*
X194852647Y-124641537D01*
X194871281Y-124666662D01*
X194887362Y-124693492D01*
X194900737Y-124721770D01*
X194911275Y-124751222D01*
X194918875Y-124781565D01*
X194923465Y-124812507D01*
X194925000Y-124843750D01*
X194925000Y-125556250D01*
X194923465Y-125587493D01*
X194918875Y-125618435D01*
X194911275Y-125648778D01*
X194900737Y-125678230D01*
X194887362Y-125706508D01*
X194871281Y-125733338D01*
X194852647Y-125758463D01*
X194831640Y-125781640D01*
X194808463Y-125802647D01*
X194783338Y-125821281D01*
X194756508Y-125837362D01*
X194728230Y-125850737D01*
X194698778Y-125861275D01*
X194668435Y-125868875D01*
X194637493Y-125873465D01*
X194606250Y-125875000D01*
X193968750Y-125875000D01*
X193937507Y-125873465D01*
X193906565Y-125868875D01*
X193876222Y-125861275D01*
X193846770Y-125850737D01*
X193818492Y-125837362D01*
X193791662Y-125821281D01*
X193766537Y-125802647D01*
X193743360Y-125781640D01*
X193722353Y-125758463D01*
X193703719Y-125733338D01*
X193687638Y-125706508D01*
X193674263Y-125678230D01*
X193663725Y-125648778D01*
X193656125Y-125618435D01*
X193651535Y-125587493D01*
X193650000Y-125556250D01*
X193650000Y-124843750D01*
X193651535Y-124812507D01*
X193656125Y-124781565D01*
X193663725Y-124751222D01*
X193674263Y-124721770D01*
X193687638Y-124693492D01*
X193703719Y-124666662D01*
X193722353Y-124641537D01*
X193743360Y-124618360D01*
X193766537Y-124597353D01*
X193791662Y-124578719D01*
X193818492Y-124562638D01*
X193846770Y-124549263D01*
X193876222Y-124538725D01*
X193906565Y-124531125D01*
X193937507Y-124526535D01*
X193968750Y-124525000D01*
X194606250Y-124525000D01*
X194637493Y-124526535D01*
X194637493Y-124526535D01*
G37*
D13*
X194287500Y-125200000D03*
D12*
G36*
X195200493Y-105076535D02*
G01*
X195231435Y-105081125D01*
X195261778Y-105088725D01*
X195291230Y-105099263D01*
X195319508Y-105112638D01*
X195346338Y-105128719D01*
X195371463Y-105147353D01*
X195394640Y-105168360D01*
X195415647Y-105191537D01*
X195434281Y-105216662D01*
X195450362Y-105243492D01*
X195463737Y-105271770D01*
X195474275Y-105301222D01*
X195481875Y-105331565D01*
X195486465Y-105362507D01*
X195488000Y-105393750D01*
X195488000Y-106106250D01*
X195486465Y-106137493D01*
X195481875Y-106168435D01*
X195474275Y-106198778D01*
X195463737Y-106228230D01*
X195450362Y-106256508D01*
X195434281Y-106283338D01*
X195415647Y-106308463D01*
X195394640Y-106331640D01*
X195371463Y-106352647D01*
X195346338Y-106371281D01*
X195319508Y-106387362D01*
X195291230Y-106400737D01*
X195261778Y-106411275D01*
X195231435Y-106418875D01*
X195200493Y-106423465D01*
X195169250Y-106425000D01*
X194531750Y-106425000D01*
X194500507Y-106423465D01*
X194469565Y-106418875D01*
X194439222Y-106411275D01*
X194409770Y-106400737D01*
X194381492Y-106387362D01*
X194354662Y-106371281D01*
X194329537Y-106352647D01*
X194306360Y-106331640D01*
X194285353Y-106308463D01*
X194266719Y-106283338D01*
X194250638Y-106256508D01*
X194237263Y-106228230D01*
X194226725Y-106198778D01*
X194219125Y-106168435D01*
X194214535Y-106137493D01*
X194213000Y-106106250D01*
X194213000Y-105393750D01*
X194214535Y-105362507D01*
X194219125Y-105331565D01*
X194226725Y-105301222D01*
X194237263Y-105271770D01*
X194250638Y-105243492D01*
X194266719Y-105216662D01*
X194285353Y-105191537D01*
X194306360Y-105168360D01*
X194329537Y-105147353D01*
X194354662Y-105128719D01*
X194381492Y-105112638D01*
X194409770Y-105099263D01*
X194439222Y-105088725D01*
X194469565Y-105081125D01*
X194500507Y-105076535D01*
X194531750Y-105075000D01*
X195169250Y-105075000D01*
X195200493Y-105076535D01*
X195200493Y-105076535D01*
G37*
D13*
X194850500Y-105750000D03*
D12*
G36*
X196775493Y-105076535D02*
G01*
X196806435Y-105081125D01*
X196836778Y-105088725D01*
X196866230Y-105099263D01*
X196894508Y-105112638D01*
X196921338Y-105128719D01*
X196946463Y-105147353D01*
X196969640Y-105168360D01*
X196990647Y-105191537D01*
X197009281Y-105216662D01*
X197025362Y-105243492D01*
X197038737Y-105271770D01*
X197049275Y-105301222D01*
X197056875Y-105331565D01*
X197061465Y-105362507D01*
X197063000Y-105393750D01*
X197063000Y-106106250D01*
X197061465Y-106137493D01*
X197056875Y-106168435D01*
X197049275Y-106198778D01*
X197038737Y-106228230D01*
X197025362Y-106256508D01*
X197009281Y-106283338D01*
X196990647Y-106308463D01*
X196969640Y-106331640D01*
X196946463Y-106352647D01*
X196921338Y-106371281D01*
X196894508Y-106387362D01*
X196866230Y-106400737D01*
X196836778Y-106411275D01*
X196806435Y-106418875D01*
X196775493Y-106423465D01*
X196744250Y-106425000D01*
X196106750Y-106425000D01*
X196075507Y-106423465D01*
X196044565Y-106418875D01*
X196014222Y-106411275D01*
X195984770Y-106400737D01*
X195956492Y-106387362D01*
X195929662Y-106371281D01*
X195904537Y-106352647D01*
X195881360Y-106331640D01*
X195860353Y-106308463D01*
X195841719Y-106283338D01*
X195825638Y-106256508D01*
X195812263Y-106228230D01*
X195801725Y-106198778D01*
X195794125Y-106168435D01*
X195789535Y-106137493D01*
X195788000Y-106106250D01*
X195788000Y-105393750D01*
X195789535Y-105362507D01*
X195794125Y-105331565D01*
X195801725Y-105301222D01*
X195812263Y-105271770D01*
X195825638Y-105243492D01*
X195841719Y-105216662D01*
X195860353Y-105191537D01*
X195881360Y-105168360D01*
X195904537Y-105147353D01*
X195929662Y-105128719D01*
X195956492Y-105112638D01*
X195984770Y-105099263D01*
X196014222Y-105088725D01*
X196044565Y-105081125D01*
X196075507Y-105076535D01*
X196106750Y-105075000D01*
X196744250Y-105075000D01*
X196775493Y-105076535D01*
X196775493Y-105076535D01*
G37*
D13*
X196425500Y-105750000D03*
D12*
G36*
X190974493Y-97426535D02*
G01*
X191005435Y-97431125D01*
X191035778Y-97438725D01*
X191065230Y-97449263D01*
X191093508Y-97462638D01*
X191120338Y-97478719D01*
X191145463Y-97497353D01*
X191168640Y-97518360D01*
X191189647Y-97541537D01*
X191208281Y-97566662D01*
X191224362Y-97593492D01*
X191237737Y-97621770D01*
X191248275Y-97651222D01*
X191255875Y-97681565D01*
X191260465Y-97712507D01*
X191262000Y-97743750D01*
X191262000Y-98456250D01*
X191260465Y-98487493D01*
X191255875Y-98518435D01*
X191248275Y-98548778D01*
X191237737Y-98578230D01*
X191224362Y-98606508D01*
X191208281Y-98633338D01*
X191189647Y-98658463D01*
X191168640Y-98681640D01*
X191145463Y-98702647D01*
X191120338Y-98721281D01*
X191093508Y-98737362D01*
X191065230Y-98750737D01*
X191035778Y-98761275D01*
X191005435Y-98768875D01*
X190974493Y-98773465D01*
X190943250Y-98775000D01*
X190305750Y-98775000D01*
X190274507Y-98773465D01*
X190243565Y-98768875D01*
X190213222Y-98761275D01*
X190183770Y-98750737D01*
X190155492Y-98737362D01*
X190128662Y-98721281D01*
X190103537Y-98702647D01*
X190080360Y-98681640D01*
X190059353Y-98658463D01*
X190040719Y-98633338D01*
X190024638Y-98606508D01*
X190011263Y-98578230D01*
X190000725Y-98548778D01*
X189993125Y-98518435D01*
X189988535Y-98487493D01*
X189987000Y-98456250D01*
X189987000Y-97743750D01*
X189988535Y-97712507D01*
X189993125Y-97681565D01*
X190000725Y-97651222D01*
X190011263Y-97621770D01*
X190024638Y-97593492D01*
X190040719Y-97566662D01*
X190059353Y-97541537D01*
X190080360Y-97518360D01*
X190103537Y-97497353D01*
X190128662Y-97478719D01*
X190155492Y-97462638D01*
X190183770Y-97449263D01*
X190213222Y-97438725D01*
X190243565Y-97431125D01*
X190274507Y-97426535D01*
X190305750Y-97425000D01*
X190943250Y-97425000D01*
X190974493Y-97426535D01*
X190974493Y-97426535D01*
G37*
D13*
X190624500Y-98100000D03*
D12*
G36*
X192549493Y-97426535D02*
G01*
X192580435Y-97431125D01*
X192610778Y-97438725D01*
X192640230Y-97449263D01*
X192668508Y-97462638D01*
X192695338Y-97478719D01*
X192720463Y-97497353D01*
X192743640Y-97518360D01*
X192764647Y-97541537D01*
X192783281Y-97566662D01*
X192799362Y-97593492D01*
X192812737Y-97621770D01*
X192823275Y-97651222D01*
X192830875Y-97681565D01*
X192835465Y-97712507D01*
X192837000Y-97743750D01*
X192837000Y-98456250D01*
X192835465Y-98487493D01*
X192830875Y-98518435D01*
X192823275Y-98548778D01*
X192812737Y-98578230D01*
X192799362Y-98606508D01*
X192783281Y-98633338D01*
X192764647Y-98658463D01*
X192743640Y-98681640D01*
X192720463Y-98702647D01*
X192695338Y-98721281D01*
X192668508Y-98737362D01*
X192640230Y-98750737D01*
X192610778Y-98761275D01*
X192580435Y-98768875D01*
X192549493Y-98773465D01*
X192518250Y-98775000D01*
X191880750Y-98775000D01*
X191849507Y-98773465D01*
X191818565Y-98768875D01*
X191788222Y-98761275D01*
X191758770Y-98750737D01*
X191730492Y-98737362D01*
X191703662Y-98721281D01*
X191678537Y-98702647D01*
X191655360Y-98681640D01*
X191634353Y-98658463D01*
X191615719Y-98633338D01*
X191599638Y-98606508D01*
X191586263Y-98578230D01*
X191575725Y-98548778D01*
X191568125Y-98518435D01*
X191563535Y-98487493D01*
X191562000Y-98456250D01*
X191562000Y-97743750D01*
X191563535Y-97712507D01*
X191568125Y-97681565D01*
X191575725Y-97651222D01*
X191586263Y-97621770D01*
X191599638Y-97593492D01*
X191615719Y-97566662D01*
X191634353Y-97541537D01*
X191655360Y-97518360D01*
X191678537Y-97497353D01*
X191703662Y-97478719D01*
X191730492Y-97462638D01*
X191758770Y-97449263D01*
X191788222Y-97438725D01*
X191818565Y-97431125D01*
X191849507Y-97426535D01*
X191880750Y-97425000D01*
X192518250Y-97425000D01*
X192549493Y-97426535D01*
X192549493Y-97426535D01*
G37*
D13*
X192199500Y-98100000D03*
D14*
X193600000Y-102100000D03*
X185100000Y-102100000D03*
D15*
X196700000Y-125200000D03*
D16*
X196775000Y-108650000D03*
X196125000Y-108650000D03*
X195475000Y-108650000D03*
X194825000Y-108650000D03*
X194175000Y-108650000D03*
X193525000Y-108650000D03*
X192875000Y-108650000D03*
X192225000Y-108650000D03*
X191575000Y-108650000D03*
X190925000Y-108650000D03*
X190275000Y-108650000D03*
X189625000Y-108650000D03*
X189625000Y-114350000D03*
X190275000Y-114350000D03*
X190925000Y-114350000D03*
X191575000Y-114350000D03*
X192225000Y-114350000D03*
X192875000Y-114350000D03*
X193525000Y-114350000D03*
X194175000Y-114350000D03*
X194825000Y-114350000D03*
X195475000Y-114350000D03*
X196125000Y-114350000D03*
X196775000Y-114350000D03*
D17*
X201400000Y-116000000D03*
D18*
X201400000Y-113230000D03*
X201400000Y-110460000D03*
X201400000Y-107690000D03*
X201400000Y-104920000D03*
X204240000Y-114615000D03*
X204240000Y-111845000D03*
X204240000Y-109075000D03*
X204240000Y-106305000D03*
D19*
X202820000Y-122960000D03*
X202820000Y-97960000D03*
M02*
