G04 #@! TF.GenerationSoftware,KiCad,Pcbnew,(5.1.2)-1*
G04 #@! TF.CreationDate,2019-11-04T01:50:09+09:00*
G04 #@! TF.ProjectId,IR,49522e6b-6963-4616-945f-706362585858,v1.1*
G04 #@! TF.SameCoordinates,Original*
G04 #@! TF.FileFunction,Copper,L1,Top*
G04 #@! TF.FilePolarity,Positive*
%FSLAX46Y46*%
G04 Gerber Fmt 4.6, Leading zero omitted, Abs format (unit mm)*
G04 Created by KiCad (PCBNEW (5.1.2)-1) date 2019-11-04 01:50:09*
%MOMM*%
%LPD*%
G04 APERTURE LIST*
%ADD10O,1.800000X1.524000*%
%ADD11C,0.050000*%
%ADD12C,0.875000*%
%ADD13R,4.500000X2.000000*%
%ADD14C,1.000000*%
%ADD15R,0.400000X1.100000*%
%ADD16R,1.600000X1.600000*%
%ADD17C,1.600000*%
%ADD18C,4.000000*%
%ADD19C,0.800000*%
%ADD20C,0.350000*%
%ADD21C,0.254000*%
G04 APERTURE END LIST*
D10*
X185200000Y-114000000D03*
X185200000Y-112000000D03*
X185200000Y-110000000D03*
X185200000Y-108000000D03*
D11*
G36*
X192865691Y-105276053D02*
G01*
X192886926Y-105279203D01*
X192907750Y-105284419D01*
X192927962Y-105291651D01*
X192947368Y-105300830D01*
X192965781Y-105311866D01*
X192983024Y-105324654D01*
X192998930Y-105339070D01*
X193013346Y-105354976D01*
X193026134Y-105372219D01*
X193037170Y-105390632D01*
X193046349Y-105410038D01*
X193053581Y-105430250D01*
X193058797Y-105451074D01*
X193061947Y-105472309D01*
X193063000Y-105493750D01*
X193063000Y-106006250D01*
X193061947Y-106027691D01*
X193058797Y-106048926D01*
X193053581Y-106069750D01*
X193046349Y-106089962D01*
X193037170Y-106109368D01*
X193026134Y-106127781D01*
X193013346Y-106145024D01*
X192998930Y-106160930D01*
X192983024Y-106175346D01*
X192965781Y-106188134D01*
X192947368Y-106199170D01*
X192927962Y-106208349D01*
X192907750Y-106215581D01*
X192886926Y-106220797D01*
X192865691Y-106223947D01*
X192844250Y-106225000D01*
X192406750Y-106225000D01*
X192385309Y-106223947D01*
X192364074Y-106220797D01*
X192343250Y-106215581D01*
X192323038Y-106208349D01*
X192303632Y-106199170D01*
X192285219Y-106188134D01*
X192267976Y-106175346D01*
X192252070Y-106160930D01*
X192237654Y-106145024D01*
X192224866Y-106127781D01*
X192213830Y-106109368D01*
X192204651Y-106089962D01*
X192197419Y-106069750D01*
X192192203Y-106048926D01*
X192189053Y-106027691D01*
X192188000Y-106006250D01*
X192188000Y-105493750D01*
X192189053Y-105472309D01*
X192192203Y-105451074D01*
X192197419Y-105430250D01*
X192204651Y-105410038D01*
X192213830Y-105390632D01*
X192224866Y-105372219D01*
X192237654Y-105354976D01*
X192252070Y-105339070D01*
X192267976Y-105324654D01*
X192285219Y-105311866D01*
X192303632Y-105300830D01*
X192323038Y-105291651D01*
X192343250Y-105284419D01*
X192364074Y-105279203D01*
X192385309Y-105276053D01*
X192406750Y-105275000D01*
X192844250Y-105275000D01*
X192865691Y-105276053D01*
X192865691Y-105276053D01*
G37*
D12*
X192625500Y-105750000D03*
D11*
G36*
X191290691Y-105276053D02*
G01*
X191311926Y-105279203D01*
X191332750Y-105284419D01*
X191352962Y-105291651D01*
X191372368Y-105300830D01*
X191390781Y-105311866D01*
X191408024Y-105324654D01*
X191423930Y-105339070D01*
X191438346Y-105354976D01*
X191451134Y-105372219D01*
X191462170Y-105390632D01*
X191471349Y-105410038D01*
X191478581Y-105430250D01*
X191483797Y-105451074D01*
X191486947Y-105472309D01*
X191488000Y-105493750D01*
X191488000Y-106006250D01*
X191486947Y-106027691D01*
X191483797Y-106048926D01*
X191478581Y-106069750D01*
X191471349Y-106089962D01*
X191462170Y-106109368D01*
X191451134Y-106127781D01*
X191438346Y-106145024D01*
X191423930Y-106160930D01*
X191408024Y-106175346D01*
X191390781Y-106188134D01*
X191372368Y-106199170D01*
X191352962Y-106208349D01*
X191332750Y-106215581D01*
X191311926Y-106220797D01*
X191290691Y-106223947D01*
X191269250Y-106225000D01*
X190831750Y-106225000D01*
X190810309Y-106223947D01*
X190789074Y-106220797D01*
X190768250Y-106215581D01*
X190748038Y-106208349D01*
X190728632Y-106199170D01*
X190710219Y-106188134D01*
X190692976Y-106175346D01*
X190677070Y-106160930D01*
X190662654Y-106145024D01*
X190649866Y-106127781D01*
X190638830Y-106109368D01*
X190629651Y-106089962D01*
X190622419Y-106069750D01*
X190617203Y-106048926D01*
X190614053Y-106027691D01*
X190613000Y-106006250D01*
X190613000Y-105493750D01*
X190614053Y-105472309D01*
X190617203Y-105451074D01*
X190622419Y-105430250D01*
X190629651Y-105410038D01*
X190638830Y-105390632D01*
X190649866Y-105372219D01*
X190662654Y-105354976D01*
X190677070Y-105339070D01*
X190692976Y-105324654D01*
X190710219Y-105311866D01*
X190728632Y-105300830D01*
X190748038Y-105291651D01*
X190768250Y-105284419D01*
X190789074Y-105279203D01*
X190810309Y-105276053D01*
X190831750Y-105275000D01*
X191269250Y-105275000D01*
X191290691Y-105276053D01*
X191290691Y-105276053D01*
G37*
D12*
X191050500Y-105750000D03*
D11*
G36*
X197477691Y-101988053D02*
G01*
X197498926Y-101991203D01*
X197519750Y-101996419D01*
X197539962Y-102003651D01*
X197559368Y-102012830D01*
X197577781Y-102023866D01*
X197595024Y-102036654D01*
X197610930Y-102051070D01*
X197625346Y-102066976D01*
X197638134Y-102084219D01*
X197649170Y-102102632D01*
X197658349Y-102122038D01*
X197665581Y-102142250D01*
X197670797Y-102163074D01*
X197673947Y-102184309D01*
X197675000Y-102205750D01*
X197675000Y-102643250D01*
X197673947Y-102664691D01*
X197670797Y-102685926D01*
X197665581Y-102706750D01*
X197658349Y-102726962D01*
X197649170Y-102746368D01*
X197638134Y-102764781D01*
X197625346Y-102782024D01*
X197610930Y-102797930D01*
X197595024Y-102812346D01*
X197577781Y-102825134D01*
X197559368Y-102836170D01*
X197539962Y-102845349D01*
X197519750Y-102852581D01*
X197498926Y-102857797D01*
X197477691Y-102860947D01*
X197456250Y-102862000D01*
X196943750Y-102862000D01*
X196922309Y-102860947D01*
X196901074Y-102857797D01*
X196880250Y-102852581D01*
X196860038Y-102845349D01*
X196840632Y-102836170D01*
X196822219Y-102825134D01*
X196804976Y-102812346D01*
X196789070Y-102797930D01*
X196774654Y-102782024D01*
X196761866Y-102764781D01*
X196750830Y-102746368D01*
X196741651Y-102726962D01*
X196734419Y-102706750D01*
X196729203Y-102685926D01*
X196726053Y-102664691D01*
X196725000Y-102643250D01*
X196725000Y-102205750D01*
X196726053Y-102184309D01*
X196729203Y-102163074D01*
X196734419Y-102142250D01*
X196741651Y-102122038D01*
X196750830Y-102102632D01*
X196761866Y-102084219D01*
X196774654Y-102066976D01*
X196789070Y-102051070D01*
X196804976Y-102036654D01*
X196822219Y-102023866D01*
X196840632Y-102012830D01*
X196860038Y-102003651D01*
X196880250Y-101996419D01*
X196901074Y-101991203D01*
X196922309Y-101988053D01*
X196943750Y-101987000D01*
X197456250Y-101987000D01*
X197477691Y-101988053D01*
X197477691Y-101988053D01*
G37*
D12*
X197200000Y-102424500D03*
D11*
G36*
X197477691Y-103563053D02*
G01*
X197498926Y-103566203D01*
X197519750Y-103571419D01*
X197539962Y-103578651D01*
X197559368Y-103587830D01*
X197577781Y-103598866D01*
X197595024Y-103611654D01*
X197610930Y-103626070D01*
X197625346Y-103641976D01*
X197638134Y-103659219D01*
X197649170Y-103677632D01*
X197658349Y-103697038D01*
X197665581Y-103717250D01*
X197670797Y-103738074D01*
X197673947Y-103759309D01*
X197675000Y-103780750D01*
X197675000Y-104218250D01*
X197673947Y-104239691D01*
X197670797Y-104260926D01*
X197665581Y-104281750D01*
X197658349Y-104301962D01*
X197649170Y-104321368D01*
X197638134Y-104339781D01*
X197625346Y-104357024D01*
X197610930Y-104372930D01*
X197595024Y-104387346D01*
X197577781Y-104400134D01*
X197559368Y-104411170D01*
X197539962Y-104420349D01*
X197519750Y-104427581D01*
X197498926Y-104432797D01*
X197477691Y-104435947D01*
X197456250Y-104437000D01*
X196943750Y-104437000D01*
X196922309Y-104435947D01*
X196901074Y-104432797D01*
X196880250Y-104427581D01*
X196860038Y-104420349D01*
X196840632Y-104411170D01*
X196822219Y-104400134D01*
X196804976Y-104387346D01*
X196789070Y-104372930D01*
X196774654Y-104357024D01*
X196761866Y-104339781D01*
X196750830Y-104321368D01*
X196741651Y-104301962D01*
X196734419Y-104281750D01*
X196729203Y-104260926D01*
X196726053Y-104239691D01*
X196725000Y-104218250D01*
X196725000Y-103780750D01*
X196726053Y-103759309D01*
X196729203Y-103738074D01*
X196734419Y-103717250D01*
X196741651Y-103697038D01*
X196750830Y-103677632D01*
X196761866Y-103659219D01*
X196774654Y-103641976D01*
X196789070Y-103626070D01*
X196804976Y-103611654D01*
X196822219Y-103598866D01*
X196840632Y-103587830D01*
X196860038Y-103578651D01*
X196880250Y-103571419D01*
X196901074Y-103566203D01*
X196922309Y-103563053D01*
X196943750Y-103562000D01*
X197456250Y-103562000D01*
X197477691Y-103563053D01*
X197477691Y-103563053D01*
G37*
D12*
X197200000Y-103999500D03*
D11*
G36*
X181877691Y-103563053D02*
G01*
X181898926Y-103566203D01*
X181919750Y-103571419D01*
X181939962Y-103578651D01*
X181959368Y-103587830D01*
X181977781Y-103598866D01*
X181995024Y-103611654D01*
X182010930Y-103626070D01*
X182025346Y-103641976D01*
X182038134Y-103659219D01*
X182049170Y-103677632D01*
X182058349Y-103697038D01*
X182065581Y-103717250D01*
X182070797Y-103738074D01*
X182073947Y-103759309D01*
X182075000Y-103780750D01*
X182075000Y-104218250D01*
X182073947Y-104239691D01*
X182070797Y-104260926D01*
X182065581Y-104281750D01*
X182058349Y-104301962D01*
X182049170Y-104321368D01*
X182038134Y-104339781D01*
X182025346Y-104357024D01*
X182010930Y-104372930D01*
X181995024Y-104387346D01*
X181977781Y-104400134D01*
X181959368Y-104411170D01*
X181939962Y-104420349D01*
X181919750Y-104427581D01*
X181898926Y-104432797D01*
X181877691Y-104435947D01*
X181856250Y-104437000D01*
X181343750Y-104437000D01*
X181322309Y-104435947D01*
X181301074Y-104432797D01*
X181280250Y-104427581D01*
X181260038Y-104420349D01*
X181240632Y-104411170D01*
X181222219Y-104400134D01*
X181204976Y-104387346D01*
X181189070Y-104372930D01*
X181174654Y-104357024D01*
X181161866Y-104339781D01*
X181150830Y-104321368D01*
X181141651Y-104301962D01*
X181134419Y-104281750D01*
X181129203Y-104260926D01*
X181126053Y-104239691D01*
X181125000Y-104218250D01*
X181125000Y-103780750D01*
X181126053Y-103759309D01*
X181129203Y-103738074D01*
X181134419Y-103717250D01*
X181141651Y-103697038D01*
X181150830Y-103677632D01*
X181161866Y-103659219D01*
X181174654Y-103641976D01*
X181189070Y-103626070D01*
X181204976Y-103611654D01*
X181222219Y-103598866D01*
X181240632Y-103587830D01*
X181260038Y-103578651D01*
X181280250Y-103571419D01*
X181301074Y-103566203D01*
X181322309Y-103563053D01*
X181343750Y-103562000D01*
X181856250Y-103562000D01*
X181877691Y-103563053D01*
X181877691Y-103563053D01*
G37*
D12*
X181600000Y-103999500D03*
D11*
G36*
X181877691Y-101988053D02*
G01*
X181898926Y-101991203D01*
X181919750Y-101996419D01*
X181939962Y-102003651D01*
X181959368Y-102012830D01*
X181977781Y-102023866D01*
X181995024Y-102036654D01*
X182010930Y-102051070D01*
X182025346Y-102066976D01*
X182038134Y-102084219D01*
X182049170Y-102102632D01*
X182058349Y-102122038D01*
X182065581Y-102142250D01*
X182070797Y-102163074D01*
X182073947Y-102184309D01*
X182075000Y-102205750D01*
X182075000Y-102643250D01*
X182073947Y-102664691D01*
X182070797Y-102685926D01*
X182065581Y-102706750D01*
X182058349Y-102726962D01*
X182049170Y-102746368D01*
X182038134Y-102764781D01*
X182025346Y-102782024D01*
X182010930Y-102797930D01*
X181995024Y-102812346D01*
X181977781Y-102825134D01*
X181959368Y-102836170D01*
X181939962Y-102845349D01*
X181919750Y-102852581D01*
X181898926Y-102857797D01*
X181877691Y-102860947D01*
X181856250Y-102862000D01*
X181343750Y-102862000D01*
X181322309Y-102860947D01*
X181301074Y-102857797D01*
X181280250Y-102852581D01*
X181260038Y-102845349D01*
X181240632Y-102836170D01*
X181222219Y-102825134D01*
X181204976Y-102812346D01*
X181189070Y-102797930D01*
X181174654Y-102782024D01*
X181161866Y-102764781D01*
X181150830Y-102746368D01*
X181141651Y-102726962D01*
X181134419Y-102706750D01*
X181129203Y-102685926D01*
X181126053Y-102664691D01*
X181125000Y-102643250D01*
X181125000Y-102205750D01*
X181126053Y-102184309D01*
X181129203Y-102163074D01*
X181134419Y-102142250D01*
X181141651Y-102122038D01*
X181150830Y-102102632D01*
X181161866Y-102084219D01*
X181174654Y-102066976D01*
X181189070Y-102051070D01*
X181204976Y-102036654D01*
X181222219Y-102023866D01*
X181240632Y-102012830D01*
X181260038Y-102003651D01*
X181280250Y-101996419D01*
X181301074Y-101991203D01*
X181322309Y-101988053D01*
X181343750Y-101987000D01*
X181856250Y-101987000D01*
X181877691Y-101988053D01*
X181877691Y-101988053D01*
G37*
D12*
X181600000Y-102424500D03*
D11*
G36*
X187227691Y-97626053D02*
G01*
X187248926Y-97629203D01*
X187269750Y-97634419D01*
X187289962Y-97641651D01*
X187309368Y-97650830D01*
X187327781Y-97661866D01*
X187345024Y-97674654D01*
X187360930Y-97689070D01*
X187375346Y-97704976D01*
X187388134Y-97722219D01*
X187399170Y-97740632D01*
X187408349Y-97760038D01*
X187415581Y-97780250D01*
X187420797Y-97801074D01*
X187423947Y-97822309D01*
X187425000Y-97843750D01*
X187425000Y-98356250D01*
X187423947Y-98377691D01*
X187420797Y-98398926D01*
X187415581Y-98419750D01*
X187408349Y-98439962D01*
X187399170Y-98459368D01*
X187388134Y-98477781D01*
X187375346Y-98495024D01*
X187360930Y-98510930D01*
X187345024Y-98525346D01*
X187327781Y-98538134D01*
X187309368Y-98549170D01*
X187289962Y-98558349D01*
X187269750Y-98565581D01*
X187248926Y-98570797D01*
X187227691Y-98573947D01*
X187206250Y-98575000D01*
X186768750Y-98575000D01*
X186747309Y-98573947D01*
X186726074Y-98570797D01*
X186705250Y-98565581D01*
X186685038Y-98558349D01*
X186665632Y-98549170D01*
X186647219Y-98538134D01*
X186629976Y-98525346D01*
X186614070Y-98510930D01*
X186599654Y-98495024D01*
X186586866Y-98477781D01*
X186575830Y-98459368D01*
X186566651Y-98439962D01*
X186559419Y-98419750D01*
X186554203Y-98398926D01*
X186551053Y-98377691D01*
X186550000Y-98356250D01*
X186550000Y-97843750D01*
X186551053Y-97822309D01*
X186554203Y-97801074D01*
X186559419Y-97780250D01*
X186566651Y-97760038D01*
X186575830Y-97740632D01*
X186586866Y-97722219D01*
X186599654Y-97704976D01*
X186614070Y-97689070D01*
X186629976Y-97674654D01*
X186647219Y-97661866D01*
X186665632Y-97650830D01*
X186685038Y-97641651D01*
X186705250Y-97634419D01*
X186726074Y-97629203D01*
X186747309Y-97626053D01*
X186768750Y-97625000D01*
X187206250Y-97625000D01*
X187227691Y-97626053D01*
X187227691Y-97626053D01*
G37*
D12*
X186987500Y-98100000D03*
D11*
G36*
X185652691Y-97626053D02*
G01*
X185673926Y-97629203D01*
X185694750Y-97634419D01*
X185714962Y-97641651D01*
X185734368Y-97650830D01*
X185752781Y-97661866D01*
X185770024Y-97674654D01*
X185785930Y-97689070D01*
X185800346Y-97704976D01*
X185813134Y-97722219D01*
X185824170Y-97740632D01*
X185833349Y-97760038D01*
X185840581Y-97780250D01*
X185845797Y-97801074D01*
X185848947Y-97822309D01*
X185850000Y-97843750D01*
X185850000Y-98356250D01*
X185848947Y-98377691D01*
X185845797Y-98398926D01*
X185840581Y-98419750D01*
X185833349Y-98439962D01*
X185824170Y-98459368D01*
X185813134Y-98477781D01*
X185800346Y-98495024D01*
X185785930Y-98510930D01*
X185770024Y-98525346D01*
X185752781Y-98538134D01*
X185734368Y-98549170D01*
X185714962Y-98558349D01*
X185694750Y-98565581D01*
X185673926Y-98570797D01*
X185652691Y-98573947D01*
X185631250Y-98575000D01*
X185193750Y-98575000D01*
X185172309Y-98573947D01*
X185151074Y-98570797D01*
X185130250Y-98565581D01*
X185110038Y-98558349D01*
X185090632Y-98549170D01*
X185072219Y-98538134D01*
X185054976Y-98525346D01*
X185039070Y-98510930D01*
X185024654Y-98495024D01*
X185011866Y-98477781D01*
X185000830Y-98459368D01*
X184991651Y-98439962D01*
X184984419Y-98419750D01*
X184979203Y-98398926D01*
X184976053Y-98377691D01*
X184975000Y-98356250D01*
X184975000Y-97843750D01*
X184976053Y-97822309D01*
X184979203Y-97801074D01*
X184984419Y-97780250D01*
X184991651Y-97760038D01*
X185000830Y-97740632D01*
X185011866Y-97722219D01*
X185024654Y-97704976D01*
X185039070Y-97689070D01*
X185054976Y-97674654D01*
X185072219Y-97661866D01*
X185090632Y-97650830D01*
X185110038Y-97641651D01*
X185130250Y-97634419D01*
X185151074Y-97629203D01*
X185172309Y-97626053D01*
X185193750Y-97625000D01*
X185631250Y-97625000D01*
X185652691Y-97626053D01*
X185652691Y-97626053D01*
G37*
D12*
X185412500Y-98100000D03*
D11*
G36*
X188502691Y-120026053D02*
G01*
X188523926Y-120029203D01*
X188544750Y-120034419D01*
X188564962Y-120041651D01*
X188584368Y-120050830D01*
X188602781Y-120061866D01*
X188620024Y-120074654D01*
X188635930Y-120089070D01*
X188650346Y-120104976D01*
X188663134Y-120122219D01*
X188674170Y-120140632D01*
X188683349Y-120160038D01*
X188690581Y-120180250D01*
X188695797Y-120201074D01*
X188698947Y-120222309D01*
X188700000Y-120243750D01*
X188700000Y-120756250D01*
X188698947Y-120777691D01*
X188695797Y-120798926D01*
X188690581Y-120819750D01*
X188683349Y-120839962D01*
X188674170Y-120859368D01*
X188663134Y-120877781D01*
X188650346Y-120895024D01*
X188635930Y-120910930D01*
X188620024Y-120925346D01*
X188602781Y-120938134D01*
X188584368Y-120949170D01*
X188564962Y-120958349D01*
X188544750Y-120965581D01*
X188523926Y-120970797D01*
X188502691Y-120973947D01*
X188481250Y-120975000D01*
X188043750Y-120975000D01*
X188022309Y-120973947D01*
X188001074Y-120970797D01*
X187980250Y-120965581D01*
X187960038Y-120958349D01*
X187940632Y-120949170D01*
X187922219Y-120938134D01*
X187904976Y-120925346D01*
X187889070Y-120910930D01*
X187874654Y-120895024D01*
X187861866Y-120877781D01*
X187850830Y-120859368D01*
X187841651Y-120839962D01*
X187834419Y-120819750D01*
X187829203Y-120798926D01*
X187826053Y-120777691D01*
X187825000Y-120756250D01*
X187825000Y-120243750D01*
X187826053Y-120222309D01*
X187829203Y-120201074D01*
X187834419Y-120180250D01*
X187841651Y-120160038D01*
X187850830Y-120140632D01*
X187861866Y-120122219D01*
X187874654Y-120104976D01*
X187889070Y-120089070D01*
X187904976Y-120074654D01*
X187922219Y-120061866D01*
X187940632Y-120050830D01*
X187960038Y-120041651D01*
X187980250Y-120034419D01*
X188001074Y-120029203D01*
X188022309Y-120026053D01*
X188043750Y-120025000D01*
X188481250Y-120025000D01*
X188502691Y-120026053D01*
X188502691Y-120026053D01*
G37*
D12*
X188262500Y-120500000D03*
D11*
G36*
X190077691Y-120026053D02*
G01*
X190098926Y-120029203D01*
X190119750Y-120034419D01*
X190139962Y-120041651D01*
X190159368Y-120050830D01*
X190177781Y-120061866D01*
X190195024Y-120074654D01*
X190210930Y-120089070D01*
X190225346Y-120104976D01*
X190238134Y-120122219D01*
X190249170Y-120140632D01*
X190258349Y-120160038D01*
X190265581Y-120180250D01*
X190270797Y-120201074D01*
X190273947Y-120222309D01*
X190275000Y-120243750D01*
X190275000Y-120756250D01*
X190273947Y-120777691D01*
X190270797Y-120798926D01*
X190265581Y-120819750D01*
X190258349Y-120839962D01*
X190249170Y-120859368D01*
X190238134Y-120877781D01*
X190225346Y-120895024D01*
X190210930Y-120910930D01*
X190195024Y-120925346D01*
X190177781Y-120938134D01*
X190159368Y-120949170D01*
X190139962Y-120958349D01*
X190119750Y-120965581D01*
X190098926Y-120970797D01*
X190077691Y-120973947D01*
X190056250Y-120975000D01*
X189618750Y-120975000D01*
X189597309Y-120973947D01*
X189576074Y-120970797D01*
X189555250Y-120965581D01*
X189535038Y-120958349D01*
X189515632Y-120949170D01*
X189497219Y-120938134D01*
X189479976Y-120925346D01*
X189464070Y-120910930D01*
X189449654Y-120895024D01*
X189436866Y-120877781D01*
X189425830Y-120859368D01*
X189416651Y-120839962D01*
X189409419Y-120819750D01*
X189404203Y-120798926D01*
X189401053Y-120777691D01*
X189400000Y-120756250D01*
X189400000Y-120243750D01*
X189401053Y-120222309D01*
X189404203Y-120201074D01*
X189409419Y-120180250D01*
X189416651Y-120160038D01*
X189425830Y-120140632D01*
X189436866Y-120122219D01*
X189449654Y-120104976D01*
X189464070Y-120089070D01*
X189479976Y-120074654D01*
X189497219Y-120061866D01*
X189515632Y-120050830D01*
X189535038Y-120041651D01*
X189555250Y-120034419D01*
X189576074Y-120029203D01*
X189597309Y-120026053D01*
X189618750Y-120025000D01*
X190056250Y-120025000D01*
X190077691Y-120026053D01*
X190077691Y-120026053D01*
G37*
D12*
X189837500Y-120500000D03*
D11*
G36*
X186777691Y-120026053D02*
G01*
X186798926Y-120029203D01*
X186819750Y-120034419D01*
X186839962Y-120041651D01*
X186859368Y-120050830D01*
X186877781Y-120061866D01*
X186895024Y-120074654D01*
X186910930Y-120089070D01*
X186925346Y-120104976D01*
X186938134Y-120122219D01*
X186949170Y-120140632D01*
X186958349Y-120160038D01*
X186965581Y-120180250D01*
X186970797Y-120201074D01*
X186973947Y-120222309D01*
X186975000Y-120243750D01*
X186975000Y-120756250D01*
X186973947Y-120777691D01*
X186970797Y-120798926D01*
X186965581Y-120819750D01*
X186958349Y-120839962D01*
X186949170Y-120859368D01*
X186938134Y-120877781D01*
X186925346Y-120895024D01*
X186910930Y-120910930D01*
X186895024Y-120925346D01*
X186877781Y-120938134D01*
X186859368Y-120949170D01*
X186839962Y-120958349D01*
X186819750Y-120965581D01*
X186798926Y-120970797D01*
X186777691Y-120973947D01*
X186756250Y-120975000D01*
X186318750Y-120975000D01*
X186297309Y-120973947D01*
X186276074Y-120970797D01*
X186255250Y-120965581D01*
X186235038Y-120958349D01*
X186215632Y-120949170D01*
X186197219Y-120938134D01*
X186179976Y-120925346D01*
X186164070Y-120910930D01*
X186149654Y-120895024D01*
X186136866Y-120877781D01*
X186125830Y-120859368D01*
X186116651Y-120839962D01*
X186109419Y-120819750D01*
X186104203Y-120798926D01*
X186101053Y-120777691D01*
X186100000Y-120756250D01*
X186100000Y-120243750D01*
X186101053Y-120222309D01*
X186104203Y-120201074D01*
X186109419Y-120180250D01*
X186116651Y-120160038D01*
X186125830Y-120140632D01*
X186136866Y-120122219D01*
X186149654Y-120104976D01*
X186164070Y-120089070D01*
X186179976Y-120074654D01*
X186197219Y-120061866D01*
X186215632Y-120050830D01*
X186235038Y-120041651D01*
X186255250Y-120034419D01*
X186276074Y-120029203D01*
X186297309Y-120026053D01*
X186318750Y-120025000D01*
X186756250Y-120025000D01*
X186777691Y-120026053D01*
X186777691Y-120026053D01*
G37*
D12*
X186537500Y-120500000D03*
D11*
G36*
X185202691Y-120026053D02*
G01*
X185223926Y-120029203D01*
X185244750Y-120034419D01*
X185264962Y-120041651D01*
X185284368Y-120050830D01*
X185302781Y-120061866D01*
X185320024Y-120074654D01*
X185335930Y-120089070D01*
X185350346Y-120104976D01*
X185363134Y-120122219D01*
X185374170Y-120140632D01*
X185383349Y-120160038D01*
X185390581Y-120180250D01*
X185395797Y-120201074D01*
X185398947Y-120222309D01*
X185400000Y-120243750D01*
X185400000Y-120756250D01*
X185398947Y-120777691D01*
X185395797Y-120798926D01*
X185390581Y-120819750D01*
X185383349Y-120839962D01*
X185374170Y-120859368D01*
X185363134Y-120877781D01*
X185350346Y-120895024D01*
X185335930Y-120910930D01*
X185320024Y-120925346D01*
X185302781Y-120938134D01*
X185284368Y-120949170D01*
X185264962Y-120958349D01*
X185244750Y-120965581D01*
X185223926Y-120970797D01*
X185202691Y-120973947D01*
X185181250Y-120975000D01*
X184743750Y-120975000D01*
X184722309Y-120973947D01*
X184701074Y-120970797D01*
X184680250Y-120965581D01*
X184660038Y-120958349D01*
X184640632Y-120949170D01*
X184622219Y-120938134D01*
X184604976Y-120925346D01*
X184589070Y-120910930D01*
X184574654Y-120895024D01*
X184561866Y-120877781D01*
X184550830Y-120859368D01*
X184541651Y-120839962D01*
X184534419Y-120819750D01*
X184529203Y-120798926D01*
X184526053Y-120777691D01*
X184525000Y-120756250D01*
X184525000Y-120243750D01*
X184526053Y-120222309D01*
X184529203Y-120201074D01*
X184534419Y-120180250D01*
X184541651Y-120160038D01*
X184550830Y-120140632D01*
X184561866Y-120122219D01*
X184574654Y-120104976D01*
X184589070Y-120089070D01*
X184604976Y-120074654D01*
X184622219Y-120061866D01*
X184640632Y-120050830D01*
X184660038Y-120041651D01*
X184680250Y-120034419D01*
X184701074Y-120029203D01*
X184722309Y-120026053D01*
X184743750Y-120025000D01*
X185181250Y-120025000D01*
X185202691Y-120026053D01*
X185202691Y-120026053D01*
G37*
D12*
X184962500Y-120500000D03*
D11*
G36*
X197627691Y-118326053D02*
G01*
X197648926Y-118329203D01*
X197669750Y-118334419D01*
X197689962Y-118341651D01*
X197709368Y-118350830D01*
X197727781Y-118361866D01*
X197745024Y-118374654D01*
X197760930Y-118389070D01*
X197775346Y-118404976D01*
X197788134Y-118422219D01*
X197799170Y-118440632D01*
X197808349Y-118460038D01*
X197815581Y-118480250D01*
X197820797Y-118501074D01*
X197823947Y-118522309D01*
X197825000Y-118543750D01*
X197825000Y-119056250D01*
X197823947Y-119077691D01*
X197820797Y-119098926D01*
X197815581Y-119119750D01*
X197808349Y-119139962D01*
X197799170Y-119159368D01*
X197788134Y-119177781D01*
X197775346Y-119195024D01*
X197760930Y-119210930D01*
X197745024Y-119225346D01*
X197727781Y-119238134D01*
X197709368Y-119249170D01*
X197689962Y-119258349D01*
X197669750Y-119265581D01*
X197648926Y-119270797D01*
X197627691Y-119273947D01*
X197606250Y-119275000D01*
X197168750Y-119275000D01*
X197147309Y-119273947D01*
X197126074Y-119270797D01*
X197105250Y-119265581D01*
X197085038Y-119258349D01*
X197065632Y-119249170D01*
X197047219Y-119238134D01*
X197029976Y-119225346D01*
X197014070Y-119210930D01*
X196999654Y-119195024D01*
X196986866Y-119177781D01*
X196975830Y-119159368D01*
X196966651Y-119139962D01*
X196959419Y-119119750D01*
X196954203Y-119098926D01*
X196951053Y-119077691D01*
X196950000Y-119056250D01*
X196950000Y-118543750D01*
X196951053Y-118522309D01*
X196954203Y-118501074D01*
X196959419Y-118480250D01*
X196966651Y-118460038D01*
X196975830Y-118440632D01*
X196986866Y-118422219D01*
X196999654Y-118404976D01*
X197014070Y-118389070D01*
X197029976Y-118374654D01*
X197047219Y-118361866D01*
X197065632Y-118350830D01*
X197085038Y-118341651D01*
X197105250Y-118334419D01*
X197126074Y-118329203D01*
X197147309Y-118326053D01*
X197168750Y-118325000D01*
X197606250Y-118325000D01*
X197627691Y-118326053D01*
X197627691Y-118326053D01*
G37*
D12*
X197387500Y-118800000D03*
D11*
G36*
X196052691Y-118326053D02*
G01*
X196073926Y-118329203D01*
X196094750Y-118334419D01*
X196114962Y-118341651D01*
X196134368Y-118350830D01*
X196152781Y-118361866D01*
X196170024Y-118374654D01*
X196185930Y-118389070D01*
X196200346Y-118404976D01*
X196213134Y-118422219D01*
X196224170Y-118440632D01*
X196233349Y-118460038D01*
X196240581Y-118480250D01*
X196245797Y-118501074D01*
X196248947Y-118522309D01*
X196250000Y-118543750D01*
X196250000Y-119056250D01*
X196248947Y-119077691D01*
X196245797Y-119098926D01*
X196240581Y-119119750D01*
X196233349Y-119139962D01*
X196224170Y-119159368D01*
X196213134Y-119177781D01*
X196200346Y-119195024D01*
X196185930Y-119210930D01*
X196170024Y-119225346D01*
X196152781Y-119238134D01*
X196134368Y-119249170D01*
X196114962Y-119258349D01*
X196094750Y-119265581D01*
X196073926Y-119270797D01*
X196052691Y-119273947D01*
X196031250Y-119275000D01*
X195593750Y-119275000D01*
X195572309Y-119273947D01*
X195551074Y-119270797D01*
X195530250Y-119265581D01*
X195510038Y-119258349D01*
X195490632Y-119249170D01*
X195472219Y-119238134D01*
X195454976Y-119225346D01*
X195439070Y-119210930D01*
X195424654Y-119195024D01*
X195411866Y-119177781D01*
X195400830Y-119159368D01*
X195391651Y-119139962D01*
X195384419Y-119119750D01*
X195379203Y-119098926D01*
X195376053Y-119077691D01*
X195375000Y-119056250D01*
X195375000Y-118543750D01*
X195376053Y-118522309D01*
X195379203Y-118501074D01*
X195384419Y-118480250D01*
X195391651Y-118460038D01*
X195400830Y-118440632D01*
X195411866Y-118422219D01*
X195424654Y-118404976D01*
X195439070Y-118389070D01*
X195454976Y-118374654D01*
X195472219Y-118361866D01*
X195490632Y-118350830D01*
X195510038Y-118341651D01*
X195530250Y-118334419D01*
X195551074Y-118329203D01*
X195572309Y-118326053D01*
X195593750Y-118325000D01*
X196031250Y-118325000D01*
X196052691Y-118326053D01*
X196052691Y-118326053D01*
G37*
D12*
X195812500Y-118800000D03*
D11*
G36*
X192752691Y-118326053D02*
G01*
X192773926Y-118329203D01*
X192794750Y-118334419D01*
X192814962Y-118341651D01*
X192834368Y-118350830D01*
X192852781Y-118361866D01*
X192870024Y-118374654D01*
X192885930Y-118389070D01*
X192900346Y-118404976D01*
X192913134Y-118422219D01*
X192924170Y-118440632D01*
X192933349Y-118460038D01*
X192940581Y-118480250D01*
X192945797Y-118501074D01*
X192948947Y-118522309D01*
X192950000Y-118543750D01*
X192950000Y-119056250D01*
X192948947Y-119077691D01*
X192945797Y-119098926D01*
X192940581Y-119119750D01*
X192933349Y-119139962D01*
X192924170Y-119159368D01*
X192913134Y-119177781D01*
X192900346Y-119195024D01*
X192885930Y-119210930D01*
X192870024Y-119225346D01*
X192852781Y-119238134D01*
X192834368Y-119249170D01*
X192814962Y-119258349D01*
X192794750Y-119265581D01*
X192773926Y-119270797D01*
X192752691Y-119273947D01*
X192731250Y-119275000D01*
X192293750Y-119275000D01*
X192272309Y-119273947D01*
X192251074Y-119270797D01*
X192230250Y-119265581D01*
X192210038Y-119258349D01*
X192190632Y-119249170D01*
X192172219Y-119238134D01*
X192154976Y-119225346D01*
X192139070Y-119210930D01*
X192124654Y-119195024D01*
X192111866Y-119177781D01*
X192100830Y-119159368D01*
X192091651Y-119139962D01*
X192084419Y-119119750D01*
X192079203Y-119098926D01*
X192076053Y-119077691D01*
X192075000Y-119056250D01*
X192075000Y-118543750D01*
X192076053Y-118522309D01*
X192079203Y-118501074D01*
X192084419Y-118480250D01*
X192091651Y-118460038D01*
X192100830Y-118440632D01*
X192111866Y-118422219D01*
X192124654Y-118404976D01*
X192139070Y-118389070D01*
X192154976Y-118374654D01*
X192172219Y-118361866D01*
X192190632Y-118350830D01*
X192210038Y-118341651D01*
X192230250Y-118334419D01*
X192251074Y-118329203D01*
X192272309Y-118326053D01*
X192293750Y-118325000D01*
X192731250Y-118325000D01*
X192752691Y-118326053D01*
X192752691Y-118326053D01*
G37*
D12*
X192512500Y-118800000D03*
D11*
G36*
X194327691Y-118326053D02*
G01*
X194348926Y-118329203D01*
X194369750Y-118334419D01*
X194389962Y-118341651D01*
X194409368Y-118350830D01*
X194427781Y-118361866D01*
X194445024Y-118374654D01*
X194460930Y-118389070D01*
X194475346Y-118404976D01*
X194488134Y-118422219D01*
X194499170Y-118440632D01*
X194508349Y-118460038D01*
X194515581Y-118480250D01*
X194520797Y-118501074D01*
X194523947Y-118522309D01*
X194525000Y-118543750D01*
X194525000Y-119056250D01*
X194523947Y-119077691D01*
X194520797Y-119098926D01*
X194515581Y-119119750D01*
X194508349Y-119139962D01*
X194499170Y-119159368D01*
X194488134Y-119177781D01*
X194475346Y-119195024D01*
X194460930Y-119210930D01*
X194445024Y-119225346D01*
X194427781Y-119238134D01*
X194409368Y-119249170D01*
X194389962Y-119258349D01*
X194369750Y-119265581D01*
X194348926Y-119270797D01*
X194327691Y-119273947D01*
X194306250Y-119275000D01*
X193868750Y-119275000D01*
X193847309Y-119273947D01*
X193826074Y-119270797D01*
X193805250Y-119265581D01*
X193785038Y-119258349D01*
X193765632Y-119249170D01*
X193747219Y-119238134D01*
X193729976Y-119225346D01*
X193714070Y-119210930D01*
X193699654Y-119195024D01*
X193686866Y-119177781D01*
X193675830Y-119159368D01*
X193666651Y-119139962D01*
X193659419Y-119119750D01*
X193654203Y-119098926D01*
X193651053Y-119077691D01*
X193650000Y-119056250D01*
X193650000Y-118543750D01*
X193651053Y-118522309D01*
X193654203Y-118501074D01*
X193659419Y-118480250D01*
X193666651Y-118460038D01*
X193675830Y-118440632D01*
X193686866Y-118422219D01*
X193699654Y-118404976D01*
X193714070Y-118389070D01*
X193729976Y-118374654D01*
X193747219Y-118361866D01*
X193765632Y-118350830D01*
X193785038Y-118341651D01*
X193805250Y-118334419D01*
X193826074Y-118329203D01*
X193847309Y-118326053D01*
X193868750Y-118325000D01*
X194306250Y-118325000D01*
X194327691Y-118326053D01*
X194327691Y-118326053D01*
G37*
D12*
X194087500Y-118800000D03*
D11*
G36*
X182877691Y-117176053D02*
G01*
X182898926Y-117179203D01*
X182919750Y-117184419D01*
X182939962Y-117191651D01*
X182959368Y-117200830D01*
X182977781Y-117211866D01*
X182995024Y-117224654D01*
X183010930Y-117239070D01*
X183025346Y-117254976D01*
X183038134Y-117272219D01*
X183049170Y-117290632D01*
X183058349Y-117310038D01*
X183065581Y-117330250D01*
X183070797Y-117351074D01*
X183073947Y-117372309D01*
X183075000Y-117393750D01*
X183075000Y-117906250D01*
X183073947Y-117927691D01*
X183070797Y-117948926D01*
X183065581Y-117969750D01*
X183058349Y-117989962D01*
X183049170Y-118009368D01*
X183038134Y-118027781D01*
X183025346Y-118045024D01*
X183010930Y-118060930D01*
X182995024Y-118075346D01*
X182977781Y-118088134D01*
X182959368Y-118099170D01*
X182939962Y-118108349D01*
X182919750Y-118115581D01*
X182898926Y-118120797D01*
X182877691Y-118123947D01*
X182856250Y-118125000D01*
X182418750Y-118125000D01*
X182397309Y-118123947D01*
X182376074Y-118120797D01*
X182355250Y-118115581D01*
X182335038Y-118108349D01*
X182315632Y-118099170D01*
X182297219Y-118088134D01*
X182279976Y-118075346D01*
X182264070Y-118060930D01*
X182249654Y-118045024D01*
X182236866Y-118027781D01*
X182225830Y-118009368D01*
X182216651Y-117989962D01*
X182209419Y-117969750D01*
X182204203Y-117948926D01*
X182201053Y-117927691D01*
X182200000Y-117906250D01*
X182200000Y-117393750D01*
X182201053Y-117372309D01*
X182204203Y-117351074D01*
X182209419Y-117330250D01*
X182216651Y-117310038D01*
X182225830Y-117290632D01*
X182236866Y-117272219D01*
X182249654Y-117254976D01*
X182264070Y-117239070D01*
X182279976Y-117224654D01*
X182297219Y-117211866D01*
X182315632Y-117200830D01*
X182335038Y-117191651D01*
X182355250Y-117184419D01*
X182376074Y-117179203D01*
X182397309Y-117176053D01*
X182418750Y-117175000D01*
X182856250Y-117175000D01*
X182877691Y-117176053D01*
X182877691Y-117176053D01*
G37*
D12*
X182637500Y-117650000D03*
D11*
G36*
X181302691Y-117176053D02*
G01*
X181323926Y-117179203D01*
X181344750Y-117184419D01*
X181364962Y-117191651D01*
X181384368Y-117200830D01*
X181402781Y-117211866D01*
X181420024Y-117224654D01*
X181435930Y-117239070D01*
X181450346Y-117254976D01*
X181463134Y-117272219D01*
X181474170Y-117290632D01*
X181483349Y-117310038D01*
X181490581Y-117330250D01*
X181495797Y-117351074D01*
X181498947Y-117372309D01*
X181500000Y-117393750D01*
X181500000Y-117906250D01*
X181498947Y-117927691D01*
X181495797Y-117948926D01*
X181490581Y-117969750D01*
X181483349Y-117989962D01*
X181474170Y-118009368D01*
X181463134Y-118027781D01*
X181450346Y-118045024D01*
X181435930Y-118060930D01*
X181420024Y-118075346D01*
X181402781Y-118088134D01*
X181384368Y-118099170D01*
X181364962Y-118108349D01*
X181344750Y-118115581D01*
X181323926Y-118120797D01*
X181302691Y-118123947D01*
X181281250Y-118125000D01*
X180843750Y-118125000D01*
X180822309Y-118123947D01*
X180801074Y-118120797D01*
X180780250Y-118115581D01*
X180760038Y-118108349D01*
X180740632Y-118099170D01*
X180722219Y-118088134D01*
X180704976Y-118075346D01*
X180689070Y-118060930D01*
X180674654Y-118045024D01*
X180661866Y-118027781D01*
X180650830Y-118009368D01*
X180641651Y-117989962D01*
X180634419Y-117969750D01*
X180629203Y-117948926D01*
X180626053Y-117927691D01*
X180625000Y-117906250D01*
X180625000Y-117393750D01*
X180626053Y-117372309D01*
X180629203Y-117351074D01*
X180634419Y-117330250D01*
X180641651Y-117310038D01*
X180650830Y-117290632D01*
X180661866Y-117272219D01*
X180674654Y-117254976D01*
X180689070Y-117239070D01*
X180704976Y-117224654D01*
X180722219Y-117211866D01*
X180740632Y-117200830D01*
X180760038Y-117191651D01*
X180780250Y-117184419D01*
X180801074Y-117179203D01*
X180822309Y-117176053D01*
X180843750Y-117175000D01*
X181281250Y-117175000D01*
X181302691Y-117176053D01*
X181302691Y-117176053D01*
G37*
D12*
X181062500Y-117650000D03*
D11*
G36*
X188502691Y-118326053D02*
G01*
X188523926Y-118329203D01*
X188544750Y-118334419D01*
X188564962Y-118341651D01*
X188584368Y-118350830D01*
X188602781Y-118361866D01*
X188620024Y-118374654D01*
X188635930Y-118389070D01*
X188650346Y-118404976D01*
X188663134Y-118422219D01*
X188674170Y-118440632D01*
X188683349Y-118460038D01*
X188690581Y-118480250D01*
X188695797Y-118501074D01*
X188698947Y-118522309D01*
X188700000Y-118543750D01*
X188700000Y-119056250D01*
X188698947Y-119077691D01*
X188695797Y-119098926D01*
X188690581Y-119119750D01*
X188683349Y-119139962D01*
X188674170Y-119159368D01*
X188663134Y-119177781D01*
X188650346Y-119195024D01*
X188635930Y-119210930D01*
X188620024Y-119225346D01*
X188602781Y-119238134D01*
X188584368Y-119249170D01*
X188564962Y-119258349D01*
X188544750Y-119265581D01*
X188523926Y-119270797D01*
X188502691Y-119273947D01*
X188481250Y-119275000D01*
X188043750Y-119275000D01*
X188022309Y-119273947D01*
X188001074Y-119270797D01*
X187980250Y-119265581D01*
X187960038Y-119258349D01*
X187940632Y-119249170D01*
X187922219Y-119238134D01*
X187904976Y-119225346D01*
X187889070Y-119210930D01*
X187874654Y-119195024D01*
X187861866Y-119177781D01*
X187850830Y-119159368D01*
X187841651Y-119139962D01*
X187834419Y-119119750D01*
X187829203Y-119098926D01*
X187826053Y-119077691D01*
X187825000Y-119056250D01*
X187825000Y-118543750D01*
X187826053Y-118522309D01*
X187829203Y-118501074D01*
X187834419Y-118480250D01*
X187841651Y-118460038D01*
X187850830Y-118440632D01*
X187861866Y-118422219D01*
X187874654Y-118404976D01*
X187889070Y-118389070D01*
X187904976Y-118374654D01*
X187922219Y-118361866D01*
X187940632Y-118350830D01*
X187960038Y-118341651D01*
X187980250Y-118334419D01*
X188001074Y-118329203D01*
X188022309Y-118326053D01*
X188043750Y-118325000D01*
X188481250Y-118325000D01*
X188502691Y-118326053D01*
X188502691Y-118326053D01*
G37*
D12*
X188262500Y-118800000D03*
D11*
G36*
X190077691Y-118326053D02*
G01*
X190098926Y-118329203D01*
X190119750Y-118334419D01*
X190139962Y-118341651D01*
X190159368Y-118350830D01*
X190177781Y-118361866D01*
X190195024Y-118374654D01*
X190210930Y-118389070D01*
X190225346Y-118404976D01*
X190238134Y-118422219D01*
X190249170Y-118440632D01*
X190258349Y-118460038D01*
X190265581Y-118480250D01*
X190270797Y-118501074D01*
X190273947Y-118522309D01*
X190275000Y-118543750D01*
X190275000Y-119056250D01*
X190273947Y-119077691D01*
X190270797Y-119098926D01*
X190265581Y-119119750D01*
X190258349Y-119139962D01*
X190249170Y-119159368D01*
X190238134Y-119177781D01*
X190225346Y-119195024D01*
X190210930Y-119210930D01*
X190195024Y-119225346D01*
X190177781Y-119238134D01*
X190159368Y-119249170D01*
X190139962Y-119258349D01*
X190119750Y-119265581D01*
X190098926Y-119270797D01*
X190077691Y-119273947D01*
X190056250Y-119275000D01*
X189618750Y-119275000D01*
X189597309Y-119273947D01*
X189576074Y-119270797D01*
X189555250Y-119265581D01*
X189535038Y-119258349D01*
X189515632Y-119249170D01*
X189497219Y-119238134D01*
X189479976Y-119225346D01*
X189464070Y-119210930D01*
X189449654Y-119195024D01*
X189436866Y-119177781D01*
X189425830Y-119159368D01*
X189416651Y-119139962D01*
X189409419Y-119119750D01*
X189404203Y-119098926D01*
X189401053Y-119077691D01*
X189400000Y-119056250D01*
X189400000Y-118543750D01*
X189401053Y-118522309D01*
X189404203Y-118501074D01*
X189409419Y-118480250D01*
X189416651Y-118460038D01*
X189425830Y-118440632D01*
X189436866Y-118422219D01*
X189449654Y-118404976D01*
X189464070Y-118389070D01*
X189479976Y-118374654D01*
X189497219Y-118361866D01*
X189515632Y-118350830D01*
X189535038Y-118341651D01*
X189555250Y-118334419D01*
X189576074Y-118329203D01*
X189597309Y-118326053D01*
X189618750Y-118325000D01*
X190056250Y-118325000D01*
X190077691Y-118326053D01*
X190077691Y-118326053D01*
G37*
D12*
X189837500Y-118800000D03*
D11*
G36*
X186777691Y-118326053D02*
G01*
X186798926Y-118329203D01*
X186819750Y-118334419D01*
X186839962Y-118341651D01*
X186859368Y-118350830D01*
X186877781Y-118361866D01*
X186895024Y-118374654D01*
X186910930Y-118389070D01*
X186925346Y-118404976D01*
X186938134Y-118422219D01*
X186949170Y-118440632D01*
X186958349Y-118460038D01*
X186965581Y-118480250D01*
X186970797Y-118501074D01*
X186973947Y-118522309D01*
X186975000Y-118543750D01*
X186975000Y-119056250D01*
X186973947Y-119077691D01*
X186970797Y-119098926D01*
X186965581Y-119119750D01*
X186958349Y-119139962D01*
X186949170Y-119159368D01*
X186938134Y-119177781D01*
X186925346Y-119195024D01*
X186910930Y-119210930D01*
X186895024Y-119225346D01*
X186877781Y-119238134D01*
X186859368Y-119249170D01*
X186839962Y-119258349D01*
X186819750Y-119265581D01*
X186798926Y-119270797D01*
X186777691Y-119273947D01*
X186756250Y-119275000D01*
X186318750Y-119275000D01*
X186297309Y-119273947D01*
X186276074Y-119270797D01*
X186255250Y-119265581D01*
X186235038Y-119258349D01*
X186215632Y-119249170D01*
X186197219Y-119238134D01*
X186179976Y-119225346D01*
X186164070Y-119210930D01*
X186149654Y-119195024D01*
X186136866Y-119177781D01*
X186125830Y-119159368D01*
X186116651Y-119139962D01*
X186109419Y-119119750D01*
X186104203Y-119098926D01*
X186101053Y-119077691D01*
X186100000Y-119056250D01*
X186100000Y-118543750D01*
X186101053Y-118522309D01*
X186104203Y-118501074D01*
X186109419Y-118480250D01*
X186116651Y-118460038D01*
X186125830Y-118440632D01*
X186136866Y-118422219D01*
X186149654Y-118404976D01*
X186164070Y-118389070D01*
X186179976Y-118374654D01*
X186197219Y-118361866D01*
X186215632Y-118350830D01*
X186235038Y-118341651D01*
X186255250Y-118334419D01*
X186276074Y-118329203D01*
X186297309Y-118326053D01*
X186318750Y-118325000D01*
X186756250Y-118325000D01*
X186777691Y-118326053D01*
X186777691Y-118326053D01*
G37*
D12*
X186537500Y-118800000D03*
D11*
G36*
X185202691Y-118326053D02*
G01*
X185223926Y-118329203D01*
X185244750Y-118334419D01*
X185264962Y-118341651D01*
X185284368Y-118350830D01*
X185302781Y-118361866D01*
X185320024Y-118374654D01*
X185335930Y-118389070D01*
X185350346Y-118404976D01*
X185363134Y-118422219D01*
X185374170Y-118440632D01*
X185383349Y-118460038D01*
X185390581Y-118480250D01*
X185395797Y-118501074D01*
X185398947Y-118522309D01*
X185400000Y-118543750D01*
X185400000Y-119056250D01*
X185398947Y-119077691D01*
X185395797Y-119098926D01*
X185390581Y-119119750D01*
X185383349Y-119139962D01*
X185374170Y-119159368D01*
X185363134Y-119177781D01*
X185350346Y-119195024D01*
X185335930Y-119210930D01*
X185320024Y-119225346D01*
X185302781Y-119238134D01*
X185284368Y-119249170D01*
X185264962Y-119258349D01*
X185244750Y-119265581D01*
X185223926Y-119270797D01*
X185202691Y-119273947D01*
X185181250Y-119275000D01*
X184743750Y-119275000D01*
X184722309Y-119273947D01*
X184701074Y-119270797D01*
X184680250Y-119265581D01*
X184660038Y-119258349D01*
X184640632Y-119249170D01*
X184622219Y-119238134D01*
X184604976Y-119225346D01*
X184589070Y-119210930D01*
X184574654Y-119195024D01*
X184561866Y-119177781D01*
X184550830Y-119159368D01*
X184541651Y-119139962D01*
X184534419Y-119119750D01*
X184529203Y-119098926D01*
X184526053Y-119077691D01*
X184525000Y-119056250D01*
X184525000Y-118543750D01*
X184526053Y-118522309D01*
X184529203Y-118501074D01*
X184534419Y-118480250D01*
X184541651Y-118460038D01*
X184550830Y-118440632D01*
X184561866Y-118422219D01*
X184574654Y-118404976D01*
X184589070Y-118389070D01*
X184604976Y-118374654D01*
X184622219Y-118361866D01*
X184640632Y-118350830D01*
X184660038Y-118341651D01*
X184680250Y-118334419D01*
X184701074Y-118329203D01*
X184722309Y-118326053D01*
X184743750Y-118325000D01*
X185181250Y-118325000D01*
X185202691Y-118326053D01*
X185202691Y-118326053D01*
G37*
D12*
X184962500Y-118800000D03*
D11*
G36*
X181302691Y-118926053D02*
G01*
X181323926Y-118929203D01*
X181344750Y-118934419D01*
X181364962Y-118941651D01*
X181384368Y-118950830D01*
X181402781Y-118961866D01*
X181420024Y-118974654D01*
X181435930Y-118989070D01*
X181450346Y-119004976D01*
X181463134Y-119022219D01*
X181474170Y-119040632D01*
X181483349Y-119060038D01*
X181490581Y-119080250D01*
X181495797Y-119101074D01*
X181498947Y-119122309D01*
X181500000Y-119143750D01*
X181500000Y-119656250D01*
X181498947Y-119677691D01*
X181495797Y-119698926D01*
X181490581Y-119719750D01*
X181483349Y-119739962D01*
X181474170Y-119759368D01*
X181463134Y-119777781D01*
X181450346Y-119795024D01*
X181435930Y-119810930D01*
X181420024Y-119825346D01*
X181402781Y-119838134D01*
X181384368Y-119849170D01*
X181364962Y-119858349D01*
X181344750Y-119865581D01*
X181323926Y-119870797D01*
X181302691Y-119873947D01*
X181281250Y-119875000D01*
X180843750Y-119875000D01*
X180822309Y-119873947D01*
X180801074Y-119870797D01*
X180780250Y-119865581D01*
X180760038Y-119858349D01*
X180740632Y-119849170D01*
X180722219Y-119838134D01*
X180704976Y-119825346D01*
X180689070Y-119810930D01*
X180674654Y-119795024D01*
X180661866Y-119777781D01*
X180650830Y-119759368D01*
X180641651Y-119739962D01*
X180634419Y-119719750D01*
X180629203Y-119698926D01*
X180626053Y-119677691D01*
X180625000Y-119656250D01*
X180625000Y-119143750D01*
X180626053Y-119122309D01*
X180629203Y-119101074D01*
X180634419Y-119080250D01*
X180641651Y-119060038D01*
X180650830Y-119040632D01*
X180661866Y-119022219D01*
X180674654Y-119004976D01*
X180689070Y-118989070D01*
X180704976Y-118974654D01*
X180722219Y-118961866D01*
X180740632Y-118950830D01*
X180760038Y-118941651D01*
X180780250Y-118934419D01*
X180801074Y-118929203D01*
X180822309Y-118926053D01*
X180843750Y-118925000D01*
X181281250Y-118925000D01*
X181302691Y-118926053D01*
X181302691Y-118926053D01*
G37*
D12*
X181062500Y-119400000D03*
D11*
G36*
X182877691Y-118926053D02*
G01*
X182898926Y-118929203D01*
X182919750Y-118934419D01*
X182939962Y-118941651D01*
X182959368Y-118950830D01*
X182977781Y-118961866D01*
X182995024Y-118974654D01*
X183010930Y-118989070D01*
X183025346Y-119004976D01*
X183038134Y-119022219D01*
X183049170Y-119040632D01*
X183058349Y-119060038D01*
X183065581Y-119080250D01*
X183070797Y-119101074D01*
X183073947Y-119122309D01*
X183075000Y-119143750D01*
X183075000Y-119656250D01*
X183073947Y-119677691D01*
X183070797Y-119698926D01*
X183065581Y-119719750D01*
X183058349Y-119739962D01*
X183049170Y-119759368D01*
X183038134Y-119777781D01*
X183025346Y-119795024D01*
X183010930Y-119810930D01*
X182995024Y-119825346D01*
X182977781Y-119838134D01*
X182959368Y-119849170D01*
X182939962Y-119858349D01*
X182919750Y-119865581D01*
X182898926Y-119870797D01*
X182877691Y-119873947D01*
X182856250Y-119875000D01*
X182418750Y-119875000D01*
X182397309Y-119873947D01*
X182376074Y-119870797D01*
X182355250Y-119865581D01*
X182335038Y-119858349D01*
X182315632Y-119849170D01*
X182297219Y-119838134D01*
X182279976Y-119825346D01*
X182264070Y-119810930D01*
X182249654Y-119795024D01*
X182236866Y-119777781D01*
X182225830Y-119759368D01*
X182216651Y-119739962D01*
X182209419Y-119719750D01*
X182204203Y-119698926D01*
X182201053Y-119677691D01*
X182200000Y-119656250D01*
X182200000Y-119143750D01*
X182201053Y-119122309D01*
X182204203Y-119101074D01*
X182209419Y-119080250D01*
X182216651Y-119060038D01*
X182225830Y-119040632D01*
X182236866Y-119022219D01*
X182249654Y-119004976D01*
X182264070Y-118989070D01*
X182279976Y-118974654D01*
X182297219Y-118961866D01*
X182315632Y-118950830D01*
X182335038Y-118941651D01*
X182355250Y-118934419D01*
X182376074Y-118929203D01*
X182397309Y-118926053D01*
X182418750Y-118925000D01*
X182856250Y-118925000D01*
X182877691Y-118926053D01*
X182877691Y-118926053D01*
G37*
D12*
X182637500Y-119400000D03*
D11*
G36*
X197627691Y-120026053D02*
G01*
X197648926Y-120029203D01*
X197669750Y-120034419D01*
X197689962Y-120041651D01*
X197709368Y-120050830D01*
X197727781Y-120061866D01*
X197745024Y-120074654D01*
X197760930Y-120089070D01*
X197775346Y-120104976D01*
X197788134Y-120122219D01*
X197799170Y-120140632D01*
X197808349Y-120160038D01*
X197815581Y-120180250D01*
X197820797Y-120201074D01*
X197823947Y-120222309D01*
X197825000Y-120243750D01*
X197825000Y-120756250D01*
X197823947Y-120777691D01*
X197820797Y-120798926D01*
X197815581Y-120819750D01*
X197808349Y-120839962D01*
X197799170Y-120859368D01*
X197788134Y-120877781D01*
X197775346Y-120895024D01*
X197760930Y-120910930D01*
X197745024Y-120925346D01*
X197727781Y-120938134D01*
X197709368Y-120949170D01*
X197689962Y-120958349D01*
X197669750Y-120965581D01*
X197648926Y-120970797D01*
X197627691Y-120973947D01*
X197606250Y-120975000D01*
X197168750Y-120975000D01*
X197147309Y-120973947D01*
X197126074Y-120970797D01*
X197105250Y-120965581D01*
X197085038Y-120958349D01*
X197065632Y-120949170D01*
X197047219Y-120938134D01*
X197029976Y-120925346D01*
X197014070Y-120910930D01*
X196999654Y-120895024D01*
X196986866Y-120877781D01*
X196975830Y-120859368D01*
X196966651Y-120839962D01*
X196959419Y-120819750D01*
X196954203Y-120798926D01*
X196951053Y-120777691D01*
X196950000Y-120756250D01*
X196950000Y-120243750D01*
X196951053Y-120222309D01*
X196954203Y-120201074D01*
X196959419Y-120180250D01*
X196966651Y-120160038D01*
X196975830Y-120140632D01*
X196986866Y-120122219D01*
X196999654Y-120104976D01*
X197014070Y-120089070D01*
X197029976Y-120074654D01*
X197047219Y-120061866D01*
X197065632Y-120050830D01*
X197085038Y-120041651D01*
X197105250Y-120034419D01*
X197126074Y-120029203D01*
X197147309Y-120026053D01*
X197168750Y-120025000D01*
X197606250Y-120025000D01*
X197627691Y-120026053D01*
X197627691Y-120026053D01*
G37*
D12*
X197387500Y-120500000D03*
D11*
G36*
X196052691Y-120026053D02*
G01*
X196073926Y-120029203D01*
X196094750Y-120034419D01*
X196114962Y-120041651D01*
X196134368Y-120050830D01*
X196152781Y-120061866D01*
X196170024Y-120074654D01*
X196185930Y-120089070D01*
X196200346Y-120104976D01*
X196213134Y-120122219D01*
X196224170Y-120140632D01*
X196233349Y-120160038D01*
X196240581Y-120180250D01*
X196245797Y-120201074D01*
X196248947Y-120222309D01*
X196250000Y-120243750D01*
X196250000Y-120756250D01*
X196248947Y-120777691D01*
X196245797Y-120798926D01*
X196240581Y-120819750D01*
X196233349Y-120839962D01*
X196224170Y-120859368D01*
X196213134Y-120877781D01*
X196200346Y-120895024D01*
X196185930Y-120910930D01*
X196170024Y-120925346D01*
X196152781Y-120938134D01*
X196134368Y-120949170D01*
X196114962Y-120958349D01*
X196094750Y-120965581D01*
X196073926Y-120970797D01*
X196052691Y-120973947D01*
X196031250Y-120975000D01*
X195593750Y-120975000D01*
X195572309Y-120973947D01*
X195551074Y-120970797D01*
X195530250Y-120965581D01*
X195510038Y-120958349D01*
X195490632Y-120949170D01*
X195472219Y-120938134D01*
X195454976Y-120925346D01*
X195439070Y-120910930D01*
X195424654Y-120895024D01*
X195411866Y-120877781D01*
X195400830Y-120859368D01*
X195391651Y-120839962D01*
X195384419Y-120819750D01*
X195379203Y-120798926D01*
X195376053Y-120777691D01*
X195375000Y-120756250D01*
X195375000Y-120243750D01*
X195376053Y-120222309D01*
X195379203Y-120201074D01*
X195384419Y-120180250D01*
X195391651Y-120160038D01*
X195400830Y-120140632D01*
X195411866Y-120122219D01*
X195424654Y-120104976D01*
X195439070Y-120089070D01*
X195454976Y-120074654D01*
X195472219Y-120061866D01*
X195490632Y-120050830D01*
X195510038Y-120041651D01*
X195530250Y-120034419D01*
X195551074Y-120029203D01*
X195572309Y-120026053D01*
X195593750Y-120025000D01*
X196031250Y-120025000D01*
X196052691Y-120026053D01*
X196052691Y-120026053D01*
G37*
D12*
X195812500Y-120500000D03*
D11*
G36*
X192752691Y-120026053D02*
G01*
X192773926Y-120029203D01*
X192794750Y-120034419D01*
X192814962Y-120041651D01*
X192834368Y-120050830D01*
X192852781Y-120061866D01*
X192870024Y-120074654D01*
X192885930Y-120089070D01*
X192900346Y-120104976D01*
X192913134Y-120122219D01*
X192924170Y-120140632D01*
X192933349Y-120160038D01*
X192940581Y-120180250D01*
X192945797Y-120201074D01*
X192948947Y-120222309D01*
X192950000Y-120243750D01*
X192950000Y-120756250D01*
X192948947Y-120777691D01*
X192945797Y-120798926D01*
X192940581Y-120819750D01*
X192933349Y-120839962D01*
X192924170Y-120859368D01*
X192913134Y-120877781D01*
X192900346Y-120895024D01*
X192885930Y-120910930D01*
X192870024Y-120925346D01*
X192852781Y-120938134D01*
X192834368Y-120949170D01*
X192814962Y-120958349D01*
X192794750Y-120965581D01*
X192773926Y-120970797D01*
X192752691Y-120973947D01*
X192731250Y-120975000D01*
X192293750Y-120975000D01*
X192272309Y-120973947D01*
X192251074Y-120970797D01*
X192230250Y-120965581D01*
X192210038Y-120958349D01*
X192190632Y-120949170D01*
X192172219Y-120938134D01*
X192154976Y-120925346D01*
X192139070Y-120910930D01*
X192124654Y-120895024D01*
X192111866Y-120877781D01*
X192100830Y-120859368D01*
X192091651Y-120839962D01*
X192084419Y-120819750D01*
X192079203Y-120798926D01*
X192076053Y-120777691D01*
X192075000Y-120756250D01*
X192075000Y-120243750D01*
X192076053Y-120222309D01*
X192079203Y-120201074D01*
X192084419Y-120180250D01*
X192091651Y-120160038D01*
X192100830Y-120140632D01*
X192111866Y-120122219D01*
X192124654Y-120104976D01*
X192139070Y-120089070D01*
X192154976Y-120074654D01*
X192172219Y-120061866D01*
X192190632Y-120050830D01*
X192210038Y-120041651D01*
X192230250Y-120034419D01*
X192251074Y-120029203D01*
X192272309Y-120026053D01*
X192293750Y-120025000D01*
X192731250Y-120025000D01*
X192752691Y-120026053D01*
X192752691Y-120026053D01*
G37*
D12*
X192512500Y-120500000D03*
D11*
G36*
X194327691Y-120026053D02*
G01*
X194348926Y-120029203D01*
X194369750Y-120034419D01*
X194389962Y-120041651D01*
X194409368Y-120050830D01*
X194427781Y-120061866D01*
X194445024Y-120074654D01*
X194460930Y-120089070D01*
X194475346Y-120104976D01*
X194488134Y-120122219D01*
X194499170Y-120140632D01*
X194508349Y-120160038D01*
X194515581Y-120180250D01*
X194520797Y-120201074D01*
X194523947Y-120222309D01*
X194525000Y-120243750D01*
X194525000Y-120756250D01*
X194523947Y-120777691D01*
X194520797Y-120798926D01*
X194515581Y-120819750D01*
X194508349Y-120839962D01*
X194499170Y-120859368D01*
X194488134Y-120877781D01*
X194475346Y-120895024D01*
X194460930Y-120910930D01*
X194445024Y-120925346D01*
X194427781Y-120938134D01*
X194409368Y-120949170D01*
X194389962Y-120958349D01*
X194369750Y-120965581D01*
X194348926Y-120970797D01*
X194327691Y-120973947D01*
X194306250Y-120975000D01*
X193868750Y-120975000D01*
X193847309Y-120973947D01*
X193826074Y-120970797D01*
X193805250Y-120965581D01*
X193785038Y-120958349D01*
X193765632Y-120949170D01*
X193747219Y-120938134D01*
X193729976Y-120925346D01*
X193714070Y-120910930D01*
X193699654Y-120895024D01*
X193686866Y-120877781D01*
X193675830Y-120859368D01*
X193666651Y-120839962D01*
X193659419Y-120819750D01*
X193654203Y-120798926D01*
X193651053Y-120777691D01*
X193650000Y-120756250D01*
X193650000Y-120243750D01*
X193651053Y-120222309D01*
X193654203Y-120201074D01*
X193659419Y-120180250D01*
X193666651Y-120160038D01*
X193675830Y-120140632D01*
X193686866Y-120122219D01*
X193699654Y-120104976D01*
X193714070Y-120089070D01*
X193729976Y-120074654D01*
X193747219Y-120061866D01*
X193765632Y-120050830D01*
X193785038Y-120041651D01*
X193805250Y-120034419D01*
X193826074Y-120029203D01*
X193847309Y-120026053D01*
X193868750Y-120025000D01*
X194306250Y-120025000D01*
X194327691Y-120026053D01*
X194327691Y-120026053D01*
G37*
D12*
X194087500Y-120500000D03*
D11*
G36*
X192952691Y-124726053D02*
G01*
X192973926Y-124729203D01*
X192994750Y-124734419D01*
X193014962Y-124741651D01*
X193034368Y-124750830D01*
X193052781Y-124761866D01*
X193070024Y-124774654D01*
X193085930Y-124789070D01*
X193100346Y-124804976D01*
X193113134Y-124822219D01*
X193124170Y-124840632D01*
X193133349Y-124860038D01*
X193140581Y-124880250D01*
X193145797Y-124901074D01*
X193148947Y-124922309D01*
X193150000Y-124943750D01*
X193150000Y-125456250D01*
X193148947Y-125477691D01*
X193145797Y-125498926D01*
X193140581Y-125519750D01*
X193133349Y-125539962D01*
X193124170Y-125559368D01*
X193113134Y-125577781D01*
X193100346Y-125595024D01*
X193085930Y-125610930D01*
X193070024Y-125625346D01*
X193052781Y-125638134D01*
X193034368Y-125649170D01*
X193014962Y-125658349D01*
X192994750Y-125665581D01*
X192973926Y-125670797D01*
X192952691Y-125673947D01*
X192931250Y-125675000D01*
X192493750Y-125675000D01*
X192472309Y-125673947D01*
X192451074Y-125670797D01*
X192430250Y-125665581D01*
X192410038Y-125658349D01*
X192390632Y-125649170D01*
X192372219Y-125638134D01*
X192354976Y-125625346D01*
X192339070Y-125610930D01*
X192324654Y-125595024D01*
X192311866Y-125577781D01*
X192300830Y-125559368D01*
X192291651Y-125539962D01*
X192284419Y-125519750D01*
X192279203Y-125498926D01*
X192276053Y-125477691D01*
X192275000Y-125456250D01*
X192275000Y-124943750D01*
X192276053Y-124922309D01*
X192279203Y-124901074D01*
X192284419Y-124880250D01*
X192291651Y-124860038D01*
X192300830Y-124840632D01*
X192311866Y-124822219D01*
X192324654Y-124804976D01*
X192339070Y-124789070D01*
X192354976Y-124774654D01*
X192372219Y-124761866D01*
X192390632Y-124750830D01*
X192410038Y-124741651D01*
X192430250Y-124734419D01*
X192451074Y-124729203D01*
X192472309Y-124726053D01*
X192493750Y-124725000D01*
X192931250Y-124725000D01*
X192952691Y-124726053D01*
X192952691Y-124726053D01*
G37*
D12*
X192712500Y-125200000D03*
D11*
G36*
X194527691Y-124726053D02*
G01*
X194548926Y-124729203D01*
X194569750Y-124734419D01*
X194589962Y-124741651D01*
X194609368Y-124750830D01*
X194627781Y-124761866D01*
X194645024Y-124774654D01*
X194660930Y-124789070D01*
X194675346Y-124804976D01*
X194688134Y-124822219D01*
X194699170Y-124840632D01*
X194708349Y-124860038D01*
X194715581Y-124880250D01*
X194720797Y-124901074D01*
X194723947Y-124922309D01*
X194725000Y-124943750D01*
X194725000Y-125456250D01*
X194723947Y-125477691D01*
X194720797Y-125498926D01*
X194715581Y-125519750D01*
X194708349Y-125539962D01*
X194699170Y-125559368D01*
X194688134Y-125577781D01*
X194675346Y-125595024D01*
X194660930Y-125610930D01*
X194645024Y-125625346D01*
X194627781Y-125638134D01*
X194609368Y-125649170D01*
X194589962Y-125658349D01*
X194569750Y-125665581D01*
X194548926Y-125670797D01*
X194527691Y-125673947D01*
X194506250Y-125675000D01*
X194068750Y-125675000D01*
X194047309Y-125673947D01*
X194026074Y-125670797D01*
X194005250Y-125665581D01*
X193985038Y-125658349D01*
X193965632Y-125649170D01*
X193947219Y-125638134D01*
X193929976Y-125625346D01*
X193914070Y-125610930D01*
X193899654Y-125595024D01*
X193886866Y-125577781D01*
X193875830Y-125559368D01*
X193866651Y-125539962D01*
X193859419Y-125519750D01*
X193854203Y-125498926D01*
X193851053Y-125477691D01*
X193850000Y-125456250D01*
X193850000Y-124943750D01*
X193851053Y-124922309D01*
X193854203Y-124901074D01*
X193859419Y-124880250D01*
X193866651Y-124860038D01*
X193875830Y-124840632D01*
X193886866Y-124822219D01*
X193899654Y-124804976D01*
X193914070Y-124789070D01*
X193929976Y-124774654D01*
X193947219Y-124761866D01*
X193965632Y-124750830D01*
X193985038Y-124741651D01*
X194005250Y-124734419D01*
X194026074Y-124729203D01*
X194047309Y-124726053D01*
X194068750Y-124725000D01*
X194506250Y-124725000D01*
X194527691Y-124726053D01*
X194527691Y-124726053D01*
G37*
D12*
X194287500Y-125200000D03*
D11*
G36*
X195090691Y-105276053D02*
G01*
X195111926Y-105279203D01*
X195132750Y-105284419D01*
X195152962Y-105291651D01*
X195172368Y-105300830D01*
X195190781Y-105311866D01*
X195208024Y-105324654D01*
X195223930Y-105339070D01*
X195238346Y-105354976D01*
X195251134Y-105372219D01*
X195262170Y-105390632D01*
X195271349Y-105410038D01*
X195278581Y-105430250D01*
X195283797Y-105451074D01*
X195286947Y-105472309D01*
X195288000Y-105493750D01*
X195288000Y-106006250D01*
X195286947Y-106027691D01*
X195283797Y-106048926D01*
X195278581Y-106069750D01*
X195271349Y-106089962D01*
X195262170Y-106109368D01*
X195251134Y-106127781D01*
X195238346Y-106145024D01*
X195223930Y-106160930D01*
X195208024Y-106175346D01*
X195190781Y-106188134D01*
X195172368Y-106199170D01*
X195152962Y-106208349D01*
X195132750Y-106215581D01*
X195111926Y-106220797D01*
X195090691Y-106223947D01*
X195069250Y-106225000D01*
X194631750Y-106225000D01*
X194610309Y-106223947D01*
X194589074Y-106220797D01*
X194568250Y-106215581D01*
X194548038Y-106208349D01*
X194528632Y-106199170D01*
X194510219Y-106188134D01*
X194492976Y-106175346D01*
X194477070Y-106160930D01*
X194462654Y-106145024D01*
X194449866Y-106127781D01*
X194438830Y-106109368D01*
X194429651Y-106089962D01*
X194422419Y-106069750D01*
X194417203Y-106048926D01*
X194414053Y-106027691D01*
X194413000Y-106006250D01*
X194413000Y-105493750D01*
X194414053Y-105472309D01*
X194417203Y-105451074D01*
X194422419Y-105430250D01*
X194429651Y-105410038D01*
X194438830Y-105390632D01*
X194449866Y-105372219D01*
X194462654Y-105354976D01*
X194477070Y-105339070D01*
X194492976Y-105324654D01*
X194510219Y-105311866D01*
X194528632Y-105300830D01*
X194548038Y-105291651D01*
X194568250Y-105284419D01*
X194589074Y-105279203D01*
X194610309Y-105276053D01*
X194631750Y-105275000D01*
X195069250Y-105275000D01*
X195090691Y-105276053D01*
X195090691Y-105276053D01*
G37*
D12*
X194850500Y-105750000D03*
D11*
G36*
X196665691Y-105276053D02*
G01*
X196686926Y-105279203D01*
X196707750Y-105284419D01*
X196727962Y-105291651D01*
X196747368Y-105300830D01*
X196765781Y-105311866D01*
X196783024Y-105324654D01*
X196798930Y-105339070D01*
X196813346Y-105354976D01*
X196826134Y-105372219D01*
X196837170Y-105390632D01*
X196846349Y-105410038D01*
X196853581Y-105430250D01*
X196858797Y-105451074D01*
X196861947Y-105472309D01*
X196863000Y-105493750D01*
X196863000Y-106006250D01*
X196861947Y-106027691D01*
X196858797Y-106048926D01*
X196853581Y-106069750D01*
X196846349Y-106089962D01*
X196837170Y-106109368D01*
X196826134Y-106127781D01*
X196813346Y-106145024D01*
X196798930Y-106160930D01*
X196783024Y-106175346D01*
X196765781Y-106188134D01*
X196747368Y-106199170D01*
X196727962Y-106208349D01*
X196707750Y-106215581D01*
X196686926Y-106220797D01*
X196665691Y-106223947D01*
X196644250Y-106225000D01*
X196206750Y-106225000D01*
X196185309Y-106223947D01*
X196164074Y-106220797D01*
X196143250Y-106215581D01*
X196123038Y-106208349D01*
X196103632Y-106199170D01*
X196085219Y-106188134D01*
X196067976Y-106175346D01*
X196052070Y-106160930D01*
X196037654Y-106145024D01*
X196024866Y-106127781D01*
X196013830Y-106109368D01*
X196004651Y-106089962D01*
X195997419Y-106069750D01*
X195992203Y-106048926D01*
X195989053Y-106027691D01*
X195988000Y-106006250D01*
X195988000Y-105493750D01*
X195989053Y-105472309D01*
X195992203Y-105451074D01*
X195997419Y-105430250D01*
X196004651Y-105410038D01*
X196013830Y-105390632D01*
X196024866Y-105372219D01*
X196037654Y-105354976D01*
X196052070Y-105339070D01*
X196067976Y-105324654D01*
X196085219Y-105311866D01*
X196103632Y-105300830D01*
X196123038Y-105291651D01*
X196143250Y-105284419D01*
X196164074Y-105279203D01*
X196185309Y-105276053D01*
X196206750Y-105275000D01*
X196644250Y-105275000D01*
X196665691Y-105276053D01*
X196665691Y-105276053D01*
G37*
D12*
X196425500Y-105750000D03*
D11*
G36*
X190864691Y-97626053D02*
G01*
X190885926Y-97629203D01*
X190906750Y-97634419D01*
X190926962Y-97641651D01*
X190946368Y-97650830D01*
X190964781Y-97661866D01*
X190982024Y-97674654D01*
X190997930Y-97689070D01*
X191012346Y-97704976D01*
X191025134Y-97722219D01*
X191036170Y-97740632D01*
X191045349Y-97760038D01*
X191052581Y-97780250D01*
X191057797Y-97801074D01*
X191060947Y-97822309D01*
X191062000Y-97843750D01*
X191062000Y-98356250D01*
X191060947Y-98377691D01*
X191057797Y-98398926D01*
X191052581Y-98419750D01*
X191045349Y-98439962D01*
X191036170Y-98459368D01*
X191025134Y-98477781D01*
X191012346Y-98495024D01*
X190997930Y-98510930D01*
X190982024Y-98525346D01*
X190964781Y-98538134D01*
X190946368Y-98549170D01*
X190926962Y-98558349D01*
X190906750Y-98565581D01*
X190885926Y-98570797D01*
X190864691Y-98573947D01*
X190843250Y-98575000D01*
X190405750Y-98575000D01*
X190384309Y-98573947D01*
X190363074Y-98570797D01*
X190342250Y-98565581D01*
X190322038Y-98558349D01*
X190302632Y-98549170D01*
X190284219Y-98538134D01*
X190266976Y-98525346D01*
X190251070Y-98510930D01*
X190236654Y-98495024D01*
X190223866Y-98477781D01*
X190212830Y-98459368D01*
X190203651Y-98439962D01*
X190196419Y-98419750D01*
X190191203Y-98398926D01*
X190188053Y-98377691D01*
X190187000Y-98356250D01*
X190187000Y-97843750D01*
X190188053Y-97822309D01*
X190191203Y-97801074D01*
X190196419Y-97780250D01*
X190203651Y-97760038D01*
X190212830Y-97740632D01*
X190223866Y-97722219D01*
X190236654Y-97704976D01*
X190251070Y-97689070D01*
X190266976Y-97674654D01*
X190284219Y-97661866D01*
X190302632Y-97650830D01*
X190322038Y-97641651D01*
X190342250Y-97634419D01*
X190363074Y-97629203D01*
X190384309Y-97626053D01*
X190405750Y-97625000D01*
X190843250Y-97625000D01*
X190864691Y-97626053D01*
X190864691Y-97626053D01*
G37*
D12*
X190624500Y-98100000D03*
D11*
G36*
X192439691Y-97626053D02*
G01*
X192460926Y-97629203D01*
X192481750Y-97634419D01*
X192501962Y-97641651D01*
X192521368Y-97650830D01*
X192539781Y-97661866D01*
X192557024Y-97674654D01*
X192572930Y-97689070D01*
X192587346Y-97704976D01*
X192600134Y-97722219D01*
X192611170Y-97740632D01*
X192620349Y-97760038D01*
X192627581Y-97780250D01*
X192632797Y-97801074D01*
X192635947Y-97822309D01*
X192637000Y-97843750D01*
X192637000Y-98356250D01*
X192635947Y-98377691D01*
X192632797Y-98398926D01*
X192627581Y-98419750D01*
X192620349Y-98439962D01*
X192611170Y-98459368D01*
X192600134Y-98477781D01*
X192587346Y-98495024D01*
X192572930Y-98510930D01*
X192557024Y-98525346D01*
X192539781Y-98538134D01*
X192521368Y-98549170D01*
X192501962Y-98558349D01*
X192481750Y-98565581D01*
X192460926Y-98570797D01*
X192439691Y-98573947D01*
X192418250Y-98575000D01*
X191980750Y-98575000D01*
X191959309Y-98573947D01*
X191938074Y-98570797D01*
X191917250Y-98565581D01*
X191897038Y-98558349D01*
X191877632Y-98549170D01*
X191859219Y-98538134D01*
X191841976Y-98525346D01*
X191826070Y-98510930D01*
X191811654Y-98495024D01*
X191798866Y-98477781D01*
X191787830Y-98459368D01*
X191778651Y-98439962D01*
X191771419Y-98419750D01*
X191766203Y-98398926D01*
X191763053Y-98377691D01*
X191762000Y-98356250D01*
X191762000Y-97843750D01*
X191763053Y-97822309D01*
X191766203Y-97801074D01*
X191771419Y-97780250D01*
X191778651Y-97760038D01*
X191787830Y-97740632D01*
X191798866Y-97722219D01*
X191811654Y-97704976D01*
X191826070Y-97689070D01*
X191841976Y-97674654D01*
X191859219Y-97661866D01*
X191877632Y-97650830D01*
X191897038Y-97641651D01*
X191917250Y-97634419D01*
X191938074Y-97629203D01*
X191959309Y-97626053D01*
X191980750Y-97625000D01*
X192418250Y-97625000D01*
X192439691Y-97626053D01*
X192439691Y-97626053D01*
G37*
D12*
X192199500Y-98100000D03*
D13*
X193600000Y-102100000D03*
X185100000Y-102100000D03*
D14*
X196700000Y-125200000D03*
D15*
X196775000Y-108650000D03*
X196125000Y-108650000D03*
X195475000Y-108650000D03*
X194825000Y-108650000D03*
X194175000Y-108650000D03*
X193525000Y-108650000D03*
X192875000Y-108650000D03*
X192225000Y-108650000D03*
X191575000Y-108650000D03*
X190925000Y-108650000D03*
X190275000Y-108650000D03*
X189625000Y-108650000D03*
X189625000Y-114350000D03*
X190275000Y-114350000D03*
X190925000Y-114350000D03*
X191575000Y-114350000D03*
X192225000Y-114350000D03*
X192875000Y-114350000D03*
X193525000Y-114350000D03*
X194175000Y-114350000D03*
X194825000Y-114350000D03*
X195475000Y-114350000D03*
X196125000Y-114350000D03*
X196775000Y-114350000D03*
D16*
X201400000Y-116000000D03*
D17*
X201400000Y-113230000D03*
X201400000Y-110460000D03*
X201400000Y-107690000D03*
X201400000Y-104920000D03*
X204240000Y-114615000D03*
X204240000Y-111845000D03*
X204240000Y-109075000D03*
X204240000Y-106305000D03*
D18*
X202820000Y-122960000D03*
X202820000Y-97960000D03*
D19*
X187196900Y-105753400D03*
X187600000Y-123400000D03*
X179130100Y-107853700D03*
X191100000Y-104600000D03*
X188900000Y-99300000D03*
X185500000Y-124800000D03*
X187800000Y-109300000D03*
X191600000Y-112500000D03*
X189474400Y-121612000D03*
X187944100Y-113531000D03*
X192575000Y-110346800D03*
X193462700Y-111290900D03*
X189938300Y-113194500D03*
D20*
X192626000Y-105938600D02*
X192625500Y-105938100D01*
X192625500Y-105938100D02*
X192625500Y-105750000D01*
X192626000Y-105938600D02*
X192626000Y-106127300D01*
X192626000Y-105750000D02*
X192626000Y-105938600D01*
X181230400Y-105753400D02*
X179130100Y-107853700D01*
X181230400Y-105753400D02*
X187196900Y-105753400D01*
X185412500Y-98100000D02*
X184519300Y-98100000D01*
X184519300Y-98100000D02*
X180191200Y-102428100D01*
X180191200Y-102428100D02*
X180191200Y-104714200D01*
X180191200Y-104714200D02*
X181230400Y-105753400D01*
X190683300Y-122387400D02*
X192712500Y-124416600D01*
X192712500Y-124416600D02*
X192712500Y-125200000D01*
X189837500Y-118800000D02*
X190683300Y-119645800D01*
X190683300Y-119645800D02*
X190683300Y-122387400D01*
X205248500Y-120500000D02*
X205248500Y-123919900D01*
X205248500Y-123919900D02*
X203080800Y-126087600D01*
X203080800Y-126087600D02*
X193600100Y-126087600D01*
X193600100Y-126087600D02*
X192712500Y-125200000D01*
X187196900Y-105753400D02*
X188063300Y-106619800D01*
X188063300Y-106619800D02*
X192133500Y-106619800D01*
X192133500Y-106619800D02*
X192626000Y-106127300D01*
X205248500Y-120500000D02*
X205990000Y-119758500D01*
X205990000Y-119758500D02*
X205990000Y-106353000D01*
X205990000Y-106353000D02*
X202770300Y-103133300D01*
X202770300Y-103133300D02*
X200260100Y-103133300D01*
X200260100Y-103133300D02*
X197643400Y-105750000D01*
X197643400Y-105750000D02*
X196425500Y-105750000D01*
X197387500Y-120500000D02*
X205248500Y-120500000D01*
X192626000Y-106127300D02*
X192626000Y-108400000D01*
X192225000Y-108650000D02*
X192376000Y-108650000D01*
X192376000Y-108650000D02*
X192626000Y-108400000D01*
X192626000Y-108400000D02*
X192875000Y-108650000D01*
X190683300Y-122387400D02*
X188612600Y-122387400D01*
X188612600Y-122387400D02*
X187600000Y-123400000D01*
X181600000Y-102424500D02*
X180741800Y-103282700D01*
X180741800Y-103282700D02*
X180741800Y-104486400D01*
X180741800Y-104486400D02*
X181079600Y-104824200D01*
X181079600Y-104824200D02*
X190124700Y-104824200D01*
X190124700Y-104824200D02*
X191050500Y-105750000D01*
X192199500Y-98100000D02*
X190874300Y-99425200D01*
X190874300Y-99425200D02*
X188900000Y-99425200D01*
X188900000Y-99425200D02*
X183972500Y-99425200D01*
X183972500Y-99425200D02*
X181600000Y-101797700D01*
X181600000Y-101797700D02*
X181600000Y-102424500D01*
X197200000Y-101918900D02*
X193381100Y-98100000D01*
X193381100Y-98100000D02*
X192199500Y-98100000D01*
X197200000Y-102424500D02*
X197200000Y-101918900D01*
X202820000Y-97960000D02*
X201158900Y-97960000D01*
X201158900Y-97960000D02*
X197200000Y-101918900D01*
X202820000Y-122960000D02*
X194972500Y-122960000D01*
X194972500Y-122960000D02*
X192512500Y-120500000D01*
X193525000Y-114350000D02*
X193525000Y-113424700D01*
X193525000Y-113424700D02*
X201400000Y-105549700D01*
X201400000Y-105549700D02*
X201400000Y-104920000D01*
X192512500Y-120500000D02*
X190867600Y-118855100D01*
X190867600Y-118855100D02*
X190867600Y-118401900D01*
X190867600Y-118401900D02*
X190404900Y-117939200D01*
X190404900Y-117939200D02*
X185823300Y-117939200D01*
X185823300Y-117939200D02*
X184962500Y-118800000D01*
X191050500Y-105750000D02*
X191050500Y-104649500D01*
X191050500Y-104649500D02*
X191100000Y-104600000D01*
X188900000Y-99300000D02*
X188900000Y-99425200D01*
X188900000Y-99425200D02*
X188900000Y-99300000D01*
X188900000Y-99300000D02*
X188900000Y-99425200D01*
X193525000Y-114350000D02*
X193525000Y-112825000D01*
X193525000Y-112825000D02*
X193200000Y-112500000D01*
X193200000Y-112500000D02*
X191600000Y-112500000D01*
X181762500Y-118525000D02*
X180616700Y-118525000D01*
X180616700Y-118525000D02*
X180240500Y-118148800D01*
X180240500Y-118148800D02*
X180240500Y-114959500D01*
X180240500Y-114959500D02*
X185200000Y-110000000D01*
X181762500Y-118525000D02*
X182637500Y-117650000D01*
X182637500Y-119400000D02*
X181762500Y-118525000D01*
X194031200Y-103999500D02*
X193600000Y-103568300D01*
X193600000Y-103568300D02*
X193600000Y-103475300D01*
X197200000Y-103999500D02*
X194031200Y-103999500D01*
X194175000Y-108650000D02*
X194175000Y-107260100D01*
X194175000Y-107260100D02*
X194031200Y-107116300D01*
X194031200Y-107116300D02*
X194031200Y-103999500D01*
X193600000Y-102100000D02*
X193600000Y-103475300D01*
X193525000Y-107724700D02*
X193460000Y-107659700D01*
X193460000Y-107659700D02*
X193460000Y-105252400D01*
X193460000Y-105252400D02*
X191932600Y-103725000D01*
X191932600Y-103725000D02*
X185605900Y-103725000D01*
X185605900Y-103725000D02*
X185100000Y-103219100D01*
X193525000Y-108650000D02*
X193525000Y-107724700D01*
X185100000Y-103219100D02*
X184319600Y-103999500D01*
X184319600Y-103999500D02*
X181600000Y-103999500D01*
X185100000Y-102100000D02*
X185100000Y-103219100D01*
X186987500Y-98100000D02*
X190624500Y-98100000D01*
X185200000Y-117374100D02*
X191086600Y-117374100D01*
X191086600Y-117374100D02*
X192512500Y-118800000D01*
X184113700Y-119651200D02*
X184113700Y-118324500D01*
X184113700Y-118324500D02*
X185064100Y-117374100D01*
X185064100Y-117374100D02*
X185200000Y-117374100D01*
X185200000Y-115137300D02*
X185200000Y-117374100D01*
X185200000Y-114000000D02*
X185200000Y-115137300D01*
X184113700Y-119651200D02*
X183508500Y-120256400D01*
X183508500Y-120256400D02*
X181918900Y-120256400D01*
X181918900Y-120256400D02*
X181062500Y-119400000D01*
X184962500Y-120500000D02*
X184113700Y-119651200D01*
X189625000Y-109575300D02*
X189624700Y-109575300D01*
X189624700Y-109575300D02*
X185200000Y-114000000D01*
X189625000Y-108650000D02*
X189625000Y-109575300D01*
X189474400Y-121612000D02*
X189837500Y-121248900D01*
X189837500Y-121248900D02*
X189837500Y-120500000D01*
X189625000Y-114350000D02*
X189625000Y-115275300D01*
X189625000Y-115275300D02*
X193356800Y-115275300D01*
X193356800Y-115275300D02*
X195807800Y-117726300D01*
X195807800Y-117726300D02*
X196313800Y-117726300D01*
X196313800Y-117726300D02*
X197387500Y-118800000D01*
X187944100Y-113531000D02*
X188806000Y-113531000D01*
X188806000Y-113531000D02*
X189625000Y-114350000D01*
X181062500Y-117650000D02*
X181062500Y-116137500D01*
X181062500Y-116137500D02*
X185200000Y-112000000D01*
X195475000Y-109575300D02*
X194703500Y-110346800D01*
X194703500Y-110346800D02*
X192575000Y-110346800D01*
X195475000Y-108650000D02*
X195475000Y-109575300D01*
X193462700Y-111290900D02*
X194547700Y-111290900D01*
X194547700Y-111290900D02*
X196125000Y-109713600D01*
X196125000Y-109713600D02*
X196125000Y-108650000D01*
X191575000Y-108650000D02*
X191575000Y-107724700D01*
X191575000Y-107724700D02*
X188071700Y-107724700D01*
X188071700Y-107724700D02*
X187204000Y-106857000D01*
X187204000Y-106857000D02*
X184591700Y-106857000D01*
X184591700Y-106857000D02*
X179680500Y-111768200D01*
X179680500Y-111768200D02*
X179680500Y-119339500D01*
X179680500Y-119339500D02*
X181692200Y-121351200D01*
X181692200Y-121351200D02*
X185686300Y-121351200D01*
X185686300Y-121351200D02*
X186537500Y-120500000D01*
X186537500Y-118800000D02*
X186537500Y-120500000D01*
X188262500Y-118800000D02*
X186537500Y-118800000D01*
X188262500Y-118800000D02*
X188262500Y-120500000D01*
X190925000Y-109575300D02*
X190692500Y-109575300D01*
X190692500Y-109575300D02*
X187163200Y-113104600D01*
X187163200Y-113104600D02*
X187163200Y-113849100D01*
X187163200Y-113849100D02*
X189713800Y-116399700D01*
X189713800Y-116399700D02*
X191687200Y-116399700D01*
X191687200Y-116399700D02*
X194087500Y-118800000D01*
X190925000Y-108650000D02*
X190925000Y-109575300D01*
X195812500Y-120500000D02*
X195812500Y-118800000D01*
X194087500Y-120500000D02*
X194087500Y-118800000D01*
X195812500Y-118800000D02*
X194087500Y-118800000D01*
X190275000Y-113424700D02*
X190168500Y-113424700D01*
X190168500Y-113424700D02*
X189938300Y-113194500D01*
X190275000Y-114350000D02*
X190275000Y-113424700D01*
X196700000Y-125200000D02*
X194287500Y-125200000D01*
X194825000Y-108650000D02*
X194825000Y-105775500D01*
X194825000Y-105775500D02*
X194850500Y-105750000D01*
X195475000Y-114350000D02*
X195475000Y-115275300D01*
X201400000Y-116000000D02*
X196199700Y-116000000D01*
X196199700Y-116000000D02*
X195475000Y-115275300D01*
X194825000Y-114350000D02*
X194825000Y-113424700D01*
X201400000Y-107690000D02*
X200559700Y-107690000D01*
X200559700Y-107690000D02*
X194825000Y-113424700D01*
X194175000Y-114350000D02*
X194175000Y-115275300D01*
X204240000Y-114615000D02*
X204240000Y-115334800D01*
X204240000Y-115334800D02*
X202398900Y-117175900D01*
X202398900Y-117175900D02*
X196075600Y-117175900D01*
X196075600Y-117175900D02*
X194175000Y-115275300D01*
X196775000Y-114350000D02*
X196775000Y-115275300D01*
X204240000Y-111845000D02*
X204240000Y-112099300D01*
X204240000Y-112099300D02*
X201931900Y-114407400D01*
X201931900Y-114407400D02*
X198218200Y-114407400D01*
X198218200Y-114407400D02*
X197350300Y-115275300D01*
X197350300Y-115275300D02*
X196775000Y-115275300D01*
X196775000Y-108650000D02*
X196775000Y-107724700D01*
X204240000Y-109075000D02*
X203020100Y-107855100D01*
X203020100Y-107855100D02*
X203020100Y-104822800D01*
X203020100Y-104822800D02*
X201940500Y-103743200D01*
X201940500Y-103743200D02*
X200756500Y-103743200D01*
X200756500Y-103743200D02*
X196775000Y-107724700D01*
X196125000Y-114350000D02*
X196125000Y-113424700D01*
X204240000Y-106305000D02*
X205439600Y-107504600D01*
X205439600Y-107504600D02*
X205439600Y-109575700D01*
X205439600Y-109575700D02*
X204380100Y-110635200D01*
X204380100Y-110635200D02*
X203684800Y-110635200D01*
X203684800Y-110635200D02*
X202652900Y-111667100D01*
X202652900Y-111667100D02*
X197882600Y-111667100D01*
X197882600Y-111667100D02*
X196125000Y-113424700D01*
D21*
G36*
X212055665Y-94718863D02*
G01*
X212109214Y-94735030D01*
X212158597Y-94761288D01*
X212201945Y-94796641D01*
X212237600Y-94839740D01*
X212264201Y-94888937D01*
X212280742Y-94942375D01*
X212290001Y-95030464D01*
X212290000Y-125965279D01*
X212281138Y-126055664D01*
X212264970Y-126109214D01*
X212238712Y-126158597D01*
X212203357Y-126201947D01*
X212160261Y-126237599D01*
X212111063Y-126264201D01*
X212057625Y-126280742D01*
X211969545Y-126290000D01*
X204023912Y-126290000D01*
X205793118Y-124520795D01*
X205824028Y-124495428D01*
X205925249Y-124372089D01*
X206000463Y-124231373D01*
X206046780Y-124078688D01*
X206058500Y-123959691D01*
X206058500Y-123959688D01*
X206062419Y-123919900D01*
X206058500Y-123880112D01*
X206058500Y-120835512D01*
X206534619Y-120359394D01*
X206565528Y-120334028D01*
X206629236Y-120256399D01*
X206666749Y-120210690D01*
X206727189Y-120097613D01*
X206741963Y-120069973D01*
X206788280Y-119917288D01*
X206800000Y-119798291D01*
X206800000Y-119798289D01*
X206803919Y-119758501D01*
X206800000Y-119718713D01*
X206800000Y-106392787D01*
X206803919Y-106352999D01*
X206799191Y-106305000D01*
X206788280Y-106194212D01*
X206741963Y-106041527D01*
X206666749Y-105900811D01*
X206565528Y-105777472D01*
X206534618Y-105752105D01*
X203371200Y-102588688D01*
X203345828Y-102557772D01*
X203222489Y-102456551D01*
X203081773Y-102381337D01*
X202929088Y-102335020D01*
X202810091Y-102323300D01*
X202810088Y-102323300D01*
X202770300Y-102319381D01*
X202730512Y-102323300D01*
X200299888Y-102323300D01*
X200260100Y-102319381D01*
X200220312Y-102323300D01*
X200220309Y-102323300D01*
X200101312Y-102335020D01*
X199984163Y-102370557D01*
X199948626Y-102381337D01*
X199874757Y-102420821D01*
X199807911Y-102456551D01*
X199684572Y-102557772D01*
X199659205Y-102588682D01*
X198313072Y-103934816D01*
X198313072Y-103780750D01*
X198296608Y-103613592D01*
X198247850Y-103452858D01*
X198168671Y-103304725D01*
X198150900Y-103283070D01*
X198205537Y-103216494D01*
X198264502Y-103106180D01*
X198300812Y-102986482D01*
X198313072Y-102862000D01*
X198310000Y-102710250D01*
X198151250Y-102551500D01*
X197327000Y-102551500D01*
X197327000Y-102571500D01*
X197073000Y-102571500D01*
X197073000Y-102551500D01*
X197053000Y-102551500D01*
X197053000Y-102297500D01*
X197073000Y-102297500D01*
X197073000Y-101510750D01*
X197327000Y-101510750D01*
X197327000Y-102297500D01*
X198151250Y-102297500D01*
X198310000Y-102138750D01*
X198313072Y-101987000D01*
X198300812Y-101862518D01*
X198264502Y-101742820D01*
X198205537Y-101632506D01*
X198126185Y-101535815D01*
X198029494Y-101456463D01*
X197919180Y-101397498D01*
X197799482Y-101361188D01*
X197675000Y-101348928D01*
X197485750Y-101352000D01*
X197327000Y-101510750D01*
X197073000Y-101510750D01*
X196914250Y-101352000D01*
X196725000Y-101348928D01*
X196600518Y-101361188D01*
X196488072Y-101395298D01*
X196488072Y-101100000D01*
X196475812Y-100975518D01*
X196439502Y-100855820D01*
X196380537Y-100745506D01*
X196301185Y-100648815D01*
X196204494Y-100569463D01*
X196094180Y-100510498D01*
X195974482Y-100474188D01*
X195850000Y-100461928D01*
X191350000Y-100461928D01*
X191225518Y-100474188D01*
X191105820Y-100510498D01*
X190995506Y-100569463D01*
X190898815Y-100648815D01*
X190819463Y-100745506D01*
X190760498Y-100855820D01*
X190724188Y-100975518D01*
X190711928Y-101100000D01*
X190711928Y-102915000D01*
X187988072Y-102915000D01*
X187988072Y-101100000D01*
X187975812Y-100975518D01*
X187939502Y-100855820D01*
X187880537Y-100745506D01*
X187801185Y-100648815D01*
X187704494Y-100569463D01*
X187594180Y-100510498D01*
X187474482Y-100474188D01*
X187350000Y-100461928D01*
X183302885Y-100461928D01*
X183957314Y-99807499D01*
X201152106Y-99807499D01*
X201368228Y-100174258D01*
X201828105Y-100414938D01*
X202326098Y-100561275D01*
X202843071Y-100607648D01*
X203359159Y-100552273D01*
X203854526Y-100397279D01*
X204271772Y-100174258D01*
X204487894Y-99807499D01*
X202820000Y-98139605D01*
X201152106Y-99807499D01*
X183957314Y-99807499D01*
X184705871Y-99058942D01*
X184717725Y-99068671D01*
X184865858Y-99147850D01*
X185026592Y-99196608D01*
X185193750Y-99213072D01*
X185631250Y-99213072D01*
X185798408Y-99196608D01*
X185959142Y-99147850D01*
X186107275Y-99068671D01*
X186200000Y-98992574D01*
X186292725Y-99068671D01*
X186440858Y-99147850D01*
X186601592Y-99196608D01*
X186768750Y-99213072D01*
X187206250Y-99213072D01*
X187373408Y-99196608D01*
X187534142Y-99147850D01*
X187682275Y-99068671D01*
X187812115Y-98962115D01*
X187854884Y-98910000D01*
X189757116Y-98910000D01*
X189799885Y-98962115D01*
X189929725Y-99068671D01*
X190077858Y-99147850D01*
X190238592Y-99196608D01*
X190405750Y-99213072D01*
X190843250Y-99213072D01*
X191010408Y-99196608D01*
X191171142Y-99147850D01*
X191319275Y-99068671D01*
X191340930Y-99050900D01*
X191407506Y-99105537D01*
X191517820Y-99164502D01*
X191637518Y-99200812D01*
X191762000Y-99213072D01*
X191913750Y-99210000D01*
X192072500Y-99051250D01*
X192072500Y-98227000D01*
X192326500Y-98227000D01*
X192326500Y-99051250D01*
X192485250Y-99210000D01*
X192637000Y-99213072D01*
X192761482Y-99200812D01*
X192881180Y-99164502D01*
X192991494Y-99105537D01*
X193088185Y-99026185D01*
X193167537Y-98929494D01*
X193226502Y-98819180D01*
X193262812Y-98699482D01*
X193275072Y-98575000D01*
X193272000Y-98385750D01*
X193113250Y-98227000D01*
X192326500Y-98227000D01*
X192072500Y-98227000D01*
X192052500Y-98227000D01*
X192052500Y-97983071D01*
X200172352Y-97983071D01*
X200227727Y-98499159D01*
X200382721Y-98994526D01*
X200605742Y-99411772D01*
X200972501Y-99627894D01*
X202640395Y-97960000D01*
X202999605Y-97960000D01*
X204667499Y-99627894D01*
X205034258Y-99411772D01*
X205274938Y-98951895D01*
X205421275Y-98453902D01*
X205467648Y-97936929D01*
X205412273Y-97420841D01*
X205257279Y-96925474D01*
X205034258Y-96508228D01*
X204667499Y-96292106D01*
X202999605Y-97960000D01*
X202640395Y-97960000D01*
X200972501Y-96292106D01*
X200605742Y-96508228D01*
X200365062Y-96968105D01*
X200218725Y-97466098D01*
X200172352Y-97983071D01*
X192052500Y-97983071D01*
X192052500Y-97973000D01*
X192072500Y-97973000D01*
X192072500Y-97148750D01*
X192326500Y-97148750D01*
X192326500Y-97973000D01*
X193113250Y-97973000D01*
X193272000Y-97814250D01*
X193275072Y-97625000D01*
X193262812Y-97500518D01*
X193226502Y-97380820D01*
X193167537Y-97270506D01*
X193088185Y-97173815D01*
X192991494Y-97094463D01*
X192881180Y-97035498D01*
X192761482Y-96999188D01*
X192637000Y-96986928D01*
X192485250Y-96990000D01*
X192326500Y-97148750D01*
X192072500Y-97148750D01*
X191913750Y-96990000D01*
X191762000Y-96986928D01*
X191637518Y-96999188D01*
X191517820Y-97035498D01*
X191407506Y-97094463D01*
X191340930Y-97149100D01*
X191319275Y-97131329D01*
X191171142Y-97052150D01*
X191010408Y-97003392D01*
X190843250Y-96986928D01*
X190405750Y-96986928D01*
X190238592Y-97003392D01*
X190077858Y-97052150D01*
X189929725Y-97131329D01*
X189799885Y-97237885D01*
X189757116Y-97290000D01*
X187854884Y-97290000D01*
X187812115Y-97237885D01*
X187682275Y-97131329D01*
X187534142Y-97052150D01*
X187373408Y-97003392D01*
X187206250Y-96986928D01*
X186768750Y-96986928D01*
X186601592Y-97003392D01*
X186440858Y-97052150D01*
X186292725Y-97131329D01*
X186200000Y-97207426D01*
X186107275Y-97131329D01*
X185959142Y-97052150D01*
X185798408Y-97003392D01*
X185631250Y-96986928D01*
X185193750Y-96986928D01*
X185026592Y-97003392D01*
X184865858Y-97052150D01*
X184717725Y-97131329D01*
X184587885Y-97237885D01*
X184546161Y-97288727D01*
X184519300Y-97286081D01*
X184479512Y-97290000D01*
X184479509Y-97290000D01*
X184360512Y-97301720D01*
X184243363Y-97337257D01*
X184207826Y-97348037D01*
X184146494Y-97380820D01*
X184067111Y-97423251D01*
X183943772Y-97524472D01*
X183918405Y-97555382D01*
X179646588Y-101827200D01*
X179615672Y-101852572D01*
X179545903Y-101937587D01*
X179514451Y-101975911D01*
X179508524Y-101987000D01*
X179439237Y-102116628D01*
X179392920Y-102269313D01*
X179381887Y-102381337D01*
X179377281Y-102428100D01*
X179381200Y-102467888D01*
X179381201Y-104674402D01*
X179377281Y-104714200D01*
X179389297Y-104836195D01*
X179392921Y-104872988D01*
X179416805Y-104951721D01*
X179439238Y-105025673D01*
X179514451Y-105166389D01*
X179567378Y-105230880D01*
X179615673Y-105289728D01*
X179646583Y-105315095D01*
X180084887Y-105753400D01*
X179017459Y-106820829D01*
X178828202Y-106858474D01*
X178639844Y-106936495D01*
X178470326Y-107049763D01*
X178326163Y-107193926D01*
X178212895Y-107363444D01*
X178134874Y-107551802D01*
X178095100Y-107751761D01*
X178095100Y-107955639D01*
X178134874Y-108155598D01*
X178212895Y-108343956D01*
X178326163Y-108513474D01*
X178470326Y-108657637D01*
X178639844Y-108770905D01*
X178828202Y-108848926D01*
X179028161Y-108888700D01*
X179232039Y-108888700D01*
X179431998Y-108848926D01*
X179620356Y-108770905D01*
X179789874Y-108657637D01*
X179934037Y-108513474D01*
X180047305Y-108343956D01*
X180125326Y-108155598D01*
X180162971Y-107966341D01*
X181565913Y-106563400D01*
X183739787Y-106563400D01*
X179135888Y-111167300D01*
X179104972Y-111192672D01*
X179041945Y-111269472D01*
X179003751Y-111316011D01*
X178989846Y-111342026D01*
X178928537Y-111456728D01*
X178882220Y-111609413D01*
X178872937Y-111703665D01*
X178866581Y-111768200D01*
X178870500Y-111807988D01*
X178870501Y-119299702D01*
X178866581Y-119339500D01*
X178877172Y-119447027D01*
X178882221Y-119498288D01*
X178916109Y-119610000D01*
X178928538Y-119650973D01*
X179003751Y-119791689D01*
X179049842Y-119847850D01*
X179104973Y-119915028D01*
X179135883Y-119940395D01*
X181091305Y-121895818D01*
X181116672Y-121926728D01*
X181240011Y-122027949D01*
X181380727Y-122103163D01*
X181533412Y-122149480D01*
X181652409Y-122161200D01*
X181652411Y-122161200D01*
X181692199Y-122165119D01*
X181731987Y-122161200D01*
X185646512Y-122161200D01*
X185686300Y-122165119D01*
X185726088Y-122161200D01*
X185726091Y-122161200D01*
X185845088Y-122149480D01*
X185997773Y-122103163D01*
X186138489Y-122027949D01*
X186261828Y-121926728D01*
X186287199Y-121895813D01*
X186569940Y-121613072D01*
X186756250Y-121613072D01*
X186923408Y-121596608D01*
X187084142Y-121547850D01*
X187232275Y-121468671D01*
X187362115Y-121362115D01*
X187400000Y-121315952D01*
X187437885Y-121362115D01*
X187567725Y-121468671D01*
X187715858Y-121547850D01*
X187876592Y-121596608D01*
X188043750Y-121613072D01*
X188374854Y-121613072D01*
X188336663Y-121624657D01*
X188301126Y-121635437D01*
X188178302Y-121701088D01*
X188160411Y-121710651D01*
X188037072Y-121811872D01*
X188011705Y-121842782D01*
X187487359Y-122367129D01*
X187298102Y-122404774D01*
X187109744Y-122482795D01*
X186940226Y-122596063D01*
X186796063Y-122740226D01*
X186682795Y-122909744D01*
X186604774Y-123098102D01*
X186565000Y-123298061D01*
X186565000Y-123501939D01*
X186604774Y-123701898D01*
X186682795Y-123890256D01*
X186796063Y-124059774D01*
X186940226Y-124203937D01*
X187109744Y-124317205D01*
X187298102Y-124395226D01*
X187498061Y-124435000D01*
X187701939Y-124435000D01*
X187901898Y-124395226D01*
X188090256Y-124317205D01*
X188259774Y-124203937D01*
X188403937Y-124059774D01*
X188517205Y-123890256D01*
X188595226Y-123701898D01*
X188632871Y-123512641D01*
X188948113Y-123197400D01*
X190347788Y-123197400D01*
X191724476Y-124574089D01*
X191702150Y-124615858D01*
X191653392Y-124776592D01*
X191636928Y-124943750D01*
X191636928Y-125456250D01*
X191653392Y-125623408D01*
X191702150Y-125784142D01*
X191781329Y-125932275D01*
X191887885Y-126062115D01*
X192017725Y-126168671D01*
X192165858Y-126247850D01*
X192304808Y-126290000D01*
X178034721Y-126290000D01*
X177944336Y-126281138D01*
X177890786Y-126264970D01*
X177841403Y-126238712D01*
X177798053Y-126203357D01*
X177762401Y-126160261D01*
X177735799Y-126111063D01*
X177719258Y-126057625D01*
X177710000Y-125969545D01*
X177710000Y-124446358D01*
X177750890Y-124651925D01*
X177919369Y-125058669D01*
X178163962Y-125424729D01*
X178475271Y-125736038D01*
X178841331Y-125980631D01*
X179248075Y-126149110D01*
X179679872Y-126235000D01*
X180120128Y-126235000D01*
X180551925Y-126149110D01*
X180958669Y-125980631D01*
X181324729Y-125736038D01*
X181636038Y-125424729D01*
X181880631Y-125058669D01*
X182049110Y-124651925D01*
X182135000Y-124220128D01*
X182135000Y-123779872D01*
X182049110Y-123348075D01*
X181880631Y-122941331D01*
X181636038Y-122575271D01*
X181324729Y-122263962D01*
X180958669Y-122019369D01*
X180551925Y-121850890D01*
X180120128Y-121765000D01*
X179679872Y-121765000D01*
X179248075Y-121850890D01*
X178841331Y-122019369D01*
X178475271Y-122263962D01*
X178163962Y-122575271D01*
X177919369Y-122941331D01*
X177750890Y-123348075D01*
X177710000Y-123553642D01*
X177710000Y-97146358D01*
X177750890Y-97351925D01*
X177919369Y-97758669D01*
X178163962Y-98124729D01*
X178475271Y-98436038D01*
X178841331Y-98680631D01*
X179248075Y-98849110D01*
X179679872Y-98935000D01*
X180120128Y-98935000D01*
X180551925Y-98849110D01*
X180958669Y-98680631D01*
X181324729Y-98436038D01*
X181636038Y-98124729D01*
X181880631Y-97758669D01*
X182049110Y-97351925D01*
X182135000Y-96920128D01*
X182135000Y-96479872D01*
X182061926Y-96112501D01*
X201152106Y-96112501D01*
X202820000Y-97780395D01*
X204487894Y-96112501D01*
X204271772Y-95745742D01*
X203811895Y-95505062D01*
X203313902Y-95358725D01*
X202796929Y-95312352D01*
X202280841Y-95367727D01*
X201785474Y-95522721D01*
X201368228Y-95745742D01*
X201152106Y-96112501D01*
X182061926Y-96112501D01*
X182049110Y-96048075D01*
X181880631Y-95641331D01*
X181636038Y-95275271D01*
X181324729Y-94963962D01*
X180958669Y-94719369D01*
X180936050Y-94710000D01*
X211965278Y-94710000D01*
X212055665Y-94718863D01*
X212055665Y-94718863D01*
G37*
X212055665Y-94718863D02*
X212109214Y-94735030D01*
X212158597Y-94761288D01*
X212201945Y-94796641D01*
X212237600Y-94839740D01*
X212264201Y-94888937D01*
X212280742Y-94942375D01*
X212290001Y-95030464D01*
X212290000Y-125965279D01*
X212281138Y-126055664D01*
X212264970Y-126109214D01*
X212238712Y-126158597D01*
X212203357Y-126201947D01*
X212160261Y-126237599D01*
X212111063Y-126264201D01*
X212057625Y-126280742D01*
X211969545Y-126290000D01*
X204023912Y-126290000D01*
X205793118Y-124520795D01*
X205824028Y-124495428D01*
X205925249Y-124372089D01*
X206000463Y-124231373D01*
X206046780Y-124078688D01*
X206058500Y-123959691D01*
X206058500Y-123959688D01*
X206062419Y-123919900D01*
X206058500Y-123880112D01*
X206058500Y-120835512D01*
X206534619Y-120359394D01*
X206565528Y-120334028D01*
X206629236Y-120256399D01*
X206666749Y-120210690D01*
X206727189Y-120097613D01*
X206741963Y-120069973D01*
X206788280Y-119917288D01*
X206800000Y-119798291D01*
X206800000Y-119798289D01*
X206803919Y-119758501D01*
X206800000Y-119718713D01*
X206800000Y-106392787D01*
X206803919Y-106352999D01*
X206799191Y-106305000D01*
X206788280Y-106194212D01*
X206741963Y-106041527D01*
X206666749Y-105900811D01*
X206565528Y-105777472D01*
X206534618Y-105752105D01*
X203371200Y-102588688D01*
X203345828Y-102557772D01*
X203222489Y-102456551D01*
X203081773Y-102381337D01*
X202929088Y-102335020D01*
X202810091Y-102323300D01*
X202810088Y-102323300D01*
X202770300Y-102319381D01*
X202730512Y-102323300D01*
X200299888Y-102323300D01*
X200260100Y-102319381D01*
X200220312Y-102323300D01*
X200220309Y-102323300D01*
X200101312Y-102335020D01*
X199984163Y-102370557D01*
X199948626Y-102381337D01*
X199874757Y-102420821D01*
X199807911Y-102456551D01*
X199684572Y-102557772D01*
X199659205Y-102588682D01*
X198313072Y-103934816D01*
X198313072Y-103780750D01*
X198296608Y-103613592D01*
X198247850Y-103452858D01*
X198168671Y-103304725D01*
X198150900Y-103283070D01*
X198205537Y-103216494D01*
X198264502Y-103106180D01*
X198300812Y-102986482D01*
X198313072Y-102862000D01*
X198310000Y-102710250D01*
X198151250Y-102551500D01*
X197327000Y-102551500D01*
X197327000Y-102571500D01*
X197073000Y-102571500D01*
X197073000Y-102551500D01*
X197053000Y-102551500D01*
X197053000Y-102297500D01*
X197073000Y-102297500D01*
X197073000Y-101510750D01*
X197327000Y-101510750D01*
X197327000Y-102297500D01*
X198151250Y-102297500D01*
X198310000Y-102138750D01*
X198313072Y-101987000D01*
X198300812Y-101862518D01*
X198264502Y-101742820D01*
X198205537Y-101632506D01*
X198126185Y-101535815D01*
X198029494Y-101456463D01*
X197919180Y-101397498D01*
X197799482Y-101361188D01*
X197675000Y-101348928D01*
X197485750Y-101352000D01*
X197327000Y-101510750D01*
X197073000Y-101510750D01*
X196914250Y-101352000D01*
X196725000Y-101348928D01*
X196600518Y-101361188D01*
X196488072Y-101395298D01*
X196488072Y-101100000D01*
X196475812Y-100975518D01*
X196439502Y-100855820D01*
X196380537Y-100745506D01*
X196301185Y-100648815D01*
X196204494Y-100569463D01*
X196094180Y-100510498D01*
X195974482Y-100474188D01*
X195850000Y-100461928D01*
X191350000Y-100461928D01*
X191225518Y-100474188D01*
X191105820Y-100510498D01*
X190995506Y-100569463D01*
X190898815Y-100648815D01*
X190819463Y-100745506D01*
X190760498Y-100855820D01*
X190724188Y-100975518D01*
X190711928Y-101100000D01*
X190711928Y-102915000D01*
X187988072Y-102915000D01*
X187988072Y-101100000D01*
X187975812Y-100975518D01*
X187939502Y-100855820D01*
X187880537Y-100745506D01*
X187801185Y-100648815D01*
X187704494Y-100569463D01*
X187594180Y-100510498D01*
X187474482Y-100474188D01*
X187350000Y-100461928D01*
X183302885Y-100461928D01*
X183957314Y-99807499D01*
X201152106Y-99807499D01*
X201368228Y-100174258D01*
X201828105Y-100414938D01*
X202326098Y-100561275D01*
X202843071Y-100607648D01*
X203359159Y-100552273D01*
X203854526Y-100397279D01*
X204271772Y-100174258D01*
X204487894Y-99807499D01*
X202820000Y-98139605D01*
X201152106Y-99807499D01*
X183957314Y-99807499D01*
X184705871Y-99058942D01*
X184717725Y-99068671D01*
X184865858Y-99147850D01*
X185026592Y-99196608D01*
X185193750Y-99213072D01*
X185631250Y-99213072D01*
X185798408Y-99196608D01*
X185959142Y-99147850D01*
X186107275Y-99068671D01*
X186200000Y-98992574D01*
X186292725Y-99068671D01*
X186440858Y-99147850D01*
X186601592Y-99196608D01*
X186768750Y-99213072D01*
X187206250Y-99213072D01*
X187373408Y-99196608D01*
X187534142Y-99147850D01*
X187682275Y-99068671D01*
X187812115Y-98962115D01*
X187854884Y-98910000D01*
X189757116Y-98910000D01*
X189799885Y-98962115D01*
X189929725Y-99068671D01*
X190077858Y-99147850D01*
X190238592Y-99196608D01*
X190405750Y-99213072D01*
X190843250Y-99213072D01*
X191010408Y-99196608D01*
X191171142Y-99147850D01*
X191319275Y-99068671D01*
X191340930Y-99050900D01*
X191407506Y-99105537D01*
X191517820Y-99164502D01*
X191637518Y-99200812D01*
X191762000Y-99213072D01*
X191913750Y-99210000D01*
X192072500Y-99051250D01*
X192072500Y-98227000D01*
X192326500Y-98227000D01*
X192326500Y-99051250D01*
X192485250Y-99210000D01*
X192637000Y-99213072D01*
X192761482Y-99200812D01*
X192881180Y-99164502D01*
X192991494Y-99105537D01*
X193088185Y-99026185D01*
X193167537Y-98929494D01*
X193226502Y-98819180D01*
X193262812Y-98699482D01*
X193275072Y-98575000D01*
X193272000Y-98385750D01*
X193113250Y-98227000D01*
X192326500Y-98227000D01*
X192072500Y-98227000D01*
X192052500Y-98227000D01*
X192052500Y-97983071D01*
X200172352Y-97983071D01*
X200227727Y-98499159D01*
X200382721Y-98994526D01*
X200605742Y-99411772D01*
X200972501Y-99627894D01*
X202640395Y-97960000D01*
X202999605Y-97960000D01*
X204667499Y-99627894D01*
X205034258Y-99411772D01*
X205274938Y-98951895D01*
X205421275Y-98453902D01*
X205467648Y-97936929D01*
X205412273Y-97420841D01*
X205257279Y-96925474D01*
X205034258Y-96508228D01*
X204667499Y-96292106D01*
X202999605Y-97960000D01*
X202640395Y-97960000D01*
X200972501Y-96292106D01*
X200605742Y-96508228D01*
X200365062Y-96968105D01*
X200218725Y-97466098D01*
X200172352Y-97983071D01*
X192052500Y-97983071D01*
X192052500Y-97973000D01*
X192072500Y-97973000D01*
X192072500Y-97148750D01*
X192326500Y-97148750D01*
X192326500Y-97973000D01*
X193113250Y-97973000D01*
X193272000Y-97814250D01*
X193275072Y-97625000D01*
X193262812Y-97500518D01*
X193226502Y-97380820D01*
X193167537Y-97270506D01*
X193088185Y-97173815D01*
X192991494Y-97094463D01*
X192881180Y-97035498D01*
X192761482Y-96999188D01*
X192637000Y-96986928D01*
X192485250Y-96990000D01*
X192326500Y-97148750D01*
X192072500Y-97148750D01*
X191913750Y-96990000D01*
X191762000Y-96986928D01*
X191637518Y-96999188D01*
X191517820Y-97035498D01*
X191407506Y-97094463D01*
X191340930Y-97149100D01*
X191319275Y-97131329D01*
X191171142Y-97052150D01*
X191010408Y-97003392D01*
X190843250Y-96986928D01*
X190405750Y-96986928D01*
X190238592Y-97003392D01*
X190077858Y-97052150D01*
X189929725Y-97131329D01*
X189799885Y-97237885D01*
X189757116Y-97290000D01*
X187854884Y-97290000D01*
X187812115Y-97237885D01*
X187682275Y-97131329D01*
X187534142Y-97052150D01*
X187373408Y-97003392D01*
X187206250Y-96986928D01*
X186768750Y-96986928D01*
X186601592Y-97003392D01*
X186440858Y-97052150D01*
X186292725Y-97131329D01*
X186200000Y-97207426D01*
X186107275Y-97131329D01*
X185959142Y-97052150D01*
X185798408Y-97003392D01*
X185631250Y-96986928D01*
X185193750Y-96986928D01*
X185026592Y-97003392D01*
X184865858Y-97052150D01*
X184717725Y-97131329D01*
X184587885Y-97237885D01*
X184546161Y-97288727D01*
X184519300Y-97286081D01*
X184479512Y-97290000D01*
X184479509Y-97290000D01*
X184360512Y-97301720D01*
X184243363Y-97337257D01*
X184207826Y-97348037D01*
X184146494Y-97380820D01*
X184067111Y-97423251D01*
X183943772Y-97524472D01*
X183918405Y-97555382D01*
X179646588Y-101827200D01*
X179615672Y-101852572D01*
X179545903Y-101937587D01*
X179514451Y-101975911D01*
X179508524Y-101987000D01*
X179439237Y-102116628D01*
X179392920Y-102269313D01*
X179381887Y-102381337D01*
X179377281Y-102428100D01*
X179381200Y-102467888D01*
X179381201Y-104674402D01*
X179377281Y-104714200D01*
X179389297Y-104836195D01*
X179392921Y-104872988D01*
X179416805Y-104951721D01*
X179439238Y-105025673D01*
X179514451Y-105166389D01*
X179567378Y-105230880D01*
X179615673Y-105289728D01*
X179646583Y-105315095D01*
X180084887Y-105753400D01*
X179017459Y-106820829D01*
X178828202Y-106858474D01*
X178639844Y-106936495D01*
X178470326Y-107049763D01*
X178326163Y-107193926D01*
X178212895Y-107363444D01*
X178134874Y-107551802D01*
X178095100Y-107751761D01*
X178095100Y-107955639D01*
X178134874Y-108155598D01*
X178212895Y-108343956D01*
X178326163Y-108513474D01*
X178470326Y-108657637D01*
X178639844Y-108770905D01*
X178828202Y-108848926D01*
X179028161Y-108888700D01*
X179232039Y-108888700D01*
X179431998Y-108848926D01*
X179620356Y-108770905D01*
X179789874Y-108657637D01*
X179934037Y-108513474D01*
X180047305Y-108343956D01*
X180125326Y-108155598D01*
X180162971Y-107966341D01*
X181565913Y-106563400D01*
X183739787Y-106563400D01*
X179135888Y-111167300D01*
X179104972Y-111192672D01*
X179041945Y-111269472D01*
X179003751Y-111316011D01*
X178989846Y-111342026D01*
X178928537Y-111456728D01*
X178882220Y-111609413D01*
X178872937Y-111703665D01*
X178866581Y-111768200D01*
X178870500Y-111807988D01*
X178870501Y-119299702D01*
X178866581Y-119339500D01*
X178877172Y-119447027D01*
X178882221Y-119498288D01*
X178916109Y-119610000D01*
X178928538Y-119650973D01*
X179003751Y-119791689D01*
X179049842Y-119847850D01*
X179104973Y-119915028D01*
X179135883Y-119940395D01*
X181091305Y-121895818D01*
X181116672Y-121926728D01*
X181240011Y-122027949D01*
X181380727Y-122103163D01*
X181533412Y-122149480D01*
X181652409Y-122161200D01*
X181652411Y-122161200D01*
X181692199Y-122165119D01*
X181731987Y-122161200D01*
X185646512Y-122161200D01*
X185686300Y-122165119D01*
X185726088Y-122161200D01*
X185726091Y-122161200D01*
X185845088Y-122149480D01*
X185997773Y-122103163D01*
X186138489Y-122027949D01*
X186261828Y-121926728D01*
X186287199Y-121895813D01*
X186569940Y-121613072D01*
X186756250Y-121613072D01*
X186923408Y-121596608D01*
X187084142Y-121547850D01*
X187232275Y-121468671D01*
X187362115Y-121362115D01*
X187400000Y-121315952D01*
X187437885Y-121362115D01*
X187567725Y-121468671D01*
X187715858Y-121547850D01*
X187876592Y-121596608D01*
X188043750Y-121613072D01*
X188374854Y-121613072D01*
X188336663Y-121624657D01*
X188301126Y-121635437D01*
X188178302Y-121701088D01*
X188160411Y-121710651D01*
X188037072Y-121811872D01*
X188011705Y-121842782D01*
X187487359Y-122367129D01*
X187298102Y-122404774D01*
X187109744Y-122482795D01*
X186940226Y-122596063D01*
X186796063Y-122740226D01*
X186682795Y-122909744D01*
X186604774Y-123098102D01*
X186565000Y-123298061D01*
X186565000Y-123501939D01*
X186604774Y-123701898D01*
X186682795Y-123890256D01*
X186796063Y-124059774D01*
X186940226Y-124203937D01*
X187109744Y-124317205D01*
X187298102Y-124395226D01*
X187498061Y-124435000D01*
X187701939Y-124435000D01*
X187901898Y-124395226D01*
X188090256Y-124317205D01*
X188259774Y-124203937D01*
X188403937Y-124059774D01*
X188517205Y-123890256D01*
X188595226Y-123701898D01*
X188632871Y-123512641D01*
X188948113Y-123197400D01*
X190347788Y-123197400D01*
X191724476Y-124574089D01*
X191702150Y-124615858D01*
X191653392Y-124776592D01*
X191636928Y-124943750D01*
X191636928Y-125456250D01*
X191653392Y-125623408D01*
X191702150Y-125784142D01*
X191781329Y-125932275D01*
X191887885Y-126062115D01*
X192017725Y-126168671D01*
X192165858Y-126247850D01*
X192304808Y-126290000D01*
X178034721Y-126290000D01*
X177944336Y-126281138D01*
X177890786Y-126264970D01*
X177841403Y-126238712D01*
X177798053Y-126203357D01*
X177762401Y-126160261D01*
X177735799Y-126111063D01*
X177719258Y-126057625D01*
X177710000Y-125969545D01*
X177710000Y-124446358D01*
X177750890Y-124651925D01*
X177919369Y-125058669D01*
X178163962Y-125424729D01*
X178475271Y-125736038D01*
X178841331Y-125980631D01*
X179248075Y-126149110D01*
X179679872Y-126235000D01*
X180120128Y-126235000D01*
X180551925Y-126149110D01*
X180958669Y-125980631D01*
X181324729Y-125736038D01*
X181636038Y-125424729D01*
X181880631Y-125058669D01*
X182049110Y-124651925D01*
X182135000Y-124220128D01*
X182135000Y-123779872D01*
X182049110Y-123348075D01*
X181880631Y-122941331D01*
X181636038Y-122575271D01*
X181324729Y-122263962D01*
X180958669Y-122019369D01*
X180551925Y-121850890D01*
X180120128Y-121765000D01*
X179679872Y-121765000D01*
X179248075Y-121850890D01*
X178841331Y-122019369D01*
X178475271Y-122263962D01*
X178163962Y-122575271D01*
X177919369Y-122941331D01*
X177750890Y-123348075D01*
X177710000Y-123553642D01*
X177710000Y-97146358D01*
X177750890Y-97351925D01*
X177919369Y-97758669D01*
X178163962Y-98124729D01*
X178475271Y-98436038D01*
X178841331Y-98680631D01*
X179248075Y-98849110D01*
X179679872Y-98935000D01*
X180120128Y-98935000D01*
X180551925Y-98849110D01*
X180958669Y-98680631D01*
X181324729Y-98436038D01*
X181636038Y-98124729D01*
X181880631Y-97758669D01*
X182049110Y-97351925D01*
X182135000Y-96920128D01*
X182135000Y-96479872D01*
X182061926Y-96112501D01*
X201152106Y-96112501D01*
X202820000Y-97780395D01*
X204487894Y-96112501D01*
X204271772Y-95745742D01*
X203811895Y-95505062D01*
X203313902Y-95358725D01*
X202796929Y-95312352D01*
X202280841Y-95367727D01*
X201785474Y-95522721D01*
X201368228Y-95745742D01*
X201152106Y-96112501D01*
X182061926Y-96112501D01*
X182049110Y-96048075D01*
X181880631Y-95641331D01*
X181636038Y-95275271D01*
X181324729Y-94963962D01*
X180958669Y-94719369D01*
X180936050Y-94710000D01*
X211965278Y-94710000D01*
X212055665Y-94718863D01*
G36*
X192639500Y-120373000D02*
G01*
X192659500Y-120373000D01*
X192659500Y-120627000D01*
X192639500Y-120627000D01*
X192639500Y-121451250D01*
X192798250Y-121610000D01*
X192950000Y-121613072D01*
X193074482Y-121600812D01*
X193194180Y-121564502D01*
X193304494Y-121505537D01*
X193371070Y-121450900D01*
X193392725Y-121468671D01*
X193540858Y-121547850D01*
X193701592Y-121596608D01*
X193868750Y-121613072D01*
X194306250Y-121613072D01*
X194473408Y-121596608D01*
X194634142Y-121547850D01*
X194782275Y-121468671D01*
X194912115Y-121362115D01*
X194950000Y-121315952D01*
X194987885Y-121362115D01*
X195117725Y-121468671D01*
X195265858Y-121547850D01*
X195426592Y-121596608D01*
X195593750Y-121613072D01*
X196031250Y-121613072D01*
X196198408Y-121596608D01*
X196359142Y-121547850D01*
X196507275Y-121468671D01*
X196600000Y-121392574D01*
X196692725Y-121468671D01*
X196840858Y-121547850D01*
X197001592Y-121596608D01*
X197168750Y-121613072D01*
X197606250Y-121613072D01*
X197773408Y-121596608D01*
X197934142Y-121547850D01*
X198082275Y-121468671D01*
X198212115Y-121362115D01*
X198254884Y-121310000D01*
X200942135Y-121310000D01*
X200605742Y-121508228D01*
X200365062Y-121968105D01*
X200218725Y-122466098D01*
X200172352Y-122983071D01*
X200227727Y-123499159D01*
X200382721Y-123994526D01*
X200605742Y-124411772D01*
X200972501Y-124627894D01*
X202640395Y-122960000D01*
X202626253Y-122945858D01*
X202805858Y-122766253D01*
X202820000Y-122780395D01*
X202834143Y-122766253D01*
X203013748Y-122945858D01*
X202999605Y-122960000D01*
X203013748Y-122974143D01*
X202834143Y-123153748D01*
X202820000Y-123139605D01*
X201152106Y-124807499D01*
X201368228Y-125174258D01*
X201565688Y-125277600D01*
X197835000Y-125277600D01*
X197835000Y-125088212D01*
X197791383Y-124868933D01*
X197705824Y-124662376D01*
X197581612Y-124476480D01*
X197423520Y-124318388D01*
X197237624Y-124194176D01*
X197031067Y-124108617D01*
X196811788Y-124065000D01*
X196588212Y-124065000D01*
X196368933Y-124108617D01*
X196162376Y-124194176D01*
X195976480Y-124318388D01*
X195904868Y-124390000D01*
X195154884Y-124390000D01*
X195112115Y-124337885D01*
X194982275Y-124231329D01*
X194834142Y-124152150D01*
X194673408Y-124103392D01*
X194506250Y-124086928D01*
X194068750Y-124086928D01*
X193901592Y-124103392D01*
X193740858Y-124152150D01*
X193592725Y-124231329D01*
X193514495Y-124295530D01*
X193510780Y-124257812D01*
X193464463Y-124105127D01*
X193429451Y-124039624D01*
X193389249Y-123964410D01*
X193328392Y-123890256D01*
X193288028Y-123841072D01*
X193257119Y-123815706D01*
X191493300Y-122051888D01*
X191493300Y-121233776D01*
X191544463Y-121329494D01*
X191623815Y-121426185D01*
X191720506Y-121505537D01*
X191830820Y-121564502D01*
X191950518Y-121600812D01*
X192075000Y-121613072D01*
X192226750Y-121610000D01*
X192385500Y-121451250D01*
X192385500Y-120627000D01*
X192365500Y-120627000D01*
X192365500Y-120373000D01*
X192385500Y-120373000D01*
X192385500Y-120353000D01*
X192639500Y-120353000D01*
X192639500Y-120373000D01*
X192639500Y-120373000D01*
G37*
X192639500Y-120373000D02*
X192659500Y-120373000D01*
X192659500Y-120627000D01*
X192639500Y-120627000D01*
X192639500Y-121451250D01*
X192798250Y-121610000D01*
X192950000Y-121613072D01*
X193074482Y-121600812D01*
X193194180Y-121564502D01*
X193304494Y-121505537D01*
X193371070Y-121450900D01*
X193392725Y-121468671D01*
X193540858Y-121547850D01*
X193701592Y-121596608D01*
X193868750Y-121613072D01*
X194306250Y-121613072D01*
X194473408Y-121596608D01*
X194634142Y-121547850D01*
X194782275Y-121468671D01*
X194912115Y-121362115D01*
X194950000Y-121315952D01*
X194987885Y-121362115D01*
X195117725Y-121468671D01*
X195265858Y-121547850D01*
X195426592Y-121596608D01*
X195593750Y-121613072D01*
X196031250Y-121613072D01*
X196198408Y-121596608D01*
X196359142Y-121547850D01*
X196507275Y-121468671D01*
X196600000Y-121392574D01*
X196692725Y-121468671D01*
X196840858Y-121547850D01*
X197001592Y-121596608D01*
X197168750Y-121613072D01*
X197606250Y-121613072D01*
X197773408Y-121596608D01*
X197934142Y-121547850D01*
X198082275Y-121468671D01*
X198212115Y-121362115D01*
X198254884Y-121310000D01*
X200942135Y-121310000D01*
X200605742Y-121508228D01*
X200365062Y-121968105D01*
X200218725Y-122466098D01*
X200172352Y-122983071D01*
X200227727Y-123499159D01*
X200382721Y-123994526D01*
X200605742Y-124411772D01*
X200972501Y-124627894D01*
X202640395Y-122960000D01*
X202626253Y-122945858D01*
X202805858Y-122766253D01*
X202820000Y-122780395D01*
X202834143Y-122766253D01*
X203013748Y-122945858D01*
X202999605Y-122960000D01*
X203013748Y-122974143D01*
X202834143Y-123153748D01*
X202820000Y-123139605D01*
X201152106Y-124807499D01*
X201368228Y-125174258D01*
X201565688Y-125277600D01*
X197835000Y-125277600D01*
X197835000Y-125088212D01*
X197791383Y-124868933D01*
X197705824Y-124662376D01*
X197581612Y-124476480D01*
X197423520Y-124318388D01*
X197237624Y-124194176D01*
X197031067Y-124108617D01*
X196811788Y-124065000D01*
X196588212Y-124065000D01*
X196368933Y-124108617D01*
X196162376Y-124194176D01*
X195976480Y-124318388D01*
X195904868Y-124390000D01*
X195154884Y-124390000D01*
X195112115Y-124337885D01*
X194982275Y-124231329D01*
X194834142Y-124152150D01*
X194673408Y-124103392D01*
X194506250Y-124086928D01*
X194068750Y-124086928D01*
X193901592Y-124103392D01*
X193740858Y-124152150D01*
X193592725Y-124231329D01*
X193514495Y-124295530D01*
X193510780Y-124257812D01*
X193464463Y-124105127D01*
X193429451Y-124039624D01*
X193389249Y-123964410D01*
X193328392Y-123890256D01*
X193288028Y-123841072D01*
X193257119Y-123815706D01*
X191493300Y-122051888D01*
X191493300Y-121233776D01*
X191544463Y-121329494D01*
X191623815Y-121426185D01*
X191720506Y-121505537D01*
X191830820Y-121564502D01*
X191950518Y-121600812D01*
X192075000Y-121613072D01*
X192226750Y-121610000D01*
X192385500Y-121451250D01*
X192385500Y-120627000D01*
X192365500Y-120627000D01*
X192365500Y-120373000D01*
X192385500Y-120373000D01*
X192385500Y-120353000D01*
X192639500Y-120353000D01*
X192639500Y-120373000D01*
G36*
X191436928Y-118869941D02*
G01*
X191436928Y-119056250D01*
X191453392Y-119223408D01*
X191502150Y-119384142D01*
X191581329Y-119532275D01*
X191619617Y-119578930D01*
X191544463Y-119670506D01*
X191493300Y-119766224D01*
X191493300Y-119685588D01*
X191497219Y-119645800D01*
X191492680Y-119599713D01*
X191481580Y-119487012D01*
X191435263Y-119334327D01*
X191400251Y-119268824D01*
X191360049Y-119193610D01*
X191301919Y-119122779D01*
X191258828Y-119070272D01*
X191227919Y-119044906D01*
X190913072Y-118730059D01*
X190913072Y-118543750D01*
X190896608Y-118376592D01*
X190876155Y-118309167D01*
X191436928Y-118869941D01*
X191436928Y-118869941D01*
G37*
X191436928Y-118869941D02*
X191436928Y-119056250D01*
X191453392Y-119223408D01*
X191502150Y-119384142D01*
X191581329Y-119532275D01*
X191619617Y-119578930D01*
X191544463Y-119670506D01*
X191493300Y-119766224D01*
X191493300Y-119685588D01*
X191497219Y-119645800D01*
X191492680Y-119599713D01*
X191481580Y-119487012D01*
X191435263Y-119334327D01*
X191400251Y-119268824D01*
X191360049Y-119193610D01*
X191301919Y-119122779D01*
X191258828Y-119070272D01*
X191227919Y-119044906D01*
X190913072Y-118730059D01*
X190913072Y-118543750D01*
X190896608Y-118376592D01*
X190876155Y-118309167D01*
X191436928Y-118869941D01*
G36*
X185089500Y-118673000D02*
G01*
X185109500Y-118673000D01*
X185109500Y-118927000D01*
X185089500Y-118927000D01*
X185089500Y-118947000D01*
X184923700Y-118947000D01*
X184923700Y-118660012D01*
X184930712Y-118653000D01*
X185089500Y-118653000D01*
X185089500Y-118673000D01*
X185089500Y-118673000D01*
G37*
X185089500Y-118673000D02*
X185109500Y-118673000D01*
X185109500Y-118927000D01*
X185089500Y-118927000D01*
X185089500Y-118947000D01*
X184923700Y-118947000D01*
X184923700Y-118660012D01*
X184930712Y-118653000D01*
X185089500Y-118653000D01*
X185089500Y-118673000D01*
G36*
X201593748Y-104905858D02*
G01*
X201579605Y-104920000D01*
X201593748Y-104934143D01*
X201414143Y-105113748D01*
X201400000Y-105099605D01*
X200586903Y-105912702D01*
X200658486Y-106156671D01*
X200913996Y-106277571D01*
X201016289Y-106303212D01*
X200981426Y-106310147D01*
X200720273Y-106418320D01*
X200485241Y-106575363D01*
X200285363Y-106775241D01*
X200136786Y-106997603D01*
X200113082Y-107010273D01*
X200107511Y-107013251D01*
X199984172Y-107114472D01*
X199958805Y-107145382D01*
X194280383Y-112823805D01*
X194249473Y-112849172D01*
X194224108Y-112880080D01*
X194148251Y-112972511D01*
X194084084Y-113092561D01*
X194073038Y-113113227D01*
X194058265Y-113161928D01*
X193975000Y-113161928D01*
X193850518Y-113174188D01*
X193847554Y-113175087D01*
X193756750Y-113165000D01*
X193688782Y-113232968D01*
X193620506Y-113269463D01*
X193525000Y-113347842D01*
X193429494Y-113269463D01*
X193361218Y-113232968D01*
X193293250Y-113165000D01*
X193202446Y-113175087D01*
X193199482Y-113174188D01*
X193075000Y-113161928D01*
X192675000Y-113161928D01*
X192550518Y-113174188D01*
X192550000Y-113174345D01*
X192549482Y-113174188D01*
X192425000Y-113161928D01*
X192025000Y-113161928D01*
X191900518Y-113174188D01*
X191900000Y-113174345D01*
X191899482Y-113174188D01*
X191775000Y-113161928D01*
X191375000Y-113161928D01*
X191250518Y-113174188D01*
X191250000Y-113174345D01*
X191249482Y-113174188D01*
X191125000Y-113161928D01*
X191041736Y-113161928D01*
X191026963Y-113113227D01*
X190951749Y-112972511D01*
X190948676Y-112968766D01*
X190933526Y-112892602D01*
X190855505Y-112704244D01*
X190742237Y-112534726D01*
X190598074Y-112390563D01*
X190428556Y-112277295D01*
X190240198Y-112199274D01*
X190040239Y-112159500D01*
X189836361Y-112159500D01*
X189636402Y-112199274D01*
X189448044Y-112277295D01*
X189278526Y-112390563D01*
X189134363Y-112534726D01*
X189021095Y-112704244D01*
X189004331Y-112744715D01*
X188964788Y-112732720D01*
X188845791Y-112721000D01*
X188845788Y-112721000D01*
X188806000Y-112717081D01*
X188766212Y-112721000D01*
X188692312Y-112721000D01*
X191034920Y-110378393D01*
X191083788Y-110373580D01*
X191236473Y-110327263D01*
X191377189Y-110252049D01*
X191500528Y-110150828D01*
X191577316Y-110057261D01*
X191540000Y-110244861D01*
X191540000Y-110448739D01*
X191579774Y-110648698D01*
X191657795Y-110837056D01*
X191771063Y-111006574D01*
X191915226Y-111150737D01*
X192084744Y-111264005D01*
X192273102Y-111342026D01*
X192427700Y-111372777D01*
X192427700Y-111392839D01*
X192467474Y-111592798D01*
X192545495Y-111781156D01*
X192658763Y-111950674D01*
X192802926Y-112094837D01*
X192972444Y-112208105D01*
X193160802Y-112286126D01*
X193360761Y-112325900D01*
X193564639Y-112325900D01*
X193764598Y-112286126D01*
X193952956Y-112208105D01*
X194113400Y-112100900D01*
X194507912Y-112100900D01*
X194547700Y-112104819D01*
X194587488Y-112100900D01*
X194587491Y-112100900D01*
X194706488Y-112089180D01*
X194859173Y-112042863D01*
X194999889Y-111967649D01*
X195123228Y-111866428D01*
X195148599Y-111835513D01*
X196669619Y-110314494D01*
X196700528Y-110289128D01*
X196782178Y-110189637D01*
X196801749Y-110165790D01*
X196858469Y-110059673D01*
X196876963Y-110025073D01*
X196923280Y-109872388D01*
X196926660Y-109838072D01*
X196975000Y-109838072D01*
X197099482Y-109825812D01*
X197219180Y-109789502D01*
X197329494Y-109730537D01*
X197426185Y-109651185D01*
X197505537Y-109554494D01*
X197564502Y-109444180D01*
X197600812Y-109324482D01*
X197613072Y-109200000D01*
X197613072Y-108100000D01*
X197606988Y-108038224D01*
X200100759Y-105544453D01*
X200163329Y-105661514D01*
X200407298Y-105733097D01*
X201220395Y-104920000D01*
X201206253Y-104905858D01*
X201385858Y-104726253D01*
X201400000Y-104740395D01*
X201414143Y-104726253D01*
X201593748Y-104905858D01*
X201593748Y-104905858D01*
G37*
X201593748Y-104905858D02*
X201579605Y-104920000D01*
X201593748Y-104934143D01*
X201414143Y-105113748D01*
X201400000Y-105099605D01*
X200586903Y-105912702D01*
X200658486Y-106156671D01*
X200913996Y-106277571D01*
X201016289Y-106303212D01*
X200981426Y-106310147D01*
X200720273Y-106418320D01*
X200485241Y-106575363D01*
X200285363Y-106775241D01*
X200136786Y-106997603D01*
X200113082Y-107010273D01*
X200107511Y-107013251D01*
X199984172Y-107114472D01*
X199958805Y-107145382D01*
X194280383Y-112823805D01*
X194249473Y-112849172D01*
X194224108Y-112880080D01*
X194148251Y-112972511D01*
X194084084Y-113092561D01*
X194073038Y-113113227D01*
X194058265Y-113161928D01*
X193975000Y-113161928D01*
X193850518Y-113174188D01*
X193847554Y-113175087D01*
X193756750Y-113165000D01*
X193688782Y-113232968D01*
X193620506Y-113269463D01*
X193525000Y-113347842D01*
X193429494Y-113269463D01*
X193361218Y-113232968D01*
X193293250Y-113165000D01*
X193202446Y-113175087D01*
X193199482Y-113174188D01*
X193075000Y-113161928D01*
X192675000Y-113161928D01*
X192550518Y-113174188D01*
X192550000Y-113174345D01*
X192549482Y-113174188D01*
X192425000Y-113161928D01*
X192025000Y-113161928D01*
X191900518Y-113174188D01*
X191900000Y-113174345D01*
X191899482Y-113174188D01*
X191775000Y-113161928D01*
X191375000Y-113161928D01*
X191250518Y-113174188D01*
X191250000Y-113174345D01*
X191249482Y-113174188D01*
X191125000Y-113161928D01*
X191041736Y-113161928D01*
X191026963Y-113113227D01*
X190951749Y-112972511D01*
X190948676Y-112968766D01*
X190933526Y-112892602D01*
X190855505Y-112704244D01*
X190742237Y-112534726D01*
X190598074Y-112390563D01*
X190428556Y-112277295D01*
X190240198Y-112199274D01*
X190040239Y-112159500D01*
X189836361Y-112159500D01*
X189636402Y-112199274D01*
X189448044Y-112277295D01*
X189278526Y-112390563D01*
X189134363Y-112534726D01*
X189021095Y-112704244D01*
X189004331Y-112744715D01*
X188964788Y-112732720D01*
X188845791Y-112721000D01*
X188845788Y-112721000D01*
X188806000Y-112717081D01*
X188766212Y-112721000D01*
X188692312Y-112721000D01*
X191034920Y-110378393D01*
X191083788Y-110373580D01*
X191236473Y-110327263D01*
X191377189Y-110252049D01*
X191500528Y-110150828D01*
X191577316Y-110057261D01*
X191540000Y-110244861D01*
X191540000Y-110448739D01*
X191579774Y-110648698D01*
X191657795Y-110837056D01*
X191771063Y-111006574D01*
X191915226Y-111150737D01*
X192084744Y-111264005D01*
X192273102Y-111342026D01*
X192427700Y-111372777D01*
X192427700Y-111392839D01*
X192467474Y-111592798D01*
X192545495Y-111781156D01*
X192658763Y-111950674D01*
X192802926Y-112094837D01*
X192972444Y-112208105D01*
X193160802Y-112286126D01*
X193360761Y-112325900D01*
X193564639Y-112325900D01*
X193764598Y-112286126D01*
X193952956Y-112208105D01*
X194113400Y-112100900D01*
X194507912Y-112100900D01*
X194547700Y-112104819D01*
X194587488Y-112100900D01*
X194587491Y-112100900D01*
X194706488Y-112089180D01*
X194859173Y-112042863D01*
X194999889Y-111967649D01*
X195123228Y-111866428D01*
X195148599Y-111835513D01*
X196669619Y-110314494D01*
X196700528Y-110289128D01*
X196782178Y-110189637D01*
X196801749Y-110165790D01*
X196858469Y-110059673D01*
X196876963Y-110025073D01*
X196923280Y-109872388D01*
X196926660Y-109838072D01*
X196975000Y-109838072D01*
X197099482Y-109825812D01*
X197219180Y-109789502D01*
X197329494Y-109730537D01*
X197426185Y-109651185D01*
X197505537Y-109554494D01*
X197564502Y-109444180D01*
X197600812Y-109324482D01*
X197613072Y-109200000D01*
X197613072Y-108100000D01*
X197606988Y-108038224D01*
X200100759Y-105544453D01*
X200163329Y-105661514D01*
X200407298Y-105733097D01*
X201220395Y-104920000D01*
X201206253Y-104905858D01*
X201385858Y-104726253D01*
X201400000Y-104740395D01*
X201414143Y-104726253D01*
X201593748Y-104905858D01*
G36*
X187470805Y-108269318D02*
G01*
X187496172Y-108300228D01*
X187549455Y-108343956D01*
X187619510Y-108401449D01*
X187671480Y-108429227D01*
X187760227Y-108476663D01*
X187912912Y-108522980D01*
X188031909Y-108534700D01*
X188031911Y-108534700D01*
X188071699Y-108538619D01*
X188111487Y-108534700D01*
X188786928Y-108534700D01*
X188786928Y-109200000D01*
X188792985Y-109261502D01*
X186619849Y-111434639D01*
X186505183Y-111220113D01*
X186330608Y-111007392D01*
X186321601Y-111000000D01*
X186330608Y-110992608D01*
X186505183Y-110779887D01*
X186634904Y-110537195D01*
X186714786Y-110273860D01*
X186741759Y-110000000D01*
X186714786Y-109726140D01*
X186634904Y-109462805D01*
X186505183Y-109220113D01*
X186330608Y-109007392D01*
X186314337Y-108994039D01*
X186462135Y-108830330D01*
X186602524Y-108595068D01*
X186692220Y-108343070D01*
X186569720Y-108127000D01*
X185327000Y-108127000D01*
X185327000Y-108147000D01*
X185073000Y-108147000D01*
X185073000Y-108127000D01*
X185053000Y-108127000D01*
X185053000Y-107873000D01*
X185073000Y-107873000D01*
X185073000Y-107853000D01*
X185327000Y-107853000D01*
X185327000Y-107873000D01*
X186569720Y-107873000D01*
X186686511Y-107667000D01*
X186868488Y-107667000D01*
X187470805Y-108269318D01*
X187470805Y-108269318D01*
G37*
X187470805Y-108269318D02*
X187496172Y-108300228D01*
X187549455Y-108343956D01*
X187619510Y-108401449D01*
X187671480Y-108429227D01*
X187760227Y-108476663D01*
X187912912Y-108522980D01*
X188031909Y-108534700D01*
X188031911Y-108534700D01*
X188071699Y-108538619D01*
X188111487Y-108534700D01*
X188786928Y-108534700D01*
X188786928Y-109200000D01*
X188792985Y-109261502D01*
X186619849Y-111434639D01*
X186505183Y-111220113D01*
X186330608Y-111007392D01*
X186321601Y-111000000D01*
X186330608Y-110992608D01*
X186505183Y-110779887D01*
X186634904Y-110537195D01*
X186714786Y-110273860D01*
X186741759Y-110000000D01*
X186714786Y-109726140D01*
X186634904Y-109462805D01*
X186505183Y-109220113D01*
X186330608Y-109007392D01*
X186314337Y-108994039D01*
X186462135Y-108830330D01*
X186602524Y-108595068D01*
X186692220Y-108343070D01*
X186569720Y-108127000D01*
X185327000Y-108127000D01*
X185327000Y-108147000D01*
X185073000Y-108147000D01*
X185073000Y-108127000D01*
X185053000Y-108127000D01*
X185053000Y-107873000D01*
X185073000Y-107873000D01*
X185073000Y-107853000D01*
X185327000Y-107853000D01*
X185327000Y-107873000D01*
X186569720Y-107873000D01*
X186686511Y-107667000D01*
X186868488Y-107667000D01*
X187470805Y-108269318D01*
G36*
X185153711Y-104401749D02*
G01*
X185294426Y-104476963D01*
X185329963Y-104487743D01*
X185447112Y-104523280D01*
X185566109Y-104535000D01*
X185566112Y-104535000D01*
X185605900Y-104538919D01*
X185645688Y-104535000D01*
X191597088Y-104535000D01*
X191765276Y-104703189D01*
X191732180Y-104685498D01*
X191612482Y-104649188D01*
X191488000Y-104636928D01*
X191336250Y-104640000D01*
X191177500Y-104798750D01*
X191177500Y-105623000D01*
X191197500Y-105623000D01*
X191197500Y-105809800D01*
X188398813Y-105809800D01*
X188229771Y-105640759D01*
X188192126Y-105451502D01*
X188119016Y-105275000D01*
X189974928Y-105275000D01*
X189978000Y-105464250D01*
X190136750Y-105623000D01*
X190923500Y-105623000D01*
X190923500Y-104798750D01*
X190764750Y-104640000D01*
X190613000Y-104636928D01*
X190488518Y-104649188D01*
X190368820Y-104685498D01*
X190258506Y-104744463D01*
X190161815Y-104823815D01*
X190082463Y-104920506D01*
X190023498Y-105030820D01*
X189987188Y-105150518D01*
X189974928Y-105275000D01*
X188119016Y-105275000D01*
X188114105Y-105263144D01*
X188000837Y-105093626D01*
X187856674Y-104949463D01*
X187687156Y-104836195D01*
X187498798Y-104758174D01*
X187298839Y-104718400D01*
X187094961Y-104718400D01*
X186895002Y-104758174D01*
X186706644Y-104836195D01*
X186546200Y-104943400D01*
X182308461Y-104943400D01*
X182332275Y-104930671D01*
X182462115Y-104824115D01*
X182474109Y-104809500D01*
X184279812Y-104809500D01*
X184319600Y-104813419D01*
X184359388Y-104809500D01*
X184359391Y-104809500D01*
X184478388Y-104797780D01*
X184631073Y-104751463D01*
X184771789Y-104676249D01*
X184895128Y-104575028D01*
X184920499Y-104544113D01*
X185103813Y-104360799D01*
X185153711Y-104401749D01*
X185153711Y-104401749D01*
G37*
X185153711Y-104401749D02*
X185294426Y-104476963D01*
X185329963Y-104487743D01*
X185447112Y-104523280D01*
X185566109Y-104535000D01*
X185566112Y-104535000D01*
X185605900Y-104538919D01*
X185645688Y-104535000D01*
X191597088Y-104535000D01*
X191765276Y-104703189D01*
X191732180Y-104685498D01*
X191612482Y-104649188D01*
X191488000Y-104636928D01*
X191336250Y-104640000D01*
X191177500Y-104798750D01*
X191177500Y-105623000D01*
X191197500Y-105623000D01*
X191197500Y-105809800D01*
X188398813Y-105809800D01*
X188229771Y-105640759D01*
X188192126Y-105451502D01*
X188119016Y-105275000D01*
X189974928Y-105275000D01*
X189978000Y-105464250D01*
X190136750Y-105623000D01*
X190923500Y-105623000D01*
X190923500Y-104798750D01*
X190764750Y-104640000D01*
X190613000Y-104636928D01*
X190488518Y-104649188D01*
X190368820Y-104685498D01*
X190258506Y-104744463D01*
X190161815Y-104823815D01*
X190082463Y-104920506D01*
X190023498Y-105030820D01*
X189987188Y-105150518D01*
X189974928Y-105275000D01*
X188119016Y-105275000D01*
X188114105Y-105263144D01*
X188000837Y-105093626D01*
X187856674Y-104949463D01*
X187687156Y-104836195D01*
X187498798Y-104758174D01*
X187298839Y-104718400D01*
X187094961Y-104718400D01*
X186895002Y-104758174D01*
X186706644Y-104836195D01*
X186546200Y-104943400D01*
X182308461Y-104943400D01*
X182332275Y-104930671D01*
X182462115Y-104824115D01*
X182474109Y-104809500D01*
X184279812Y-104809500D01*
X184319600Y-104813419D01*
X184359388Y-104809500D01*
X184359391Y-104809500D01*
X184478388Y-104797780D01*
X184631073Y-104751463D01*
X184771789Y-104676249D01*
X184895128Y-104575028D01*
X184920499Y-104544113D01*
X185103813Y-104360799D01*
X185153711Y-104401749D01*
G36*
X181727000Y-102297500D02*
G01*
X181747000Y-102297500D01*
X181747000Y-102551500D01*
X181727000Y-102551500D01*
X181727000Y-102571500D01*
X181473000Y-102571500D01*
X181473000Y-102551500D01*
X181453000Y-102551500D01*
X181453000Y-102311812D01*
X181467312Y-102297500D01*
X181473000Y-102297500D01*
X181473000Y-102291812D01*
X181487312Y-102277500D01*
X181727000Y-102277500D01*
X181727000Y-102297500D01*
X181727000Y-102297500D01*
G37*
X181727000Y-102297500D02*
X181747000Y-102297500D01*
X181747000Y-102551500D01*
X181727000Y-102551500D01*
X181727000Y-102571500D01*
X181473000Y-102571500D01*
X181473000Y-102551500D01*
X181453000Y-102551500D01*
X181453000Y-102311812D01*
X181467312Y-102297500D01*
X181473000Y-102297500D01*
X181473000Y-102291812D01*
X181487312Y-102277500D01*
X181727000Y-102277500D01*
X181727000Y-102297500D01*
M02*
