G04 #@! TF.GenerationSoftware,KiCad,Pcbnew,(5.1.2)-1*
G04 #@! TF.CreationDate,2024-07-03T21:07:46+09:00*
G04 #@! TF.ProjectId,IR,49522e6b-6963-4616-945f-706362585858,v1.3*
G04 #@! TF.SameCoordinates,Original*
G04 #@! TF.FileFunction,Paste,Bot*
G04 #@! TF.FilePolarity,Positive*
%FSLAX46Y46*%
G04 Gerber Fmt 4.6, Leading zero omitted, Abs format (unit mm)*
G04 Created by KiCad (PCBNEW (5.1.2)-1) date 2024-07-03 21:07:46*
%MOMM*%
%LPD*%
G04 APERTURE LIST*
%ADD10C,0.050000*%
%ADD11C,0.875000*%
%ADD12O,1.800000X1.524000*%
%ADD13C,0.975000*%
%ADD14R,1.060000X0.650000*%
%ADD15R,0.450000X1.500000*%
G04 APERTURE END LIST*
D10*
G36*
X189387691Y-116716053D02*
G01*
X189408926Y-116719203D01*
X189429750Y-116724419D01*
X189449962Y-116731651D01*
X189469368Y-116740830D01*
X189487781Y-116751866D01*
X189505024Y-116764654D01*
X189520930Y-116779070D01*
X189535346Y-116794976D01*
X189548134Y-116812219D01*
X189559170Y-116830632D01*
X189568349Y-116850038D01*
X189575581Y-116870250D01*
X189580797Y-116891074D01*
X189583947Y-116912309D01*
X189585000Y-116933750D01*
X189585000Y-117371250D01*
X189583947Y-117392691D01*
X189580797Y-117413926D01*
X189575581Y-117434750D01*
X189568349Y-117454962D01*
X189559170Y-117474368D01*
X189548134Y-117492781D01*
X189535346Y-117510024D01*
X189520930Y-117525930D01*
X189505024Y-117540346D01*
X189487781Y-117553134D01*
X189469368Y-117564170D01*
X189449962Y-117573349D01*
X189429750Y-117580581D01*
X189408926Y-117585797D01*
X189387691Y-117588947D01*
X189366250Y-117590000D01*
X188853750Y-117590000D01*
X188832309Y-117588947D01*
X188811074Y-117585797D01*
X188790250Y-117580581D01*
X188770038Y-117573349D01*
X188750632Y-117564170D01*
X188732219Y-117553134D01*
X188714976Y-117540346D01*
X188699070Y-117525930D01*
X188684654Y-117510024D01*
X188671866Y-117492781D01*
X188660830Y-117474368D01*
X188651651Y-117454962D01*
X188644419Y-117434750D01*
X188639203Y-117413926D01*
X188636053Y-117392691D01*
X188635000Y-117371250D01*
X188635000Y-116933750D01*
X188636053Y-116912309D01*
X188639203Y-116891074D01*
X188644419Y-116870250D01*
X188651651Y-116850038D01*
X188660830Y-116830632D01*
X188671866Y-116812219D01*
X188684654Y-116794976D01*
X188699070Y-116779070D01*
X188714976Y-116764654D01*
X188732219Y-116751866D01*
X188750632Y-116740830D01*
X188770038Y-116731651D01*
X188790250Y-116724419D01*
X188811074Y-116719203D01*
X188832309Y-116716053D01*
X188853750Y-116715000D01*
X189366250Y-116715000D01*
X189387691Y-116716053D01*
X189387691Y-116716053D01*
G37*
D11*
X189110000Y-117152500D03*
D10*
G36*
X189387691Y-118291053D02*
G01*
X189408926Y-118294203D01*
X189429750Y-118299419D01*
X189449962Y-118306651D01*
X189469368Y-118315830D01*
X189487781Y-118326866D01*
X189505024Y-118339654D01*
X189520930Y-118354070D01*
X189535346Y-118369976D01*
X189548134Y-118387219D01*
X189559170Y-118405632D01*
X189568349Y-118425038D01*
X189575581Y-118445250D01*
X189580797Y-118466074D01*
X189583947Y-118487309D01*
X189585000Y-118508750D01*
X189585000Y-118946250D01*
X189583947Y-118967691D01*
X189580797Y-118988926D01*
X189575581Y-119009750D01*
X189568349Y-119029962D01*
X189559170Y-119049368D01*
X189548134Y-119067781D01*
X189535346Y-119085024D01*
X189520930Y-119100930D01*
X189505024Y-119115346D01*
X189487781Y-119128134D01*
X189469368Y-119139170D01*
X189449962Y-119148349D01*
X189429750Y-119155581D01*
X189408926Y-119160797D01*
X189387691Y-119163947D01*
X189366250Y-119165000D01*
X188853750Y-119165000D01*
X188832309Y-119163947D01*
X188811074Y-119160797D01*
X188790250Y-119155581D01*
X188770038Y-119148349D01*
X188750632Y-119139170D01*
X188732219Y-119128134D01*
X188714976Y-119115346D01*
X188699070Y-119100930D01*
X188684654Y-119085024D01*
X188671866Y-119067781D01*
X188660830Y-119049368D01*
X188651651Y-119029962D01*
X188644419Y-119009750D01*
X188639203Y-118988926D01*
X188636053Y-118967691D01*
X188635000Y-118946250D01*
X188635000Y-118508750D01*
X188636053Y-118487309D01*
X188639203Y-118466074D01*
X188644419Y-118445250D01*
X188651651Y-118425038D01*
X188660830Y-118405632D01*
X188671866Y-118387219D01*
X188684654Y-118369976D01*
X188699070Y-118354070D01*
X188714976Y-118339654D01*
X188732219Y-118326866D01*
X188750632Y-118315830D01*
X188770038Y-118306651D01*
X188790250Y-118299419D01*
X188811074Y-118294203D01*
X188832309Y-118291053D01*
X188853750Y-118290000D01*
X189366250Y-118290000D01*
X189387691Y-118291053D01*
X189387691Y-118291053D01*
G37*
D11*
X189110000Y-118727500D03*
D12*
X185200000Y-114000000D03*
X185200000Y-112000000D03*
X185200000Y-110000000D03*
X185200000Y-108000000D03*
D10*
G36*
X183180142Y-100276174D02*
G01*
X183203803Y-100279684D01*
X183227007Y-100285496D01*
X183249529Y-100293554D01*
X183271153Y-100303782D01*
X183291670Y-100316079D01*
X183310883Y-100330329D01*
X183328607Y-100346393D01*
X183344671Y-100364117D01*
X183358921Y-100383330D01*
X183371218Y-100403847D01*
X183381446Y-100425471D01*
X183389504Y-100447993D01*
X183395316Y-100471197D01*
X183398826Y-100494858D01*
X183400000Y-100518750D01*
X183400000Y-101006250D01*
X183398826Y-101030142D01*
X183395316Y-101053803D01*
X183389504Y-101077007D01*
X183381446Y-101099529D01*
X183371218Y-101121153D01*
X183358921Y-101141670D01*
X183344671Y-101160883D01*
X183328607Y-101178607D01*
X183310883Y-101194671D01*
X183291670Y-101208921D01*
X183271153Y-101221218D01*
X183249529Y-101231446D01*
X183227007Y-101239504D01*
X183203803Y-101245316D01*
X183180142Y-101248826D01*
X183156250Y-101250000D01*
X182243750Y-101250000D01*
X182219858Y-101248826D01*
X182196197Y-101245316D01*
X182172993Y-101239504D01*
X182150471Y-101231446D01*
X182128847Y-101221218D01*
X182108330Y-101208921D01*
X182089117Y-101194671D01*
X182071393Y-101178607D01*
X182055329Y-101160883D01*
X182041079Y-101141670D01*
X182028782Y-101121153D01*
X182018554Y-101099529D01*
X182010496Y-101077007D01*
X182004684Y-101053803D01*
X182001174Y-101030142D01*
X182000000Y-101006250D01*
X182000000Y-100518750D01*
X182001174Y-100494858D01*
X182004684Y-100471197D01*
X182010496Y-100447993D01*
X182018554Y-100425471D01*
X182028782Y-100403847D01*
X182041079Y-100383330D01*
X182055329Y-100364117D01*
X182071393Y-100346393D01*
X182089117Y-100330329D01*
X182108330Y-100316079D01*
X182128847Y-100303782D01*
X182150471Y-100293554D01*
X182172993Y-100285496D01*
X182196197Y-100279684D01*
X182219858Y-100276174D01*
X182243750Y-100275000D01*
X183156250Y-100275000D01*
X183180142Y-100276174D01*
X183180142Y-100276174D01*
G37*
D13*
X182700000Y-100762500D03*
D10*
G36*
X183180142Y-102151174D02*
G01*
X183203803Y-102154684D01*
X183227007Y-102160496D01*
X183249529Y-102168554D01*
X183271153Y-102178782D01*
X183291670Y-102191079D01*
X183310883Y-102205329D01*
X183328607Y-102221393D01*
X183344671Y-102239117D01*
X183358921Y-102258330D01*
X183371218Y-102278847D01*
X183381446Y-102300471D01*
X183389504Y-102322993D01*
X183395316Y-102346197D01*
X183398826Y-102369858D01*
X183400000Y-102393750D01*
X183400000Y-102881250D01*
X183398826Y-102905142D01*
X183395316Y-102928803D01*
X183389504Y-102952007D01*
X183381446Y-102974529D01*
X183371218Y-102996153D01*
X183358921Y-103016670D01*
X183344671Y-103035883D01*
X183328607Y-103053607D01*
X183310883Y-103069671D01*
X183291670Y-103083921D01*
X183271153Y-103096218D01*
X183249529Y-103106446D01*
X183227007Y-103114504D01*
X183203803Y-103120316D01*
X183180142Y-103123826D01*
X183156250Y-103125000D01*
X182243750Y-103125000D01*
X182219858Y-103123826D01*
X182196197Y-103120316D01*
X182172993Y-103114504D01*
X182150471Y-103106446D01*
X182128847Y-103096218D01*
X182108330Y-103083921D01*
X182089117Y-103069671D01*
X182071393Y-103053607D01*
X182055329Y-103035883D01*
X182041079Y-103016670D01*
X182028782Y-102996153D01*
X182018554Y-102974529D01*
X182010496Y-102952007D01*
X182004684Y-102928803D01*
X182001174Y-102905142D01*
X182000000Y-102881250D01*
X182000000Y-102393750D01*
X182001174Y-102369858D01*
X182004684Y-102346197D01*
X182010496Y-102322993D01*
X182018554Y-102300471D01*
X182028782Y-102278847D01*
X182041079Y-102258330D01*
X182055329Y-102239117D01*
X182071393Y-102221393D01*
X182089117Y-102205329D01*
X182108330Y-102191079D01*
X182128847Y-102178782D01*
X182150471Y-102168554D01*
X182172993Y-102160496D01*
X182196197Y-102154684D01*
X182219858Y-102151174D01*
X182243750Y-102150000D01*
X183156250Y-102150000D01*
X183180142Y-102151174D01*
X183180142Y-102151174D01*
G37*
D13*
X182700000Y-102637500D03*
D10*
G36*
X190727691Y-100226053D02*
G01*
X190748926Y-100229203D01*
X190769750Y-100234419D01*
X190789962Y-100241651D01*
X190809368Y-100250830D01*
X190827781Y-100261866D01*
X190845024Y-100274654D01*
X190860930Y-100289070D01*
X190875346Y-100304976D01*
X190888134Y-100322219D01*
X190899170Y-100340632D01*
X190908349Y-100360038D01*
X190915581Y-100380250D01*
X190920797Y-100401074D01*
X190923947Y-100422309D01*
X190925000Y-100443750D01*
X190925000Y-100956250D01*
X190923947Y-100977691D01*
X190920797Y-100998926D01*
X190915581Y-101019750D01*
X190908349Y-101039962D01*
X190899170Y-101059368D01*
X190888134Y-101077781D01*
X190875346Y-101095024D01*
X190860930Y-101110930D01*
X190845024Y-101125346D01*
X190827781Y-101138134D01*
X190809368Y-101149170D01*
X190789962Y-101158349D01*
X190769750Y-101165581D01*
X190748926Y-101170797D01*
X190727691Y-101173947D01*
X190706250Y-101175000D01*
X190268750Y-101175000D01*
X190247309Y-101173947D01*
X190226074Y-101170797D01*
X190205250Y-101165581D01*
X190185038Y-101158349D01*
X190165632Y-101149170D01*
X190147219Y-101138134D01*
X190129976Y-101125346D01*
X190114070Y-101110930D01*
X190099654Y-101095024D01*
X190086866Y-101077781D01*
X190075830Y-101059368D01*
X190066651Y-101039962D01*
X190059419Y-101019750D01*
X190054203Y-100998926D01*
X190051053Y-100977691D01*
X190050000Y-100956250D01*
X190050000Y-100443750D01*
X190051053Y-100422309D01*
X190054203Y-100401074D01*
X190059419Y-100380250D01*
X190066651Y-100360038D01*
X190075830Y-100340632D01*
X190086866Y-100322219D01*
X190099654Y-100304976D01*
X190114070Y-100289070D01*
X190129976Y-100274654D01*
X190147219Y-100261866D01*
X190165632Y-100250830D01*
X190185038Y-100241651D01*
X190205250Y-100234419D01*
X190226074Y-100229203D01*
X190247309Y-100226053D01*
X190268750Y-100225000D01*
X190706250Y-100225000D01*
X190727691Y-100226053D01*
X190727691Y-100226053D01*
G37*
D11*
X190487500Y-100700000D03*
D10*
G36*
X189152691Y-100226053D02*
G01*
X189173926Y-100229203D01*
X189194750Y-100234419D01*
X189214962Y-100241651D01*
X189234368Y-100250830D01*
X189252781Y-100261866D01*
X189270024Y-100274654D01*
X189285930Y-100289070D01*
X189300346Y-100304976D01*
X189313134Y-100322219D01*
X189324170Y-100340632D01*
X189333349Y-100360038D01*
X189340581Y-100380250D01*
X189345797Y-100401074D01*
X189348947Y-100422309D01*
X189350000Y-100443750D01*
X189350000Y-100956250D01*
X189348947Y-100977691D01*
X189345797Y-100998926D01*
X189340581Y-101019750D01*
X189333349Y-101039962D01*
X189324170Y-101059368D01*
X189313134Y-101077781D01*
X189300346Y-101095024D01*
X189285930Y-101110930D01*
X189270024Y-101125346D01*
X189252781Y-101138134D01*
X189234368Y-101149170D01*
X189214962Y-101158349D01*
X189194750Y-101165581D01*
X189173926Y-101170797D01*
X189152691Y-101173947D01*
X189131250Y-101175000D01*
X188693750Y-101175000D01*
X188672309Y-101173947D01*
X188651074Y-101170797D01*
X188630250Y-101165581D01*
X188610038Y-101158349D01*
X188590632Y-101149170D01*
X188572219Y-101138134D01*
X188554976Y-101125346D01*
X188539070Y-101110930D01*
X188524654Y-101095024D01*
X188511866Y-101077781D01*
X188500830Y-101059368D01*
X188491651Y-101039962D01*
X188484419Y-101019750D01*
X188479203Y-100998926D01*
X188476053Y-100977691D01*
X188475000Y-100956250D01*
X188475000Y-100443750D01*
X188476053Y-100422309D01*
X188479203Y-100401074D01*
X188484419Y-100380250D01*
X188491651Y-100360038D01*
X188500830Y-100340632D01*
X188511866Y-100322219D01*
X188524654Y-100304976D01*
X188539070Y-100289070D01*
X188554976Y-100274654D01*
X188572219Y-100261866D01*
X188590632Y-100250830D01*
X188610038Y-100241651D01*
X188630250Y-100234419D01*
X188651074Y-100229203D01*
X188672309Y-100226053D01*
X188693750Y-100225000D01*
X189131250Y-100225000D01*
X189152691Y-100226053D01*
X189152691Y-100226053D01*
G37*
D11*
X188912500Y-100700000D03*
D10*
G36*
X189230142Y-101901174D02*
G01*
X189253803Y-101904684D01*
X189277007Y-101910496D01*
X189299529Y-101918554D01*
X189321153Y-101928782D01*
X189341670Y-101941079D01*
X189360883Y-101955329D01*
X189378607Y-101971393D01*
X189394671Y-101989117D01*
X189408921Y-102008330D01*
X189421218Y-102028847D01*
X189431446Y-102050471D01*
X189439504Y-102072993D01*
X189445316Y-102096197D01*
X189448826Y-102119858D01*
X189450000Y-102143750D01*
X189450000Y-103056250D01*
X189448826Y-103080142D01*
X189445316Y-103103803D01*
X189439504Y-103127007D01*
X189431446Y-103149529D01*
X189421218Y-103171153D01*
X189408921Y-103191670D01*
X189394671Y-103210883D01*
X189378607Y-103228607D01*
X189360883Y-103244671D01*
X189341670Y-103258921D01*
X189321153Y-103271218D01*
X189299529Y-103281446D01*
X189277007Y-103289504D01*
X189253803Y-103295316D01*
X189230142Y-103298826D01*
X189206250Y-103300000D01*
X188718750Y-103300000D01*
X188694858Y-103298826D01*
X188671197Y-103295316D01*
X188647993Y-103289504D01*
X188625471Y-103281446D01*
X188603847Y-103271218D01*
X188583330Y-103258921D01*
X188564117Y-103244671D01*
X188546393Y-103228607D01*
X188530329Y-103210883D01*
X188516079Y-103191670D01*
X188503782Y-103171153D01*
X188493554Y-103149529D01*
X188485496Y-103127007D01*
X188479684Y-103103803D01*
X188476174Y-103080142D01*
X188475000Y-103056250D01*
X188475000Y-102143750D01*
X188476174Y-102119858D01*
X188479684Y-102096197D01*
X188485496Y-102072993D01*
X188493554Y-102050471D01*
X188503782Y-102028847D01*
X188516079Y-102008330D01*
X188530329Y-101989117D01*
X188546393Y-101971393D01*
X188564117Y-101955329D01*
X188583330Y-101941079D01*
X188603847Y-101928782D01*
X188625471Y-101918554D01*
X188647993Y-101910496D01*
X188671197Y-101904684D01*
X188694858Y-101901174D01*
X188718750Y-101900000D01*
X189206250Y-101900000D01*
X189230142Y-101901174D01*
X189230142Y-101901174D01*
G37*
D13*
X188962500Y-102600000D03*
D10*
G36*
X191105142Y-101901174D02*
G01*
X191128803Y-101904684D01*
X191152007Y-101910496D01*
X191174529Y-101918554D01*
X191196153Y-101928782D01*
X191216670Y-101941079D01*
X191235883Y-101955329D01*
X191253607Y-101971393D01*
X191269671Y-101989117D01*
X191283921Y-102008330D01*
X191296218Y-102028847D01*
X191306446Y-102050471D01*
X191314504Y-102072993D01*
X191320316Y-102096197D01*
X191323826Y-102119858D01*
X191325000Y-102143750D01*
X191325000Y-103056250D01*
X191323826Y-103080142D01*
X191320316Y-103103803D01*
X191314504Y-103127007D01*
X191306446Y-103149529D01*
X191296218Y-103171153D01*
X191283921Y-103191670D01*
X191269671Y-103210883D01*
X191253607Y-103228607D01*
X191235883Y-103244671D01*
X191216670Y-103258921D01*
X191196153Y-103271218D01*
X191174529Y-103281446D01*
X191152007Y-103289504D01*
X191128803Y-103295316D01*
X191105142Y-103298826D01*
X191081250Y-103300000D01*
X190593750Y-103300000D01*
X190569858Y-103298826D01*
X190546197Y-103295316D01*
X190522993Y-103289504D01*
X190500471Y-103281446D01*
X190478847Y-103271218D01*
X190458330Y-103258921D01*
X190439117Y-103244671D01*
X190421393Y-103228607D01*
X190405329Y-103210883D01*
X190391079Y-103191670D01*
X190378782Y-103171153D01*
X190368554Y-103149529D01*
X190360496Y-103127007D01*
X190354684Y-103103803D01*
X190351174Y-103080142D01*
X190350000Y-103056250D01*
X190350000Y-102143750D01*
X190351174Y-102119858D01*
X190354684Y-102096197D01*
X190360496Y-102072993D01*
X190368554Y-102050471D01*
X190378782Y-102028847D01*
X190391079Y-102008330D01*
X190405329Y-101989117D01*
X190421393Y-101971393D01*
X190439117Y-101955329D01*
X190458330Y-101941079D01*
X190478847Y-101928782D01*
X190500471Y-101918554D01*
X190522993Y-101910496D01*
X190546197Y-101904684D01*
X190569858Y-101901174D01*
X190593750Y-101900000D01*
X191081250Y-101900000D01*
X191105142Y-101901174D01*
X191105142Y-101901174D01*
G37*
D13*
X190837500Y-102600000D03*
D14*
X184700000Y-102650000D03*
X184700000Y-101700000D03*
X184700000Y-100750000D03*
X186900000Y-100750000D03*
X186900000Y-102650000D03*
D10*
G36*
X196377691Y-116814053D02*
G01*
X196398926Y-116817203D01*
X196419750Y-116822419D01*
X196439962Y-116829651D01*
X196459368Y-116838830D01*
X196477781Y-116849866D01*
X196495024Y-116862654D01*
X196510930Y-116877070D01*
X196525346Y-116892976D01*
X196538134Y-116910219D01*
X196549170Y-116928632D01*
X196558349Y-116948038D01*
X196565581Y-116968250D01*
X196570797Y-116989074D01*
X196573947Y-117010309D01*
X196575000Y-117031750D01*
X196575000Y-117469250D01*
X196573947Y-117490691D01*
X196570797Y-117511926D01*
X196565581Y-117532750D01*
X196558349Y-117552962D01*
X196549170Y-117572368D01*
X196538134Y-117590781D01*
X196525346Y-117608024D01*
X196510930Y-117623930D01*
X196495024Y-117638346D01*
X196477781Y-117651134D01*
X196459368Y-117662170D01*
X196439962Y-117671349D01*
X196419750Y-117678581D01*
X196398926Y-117683797D01*
X196377691Y-117686947D01*
X196356250Y-117688000D01*
X195843750Y-117688000D01*
X195822309Y-117686947D01*
X195801074Y-117683797D01*
X195780250Y-117678581D01*
X195760038Y-117671349D01*
X195740632Y-117662170D01*
X195722219Y-117651134D01*
X195704976Y-117638346D01*
X195689070Y-117623930D01*
X195674654Y-117608024D01*
X195661866Y-117590781D01*
X195650830Y-117572368D01*
X195641651Y-117552962D01*
X195634419Y-117532750D01*
X195629203Y-117511926D01*
X195626053Y-117490691D01*
X195625000Y-117469250D01*
X195625000Y-117031750D01*
X195626053Y-117010309D01*
X195629203Y-116989074D01*
X195634419Y-116968250D01*
X195641651Y-116948038D01*
X195650830Y-116928632D01*
X195661866Y-116910219D01*
X195674654Y-116892976D01*
X195689070Y-116877070D01*
X195704976Y-116862654D01*
X195722219Y-116849866D01*
X195740632Y-116838830D01*
X195760038Y-116829651D01*
X195780250Y-116822419D01*
X195801074Y-116817203D01*
X195822309Y-116814053D01*
X195843750Y-116813000D01*
X196356250Y-116813000D01*
X196377691Y-116814053D01*
X196377691Y-116814053D01*
G37*
D11*
X196100000Y-117250500D03*
D10*
G36*
X196377691Y-118389053D02*
G01*
X196398926Y-118392203D01*
X196419750Y-118397419D01*
X196439962Y-118404651D01*
X196459368Y-118413830D01*
X196477781Y-118424866D01*
X196495024Y-118437654D01*
X196510930Y-118452070D01*
X196525346Y-118467976D01*
X196538134Y-118485219D01*
X196549170Y-118503632D01*
X196558349Y-118523038D01*
X196565581Y-118543250D01*
X196570797Y-118564074D01*
X196573947Y-118585309D01*
X196575000Y-118606750D01*
X196575000Y-119044250D01*
X196573947Y-119065691D01*
X196570797Y-119086926D01*
X196565581Y-119107750D01*
X196558349Y-119127962D01*
X196549170Y-119147368D01*
X196538134Y-119165781D01*
X196525346Y-119183024D01*
X196510930Y-119198930D01*
X196495024Y-119213346D01*
X196477781Y-119226134D01*
X196459368Y-119237170D01*
X196439962Y-119246349D01*
X196419750Y-119253581D01*
X196398926Y-119258797D01*
X196377691Y-119261947D01*
X196356250Y-119263000D01*
X195843750Y-119263000D01*
X195822309Y-119261947D01*
X195801074Y-119258797D01*
X195780250Y-119253581D01*
X195760038Y-119246349D01*
X195740632Y-119237170D01*
X195722219Y-119226134D01*
X195704976Y-119213346D01*
X195689070Y-119198930D01*
X195674654Y-119183024D01*
X195661866Y-119165781D01*
X195650830Y-119147368D01*
X195641651Y-119127962D01*
X195634419Y-119107750D01*
X195629203Y-119086926D01*
X195626053Y-119065691D01*
X195625000Y-119044250D01*
X195625000Y-118606750D01*
X195626053Y-118585309D01*
X195629203Y-118564074D01*
X195634419Y-118543250D01*
X195641651Y-118523038D01*
X195650830Y-118503632D01*
X195661866Y-118485219D01*
X195674654Y-118467976D01*
X195689070Y-118452070D01*
X195704976Y-118437654D01*
X195722219Y-118424866D01*
X195740632Y-118413830D01*
X195760038Y-118404651D01*
X195780250Y-118397419D01*
X195801074Y-118392203D01*
X195822309Y-118389053D01*
X195843750Y-118388000D01*
X196356250Y-118388000D01*
X196377691Y-118389053D01*
X196377691Y-118389053D01*
G37*
D11*
X196100000Y-118825500D03*
D10*
G36*
X195427691Y-103493053D02*
G01*
X195448926Y-103496203D01*
X195469750Y-103501419D01*
X195489962Y-103508651D01*
X195509368Y-103517830D01*
X195527781Y-103528866D01*
X195545024Y-103541654D01*
X195560930Y-103556070D01*
X195575346Y-103571976D01*
X195588134Y-103589219D01*
X195599170Y-103607632D01*
X195608349Y-103627038D01*
X195615581Y-103647250D01*
X195620797Y-103668074D01*
X195623947Y-103689309D01*
X195625000Y-103710750D01*
X195625000Y-104148250D01*
X195623947Y-104169691D01*
X195620797Y-104190926D01*
X195615581Y-104211750D01*
X195608349Y-104231962D01*
X195599170Y-104251368D01*
X195588134Y-104269781D01*
X195575346Y-104287024D01*
X195560930Y-104302930D01*
X195545024Y-104317346D01*
X195527781Y-104330134D01*
X195509368Y-104341170D01*
X195489962Y-104350349D01*
X195469750Y-104357581D01*
X195448926Y-104362797D01*
X195427691Y-104365947D01*
X195406250Y-104367000D01*
X194893750Y-104367000D01*
X194872309Y-104365947D01*
X194851074Y-104362797D01*
X194830250Y-104357581D01*
X194810038Y-104350349D01*
X194790632Y-104341170D01*
X194772219Y-104330134D01*
X194754976Y-104317346D01*
X194739070Y-104302930D01*
X194724654Y-104287024D01*
X194711866Y-104269781D01*
X194700830Y-104251368D01*
X194691651Y-104231962D01*
X194684419Y-104211750D01*
X194679203Y-104190926D01*
X194676053Y-104169691D01*
X194675000Y-104148250D01*
X194675000Y-103710750D01*
X194676053Y-103689309D01*
X194679203Y-103668074D01*
X194684419Y-103647250D01*
X194691651Y-103627038D01*
X194700830Y-103607632D01*
X194711866Y-103589219D01*
X194724654Y-103571976D01*
X194739070Y-103556070D01*
X194754976Y-103541654D01*
X194772219Y-103528866D01*
X194790632Y-103517830D01*
X194810038Y-103508651D01*
X194830250Y-103501419D01*
X194851074Y-103496203D01*
X194872309Y-103493053D01*
X194893750Y-103492000D01*
X195406250Y-103492000D01*
X195427691Y-103493053D01*
X195427691Y-103493053D01*
G37*
D11*
X195150000Y-103929500D03*
D10*
G36*
X195427691Y-101918053D02*
G01*
X195448926Y-101921203D01*
X195469750Y-101926419D01*
X195489962Y-101933651D01*
X195509368Y-101942830D01*
X195527781Y-101953866D01*
X195545024Y-101966654D01*
X195560930Y-101981070D01*
X195575346Y-101996976D01*
X195588134Y-102014219D01*
X195599170Y-102032632D01*
X195608349Y-102052038D01*
X195615581Y-102072250D01*
X195620797Y-102093074D01*
X195623947Y-102114309D01*
X195625000Y-102135750D01*
X195625000Y-102573250D01*
X195623947Y-102594691D01*
X195620797Y-102615926D01*
X195615581Y-102636750D01*
X195608349Y-102656962D01*
X195599170Y-102676368D01*
X195588134Y-102694781D01*
X195575346Y-102712024D01*
X195560930Y-102727930D01*
X195545024Y-102742346D01*
X195527781Y-102755134D01*
X195509368Y-102766170D01*
X195489962Y-102775349D01*
X195469750Y-102782581D01*
X195448926Y-102787797D01*
X195427691Y-102790947D01*
X195406250Y-102792000D01*
X194893750Y-102792000D01*
X194872309Y-102790947D01*
X194851074Y-102787797D01*
X194830250Y-102782581D01*
X194810038Y-102775349D01*
X194790632Y-102766170D01*
X194772219Y-102755134D01*
X194754976Y-102742346D01*
X194739070Y-102727930D01*
X194724654Y-102712024D01*
X194711866Y-102694781D01*
X194700830Y-102676368D01*
X194691651Y-102656962D01*
X194684419Y-102636750D01*
X194679203Y-102615926D01*
X194676053Y-102594691D01*
X194675000Y-102573250D01*
X194675000Y-102135750D01*
X194676053Y-102114309D01*
X194679203Y-102093074D01*
X194684419Y-102072250D01*
X194691651Y-102052038D01*
X194700830Y-102032632D01*
X194711866Y-102014219D01*
X194724654Y-101996976D01*
X194739070Y-101981070D01*
X194754976Y-101966654D01*
X194772219Y-101953866D01*
X194790632Y-101942830D01*
X194810038Y-101933651D01*
X194830250Y-101926419D01*
X194851074Y-101921203D01*
X194872309Y-101918053D01*
X194893750Y-101917000D01*
X195406250Y-101917000D01*
X195427691Y-101918053D01*
X195427691Y-101918053D01*
G37*
D11*
X195150000Y-102354500D03*
D10*
G36*
X192877691Y-118363053D02*
G01*
X192898926Y-118366203D01*
X192919750Y-118371419D01*
X192939962Y-118378651D01*
X192959368Y-118387830D01*
X192977781Y-118398866D01*
X192995024Y-118411654D01*
X193010930Y-118426070D01*
X193025346Y-118441976D01*
X193038134Y-118459219D01*
X193049170Y-118477632D01*
X193058349Y-118497038D01*
X193065581Y-118517250D01*
X193070797Y-118538074D01*
X193073947Y-118559309D01*
X193075000Y-118580750D01*
X193075000Y-119018250D01*
X193073947Y-119039691D01*
X193070797Y-119060926D01*
X193065581Y-119081750D01*
X193058349Y-119101962D01*
X193049170Y-119121368D01*
X193038134Y-119139781D01*
X193025346Y-119157024D01*
X193010930Y-119172930D01*
X192995024Y-119187346D01*
X192977781Y-119200134D01*
X192959368Y-119211170D01*
X192939962Y-119220349D01*
X192919750Y-119227581D01*
X192898926Y-119232797D01*
X192877691Y-119235947D01*
X192856250Y-119237000D01*
X192343750Y-119237000D01*
X192322309Y-119235947D01*
X192301074Y-119232797D01*
X192280250Y-119227581D01*
X192260038Y-119220349D01*
X192240632Y-119211170D01*
X192222219Y-119200134D01*
X192204976Y-119187346D01*
X192189070Y-119172930D01*
X192174654Y-119157024D01*
X192161866Y-119139781D01*
X192150830Y-119121368D01*
X192141651Y-119101962D01*
X192134419Y-119081750D01*
X192129203Y-119060926D01*
X192126053Y-119039691D01*
X192125000Y-119018250D01*
X192125000Y-118580750D01*
X192126053Y-118559309D01*
X192129203Y-118538074D01*
X192134419Y-118517250D01*
X192141651Y-118497038D01*
X192150830Y-118477632D01*
X192161866Y-118459219D01*
X192174654Y-118441976D01*
X192189070Y-118426070D01*
X192204976Y-118411654D01*
X192222219Y-118398866D01*
X192240632Y-118387830D01*
X192260038Y-118378651D01*
X192280250Y-118371419D01*
X192301074Y-118366203D01*
X192322309Y-118363053D01*
X192343750Y-118362000D01*
X192856250Y-118362000D01*
X192877691Y-118363053D01*
X192877691Y-118363053D01*
G37*
D11*
X192600000Y-118799500D03*
D10*
G36*
X192877691Y-116788053D02*
G01*
X192898926Y-116791203D01*
X192919750Y-116796419D01*
X192939962Y-116803651D01*
X192959368Y-116812830D01*
X192977781Y-116823866D01*
X192995024Y-116836654D01*
X193010930Y-116851070D01*
X193025346Y-116866976D01*
X193038134Y-116884219D01*
X193049170Y-116902632D01*
X193058349Y-116922038D01*
X193065581Y-116942250D01*
X193070797Y-116963074D01*
X193073947Y-116984309D01*
X193075000Y-117005750D01*
X193075000Y-117443250D01*
X193073947Y-117464691D01*
X193070797Y-117485926D01*
X193065581Y-117506750D01*
X193058349Y-117526962D01*
X193049170Y-117546368D01*
X193038134Y-117564781D01*
X193025346Y-117582024D01*
X193010930Y-117597930D01*
X192995024Y-117612346D01*
X192977781Y-117625134D01*
X192959368Y-117636170D01*
X192939962Y-117645349D01*
X192919750Y-117652581D01*
X192898926Y-117657797D01*
X192877691Y-117660947D01*
X192856250Y-117662000D01*
X192343750Y-117662000D01*
X192322309Y-117660947D01*
X192301074Y-117657797D01*
X192280250Y-117652581D01*
X192260038Y-117645349D01*
X192240632Y-117636170D01*
X192222219Y-117625134D01*
X192204976Y-117612346D01*
X192189070Y-117597930D01*
X192174654Y-117582024D01*
X192161866Y-117564781D01*
X192150830Y-117546368D01*
X192141651Y-117526962D01*
X192134419Y-117506750D01*
X192129203Y-117485926D01*
X192126053Y-117464691D01*
X192125000Y-117443250D01*
X192125000Y-117005750D01*
X192126053Y-116984309D01*
X192129203Y-116963074D01*
X192134419Y-116942250D01*
X192141651Y-116922038D01*
X192150830Y-116902632D01*
X192161866Y-116884219D01*
X192174654Y-116866976D01*
X192189070Y-116851070D01*
X192204976Y-116836654D01*
X192222219Y-116823866D01*
X192240632Y-116812830D01*
X192260038Y-116803651D01*
X192280250Y-116796419D01*
X192301074Y-116791203D01*
X192322309Y-116788053D01*
X192343750Y-116787000D01*
X192856250Y-116787000D01*
X192877691Y-116788053D01*
X192877691Y-116788053D01*
G37*
D11*
X192600000Y-117224500D03*
D10*
G36*
X194627691Y-118389053D02*
G01*
X194648926Y-118392203D01*
X194669750Y-118397419D01*
X194689962Y-118404651D01*
X194709368Y-118413830D01*
X194727781Y-118424866D01*
X194745024Y-118437654D01*
X194760930Y-118452070D01*
X194775346Y-118467976D01*
X194788134Y-118485219D01*
X194799170Y-118503632D01*
X194808349Y-118523038D01*
X194815581Y-118543250D01*
X194820797Y-118564074D01*
X194823947Y-118585309D01*
X194825000Y-118606750D01*
X194825000Y-119044250D01*
X194823947Y-119065691D01*
X194820797Y-119086926D01*
X194815581Y-119107750D01*
X194808349Y-119127962D01*
X194799170Y-119147368D01*
X194788134Y-119165781D01*
X194775346Y-119183024D01*
X194760930Y-119198930D01*
X194745024Y-119213346D01*
X194727781Y-119226134D01*
X194709368Y-119237170D01*
X194689962Y-119246349D01*
X194669750Y-119253581D01*
X194648926Y-119258797D01*
X194627691Y-119261947D01*
X194606250Y-119263000D01*
X194093750Y-119263000D01*
X194072309Y-119261947D01*
X194051074Y-119258797D01*
X194030250Y-119253581D01*
X194010038Y-119246349D01*
X193990632Y-119237170D01*
X193972219Y-119226134D01*
X193954976Y-119213346D01*
X193939070Y-119198930D01*
X193924654Y-119183024D01*
X193911866Y-119165781D01*
X193900830Y-119147368D01*
X193891651Y-119127962D01*
X193884419Y-119107750D01*
X193879203Y-119086926D01*
X193876053Y-119065691D01*
X193875000Y-119044250D01*
X193875000Y-118606750D01*
X193876053Y-118585309D01*
X193879203Y-118564074D01*
X193884419Y-118543250D01*
X193891651Y-118523038D01*
X193900830Y-118503632D01*
X193911866Y-118485219D01*
X193924654Y-118467976D01*
X193939070Y-118452070D01*
X193954976Y-118437654D01*
X193972219Y-118424866D01*
X193990632Y-118413830D01*
X194010038Y-118404651D01*
X194030250Y-118397419D01*
X194051074Y-118392203D01*
X194072309Y-118389053D01*
X194093750Y-118388000D01*
X194606250Y-118388000D01*
X194627691Y-118389053D01*
X194627691Y-118389053D01*
G37*
D11*
X194350000Y-118825500D03*
D10*
G36*
X194627691Y-116814053D02*
G01*
X194648926Y-116817203D01*
X194669750Y-116822419D01*
X194689962Y-116829651D01*
X194709368Y-116838830D01*
X194727781Y-116849866D01*
X194745024Y-116862654D01*
X194760930Y-116877070D01*
X194775346Y-116892976D01*
X194788134Y-116910219D01*
X194799170Y-116928632D01*
X194808349Y-116948038D01*
X194815581Y-116968250D01*
X194820797Y-116989074D01*
X194823947Y-117010309D01*
X194825000Y-117031750D01*
X194825000Y-117469250D01*
X194823947Y-117490691D01*
X194820797Y-117511926D01*
X194815581Y-117532750D01*
X194808349Y-117552962D01*
X194799170Y-117572368D01*
X194788134Y-117590781D01*
X194775346Y-117608024D01*
X194760930Y-117623930D01*
X194745024Y-117638346D01*
X194727781Y-117651134D01*
X194709368Y-117662170D01*
X194689962Y-117671349D01*
X194669750Y-117678581D01*
X194648926Y-117683797D01*
X194627691Y-117686947D01*
X194606250Y-117688000D01*
X194093750Y-117688000D01*
X194072309Y-117686947D01*
X194051074Y-117683797D01*
X194030250Y-117678581D01*
X194010038Y-117671349D01*
X193990632Y-117662170D01*
X193972219Y-117651134D01*
X193954976Y-117638346D01*
X193939070Y-117623930D01*
X193924654Y-117608024D01*
X193911866Y-117590781D01*
X193900830Y-117572368D01*
X193891651Y-117552962D01*
X193884419Y-117532750D01*
X193879203Y-117511926D01*
X193876053Y-117490691D01*
X193875000Y-117469250D01*
X193875000Y-117031750D01*
X193876053Y-117010309D01*
X193879203Y-116989074D01*
X193884419Y-116968250D01*
X193891651Y-116948038D01*
X193900830Y-116928632D01*
X193911866Y-116910219D01*
X193924654Y-116892976D01*
X193939070Y-116877070D01*
X193954976Y-116862654D01*
X193972219Y-116849866D01*
X193990632Y-116838830D01*
X194010038Y-116829651D01*
X194030250Y-116822419D01*
X194051074Y-116817203D01*
X194072309Y-116814053D01*
X194093750Y-116813000D01*
X194606250Y-116813000D01*
X194627691Y-116814053D01*
X194627691Y-116814053D01*
G37*
D11*
X194350000Y-117250500D03*
D10*
G36*
X191077691Y-116776053D02*
G01*
X191098926Y-116779203D01*
X191119750Y-116784419D01*
X191139962Y-116791651D01*
X191159368Y-116800830D01*
X191177781Y-116811866D01*
X191195024Y-116824654D01*
X191210930Y-116839070D01*
X191225346Y-116854976D01*
X191238134Y-116872219D01*
X191249170Y-116890632D01*
X191258349Y-116910038D01*
X191265581Y-116930250D01*
X191270797Y-116951074D01*
X191273947Y-116972309D01*
X191275000Y-116993750D01*
X191275000Y-117431250D01*
X191273947Y-117452691D01*
X191270797Y-117473926D01*
X191265581Y-117494750D01*
X191258349Y-117514962D01*
X191249170Y-117534368D01*
X191238134Y-117552781D01*
X191225346Y-117570024D01*
X191210930Y-117585930D01*
X191195024Y-117600346D01*
X191177781Y-117613134D01*
X191159368Y-117624170D01*
X191139962Y-117633349D01*
X191119750Y-117640581D01*
X191098926Y-117645797D01*
X191077691Y-117648947D01*
X191056250Y-117650000D01*
X190543750Y-117650000D01*
X190522309Y-117648947D01*
X190501074Y-117645797D01*
X190480250Y-117640581D01*
X190460038Y-117633349D01*
X190440632Y-117624170D01*
X190422219Y-117613134D01*
X190404976Y-117600346D01*
X190389070Y-117585930D01*
X190374654Y-117570024D01*
X190361866Y-117552781D01*
X190350830Y-117534368D01*
X190341651Y-117514962D01*
X190334419Y-117494750D01*
X190329203Y-117473926D01*
X190326053Y-117452691D01*
X190325000Y-117431250D01*
X190325000Y-116993750D01*
X190326053Y-116972309D01*
X190329203Y-116951074D01*
X190334419Y-116930250D01*
X190341651Y-116910038D01*
X190350830Y-116890632D01*
X190361866Y-116872219D01*
X190374654Y-116854976D01*
X190389070Y-116839070D01*
X190404976Y-116824654D01*
X190422219Y-116811866D01*
X190440632Y-116800830D01*
X190460038Y-116791651D01*
X190480250Y-116784419D01*
X190501074Y-116779203D01*
X190522309Y-116776053D01*
X190543750Y-116775000D01*
X191056250Y-116775000D01*
X191077691Y-116776053D01*
X191077691Y-116776053D01*
G37*
D11*
X190800000Y-117212500D03*
D10*
G36*
X191077691Y-118351053D02*
G01*
X191098926Y-118354203D01*
X191119750Y-118359419D01*
X191139962Y-118366651D01*
X191159368Y-118375830D01*
X191177781Y-118386866D01*
X191195024Y-118399654D01*
X191210930Y-118414070D01*
X191225346Y-118429976D01*
X191238134Y-118447219D01*
X191249170Y-118465632D01*
X191258349Y-118485038D01*
X191265581Y-118505250D01*
X191270797Y-118526074D01*
X191273947Y-118547309D01*
X191275000Y-118568750D01*
X191275000Y-119006250D01*
X191273947Y-119027691D01*
X191270797Y-119048926D01*
X191265581Y-119069750D01*
X191258349Y-119089962D01*
X191249170Y-119109368D01*
X191238134Y-119127781D01*
X191225346Y-119145024D01*
X191210930Y-119160930D01*
X191195024Y-119175346D01*
X191177781Y-119188134D01*
X191159368Y-119199170D01*
X191139962Y-119208349D01*
X191119750Y-119215581D01*
X191098926Y-119220797D01*
X191077691Y-119223947D01*
X191056250Y-119225000D01*
X190543750Y-119225000D01*
X190522309Y-119223947D01*
X190501074Y-119220797D01*
X190480250Y-119215581D01*
X190460038Y-119208349D01*
X190440632Y-119199170D01*
X190422219Y-119188134D01*
X190404976Y-119175346D01*
X190389070Y-119160930D01*
X190374654Y-119145024D01*
X190361866Y-119127781D01*
X190350830Y-119109368D01*
X190341651Y-119089962D01*
X190334419Y-119069750D01*
X190329203Y-119048926D01*
X190326053Y-119027691D01*
X190325000Y-119006250D01*
X190325000Y-118568750D01*
X190326053Y-118547309D01*
X190329203Y-118526074D01*
X190334419Y-118505250D01*
X190341651Y-118485038D01*
X190350830Y-118465632D01*
X190361866Y-118447219D01*
X190374654Y-118429976D01*
X190389070Y-118414070D01*
X190404976Y-118399654D01*
X190422219Y-118386866D01*
X190440632Y-118375830D01*
X190460038Y-118366651D01*
X190480250Y-118359419D01*
X190501074Y-118354203D01*
X190522309Y-118351053D01*
X190543750Y-118350000D01*
X191056250Y-118350000D01*
X191077691Y-118351053D01*
X191077691Y-118351053D01*
G37*
D11*
X190800000Y-118787500D03*
D15*
X194695000Y-114020000D03*
X194045000Y-114020000D03*
X193395000Y-114020000D03*
X192745000Y-114020000D03*
X192095000Y-114020000D03*
X191445000Y-114020000D03*
X190795000Y-114020000D03*
X190145000Y-114020000D03*
X190145000Y-108120000D03*
X190795000Y-108120000D03*
X191445000Y-108120000D03*
X192095000Y-108120000D03*
X192745000Y-108120000D03*
X193395000Y-108120000D03*
X194045000Y-108120000D03*
X194695000Y-108120000D03*
M02*
