G04 #@! TF.GenerationSoftware,KiCad,Pcbnew,(5.1.2)-1*
G04 #@! TF.CreationDate,2024-07-03T21:07:46+09:00*
G04 #@! TF.ProjectId,IR,49522e6b-6963-4616-945f-706362585858,v1.3*
G04 #@! TF.SameCoordinates,Original*
G04 #@! TF.FileFunction,Paste,Top*
G04 #@! TF.FilePolarity,Positive*
%FSLAX46Y46*%
G04 Gerber Fmt 4.6, Leading zero omitted, Abs format (unit mm)*
G04 Created by KiCad (PCBNEW (5.1.2)-1) date 2024-07-03 21:07:46*
%MOMM*%
%LPD*%
G04 APERTURE LIST*
%ADD10C,0.050000*%
%ADD11C,0.250000*%
%ADD12C,1.050000*%
%ADD13C,0.875000*%
%ADD14O,1.800000X1.524000*%
%ADD15R,4.500000X2.000000*%
G04 APERTURE END LIST*
D10*
G36*
X194853626Y-109375301D02*
G01*
X194859693Y-109376201D01*
X194865643Y-109377691D01*
X194871418Y-109379758D01*
X194876962Y-109382380D01*
X194882223Y-109385533D01*
X194887150Y-109389187D01*
X194891694Y-109393306D01*
X194895813Y-109397850D01*
X194899467Y-109402777D01*
X194902620Y-109408038D01*
X194905242Y-109413582D01*
X194907309Y-109419357D01*
X194908799Y-109425307D01*
X194909699Y-109431374D01*
X194910000Y-109437500D01*
X194910000Y-109562500D01*
X194909699Y-109568626D01*
X194908799Y-109574693D01*
X194907309Y-109580643D01*
X194905242Y-109586418D01*
X194902620Y-109591962D01*
X194899467Y-109597223D01*
X194895813Y-109602150D01*
X194891694Y-109606694D01*
X194887150Y-109610813D01*
X194882223Y-109614467D01*
X194876962Y-109617620D01*
X194871418Y-109620242D01*
X194865643Y-109622309D01*
X194859693Y-109623799D01*
X194853626Y-109624699D01*
X194847500Y-109625000D01*
X194147500Y-109625000D01*
X194141374Y-109624699D01*
X194135307Y-109623799D01*
X194129357Y-109622309D01*
X194123582Y-109620242D01*
X194118038Y-109617620D01*
X194112777Y-109614467D01*
X194107850Y-109610813D01*
X194103306Y-109606694D01*
X194099187Y-109602150D01*
X194095533Y-109597223D01*
X194092380Y-109591962D01*
X194089758Y-109586418D01*
X194087691Y-109580643D01*
X194086201Y-109574693D01*
X194085301Y-109568626D01*
X194085000Y-109562500D01*
X194085000Y-109437500D01*
X194085301Y-109431374D01*
X194086201Y-109425307D01*
X194087691Y-109419357D01*
X194089758Y-109413582D01*
X194092380Y-109408038D01*
X194095533Y-109402777D01*
X194099187Y-109397850D01*
X194103306Y-109393306D01*
X194107850Y-109389187D01*
X194112777Y-109385533D01*
X194118038Y-109382380D01*
X194123582Y-109379758D01*
X194129357Y-109377691D01*
X194135307Y-109376201D01*
X194141374Y-109375301D01*
X194147500Y-109375000D01*
X194847500Y-109375000D01*
X194853626Y-109375301D01*
X194853626Y-109375301D01*
G37*
D11*
X194497500Y-109500000D03*
D10*
G36*
X194853626Y-109875301D02*
G01*
X194859693Y-109876201D01*
X194865643Y-109877691D01*
X194871418Y-109879758D01*
X194876962Y-109882380D01*
X194882223Y-109885533D01*
X194887150Y-109889187D01*
X194891694Y-109893306D01*
X194895813Y-109897850D01*
X194899467Y-109902777D01*
X194902620Y-109908038D01*
X194905242Y-109913582D01*
X194907309Y-109919357D01*
X194908799Y-109925307D01*
X194909699Y-109931374D01*
X194910000Y-109937500D01*
X194910000Y-110062500D01*
X194909699Y-110068626D01*
X194908799Y-110074693D01*
X194907309Y-110080643D01*
X194905242Y-110086418D01*
X194902620Y-110091962D01*
X194899467Y-110097223D01*
X194895813Y-110102150D01*
X194891694Y-110106694D01*
X194887150Y-110110813D01*
X194882223Y-110114467D01*
X194876962Y-110117620D01*
X194871418Y-110120242D01*
X194865643Y-110122309D01*
X194859693Y-110123799D01*
X194853626Y-110124699D01*
X194847500Y-110125000D01*
X194147500Y-110125000D01*
X194141374Y-110124699D01*
X194135307Y-110123799D01*
X194129357Y-110122309D01*
X194123582Y-110120242D01*
X194118038Y-110117620D01*
X194112777Y-110114467D01*
X194107850Y-110110813D01*
X194103306Y-110106694D01*
X194099187Y-110102150D01*
X194095533Y-110097223D01*
X194092380Y-110091962D01*
X194089758Y-110086418D01*
X194087691Y-110080643D01*
X194086201Y-110074693D01*
X194085301Y-110068626D01*
X194085000Y-110062500D01*
X194085000Y-109937500D01*
X194085301Y-109931374D01*
X194086201Y-109925307D01*
X194087691Y-109919357D01*
X194089758Y-109913582D01*
X194092380Y-109908038D01*
X194095533Y-109902777D01*
X194099187Y-109897850D01*
X194103306Y-109893306D01*
X194107850Y-109889187D01*
X194112777Y-109885533D01*
X194118038Y-109882380D01*
X194123582Y-109879758D01*
X194129357Y-109877691D01*
X194135307Y-109876201D01*
X194141374Y-109875301D01*
X194147500Y-109875000D01*
X194847500Y-109875000D01*
X194853626Y-109875301D01*
X194853626Y-109875301D01*
G37*
D11*
X194497500Y-110000000D03*
D10*
G36*
X194853626Y-110375301D02*
G01*
X194859693Y-110376201D01*
X194865643Y-110377691D01*
X194871418Y-110379758D01*
X194876962Y-110382380D01*
X194882223Y-110385533D01*
X194887150Y-110389187D01*
X194891694Y-110393306D01*
X194895813Y-110397850D01*
X194899467Y-110402777D01*
X194902620Y-110408038D01*
X194905242Y-110413582D01*
X194907309Y-110419357D01*
X194908799Y-110425307D01*
X194909699Y-110431374D01*
X194910000Y-110437500D01*
X194910000Y-110562500D01*
X194909699Y-110568626D01*
X194908799Y-110574693D01*
X194907309Y-110580643D01*
X194905242Y-110586418D01*
X194902620Y-110591962D01*
X194899467Y-110597223D01*
X194895813Y-110602150D01*
X194891694Y-110606694D01*
X194887150Y-110610813D01*
X194882223Y-110614467D01*
X194876962Y-110617620D01*
X194871418Y-110620242D01*
X194865643Y-110622309D01*
X194859693Y-110623799D01*
X194853626Y-110624699D01*
X194847500Y-110625000D01*
X194147500Y-110625000D01*
X194141374Y-110624699D01*
X194135307Y-110623799D01*
X194129357Y-110622309D01*
X194123582Y-110620242D01*
X194118038Y-110617620D01*
X194112777Y-110614467D01*
X194107850Y-110610813D01*
X194103306Y-110606694D01*
X194099187Y-110602150D01*
X194095533Y-110597223D01*
X194092380Y-110591962D01*
X194089758Y-110586418D01*
X194087691Y-110580643D01*
X194086201Y-110574693D01*
X194085301Y-110568626D01*
X194085000Y-110562500D01*
X194085000Y-110437500D01*
X194085301Y-110431374D01*
X194086201Y-110425307D01*
X194087691Y-110419357D01*
X194089758Y-110413582D01*
X194092380Y-110408038D01*
X194095533Y-110402777D01*
X194099187Y-110397850D01*
X194103306Y-110393306D01*
X194107850Y-110389187D01*
X194112777Y-110385533D01*
X194118038Y-110382380D01*
X194123582Y-110379758D01*
X194129357Y-110377691D01*
X194135307Y-110376201D01*
X194141374Y-110375301D01*
X194147500Y-110375000D01*
X194847500Y-110375000D01*
X194853626Y-110375301D01*
X194853626Y-110375301D01*
G37*
D11*
X194497500Y-110500000D03*
D10*
G36*
X194853626Y-110875301D02*
G01*
X194859693Y-110876201D01*
X194865643Y-110877691D01*
X194871418Y-110879758D01*
X194876962Y-110882380D01*
X194882223Y-110885533D01*
X194887150Y-110889187D01*
X194891694Y-110893306D01*
X194895813Y-110897850D01*
X194899467Y-110902777D01*
X194902620Y-110908038D01*
X194905242Y-110913582D01*
X194907309Y-110919357D01*
X194908799Y-110925307D01*
X194909699Y-110931374D01*
X194910000Y-110937500D01*
X194910000Y-111062500D01*
X194909699Y-111068626D01*
X194908799Y-111074693D01*
X194907309Y-111080643D01*
X194905242Y-111086418D01*
X194902620Y-111091962D01*
X194899467Y-111097223D01*
X194895813Y-111102150D01*
X194891694Y-111106694D01*
X194887150Y-111110813D01*
X194882223Y-111114467D01*
X194876962Y-111117620D01*
X194871418Y-111120242D01*
X194865643Y-111122309D01*
X194859693Y-111123799D01*
X194853626Y-111124699D01*
X194847500Y-111125000D01*
X194147500Y-111125000D01*
X194141374Y-111124699D01*
X194135307Y-111123799D01*
X194129357Y-111122309D01*
X194123582Y-111120242D01*
X194118038Y-111117620D01*
X194112777Y-111114467D01*
X194107850Y-111110813D01*
X194103306Y-111106694D01*
X194099187Y-111102150D01*
X194095533Y-111097223D01*
X194092380Y-111091962D01*
X194089758Y-111086418D01*
X194087691Y-111080643D01*
X194086201Y-111074693D01*
X194085301Y-111068626D01*
X194085000Y-111062500D01*
X194085000Y-110937500D01*
X194085301Y-110931374D01*
X194086201Y-110925307D01*
X194087691Y-110919357D01*
X194089758Y-110913582D01*
X194092380Y-110908038D01*
X194095533Y-110902777D01*
X194099187Y-110897850D01*
X194103306Y-110893306D01*
X194107850Y-110889187D01*
X194112777Y-110885533D01*
X194118038Y-110882380D01*
X194123582Y-110879758D01*
X194129357Y-110877691D01*
X194135307Y-110876201D01*
X194141374Y-110875301D01*
X194147500Y-110875000D01*
X194847500Y-110875000D01*
X194853626Y-110875301D01*
X194853626Y-110875301D01*
G37*
D11*
X194497500Y-111000000D03*
D10*
G36*
X194853626Y-111375301D02*
G01*
X194859693Y-111376201D01*
X194865643Y-111377691D01*
X194871418Y-111379758D01*
X194876962Y-111382380D01*
X194882223Y-111385533D01*
X194887150Y-111389187D01*
X194891694Y-111393306D01*
X194895813Y-111397850D01*
X194899467Y-111402777D01*
X194902620Y-111408038D01*
X194905242Y-111413582D01*
X194907309Y-111419357D01*
X194908799Y-111425307D01*
X194909699Y-111431374D01*
X194910000Y-111437500D01*
X194910000Y-111562500D01*
X194909699Y-111568626D01*
X194908799Y-111574693D01*
X194907309Y-111580643D01*
X194905242Y-111586418D01*
X194902620Y-111591962D01*
X194899467Y-111597223D01*
X194895813Y-111602150D01*
X194891694Y-111606694D01*
X194887150Y-111610813D01*
X194882223Y-111614467D01*
X194876962Y-111617620D01*
X194871418Y-111620242D01*
X194865643Y-111622309D01*
X194859693Y-111623799D01*
X194853626Y-111624699D01*
X194847500Y-111625000D01*
X194147500Y-111625000D01*
X194141374Y-111624699D01*
X194135307Y-111623799D01*
X194129357Y-111622309D01*
X194123582Y-111620242D01*
X194118038Y-111617620D01*
X194112777Y-111614467D01*
X194107850Y-111610813D01*
X194103306Y-111606694D01*
X194099187Y-111602150D01*
X194095533Y-111597223D01*
X194092380Y-111591962D01*
X194089758Y-111586418D01*
X194087691Y-111580643D01*
X194086201Y-111574693D01*
X194085301Y-111568626D01*
X194085000Y-111562500D01*
X194085000Y-111437500D01*
X194085301Y-111431374D01*
X194086201Y-111425307D01*
X194087691Y-111419357D01*
X194089758Y-111413582D01*
X194092380Y-111408038D01*
X194095533Y-111402777D01*
X194099187Y-111397850D01*
X194103306Y-111393306D01*
X194107850Y-111389187D01*
X194112777Y-111385533D01*
X194118038Y-111382380D01*
X194123582Y-111379758D01*
X194129357Y-111377691D01*
X194135307Y-111376201D01*
X194141374Y-111375301D01*
X194147500Y-111375000D01*
X194847500Y-111375000D01*
X194853626Y-111375301D01*
X194853626Y-111375301D01*
G37*
D11*
X194497500Y-111500000D03*
D10*
G36*
X194853626Y-111875301D02*
G01*
X194859693Y-111876201D01*
X194865643Y-111877691D01*
X194871418Y-111879758D01*
X194876962Y-111882380D01*
X194882223Y-111885533D01*
X194887150Y-111889187D01*
X194891694Y-111893306D01*
X194895813Y-111897850D01*
X194899467Y-111902777D01*
X194902620Y-111908038D01*
X194905242Y-111913582D01*
X194907309Y-111919357D01*
X194908799Y-111925307D01*
X194909699Y-111931374D01*
X194910000Y-111937500D01*
X194910000Y-112062500D01*
X194909699Y-112068626D01*
X194908799Y-112074693D01*
X194907309Y-112080643D01*
X194905242Y-112086418D01*
X194902620Y-112091962D01*
X194899467Y-112097223D01*
X194895813Y-112102150D01*
X194891694Y-112106694D01*
X194887150Y-112110813D01*
X194882223Y-112114467D01*
X194876962Y-112117620D01*
X194871418Y-112120242D01*
X194865643Y-112122309D01*
X194859693Y-112123799D01*
X194853626Y-112124699D01*
X194847500Y-112125000D01*
X194147500Y-112125000D01*
X194141374Y-112124699D01*
X194135307Y-112123799D01*
X194129357Y-112122309D01*
X194123582Y-112120242D01*
X194118038Y-112117620D01*
X194112777Y-112114467D01*
X194107850Y-112110813D01*
X194103306Y-112106694D01*
X194099187Y-112102150D01*
X194095533Y-112097223D01*
X194092380Y-112091962D01*
X194089758Y-112086418D01*
X194087691Y-112080643D01*
X194086201Y-112074693D01*
X194085301Y-112068626D01*
X194085000Y-112062500D01*
X194085000Y-111937500D01*
X194085301Y-111931374D01*
X194086201Y-111925307D01*
X194087691Y-111919357D01*
X194089758Y-111913582D01*
X194092380Y-111908038D01*
X194095533Y-111902777D01*
X194099187Y-111897850D01*
X194103306Y-111893306D01*
X194107850Y-111889187D01*
X194112777Y-111885533D01*
X194118038Y-111882380D01*
X194123582Y-111879758D01*
X194129357Y-111877691D01*
X194135307Y-111876201D01*
X194141374Y-111875301D01*
X194147500Y-111875000D01*
X194847500Y-111875000D01*
X194853626Y-111875301D01*
X194853626Y-111875301D01*
G37*
D11*
X194497500Y-112000000D03*
D10*
G36*
X193878626Y-112275301D02*
G01*
X193884693Y-112276201D01*
X193890643Y-112277691D01*
X193896418Y-112279758D01*
X193901962Y-112282380D01*
X193907223Y-112285533D01*
X193912150Y-112289187D01*
X193916694Y-112293306D01*
X193920813Y-112297850D01*
X193924467Y-112302777D01*
X193927620Y-112308038D01*
X193930242Y-112313582D01*
X193932309Y-112319357D01*
X193933799Y-112325307D01*
X193934699Y-112331374D01*
X193935000Y-112337500D01*
X193935000Y-113037500D01*
X193934699Y-113043626D01*
X193933799Y-113049693D01*
X193932309Y-113055643D01*
X193930242Y-113061418D01*
X193927620Y-113066962D01*
X193924467Y-113072223D01*
X193920813Y-113077150D01*
X193916694Y-113081694D01*
X193912150Y-113085813D01*
X193907223Y-113089467D01*
X193901962Y-113092620D01*
X193896418Y-113095242D01*
X193890643Y-113097309D01*
X193884693Y-113098799D01*
X193878626Y-113099699D01*
X193872500Y-113100000D01*
X193747500Y-113100000D01*
X193741374Y-113099699D01*
X193735307Y-113098799D01*
X193729357Y-113097309D01*
X193723582Y-113095242D01*
X193718038Y-113092620D01*
X193712777Y-113089467D01*
X193707850Y-113085813D01*
X193703306Y-113081694D01*
X193699187Y-113077150D01*
X193695533Y-113072223D01*
X193692380Y-113066962D01*
X193689758Y-113061418D01*
X193687691Y-113055643D01*
X193686201Y-113049693D01*
X193685301Y-113043626D01*
X193685000Y-113037500D01*
X193685000Y-112337500D01*
X193685301Y-112331374D01*
X193686201Y-112325307D01*
X193687691Y-112319357D01*
X193689758Y-112313582D01*
X193692380Y-112308038D01*
X193695533Y-112302777D01*
X193699187Y-112297850D01*
X193703306Y-112293306D01*
X193707850Y-112289187D01*
X193712777Y-112285533D01*
X193718038Y-112282380D01*
X193723582Y-112279758D01*
X193729357Y-112277691D01*
X193735307Y-112276201D01*
X193741374Y-112275301D01*
X193747500Y-112275000D01*
X193872500Y-112275000D01*
X193878626Y-112275301D01*
X193878626Y-112275301D01*
G37*
D11*
X193810000Y-112687500D03*
D10*
G36*
X193378626Y-112275301D02*
G01*
X193384693Y-112276201D01*
X193390643Y-112277691D01*
X193396418Y-112279758D01*
X193401962Y-112282380D01*
X193407223Y-112285533D01*
X193412150Y-112289187D01*
X193416694Y-112293306D01*
X193420813Y-112297850D01*
X193424467Y-112302777D01*
X193427620Y-112308038D01*
X193430242Y-112313582D01*
X193432309Y-112319357D01*
X193433799Y-112325307D01*
X193434699Y-112331374D01*
X193435000Y-112337500D01*
X193435000Y-113037500D01*
X193434699Y-113043626D01*
X193433799Y-113049693D01*
X193432309Y-113055643D01*
X193430242Y-113061418D01*
X193427620Y-113066962D01*
X193424467Y-113072223D01*
X193420813Y-113077150D01*
X193416694Y-113081694D01*
X193412150Y-113085813D01*
X193407223Y-113089467D01*
X193401962Y-113092620D01*
X193396418Y-113095242D01*
X193390643Y-113097309D01*
X193384693Y-113098799D01*
X193378626Y-113099699D01*
X193372500Y-113100000D01*
X193247500Y-113100000D01*
X193241374Y-113099699D01*
X193235307Y-113098799D01*
X193229357Y-113097309D01*
X193223582Y-113095242D01*
X193218038Y-113092620D01*
X193212777Y-113089467D01*
X193207850Y-113085813D01*
X193203306Y-113081694D01*
X193199187Y-113077150D01*
X193195533Y-113072223D01*
X193192380Y-113066962D01*
X193189758Y-113061418D01*
X193187691Y-113055643D01*
X193186201Y-113049693D01*
X193185301Y-113043626D01*
X193185000Y-113037500D01*
X193185000Y-112337500D01*
X193185301Y-112331374D01*
X193186201Y-112325307D01*
X193187691Y-112319357D01*
X193189758Y-112313582D01*
X193192380Y-112308038D01*
X193195533Y-112302777D01*
X193199187Y-112297850D01*
X193203306Y-112293306D01*
X193207850Y-112289187D01*
X193212777Y-112285533D01*
X193218038Y-112282380D01*
X193223582Y-112279758D01*
X193229357Y-112277691D01*
X193235307Y-112276201D01*
X193241374Y-112275301D01*
X193247500Y-112275000D01*
X193372500Y-112275000D01*
X193378626Y-112275301D01*
X193378626Y-112275301D01*
G37*
D11*
X193310000Y-112687500D03*
D10*
G36*
X192878626Y-112275301D02*
G01*
X192884693Y-112276201D01*
X192890643Y-112277691D01*
X192896418Y-112279758D01*
X192901962Y-112282380D01*
X192907223Y-112285533D01*
X192912150Y-112289187D01*
X192916694Y-112293306D01*
X192920813Y-112297850D01*
X192924467Y-112302777D01*
X192927620Y-112308038D01*
X192930242Y-112313582D01*
X192932309Y-112319357D01*
X192933799Y-112325307D01*
X192934699Y-112331374D01*
X192935000Y-112337500D01*
X192935000Y-113037500D01*
X192934699Y-113043626D01*
X192933799Y-113049693D01*
X192932309Y-113055643D01*
X192930242Y-113061418D01*
X192927620Y-113066962D01*
X192924467Y-113072223D01*
X192920813Y-113077150D01*
X192916694Y-113081694D01*
X192912150Y-113085813D01*
X192907223Y-113089467D01*
X192901962Y-113092620D01*
X192896418Y-113095242D01*
X192890643Y-113097309D01*
X192884693Y-113098799D01*
X192878626Y-113099699D01*
X192872500Y-113100000D01*
X192747500Y-113100000D01*
X192741374Y-113099699D01*
X192735307Y-113098799D01*
X192729357Y-113097309D01*
X192723582Y-113095242D01*
X192718038Y-113092620D01*
X192712777Y-113089467D01*
X192707850Y-113085813D01*
X192703306Y-113081694D01*
X192699187Y-113077150D01*
X192695533Y-113072223D01*
X192692380Y-113066962D01*
X192689758Y-113061418D01*
X192687691Y-113055643D01*
X192686201Y-113049693D01*
X192685301Y-113043626D01*
X192685000Y-113037500D01*
X192685000Y-112337500D01*
X192685301Y-112331374D01*
X192686201Y-112325307D01*
X192687691Y-112319357D01*
X192689758Y-112313582D01*
X192692380Y-112308038D01*
X192695533Y-112302777D01*
X192699187Y-112297850D01*
X192703306Y-112293306D01*
X192707850Y-112289187D01*
X192712777Y-112285533D01*
X192718038Y-112282380D01*
X192723582Y-112279758D01*
X192729357Y-112277691D01*
X192735307Y-112276201D01*
X192741374Y-112275301D01*
X192747500Y-112275000D01*
X192872500Y-112275000D01*
X192878626Y-112275301D01*
X192878626Y-112275301D01*
G37*
D11*
X192810000Y-112687500D03*
D10*
G36*
X192378626Y-112275301D02*
G01*
X192384693Y-112276201D01*
X192390643Y-112277691D01*
X192396418Y-112279758D01*
X192401962Y-112282380D01*
X192407223Y-112285533D01*
X192412150Y-112289187D01*
X192416694Y-112293306D01*
X192420813Y-112297850D01*
X192424467Y-112302777D01*
X192427620Y-112308038D01*
X192430242Y-112313582D01*
X192432309Y-112319357D01*
X192433799Y-112325307D01*
X192434699Y-112331374D01*
X192435000Y-112337500D01*
X192435000Y-113037500D01*
X192434699Y-113043626D01*
X192433799Y-113049693D01*
X192432309Y-113055643D01*
X192430242Y-113061418D01*
X192427620Y-113066962D01*
X192424467Y-113072223D01*
X192420813Y-113077150D01*
X192416694Y-113081694D01*
X192412150Y-113085813D01*
X192407223Y-113089467D01*
X192401962Y-113092620D01*
X192396418Y-113095242D01*
X192390643Y-113097309D01*
X192384693Y-113098799D01*
X192378626Y-113099699D01*
X192372500Y-113100000D01*
X192247500Y-113100000D01*
X192241374Y-113099699D01*
X192235307Y-113098799D01*
X192229357Y-113097309D01*
X192223582Y-113095242D01*
X192218038Y-113092620D01*
X192212777Y-113089467D01*
X192207850Y-113085813D01*
X192203306Y-113081694D01*
X192199187Y-113077150D01*
X192195533Y-113072223D01*
X192192380Y-113066962D01*
X192189758Y-113061418D01*
X192187691Y-113055643D01*
X192186201Y-113049693D01*
X192185301Y-113043626D01*
X192185000Y-113037500D01*
X192185000Y-112337500D01*
X192185301Y-112331374D01*
X192186201Y-112325307D01*
X192187691Y-112319357D01*
X192189758Y-112313582D01*
X192192380Y-112308038D01*
X192195533Y-112302777D01*
X192199187Y-112297850D01*
X192203306Y-112293306D01*
X192207850Y-112289187D01*
X192212777Y-112285533D01*
X192218038Y-112282380D01*
X192223582Y-112279758D01*
X192229357Y-112277691D01*
X192235307Y-112276201D01*
X192241374Y-112275301D01*
X192247500Y-112275000D01*
X192372500Y-112275000D01*
X192378626Y-112275301D01*
X192378626Y-112275301D01*
G37*
D11*
X192310000Y-112687500D03*
D10*
G36*
X191878626Y-112275301D02*
G01*
X191884693Y-112276201D01*
X191890643Y-112277691D01*
X191896418Y-112279758D01*
X191901962Y-112282380D01*
X191907223Y-112285533D01*
X191912150Y-112289187D01*
X191916694Y-112293306D01*
X191920813Y-112297850D01*
X191924467Y-112302777D01*
X191927620Y-112308038D01*
X191930242Y-112313582D01*
X191932309Y-112319357D01*
X191933799Y-112325307D01*
X191934699Y-112331374D01*
X191935000Y-112337500D01*
X191935000Y-113037500D01*
X191934699Y-113043626D01*
X191933799Y-113049693D01*
X191932309Y-113055643D01*
X191930242Y-113061418D01*
X191927620Y-113066962D01*
X191924467Y-113072223D01*
X191920813Y-113077150D01*
X191916694Y-113081694D01*
X191912150Y-113085813D01*
X191907223Y-113089467D01*
X191901962Y-113092620D01*
X191896418Y-113095242D01*
X191890643Y-113097309D01*
X191884693Y-113098799D01*
X191878626Y-113099699D01*
X191872500Y-113100000D01*
X191747500Y-113100000D01*
X191741374Y-113099699D01*
X191735307Y-113098799D01*
X191729357Y-113097309D01*
X191723582Y-113095242D01*
X191718038Y-113092620D01*
X191712777Y-113089467D01*
X191707850Y-113085813D01*
X191703306Y-113081694D01*
X191699187Y-113077150D01*
X191695533Y-113072223D01*
X191692380Y-113066962D01*
X191689758Y-113061418D01*
X191687691Y-113055643D01*
X191686201Y-113049693D01*
X191685301Y-113043626D01*
X191685000Y-113037500D01*
X191685000Y-112337500D01*
X191685301Y-112331374D01*
X191686201Y-112325307D01*
X191687691Y-112319357D01*
X191689758Y-112313582D01*
X191692380Y-112308038D01*
X191695533Y-112302777D01*
X191699187Y-112297850D01*
X191703306Y-112293306D01*
X191707850Y-112289187D01*
X191712777Y-112285533D01*
X191718038Y-112282380D01*
X191723582Y-112279758D01*
X191729357Y-112277691D01*
X191735307Y-112276201D01*
X191741374Y-112275301D01*
X191747500Y-112275000D01*
X191872500Y-112275000D01*
X191878626Y-112275301D01*
X191878626Y-112275301D01*
G37*
D11*
X191810000Y-112687500D03*
D10*
G36*
X191378626Y-112275301D02*
G01*
X191384693Y-112276201D01*
X191390643Y-112277691D01*
X191396418Y-112279758D01*
X191401962Y-112282380D01*
X191407223Y-112285533D01*
X191412150Y-112289187D01*
X191416694Y-112293306D01*
X191420813Y-112297850D01*
X191424467Y-112302777D01*
X191427620Y-112308038D01*
X191430242Y-112313582D01*
X191432309Y-112319357D01*
X191433799Y-112325307D01*
X191434699Y-112331374D01*
X191435000Y-112337500D01*
X191435000Y-113037500D01*
X191434699Y-113043626D01*
X191433799Y-113049693D01*
X191432309Y-113055643D01*
X191430242Y-113061418D01*
X191427620Y-113066962D01*
X191424467Y-113072223D01*
X191420813Y-113077150D01*
X191416694Y-113081694D01*
X191412150Y-113085813D01*
X191407223Y-113089467D01*
X191401962Y-113092620D01*
X191396418Y-113095242D01*
X191390643Y-113097309D01*
X191384693Y-113098799D01*
X191378626Y-113099699D01*
X191372500Y-113100000D01*
X191247500Y-113100000D01*
X191241374Y-113099699D01*
X191235307Y-113098799D01*
X191229357Y-113097309D01*
X191223582Y-113095242D01*
X191218038Y-113092620D01*
X191212777Y-113089467D01*
X191207850Y-113085813D01*
X191203306Y-113081694D01*
X191199187Y-113077150D01*
X191195533Y-113072223D01*
X191192380Y-113066962D01*
X191189758Y-113061418D01*
X191187691Y-113055643D01*
X191186201Y-113049693D01*
X191185301Y-113043626D01*
X191185000Y-113037500D01*
X191185000Y-112337500D01*
X191185301Y-112331374D01*
X191186201Y-112325307D01*
X191187691Y-112319357D01*
X191189758Y-112313582D01*
X191192380Y-112308038D01*
X191195533Y-112302777D01*
X191199187Y-112297850D01*
X191203306Y-112293306D01*
X191207850Y-112289187D01*
X191212777Y-112285533D01*
X191218038Y-112282380D01*
X191223582Y-112279758D01*
X191229357Y-112277691D01*
X191235307Y-112276201D01*
X191241374Y-112275301D01*
X191247500Y-112275000D01*
X191372500Y-112275000D01*
X191378626Y-112275301D01*
X191378626Y-112275301D01*
G37*
D11*
X191310000Y-112687500D03*
D10*
G36*
X190978626Y-111875301D02*
G01*
X190984693Y-111876201D01*
X190990643Y-111877691D01*
X190996418Y-111879758D01*
X191001962Y-111882380D01*
X191007223Y-111885533D01*
X191012150Y-111889187D01*
X191016694Y-111893306D01*
X191020813Y-111897850D01*
X191024467Y-111902777D01*
X191027620Y-111908038D01*
X191030242Y-111913582D01*
X191032309Y-111919357D01*
X191033799Y-111925307D01*
X191034699Y-111931374D01*
X191035000Y-111937500D01*
X191035000Y-112062500D01*
X191034699Y-112068626D01*
X191033799Y-112074693D01*
X191032309Y-112080643D01*
X191030242Y-112086418D01*
X191027620Y-112091962D01*
X191024467Y-112097223D01*
X191020813Y-112102150D01*
X191016694Y-112106694D01*
X191012150Y-112110813D01*
X191007223Y-112114467D01*
X191001962Y-112117620D01*
X190996418Y-112120242D01*
X190990643Y-112122309D01*
X190984693Y-112123799D01*
X190978626Y-112124699D01*
X190972500Y-112125000D01*
X190272500Y-112125000D01*
X190266374Y-112124699D01*
X190260307Y-112123799D01*
X190254357Y-112122309D01*
X190248582Y-112120242D01*
X190243038Y-112117620D01*
X190237777Y-112114467D01*
X190232850Y-112110813D01*
X190228306Y-112106694D01*
X190224187Y-112102150D01*
X190220533Y-112097223D01*
X190217380Y-112091962D01*
X190214758Y-112086418D01*
X190212691Y-112080643D01*
X190211201Y-112074693D01*
X190210301Y-112068626D01*
X190210000Y-112062500D01*
X190210000Y-111937500D01*
X190210301Y-111931374D01*
X190211201Y-111925307D01*
X190212691Y-111919357D01*
X190214758Y-111913582D01*
X190217380Y-111908038D01*
X190220533Y-111902777D01*
X190224187Y-111897850D01*
X190228306Y-111893306D01*
X190232850Y-111889187D01*
X190237777Y-111885533D01*
X190243038Y-111882380D01*
X190248582Y-111879758D01*
X190254357Y-111877691D01*
X190260307Y-111876201D01*
X190266374Y-111875301D01*
X190272500Y-111875000D01*
X190972500Y-111875000D01*
X190978626Y-111875301D01*
X190978626Y-111875301D01*
G37*
D11*
X190622500Y-112000000D03*
D10*
G36*
X190978626Y-111375301D02*
G01*
X190984693Y-111376201D01*
X190990643Y-111377691D01*
X190996418Y-111379758D01*
X191001962Y-111382380D01*
X191007223Y-111385533D01*
X191012150Y-111389187D01*
X191016694Y-111393306D01*
X191020813Y-111397850D01*
X191024467Y-111402777D01*
X191027620Y-111408038D01*
X191030242Y-111413582D01*
X191032309Y-111419357D01*
X191033799Y-111425307D01*
X191034699Y-111431374D01*
X191035000Y-111437500D01*
X191035000Y-111562500D01*
X191034699Y-111568626D01*
X191033799Y-111574693D01*
X191032309Y-111580643D01*
X191030242Y-111586418D01*
X191027620Y-111591962D01*
X191024467Y-111597223D01*
X191020813Y-111602150D01*
X191016694Y-111606694D01*
X191012150Y-111610813D01*
X191007223Y-111614467D01*
X191001962Y-111617620D01*
X190996418Y-111620242D01*
X190990643Y-111622309D01*
X190984693Y-111623799D01*
X190978626Y-111624699D01*
X190972500Y-111625000D01*
X190272500Y-111625000D01*
X190266374Y-111624699D01*
X190260307Y-111623799D01*
X190254357Y-111622309D01*
X190248582Y-111620242D01*
X190243038Y-111617620D01*
X190237777Y-111614467D01*
X190232850Y-111610813D01*
X190228306Y-111606694D01*
X190224187Y-111602150D01*
X190220533Y-111597223D01*
X190217380Y-111591962D01*
X190214758Y-111586418D01*
X190212691Y-111580643D01*
X190211201Y-111574693D01*
X190210301Y-111568626D01*
X190210000Y-111562500D01*
X190210000Y-111437500D01*
X190210301Y-111431374D01*
X190211201Y-111425307D01*
X190212691Y-111419357D01*
X190214758Y-111413582D01*
X190217380Y-111408038D01*
X190220533Y-111402777D01*
X190224187Y-111397850D01*
X190228306Y-111393306D01*
X190232850Y-111389187D01*
X190237777Y-111385533D01*
X190243038Y-111382380D01*
X190248582Y-111379758D01*
X190254357Y-111377691D01*
X190260307Y-111376201D01*
X190266374Y-111375301D01*
X190272500Y-111375000D01*
X190972500Y-111375000D01*
X190978626Y-111375301D01*
X190978626Y-111375301D01*
G37*
D11*
X190622500Y-111500000D03*
D10*
G36*
X190978626Y-110875301D02*
G01*
X190984693Y-110876201D01*
X190990643Y-110877691D01*
X190996418Y-110879758D01*
X191001962Y-110882380D01*
X191007223Y-110885533D01*
X191012150Y-110889187D01*
X191016694Y-110893306D01*
X191020813Y-110897850D01*
X191024467Y-110902777D01*
X191027620Y-110908038D01*
X191030242Y-110913582D01*
X191032309Y-110919357D01*
X191033799Y-110925307D01*
X191034699Y-110931374D01*
X191035000Y-110937500D01*
X191035000Y-111062500D01*
X191034699Y-111068626D01*
X191033799Y-111074693D01*
X191032309Y-111080643D01*
X191030242Y-111086418D01*
X191027620Y-111091962D01*
X191024467Y-111097223D01*
X191020813Y-111102150D01*
X191016694Y-111106694D01*
X191012150Y-111110813D01*
X191007223Y-111114467D01*
X191001962Y-111117620D01*
X190996418Y-111120242D01*
X190990643Y-111122309D01*
X190984693Y-111123799D01*
X190978626Y-111124699D01*
X190972500Y-111125000D01*
X190272500Y-111125000D01*
X190266374Y-111124699D01*
X190260307Y-111123799D01*
X190254357Y-111122309D01*
X190248582Y-111120242D01*
X190243038Y-111117620D01*
X190237777Y-111114467D01*
X190232850Y-111110813D01*
X190228306Y-111106694D01*
X190224187Y-111102150D01*
X190220533Y-111097223D01*
X190217380Y-111091962D01*
X190214758Y-111086418D01*
X190212691Y-111080643D01*
X190211201Y-111074693D01*
X190210301Y-111068626D01*
X190210000Y-111062500D01*
X190210000Y-110937500D01*
X190210301Y-110931374D01*
X190211201Y-110925307D01*
X190212691Y-110919357D01*
X190214758Y-110913582D01*
X190217380Y-110908038D01*
X190220533Y-110902777D01*
X190224187Y-110897850D01*
X190228306Y-110893306D01*
X190232850Y-110889187D01*
X190237777Y-110885533D01*
X190243038Y-110882380D01*
X190248582Y-110879758D01*
X190254357Y-110877691D01*
X190260307Y-110876201D01*
X190266374Y-110875301D01*
X190272500Y-110875000D01*
X190972500Y-110875000D01*
X190978626Y-110875301D01*
X190978626Y-110875301D01*
G37*
D11*
X190622500Y-111000000D03*
D10*
G36*
X190978626Y-110375301D02*
G01*
X190984693Y-110376201D01*
X190990643Y-110377691D01*
X190996418Y-110379758D01*
X191001962Y-110382380D01*
X191007223Y-110385533D01*
X191012150Y-110389187D01*
X191016694Y-110393306D01*
X191020813Y-110397850D01*
X191024467Y-110402777D01*
X191027620Y-110408038D01*
X191030242Y-110413582D01*
X191032309Y-110419357D01*
X191033799Y-110425307D01*
X191034699Y-110431374D01*
X191035000Y-110437500D01*
X191035000Y-110562500D01*
X191034699Y-110568626D01*
X191033799Y-110574693D01*
X191032309Y-110580643D01*
X191030242Y-110586418D01*
X191027620Y-110591962D01*
X191024467Y-110597223D01*
X191020813Y-110602150D01*
X191016694Y-110606694D01*
X191012150Y-110610813D01*
X191007223Y-110614467D01*
X191001962Y-110617620D01*
X190996418Y-110620242D01*
X190990643Y-110622309D01*
X190984693Y-110623799D01*
X190978626Y-110624699D01*
X190972500Y-110625000D01*
X190272500Y-110625000D01*
X190266374Y-110624699D01*
X190260307Y-110623799D01*
X190254357Y-110622309D01*
X190248582Y-110620242D01*
X190243038Y-110617620D01*
X190237777Y-110614467D01*
X190232850Y-110610813D01*
X190228306Y-110606694D01*
X190224187Y-110602150D01*
X190220533Y-110597223D01*
X190217380Y-110591962D01*
X190214758Y-110586418D01*
X190212691Y-110580643D01*
X190211201Y-110574693D01*
X190210301Y-110568626D01*
X190210000Y-110562500D01*
X190210000Y-110437500D01*
X190210301Y-110431374D01*
X190211201Y-110425307D01*
X190212691Y-110419357D01*
X190214758Y-110413582D01*
X190217380Y-110408038D01*
X190220533Y-110402777D01*
X190224187Y-110397850D01*
X190228306Y-110393306D01*
X190232850Y-110389187D01*
X190237777Y-110385533D01*
X190243038Y-110382380D01*
X190248582Y-110379758D01*
X190254357Y-110377691D01*
X190260307Y-110376201D01*
X190266374Y-110375301D01*
X190272500Y-110375000D01*
X190972500Y-110375000D01*
X190978626Y-110375301D01*
X190978626Y-110375301D01*
G37*
D11*
X190622500Y-110500000D03*
D10*
G36*
X190978626Y-109875301D02*
G01*
X190984693Y-109876201D01*
X190990643Y-109877691D01*
X190996418Y-109879758D01*
X191001962Y-109882380D01*
X191007223Y-109885533D01*
X191012150Y-109889187D01*
X191016694Y-109893306D01*
X191020813Y-109897850D01*
X191024467Y-109902777D01*
X191027620Y-109908038D01*
X191030242Y-109913582D01*
X191032309Y-109919357D01*
X191033799Y-109925307D01*
X191034699Y-109931374D01*
X191035000Y-109937500D01*
X191035000Y-110062500D01*
X191034699Y-110068626D01*
X191033799Y-110074693D01*
X191032309Y-110080643D01*
X191030242Y-110086418D01*
X191027620Y-110091962D01*
X191024467Y-110097223D01*
X191020813Y-110102150D01*
X191016694Y-110106694D01*
X191012150Y-110110813D01*
X191007223Y-110114467D01*
X191001962Y-110117620D01*
X190996418Y-110120242D01*
X190990643Y-110122309D01*
X190984693Y-110123799D01*
X190978626Y-110124699D01*
X190972500Y-110125000D01*
X190272500Y-110125000D01*
X190266374Y-110124699D01*
X190260307Y-110123799D01*
X190254357Y-110122309D01*
X190248582Y-110120242D01*
X190243038Y-110117620D01*
X190237777Y-110114467D01*
X190232850Y-110110813D01*
X190228306Y-110106694D01*
X190224187Y-110102150D01*
X190220533Y-110097223D01*
X190217380Y-110091962D01*
X190214758Y-110086418D01*
X190212691Y-110080643D01*
X190211201Y-110074693D01*
X190210301Y-110068626D01*
X190210000Y-110062500D01*
X190210000Y-109937500D01*
X190210301Y-109931374D01*
X190211201Y-109925307D01*
X190212691Y-109919357D01*
X190214758Y-109913582D01*
X190217380Y-109908038D01*
X190220533Y-109902777D01*
X190224187Y-109897850D01*
X190228306Y-109893306D01*
X190232850Y-109889187D01*
X190237777Y-109885533D01*
X190243038Y-109882380D01*
X190248582Y-109879758D01*
X190254357Y-109877691D01*
X190260307Y-109876201D01*
X190266374Y-109875301D01*
X190272500Y-109875000D01*
X190972500Y-109875000D01*
X190978626Y-109875301D01*
X190978626Y-109875301D01*
G37*
D11*
X190622500Y-110000000D03*
D10*
G36*
X190978626Y-109375301D02*
G01*
X190984693Y-109376201D01*
X190990643Y-109377691D01*
X190996418Y-109379758D01*
X191001962Y-109382380D01*
X191007223Y-109385533D01*
X191012150Y-109389187D01*
X191016694Y-109393306D01*
X191020813Y-109397850D01*
X191024467Y-109402777D01*
X191027620Y-109408038D01*
X191030242Y-109413582D01*
X191032309Y-109419357D01*
X191033799Y-109425307D01*
X191034699Y-109431374D01*
X191035000Y-109437500D01*
X191035000Y-109562500D01*
X191034699Y-109568626D01*
X191033799Y-109574693D01*
X191032309Y-109580643D01*
X191030242Y-109586418D01*
X191027620Y-109591962D01*
X191024467Y-109597223D01*
X191020813Y-109602150D01*
X191016694Y-109606694D01*
X191012150Y-109610813D01*
X191007223Y-109614467D01*
X191001962Y-109617620D01*
X190996418Y-109620242D01*
X190990643Y-109622309D01*
X190984693Y-109623799D01*
X190978626Y-109624699D01*
X190972500Y-109625000D01*
X190272500Y-109625000D01*
X190266374Y-109624699D01*
X190260307Y-109623799D01*
X190254357Y-109622309D01*
X190248582Y-109620242D01*
X190243038Y-109617620D01*
X190237777Y-109614467D01*
X190232850Y-109610813D01*
X190228306Y-109606694D01*
X190224187Y-109602150D01*
X190220533Y-109597223D01*
X190217380Y-109591962D01*
X190214758Y-109586418D01*
X190212691Y-109580643D01*
X190211201Y-109574693D01*
X190210301Y-109568626D01*
X190210000Y-109562500D01*
X190210000Y-109437500D01*
X190210301Y-109431374D01*
X190211201Y-109425307D01*
X190212691Y-109419357D01*
X190214758Y-109413582D01*
X190217380Y-109408038D01*
X190220533Y-109402777D01*
X190224187Y-109397850D01*
X190228306Y-109393306D01*
X190232850Y-109389187D01*
X190237777Y-109385533D01*
X190243038Y-109382380D01*
X190248582Y-109379758D01*
X190254357Y-109377691D01*
X190260307Y-109376201D01*
X190266374Y-109375301D01*
X190272500Y-109375000D01*
X190972500Y-109375000D01*
X190978626Y-109375301D01*
X190978626Y-109375301D01*
G37*
D11*
X190622500Y-109500000D03*
D10*
G36*
X191378626Y-108400301D02*
G01*
X191384693Y-108401201D01*
X191390643Y-108402691D01*
X191396418Y-108404758D01*
X191401962Y-108407380D01*
X191407223Y-108410533D01*
X191412150Y-108414187D01*
X191416694Y-108418306D01*
X191420813Y-108422850D01*
X191424467Y-108427777D01*
X191427620Y-108433038D01*
X191430242Y-108438582D01*
X191432309Y-108444357D01*
X191433799Y-108450307D01*
X191434699Y-108456374D01*
X191435000Y-108462500D01*
X191435000Y-109162500D01*
X191434699Y-109168626D01*
X191433799Y-109174693D01*
X191432309Y-109180643D01*
X191430242Y-109186418D01*
X191427620Y-109191962D01*
X191424467Y-109197223D01*
X191420813Y-109202150D01*
X191416694Y-109206694D01*
X191412150Y-109210813D01*
X191407223Y-109214467D01*
X191401962Y-109217620D01*
X191396418Y-109220242D01*
X191390643Y-109222309D01*
X191384693Y-109223799D01*
X191378626Y-109224699D01*
X191372500Y-109225000D01*
X191247500Y-109225000D01*
X191241374Y-109224699D01*
X191235307Y-109223799D01*
X191229357Y-109222309D01*
X191223582Y-109220242D01*
X191218038Y-109217620D01*
X191212777Y-109214467D01*
X191207850Y-109210813D01*
X191203306Y-109206694D01*
X191199187Y-109202150D01*
X191195533Y-109197223D01*
X191192380Y-109191962D01*
X191189758Y-109186418D01*
X191187691Y-109180643D01*
X191186201Y-109174693D01*
X191185301Y-109168626D01*
X191185000Y-109162500D01*
X191185000Y-108462500D01*
X191185301Y-108456374D01*
X191186201Y-108450307D01*
X191187691Y-108444357D01*
X191189758Y-108438582D01*
X191192380Y-108433038D01*
X191195533Y-108427777D01*
X191199187Y-108422850D01*
X191203306Y-108418306D01*
X191207850Y-108414187D01*
X191212777Y-108410533D01*
X191218038Y-108407380D01*
X191223582Y-108404758D01*
X191229357Y-108402691D01*
X191235307Y-108401201D01*
X191241374Y-108400301D01*
X191247500Y-108400000D01*
X191372500Y-108400000D01*
X191378626Y-108400301D01*
X191378626Y-108400301D01*
G37*
D11*
X191310000Y-108812500D03*
D10*
G36*
X191878626Y-108400301D02*
G01*
X191884693Y-108401201D01*
X191890643Y-108402691D01*
X191896418Y-108404758D01*
X191901962Y-108407380D01*
X191907223Y-108410533D01*
X191912150Y-108414187D01*
X191916694Y-108418306D01*
X191920813Y-108422850D01*
X191924467Y-108427777D01*
X191927620Y-108433038D01*
X191930242Y-108438582D01*
X191932309Y-108444357D01*
X191933799Y-108450307D01*
X191934699Y-108456374D01*
X191935000Y-108462500D01*
X191935000Y-109162500D01*
X191934699Y-109168626D01*
X191933799Y-109174693D01*
X191932309Y-109180643D01*
X191930242Y-109186418D01*
X191927620Y-109191962D01*
X191924467Y-109197223D01*
X191920813Y-109202150D01*
X191916694Y-109206694D01*
X191912150Y-109210813D01*
X191907223Y-109214467D01*
X191901962Y-109217620D01*
X191896418Y-109220242D01*
X191890643Y-109222309D01*
X191884693Y-109223799D01*
X191878626Y-109224699D01*
X191872500Y-109225000D01*
X191747500Y-109225000D01*
X191741374Y-109224699D01*
X191735307Y-109223799D01*
X191729357Y-109222309D01*
X191723582Y-109220242D01*
X191718038Y-109217620D01*
X191712777Y-109214467D01*
X191707850Y-109210813D01*
X191703306Y-109206694D01*
X191699187Y-109202150D01*
X191695533Y-109197223D01*
X191692380Y-109191962D01*
X191689758Y-109186418D01*
X191687691Y-109180643D01*
X191686201Y-109174693D01*
X191685301Y-109168626D01*
X191685000Y-109162500D01*
X191685000Y-108462500D01*
X191685301Y-108456374D01*
X191686201Y-108450307D01*
X191687691Y-108444357D01*
X191689758Y-108438582D01*
X191692380Y-108433038D01*
X191695533Y-108427777D01*
X191699187Y-108422850D01*
X191703306Y-108418306D01*
X191707850Y-108414187D01*
X191712777Y-108410533D01*
X191718038Y-108407380D01*
X191723582Y-108404758D01*
X191729357Y-108402691D01*
X191735307Y-108401201D01*
X191741374Y-108400301D01*
X191747500Y-108400000D01*
X191872500Y-108400000D01*
X191878626Y-108400301D01*
X191878626Y-108400301D01*
G37*
D11*
X191810000Y-108812500D03*
D10*
G36*
X192378626Y-108400301D02*
G01*
X192384693Y-108401201D01*
X192390643Y-108402691D01*
X192396418Y-108404758D01*
X192401962Y-108407380D01*
X192407223Y-108410533D01*
X192412150Y-108414187D01*
X192416694Y-108418306D01*
X192420813Y-108422850D01*
X192424467Y-108427777D01*
X192427620Y-108433038D01*
X192430242Y-108438582D01*
X192432309Y-108444357D01*
X192433799Y-108450307D01*
X192434699Y-108456374D01*
X192435000Y-108462500D01*
X192435000Y-109162500D01*
X192434699Y-109168626D01*
X192433799Y-109174693D01*
X192432309Y-109180643D01*
X192430242Y-109186418D01*
X192427620Y-109191962D01*
X192424467Y-109197223D01*
X192420813Y-109202150D01*
X192416694Y-109206694D01*
X192412150Y-109210813D01*
X192407223Y-109214467D01*
X192401962Y-109217620D01*
X192396418Y-109220242D01*
X192390643Y-109222309D01*
X192384693Y-109223799D01*
X192378626Y-109224699D01*
X192372500Y-109225000D01*
X192247500Y-109225000D01*
X192241374Y-109224699D01*
X192235307Y-109223799D01*
X192229357Y-109222309D01*
X192223582Y-109220242D01*
X192218038Y-109217620D01*
X192212777Y-109214467D01*
X192207850Y-109210813D01*
X192203306Y-109206694D01*
X192199187Y-109202150D01*
X192195533Y-109197223D01*
X192192380Y-109191962D01*
X192189758Y-109186418D01*
X192187691Y-109180643D01*
X192186201Y-109174693D01*
X192185301Y-109168626D01*
X192185000Y-109162500D01*
X192185000Y-108462500D01*
X192185301Y-108456374D01*
X192186201Y-108450307D01*
X192187691Y-108444357D01*
X192189758Y-108438582D01*
X192192380Y-108433038D01*
X192195533Y-108427777D01*
X192199187Y-108422850D01*
X192203306Y-108418306D01*
X192207850Y-108414187D01*
X192212777Y-108410533D01*
X192218038Y-108407380D01*
X192223582Y-108404758D01*
X192229357Y-108402691D01*
X192235307Y-108401201D01*
X192241374Y-108400301D01*
X192247500Y-108400000D01*
X192372500Y-108400000D01*
X192378626Y-108400301D01*
X192378626Y-108400301D01*
G37*
D11*
X192310000Y-108812500D03*
D10*
G36*
X192878626Y-108400301D02*
G01*
X192884693Y-108401201D01*
X192890643Y-108402691D01*
X192896418Y-108404758D01*
X192901962Y-108407380D01*
X192907223Y-108410533D01*
X192912150Y-108414187D01*
X192916694Y-108418306D01*
X192920813Y-108422850D01*
X192924467Y-108427777D01*
X192927620Y-108433038D01*
X192930242Y-108438582D01*
X192932309Y-108444357D01*
X192933799Y-108450307D01*
X192934699Y-108456374D01*
X192935000Y-108462500D01*
X192935000Y-109162500D01*
X192934699Y-109168626D01*
X192933799Y-109174693D01*
X192932309Y-109180643D01*
X192930242Y-109186418D01*
X192927620Y-109191962D01*
X192924467Y-109197223D01*
X192920813Y-109202150D01*
X192916694Y-109206694D01*
X192912150Y-109210813D01*
X192907223Y-109214467D01*
X192901962Y-109217620D01*
X192896418Y-109220242D01*
X192890643Y-109222309D01*
X192884693Y-109223799D01*
X192878626Y-109224699D01*
X192872500Y-109225000D01*
X192747500Y-109225000D01*
X192741374Y-109224699D01*
X192735307Y-109223799D01*
X192729357Y-109222309D01*
X192723582Y-109220242D01*
X192718038Y-109217620D01*
X192712777Y-109214467D01*
X192707850Y-109210813D01*
X192703306Y-109206694D01*
X192699187Y-109202150D01*
X192695533Y-109197223D01*
X192692380Y-109191962D01*
X192689758Y-109186418D01*
X192687691Y-109180643D01*
X192686201Y-109174693D01*
X192685301Y-109168626D01*
X192685000Y-109162500D01*
X192685000Y-108462500D01*
X192685301Y-108456374D01*
X192686201Y-108450307D01*
X192687691Y-108444357D01*
X192689758Y-108438582D01*
X192692380Y-108433038D01*
X192695533Y-108427777D01*
X192699187Y-108422850D01*
X192703306Y-108418306D01*
X192707850Y-108414187D01*
X192712777Y-108410533D01*
X192718038Y-108407380D01*
X192723582Y-108404758D01*
X192729357Y-108402691D01*
X192735307Y-108401201D01*
X192741374Y-108400301D01*
X192747500Y-108400000D01*
X192872500Y-108400000D01*
X192878626Y-108400301D01*
X192878626Y-108400301D01*
G37*
D11*
X192810000Y-108812500D03*
D10*
G36*
X193378626Y-108400301D02*
G01*
X193384693Y-108401201D01*
X193390643Y-108402691D01*
X193396418Y-108404758D01*
X193401962Y-108407380D01*
X193407223Y-108410533D01*
X193412150Y-108414187D01*
X193416694Y-108418306D01*
X193420813Y-108422850D01*
X193424467Y-108427777D01*
X193427620Y-108433038D01*
X193430242Y-108438582D01*
X193432309Y-108444357D01*
X193433799Y-108450307D01*
X193434699Y-108456374D01*
X193435000Y-108462500D01*
X193435000Y-109162500D01*
X193434699Y-109168626D01*
X193433799Y-109174693D01*
X193432309Y-109180643D01*
X193430242Y-109186418D01*
X193427620Y-109191962D01*
X193424467Y-109197223D01*
X193420813Y-109202150D01*
X193416694Y-109206694D01*
X193412150Y-109210813D01*
X193407223Y-109214467D01*
X193401962Y-109217620D01*
X193396418Y-109220242D01*
X193390643Y-109222309D01*
X193384693Y-109223799D01*
X193378626Y-109224699D01*
X193372500Y-109225000D01*
X193247500Y-109225000D01*
X193241374Y-109224699D01*
X193235307Y-109223799D01*
X193229357Y-109222309D01*
X193223582Y-109220242D01*
X193218038Y-109217620D01*
X193212777Y-109214467D01*
X193207850Y-109210813D01*
X193203306Y-109206694D01*
X193199187Y-109202150D01*
X193195533Y-109197223D01*
X193192380Y-109191962D01*
X193189758Y-109186418D01*
X193187691Y-109180643D01*
X193186201Y-109174693D01*
X193185301Y-109168626D01*
X193185000Y-109162500D01*
X193185000Y-108462500D01*
X193185301Y-108456374D01*
X193186201Y-108450307D01*
X193187691Y-108444357D01*
X193189758Y-108438582D01*
X193192380Y-108433038D01*
X193195533Y-108427777D01*
X193199187Y-108422850D01*
X193203306Y-108418306D01*
X193207850Y-108414187D01*
X193212777Y-108410533D01*
X193218038Y-108407380D01*
X193223582Y-108404758D01*
X193229357Y-108402691D01*
X193235307Y-108401201D01*
X193241374Y-108400301D01*
X193247500Y-108400000D01*
X193372500Y-108400000D01*
X193378626Y-108400301D01*
X193378626Y-108400301D01*
G37*
D11*
X193310000Y-108812500D03*
D10*
G36*
X193878626Y-108400301D02*
G01*
X193884693Y-108401201D01*
X193890643Y-108402691D01*
X193896418Y-108404758D01*
X193901962Y-108407380D01*
X193907223Y-108410533D01*
X193912150Y-108414187D01*
X193916694Y-108418306D01*
X193920813Y-108422850D01*
X193924467Y-108427777D01*
X193927620Y-108433038D01*
X193930242Y-108438582D01*
X193932309Y-108444357D01*
X193933799Y-108450307D01*
X193934699Y-108456374D01*
X193935000Y-108462500D01*
X193935000Y-109162500D01*
X193934699Y-109168626D01*
X193933799Y-109174693D01*
X193932309Y-109180643D01*
X193930242Y-109186418D01*
X193927620Y-109191962D01*
X193924467Y-109197223D01*
X193920813Y-109202150D01*
X193916694Y-109206694D01*
X193912150Y-109210813D01*
X193907223Y-109214467D01*
X193901962Y-109217620D01*
X193896418Y-109220242D01*
X193890643Y-109222309D01*
X193884693Y-109223799D01*
X193878626Y-109224699D01*
X193872500Y-109225000D01*
X193747500Y-109225000D01*
X193741374Y-109224699D01*
X193735307Y-109223799D01*
X193729357Y-109222309D01*
X193723582Y-109220242D01*
X193718038Y-109217620D01*
X193712777Y-109214467D01*
X193707850Y-109210813D01*
X193703306Y-109206694D01*
X193699187Y-109202150D01*
X193695533Y-109197223D01*
X193692380Y-109191962D01*
X193689758Y-109186418D01*
X193687691Y-109180643D01*
X193686201Y-109174693D01*
X193685301Y-109168626D01*
X193685000Y-109162500D01*
X193685000Y-108462500D01*
X193685301Y-108456374D01*
X193686201Y-108450307D01*
X193687691Y-108444357D01*
X193689758Y-108438582D01*
X193692380Y-108433038D01*
X193695533Y-108427777D01*
X193699187Y-108422850D01*
X193703306Y-108418306D01*
X193707850Y-108414187D01*
X193712777Y-108410533D01*
X193718038Y-108407380D01*
X193723582Y-108404758D01*
X193729357Y-108402691D01*
X193735307Y-108401201D01*
X193741374Y-108400301D01*
X193747500Y-108400000D01*
X193872500Y-108400000D01*
X193878626Y-108400301D01*
X193878626Y-108400301D01*
G37*
D11*
X193810000Y-108812500D03*
D10*
G36*
X192209505Y-110876204D02*
G01*
X192233773Y-110879804D01*
X192257572Y-110885765D01*
X192280671Y-110894030D01*
X192302850Y-110904520D01*
X192323893Y-110917132D01*
X192343599Y-110931747D01*
X192361777Y-110948223D01*
X192378253Y-110966401D01*
X192392868Y-110986107D01*
X192405480Y-111007150D01*
X192415970Y-111029329D01*
X192424235Y-111052428D01*
X192430196Y-111076227D01*
X192433796Y-111100495D01*
X192435000Y-111124999D01*
X192435000Y-111675001D01*
X192433796Y-111699505D01*
X192430196Y-111723773D01*
X192424235Y-111747572D01*
X192415970Y-111770671D01*
X192405480Y-111792850D01*
X192392868Y-111813893D01*
X192378253Y-111833599D01*
X192361777Y-111851777D01*
X192343599Y-111868253D01*
X192323893Y-111882868D01*
X192302850Y-111895480D01*
X192280671Y-111905970D01*
X192257572Y-111914235D01*
X192233773Y-111920196D01*
X192209505Y-111923796D01*
X192185001Y-111925000D01*
X191634999Y-111925000D01*
X191610495Y-111923796D01*
X191586227Y-111920196D01*
X191562428Y-111914235D01*
X191539329Y-111905970D01*
X191517150Y-111895480D01*
X191496107Y-111882868D01*
X191476401Y-111868253D01*
X191458223Y-111851777D01*
X191441747Y-111833599D01*
X191427132Y-111813893D01*
X191414520Y-111792850D01*
X191404030Y-111770671D01*
X191395765Y-111747572D01*
X191389804Y-111723773D01*
X191386204Y-111699505D01*
X191385000Y-111675001D01*
X191385000Y-111124999D01*
X191386204Y-111100495D01*
X191389804Y-111076227D01*
X191395765Y-111052428D01*
X191404030Y-111029329D01*
X191414520Y-111007150D01*
X191427132Y-110986107D01*
X191441747Y-110966401D01*
X191458223Y-110948223D01*
X191476401Y-110931747D01*
X191496107Y-110917132D01*
X191517150Y-110904520D01*
X191539329Y-110894030D01*
X191562428Y-110885765D01*
X191586227Y-110879804D01*
X191610495Y-110876204D01*
X191634999Y-110875000D01*
X192185001Y-110875000D01*
X192209505Y-110876204D01*
X192209505Y-110876204D01*
G37*
D12*
X191910000Y-111400000D03*
D10*
G36*
X193509505Y-110876204D02*
G01*
X193533773Y-110879804D01*
X193557572Y-110885765D01*
X193580671Y-110894030D01*
X193602850Y-110904520D01*
X193623893Y-110917132D01*
X193643599Y-110931747D01*
X193661777Y-110948223D01*
X193678253Y-110966401D01*
X193692868Y-110986107D01*
X193705480Y-111007150D01*
X193715970Y-111029329D01*
X193724235Y-111052428D01*
X193730196Y-111076227D01*
X193733796Y-111100495D01*
X193735000Y-111124999D01*
X193735000Y-111675001D01*
X193733796Y-111699505D01*
X193730196Y-111723773D01*
X193724235Y-111747572D01*
X193715970Y-111770671D01*
X193705480Y-111792850D01*
X193692868Y-111813893D01*
X193678253Y-111833599D01*
X193661777Y-111851777D01*
X193643599Y-111868253D01*
X193623893Y-111882868D01*
X193602850Y-111895480D01*
X193580671Y-111905970D01*
X193557572Y-111914235D01*
X193533773Y-111920196D01*
X193509505Y-111923796D01*
X193485001Y-111925000D01*
X192934999Y-111925000D01*
X192910495Y-111923796D01*
X192886227Y-111920196D01*
X192862428Y-111914235D01*
X192839329Y-111905970D01*
X192817150Y-111895480D01*
X192796107Y-111882868D01*
X192776401Y-111868253D01*
X192758223Y-111851777D01*
X192741747Y-111833599D01*
X192727132Y-111813893D01*
X192714520Y-111792850D01*
X192704030Y-111770671D01*
X192695765Y-111747572D01*
X192689804Y-111723773D01*
X192686204Y-111699505D01*
X192685000Y-111675001D01*
X192685000Y-111124999D01*
X192686204Y-111100495D01*
X192689804Y-111076227D01*
X192695765Y-111052428D01*
X192704030Y-111029329D01*
X192714520Y-111007150D01*
X192727132Y-110986107D01*
X192741747Y-110966401D01*
X192758223Y-110948223D01*
X192776401Y-110931747D01*
X192796107Y-110917132D01*
X192817150Y-110904520D01*
X192839329Y-110894030D01*
X192862428Y-110885765D01*
X192886227Y-110879804D01*
X192910495Y-110876204D01*
X192934999Y-110875000D01*
X193485001Y-110875000D01*
X193509505Y-110876204D01*
X193509505Y-110876204D01*
G37*
D12*
X193210000Y-111400000D03*
D10*
G36*
X192209505Y-109576204D02*
G01*
X192233773Y-109579804D01*
X192257572Y-109585765D01*
X192280671Y-109594030D01*
X192302850Y-109604520D01*
X192323893Y-109617132D01*
X192343599Y-109631747D01*
X192361777Y-109648223D01*
X192378253Y-109666401D01*
X192392868Y-109686107D01*
X192405480Y-109707150D01*
X192415970Y-109729329D01*
X192424235Y-109752428D01*
X192430196Y-109776227D01*
X192433796Y-109800495D01*
X192435000Y-109824999D01*
X192435000Y-110375001D01*
X192433796Y-110399505D01*
X192430196Y-110423773D01*
X192424235Y-110447572D01*
X192415970Y-110470671D01*
X192405480Y-110492850D01*
X192392868Y-110513893D01*
X192378253Y-110533599D01*
X192361777Y-110551777D01*
X192343599Y-110568253D01*
X192323893Y-110582868D01*
X192302850Y-110595480D01*
X192280671Y-110605970D01*
X192257572Y-110614235D01*
X192233773Y-110620196D01*
X192209505Y-110623796D01*
X192185001Y-110625000D01*
X191634999Y-110625000D01*
X191610495Y-110623796D01*
X191586227Y-110620196D01*
X191562428Y-110614235D01*
X191539329Y-110605970D01*
X191517150Y-110595480D01*
X191496107Y-110582868D01*
X191476401Y-110568253D01*
X191458223Y-110551777D01*
X191441747Y-110533599D01*
X191427132Y-110513893D01*
X191414520Y-110492850D01*
X191404030Y-110470671D01*
X191395765Y-110447572D01*
X191389804Y-110423773D01*
X191386204Y-110399505D01*
X191385000Y-110375001D01*
X191385000Y-109824999D01*
X191386204Y-109800495D01*
X191389804Y-109776227D01*
X191395765Y-109752428D01*
X191404030Y-109729329D01*
X191414520Y-109707150D01*
X191427132Y-109686107D01*
X191441747Y-109666401D01*
X191458223Y-109648223D01*
X191476401Y-109631747D01*
X191496107Y-109617132D01*
X191517150Y-109604520D01*
X191539329Y-109594030D01*
X191562428Y-109585765D01*
X191586227Y-109579804D01*
X191610495Y-109576204D01*
X191634999Y-109575000D01*
X192185001Y-109575000D01*
X192209505Y-109576204D01*
X192209505Y-109576204D01*
G37*
D12*
X191910000Y-110100000D03*
D10*
G36*
X193509505Y-109576204D02*
G01*
X193533773Y-109579804D01*
X193557572Y-109585765D01*
X193580671Y-109594030D01*
X193602850Y-109604520D01*
X193623893Y-109617132D01*
X193643599Y-109631747D01*
X193661777Y-109648223D01*
X193678253Y-109666401D01*
X193692868Y-109686107D01*
X193705480Y-109707150D01*
X193715970Y-109729329D01*
X193724235Y-109752428D01*
X193730196Y-109776227D01*
X193733796Y-109800495D01*
X193735000Y-109824999D01*
X193735000Y-110375001D01*
X193733796Y-110399505D01*
X193730196Y-110423773D01*
X193724235Y-110447572D01*
X193715970Y-110470671D01*
X193705480Y-110492850D01*
X193692868Y-110513893D01*
X193678253Y-110533599D01*
X193661777Y-110551777D01*
X193643599Y-110568253D01*
X193623893Y-110582868D01*
X193602850Y-110595480D01*
X193580671Y-110605970D01*
X193557572Y-110614235D01*
X193533773Y-110620196D01*
X193509505Y-110623796D01*
X193485001Y-110625000D01*
X192934999Y-110625000D01*
X192910495Y-110623796D01*
X192886227Y-110620196D01*
X192862428Y-110614235D01*
X192839329Y-110605970D01*
X192817150Y-110595480D01*
X192796107Y-110582868D01*
X192776401Y-110568253D01*
X192758223Y-110551777D01*
X192741747Y-110533599D01*
X192727132Y-110513893D01*
X192714520Y-110492850D01*
X192704030Y-110470671D01*
X192695765Y-110447572D01*
X192689804Y-110423773D01*
X192686204Y-110399505D01*
X192685000Y-110375001D01*
X192685000Y-109824999D01*
X192686204Y-109800495D01*
X192689804Y-109776227D01*
X192695765Y-109752428D01*
X192704030Y-109729329D01*
X192714520Y-109707150D01*
X192727132Y-109686107D01*
X192741747Y-109666401D01*
X192758223Y-109648223D01*
X192776401Y-109631747D01*
X192796107Y-109617132D01*
X192817150Y-109604520D01*
X192839329Y-109594030D01*
X192862428Y-109585765D01*
X192886227Y-109579804D01*
X192910495Y-109576204D01*
X192934999Y-109575000D01*
X193485001Y-109575000D01*
X193509505Y-109576204D01*
X193509505Y-109576204D01*
G37*
D12*
X193210000Y-110100000D03*
D10*
G36*
X190247691Y-115836053D02*
G01*
X190268926Y-115839203D01*
X190289750Y-115844419D01*
X190309962Y-115851651D01*
X190329368Y-115860830D01*
X190347781Y-115871866D01*
X190365024Y-115884654D01*
X190380930Y-115899070D01*
X190395346Y-115914976D01*
X190408134Y-115932219D01*
X190419170Y-115950632D01*
X190428349Y-115970038D01*
X190435581Y-115990250D01*
X190440797Y-116011074D01*
X190443947Y-116032309D01*
X190445000Y-116053750D01*
X190445000Y-116566250D01*
X190443947Y-116587691D01*
X190440797Y-116608926D01*
X190435581Y-116629750D01*
X190428349Y-116649962D01*
X190419170Y-116669368D01*
X190408134Y-116687781D01*
X190395346Y-116705024D01*
X190380930Y-116720930D01*
X190365024Y-116735346D01*
X190347781Y-116748134D01*
X190329368Y-116759170D01*
X190309962Y-116768349D01*
X190289750Y-116775581D01*
X190268926Y-116780797D01*
X190247691Y-116783947D01*
X190226250Y-116785000D01*
X189788750Y-116785000D01*
X189767309Y-116783947D01*
X189746074Y-116780797D01*
X189725250Y-116775581D01*
X189705038Y-116768349D01*
X189685632Y-116759170D01*
X189667219Y-116748134D01*
X189649976Y-116735346D01*
X189634070Y-116720930D01*
X189619654Y-116705024D01*
X189606866Y-116687781D01*
X189595830Y-116669368D01*
X189586651Y-116649962D01*
X189579419Y-116629750D01*
X189574203Y-116608926D01*
X189571053Y-116587691D01*
X189570000Y-116566250D01*
X189570000Y-116053750D01*
X189571053Y-116032309D01*
X189574203Y-116011074D01*
X189579419Y-115990250D01*
X189586651Y-115970038D01*
X189595830Y-115950632D01*
X189606866Y-115932219D01*
X189619654Y-115914976D01*
X189634070Y-115899070D01*
X189649976Y-115884654D01*
X189667219Y-115871866D01*
X189685632Y-115860830D01*
X189705038Y-115851651D01*
X189725250Y-115844419D01*
X189746074Y-115839203D01*
X189767309Y-115836053D01*
X189788750Y-115835000D01*
X190226250Y-115835000D01*
X190247691Y-115836053D01*
X190247691Y-115836053D01*
G37*
D13*
X190007500Y-116310000D03*
D10*
G36*
X188672691Y-115836053D02*
G01*
X188693926Y-115839203D01*
X188714750Y-115844419D01*
X188734962Y-115851651D01*
X188754368Y-115860830D01*
X188772781Y-115871866D01*
X188790024Y-115884654D01*
X188805930Y-115899070D01*
X188820346Y-115914976D01*
X188833134Y-115932219D01*
X188844170Y-115950632D01*
X188853349Y-115970038D01*
X188860581Y-115990250D01*
X188865797Y-116011074D01*
X188868947Y-116032309D01*
X188870000Y-116053750D01*
X188870000Y-116566250D01*
X188868947Y-116587691D01*
X188865797Y-116608926D01*
X188860581Y-116629750D01*
X188853349Y-116649962D01*
X188844170Y-116669368D01*
X188833134Y-116687781D01*
X188820346Y-116705024D01*
X188805930Y-116720930D01*
X188790024Y-116735346D01*
X188772781Y-116748134D01*
X188754368Y-116759170D01*
X188734962Y-116768349D01*
X188714750Y-116775581D01*
X188693926Y-116780797D01*
X188672691Y-116783947D01*
X188651250Y-116785000D01*
X188213750Y-116785000D01*
X188192309Y-116783947D01*
X188171074Y-116780797D01*
X188150250Y-116775581D01*
X188130038Y-116768349D01*
X188110632Y-116759170D01*
X188092219Y-116748134D01*
X188074976Y-116735346D01*
X188059070Y-116720930D01*
X188044654Y-116705024D01*
X188031866Y-116687781D01*
X188020830Y-116669368D01*
X188011651Y-116649962D01*
X188004419Y-116629750D01*
X187999203Y-116608926D01*
X187996053Y-116587691D01*
X187995000Y-116566250D01*
X187995000Y-116053750D01*
X187996053Y-116032309D01*
X187999203Y-116011074D01*
X188004419Y-115990250D01*
X188011651Y-115970038D01*
X188020830Y-115950632D01*
X188031866Y-115932219D01*
X188044654Y-115914976D01*
X188059070Y-115899070D01*
X188074976Y-115884654D01*
X188092219Y-115871866D01*
X188110632Y-115860830D01*
X188130038Y-115851651D01*
X188150250Y-115844419D01*
X188171074Y-115839203D01*
X188192309Y-115836053D01*
X188213750Y-115835000D01*
X188651250Y-115835000D01*
X188672691Y-115836053D01*
X188672691Y-115836053D01*
G37*
D13*
X188432500Y-116310000D03*
D10*
G36*
X188724691Y-105996053D02*
G01*
X188745926Y-105999203D01*
X188766750Y-106004419D01*
X188786962Y-106011651D01*
X188806368Y-106020830D01*
X188824781Y-106031866D01*
X188842024Y-106044654D01*
X188857930Y-106059070D01*
X188872346Y-106074976D01*
X188885134Y-106092219D01*
X188896170Y-106110632D01*
X188905349Y-106130038D01*
X188912581Y-106150250D01*
X188917797Y-106171074D01*
X188920947Y-106192309D01*
X188922000Y-106213750D01*
X188922000Y-106726250D01*
X188920947Y-106747691D01*
X188917797Y-106768926D01*
X188912581Y-106789750D01*
X188905349Y-106809962D01*
X188896170Y-106829368D01*
X188885134Y-106847781D01*
X188872346Y-106865024D01*
X188857930Y-106880930D01*
X188842024Y-106895346D01*
X188824781Y-106908134D01*
X188806368Y-106919170D01*
X188786962Y-106928349D01*
X188766750Y-106935581D01*
X188745926Y-106940797D01*
X188724691Y-106943947D01*
X188703250Y-106945000D01*
X188265750Y-106945000D01*
X188244309Y-106943947D01*
X188223074Y-106940797D01*
X188202250Y-106935581D01*
X188182038Y-106928349D01*
X188162632Y-106919170D01*
X188144219Y-106908134D01*
X188126976Y-106895346D01*
X188111070Y-106880930D01*
X188096654Y-106865024D01*
X188083866Y-106847781D01*
X188072830Y-106829368D01*
X188063651Y-106809962D01*
X188056419Y-106789750D01*
X188051203Y-106768926D01*
X188048053Y-106747691D01*
X188047000Y-106726250D01*
X188047000Y-106213750D01*
X188048053Y-106192309D01*
X188051203Y-106171074D01*
X188056419Y-106150250D01*
X188063651Y-106130038D01*
X188072830Y-106110632D01*
X188083866Y-106092219D01*
X188096654Y-106074976D01*
X188111070Y-106059070D01*
X188126976Y-106044654D01*
X188144219Y-106031866D01*
X188162632Y-106020830D01*
X188182038Y-106011651D01*
X188202250Y-106004419D01*
X188223074Y-105999203D01*
X188244309Y-105996053D01*
X188265750Y-105995000D01*
X188703250Y-105995000D01*
X188724691Y-105996053D01*
X188724691Y-105996053D01*
G37*
D13*
X188484500Y-106470000D03*
D10*
G36*
X190299691Y-105996053D02*
G01*
X190320926Y-105999203D01*
X190341750Y-106004419D01*
X190361962Y-106011651D01*
X190381368Y-106020830D01*
X190399781Y-106031866D01*
X190417024Y-106044654D01*
X190432930Y-106059070D01*
X190447346Y-106074976D01*
X190460134Y-106092219D01*
X190471170Y-106110632D01*
X190480349Y-106130038D01*
X190487581Y-106150250D01*
X190492797Y-106171074D01*
X190495947Y-106192309D01*
X190497000Y-106213750D01*
X190497000Y-106726250D01*
X190495947Y-106747691D01*
X190492797Y-106768926D01*
X190487581Y-106789750D01*
X190480349Y-106809962D01*
X190471170Y-106829368D01*
X190460134Y-106847781D01*
X190447346Y-106865024D01*
X190432930Y-106880930D01*
X190417024Y-106895346D01*
X190399781Y-106908134D01*
X190381368Y-106919170D01*
X190361962Y-106928349D01*
X190341750Y-106935581D01*
X190320926Y-106940797D01*
X190299691Y-106943947D01*
X190278250Y-106945000D01*
X189840750Y-106945000D01*
X189819309Y-106943947D01*
X189798074Y-106940797D01*
X189777250Y-106935581D01*
X189757038Y-106928349D01*
X189737632Y-106919170D01*
X189719219Y-106908134D01*
X189701976Y-106895346D01*
X189686070Y-106880930D01*
X189671654Y-106865024D01*
X189658866Y-106847781D01*
X189647830Y-106829368D01*
X189638651Y-106809962D01*
X189631419Y-106789750D01*
X189626203Y-106768926D01*
X189623053Y-106747691D01*
X189622000Y-106726250D01*
X189622000Y-106213750D01*
X189623053Y-106192309D01*
X189626203Y-106171074D01*
X189631419Y-106150250D01*
X189638651Y-106130038D01*
X189647830Y-106110632D01*
X189658866Y-106092219D01*
X189671654Y-106074976D01*
X189686070Y-106059070D01*
X189701976Y-106044654D01*
X189719219Y-106031866D01*
X189737632Y-106020830D01*
X189757038Y-106011651D01*
X189777250Y-106004419D01*
X189798074Y-105999203D01*
X189819309Y-105996053D01*
X189840750Y-105995000D01*
X190278250Y-105995000D01*
X190299691Y-105996053D01*
X190299691Y-105996053D01*
G37*
D13*
X190059500Y-106470000D03*
D14*
X185200000Y-114000000D03*
X185200000Y-112000000D03*
X185200000Y-110000000D03*
X185200000Y-108000000D03*
D10*
G36*
X197477691Y-101988053D02*
G01*
X197498926Y-101991203D01*
X197519750Y-101996419D01*
X197539962Y-102003651D01*
X197559368Y-102012830D01*
X197577781Y-102023866D01*
X197595024Y-102036654D01*
X197610930Y-102051070D01*
X197625346Y-102066976D01*
X197638134Y-102084219D01*
X197649170Y-102102632D01*
X197658349Y-102122038D01*
X197665581Y-102142250D01*
X197670797Y-102163074D01*
X197673947Y-102184309D01*
X197675000Y-102205750D01*
X197675000Y-102643250D01*
X197673947Y-102664691D01*
X197670797Y-102685926D01*
X197665581Y-102706750D01*
X197658349Y-102726962D01*
X197649170Y-102746368D01*
X197638134Y-102764781D01*
X197625346Y-102782024D01*
X197610930Y-102797930D01*
X197595024Y-102812346D01*
X197577781Y-102825134D01*
X197559368Y-102836170D01*
X197539962Y-102845349D01*
X197519750Y-102852581D01*
X197498926Y-102857797D01*
X197477691Y-102860947D01*
X197456250Y-102862000D01*
X196943750Y-102862000D01*
X196922309Y-102860947D01*
X196901074Y-102857797D01*
X196880250Y-102852581D01*
X196860038Y-102845349D01*
X196840632Y-102836170D01*
X196822219Y-102825134D01*
X196804976Y-102812346D01*
X196789070Y-102797930D01*
X196774654Y-102782024D01*
X196761866Y-102764781D01*
X196750830Y-102746368D01*
X196741651Y-102726962D01*
X196734419Y-102706750D01*
X196729203Y-102685926D01*
X196726053Y-102664691D01*
X196725000Y-102643250D01*
X196725000Y-102205750D01*
X196726053Y-102184309D01*
X196729203Y-102163074D01*
X196734419Y-102142250D01*
X196741651Y-102122038D01*
X196750830Y-102102632D01*
X196761866Y-102084219D01*
X196774654Y-102066976D01*
X196789070Y-102051070D01*
X196804976Y-102036654D01*
X196822219Y-102023866D01*
X196840632Y-102012830D01*
X196860038Y-102003651D01*
X196880250Y-101996419D01*
X196901074Y-101991203D01*
X196922309Y-101988053D01*
X196943750Y-101987000D01*
X197456250Y-101987000D01*
X197477691Y-101988053D01*
X197477691Y-101988053D01*
G37*
D13*
X197200000Y-102424500D03*
D10*
G36*
X197477691Y-103563053D02*
G01*
X197498926Y-103566203D01*
X197519750Y-103571419D01*
X197539962Y-103578651D01*
X197559368Y-103587830D01*
X197577781Y-103598866D01*
X197595024Y-103611654D01*
X197610930Y-103626070D01*
X197625346Y-103641976D01*
X197638134Y-103659219D01*
X197649170Y-103677632D01*
X197658349Y-103697038D01*
X197665581Y-103717250D01*
X197670797Y-103738074D01*
X197673947Y-103759309D01*
X197675000Y-103780750D01*
X197675000Y-104218250D01*
X197673947Y-104239691D01*
X197670797Y-104260926D01*
X197665581Y-104281750D01*
X197658349Y-104301962D01*
X197649170Y-104321368D01*
X197638134Y-104339781D01*
X197625346Y-104357024D01*
X197610930Y-104372930D01*
X197595024Y-104387346D01*
X197577781Y-104400134D01*
X197559368Y-104411170D01*
X197539962Y-104420349D01*
X197519750Y-104427581D01*
X197498926Y-104432797D01*
X197477691Y-104435947D01*
X197456250Y-104437000D01*
X196943750Y-104437000D01*
X196922309Y-104435947D01*
X196901074Y-104432797D01*
X196880250Y-104427581D01*
X196860038Y-104420349D01*
X196840632Y-104411170D01*
X196822219Y-104400134D01*
X196804976Y-104387346D01*
X196789070Y-104372930D01*
X196774654Y-104357024D01*
X196761866Y-104339781D01*
X196750830Y-104321368D01*
X196741651Y-104301962D01*
X196734419Y-104281750D01*
X196729203Y-104260926D01*
X196726053Y-104239691D01*
X196725000Y-104218250D01*
X196725000Y-103780750D01*
X196726053Y-103759309D01*
X196729203Y-103738074D01*
X196734419Y-103717250D01*
X196741651Y-103697038D01*
X196750830Y-103677632D01*
X196761866Y-103659219D01*
X196774654Y-103641976D01*
X196789070Y-103626070D01*
X196804976Y-103611654D01*
X196822219Y-103598866D01*
X196840632Y-103587830D01*
X196860038Y-103578651D01*
X196880250Y-103571419D01*
X196901074Y-103566203D01*
X196922309Y-103563053D01*
X196943750Y-103562000D01*
X197456250Y-103562000D01*
X197477691Y-103563053D01*
X197477691Y-103563053D01*
G37*
D13*
X197200000Y-103999500D03*
D10*
G36*
X181877691Y-103563053D02*
G01*
X181898926Y-103566203D01*
X181919750Y-103571419D01*
X181939962Y-103578651D01*
X181959368Y-103587830D01*
X181977781Y-103598866D01*
X181995024Y-103611654D01*
X182010930Y-103626070D01*
X182025346Y-103641976D01*
X182038134Y-103659219D01*
X182049170Y-103677632D01*
X182058349Y-103697038D01*
X182065581Y-103717250D01*
X182070797Y-103738074D01*
X182073947Y-103759309D01*
X182075000Y-103780750D01*
X182075000Y-104218250D01*
X182073947Y-104239691D01*
X182070797Y-104260926D01*
X182065581Y-104281750D01*
X182058349Y-104301962D01*
X182049170Y-104321368D01*
X182038134Y-104339781D01*
X182025346Y-104357024D01*
X182010930Y-104372930D01*
X181995024Y-104387346D01*
X181977781Y-104400134D01*
X181959368Y-104411170D01*
X181939962Y-104420349D01*
X181919750Y-104427581D01*
X181898926Y-104432797D01*
X181877691Y-104435947D01*
X181856250Y-104437000D01*
X181343750Y-104437000D01*
X181322309Y-104435947D01*
X181301074Y-104432797D01*
X181280250Y-104427581D01*
X181260038Y-104420349D01*
X181240632Y-104411170D01*
X181222219Y-104400134D01*
X181204976Y-104387346D01*
X181189070Y-104372930D01*
X181174654Y-104357024D01*
X181161866Y-104339781D01*
X181150830Y-104321368D01*
X181141651Y-104301962D01*
X181134419Y-104281750D01*
X181129203Y-104260926D01*
X181126053Y-104239691D01*
X181125000Y-104218250D01*
X181125000Y-103780750D01*
X181126053Y-103759309D01*
X181129203Y-103738074D01*
X181134419Y-103717250D01*
X181141651Y-103697038D01*
X181150830Y-103677632D01*
X181161866Y-103659219D01*
X181174654Y-103641976D01*
X181189070Y-103626070D01*
X181204976Y-103611654D01*
X181222219Y-103598866D01*
X181240632Y-103587830D01*
X181260038Y-103578651D01*
X181280250Y-103571419D01*
X181301074Y-103566203D01*
X181322309Y-103563053D01*
X181343750Y-103562000D01*
X181856250Y-103562000D01*
X181877691Y-103563053D01*
X181877691Y-103563053D01*
G37*
D13*
X181600000Y-103999500D03*
D10*
G36*
X181877691Y-101988053D02*
G01*
X181898926Y-101991203D01*
X181919750Y-101996419D01*
X181939962Y-102003651D01*
X181959368Y-102012830D01*
X181977781Y-102023866D01*
X181995024Y-102036654D01*
X182010930Y-102051070D01*
X182025346Y-102066976D01*
X182038134Y-102084219D01*
X182049170Y-102102632D01*
X182058349Y-102122038D01*
X182065581Y-102142250D01*
X182070797Y-102163074D01*
X182073947Y-102184309D01*
X182075000Y-102205750D01*
X182075000Y-102643250D01*
X182073947Y-102664691D01*
X182070797Y-102685926D01*
X182065581Y-102706750D01*
X182058349Y-102726962D01*
X182049170Y-102746368D01*
X182038134Y-102764781D01*
X182025346Y-102782024D01*
X182010930Y-102797930D01*
X181995024Y-102812346D01*
X181977781Y-102825134D01*
X181959368Y-102836170D01*
X181939962Y-102845349D01*
X181919750Y-102852581D01*
X181898926Y-102857797D01*
X181877691Y-102860947D01*
X181856250Y-102862000D01*
X181343750Y-102862000D01*
X181322309Y-102860947D01*
X181301074Y-102857797D01*
X181280250Y-102852581D01*
X181260038Y-102845349D01*
X181240632Y-102836170D01*
X181222219Y-102825134D01*
X181204976Y-102812346D01*
X181189070Y-102797930D01*
X181174654Y-102782024D01*
X181161866Y-102764781D01*
X181150830Y-102746368D01*
X181141651Y-102726962D01*
X181134419Y-102706750D01*
X181129203Y-102685926D01*
X181126053Y-102664691D01*
X181125000Y-102643250D01*
X181125000Y-102205750D01*
X181126053Y-102184309D01*
X181129203Y-102163074D01*
X181134419Y-102142250D01*
X181141651Y-102122038D01*
X181150830Y-102102632D01*
X181161866Y-102084219D01*
X181174654Y-102066976D01*
X181189070Y-102051070D01*
X181204976Y-102036654D01*
X181222219Y-102023866D01*
X181240632Y-102012830D01*
X181260038Y-102003651D01*
X181280250Y-101996419D01*
X181301074Y-101991203D01*
X181322309Y-101988053D01*
X181343750Y-101987000D01*
X181856250Y-101987000D01*
X181877691Y-101988053D01*
X181877691Y-101988053D01*
G37*
D13*
X181600000Y-102424500D03*
D10*
G36*
X187227691Y-97626053D02*
G01*
X187248926Y-97629203D01*
X187269750Y-97634419D01*
X187289962Y-97641651D01*
X187309368Y-97650830D01*
X187327781Y-97661866D01*
X187345024Y-97674654D01*
X187360930Y-97689070D01*
X187375346Y-97704976D01*
X187388134Y-97722219D01*
X187399170Y-97740632D01*
X187408349Y-97760038D01*
X187415581Y-97780250D01*
X187420797Y-97801074D01*
X187423947Y-97822309D01*
X187425000Y-97843750D01*
X187425000Y-98356250D01*
X187423947Y-98377691D01*
X187420797Y-98398926D01*
X187415581Y-98419750D01*
X187408349Y-98439962D01*
X187399170Y-98459368D01*
X187388134Y-98477781D01*
X187375346Y-98495024D01*
X187360930Y-98510930D01*
X187345024Y-98525346D01*
X187327781Y-98538134D01*
X187309368Y-98549170D01*
X187289962Y-98558349D01*
X187269750Y-98565581D01*
X187248926Y-98570797D01*
X187227691Y-98573947D01*
X187206250Y-98575000D01*
X186768750Y-98575000D01*
X186747309Y-98573947D01*
X186726074Y-98570797D01*
X186705250Y-98565581D01*
X186685038Y-98558349D01*
X186665632Y-98549170D01*
X186647219Y-98538134D01*
X186629976Y-98525346D01*
X186614070Y-98510930D01*
X186599654Y-98495024D01*
X186586866Y-98477781D01*
X186575830Y-98459368D01*
X186566651Y-98439962D01*
X186559419Y-98419750D01*
X186554203Y-98398926D01*
X186551053Y-98377691D01*
X186550000Y-98356250D01*
X186550000Y-97843750D01*
X186551053Y-97822309D01*
X186554203Y-97801074D01*
X186559419Y-97780250D01*
X186566651Y-97760038D01*
X186575830Y-97740632D01*
X186586866Y-97722219D01*
X186599654Y-97704976D01*
X186614070Y-97689070D01*
X186629976Y-97674654D01*
X186647219Y-97661866D01*
X186665632Y-97650830D01*
X186685038Y-97641651D01*
X186705250Y-97634419D01*
X186726074Y-97629203D01*
X186747309Y-97626053D01*
X186768750Y-97625000D01*
X187206250Y-97625000D01*
X187227691Y-97626053D01*
X187227691Y-97626053D01*
G37*
D13*
X186987500Y-98100000D03*
D10*
G36*
X185652691Y-97626053D02*
G01*
X185673926Y-97629203D01*
X185694750Y-97634419D01*
X185714962Y-97641651D01*
X185734368Y-97650830D01*
X185752781Y-97661866D01*
X185770024Y-97674654D01*
X185785930Y-97689070D01*
X185800346Y-97704976D01*
X185813134Y-97722219D01*
X185824170Y-97740632D01*
X185833349Y-97760038D01*
X185840581Y-97780250D01*
X185845797Y-97801074D01*
X185848947Y-97822309D01*
X185850000Y-97843750D01*
X185850000Y-98356250D01*
X185848947Y-98377691D01*
X185845797Y-98398926D01*
X185840581Y-98419750D01*
X185833349Y-98439962D01*
X185824170Y-98459368D01*
X185813134Y-98477781D01*
X185800346Y-98495024D01*
X185785930Y-98510930D01*
X185770024Y-98525346D01*
X185752781Y-98538134D01*
X185734368Y-98549170D01*
X185714962Y-98558349D01*
X185694750Y-98565581D01*
X185673926Y-98570797D01*
X185652691Y-98573947D01*
X185631250Y-98575000D01*
X185193750Y-98575000D01*
X185172309Y-98573947D01*
X185151074Y-98570797D01*
X185130250Y-98565581D01*
X185110038Y-98558349D01*
X185090632Y-98549170D01*
X185072219Y-98538134D01*
X185054976Y-98525346D01*
X185039070Y-98510930D01*
X185024654Y-98495024D01*
X185011866Y-98477781D01*
X185000830Y-98459368D01*
X184991651Y-98439962D01*
X184984419Y-98419750D01*
X184979203Y-98398926D01*
X184976053Y-98377691D01*
X184975000Y-98356250D01*
X184975000Y-97843750D01*
X184976053Y-97822309D01*
X184979203Y-97801074D01*
X184984419Y-97780250D01*
X184991651Y-97760038D01*
X185000830Y-97740632D01*
X185011866Y-97722219D01*
X185024654Y-97704976D01*
X185039070Y-97689070D01*
X185054976Y-97674654D01*
X185072219Y-97661866D01*
X185090632Y-97650830D01*
X185110038Y-97641651D01*
X185130250Y-97634419D01*
X185151074Y-97629203D01*
X185172309Y-97626053D01*
X185193750Y-97625000D01*
X185631250Y-97625000D01*
X185652691Y-97626053D01*
X185652691Y-97626053D01*
G37*
D13*
X185412500Y-98100000D03*
D10*
G36*
X188582691Y-120536053D02*
G01*
X188603926Y-120539203D01*
X188624750Y-120544419D01*
X188644962Y-120551651D01*
X188664368Y-120560830D01*
X188682781Y-120571866D01*
X188700024Y-120584654D01*
X188715930Y-120599070D01*
X188730346Y-120614976D01*
X188743134Y-120632219D01*
X188754170Y-120650632D01*
X188763349Y-120670038D01*
X188770581Y-120690250D01*
X188775797Y-120711074D01*
X188778947Y-120732309D01*
X188780000Y-120753750D01*
X188780000Y-121266250D01*
X188778947Y-121287691D01*
X188775797Y-121308926D01*
X188770581Y-121329750D01*
X188763349Y-121349962D01*
X188754170Y-121369368D01*
X188743134Y-121387781D01*
X188730346Y-121405024D01*
X188715930Y-121420930D01*
X188700024Y-121435346D01*
X188682781Y-121448134D01*
X188664368Y-121459170D01*
X188644962Y-121468349D01*
X188624750Y-121475581D01*
X188603926Y-121480797D01*
X188582691Y-121483947D01*
X188561250Y-121485000D01*
X188123750Y-121485000D01*
X188102309Y-121483947D01*
X188081074Y-121480797D01*
X188060250Y-121475581D01*
X188040038Y-121468349D01*
X188020632Y-121459170D01*
X188002219Y-121448134D01*
X187984976Y-121435346D01*
X187969070Y-121420930D01*
X187954654Y-121405024D01*
X187941866Y-121387781D01*
X187930830Y-121369368D01*
X187921651Y-121349962D01*
X187914419Y-121329750D01*
X187909203Y-121308926D01*
X187906053Y-121287691D01*
X187905000Y-121266250D01*
X187905000Y-120753750D01*
X187906053Y-120732309D01*
X187909203Y-120711074D01*
X187914419Y-120690250D01*
X187921651Y-120670038D01*
X187930830Y-120650632D01*
X187941866Y-120632219D01*
X187954654Y-120614976D01*
X187969070Y-120599070D01*
X187984976Y-120584654D01*
X188002219Y-120571866D01*
X188020632Y-120560830D01*
X188040038Y-120551651D01*
X188060250Y-120544419D01*
X188081074Y-120539203D01*
X188102309Y-120536053D01*
X188123750Y-120535000D01*
X188561250Y-120535000D01*
X188582691Y-120536053D01*
X188582691Y-120536053D01*
G37*
D13*
X188342500Y-121010000D03*
D10*
G36*
X190157691Y-120536053D02*
G01*
X190178926Y-120539203D01*
X190199750Y-120544419D01*
X190219962Y-120551651D01*
X190239368Y-120560830D01*
X190257781Y-120571866D01*
X190275024Y-120584654D01*
X190290930Y-120599070D01*
X190305346Y-120614976D01*
X190318134Y-120632219D01*
X190329170Y-120650632D01*
X190338349Y-120670038D01*
X190345581Y-120690250D01*
X190350797Y-120711074D01*
X190353947Y-120732309D01*
X190355000Y-120753750D01*
X190355000Y-121266250D01*
X190353947Y-121287691D01*
X190350797Y-121308926D01*
X190345581Y-121329750D01*
X190338349Y-121349962D01*
X190329170Y-121369368D01*
X190318134Y-121387781D01*
X190305346Y-121405024D01*
X190290930Y-121420930D01*
X190275024Y-121435346D01*
X190257781Y-121448134D01*
X190239368Y-121459170D01*
X190219962Y-121468349D01*
X190199750Y-121475581D01*
X190178926Y-121480797D01*
X190157691Y-121483947D01*
X190136250Y-121485000D01*
X189698750Y-121485000D01*
X189677309Y-121483947D01*
X189656074Y-121480797D01*
X189635250Y-121475581D01*
X189615038Y-121468349D01*
X189595632Y-121459170D01*
X189577219Y-121448134D01*
X189559976Y-121435346D01*
X189544070Y-121420930D01*
X189529654Y-121405024D01*
X189516866Y-121387781D01*
X189505830Y-121369368D01*
X189496651Y-121349962D01*
X189489419Y-121329750D01*
X189484203Y-121308926D01*
X189481053Y-121287691D01*
X189480000Y-121266250D01*
X189480000Y-120753750D01*
X189481053Y-120732309D01*
X189484203Y-120711074D01*
X189489419Y-120690250D01*
X189496651Y-120670038D01*
X189505830Y-120650632D01*
X189516866Y-120632219D01*
X189529654Y-120614976D01*
X189544070Y-120599070D01*
X189559976Y-120584654D01*
X189577219Y-120571866D01*
X189595632Y-120560830D01*
X189615038Y-120551651D01*
X189635250Y-120544419D01*
X189656074Y-120539203D01*
X189677309Y-120536053D01*
X189698750Y-120535000D01*
X190136250Y-120535000D01*
X190157691Y-120536053D01*
X190157691Y-120536053D01*
G37*
D13*
X189917500Y-121010000D03*
D10*
G36*
X186857691Y-120536053D02*
G01*
X186878926Y-120539203D01*
X186899750Y-120544419D01*
X186919962Y-120551651D01*
X186939368Y-120560830D01*
X186957781Y-120571866D01*
X186975024Y-120584654D01*
X186990930Y-120599070D01*
X187005346Y-120614976D01*
X187018134Y-120632219D01*
X187029170Y-120650632D01*
X187038349Y-120670038D01*
X187045581Y-120690250D01*
X187050797Y-120711074D01*
X187053947Y-120732309D01*
X187055000Y-120753750D01*
X187055000Y-121266250D01*
X187053947Y-121287691D01*
X187050797Y-121308926D01*
X187045581Y-121329750D01*
X187038349Y-121349962D01*
X187029170Y-121369368D01*
X187018134Y-121387781D01*
X187005346Y-121405024D01*
X186990930Y-121420930D01*
X186975024Y-121435346D01*
X186957781Y-121448134D01*
X186939368Y-121459170D01*
X186919962Y-121468349D01*
X186899750Y-121475581D01*
X186878926Y-121480797D01*
X186857691Y-121483947D01*
X186836250Y-121485000D01*
X186398750Y-121485000D01*
X186377309Y-121483947D01*
X186356074Y-121480797D01*
X186335250Y-121475581D01*
X186315038Y-121468349D01*
X186295632Y-121459170D01*
X186277219Y-121448134D01*
X186259976Y-121435346D01*
X186244070Y-121420930D01*
X186229654Y-121405024D01*
X186216866Y-121387781D01*
X186205830Y-121369368D01*
X186196651Y-121349962D01*
X186189419Y-121329750D01*
X186184203Y-121308926D01*
X186181053Y-121287691D01*
X186180000Y-121266250D01*
X186180000Y-120753750D01*
X186181053Y-120732309D01*
X186184203Y-120711074D01*
X186189419Y-120690250D01*
X186196651Y-120670038D01*
X186205830Y-120650632D01*
X186216866Y-120632219D01*
X186229654Y-120614976D01*
X186244070Y-120599070D01*
X186259976Y-120584654D01*
X186277219Y-120571866D01*
X186295632Y-120560830D01*
X186315038Y-120551651D01*
X186335250Y-120544419D01*
X186356074Y-120539203D01*
X186377309Y-120536053D01*
X186398750Y-120535000D01*
X186836250Y-120535000D01*
X186857691Y-120536053D01*
X186857691Y-120536053D01*
G37*
D13*
X186617500Y-121010000D03*
D10*
G36*
X185282691Y-120536053D02*
G01*
X185303926Y-120539203D01*
X185324750Y-120544419D01*
X185344962Y-120551651D01*
X185364368Y-120560830D01*
X185382781Y-120571866D01*
X185400024Y-120584654D01*
X185415930Y-120599070D01*
X185430346Y-120614976D01*
X185443134Y-120632219D01*
X185454170Y-120650632D01*
X185463349Y-120670038D01*
X185470581Y-120690250D01*
X185475797Y-120711074D01*
X185478947Y-120732309D01*
X185480000Y-120753750D01*
X185480000Y-121266250D01*
X185478947Y-121287691D01*
X185475797Y-121308926D01*
X185470581Y-121329750D01*
X185463349Y-121349962D01*
X185454170Y-121369368D01*
X185443134Y-121387781D01*
X185430346Y-121405024D01*
X185415930Y-121420930D01*
X185400024Y-121435346D01*
X185382781Y-121448134D01*
X185364368Y-121459170D01*
X185344962Y-121468349D01*
X185324750Y-121475581D01*
X185303926Y-121480797D01*
X185282691Y-121483947D01*
X185261250Y-121485000D01*
X184823750Y-121485000D01*
X184802309Y-121483947D01*
X184781074Y-121480797D01*
X184760250Y-121475581D01*
X184740038Y-121468349D01*
X184720632Y-121459170D01*
X184702219Y-121448134D01*
X184684976Y-121435346D01*
X184669070Y-121420930D01*
X184654654Y-121405024D01*
X184641866Y-121387781D01*
X184630830Y-121369368D01*
X184621651Y-121349962D01*
X184614419Y-121329750D01*
X184609203Y-121308926D01*
X184606053Y-121287691D01*
X184605000Y-121266250D01*
X184605000Y-120753750D01*
X184606053Y-120732309D01*
X184609203Y-120711074D01*
X184614419Y-120690250D01*
X184621651Y-120670038D01*
X184630830Y-120650632D01*
X184641866Y-120632219D01*
X184654654Y-120614976D01*
X184669070Y-120599070D01*
X184684976Y-120584654D01*
X184702219Y-120571866D01*
X184720632Y-120560830D01*
X184740038Y-120551651D01*
X184760250Y-120544419D01*
X184781074Y-120539203D01*
X184802309Y-120536053D01*
X184823750Y-120535000D01*
X185261250Y-120535000D01*
X185282691Y-120536053D01*
X185282691Y-120536053D01*
G37*
D13*
X185042500Y-121010000D03*
D10*
G36*
X197707691Y-118836053D02*
G01*
X197728926Y-118839203D01*
X197749750Y-118844419D01*
X197769962Y-118851651D01*
X197789368Y-118860830D01*
X197807781Y-118871866D01*
X197825024Y-118884654D01*
X197840930Y-118899070D01*
X197855346Y-118914976D01*
X197868134Y-118932219D01*
X197879170Y-118950632D01*
X197888349Y-118970038D01*
X197895581Y-118990250D01*
X197900797Y-119011074D01*
X197903947Y-119032309D01*
X197905000Y-119053750D01*
X197905000Y-119566250D01*
X197903947Y-119587691D01*
X197900797Y-119608926D01*
X197895581Y-119629750D01*
X197888349Y-119649962D01*
X197879170Y-119669368D01*
X197868134Y-119687781D01*
X197855346Y-119705024D01*
X197840930Y-119720930D01*
X197825024Y-119735346D01*
X197807781Y-119748134D01*
X197789368Y-119759170D01*
X197769962Y-119768349D01*
X197749750Y-119775581D01*
X197728926Y-119780797D01*
X197707691Y-119783947D01*
X197686250Y-119785000D01*
X197248750Y-119785000D01*
X197227309Y-119783947D01*
X197206074Y-119780797D01*
X197185250Y-119775581D01*
X197165038Y-119768349D01*
X197145632Y-119759170D01*
X197127219Y-119748134D01*
X197109976Y-119735346D01*
X197094070Y-119720930D01*
X197079654Y-119705024D01*
X197066866Y-119687781D01*
X197055830Y-119669368D01*
X197046651Y-119649962D01*
X197039419Y-119629750D01*
X197034203Y-119608926D01*
X197031053Y-119587691D01*
X197030000Y-119566250D01*
X197030000Y-119053750D01*
X197031053Y-119032309D01*
X197034203Y-119011074D01*
X197039419Y-118990250D01*
X197046651Y-118970038D01*
X197055830Y-118950632D01*
X197066866Y-118932219D01*
X197079654Y-118914976D01*
X197094070Y-118899070D01*
X197109976Y-118884654D01*
X197127219Y-118871866D01*
X197145632Y-118860830D01*
X197165038Y-118851651D01*
X197185250Y-118844419D01*
X197206074Y-118839203D01*
X197227309Y-118836053D01*
X197248750Y-118835000D01*
X197686250Y-118835000D01*
X197707691Y-118836053D01*
X197707691Y-118836053D01*
G37*
D13*
X197467500Y-119310000D03*
D10*
G36*
X196132691Y-118836053D02*
G01*
X196153926Y-118839203D01*
X196174750Y-118844419D01*
X196194962Y-118851651D01*
X196214368Y-118860830D01*
X196232781Y-118871866D01*
X196250024Y-118884654D01*
X196265930Y-118899070D01*
X196280346Y-118914976D01*
X196293134Y-118932219D01*
X196304170Y-118950632D01*
X196313349Y-118970038D01*
X196320581Y-118990250D01*
X196325797Y-119011074D01*
X196328947Y-119032309D01*
X196330000Y-119053750D01*
X196330000Y-119566250D01*
X196328947Y-119587691D01*
X196325797Y-119608926D01*
X196320581Y-119629750D01*
X196313349Y-119649962D01*
X196304170Y-119669368D01*
X196293134Y-119687781D01*
X196280346Y-119705024D01*
X196265930Y-119720930D01*
X196250024Y-119735346D01*
X196232781Y-119748134D01*
X196214368Y-119759170D01*
X196194962Y-119768349D01*
X196174750Y-119775581D01*
X196153926Y-119780797D01*
X196132691Y-119783947D01*
X196111250Y-119785000D01*
X195673750Y-119785000D01*
X195652309Y-119783947D01*
X195631074Y-119780797D01*
X195610250Y-119775581D01*
X195590038Y-119768349D01*
X195570632Y-119759170D01*
X195552219Y-119748134D01*
X195534976Y-119735346D01*
X195519070Y-119720930D01*
X195504654Y-119705024D01*
X195491866Y-119687781D01*
X195480830Y-119669368D01*
X195471651Y-119649962D01*
X195464419Y-119629750D01*
X195459203Y-119608926D01*
X195456053Y-119587691D01*
X195455000Y-119566250D01*
X195455000Y-119053750D01*
X195456053Y-119032309D01*
X195459203Y-119011074D01*
X195464419Y-118990250D01*
X195471651Y-118970038D01*
X195480830Y-118950632D01*
X195491866Y-118932219D01*
X195504654Y-118914976D01*
X195519070Y-118899070D01*
X195534976Y-118884654D01*
X195552219Y-118871866D01*
X195570632Y-118860830D01*
X195590038Y-118851651D01*
X195610250Y-118844419D01*
X195631074Y-118839203D01*
X195652309Y-118836053D01*
X195673750Y-118835000D01*
X196111250Y-118835000D01*
X196132691Y-118836053D01*
X196132691Y-118836053D01*
G37*
D13*
X195892500Y-119310000D03*
D10*
G36*
X192832691Y-118836053D02*
G01*
X192853926Y-118839203D01*
X192874750Y-118844419D01*
X192894962Y-118851651D01*
X192914368Y-118860830D01*
X192932781Y-118871866D01*
X192950024Y-118884654D01*
X192965930Y-118899070D01*
X192980346Y-118914976D01*
X192993134Y-118932219D01*
X193004170Y-118950632D01*
X193013349Y-118970038D01*
X193020581Y-118990250D01*
X193025797Y-119011074D01*
X193028947Y-119032309D01*
X193030000Y-119053750D01*
X193030000Y-119566250D01*
X193028947Y-119587691D01*
X193025797Y-119608926D01*
X193020581Y-119629750D01*
X193013349Y-119649962D01*
X193004170Y-119669368D01*
X192993134Y-119687781D01*
X192980346Y-119705024D01*
X192965930Y-119720930D01*
X192950024Y-119735346D01*
X192932781Y-119748134D01*
X192914368Y-119759170D01*
X192894962Y-119768349D01*
X192874750Y-119775581D01*
X192853926Y-119780797D01*
X192832691Y-119783947D01*
X192811250Y-119785000D01*
X192373750Y-119785000D01*
X192352309Y-119783947D01*
X192331074Y-119780797D01*
X192310250Y-119775581D01*
X192290038Y-119768349D01*
X192270632Y-119759170D01*
X192252219Y-119748134D01*
X192234976Y-119735346D01*
X192219070Y-119720930D01*
X192204654Y-119705024D01*
X192191866Y-119687781D01*
X192180830Y-119669368D01*
X192171651Y-119649962D01*
X192164419Y-119629750D01*
X192159203Y-119608926D01*
X192156053Y-119587691D01*
X192155000Y-119566250D01*
X192155000Y-119053750D01*
X192156053Y-119032309D01*
X192159203Y-119011074D01*
X192164419Y-118990250D01*
X192171651Y-118970038D01*
X192180830Y-118950632D01*
X192191866Y-118932219D01*
X192204654Y-118914976D01*
X192219070Y-118899070D01*
X192234976Y-118884654D01*
X192252219Y-118871866D01*
X192270632Y-118860830D01*
X192290038Y-118851651D01*
X192310250Y-118844419D01*
X192331074Y-118839203D01*
X192352309Y-118836053D01*
X192373750Y-118835000D01*
X192811250Y-118835000D01*
X192832691Y-118836053D01*
X192832691Y-118836053D01*
G37*
D13*
X192592500Y-119310000D03*
D10*
G36*
X194407691Y-118836053D02*
G01*
X194428926Y-118839203D01*
X194449750Y-118844419D01*
X194469962Y-118851651D01*
X194489368Y-118860830D01*
X194507781Y-118871866D01*
X194525024Y-118884654D01*
X194540930Y-118899070D01*
X194555346Y-118914976D01*
X194568134Y-118932219D01*
X194579170Y-118950632D01*
X194588349Y-118970038D01*
X194595581Y-118990250D01*
X194600797Y-119011074D01*
X194603947Y-119032309D01*
X194605000Y-119053750D01*
X194605000Y-119566250D01*
X194603947Y-119587691D01*
X194600797Y-119608926D01*
X194595581Y-119629750D01*
X194588349Y-119649962D01*
X194579170Y-119669368D01*
X194568134Y-119687781D01*
X194555346Y-119705024D01*
X194540930Y-119720930D01*
X194525024Y-119735346D01*
X194507781Y-119748134D01*
X194489368Y-119759170D01*
X194469962Y-119768349D01*
X194449750Y-119775581D01*
X194428926Y-119780797D01*
X194407691Y-119783947D01*
X194386250Y-119785000D01*
X193948750Y-119785000D01*
X193927309Y-119783947D01*
X193906074Y-119780797D01*
X193885250Y-119775581D01*
X193865038Y-119768349D01*
X193845632Y-119759170D01*
X193827219Y-119748134D01*
X193809976Y-119735346D01*
X193794070Y-119720930D01*
X193779654Y-119705024D01*
X193766866Y-119687781D01*
X193755830Y-119669368D01*
X193746651Y-119649962D01*
X193739419Y-119629750D01*
X193734203Y-119608926D01*
X193731053Y-119587691D01*
X193730000Y-119566250D01*
X193730000Y-119053750D01*
X193731053Y-119032309D01*
X193734203Y-119011074D01*
X193739419Y-118990250D01*
X193746651Y-118970038D01*
X193755830Y-118950632D01*
X193766866Y-118932219D01*
X193779654Y-118914976D01*
X193794070Y-118899070D01*
X193809976Y-118884654D01*
X193827219Y-118871866D01*
X193845632Y-118860830D01*
X193865038Y-118851651D01*
X193885250Y-118844419D01*
X193906074Y-118839203D01*
X193927309Y-118836053D01*
X193948750Y-118835000D01*
X194386250Y-118835000D01*
X194407691Y-118836053D01*
X194407691Y-118836053D01*
G37*
D13*
X194167500Y-119310000D03*
D10*
G36*
X182877691Y-117176053D02*
G01*
X182898926Y-117179203D01*
X182919750Y-117184419D01*
X182939962Y-117191651D01*
X182959368Y-117200830D01*
X182977781Y-117211866D01*
X182995024Y-117224654D01*
X183010930Y-117239070D01*
X183025346Y-117254976D01*
X183038134Y-117272219D01*
X183049170Y-117290632D01*
X183058349Y-117310038D01*
X183065581Y-117330250D01*
X183070797Y-117351074D01*
X183073947Y-117372309D01*
X183075000Y-117393750D01*
X183075000Y-117906250D01*
X183073947Y-117927691D01*
X183070797Y-117948926D01*
X183065581Y-117969750D01*
X183058349Y-117989962D01*
X183049170Y-118009368D01*
X183038134Y-118027781D01*
X183025346Y-118045024D01*
X183010930Y-118060930D01*
X182995024Y-118075346D01*
X182977781Y-118088134D01*
X182959368Y-118099170D01*
X182939962Y-118108349D01*
X182919750Y-118115581D01*
X182898926Y-118120797D01*
X182877691Y-118123947D01*
X182856250Y-118125000D01*
X182418750Y-118125000D01*
X182397309Y-118123947D01*
X182376074Y-118120797D01*
X182355250Y-118115581D01*
X182335038Y-118108349D01*
X182315632Y-118099170D01*
X182297219Y-118088134D01*
X182279976Y-118075346D01*
X182264070Y-118060930D01*
X182249654Y-118045024D01*
X182236866Y-118027781D01*
X182225830Y-118009368D01*
X182216651Y-117989962D01*
X182209419Y-117969750D01*
X182204203Y-117948926D01*
X182201053Y-117927691D01*
X182200000Y-117906250D01*
X182200000Y-117393750D01*
X182201053Y-117372309D01*
X182204203Y-117351074D01*
X182209419Y-117330250D01*
X182216651Y-117310038D01*
X182225830Y-117290632D01*
X182236866Y-117272219D01*
X182249654Y-117254976D01*
X182264070Y-117239070D01*
X182279976Y-117224654D01*
X182297219Y-117211866D01*
X182315632Y-117200830D01*
X182335038Y-117191651D01*
X182355250Y-117184419D01*
X182376074Y-117179203D01*
X182397309Y-117176053D01*
X182418750Y-117175000D01*
X182856250Y-117175000D01*
X182877691Y-117176053D01*
X182877691Y-117176053D01*
G37*
D13*
X182637500Y-117650000D03*
D10*
G36*
X181302691Y-117176053D02*
G01*
X181323926Y-117179203D01*
X181344750Y-117184419D01*
X181364962Y-117191651D01*
X181384368Y-117200830D01*
X181402781Y-117211866D01*
X181420024Y-117224654D01*
X181435930Y-117239070D01*
X181450346Y-117254976D01*
X181463134Y-117272219D01*
X181474170Y-117290632D01*
X181483349Y-117310038D01*
X181490581Y-117330250D01*
X181495797Y-117351074D01*
X181498947Y-117372309D01*
X181500000Y-117393750D01*
X181500000Y-117906250D01*
X181498947Y-117927691D01*
X181495797Y-117948926D01*
X181490581Y-117969750D01*
X181483349Y-117989962D01*
X181474170Y-118009368D01*
X181463134Y-118027781D01*
X181450346Y-118045024D01*
X181435930Y-118060930D01*
X181420024Y-118075346D01*
X181402781Y-118088134D01*
X181384368Y-118099170D01*
X181364962Y-118108349D01*
X181344750Y-118115581D01*
X181323926Y-118120797D01*
X181302691Y-118123947D01*
X181281250Y-118125000D01*
X180843750Y-118125000D01*
X180822309Y-118123947D01*
X180801074Y-118120797D01*
X180780250Y-118115581D01*
X180760038Y-118108349D01*
X180740632Y-118099170D01*
X180722219Y-118088134D01*
X180704976Y-118075346D01*
X180689070Y-118060930D01*
X180674654Y-118045024D01*
X180661866Y-118027781D01*
X180650830Y-118009368D01*
X180641651Y-117989962D01*
X180634419Y-117969750D01*
X180629203Y-117948926D01*
X180626053Y-117927691D01*
X180625000Y-117906250D01*
X180625000Y-117393750D01*
X180626053Y-117372309D01*
X180629203Y-117351074D01*
X180634419Y-117330250D01*
X180641651Y-117310038D01*
X180650830Y-117290632D01*
X180661866Y-117272219D01*
X180674654Y-117254976D01*
X180689070Y-117239070D01*
X180704976Y-117224654D01*
X180722219Y-117211866D01*
X180740632Y-117200830D01*
X180760038Y-117191651D01*
X180780250Y-117184419D01*
X180801074Y-117179203D01*
X180822309Y-117176053D01*
X180843750Y-117175000D01*
X181281250Y-117175000D01*
X181302691Y-117176053D01*
X181302691Y-117176053D01*
G37*
D13*
X181062500Y-117650000D03*
D10*
G36*
X188582691Y-118836053D02*
G01*
X188603926Y-118839203D01*
X188624750Y-118844419D01*
X188644962Y-118851651D01*
X188664368Y-118860830D01*
X188682781Y-118871866D01*
X188700024Y-118884654D01*
X188715930Y-118899070D01*
X188730346Y-118914976D01*
X188743134Y-118932219D01*
X188754170Y-118950632D01*
X188763349Y-118970038D01*
X188770581Y-118990250D01*
X188775797Y-119011074D01*
X188778947Y-119032309D01*
X188780000Y-119053750D01*
X188780000Y-119566250D01*
X188778947Y-119587691D01*
X188775797Y-119608926D01*
X188770581Y-119629750D01*
X188763349Y-119649962D01*
X188754170Y-119669368D01*
X188743134Y-119687781D01*
X188730346Y-119705024D01*
X188715930Y-119720930D01*
X188700024Y-119735346D01*
X188682781Y-119748134D01*
X188664368Y-119759170D01*
X188644962Y-119768349D01*
X188624750Y-119775581D01*
X188603926Y-119780797D01*
X188582691Y-119783947D01*
X188561250Y-119785000D01*
X188123750Y-119785000D01*
X188102309Y-119783947D01*
X188081074Y-119780797D01*
X188060250Y-119775581D01*
X188040038Y-119768349D01*
X188020632Y-119759170D01*
X188002219Y-119748134D01*
X187984976Y-119735346D01*
X187969070Y-119720930D01*
X187954654Y-119705024D01*
X187941866Y-119687781D01*
X187930830Y-119669368D01*
X187921651Y-119649962D01*
X187914419Y-119629750D01*
X187909203Y-119608926D01*
X187906053Y-119587691D01*
X187905000Y-119566250D01*
X187905000Y-119053750D01*
X187906053Y-119032309D01*
X187909203Y-119011074D01*
X187914419Y-118990250D01*
X187921651Y-118970038D01*
X187930830Y-118950632D01*
X187941866Y-118932219D01*
X187954654Y-118914976D01*
X187969070Y-118899070D01*
X187984976Y-118884654D01*
X188002219Y-118871866D01*
X188020632Y-118860830D01*
X188040038Y-118851651D01*
X188060250Y-118844419D01*
X188081074Y-118839203D01*
X188102309Y-118836053D01*
X188123750Y-118835000D01*
X188561250Y-118835000D01*
X188582691Y-118836053D01*
X188582691Y-118836053D01*
G37*
D13*
X188342500Y-119310000D03*
D10*
G36*
X190157691Y-118836053D02*
G01*
X190178926Y-118839203D01*
X190199750Y-118844419D01*
X190219962Y-118851651D01*
X190239368Y-118860830D01*
X190257781Y-118871866D01*
X190275024Y-118884654D01*
X190290930Y-118899070D01*
X190305346Y-118914976D01*
X190318134Y-118932219D01*
X190329170Y-118950632D01*
X190338349Y-118970038D01*
X190345581Y-118990250D01*
X190350797Y-119011074D01*
X190353947Y-119032309D01*
X190355000Y-119053750D01*
X190355000Y-119566250D01*
X190353947Y-119587691D01*
X190350797Y-119608926D01*
X190345581Y-119629750D01*
X190338349Y-119649962D01*
X190329170Y-119669368D01*
X190318134Y-119687781D01*
X190305346Y-119705024D01*
X190290930Y-119720930D01*
X190275024Y-119735346D01*
X190257781Y-119748134D01*
X190239368Y-119759170D01*
X190219962Y-119768349D01*
X190199750Y-119775581D01*
X190178926Y-119780797D01*
X190157691Y-119783947D01*
X190136250Y-119785000D01*
X189698750Y-119785000D01*
X189677309Y-119783947D01*
X189656074Y-119780797D01*
X189635250Y-119775581D01*
X189615038Y-119768349D01*
X189595632Y-119759170D01*
X189577219Y-119748134D01*
X189559976Y-119735346D01*
X189544070Y-119720930D01*
X189529654Y-119705024D01*
X189516866Y-119687781D01*
X189505830Y-119669368D01*
X189496651Y-119649962D01*
X189489419Y-119629750D01*
X189484203Y-119608926D01*
X189481053Y-119587691D01*
X189480000Y-119566250D01*
X189480000Y-119053750D01*
X189481053Y-119032309D01*
X189484203Y-119011074D01*
X189489419Y-118990250D01*
X189496651Y-118970038D01*
X189505830Y-118950632D01*
X189516866Y-118932219D01*
X189529654Y-118914976D01*
X189544070Y-118899070D01*
X189559976Y-118884654D01*
X189577219Y-118871866D01*
X189595632Y-118860830D01*
X189615038Y-118851651D01*
X189635250Y-118844419D01*
X189656074Y-118839203D01*
X189677309Y-118836053D01*
X189698750Y-118835000D01*
X190136250Y-118835000D01*
X190157691Y-118836053D01*
X190157691Y-118836053D01*
G37*
D13*
X189917500Y-119310000D03*
D10*
G36*
X186857691Y-118836053D02*
G01*
X186878926Y-118839203D01*
X186899750Y-118844419D01*
X186919962Y-118851651D01*
X186939368Y-118860830D01*
X186957781Y-118871866D01*
X186975024Y-118884654D01*
X186990930Y-118899070D01*
X187005346Y-118914976D01*
X187018134Y-118932219D01*
X187029170Y-118950632D01*
X187038349Y-118970038D01*
X187045581Y-118990250D01*
X187050797Y-119011074D01*
X187053947Y-119032309D01*
X187055000Y-119053750D01*
X187055000Y-119566250D01*
X187053947Y-119587691D01*
X187050797Y-119608926D01*
X187045581Y-119629750D01*
X187038349Y-119649962D01*
X187029170Y-119669368D01*
X187018134Y-119687781D01*
X187005346Y-119705024D01*
X186990930Y-119720930D01*
X186975024Y-119735346D01*
X186957781Y-119748134D01*
X186939368Y-119759170D01*
X186919962Y-119768349D01*
X186899750Y-119775581D01*
X186878926Y-119780797D01*
X186857691Y-119783947D01*
X186836250Y-119785000D01*
X186398750Y-119785000D01*
X186377309Y-119783947D01*
X186356074Y-119780797D01*
X186335250Y-119775581D01*
X186315038Y-119768349D01*
X186295632Y-119759170D01*
X186277219Y-119748134D01*
X186259976Y-119735346D01*
X186244070Y-119720930D01*
X186229654Y-119705024D01*
X186216866Y-119687781D01*
X186205830Y-119669368D01*
X186196651Y-119649962D01*
X186189419Y-119629750D01*
X186184203Y-119608926D01*
X186181053Y-119587691D01*
X186180000Y-119566250D01*
X186180000Y-119053750D01*
X186181053Y-119032309D01*
X186184203Y-119011074D01*
X186189419Y-118990250D01*
X186196651Y-118970038D01*
X186205830Y-118950632D01*
X186216866Y-118932219D01*
X186229654Y-118914976D01*
X186244070Y-118899070D01*
X186259976Y-118884654D01*
X186277219Y-118871866D01*
X186295632Y-118860830D01*
X186315038Y-118851651D01*
X186335250Y-118844419D01*
X186356074Y-118839203D01*
X186377309Y-118836053D01*
X186398750Y-118835000D01*
X186836250Y-118835000D01*
X186857691Y-118836053D01*
X186857691Y-118836053D01*
G37*
D13*
X186617500Y-119310000D03*
D10*
G36*
X185282691Y-118836053D02*
G01*
X185303926Y-118839203D01*
X185324750Y-118844419D01*
X185344962Y-118851651D01*
X185364368Y-118860830D01*
X185382781Y-118871866D01*
X185400024Y-118884654D01*
X185415930Y-118899070D01*
X185430346Y-118914976D01*
X185443134Y-118932219D01*
X185454170Y-118950632D01*
X185463349Y-118970038D01*
X185470581Y-118990250D01*
X185475797Y-119011074D01*
X185478947Y-119032309D01*
X185480000Y-119053750D01*
X185480000Y-119566250D01*
X185478947Y-119587691D01*
X185475797Y-119608926D01*
X185470581Y-119629750D01*
X185463349Y-119649962D01*
X185454170Y-119669368D01*
X185443134Y-119687781D01*
X185430346Y-119705024D01*
X185415930Y-119720930D01*
X185400024Y-119735346D01*
X185382781Y-119748134D01*
X185364368Y-119759170D01*
X185344962Y-119768349D01*
X185324750Y-119775581D01*
X185303926Y-119780797D01*
X185282691Y-119783947D01*
X185261250Y-119785000D01*
X184823750Y-119785000D01*
X184802309Y-119783947D01*
X184781074Y-119780797D01*
X184760250Y-119775581D01*
X184740038Y-119768349D01*
X184720632Y-119759170D01*
X184702219Y-119748134D01*
X184684976Y-119735346D01*
X184669070Y-119720930D01*
X184654654Y-119705024D01*
X184641866Y-119687781D01*
X184630830Y-119669368D01*
X184621651Y-119649962D01*
X184614419Y-119629750D01*
X184609203Y-119608926D01*
X184606053Y-119587691D01*
X184605000Y-119566250D01*
X184605000Y-119053750D01*
X184606053Y-119032309D01*
X184609203Y-119011074D01*
X184614419Y-118990250D01*
X184621651Y-118970038D01*
X184630830Y-118950632D01*
X184641866Y-118932219D01*
X184654654Y-118914976D01*
X184669070Y-118899070D01*
X184684976Y-118884654D01*
X184702219Y-118871866D01*
X184720632Y-118860830D01*
X184740038Y-118851651D01*
X184760250Y-118844419D01*
X184781074Y-118839203D01*
X184802309Y-118836053D01*
X184823750Y-118835000D01*
X185261250Y-118835000D01*
X185282691Y-118836053D01*
X185282691Y-118836053D01*
G37*
D13*
X185042500Y-119310000D03*
D10*
G36*
X181302691Y-118926053D02*
G01*
X181323926Y-118929203D01*
X181344750Y-118934419D01*
X181364962Y-118941651D01*
X181384368Y-118950830D01*
X181402781Y-118961866D01*
X181420024Y-118974654D01*
X181435930Y-118989070D01*
X181450346Y-119004976D01*
X181463134Y-119022219D01*
X181474170Y-119040632D01*
X181483349Y-119060038D01*
X181490581Y-119080250D01*
X181495797Y-119101074D01*
X181498947Y-119122309D01*
X181500000Y-119143750D01*
X181500000Y-119656250D01*
X181498947Y-119677691D01*
X181495797Y-119698926D01*
X181490581Y-119719750D01*
X181483349Y-119739962D01*
X181474170Y-119759368D01*
X181463134Y-119777781D01*
X181450346Y-119795024D01*
X181435930Y-119810930D01*
X181420024Y-119825346D01*
X181402781Y-119838134D01*
X181384368Y-119849170D01*
X181364962Y-119858349D01*
X181344750Y-119865581D01*
X181323926Y-119870797D01*
X181302691Y-119873947D01*
X181281250Y-119875000D01*
X180843750Y-119875000D01*
X180822309Y-119873947D01*
X180801074Y-119870797D01*
X180780250Y-119865581D01*
X180760038Y-119858349D01*
X180740632Y-119849170D01*
X180722219Y-119838134D01*
X180704976Y-119825346D01*
X180689070Y-119810930D01*
X180674654Y-119795024D01*
X180661866Y-119777781D01*
X180650830Y-119759368D01*
X180641651Y-119739962D01*
X180634419Y-119719750D01*
X180629203Y-119698926D01*
X180626053Y-119677691D01*
X180625000Y-119656250D01*
X180625000Y-119143750D01*
X180626053Y-119122309D01*
X180629203Y-119101074D01*
X180634419Y-119080250D01*
X180641651Y-119060038D01*
X180650830Y-119040632D01*
X180661866Y-119022219D01*
X180674654Y-119004976D01*
X180689070Y-118989070D01*
X180704976Y-118974654D01*
X180722219Y-118961866D01*
X180740632Y-118950830D01*
X180760038Y-118941651D01*
X180780250Y-118934419D01*
X180801074Y-118929203D01*
X180822309Y-118926053D01*
X180843750Y-118925000D01*
X181281250Y-118925000D01*
X181302691Y-118926053D01*
X181302691Y-118926053D01*
G37*
D13*
X181062500Y-119400000D03*
D10*
G36*
X182877691Y-118926053D02*
G01*
X182898926Y-118929203D01*
X182919750Y-118934419D01*
X182939962Y-118941651D01*
X182959368Y-118950830D01*
X182977781Y-118961866D01*
X182995024Y-118974654D01*
X183010930Y-118989070D01*
X183025346Y-119004976D01*
X183038134Y-119022219D01*
X183049170Y-119040632D01*
X183058349Y-119060038D01*
X183065581Y-119080250D01*
X183070797Y-119101074D01*
X183073947Y-119122309D01*
X183075000Y-119143750D01*
X183075000Y-119656250D01*
X183073947Y-119677691D01*
X183070797Y-119698926D01*
X183065581Y-119719750D01*
X183058349Y-119739962D01*
X183049170Y-119759368D01*
X183038134Y-119777781D01*
X183025346Y-119795024D01*
X183010930Y-119810930D01*
X182995024Y-119825346D01*
X182977781Y-119838134D01*
X182959368Y-119849170D01*
X182939962Y-119858349D01*
X182919750Y-119865581D01*
X182898926Y-119870797D01*
X182877691Y-119873947D01*
X182856250Y-119875000D01*
X182418750Y-119875000D01*
X182397309Y-119873947D01*
X182376074Y-119870797D01*
X182355250Y-119865581D01*
X182335038Y-119858349D01*
X182315632Y-119849170D01*
X182297219Y-119838134D01*
X182279976Y-119825346D01*
X182264070Y-119810930D01*
X182249654Y-119795024D01*
X182236866Y-119777781D01*
X182225830Y-119759368D01*
X182216651Y-119739962D01*
X182209419Y-119719750D01*
X182204203Y-119698926D01*
X182201053Y-119677691D01*
X182200000Y-119656250D01*
X182200000Y-119143750D01*
X182201053Y-119122309D01*
X182204203Y-119101074D01*
X182209419Y-119080250D01*
X182216651Y-119060038D01*
X182225830Y-119040632D01*
X182236866Y-119022219D01*
X182249654Y-119004976D01*
X182264070Y-118989070D01*
X182279976Y-118974654D01*
X182297219Y-118961866D01*
X182315632Y-118950830D01*
X182335038Y-118941651D01*
X182355250Y-118934419D01*
X182376074Y-118929203D01*
X182397309Y-118926053D01*
X182418750Y-118925000D01*
X182856250Y-118925000D01*
X182877691Y-118926053D01*
X182877691Y-118926053D01*
G37*
D13*
X182637500Y-119400000D03*
D10*
G36*
X197707691Y-120536053D02*
G01*
X197728926Y-120539203D01*
X197749750Y-120544419D01*
X197769962Y-120551651D01*
X197789368Y-120560830D01*
X197807781Y-120571866D01*
X197825024Y-120584654D01*
X197840930Y-120599070D01*
X197855346Y-120614976D01*
X197868134Y-120632219D01*
X197879170Y-120650632D01*
X197888349Y-120670038D01*
X197895581Y-120690250D01*
X197900797Y-120711074D01*
X197903947Y-120732309D01*
X197905000Y-120753750D01*
X197905000Y-121266250D01*
X197903947Y-121287691D01*
X197900797Y-121308926D01*
X197895581Y-121329750D01*
X197888349Y-121349962D01*
X197879170Y-121369368D01*
X197868134Y-121387781D01*
X197855346Y-121405024D01*
X197840930Y-121420930D01*
X197825024Y-121435346D01*
X197807781Y-121448134D01*
X197789368Y-121459170D01*
X197769962Y-121468349D01*
X197749750Y-121475581D01*
X197728926Y-121480797D01*
X197707691Y-121483947D01*
X197686250Y-121485000D01*
X197248750Y-121485000D01*
X197227309Y-121483947D01*
X197206074Y-121480797D01*
X197185250Y-121475581D01*
X197165038Y-121468349D01*
X197145632Y-121459170D01*
X197127219Y-121448134D01*
X197109976Y-121435346D01*
X197094070Y-121420930D01*
X197079654Y-121405024D01*
X197066866Y-121387781D01*
X197055830Y-121369368D01*
X197046651Y-121349962D01*
X197039419Y-121329750D01*
X197034203Y-121308926D01*
X197031053Y-121287691D01*
X197030000Y-121266250D01*
X197030000Y-120753750D01*
X197031053Y-120732309D01*
X197034203Y-120711074D01*
X197039419Y-120690250D01*
X197046651Y-120670038D01*
X197055830Y-120650632D01*
X197066866Y-120632219D01*
X197079654Y-120614976D01*
X197094070Y-120599070D01*
X197109976Y-120584654D01*
X197127219Y-120571866D01*
X197145632Y-120560830D01*
X197165038Y-120551651D01*
X197185250Y-120544419D01*
X197206074Y-120539203D01*
X197227309Y-120536053D01*
X197248750Y-120535000D01*
X197686250Y-120535000D01*
X197707691Y-120536053D01*
X197707691Y-120536053D01*
G37*
D13*
X197467500Y-121010000D03*
D10*
G36*
X196132691Y-120536053D02*
G01*
X196153926Y-120539203D01*
X196174750Y-120544419D01*
X196194962Y-120551651D01*
X196214368Y-120560830D01*
X196232781Y-120571866D01*
X196250024Y-120584654D01*
X196265930Y-120599070D01*
X196280346Y-120614976D01*
X196293134Y-120632219D01*
X196304170Y-120650632D01*
X196313349Y-120670038D01*
X196320581Y-120690250D01*
X196325797Y-120711074D01*
X196328947Y-120732309D01*
X196330000Y-120753750D01*
X196330000Y-121266250D01*
X196328947Y-121287691D01*
X196325797Y-121308926D01*
X196320581Y-121329750D01*
X196313349Y-121349962D01*
X196304170Y-121369368D01*
X196293134Y-121387781D01*
X196280346Y-121405024D01*
X196265930Y-121420930D01*
X196250024Y-121435346D01*
X196232781Y-121448134D01*
X196214368Y-121459170D01*
X196194962Y-121468349D01*
X196174750Y-121475581D01*
X196153926Y-121480797D01*
X196132691Y-121483947D01*
X196111250Y-121485000D01*
X195673750Y-121485000D01*
X195652309Y-121483947D01*
X195631074Y-121480797D01*
X195610250Y-121475581D01*
X195590038Y-121468349D01*
X195570632Y-121459170D01*
X195552219Y-121448134D01*
X195534976Y-121435346D01*
X195519070Y-121420930D01*
X195504654Y-121405024D01*
X195491866Y-121387781D01*
X195480830Y-121369368D01*
X195471651Y-121349962D01*
X195464419Y-121329750D01*
X195459203Y-121308926D01*
X195456053Y-121287691D01*
X195455000Y-121266250D01*
X195455000Y-120753750D01*
X195456053Y-120732309D01*
X195459203Y-120711074D01*
X195464419Y-120690250D01*
X195471651Y-120670038D01*
X195480830Y-120650632D01*
X195491866Y-120632219D01*
X195504654Y-120614976D01*
X195519070Y-120599070D01*
X195534976Y-120584654D01*
X195552219Y-120571866D01*
X195570632Y-120560830D01*
X195590038Y-120551651D01*
X195610250Y-120544419D01*
X195631074Y-120539203D01*
X195652309Y-120536053D01*
X195673750Y-120535000D01*
X196111250Y-120535000D01*
X196132691Y-120536053D01*
X196132691Y-120536053D01*
G37*
D13*
X195892500Y-121010000D03*
D10*
G36*
X192832691Y-120536053D02*
G01*
X192853926Y-120539203D01*
X192874750Y-120544419D01*
X192894962Y-120551651D01*
X192914368Y-120560830D01*
X192932781Y-120571866D01*
X192950024Y-120584654D01*
X192965930Y-120599070D01*
X192980346Y-120614976D01*
X192993134Y-120632219D01*
X193004170Y-120650632D01*
X193013349Y-120670038D01*
X193020581Y-120690250D01*
X193025797Y-120711074D01*
X193028947Y-120732309D01*
X193030000Y-120753750D01*
X193030000Y-121266250D01*
X193028947Y-121287691D01*
X193025797Y-121308926D01*
X193020581Y-121329750D01*
X193013349Y-121349962D01*
X193004170Y-121369368D01*
X192993134Y-121387781D01*
X192980346Y-121405024D01*
X192965930Y-121420930D01*
X192950024Y-121435346D01*
X192932781Y-121448134D01*
X192914368Y-121459170D01*
X192894962Y-121468349D01*
X192874750Y-121475581D01*
X192853926Y-121480797D01*
X192832691Y-121483947D01*
X192811250Y-121485000D01*
X192373750Y-121485000D01*
X192352309Y-121483947D01*
X192331074Y-121480797D01*
X192310250Y-121475581D01*
X192290038Y-121468349D01*
X192270632Y-121459170D01*
X192252219Y-121448134D01*
X192234976Y-121435346D01*
X192219070Y-121420930D01*
X192204654Y-121405024D01*
X192191866Y-121387781D01*
X192180830Y-121369368D01*
X192171651Y-121349962D01*
X192164419Y-121329750D01*
X192159203Y-121308926D01*
X192156053Y-121287691D01*
X192155000Y-121266250D01*
X192155000Y-120753750D01*
X192156053Y-120732309D01*
X192159203Y-120711074D01*
X192164419Y-120690250D01*
X192171651Y-120670038D01*
X192180830Y-120650632D01*
X192191866Y-120632219D01*
X192204654Y-120614976D01*
X192219070Y-120599070D01*
X192234976Y-120584654D01*
X192252219Y-120571866D01*
X192270632Y-120560830D01*
X192290038Y-120551651D01*
X192310250Y-120544419D01*
X192331074Y-120539203D01*
X192352309Y-120536053D01*
X192373750Y-120535000D01*
X192811250Y-120535000D01*
X192832691Y-120536053D01*
X192832691Y-120536053D01*
G37*
D13*
X192592500Y-121010000D03*
D10*
G36*
X194407691Y-120536053D02*
G01*
X194428926Y-120539203D01*
X194449750Y-120544419D01*
X194469962Y-120551651D01*
X194489368Y-120560830D01*
X194507781Y-120571866D01*
X194525024Y-120584654D01*
X194540930Y-120599070D01*
X194555346Y-120614976D01*
X194568134Y-120632219D01*
X194579170Y-120650632D01*
X194588349Y-120670038D01*
X194595581Y-120690250D01*
X194600797Y-120711074D01*
X194603947Y-120732309D01*
X194605000Y-120753750D01*
X194605000Y-121266250D01*
X194603947Y-121287691D01*
X194600797Y-121308926D01*
X194595581Y-121329750D01*
X194588349Y-121349962D01*
X194579170Y-121369368D01*
X194568134Y-121387781D01*
X194555346Y-121405024D01*
X194540930Y-121420930D01*
X194525024Y-121435346D01*
X194507781Y-121448134D01*
X194489368Y-121459170D01*
X194469962Y-121468349D01*
X194449750Y-121475581D01*
X194428926Y-121480797D01*
X194407691Y-121483947D01*
X194386250Y-121485000D01*
X193948750Y-121485000D01*
X193927309Y-121483947D01*
X193906074Y-121480797D01*
X193885250Y-121475581D01*
X193865038Y-121468349D01*
X193845632Y-121459170D01*
X193827219Y-121448134D01*
X193809976Y-121435346D01*
X193794070Y-121420930D01*
X193779654Y-121405024D01*
X193766866Y-121387781D01*
X193755830Y-121369368D01*
X193746651Y-121349962D01*
X193739419Y-121329750D01*
X193734203Y-121308926D01*
X193731053Y-121287691D01*
X193730000Y-121266250D01*
X193730000Y-120753750D01*
X193731053Y-120732309D01*
X193734203Y-120711074D01*
X193739419Y-120690250D01*
X193746651Y-120670038D01*
X193755830Y-120650632D01*
X193766866Y-120632219D01*
X193779654Y-120614976D01*
X193794070Y-120599070D01*
X193809976Y-120584654D01*
X193827219Y-120571866D01*
X193845632Y-120560830D01*
X193865038Y-120551651D01*
X193885250Y-120544419D01*
X193906074Y-120539203D01*
X193927309Y-120536053D01*
X193948750Y-120535000D01*
X194386250Y-120535000D01*
X194407691Y-120536053D01*
X194407691Y-120536053D01*
G37*
D13*
X194167500Y-121010000D03*
D10*
G36*
X194594691Y-106016053D02*
G01*
X194615926Y-106019203D01*
X194636750Y-106024419D01*
X194656962Y-106031651D01*
X194676368Y-106040830D01*
X194694781Y-106051866D01*
X194712024Y-106064654D01*
X194727930Y-106079070D01*
X194742346Y-106094976D01*
X194755134Y-106112219D01*
X194766170Y-106130632D01*
X194775349Y-106150038D01*
X194782581Y-106170250D01*
X194787797Y-106191074D01*
X194790947Y-106212309D01*
X194792000Y-106233750D01*
X194792000Y-106746250D01*
X194790947Y-106767691D01*
X194787797Y-106788926D01*
X194782581Y-106809750D01*
X194775349Y-106829962D01*
X194766170Y-106849368D01*
X194755134Y-106867781D01*
X194742346Y-106885024D01*
X194727930Y-106900930D01*
X194712024Y-106915346D01*
X194694781Y-106928134D01*
X194676368Y-106939170D01*
X194656962Y-106948349D01*
X194636750Y-106955581D01*
X194615926Y-106960797D01*
X194594691Y-106963947D01*
X194573250Y-106965000D01*
X194135750Y-106965000D01*
X194114309Y-106963947D01*
X194093074Y-106960797D01*
X194072250Y-106955581D01*
X194052038Y-106948349D01*
X194032632Y-106939170D01*
X194014219Y-106928134D01*
X193996976Y-106915346D01*
X193981070Y-106900930D01*
X193966654Y-106885024D01*
X193953866Y-106867781D01*
X193942830Y-106849368D01*
X193933651Y-106829962D01*
X193926419Y-106809750D01*
X193921203Y-106788926D01*
X193918053Y-106767691D01*
X193917000Y-106746250D01*
X193917000Y-106233750D01*
X193918053Y-106212309D01*
X193921203Y-106191074D01*
X193926419Y-106170250D01*
X193933651Y-106150038D01*
X193942830Y-106130632D01*
X193953866Y-106112219D01*
X193966654Y-106094976D01*
X193981070Y-106079070D01*
X193996976Y-106064654D01*
X194014219Y-106051866D01*
X194032632Y-106040830D01*
X194052038Y-106031651D01*
X194072250Y-106024419D01*
X194093074Y-106019203D01*
X194114309Y-106016053D01*
X194135750Y-106015000D01*
X194573250Y-106015000D01*
X194594691Y-106016053D01*
X194594691Y-106016053D01*
G37*
D13*
X194354500Y-106490000D03*
D10*
G36*
X196169691Y-106016053D02*
G01*
X196190926Y-106019203D01*
X196211750Y-106024419D01*
X196231962Y-106031651D01*
X196251368Y-106040830D01*
X196269781Y-106051866D01*
X196287024Y-106064654D01*
X196302930Y-106079070D01*
X196317346Y-106094976D01*
X196330134Y-106112219D01*
X196341170Y-106130632D01*
X196350349Y-106150038D01*
X196357581Y-106170250D01*
X196362797Y-106191074D01*
X196365947Y-106212309D01*
X196367000Y-106233750D01*
X196367000Y-106746250D01*
X196365947Y-106767691D01*
X196362797Y-106788926D01*
X196357581Y-106809750D01*
X196350349Y-106829962D01*
X196341170Y-106849368D01*
X196330134Y-106867781D01*
X196317346Y-106885024D01*
X196302930Y-106900930D01*
X196287024Y-106915346D01*
X196269781Y-106928134D01*
X196251368Y-106939170D01*
X196231962Y-106948349D01*
X196211750Y-106955581D01*
X196190926Y-106960797D01*
X196169691Y-106963947D01*
X196148250Y-106965000D01*
X195710750Y-106965000D01*
X195689309Y-106963947D01*
X195668074Y-106960797D01*
X195647250Y-106955581D01*
X195627038Y-106948349D01*
X195607632Y-106939170D01*
X195589219Y-106928134D01*
X195571976Y-106915346D01*
X195556070Y-106900930D01*
X195541654Y-106885024D01*
X195528866Y-106867781D01*
X195517830Y-106849368D01*
X195508651Y-106829962D01*
X195501419Y-106809750D01*
X195496203Y-106788926D01*
X195493053Y-106767691D01*
X195492000Y-106746250D01*
X195492000Y-106233750D01*
X195493053Y-106212309D01*
X195496203Y-106191074D01*
X195501419Y-106170250D01*
X195508651Y-106150038D01*
X195517830Y-106130632D01*
X195528866Y-106112219D01*
X195541654Y-106094976D01*
X195556070Y-106079070D01*
X195571976Y-106064654D01*
X195589219Y-106051866D01*
X195607632Y-106040830D01*
X195627038Y-106031651D01*
X195647250Y-106024419D01*
X195668074Y-106019203D01*
X195689309Y-106016053D01*
X195710750Y-106015000D01*
X196148250Y-106015000D01*
X196169691Y-106016053D01*
X196169691Y-106016053D01*
G37*
D13*
X195929500Y-106490000D03*
D10*
G36*
X190864691Y-97626053D02*
G01*
X190885926Y-97629203D01*
X190906750Y-97634419D01*
X190926962Y-97641651D01*
X190946368Y-97650830D01*
X190964781Y-97661866D01*
X190982024Y-97674654D01*
X190997930Y-97689070D01*
X191012346Y-97704976D01*
X191025134Y-97722219D01*
X191036170Y-97740632D01*
X191045349Y-97760038D01*
X191052581Y-97780250D01*
X191057797Y-97801074D01*
X191060947Y-97822309D01*
X191062000Y-97843750D01*
X191062000Y-98356250D01*
X191060947Y-98377691D01*
X191057797Y-98398926D01*
X191052581Y-98419750D01*
X191045349Y-98439962D01*
X191036170Y-98459368D01*
X191025134Y-98477781D01*
X191012346Y-98495024D01*
X190997930Y-98510930D01*
X190982024Y-98525346D01*
X190964781Y-98538134D01*
X190946368Y-98549170D01*
X190926962Y-98558349D01*
X190906750Y-98565581D01*
X190885926Y-98570797D01*
X190864691Y-98573947D01*
X190843250Y-98575000D01*
X190405750Y-98575000D01*
X190384309Y-98573947D01*
X190363074Y-98570797D01*
X190342250Y-98565581D01*
X190322038Y-98558349D01*
X190302632Y-98549170D01*
X190284219Y-98538134D01*
X190266976Y-98525346D01*
X190251070Y-98510930D01*
X190236654Y-98495024D01*
X190223866Y-98477781D01*
X190212830Y-98459368D01*
X190203651Y-98439962D01*
X190196419Y-98419750D01*
X190191203Y-98398926D01*
X190188053Y-98377691D01*
X190187000Y-98356250D01*
X190187000Y-97843750D01*
X190188053Y-97822309D01*
X190191203Y-97801074D01*
X190196419Y-97780250D01*
X190203651Y-97760038D01*
X190212830Y-97740632D01*
X190223866Y-97722219D01*
X190236654Y-97704976D01*
X190251070Y-97689070D01*
X190266976Y-97674654D01*
X190284219Y-97661866D01*
X190302632Y-97650830D01*
X190322038Y-97641651D01*
X190342250Y-97634419D01*
X190363074Y-97629203D01*
X190384309Y-97626053D01*
X190405750Y-97625000D01*
X190843250Y-97625000D01*
X190864691Y-97626053D01*
X190864691Y-97626053D01*
G37*
D13*
X190624500Y-98100000D03*
D10*
G36*
X192439691Y-97626053D02*
G01*
X192460926Y-97629203D01*
X192481750Y-97634419D01*
X192501962Y-97641651D01*
X192521368Y-97650830D01*
X192539781Y-97661866D01*
X192557024Y-97674654D01*
X192572930Y-97689070D01*
X192587346Y-97704976D01*
X192600134Y-97722219D01*
X192611170Y-97740632D01*
X192620349Y-97760038D01*
X192627581Y-97780250D01*
X192632797Y-97801074D01*
X192635947Y-97822309D01*
X192637000Y-97843750D01*
X192637000Y-98356250D01*
X192635947Y-98377691D01*
X192632797Y-98398926D01*
X192627581Y-98419750D01*
X192620349Y-98439962D01*
X192611170Y-98459368D01*
X192600134Y-98477781D01*
X192587346Y-98495024D01*
X192572930Y-98510930D01*
X192557024Y-98525346D01*
X192539781Y-98538134D01*
X192521368Y-98549170D01*
X192501962Y-98558349D01*
X192481750Y-98565581D01*
X192460926Y-98570797D01*
X192439691Y-98573947D01*
X192418250Y-98575000D01*
X191980750Y-98575000D01*
X191959309Y-98573947D01*
X191938074Y-98570797D01*
X191917250Y-98565581D01*
X191897038Y-98558349D01*
X191877632Y-98549170D01*
X191859219Y-98538134D01*
X191841976Y-98525346D01*
X191826070Y-98510930D01*
X191811654Y-98495024D01*
X191798866Y-98477781D01*
X191787830Y-98459368D01*
X191778651Y-98439962D01*
X191771419Y-98419750D01*
X191766203Y-98398926D01*
X191763053Y-98377691D01*
X191762000Y-98356250D01*
X191762000Y-97843750D01*
X191763053Y-97822309D01*
X191766203Y-97801074D01*
X191771419Y-97780250D01*
X191778651Y-97760038D01*
X191787830Y-97740632D01*
X191798866Y-97722219D01*
X191811654Y-97704976D01*
X191826070Y-97689070D01*
X191841976Y-97674654D01*
X191859219Y-97661866D01*
X191877632Y-97650830D01*
X191897038Y-97641651D01*
X191917250Y-97634419D01*
X191938074Y-97629203D01*
X191959309Y-97626053D01*
X191980750Y-97625000D01*
X192418250Y-97625000D01*
X192439691Y-97626053D01*
X192439691Y-97626053D01*
G37*
D13*
X192199500Y-98100000D03*
D15*
X193600000Y-102100000D03*
X185100000Y-102100000D03*
M02*
