M48
; DRILL file {KiCad (5.1.2)-1} date 2024/07/03 21:07:48
; FORMAT={-:-/ absolute / metric / decimal}
; #@! TF.CreationDate,2024-07-03T21:07:48+09:00
; #@! TF.GenerationSoftware,Kicad,Pcbnew,(5.1.2)-1
FMAT,2
METRIC
T1C0.400
T2C0.500
T3C0.762
T4C1.000
T5C3.200
T6C3.200
%
G90
G05
T1
X182.637Y-116.545
X186.486Y-106.75
X186.677Y-117.804
X186.915Y-115.486
X187.364Y-105.319
X187.4Y-110.96
X187.845Y-109.493
X188.295Y-108.533
X188.716Y-112.482
X191.421Y-120.143
X196.031Y-115.186
X196.098Y-109.458
X196.11Y-108.42
X196.6Y-111.73
X196.92Y-110.71
X198.459Y-113.821
T2
X196.77Y-125.64
T3
X185.2Y-108.0
X185.2Y-110.0
X185.2Y-112.0
X185.2Y-114.0
T4
X201.4Y-104.92
X201.4Y-107.69
X201.4Y-110.46
X201.4Y-113.23
X201.4Y-116.0
X204.24Y-106.305
X204.24Y-109.075
X204.24Y-111.845
X204.24Y-114.615
T5
X202.82Y-97.96
X202.82Y-122.96
T6
X179.9Y-124.0
X179.9Y-96.7
T0
M30
