G04 #@! TF.GenerationSoftware,KiCad,Pcbnew,(5.1.2)-1*
G04 #@! TF.CreationDate,2019-11-04T01:50:09+09:00*
G04 #@! TF.ProjectId,IR,49522e6b-6963-4616-945f-706362585858,v1.1*
G04 #@! TF.SameCoordinates,Original*
G04 #@! TF.FileFunction,Soldermask,Bot*
G04 #@! TF.FilePolarity,Negative*
%FSLAX46Y46*%
G04 Gerber Fmt 4.6, Leading zero omitted, Abs format (unit mm)*
G04 Created by KiCad (PCBNEW (5.1.2)-1) date 2019-11-04 01:50:09*
%MOMM*%
%LPD*%
G04 APERTURE LIST*
%ADD10C,3.600000*%
%ADD11O,2.200000X1.924000*%
%ADD12C,0.050000*%
%ADD13C,1.375000*%
%ADD14C,1.275000*%
%ADD15R,1.460000X1.050000*%
%ADD16C,1.400000*%
%ADD17R,0.850000X1.900000*%
%ADD18R,2.000000X2.000000*%
%ADD19C,2.000000*%
%ADD20C,4.400000*%
G04 APERTURE END LIST*
D10*
X179900000Y-124000000D03*
X179900000Y-96700000D03*
D11*
X185200000Y-114000000D03*
X185200000Y-112000000D03*
X185200000Y-110000000D03*
X185200000Y-108000000D03*
D12*
G36*
X183289943Y-100076655D02*
G01*
X183323312Y-100081605D01*
X183356035Y-100089802D01*
X183387797Y-100101166D01*
X183418293Y-100115590D01*
X183447227Y-100132932D01*
X183474323Y-100153028D01*
X183499318Y-100175682D01*
X183521972Y-100200677D01*
X183542068Y-100227773D01*
X183559410Y-100256707D01*
X183573834Y-100287203D01*
X183585198Y-100318965D01*
X183593395Y-100351688D01*
X183598345Y-100385057D01*
X183600000Y-100418750D01*
X183600000Y-101106250D01*
X183598345Y-101139943D01*
X183593395Y-101173312D01*
X183585198Y-101206035D01*
X183573834Y-101237797D01*
X183559410Y-101268293D01*
X183542068Y-101297227D01*
X183521972Y-101324323D01*
X183499318Y-101349318D01*
X183474323Y-101371972D01*
X183447227Y-101392068D01*
X183418293Y-101409410D01*
X183387797Y-101423834D01*
X183356035Y-101435198D01*
X183323312Y-101443395D01*
X183289943Y-101448345D01*
X183256250Y-101450000D01*
X182143750Y-101450000D01*
X182110057Y-101448345D01*
X182076688Y-101443395D01*
X182043965Y-101435198D01*
X182012203Y-101423834D01*
X181981707Y-101409410D01*
X181952773Y-101392068D01*
X181925677Y-101371972D01*
X181900682Y-101349318D01*
X181878028Y-101324323D01*
X181857932Y-101297227D01*
X181840590Y-101268293D01*
X181826166Y-101237797D01*
X181814802Y-101206035D01*
X181806605Y-101173312D01*
X181801655Y-101139943D01*
X181800000Y-101106250D01*
X181800000Y-100418750D01*
X181801655Y-100385057D01*
X181806605Y-100351688D01*
X181814802Y-100318965D01*
X181826166Y-100287203D01*
X181840590Y-100256707D01*
X181857932Y-100227773D01*
X181878028Y-100200677D01*
X181900682Y-100175682D01*
X181925677Y-100153028D01*
X181952773Y-100132932D01*
X181981707Y-100115590D01*
X182012203Y-100101166D01*
X182043965Y-100089802D01*
X182076688Y-100081605D01*
X182110057Y-100076655D01*
X182143750Y-100075000D01*
X183256250Y-100075000D01*
X183289943Y-100076655D01*
X183289943Y-100076655D01*
G37*
D13*
X182700000Y-100762500D03*
D12*
G36*
X183289943Y-101951655D02*
G01*
X183323312Y-101956605D01*
X183356035Y-101964802D01*
X183387797Y-101976166D01*
X183418293Y-101990590D01*
X183447227Y-102007932D01*
X183474323Y-102028028D01*
X183499318Y-102050682D01*
X183521972Y-102075677D01*
X183542068Y-102102773D01*
X183559410Y-102131707D01*
X183573834Y-102162203D01*
X183585198Y-102193965D01*
X183593395Y-102226688D01*
X183598345Y-102260057D01*
X183600000Y-102293750D01*
X183600000Y-102981250D01*
X183598345Y-103014943D01*
X183593395Y-103048312D01*
X183585198Y-103081035D01*
X183573834Y-103112797D01*
X183559410Y-103143293D01*
X183542068Y-103172227D01*
X183521972Y-103199323D01*
X183499318Y-103224318D01*
X183474323Y-103246972D01*
X183447227Y-103267068D01*
X183418293Y-103284410D01*
X183387797Y-103298834D01*
X183356035Y-103310198D01*
X183323312Y-103318395D01*
X183289943Y-103323345D01*
X183256250Y-103325000D01*
X182143750Y-103325000D01*
X182110057Y-103323345D01*
X182076688Y-103318395D01*
X182043965Y-103310198D01*
X182012203Y-103298834D01*
X181981707Y-103284410D01*
X181952773Y-103267068D01*
X181925677Y-103246972D01*
X181900682Y-103224318D01*
X181878028Y-103199323D01*
X181857932Y-103172227D01*
X181840590Y-103143293D01*
X181826166Y-103112797D01*
X181814802Y-103081035D01*
X181806605Y-103048312D01*
X181801655Y-103014943D01*
X181800000Y-102981250D01*
X181800000Y-102293750D01*
X181801655Y-102260057D01*
X181806605Y-102226688D01*
X181814802Y-102193965D01*
X181826166Y-102162203D01*
X181840590Y-102131707D01*
X181857932Y-102102773D01*
X181878028Y-102075677D01*
X181900682Y-102050682D01*
X181925677Y-102028028D01*
X181952773Y-102007932D01*
X181981707Y-101990590D01*
X182012203Y-101976166D01*
X182043965Y-101964802D01*
X182076688Y-101956605D01*
X182110057Y-101951655D01*
X182143750Y-101950000D01*
X183256250Y-101950000D01*
X183289943Y-101951655D01*
X183289943Y-101951655D01*
G37*
D13*
X182700000Y-102637500D03*
D12*
G36*
X190837493Y-100026535D02*
G01*
X190868435Y-100031125D01*
X190898778Y-100038725D01*
X190928230Y-100049263D01*
X190956508Y-100062638D01*
X190983338Y-100078719D01*
X191008463Y-100097353D01*
X191031640Y-100118360D01*
X191052647Y-100141537D01*
X191071281Y-100166662D01*
X191087362Y-100193492D01*
X191100737Y-100221770D01*
X191111275Y-100251222D01*
X191118875Y-100281565D01*
X191123465Y-100312507D01*
X191125000Y-100343750D01*
X191125000Y-101056250D01*
X191123465Y-101087493D01*
X191118875Y-101118435D01*
X191111275Y-101148778D01*
X191100737Y-101178230D01*
X191087362Y-101206508D01*
X191071281Y-101233338D01*
X191052647Y-101258463D01*
X191031640Y-101281640D01*
X191008463Y-101302647D01*
X190983338Y-101321281D01*
X190956508Y-101337362D01*
X190928230Y-101350737D01*
X190898778Y-101361275D01*
X190868435Y-101368875D01*
X190837493Y-101373465D01*
X190806250Y-101375000D01*
X190168750Y-101375000D01*
X190137507Y-101373465D01*
X190106565Y-101368875D01*
X190076222Y-101361275D01*
X190046770Y-101350737D01*
X190018492Y-101337362D01*
X189991662Y-101321281D01*
X189966537Y-101302647D01*
X189943360Y-101281640D01*
X189922353Y-101258463D01*
X189903719Y-101233338D01*
X189887638Y-101206508D01*
X189874263Y-101178230D01*
X189863725Y-101148778D01*
X189856125Y-101118435D01*
X189851535Y-101087493D01*
X189850000Y-101056250D01*
X189850000Y-100343750D01*
X189851535Y-100312507D01*
X189856125Y-100281565D01*
X189863725Y-100251222D01*
X189874263Y-100221770D01*
X189887638Y-100193492D01*
X189903719Y-100166662D01*
X189922353Y-100141537D01*
X189943360Y-100118360D01*
X189966537Y-100097353D01*
X189991662Y-100078719D01*
X190018492Y-100062638D01*
X190046770Y-100049263D01*
X190076222Y-100038725D01*
X190106565Y-100031125D01*
X190137507Y-100026535D01*
X190168750Y-100025000D01*
X190806250Y-100025000D01*
X190837493Y-100026535D01*
X190837493Y-100026535D01*
G37*
D14*
X190487500Y-100700000D03*
D12*
G36*
X189262493Y-100026535D02*
G01*
X189293435Y-100031125D01*
X189323778Y-100038725D01*
X189353230Y-100049263D01*
X189381508Y-100062638D01*
X189408338Y-100078719D01*
X189433463Y-100097353D01*
X189456640Y-100118360D01*
X189477647Y-100141537D01*
X189496281Y-100166662D01*
X189512362Y-100193492D01*
X189525737Y-100221770D01*
X189536275Y-100251222D01*
X189543875Y-100281565D01*
X189548465Y-100312507D01*
X189550000Y-100343750D01*
X189550000Y-101056250D01*
X189548465Y-101087493D01*
X189543875Y-101118435D01*
X189536275Y-101148778D01*
X189525737Y-101178230D01*
X189512362Y-101206508D01*
X189496281Y-101233338D01*
X189477647Y-101258463D01*
X189456640Y-101281640D01*
X189433463Y-101302647D01*
X189408338Y-101321281D01*
X189381508Y-101337362D01*
X189353230Y-101350737D01*
X189323778Y-101361275D01*
X189293435Y-101368875D01*
X189262493Y-101373465D01*
X189231250Y-101375000D01*
X188593750Y-101375000D01*
X188562507Y-101373465D01*
X188531565Y-101368875D01*
X188501222Y-101361275D01*
X188471770Y-101350737D01*
X188443492Y-101337362D01*
X188416662Y-101321281D01*
X188391537Y-101302647D01*
X188368360Y-101281640D01*
X188347353Y-101258463D01*
X188328719Y-101233338D01*
X188312638Y-101206508D01*
X188299263Y-101178230D01*
X188288725Y-101148778D01*
X188281125Y-101118435D01*
X188276535Y-101087493D01*
X188275000Y-101056250D01*
X188275000Y-100343750D01*
X188276535Y-100312507D01*
X188281125Y-100281565D01*
X188288725Y-100251222D01*
X188299263Y-100221770D01*
X188312638Y-100193492D01*
X188328719Y-100166662D01*
X188347353Y-100141537D01*
X188368360Y-100118360D01*
X188391537Y-100097353D01*
X188416662Y-100078719D01*
X188443492Y-100062638D01*
X188471770Y-100049263D01*
X188501222Y-100038725D01*
X188531565Y-100031125D01*
X188562507Y-100026535D01*
X188593750Y-100025000D01*
X189231250Y-100025000D01*
X189262493Y-100026535D01*
X189262493Y-100026535D01*
G37*
D14*
X188912500Y-100700000D03*
D12*
G36*
X189339943Y-101701655D02*
G01*
X189373312Y-101706605D01*
X189406035Y-101714802D01*
X189437797Y-101726166D01*
X189468293Y-101740590D01*
X189497227Y-101757932D01*
X189524323Y-101778028D01*
X189549318Y-101800682D01*
X189571972Y-101825677D01*
X189592068Y-101852773D01*
X189609410Y-101881707D01*
X189623834Y-101912203D01*
X189635198Y-101943965D01*
X189643395Y-101976688D01*
X189648345Y-102010057D01*
X189650000Y-102043750D01*
X189650000Y-103156250D01*
X189648345Y-103189943D01*
X189643395Y-103223312D01*
X189635198Y-103256035D01*
X189623834Y-103287797D01*
X189609410Y-103318293D01*
X189592068Y-103347227D01*
X189571972Y-103374323D01*
X189549318Y-103399318D01*
X189524323Y-103421972D01*
X189497227Y-103442068D01*
X189468293Y-103459410D01*
X189437797Y-103473834D01*
X189406035Y-103485198D01*
X189373312Y-103493395D01*
X189339943Y-103498345D01*
X189306250Y-103500000D01*
X188618750Y-103500000D01*
X188585057Y-103498345D01*
X188551688Y-103493395D01*
X188518965Y-103485198D01*
X188487203Y-103473834D01*
X188456707Y-103459410D01*
X188427773Y-103442068D01*
X188400677Y-103421972D01*
X188375682Y-103399318D01*
X188353028Y-103374323D01*
X188332932Y-103347227D01*
X188315590Y-103318293D01*
X188301166Y-103287797D01*
X188289802Y-103256035D01*
X188281605Y-103223312D01*
X188276655Y-103189943D01*
X188275000Y-103156250D01*
X188275000Y-102043750D01*
X188276655Y-102010057D01*
X188281605Y-101976688D01*
X188289802Y-101943965D01*
X188301166Y-101912203D01*
X188315590Y-101881707D01*
X188332932Y-101852773D01*
X188353028Y-101825677D01*
X188375682Y-101800682D01*
X188400677Y-101778028D01*
X188427773Y-101757932D01*
X188456707Y-101740590D01*
X188487203Y-101726166D01*
X188518965Y-101714802D01*
X188551688Y-101706605D01*
X188585057Y-101701655D01*
X188618750Y-101700000D01*
X189306250Y-101700000D01*
X189339943Y-101701655D01*
X189339943Y-101701655D01*
G37*
D13*
X188962500Y-102600000D03*
D12*
G36*
X191214943Y-101701655D02*
G01*
X191248312Y-101706605D01*
X191281035Y-101714802D01*
X191312797Y-101726166D01*
X191343293Y-101740590D01*
X191372227Y-101757932D01*
X191399323Y-101778028D01*
X191424318Y-101800682D01*
X191446972Y-101825677D01*
X191467068Y-101852773D01*
X191484410Y-101881707D01*
X191498834Y-101912203D01*
X191510198Y-101943965D01*
X191518395Y-101976688D01*
X191523345Y-102010057D01*
X191525000Y-102043750D01*
X191525000Y-103156250D01*
X191523345Y-103189943D01*
X191518395Y-103223312D01*
X191510198Y-103256035D01*
X191498834Y-103287797D01*
X191484410Y-103318293D01*
X191467068Y-103347227D01*
X191446972Y-103374323D01*
X191424318Y-103399318D01*
X191399323Y-103421972D01*
X191372227Y-103442068D01*
X191343293Y-103459410D01*
X191312797Y-103473834D01*
X191281035Y-103485198D01*
X191248312Y-103493395D01*
X191214943Y-103498345D01*
X191181250Y-103500000D01*
X190493750Y-103500000D01*
X190460057Y-103498345D01*
X190426688Y-103493395D01*
X190393965Y-103485198D01*
X190362203Y-103473834D01*
X190331707Y-103459410D01*
X190302773Y-103442068D01*
X190275677Y-103421972D01*
X190250682Y-103399318D01*
X190228028Y-103374323D01*
X190207932Y-103347227D01*
X190190590Y-103318293D01*
X190176166Y-103287797D01*
X190164802Y-103256035D01*
X190156605Y-103223312D01*
X190151655Y-103189943D01*
X190150000Y-103156250D01*
X190150000Y-102043750D01*
X190151655Y-102010057D01*
X190156605Y-101976688D01*
X190164802Y-101943965D01*
X190176166Y-101912203D01*
X190190590Y-101881707D01*
X190207932Y-101852773D01*
X190228028Y-101825677D01*
X190250682Y-101800682D01*
X190275677Y-101778028D01*
X190302773Y-101757932D01*
X190331707Y-101740590D01*
X190362203Y-101726166D01*
X190393965Y-101714802D01*
X190426688Y-101706605D01*
X190460057Y-101701655D01*
X190493750Y-101700000D01*
X191181250Y-101700000D01*
X191214943Y-101701655D01*
X191214943Y-101701655D01*
G37*
D13*
X190837500Y-102600000D03*
D15*
X184700000Y-102650000D03*
X184700000Y-101700000D03*
X184700000Y-100750000D03*
X186900000Y-100750000D03*
X186900000Y-102650000D03*
D16*
X196700000Y-125200000D03*
D12*
G36*
X196487493Y-116614535D02*
G01*
X196518435Y-116619125D01*
X196548778Y-116626725D01*
X196578230Y-116637263D01*
X196606508Y-116650638D01*
X196633338Y-116666719D01*
X196658463Y-116685353D01*
X196681640Y-116706360D01*
X196702647Y-116729537D01*
X196721281Y-116754662D01*
X196737362Y-116781492D01*
X196750737Y-116809770D01*
X196761275Y-116839222D01*
X196768875Y-116869565D01*
X196773465Y-116900507D01*
X196775000Y-116931750D01*
X196775000Y-117569250D01*
X196773465Y-117600493D01*
X196768875Y-117631435D01*
X196761275Y-117661778D01*
X196750737Y-117691230D01*
X196737362Y-117719508D01*
X196721281Y-117746338D01*
X196702647Y-117771463D01*
X196681640Y-117794640D01*
X196658463Y-117815647D01*
X196633338Y-117834281D01*
X196606508Y-117850362D01*
X196578230Y-117863737D01*
X196548778Y-117874275D01*
X196518435Y-117881875D01*
X196487493Y-117886465D01*
X196456250Y-117888000D01*
X195743750Y-117888000D01*
X195712507Y-117886465D01*
X195681565Y-117881875D01*
X195651222Y-117874275D01*
X195621770Y-117863737D01*
X195593492Y-117850362D01*
X195566662Y-117834281D01*
X195541537Y-117815647D01*
X195518360Y-117794640D01*
X195497353Y-117771463D01*
X195478719Y-117746338D01*
X195462638Y-117719508D01*
X195449263Y-117691230D01*
X195438725Y-117661778D01*
X195431125Y-117631435D01*
X195426535Y-117600493D01*
X195425000Y-117569250D01*
X195425000Y-116931750D01*
X195426535Y-116900507D01*
X195431125Y-116869565D01*
X195438725Y-116839222D01*
X195449263Y-116809770D01*
X195462638Y-116781492D01*
X195478719Y-116754662D01*
X195497353Y-116729537D01*
X195518360Y-116706360D01*
X195541537Y-116685353D01*
X195566662Y-116666719D01*
X195593492Y-116650638D01*
X195621770Y-116637263D01*
X195651222Y-116626725D01*
X195681565Y-116619125D01*
X195712507Y-116614535D01*
X195743750Y-116613000D01*
X196456250Y-116613000D01*
X196487493Y-116614535D01*
X196487493Y-116614535D01*
G37*
D14*
X196100000Y-117250500D03*
D12*
G36*
X196487493Y-118189535D02*
G01*
X196518435Y-118194125D01*
X196548778Y-118201725D01*
X196578230Y-118212263D01*
X196606508Y-118225638D01*
X196633338Y-118241719D01*
X196658463Y-118260353D01*
X196681640Y-118281360D01*
X196702647Y-118304537D01*
X196721281Y-118329662D01*
X196737362Y-118356492D01*
X196750737Y-118384770D01*
X196761275Y-118414222D01*
X196768875Y-118444565D01*
X196773465Y-118475507D01*
X196775000Y-118506750D01*
X196775000Y-119144250D01*
X196773465Y-119175493D01*
X196768875Y-119206435D01*
X196761275Y-119236778D01*
X196750737Y-119266230D01*
X196737362Y-119294508D01*
X196721281Y-119321338D01*
X196702647Y-119346463D01*
X196681640Y-119369640D01*
X196658463Y-119390647D01*
X196633338Y-119409281D01*
X196606508Y-119425362D01*
X196578230Y-119438737D01*
X196548778Y-119449275D01*
X196518435Y-119456875D01*
X196487493Y-119461465D01*
X196456250Y-119463000D01*
X195743750Y-119463000D01*
X195712507Y-119461465D01*
X195681565Y-119456875D01*
X195651222Y-119449275D01*
X195621770Y-119438737D01*
X195593492Y-119425362D01*
X195566662Y-119409281D01*
X195541537Y-119390647D01*
X195518360Y-119369640D01*
X195497353Y-119346463D01*
X195478719Y-119321338D01*
X195462638Y-119294508D01*
X195449263Y-119266230D01*
X195438725Y-119236778D01*
X195431125Y-119206435D01*
X195426535Y-119175493D01*
X195425000Y-119144250D01*
X195425000Y-118506750D01*
X195426535Y-118475507D01*
X195431125Y-118444565D01*
X195438725Y-118414222D01*
X195449263Y-118384770D01*
X195462638Y-118356492D01*
X195478719Y-118329662D01*
X195497353Y-118304537D01*
X195518360Y-118281360D01*
X195541537Y-118260353D01*
X195566662Y-118241719D01*
X195593492Y-118225638D01*
X195621770Y-118212263D01*
X195651222Y-118201725D01*
X195681565Y-118194125D01*
X195712507Y-118189535D01*
X195743750Y-118188000D01*
X196456250Y-118188000D01*
X196487493Y-118189535D01*
X196487493Y-118189535D01*
G37*
D14*
X196100000Y-118825500D03*
D12*
G36*
X195587493Y-104451535D02*
G01*
X195618435Y-104456125D01*
X195648778Y-104463725D01*
X195678230Y-104474263D01*
X195706508Y-104487638D01*
X195733338Y-104503719D01*
X195758463Y-104522353D01*
X195781640Y-104543360D01*
X195802647Y-104566537D01*
X195821281Y-104591662D01*
X195837362Y-104618492D01*
X195850737Y-104646770D01*
X195861275Y-104676222D01*
X195868875Y-104706565D01*
X195873465Y-104737507D01*
X195875000Y-104768750D01*
X195875000Y-105406250D01*
X195873465Y-105437493D01*
X195868875Y-105468435D01*
X195861275Y-105498778D01*
X195850737Y-105528230D01*
X195837362Y-105556508D01*
X195821281Y-105583338D01*
X195802647Y-105608463D01*
X195781640Y-105631640D01*
X195758463Y-105652647D01*
X195733338Y-105671281D01*
X195706508Y-105687362D01*
X195678230Y-105700737D01*
X195648778Y-105711275D01*
X195618435Y-105718875D01*
X195587493Y-105723465D01*
X195556250Y-105725000D01*
X194843750Y-105725000D01*
X194812507Y-105723465D01*
X194781565Y-105718875D01*
X194751222Y-105711275D01*
X194721770Y-105700737D01*
X194693492Y-105687362D01*
X194666662Y-105671281D01*
X194641537Y-105652647D01*
X194618360Y-105631640D01*
X194597353Y-105608463D01*
X194578719Y-105583338D01*
X194562638Y-105556508D01*
X194549263Y-105528230D01*
X194538725Y-105498778D01*
X194531125Y-105468435D01*
X194526535Y-105437493D01*
X194525000Y-105406250D01*
X194525000Y-104768750D01*
X194526535Y-104737507D01*
X194531125Y-104706565D01*
X194538725Y-104676222D01*
X194549263Y-104646770D01*
X194562638Y-104618492D01*
X194578719Y-104591662D01*
X194597353Y-104566537D01*
X194618360Y-104543360D01*
X194641537Y-104522353D01*
X194666662Y-104503719D01*
X194693492Y-104487638D01*
X194721770Y-104474263D01*
X194751222Y-104463725D01*
X194781565Y-104456125D01*
X194812507Y-104451535D01*
X194843750Y-104450000D01*
X195556250Y-104450000D01*
X195587493Y-104451535D01*
X195587493Y-104451535D01*
G37*
D14*
X195200000Y-105087500D03*
D12*
G36*
X195587493Y-102876535D02*
G01*
X195618435Y-102881125D01*
X195648778Y-102888725D01*
X195678230Y-102899263D01*
X195706508Y-102912638D01*
X195733338Y-102928719D01*
X195758463Y-102947353D01*
X195781640Y-102968360D01*
X195802647Y-102991537D01*
X195821281Y-103016662D01*
X195837362Y-103043492D01*
X195850737Y-103071770D01*
X195861275Y-103101222D01*
X195868875Y-103131565D01*
X195873465Y-103162507D01*
X195875000Y-103193750D01*
X195875000Y-103831250D01*
X195873465Y-103862493D01*
X195868875Y-103893435D01*
X195861275Y-103923778D01*
X195850737Y-103953230D01*
X195837362Y-103981508D01*
X195821281Y-104008338D01*
X195802647Y-104033463D01*
X195781640Y-104056640D01*
X195758463Y-104077647D01*
X195733338Y-104096281D01*
X195706508Y-104112362D01*
X195678230Y-104125737D01*
X195648778Y-104136275D01*
X195618435Y-104143875D01*
X195587493Y-104148465D01*
X195556250Y-104150000D01*
X194843750Y-104150000D01*
X194812507Y-104148465D01*
X194781565Y-104143875D01*
X194751222Y-104136275D01*
X194721770Y-104125737D01*
X194693492Y-104112362D01*
X194666662Y-104096281D01*
X194641537Y-104077647D01*
X194618360Y-104056640D01*
X194597353Y-104033463D01*
X194578719Y-104008338D01*
X194562638Y-103981508D01*
X194549263Y-103953230D01*
X194538725Y-103923778D01*
X194531125Y-103893435D01*
X194526535Y-103862493D01*
X194525000Y-103831250D01*
X194525000Y-103193750D01*
X194526535Y-103162507D01*
X194531125Y-103131565D01*
X194538725Y-103101222D01*
X194549263Y-103071770D01*
X194562638Y-103043492D01*
X194578719Y-103016662D01*
X194597353Y-102991537D01*
X194618360Y-102968360D01*
X194641537Y-102947353D01*
X194666662Y-102928719D01*
X194693492Y-102912638D01*
X194721770Y-102899263D01*
X194751222Y-102888725D01*
X194781565Y-102881125D01*
X194812507Y-102876535D01*
X194843750Y-102875000D01*
X195556250Y-102875000D01*
X195587493Y-102876535D01*
X195587493Y-102876535D01*
G37*
D14*
X195200000Y-103512500D03*
D12*
G36*
X192987493Y-118163535D02*
G01*
X193018435Y-118168125D01*
X193048778Y-118175725D01*
X193078230Y-118186263D01*
X193106508Y-118199638D01*
X193133338Y-118215719D01*
X193158463Y-118234353D01*
X193181640Y-118255360D01*
X193202647Y-118278537D01*
X193221281Y-118303662D01*
X193237362Y-118330492D01*
X193250737Y-118358770D01*
X193261275Y-118388222D01*
X193268875Y-118418565D01*
X193273465Y-118449507D01*
X193275000Y-118480750D01*
X193275000Y-119118250D01*
X193273465Y-119149493D01*
X193268875Y-119180435D01*
X193261275Y-119210778D01*
X193250737Y-119240230D01*
X193237362Y-119268508D01*
X193221281Y-119295338D01*
X193202647Y-119320463D01*
X193181640Y-119343640D01*
X193158463Y-119364647D01*
X193133338Y-119383281D01*
X193106508Y-119399362D01*
X193078230Y-119412737D01*
X193048778Y-119423275D01*
X193018435Y-119430875D01*
X192987493Y-119435465D01*
X192956250Y-119437000D01*
X192243750Y-119437000D01*
X192212507Y-119435465D01*
X192181565Y-119430875D01*
X192151222Y-119423275D01*
X192121770Y-119412737D01*
X192093492Y-119399362D01*
X192066662Y-119383281D01*
X192041537Y-119364647D01*
X192018360Y-119343640D01*
X191997353Y-119320463D01*
X191978719Y-119295338D01*
X191962638Y-119268508D01*
X191949263Y-119240230D01*
X191938725Y-119210778D01*
X191931125Y-119180435D01*
X191926535Y-119149493D01*
X191925000Y-119118250D01*
X191925000Y-118480750D01*
X191926535Y-118449507D01*
X191931125Y-118418565D01*
X191938725Y-118388222D01*
X191949263Y-118358770D01*
X191962638Y-118330492D01*
X191978719Y-118303662D01*
X191997353Y-118278537D01*
X192018360Y-118255360D01*
X192041537Y-118234353D01*
X192066662Y-118215719D01*
X192093492Y-118199638D01*
X192121770Y-118186263D01*
X192151222Y-118175725D01*
X192181565Y-118168125D01*
X192212507Y-118163535D01*
X192243750Y-118162000D01*
X192956250Y-118162000D01*
X192987493Y-118163535D01*
X192987493Y-118163535D01*
G37*
D14*
X192600000Y-118799500D03*
D12*
G36*
X192987493Y-116588535D02*
G01*
X193018435Y-116593125D01*
X193048778Y-116600725D01*
X193078230Y-116611263D01*
X193106508Y-116624638D01*
X193133338Y-116640719D01*
X193158463Y-116659353D01*
X193181640Y-116680360D01*
X193202647Y-116703537D01*
X193221281Y-116728662D01*
X193237362Y-116755492D01*
X193250737Y-116783770D01*
X193261275Y-116813222D01*
X193268875Y-116843565D01*
X193273465Y-116874507D01*
X193275000Y-116905750D01*
X193275000Y-117543250D01*
X193273465Y-117574493D01*
X193268875Y-117605435D01*
X193261275Y-117635778D01*
X193250737Y-117665230D01*
X193237362Y-117693508D01*
X193221281Y-117720338D01*
X193202647Y-117745463D01*
X193181640Y-117768640D01*
X193158463Y-117789647D01*
X193133338Y-117808281D01*
X193106508Y-117824362D01*
X193078230Y-117837737D01*
X193048778Y-117848275D01*
X193018435Y-117855875D01*
X192987493Y-117860465D01*
X192956250Y-117862000D01*
X192243750Y-117862000D01*
X192212507Y-117860465D01*
X192181565Y-117855875D01*
X192151222Y-117848275D01*
X192121770Y-117837737D01*
X192093492Y-117824362D01*
X192066662Y-117808281D01*
X192041537Y-117789647D01*
X192018360Y-117768640D01*
X191997353Y-117745463D01*
X191978719Y-117720338D01*
X191962638Y-117693508D01*
X191949263Y-117665230D01*
X191938725Y-117635778D01*
X191931125Y-117605435D01*
X191926535Y-117574493D01*
X191925000Y-117543250D01*
X191925000Y-116905750D01*
X191926535Y-116874507D01*
X191931125Y-116843565D01*
X191938725Y-116813222D01*
X191949263Y-116783770D01*
X191962638Y-116755492D01*
X191978719Y-116728662D01*
X191997353Y-116703537D01*
X192018360Y-116680360D01*
X192041537Y-116659353D01*
X192066662Y-116640719D01*
X192093492Y-116624638D01*
X192121770Y-116611263D01*
X192151222Y-116600725D01*
X192181565Y-116593125D01*
X192212507Y-116588535D01*
X192243750Y-116587000D01*
X192956250Y-116587000D01*
X192987493Y-116588535D01*
X192987493Y-116588535D01*
G37*
D14*
X192600000Y-117224500D03*
D12*
G36*
X194737493Y-118189535D02*
G01*
X194768435Y-118194125D01*
X194798778Y-118201725D01*
X194828230Y-118212263D01*
X194856508Y-118225638D01*
X194883338Y-118241719D01*
X194908463Y-118260353D01*
X194931640Y-118281360D01*
X194952647Y-118304537D01*
X194971281Y-118329662D01*
X194987362Y-118356492D01*
X195000737Y-118384770D01*
X195011275Y-118414222D01*
X195018875Y-118444565D01*
X195023465Y-118475507D01*
X195025000Y-118506750D01*
X195025000Y-119144250D01*
X195023465Y-119175493D01*
X195018875Y-119206435D01*
X195011275Y-119236778D01*
X195000737Y-119266230D01*
X194987362Y-119294508D01*
X194971281Y-119321338D01*
X194952647Y-119346463D01*
X194931640Y-119369640D01*
X194908463Y-119390647D01*
X194883338Y-119409281D01*
X194856508Y-119425362D01*
X194828230Y-119438737D01*
X194798778Y-119449275D01*
X194768435Y-119456875D01*
X194737493Y-119461465D01*
X194706250Y-119463000D01*
X193993750Y-119463000D01*
X193962507Y-119461465D01*
X193931565Y-119456875D01*
X193901222Y-119449275D01*
X193871770Y-119438737D01*
X193843492Y-119425362D01*
X193816662Y-119409281D01*
X193791537Y-119390647D01*
X193768360Y-119369640D01*
X193747353Y-119346463D01*
X193728719Y-119321338D01*
X193712638Y-119294508D01*
X193699263Y-119266230D01*
X193688725Y-119236778D01*
X193681125Y-119206435D01*
X193676535Y-119175493D01*
X193675000Y-119144250D01*
X193675000Y-118506750D01*
X193676535Y-118475507D01*
X193681125Y-118444565D01*
X193688725Y-118414222D01*
X193699263Y-118384770D01*
X193712638Y-118356492D01*
X193728719Y-118329662D01*
X193747353Y-118304537D01*
X193768360Y-118281360D01*
X193791537Y-118260353D01*
X193816662Y-118241719D01*
X193843492Y-118225638D01*
X193871770Y-118212263D01*
X193901222Y-118201725D01*
X193931565Y-118194125D01*
X193962507Y-118189535D01*
X193993750Y-118188000D01*
X194706250Y-118188000D01*
X194737493Y-118189535D01*
X194737493Y-118189535D01*
G37*
D14*
X194350000Y-118825500D03*
D12*
G36*
X194737493Y-116614535D02*
G01*
X194768435Y-116619125D01*
X194798778Y-116626725D01*
X194828230Y-116637263D01*
X194856508Y-116650638D01*
X194883338Y-116666719D01*
X194908463Y-116685353D01*
X194931640Y-116706360D01*
X194952647Y-116729537D01*
X194971281Y-116754662D01*
X194987362Y-116781492D01*
X195000737Y-116809770D01*
X195011275Y-116839222D01*
X195018875Y-116869565D01*
X195023465Y-116900507D01*
X195025000Y-116931750D01*
X195025000Y-117569250D01*
X195023465Y-117600493D01*
X195018875Y-117631435D01*
X195011275Y-117661778D01*
X195000737Y-117691230D01*
X194987362Y-117719508D01*
X194971281Y-117746338D01*
X194952647Y-117771463D01*
X194931640Y-117794640D01*
X194908463Y-117815647D01*
X194883338Y-117834281D01*
X194856508Y-117850362D01*
X194828230Y-117863737D01*
X194798778Y-117874275D01*
X194768435Y-117881875D01*
X194737493Y-117886465D01*
X194706250Y-117888000D01*
X193993750Y-117888000D01*
X193962507Y-117886465D01*
X193931565Y-117881875D01*
X193901222Y-117874275D01*
X193871770Y-117863737D01*
X193843492Y-117850362D01*
X193816662Y-117834281D01*
X193791537Y-117815647D01*
X193768360Y-117794640D01*
X193747353Y-117771463D01*
X193728719Y-117746338D01*
X193712638Y-117719508D01*
X193699263Y-117691230D01*
X193688725Y-117661778D01*
X193681125Y-117631435D01*
X193676535Y-117600493D01*
X193675000Y-117569250D01*
X193675000Y-116931750D01*
X193676535Y-116900507D01*
X193681125Y-116869565D01*
X193688725Y-116839222D01*
X193699263Y-116809770D01*
X193712638Y-116781492D01*
X193728719Y-116754662D01*
X193747353Y-116729537D01*
X193768360Y-116706360D01*
X193791537Y-116685353D01*
X193816662Y-116666719D01*
X193843492Y-116650638D01*
X193871770Y-116637263D01*
X193901222Y-116626725D01*
X193931565Y-116619125D01*
X193962507Y-116614535D01*
X193993750Y-116613000D01*
X194706250Y-116613000D01*
X194737493Y-116614535D01*
X194737493Y-116614535D01*
G37*
D14*
X194350000Y-117250500D03*
D12*
G36*
X191187493Y-116576535D02*
G01*
X191218435Y-116581125D01*
X191248778Y-116588725D01*
X191278230Y-116599263D01*
X191306508Y-116612638D01*
X191333338Y-116628719D01*
X191358463Y-116647353D01*
X191381640Y-116668360D01*
X191402647Y-116691537D01*
X191421281Y-116716662D01*
X191437362Y-116743492D01*
X191450737Y-116771770D01*
X191461275Y-116801222D01*
X191468875Y-116831565D01*
X191473465Y-116862507D01*
X191475000Y-116893750D01*
X191475000Y-117531250D01*
X191473465Y-117562493D01*
X191468875Y-117593435D01*
X191461275Y-117623778D01*
X191450737Y-117653230D01*
X191437362Y-117681508D01*
X191421281Y-117708338D01*
X191402647Y-117733463D01*
X191381640Y-117756640D01*
X191358463Y-117777647D01*
X191333338Y-117796281D01*
X191306508Y-117812362D01*
X191278230Y-117825737D01*
X191248778Y-117836275D01*
X191218435Y-117843875D01*
X191187493Y-117848465D01*
X191156250Y-117850000D01*
X190443750Y-117850000D01*
X190412507Y-117848465D01*
X190381565Y-117843875D01*
X190351222Y-117836275D01*
X190321770Y-117825737D01*
X190293492Y-117812362D01*
X190266662Y-117796281D01*
X190241537Y-117777647D01*
X190218360Y-117756640D01*
X190197353Y-117733463D01*
X190178719Y-117708338D01*
X190162638Y-117681508D01*
X190149263Y-117653230D01*
X190138725Y-117623778D01*
X190131125Y-117593435D01*
X190126535Y-117562493D01*
X190125000Y-117531250D01*
X190125000Y-116893750D01*
X190126535Y-116862507D01*
X190131125Y-116831565D01*
X190138725Y-116801222D01*
X190149263Y-116771770D01*
X190162638Y-116743492D01*
X190178719Y-116716662D01*
X190197353Y-116691537D01*
X190218360Y-116668360D01*
X190241537Y-116647353D01*
X190266662Y-116628719D01*
X190293492Y-116612638D01*
X190321770Y-116599263D01*
X190351222Y-116588725D01*
X190381565Y-116581125D01*
X190412507Y-116576535D01*
X190443750Y-116575000D01*
X191156250Y-116575000D01*
X191187493Y-116576535D01*
X191187493Y-116576535D01*
G37*
D14*
X190800000Y-117212500D03*
D12*
G36*
X191187493Y-118151535D02*
G01*
X191218435Y-118156125D01*
X191248778Y-118163725D01*
X191278230Y-118174263D01*
X191306508Y-118187638D01*
X191333338Y-118203719D01*
X191358463Y-118222353D01*
X191381640Y-118243360D01*
X191402647Y-118266537D01*
X191421281Y-118291662D01*
X191437362Y-118318492D01*
X191450737Y-118346770D01*
X191461275Y-118376222D01*
X191468875Y-118406565D01*
X191473465Y-118437507D01*
X191475000Y-118468750D01*
X191475000Y-119106250D01*
X191473465Y-119137493D01*
X191468875Y-119168435D01*
X191461275Y-119198778D01*
X191450737Y-119228230D01*
X191437362Y-119256508D01*
X191421281Y-119283338D01*
X191402647Y-119308463D01*
X191381640Y-119331640D01*
X191358463Y-119352647D01*
X191333338Y-119371281D01*
X191306508Y-119387362D01*
X191278230Y-119400737D01*
X191248778Y-119411275D01*
X191218435Y-119418875D01*
X191187493Y-119423465D01*
X191156250Y-119425000D01*
X190443750Y-119425000D01*
X190412507Y-119423465D01*
X190381565Y-119418875D01*
X190351222Y-119411275D01*
X190321770Y-119400737D01*
X190293492Y-119387362D01*
X190266662Y-119371281D01*
X190241537Y-119352647D01*
X190218360Y-119331640D01*
X190197353Y-119308463D01*
X190178719Y-119283338D01*
X190162638Y-119256508D01*
X190149263Y-119228230D01*
X190138725Y-119198778D01*
X190131125Y-119168435D01*
X190126535Y-119137493D01*
X190125000Y-119106250D01*
X190125000Y-118468750D01*
X190126535Y-118437507D01*
X190131125Y-118406565D01*
X190138725Y-118376222D01*
X190149263Y-118346770D01*
X190162638Y-118318492D01*
X190178719Y-118291662D01*
X190197353Y-118266537D01*
X190218360Y-118243360D01*
X190241537Y-118222353D01*
X190266662Y-118203719D01*
X190293492Y-118187638D01*
X190321770Y-118174263D01*
X190351222Y-118163725D01*
X190381565Y-118156125D01*
X190412507Y-118151535D01*
X190443750Y-118150000D01*
X191156250Y-118150000D01*
X191187493Y-118151535D01*
X191187493Y-118151535D01*
G37*
D14*
X190800000Y-118787500D03*
D17*
X195175000Y-114500000D03*
X194525000Y-114500000D03*
X193875000Y-114500000D03*
X193225000Y-114500000D03*
X192575000Y-114500000D03*
X191925000Y-114500000D03*
X191275000Y-114500000D03*
X190625000Y-114500000D03*
X190625000Y-108600000D03*
X191275000Y-108600000D03*
X191925000Y-108600000D03*
X192575000Y-108600000D03*
X193225000Y-108600000D03*
X193875000Y-108600000D03*
X194525000Y-108600000D03*
X195175000Y-108600000D03*
D18*
X201400000Y-116000000D03*
D19*
X201400000Y-113230000D03*
X201400000Y-110460000D03*
X201400000Y-107690000D03*
X201400000Y-104920000D03*
X204240000Y-114615000D03*
X204240000Y-111845000D03*
X204240000Y-109075000D03*
X204240000Y-106305000D03*
D20*
X202820000Y-122960000D03*
X202820000Y-97960000D03*
M02*
